ISO-10303-21;
HEADER;
FILE_DESCRIPTION (( 'STEP AP214' ),
    '1' );
FILE_NAME ('Fixture 6.STEP',
    '2025-10-21T18:57:06',
    ( 'Windows User' ),
    ( '' ),
    'SwSTEP 2.0',
    'SolidWorks 2023',
    '' );
FILE_SCHEMA (( 'AUTOMOTIVE_DESIGN' ));
ENDSEC;

DATA;
#1 = DIRECTION ( 'NONE',  ( 0.000000000000000000, 0.000000000000000000, 1.000000000000000000 ) ) ;
#2 = CARTESIAN_POINT ( 'NONE',  ( -4.845965311726830649, 1.999999999999999112, 18.61170212765957288 ) ) ;
#3 = EDGE_CURVE ( 'NONE', #954, #457, #791, .T. ) ;
#4 = LINE ( 'NONE', #741, #538 ) ;
#5 = CARTESIAN_POINT ( 'NONE',  ( -9.061570170726598761, 19.00000000000001776, 15.86170212765957288 ) ) ;
#6 = ORIENTED_EDGE ( 'NONE', *, *, #967, .T. ) ;
#7 = DIRECTION ( 'NONE',  ( -1.000000000000000000, 0.000000000000000000, 0.000000000000000000 ) ) ;
#8 =( NAMED_UNIT ( * ) PLANE_ANGLE_UNIT ( ) SI_UNIT ( $, .RADIAN. ) );
#9 = ADVANCED_FACE ( 'NONE', ( #1201 ), #252, .F. ) ;
#10 = FACE_OUTER_BOUND ( 'NONE', #71, .T. ) ;
#11 = CARTESIAN_POINT ( 'NONE',  ( -3.845965311726827096, 10.00000000000000888, -8.638297872340428896 ) ) ;
#12 = EDGE_LOOP ( 'NONE', ( #949, #927 ) ) ;
#13 = DIRECTION ( 'NONE',  ( 1.000000000000000000, 0.000000000000000000, 0.000000000000000000 ) ) ;
#14 = LINE ( 'NONE', #27, #1082 ) ;
#15 = VERTEX_POINT ( 'NONE', #805 ) ;
#16 = LINE ( 'NONE', #1260, #933 ) ;
#17 = DIRECTION ( 'NONE',  ( 0.000000000000000000, 0.000000000000000000, -1.000000000000000000 ) ) ;
#18 = ORIENTED_EDGE ( 'NONE', *, *, #659, .T. ) ;
#19 = CARTESIAN_POINT ( 'NONE',  ( -3.845965311726831093, 0.003040795743203261736, 15.86170212765957288 ) ) ;
#20 = COLOUR_RGB ( '',0.7921568627450980005, 0.8196078431372548767, 0.9333333333333333481 ) ;
#21 = AXIS2_PLACEMENT_3D ( 'NONE', #168, #821, #701 ) ;
#22 = ORIENTED_EDGE ( 'NONE', *, *, #245, .T. ) ;
#23 = LINE ( 'NONE', #435, #1343 ) ;
#24 = CARTESIAN_POINT ( 'NONE',  ( -9.061570170726598761, -2.000000000000000000, -22.03829787234042570 ) ) ;
#25 = EDGE_LOOP ( 'NONE', ( #420, #205, #486, #1306, #164, #1070, #352, #574, #924, #1094, #388, #1318, #793, #504, #1328 ) ) ;
#26 = DIRECTION ( 'NONE',  ( 0.000000000000000000, 0.000000000000000000, 1.000000000000000000 ) ) ;
#27 = CARTESIAN_POINT ( 'NONE',  ( -3.845965311726829761, 19.00000000000001776, 15.86170212765957288 ) ) ;
#28 = VERTEX_POINT ( 'NONE', #795 ) ;
#29 = DIRECTION ( 'NONE',  ( -1.000000000000000000, 0.000000000000000000, 0.000000000000000000 ) ) ;
#30 = DIRECTION ( 'NONE',  ( 0.000000000000000000, 0.000000000000000000, -1.000000000000000000 ) ) ;
#31 = VERTEX_POINT ( 'NONE', #99 ) ;
#32 = ORIENTED_EDGE ( 'NONE', *, *, #1046, .T. ) ;
#33 = LINE ( 'NONE', #145, #912 ) ;
#34 = FACE_OUTER_BOUND ( 'NONE', #843, .T. ) ;
#35 = EDGE_LOOP ( 'NONE', ( #966, #360, #441, #368 ) ) ;
#36 = AXIS2_PLACEMENT_3D ( 'NONE', #1124, #1136, #719 ) ;
#37 = ORIENTED_EDGE ( 'NONE', *, *, #124, .T. ) ;
#38 = AXIS2_PLACEMENT_3D ( 'NONE', #1211, #1115, #1007 ) ;
#39 = AXIS2_PLACEMENT_3D ( 'NONE', #304, #440, #953 ) ;
#40 = LINE ( 'NONE', #770, #1150 ) ;
#41 = EDGE_CURVE ( 'NONE', #858, #1083, #1227, .T. ) ;
#42 = EDGE_CURVE ( 'NONE', #31, #461, #179, .T. ) ;
#43 = DIRECTION ( 'NONE',  ( 1.000000000000000000, -0.000000000000000000, -0.000000000000000000 ) ) ;
#44 = ORIENTED_EDGE ( 'NONE', *, *, #487, .F. ) ;
#45 = ORIENTED_EDGE ( 'NONE', *, *, #629, .T. ) ;
#46 = LINE ( 'NONE', #654, #240 ) ;
#47 = ADVANCED_FACE ( 'NONE', ( #1331 ), #787, .F. ) ;
#48 = LINE ( 'NONE', #53, #149 ) ;
#49 = VERTEX_POINT ( 'NONE', #1105 ) ;
#50 =( NAMED_UNIT ( * ) SI_UNIT ( $, .STERADIAN. ) SOLID_ANGLE_UNIT ( ) );
#51 = EDGE_LOOP ( 'NONE', ( #743, #991, #883, #246 ) ) ;
#52 = DIRECTION ( 'NONE',  ( 1.000000000000000000, 0.000000000000000000, -1.756682000989171981E-16 ) ) ;
#53 = CARTESIAN_POINT ( 'NONE',  ( -9.061570170726604090, 2.000000000000000000, -18.28829787234042570 ) ) ;
#54 = ADVANCED_FACE ( 'NONE', ( #272 ), #396, .F. ) ;
#55 = VERTEX_POINT ( 'NONE', #1207 ) ;
#56 = AXIS2_PLACEMENT_3D ( 'NONE', #932, #610, #1031 ) ;
#57 = EDGE_LOOP ( 'NONE', ( #1137, #870, #231, #1337 ) ) ;
#58 = AXIS2_PLACEMENT_3D ( 'NONE', #334, #342, #754 ) ;
#59 = DIRECTION ( 'NONE',  ( 1.000000000000000000, -0.000000000000000000, -0.000000000000000000 ) ) ;
#60 = VECTOR ( 'NONE', #305, 1000.000000000000000 ) ;
#61 = CARTESIAN_POINT ( 'NONE',  ( -3.845965311726828872, 10.00000000000000888, -18.28829787234042925 ) ) ;
#62 = EDGE_LOOP ( 'NONE', ( #156, #678, #1132, #285 ) ) ;
#63 = EDGE_LOOP ( 'NONE', ( #141, #1283 ) ) ;
#64 = ORIENTED_EDGE ( 'NONE', *, *, #98, .T. ) ;
#65 = CARTESIAN_POINT ( 'NONE',  ( -9.061570170726602313, 1.500000000000000000, -8.138297872340427119 ) ) ;
#66 = ORIENTED_EDGE ( 'NONE', *, *, #203, .T. ) ;
#67 = EDGE_CURVE ( 'NONE', #769, #1181, #728, .T. ) ;
#68 = CARTESIAN_POINT ( 'NONE',  ( -3.811570170726595208, 14.75000000000001421, 2.911702127659603789 ) ) ;
#69 = LINE ( 'NONE', #75, #259 ) ;
#70 = DIRECTION ( 'NONE',  ( -1.000000000000000000, 0.000000000000000000, 0.000000000000000000 ) ) ;
#71 = EDGE_LOOP ( 'NONE', ( #974, #963, #896, #592, #191 ) ) ;
#72 = LINE ( 'NONE', #488, #344 ) ;
#73 = ORIENTED_EDGE ( 'NONE', *, *, #1118, .F. ) ;
#74 = PLANE ( 'NONE',  #56 ) ;
#75 = CARTESIAN_POINT ( 'NONE',  ( -3.845965311726831093, 0.003040795743203261736, 15.86170212765957288 ) ) ;
#76 = VECTOR ( 'NONE', #829, 1000.000000000000000 ) ;
#77 = FILL_AREA_STYLE ('',( #507 ) ) ;
#78 = EDGE_CURVE ( 'NONE', #28, #763, #1232, .T. ) ;
#79 = EDGE_LOOP ( 'NONE', ( #740, #582 ) ) ;
#80 = CIRCLE ( 'NONE', #169, 1.250000000000001110 ) ;
#81 = EDGE_CURVE ( 'NONE', #461, #1122, #173, .T. ) ;
#82 = DIRECTION ( 'NONE',  ( 3.469446951953611231E-16, 0.000000000000000000, 1.000000000000000000 ) ) ;
#83 = AXIS2_PLACEMENT_3D ( 'NONE', #207, #1257, #1052 ) ;
#84 = ORIENTED_EDGE ( 'NONE', *, *, #724, .T. ) ;
#85 = DIRECTION ( 'NONE',  ( -1.000000000000000000, 0.000000000000000000, 0.000000000000000000 ) ) ;
#86 = DIRECTION ( 'NONE',  ( 0.000000000000000000, 0.000000000000000000, 1.000000000000000000 ) ) ;
#87 = EDGE_CURVE ( 'NONE', #530, #235, #209, .T. ) ;
#88 = LINE ( 'NONE', #688, #998 ) ;
#89 = ORIENTED_EDGE ( 'NONE', *, *, #1324, .F. ) ;
#90 = DIRECTION ( 'NONE',  ( -1.000000000000000000, -0.000000000000000000, 1.756682000989172474E-16 ) ) ;
#91 = CARTESIAN_POINT ( 'NONE',  ( -3.845965311726825764, 11.00304079574318372, 2.411702127659602457 ) ) ;
#92 = CARTESIAN_POINT ( 'NONE',  ( -9.061570170726598761, -2.000000000000000000, -24.03829787234042925 ) ) ;
#93 = CARTESIAN_POINT ( 'NONE',  ( -4.845965311726823543, 1.000000000000000000, -21.03829787234043280 ) ) ;
#94 = ORIENTED_EDGE ( 'NONE', *, *, #1162, .T. ) ;
#95 = ADVANCED_FACE ( 'NONE', ( #288 ), #74, .T. ) ;
#96 = DIRECTION ( 'NONE',  ( 0.000000000000000000, 0.000000000000000000, 1.000000000000000000 ) ) ;
#97 = EDGE_LOOP ( 'NONE', ( #750, #502, #1281, #437 ) ) ;
#98 = EDGE_CURVE ( 'NONE', #277, #704, #374, .T. ) ;
#99 = CARTESIAN_POINT ( 'NONE',  ( -3.845965311726831093, -2.000000000000000000, -21.03829787234043280 ) ) ;
#100 = DIRECTION ( 'NONE',  ( -0.000000000000000000, -1.000000000000000000, -0.000000000000000000 ) ) ;
#101 = CARTESIAN_POINT ( 'NONE',  ( -3.845965311726825764, 19.00000000000001776, 2.411702127659602457 ) ) ;
#102 = AXIS2_PLACEMENT_3D ( 'NONE', #1018, #85, #1025 ) ;
#103 = AXIS2_PLACEMENT_3D ( 'NONE', #436, #630, #1245 ) ;
#104 = CARTESIAN_POINT ( 'NONE',  ( -9.061570170726602313, 2.000000000000000000, -8.638297872340428896 ) ) ;
#105 = CIRCLE ( 'NONE', #212, 0.9999999999999991118 ) ;
#106 = VERTEX_POINT ( 'NONE', #699 ) ;
#107 = VECTOR ( 'NONE', #1091, 1000.000000000000000 ) ;
#108 = EDGE_CURVE ( 'NONE', #1176, #49, #233, .T. ) ;
#109 = CARTESIAN_POINT ( 'NONE',  ( -9.061570170726611195, 19.00000000000001066, -22.03829787234042570 ) ) ;
#110 = CARTESIAN_POINT ( 'NONE',  ( -3.845965311726831093, 1.000000000000000000, -24.03829787234042925 ) ) ;
#111 = EDGE_CURVE ( 'NONE', #467, #640, #707, .T. ) ;
#112 = DIRECTION ( 'NONE',  ( -0.000000000000000000, -1.000000000000000000, -0.000000000000000000 ) ) ;
#113 = ORIENTED_EDGE ( 'NONE', *, *, #677, .F. ) ;
#114 = CARTESIAN_POINT ( 'NONE',  ( 0.000000000000000000, 0.000000000000000000, 17.86170212765956933 ) ) ;
#115 = CYLINDRICAL_SURFACE ( 'NONE', #979, 0.9999999999999974465 ) ;
#116 = EDGE_CURVE ( 'NONE', #662, #227, #993, .T. ) ;
#117 = DIRECTION ( 'NONE',  ( -1.000000000000000000, 0.000000000000000000, 1.756682000989171981E-16 ) ) ;
#118 = DIRECTION ( 'NONE',  ( 0.000000000000000000, 0.000000000000000000, -1.000000000000000000 ) ) ;
#119 = ORIENTED_EDGE ( 'NONE', *, *, #1071, .F. ) ;
#120 = CARTESIAN_POINT ( 'NONE',  ( -3.845965311726828872, 10.00000000000000888, -18.28829787234042925 ) ) ;
#121 = LINE ( 'NONE', #412, #847 ) ;
#122 = ORIENTED_EDGE ( 'NONE', *, *, #369, .F. ) ;
#123 = DIRECTION ( 'NONE',  ( -1.223849885766669635E-16, 1.000000000000000000, 0.000000000000000000 ) ) ;
#124 = EDGE_CURVE ( 'NONE', #834, #498, #1340, .T. ) ;
#125 = FACE_OUTER_BOUND ( 'NONE', #1096, .T. ) ;
#126 = VERTEX_POINT ( 'NONE', #692 ) ;
#127 = VECTOR ( 'NONE', #408, 1000.000000000000000 ) ;
#128 = DIRECTION ( 'NONE',  ( -1.000000000000000000, 0.000000000000000000, 0.000000000000000000 ) ) ;
#129 = APPLICATION_CONTEXT ( 'automotive_design' ) ;
#130 = VECTOR ( 'NONE', #1173, 1000.000000000000000 ) ;
#131 = CARTESIAN_POINT ( 'NONE',  ( -9.061570170726611195, 6.250000000000005329, -11.08829787234040154 ) ) ;
#132 =( GEOMETRIC_REPRESENTATION_CONTEXT ( 3 ) GLOBAL_UNCERTAINTY_ASSIGNED_CONTEXT ( ( #483 ) ) GLOBAL_UNIT_ASSIGNED_CONTEXT ( ( #533, #8, #143 ) ) REPRESENTATION_CONTEXT ( 'NONE', 'WORKASPACE' ) );
#133 = ORIENTED_EDGE ( 'NONE', *, *, #958, .T. ) ;
#134 = MECHANICAL_DESIGN_GEOMETRIC_PRESENTATION_REPRESENTATION (  '', ( #849 ), #798 ) ;
#135 = CARTESIAN_POINT ( 'NONE',  ( -4.845965311726830649, 1.999999999999999112, 17.86170212765956933 ) ) ;
#136 = DIRECTION ( 'NONE',  ( 1.000000000000000000, -0.000000000000000000, -0.000000000000000000 ) ) ;
#137 = EDGE_LOOP ( 'NONE', ( #335, #1270 ) ) ;
#138 = ORIENTED_EDGE ( 'NONE', *, *, #225, .T. ) ;
#139 = DIRECTION ( 'NONE',  ( 0.000000000000000000, 0.000000000000000000, -1.000000000000000000 ) ) ;
#140 = LINE ( 'NONE', #1042, #792 ) ;
#141 = ORIENTED_EDGE ( 'NONE', *, *, #972, .F. ) ;
#142 = EDGE_CURVE ( 'NONE', #338, #1024, #186, .T. ) ;
#143 =( NAMED_UNIT ( * ) SI_UNIT ( $, .STERADIAN. ) SOLID_ANGLE_UNIT ( ) );
#144 = CARTESIAN_POINT ( 'NONE',  ( -9.061570170726596984, 5.000000000000000000, 20.86170212765956933 ) ) ;
#145 = CARTESIAN_POINT ( 'NONE',  ( -6.431570170726598867, 0.003040795743202945583, 15.86170212765957288 ) ) ;
#146 = CARTESIAN_POINT ( 'NONE',  ( -3.845965311726829761, 19.00000000000001776, 17.86170212765956933 ) ) ;
#147 = EDGE_LOOP ( 'NONE', ( #1300, #885, #652, #609 ) ) ;
#148 = EDGE_CURVE ( 'NONE', #106, #894, #682, .T. ) ;
#149 = VECTOR ( 'NONE', #354, 1000.000000000000000 ) ;
#150 = DIRECTION ( 'NONE',  ( -1.000000000000000000, -0.000000000000000000, 1.756682000989172474E-16 ) ) ;
#151 = AXIS2_PLACEMENT_3D ( 'NONE', #956, #859, #1140 ) ;
#152 = AXIS2_PLACEMENT_3D ( 'NONE', #945, #423, #633 ) ;
#153 = LINE ( 'NONE', #982, #431 ) ;
#154 = EDGE_CURVE ( 'NONE', #378, #1262, #819, .T. ) ;
#155 = DIRECTION ( 'NONE',  ( -1.000000000000000000, 0.000000000000000000, 0.000000000000000000 ) ) ;
#156 = ORIENTED_EDGE ( 'NONE', *, *, #3, .F. ) ;
#157 = EDGE_LOOP ( 'NONE', ( #551, #138, #1130, #968 ) ) ;
#158 = CARTESIAN_POINT ( 'NONE',  ( -9.061570170726600537, 1.500000000000000000, -8.638297872340427119 ) ) ;
#159 = LINE ( 'NONE', #61, #556 ) ;
#160 = ORIENTED_EDGE ( 'NONE', *, *, #78, .T. ) ;
#161 = EDGE_LOOP ( 'NONE', ( #291, #840, #415, #938 ) ) ;
#162 = DIRECTION ( 'NONE',  ( -1.000000000000000000, -0.000000000000000000, 1.756682000989171981E-16 ) ) ;
#163 = DIRECTION ( 'NONE',  ( 0.000000000000000000, 0.000000000000000000, 1.000000000000000000 ) ) ;
#164 = ORIENTED_EDGE ( 'NONE', *, *, #1209, .T. ) ;
#165 = ORIENTED_EDGE ( 'NONE', *, *, #1005, .T. ) ;
#166 = ORIENTED_EDGE ( 'NONE', *, *, #477, .T. ) ;
#167 = AXIS2_PLACEMENT_3D ( 'NONE', #114, #616, #1146 ) ;
#168 = CARTESIAN_POINT ( 'NONE',  ( -9.061570170726611195, 6.250000000000005329, 13.61170212765960130 ) ) ;
#169 = AXIS2_PLACEMENT_3D ( 'NONE', #1158, #217, #642 ) ;
#170 = DIRECTION ( 'NONE',  ( 0.000000000000000000, 1.000000000000000000, 0.000000000000000000 ) ) ;
#171 = EDGE_LOOP ( 'NONE', ( #558, #1030, #863, #827 ) ) ;
#172 = ORIENTED_EDGE ( 'NONE', *, *, #866, .F. ) ;
#173 = LINE ( 'NONE', #1216, #380 ) ;
#174 = DIRECTION ( 'NONE',  ( 1.000000000000000000, -0.000000000000000000, -0.000000000000000000 ) ) ;
#175 = CARTESIAN_POINT ( 'NONE',  ( -3.845965311726829761, 0.000000000000000000, -24.03829787234042925 ) ) ;
#176 = ORIENTED_EDGE ( 'NONE', *, *, #560, .T. ) ;
#177 = PLANE ( 'NONE',  #36 ) ;
#178 = EDGE_LOOP ( 'NONE', ( #267, #1013, #1219, #981 ) ) ;
#179 = LINE ( 'NONE', #1133, #952 ) ;
#180 = ADVANCED_FACE ( 'NONE', ( #1138 ), #322, .F. ) ;
#181 = CARTESIAN_POINT ( 'NONE',  ( -3.845965311726821767, 1.999999999999999112, 21.11170212765956578 ) ) ;
#182 = ADVANCED_FACE ( 'NONE', ( #1255 ), #432, .F. ) ;
#183 = DIRECTION ( 'NONE',  ( -1.000000000000000000, -0.000000000000000000, 1.756682000989172474E-16 ) ) ;
#184 = ORIENTED_EDGE ( 'NONE', *, *, #866, .T. ) ;
#185 = CARTESIAN_POINT ( 'NONE',  ( -4.845965311726823543, 1.000000000000000222, -19.03829787234043280 ) ) ;
#186 = LINE ( 'NONE', #1113, #341 ) ;
#187 = EDGE_CURVE ( 'NONE', #763, #28, #489, .T. ) ;
#188 = LINE ( 'NONE', #590, #755 ) ;
#189 = VECTOR ( 'NONE', #254, 1000.000000000000000 ) ;
#190 = DIRECTION ( 'NONE',  ( 1.000000000000000000, 0.000000000000000000, 0.000000000000000000 ) ) ;
#191 = ORIENTED_EDGE ( 'NONE', *, *, #1154, .F. ) ;
#192 = AXIS2_PLACEMENT_3D ( 'NONE', #93, #190, #316 ) ;
#193 = FACE_BOUND ( 'NONE', #63, .T. ) ;
#194 = CIRCLE ( 'NONE', #214, 1.000000000000003553 ) ;
#195 = ORIENTED_EDGE ( 'NONE', *, *, #87, .T. ) ;
#196 = DIRECTION ( 'NONE',  ( -1.000000000000000000, -0.000000000000000000, 1.756682000989171981E-16 ) ) ;
#197 = CARTESIAN_POINT ( 'NONE',  ( -3.845965311726827096, 10.00000000000000888, -8.638297872340428896 ) ) ;
#198 = ORIENTED_EDGE ( 'NONE', *, *, #700, .T. ) ;
#199 = FACE_OUTER_BOUND ( 'NONE', #760, .T. ) ;
#200 = ORIENTED_EDGE ( 'NONE', *, *, #781, .T. ) ;
#201 = DIRECTION ( 'NONE',  ( 1.000000000000000000, 0.000000000000000000, 0.000000000000000000 ) ) ;
#202 = FACE_OUTER_BOUND ( 'NONE', #458, .T. ) ;
#203 = EDGE_CURVE ( 'NONE', #607, #1160, #1274, .T. ) ;
#204 = LINE ( 'NONE', #185, #844 ) ;
#205 = ORIENTED_EDGE ( 'NONE', *, *, #1194, .T. ) ;
#206 = CARTESIAN_POINT ( 'NONE',  ( -3.845965311726831537, 6.250000000000005329, 13.61170212765960130 ) ) ;
#207 = CARTESIAN_POINT ( 'NONE',  ( -3.845965311726831093, 14.75000000000001421, 3.911702127659607342 ) ) ;
#208 = LINE ( 'NONE', #964, #977 ) ;
#209 = CIRCLE ( 'NONE', #643, 2.999999999999999112 ) ;
#210 = CIRCLE ( 'NONE', #1144, 1.249999999999997558 ) ;
#211 = CARTESIAN_POINT ( 'NONE',  ( -3.845965311726829761, 0.000000000000000000, -24.03829787234042925 ) ) ;
#212 = AXIS2_PLACEMENT_3D ( 'NONE', #807, #1239, #800 ) ;
#213 = ORIENTED_EDGE ( 'NONE', *, *, #940, .F. ) ;
#214 = AXIS2_PLACEMENT_3D ( 'NONE', #1238, #542, #639 ) ;
#215 = DIRECTION ( 'NONE',  ( -1.788374717501868956E-16, -0.000000000000000000, -1.000000000000000000 ) ) ;
#216 = FACE_OUTER_BOUND ( 'NONE', #257, .T. ) ;
#217 = DIRECTION ( 'NONE',  ( -1.000000000000000000, 0.000000000000000000, 1.756682000989171981E-16 ) ) ;
#218 = CARTESIAN_POINT ( 'NONE',  ( -9.061570170726611195, 6.250000000000005329, -10.08829787234040154 ) ) ;
#219 = EDGE_LOOP ( 'NONE', ( #534, #160 ) ) ;
#220 = FACE_OUTER_BOUND ( 'NONE', #1273, .T. ) ;
#221 = DIRECTION ( 'NONE',  ( 0.000000000000000000, -0.000000000000000000, -1.000000000000000000 ) ) ;
#222 = EDGE_LOOP ( 'NONE', ( #543, #298 ) ) ;
#223 = ADVANCED_FACE ( 'NONE', ( #220 ), #1038, .F. ) ;
#224 = PLANE ( 'NONE',  #577 ) ;
#225 = EDGE_CURVE ( 'NONE', #1326, #357, #1051, .T. ) ;
#226 = CARTESIAN_POINT ( 'NONE',  ( -3.845965311726829761, -2.000000000000000000, -24.03829787234042925 ) ) ;
#227 = VERTEX_POINT ( 'NONE', #308 ) ;
#228 = FACE_OUTER_BOUND ( 'NONE', #524, .T. ) ;
#229 = CARTESIAN_POINT ( 'NONE',  ( -9.061570170726598761, 19.00000000000001776, 15.86170212765957288 ) ) ;
#230 = EDGE_CURVE ( 'NONE', #319, #1170, #632, .T. ) ;
#231 = ORIENTED_EDGE ( 'NONE', *, *, #1048, .T. ) ;
#232 = CARTESIAN_POINT ( 'NONE',  ( -3.845965311726829761, -2.000000000000000000, 17.86170212765956933 ) ) ;
#233 = CIRCLE ( 'NONE', #1143, 0.9999999999999974465 ) ;
#234 = CARTESIAN_POINT ( 'NONE',  ( -4.845965311726830649, 1.999999999999999112, 19.86170212765956933 ) ) ;
#235 = VERTEX_POINT ( 'NONE', #944 ) ;
#236 = VECTOR ( 'NONE', #1264, 1000.000000000000000 ) ;
#237 = MECHANICAL_DESIGN_GEOMETRIC_PRESENTATION_REPRESENTATION (  '', ( #646 ), #513 ) ;
#238 = CONICAL_SURFACE ( 'NONE', #192, 2.000000000000001776, 0.7853981633974517207 ) ;
#239 = SHAPE_DEFINITION_REPRESENTATION ( #900, #1301 ) ;
#240 = VECTOR ( 'NONE', #348, 1000.000000000000000 ) ;
#241 = ORIENTED_EDGE ( 'NONE', *, *, #108, .F. ) ;
#242 = PLANE ( 'NONE',  #910 ) ;
#243 = CARTESIAN_POINT ( 'NONE',  ( -9.061570170726598761, 19.00000000000001776, 17.86170212765956933 ) ) ;
#244 = VERTEX_POINT ( 'NONE', #951 ) ;
#245 = EDGE_CURVE ( 'NONE', #1066, #530, #525, .T. ) ;
#246 = ORIENTED_EDGE ( 'NONE', *, *, #810, .T. ) ;
#247 = DIRECTION ( 'NONE',  ( -1.000000000000000000, -0.000000000000000000, 0.000000000000000000 ) ) ;
#248 = LINE ( 'NONE', #1203, #1319 ) ;
#249 = ORIENTED_EDGE ( 'NONE', *, *, #1324, .T. ) ;
#250 = EDGE_CURVE ( 'NONE', #578, #1311, #439, .T. ) ;
#251 = APPLICATION_PROTOCOL_DEFINITION ( 'draft international standard', 'automotive_design', 1998, #129 ) ;
#252 = CYLINDRICAL_SURFACE ( 'NONE', #617, 1.249999999999997558 ) ;
#253 = CARTESIAN_POINT ( 'NONE',  ( -9.061570170726596984, 11.00304079574318372, 12.11170212765957110 ) ) ;
#254 = DIRECTION ( 'NONE',  ( -1.000000000000000000, -0.000000000000000000, -0.000000000000000000 ) ) ;
#255 = EDGE_LOOP ( 'NONE', ( #698, #1184, #1057, #476 ) ) ;
#256 = CIRCLE ( 'NONE', #103, 2.000000000000001776 ) ;
#257 = EDGE_LOOP ( 'NONE', ( #712, #756, #1000, #119 ) ) ;
#258 = UNCERTAINTY_MEASURE_WITH_UNIT (LENGTH_MEASURE( 1.000000000000000082E-05 ), #284, 'distance_accuracy_value', 'NONE');
#259 = VECTOR ( 'NONE', #1323, 1000.000000000000000 ) ;
#260 = PLANE ( 'NONE',  #869 ) ;
#261 = DIRECTION ( 'NONE',  ( 1.000000000000000000, 0.000000000000000000, 0.000000000000000000 ) ) ;
#262 = ORIENTED_EDGE ( 'NONE', *, *, #803, .T. ) ;
#263 = DIRECTION ( 'NONE',  ( 0.000000000000000000, 0.000000000000000000, -1.000000000000000000 ) ) ;
#264 = CARTESIAN_POINT ( 'NONE',  ( -20.72347396041719847, 5.000000000000000000, 23.86170212765956933 ) ) ;
#265 = CARTESIAN_POINT ( 'NONE',  ( 0.000000000000000000, 0.000000000000000000, 0.000000000000000000 ) ) ;
#266 = ORIENTED_EDGE ( 'NONE', *, *, #269, .T. ) ;
#267 = ORIENTED_EDGE ( 'NONE', *, *, #876, .F. ) ;
#268 = LINE ( 'NONE', #1128, #345 ) ;
#269 = EDGE_CURVE ( 'NONE', #766, #328, #644, .T. ) ;
#270 = CARTESIAN_POINT ( 'NONE',  ( -9.061570170726600537, 14.75000000000001421, 2.911702127659604677 ) ) ;
#271 = ORIENTED_EDGE ( 'NONE', *, *, #724, .F. ) ;
#272 = FACE_OUTER_BOUND ( 'NONE', #157, .T. ) ;
#273 = VECTOR ( 'NONE', #1049, 1000.000000000000000 ) ;
#274 = DIRECTION ( 'NONE',  ( -1.000000000000000000, 0.000000000000000000, 1.756682000989172474E-16 ) ) ;
#275 = CIRCLE ( 'NONE', #732, 2.999999999999995559 ) ;
#276 = AXIS2_PLACEMENT_3D ( 'NONE', #812, #580, #1229 ) ;
#277 = VERTEX_POINT ( 'NONE', #1161 ) ;
#278 = CYLINDRICAL_SURFACE ( 'NONE', #361, 0.9999999999999974465 ) ;
#279 = ORIENTED_EDGE ( 'NONE', *, *, #340, .F. ) ;
#280 = ADVANCED_FACE ( 'NONE', ( #228 ), #638, .F. ) ;
#281 = EDGE_CURVE ( 'NONE', #357, #126, #1062, .T. ) ;
#282 = DIRECTION ( 'NONE',  ( -0.000000000000000000, -0.000000000000000000, -1.000000000000000000 ) ) ;
#283 = DIRECTION ( 'NONE',  ( -1.000000000000000000, -0.000000000000000000, 1.756682000989172474E-16 ) ) ;
#284 =( LENGTH_UNIT ( ) NAMED_UNIT ( * ) SI_UNIT ( .MILLI., .METRE. ) );
#285 = ORIENTED_EDGE ( 'NONE', *, *, #572, .T. ) ;
#286 = DIRECTION ( 'NONE',  ( 0.000000000000000000, 0.000000000000000000, 1.000000000000000000 ) ) ;
#287 = EDGE_CURVE ( 'NONE', #894, #31, #753, .T. ) ;
#288 = FACE_OUTER_BOUND ( 'NONE', #1022, .T. ) ;
#289 = FACE_OUTER_BOUND ( 'NONE', #1225, .T. ) ;
#290 = CARTESIAN_POINT ( 'NONE',  ( -4.845965311726830649, 1.000000000000000000, -19.78829787234043280 ) ) ;
#291 = ORIENTED_EDGE ( 'NONE', *, *, #958, .F. ) ;
#292 = CARTESIAN_POINT ( 'NONE',  ( -3.845965311726831093, 1.999999999999999112, 16.86170212765957288 ) ) ;
#293 = VERTEX_POINT ( 'NONE', #1247 ) ;
#294 = DIRECTION ( 'NONE',  ( 0.000000000000000000, 0.000000000000000000, -1.000000000000000000 ) ) ;
#295 = LINE ( 'NONE', #397, #1192 ) ;
#296 = CLOSED_SHELL ( 'NONE', ( #1308, #914, #355, #418, #527, #349, #362, #54, #182, #9, #336, #873, #851, #323, #1053, #280, #1244, #426, #1200, #463, #947, #1315, #708, #561, #1288, #223, #95, #386, #390, #1204, #767, #950, #588, #531, #625, #761, #718, #1221, #1293, #180, #47 ) ) ;
#297 = FACE_OUTER_BOUND ( 'NONE', #57, .T. ) ;
#298 = ORIENTED_EDGE ( 'NONE', *, *, #600, .T. ) ;
#299 = AXIS2_PLACEMENT_3D ( 'NONE', #717, #1129, #711 ) ;
#300 = FACE_OUTER_BOUND ( 'NONE', #325, .T. ) ;
#301 = CIRCLE ( 'NONE', #409, 1.249999999999997558 ) ;
#302 = VERTEX_POINT ( 'NONE', #727 ) ;
#303 = CARTESIAN_POINT ( 'NONE',  ( -3.811570170726599205, 0.000000000000000000, 11.61170212765957110 ) ) ;
#304 = CARTESIAN_POINT ( 'NONE',  ( -3.845965311726828872, 10.00000000000000888, -18.28829787234042925 ) ) ;
#305 = DIRECTION ( 'NONE',  ( 1.000000000000000000, -0.000000000000000000, -0.000000000000000000 ) ) ;
#306 = DIRECTION ( 'NONE',  ( -1.000000000000000000, 0.000000000000000000, 0.000000000000000000 ) ) ;
#307 = ORIENTED_EDGE ( 'NONE', *, *, #835, .F. ) ;
#308 = CARTESIAN_POINT ( 'NONE',  ( -3.845965311726829761, 6.250000000000005329, -11.08829787234040154 ) ) ;
#309 = DIRECTION ( 'NONE',  ( 0.000000000000000000, 0.000000000000000000, 1.000000000000000000 ) ) ;
#310 = DIRECTION ( 'NONE',  ( 0.7071067811865449082, 8.659560562354964906E-17, 0.7071067811865501263 ) ) ;
#311 = PRODUCT_RELATED_PRODUCT_CATEGORY ( 'part', '', ( #1106 ) ) ;
#312 = PLANE ( 'NONE',  #865 ) ;
#313 = ORIENTED_EDGE ( 'NONE', *, *, #1287, .F. ) ;
#314 = DIRECTION ( 'NONE',  ( -1.000000000000000000, 0.000000000000000000, 0.000000000000000000 ) ) ;
#315 = DIRECTION ( 'NONE',  ( -0.000000000000000000, -1.000000000000000000, -0.000000000000000000 ) ) ;
#316 = DIRECTION ( 'NONE',  ( 0.000000000000000000, 0.000000000000000000, -1.000000000000000000 ) ) ;
#317 = CYLINDRICAL_SURFACE ( 'NONE', #773, 2.999999999999999112 ) ;
#318 = VECTOR ( 'NONE', #723, 1000.000000000000000 ) ;
#319 = VERTEX_POINT ( 'NONE', #1335 ) ;
#320 = VECTOR ( 'NONE', #864, 1000.000000000000000 ) ;
#321 = EDGE_CURVE ( 'NONE', #467, #1206, #1210, .T. ) ;
#322 = PLANE ( 'NONE',  #975 ) ;
#323 = ADVANCED_FACE ( 'NONE', ( #690, #193, #1023, #1240, #1110, #713, #1214 ), #177, .F. ) ;
#324 = CARTESIAN_POINT ( 'NONE',  ( -9.061570170726607643, 19.00000000000001066, -18.28829787234042925 ) ) ;
#325 = EDGE_LOOP ( 'NONE', ( #1050, #449, #464, #32 ) ) ;
#326 = CARTESIAN_POINT ( 'NONE',  ( -9.061570170726604090, 1.000000000000000000, -21.03829787234043280 ) ) ;
#327 = DIRECTION ( 'NONE',  ( 1.000000000000000000, 0.000000000000000000, 0.000000000000000000 ) ) ;
#328 = VERTEX_POINT ( 'NONE', #292 ) ;
#329 = EDGE_CURVE ( 'NONE', #1084, #601, #1342, .T. ) ;
#330 = CARTESIAN_POINT ( 'NONE',  ( 0.000000000000000000, 11.00000000000000000, 17.86170212765956933 ) ) ;
#331 = FACE_OUTER_BOUND ( 'NONE', #971, .T. ) ;
#332 = ORIENTED_EDGE ( 'NONE', *, *, #804, .F. ) ;
#333 = LINE ( 'NONE', #946, #684 ) ;
#334 = CARTESIAN_POINT ( 'NONE',  ( -3.811570170726595208, 14.75000000000001421, 3.911702127659607342 ) ) ;
#335 = ORIENTED_EDGE ( 'NONE', *, *, #1145, .F. ) ;
#336 = ADVANCED_FACE ( 'NONE', ( #389 ), #697, .F. ) ;
#337 = SURFACE_SIDE_STYLE ('',( #768 ) ) ;
#338 = VERTEX_POINT ( 'NONE', #503 ) ;
#339 = DIRECTION ( 'NONE',  ( -1.000000000000000000, -0.000000000000000000, 1.756682000989171981E-16 ) ) ;
#340 = EDGE_CURVE ( 'NONE', #1294, #106, #204, .T. ) ;
#341 = VECTOR ( 'NONE', #595, 1000.000000000000000 ) ;
#342 = DIRECTION ( 'NONE',  ( -1.000000000000000000, -0.000000000000000000, 1.756682000989171981E-16 ) ) ;
#343 = VERTEX_POINT ( 'NONE', #923 ) ;
#344 = VECTOR ( 'NONE', #907, 1000.000000000000000 ) ;
#345 = VECTOR ( 'NONE', #1339, 1000.000000000000000 ) ;
#346 = SURFACE_STYLE_USAGE ( .BOTH. , #337 ) ;
#347 = ORIENTED_EDGE ( 'NONE', *, *, #454, .F. ) ;
#348 = DIRECTION ( 'NONE',  ( -1.756682000989172228E-16, 0.000000000000000000, -1.000000000000000000 ) ) ;
#349 = ADVANCED_FACE ( 'NONE', ( #809 ), #1233, .F. ) ;
#350 = DIRECTION ( 'NONE',  ( 0.000000000000000000, -0.000000000000000000, -1.000000000000000000 ) ) ;
#351 = ORIENTED_EDGE ( 'NONE', *, *, #250, .T. ) ;
#352 = ORIENTED_EDGE ( 'NONE', *, *, #1011, .T. ) ;
#353 = FACE_OUTER_BOUND ( 'NONE', #496, .T. ) ;
#354 = DIRECTION ( 'NONE',  ( 0.000000000000000000, 1.000000000000000000, 0.000000000000000000 ) ) ;
#355 = ADVANCED_FACE ( 'NONE', ( #1034 ), #278, .F. ) ;
#356 = ORIENTED_EDGE ( 'NONE', *, *, #41, .F. ) ;
#357 = VERTEX_POINT ( 'NONE', #497 ) ;
#358 = CARTESIAN_POINT ( 'NONE',  ( -3.811570170726595208, 14.75000000000001421, 3.911702127659607342 ) ) ;
#359 = DIRECTION ( 'NONE',  ( 0.000000000000000000, 0.000000000000000000, -1.000000000000000000 ) ) ;
#360 = ORIENTED_EDGE ( 'NONE', *, *, #1148, .F. ) ;
#361 = AXIS2_PLACEMENT_3D ( 'NONE', #516, #937, #96 ) ;
#362 = ADVANCED_FACE ( 'NONE', ( #199 ), #587, .F. ) ;
#363 = FILL_AREA_STYLE_COLOUR ( '', #890 ) ;
#364 = ORIENTED_EDGE ( 'NONE', *, *, #321, .F. ) ;
#365 = AXIS2_PLACEMENT_3D ( 'NONE', #326, #628, #1249 ) ;
#366 = CARTESIAN_POINT ( 'NONE',  ( -9.061570170726596984, 5.000000000000000000, 23.86170212765956933 ) ) ;
#367 = DIRECTION ( 'NONE',  ( 1.797640907747986603E-16, 0.000000000000000000, 1.000000000000000000 ) ) ;
#368 = ORIENTED_EDGE ( 'NONE', *, *, #972, .T. ) ;
#369 = EDGE_CURVE ( 'NONE', #453, #1305, #1009, .T. ) ;
#370 = ORIENTED_EDGE ( 'NONE', *, *, #1209, .F. ) ;
#371 = DIRECTION ( 'NONE',  ( 0.000000000000000000, 0.000000000000000000, 1.000000000000000000 ) ) ;
#372 = CARTESIAN_POINT ( 'NONE',  ( -3.845965311726828428, 1.000000000000000000, -19.78829787234043280 ) ) ;
#373 = ORIENTED_EDGE ( 'NONE', *, *, #657, .F. ) ;
#374 = LINE ( 'NONE', #811, #817 ) ;
#375 = CARTESIAN_POINT ( 'NONE',  ( -3.845965311726829761, 14.75000000000001776, -19.78829787234039728 ) ) ;
#376 = CARTESIAN_POINT ( 'NONE',  ( -3.845965311726829761, -0.000000000000000000, 0.000000000000000000 ) ) ;
#377 = EDGE_CURVE ( 'NONE', #302, #954, #72, .T. ) ;
#378 = VERTEX_POINT ( 'NONE', #1320 ) ;
#379 = ORIENTED_EDGE ( 'NONE', *, *, #287, .T. ) ;
#380 = VECTOR ( 'NONE', #511, 1000.000000000000000 ) ;
#381 = CARTESIAN_POINT ( 'NONE',  ( -4.845965311726830649, 1.999999999999999112, 19.86170212765956933 ) ) ;
#382 = VECTOR ( 'NONE', #136, 1000.000000000000000 ) ;
#383 = CARTESIAN_POINT ( 'NONE',  ( -9.061570170726611195, 6.250000000000005329, 14.61170212765960130 ) ) ;
#384 = CIRCLE ( 'NONE', #845, 2.999999999999999112 ) ;
#385 = VECTOR ( 'NONE', #100, 1000.000000000000000 ) ;
#386 = ADVANCED_FACE ( 'NONE', ( #300 ), #802, .T. ) ;
#387 = CARTESIAN_POINT ( 'NONE',  ( -3.845965311726829761, 19.00000000000001776, -24.03829787234042925 ) ) ;
#388 = ORIENTED_EDGE ( 'NONE', *, *, #438, .F. ) ;
#389 = FACE_OUTER_BOUND ( 'NONE', #51, .T. ) ;
#390 = ADVANCED_FACE ( 'NONE', ( #1015, #917 ), #1327, .T. ) ;
#391 = DIRECTION ( 'NONE',  ( 0.000000000000000000, 0.000000000000000000, -1.000000000000000000 ) ) ;
#392 = CARTESIAN_POINT ( 'NONE',  ( -3.845965311726831093, 14.75000000000001421, 4.911702127659610895 ) ) ;
#393 = DIRECTION ( 'NONE',  ( 0.000000000000000000, 0.000000000000000000, 1.000000000000000000 ) ) ;
#394 = ORIENTED_EDGE ( 'NONE', *, *, #116, .T. ) ;
#395 = CARTESIAN_POINT ( 'NONE',  ( -4.845965311726830649, 1.000000000000000000, -21.03829787234043280 ) ) ;
#396 = CYLINDRICAL_SURFACE ( 'NONE', #1168, 1.249999999999997558 ) ;
#397 = CARTESIAN_POINT ( 'NONE',  ( -9.061570170726611195, 6.250000000000005329, -9.088297872340399763 ) ) ;
#398 = DIRECTION ( 'NONE',  ( 0.000000000000000000, -6.270084852928217493E-17, -1.000000000000000000 ) ) ;
#399 = EDGE_LOOP ( 'NONE', ( #241, #508 ) ) ;
#400 = CARTESIAN_POINT ( 'NONE',  ( -3.845965311726828872, 1.000000000000000000, -21.03829787234043280 ) ) ;
#401 = EDGE_LOOP ( 'NONE', ( #899, #266 ) ) ;
#402 = DIRECTION ( 'NONE',  ( 3.469446951953621091E-16, 0.000000000000000000, 1.000000000000000000 ) ) ;
#403 = AXIS2_PLACEMENT_3D ( 'NONE', #1313, #481, #901 ) ;
#404 = DIRECTION ( 'NONE',  ( 1.000000000000000000, 0.000000000000000000, 0.000000000000000000 ) ) ;
#405 = VECTOR ( 'NONE', #339, 1000.000000000000000 ) ;
#406 = CARTESIAN_POINT ( 'NONE',  ( -3.845965311726823987, 11.00304079574318372, 12.11170212765956933 ) ) ;
#407 = CIRCLE ( 'NONE', #1064, 1.000000000000000888 ) ;
#408 = DIRECTION ( 'NONE',  ( 0.000000000000000000, 1.000000000000000000, 0.000000000000000000 ) ) ;
#409 = AXIS2_PLACEMENT_3D ( 'NONE', #447, #548, #892 ) ;
#410 = VERTEX_POINT ( 'NONE', #608 ) ;
#411 = DIRECTION ( 'NONE',  ( 1.756682000989172474E-16, -0.000000000000000000, 1.000000000000000000 ) ) ;
#412 = CARTESIAN_POINT ( 'NONE',  ( -3.845965311726829317, 1.000000000000000222, -22.28829787234043636 ) ) ;
#413 = LINE ( 'NONE', #442, #405 ) ;
#414 = DIRECTION ( 'NONE',  ( -0.000000000000000000, -0.000000000000000000, -1.000000000000000000 ) ) ;
#415 = ORIENTED_EDGE ( 'NONE', *, *, #98, .F. ) ;
#416 = DIRECTION ( 'NONE',  ( 0.000000000000000000, 0.000000000000000000, -1.000000000000000000 ) ) ;
#417 = DIRECTION ( 'NONE',  ( 1.000000000000000000, 0.000000000000000000, 0.000000000000000000 ) ) ;
#418 = ADVANCED_FACE ( 'NONE', ( #125 ), #623, .F. ) ;
#419 = FACE_OUTER_BOUND ( 'NONE', #1116, .T. ) ;
#420 = ORIENTED_EDGE ( 'NONE', *, *, #369, .T. ) ;
#421 = EDGE_CURVE ( 'NONE', #343, #1294, #256, .T. ) ;
#422 = DIRECTION ( 'NONE',  ( -1.000000000000000000, 0.000000000000000000, 0.000000000000000000 ) ) ;
#423 = DIRECTION ( 'NONE',  ( 1.000000000000000000, 0.000000000000000000, 0.000000000000000000 ) ) ;
#424 = ORIENTED_EDGE ( 'NONE', *, *, #67, .T. ) ;
#425 = CARTESIAN_POINT ( 'NONE',  ( -3.845965311726831093, 0.003040795743203261736, 15.86170212765957288 ) ) ;
#426 = ADVANCED_FACE ( 'NONE', ( #34 ), #312, .F. ) ;
#427 = AXIS2_PLACEMENT_3D ( 'NONE', #1058, #128, #1 ) ;
#428 = DIRECTION ( 'NONE',  ( -1.000000000000000000, -0.000000000000000000, 1.756682000989172474E-16 ) ) ;
#429 = VECTOR ( 'NONE', #898, 1000.000000000000000 ) ;
#430 = ORIENTED_EDGE ( 'NONE', *, *, #108, .T. ) ;
#431 = VECTOR ( 'NONE', #778, 1000.000000000000000 ) ;
#432 = PLANE ( 'NONE',  #553 ) ;
#433 = CARTESIAN_POINT ( 'NONE',  ( -4.845965311726830649, 1.000000000000000444, -19.03829787234043280 ) ) ;
#434 = EDGE_LOOP ( 'NONE', ( #888, #1266 ) ) ;
#435 = CARTESIAN_POINT ( 'NONE',  ( -6.431570170726598867, 0.000000000000000000, 11.61170212765957110 ) ) ;
#436 = CARTESIAN_POINT ( 'NONE',  ( -4.845965311726830649, 1.000000000000000000, -21.03829787234043280 ) ) ;
#437 = ORIENTED_EDGE ( 'NONE', *, *, #615, .F. ) ;
#438 = EDGE_CURVE ( 'NONE', #302, #1122, #749, .T. ) ;
#439 = LINE ( 'NONE', #109, #76 ) ;
#440 = DIRECTION ( 'NONE',  ( 0.000000000000000000, -1.000000000000000000, 0.000000000000000000 ) ) ;
#441 = ORIENTED_EDGE ( 'NONE', *, *, #1185, .T. ) ;
#442 = CARTESIAN_POINT ( 'NONE',  ( -3.811570170726598761, 14.75000000000001776, -20.78829787234039372 ) ) ;
#443 = CARTESIAN_POINT ( 'NONE',  ( -3.845965311726827096, 1.500000000000000000, -8.638297872340428896 ) ) ;
#444 = EDGE_LOOP ( 'NONE', ( #681, #198, #356, #988 ) ) ;
#445 = EDGE_CURVE ( 'NONE', #790, #929, #1141, .T. ) ;
#446 = ORIENTED_EDGE ( 'NONE', *, *, #124, .F. ) ;
#447 = CARTESIAN_POINT ( 'NONE',  ( -9.061570170726596984, 1.999999999999999112, 19.86170212765956933 ) ) ;
#448 = DIRECTION ( 'NONE',  ( 1.000000000000000000, 0.000000000000000000, 0.000000000000000000 ) ) ;
#449 = ORIENTED_EDGE ( 'NONE', *, *, #989, .T. ) ;
#450 = AXIS2_PLACEMENT_3D ( 'NONE', #1242, #721, #836 ) ;
#451 = VECTOR ( 'NONE', #1074, 1000.000000000000000 ) ;
#452 = AXIS2_PLACEMENT_3D ( 'NONE', #229, #519, #221 ) ;
#453 = VERTEX_POINT ( 'NONE', #243 ) ;
#454 = EDGE_CURVE ( 'NONE', #1262, #338, #742, .T. ) ;
#455 = FACE_BOUND ( 'NONE', #905, .T. ) ;
#456 = DIRECTION ( 'NONE',  ( 0.000000000000000000, 0.000000000000000000, 1.000000000000000000 ) ) ;
#457 = VERTEX_POINT ( 'NONE', #1065 ) ;
#458 = EDGE_LOOP ( 'NONE', ( #985, #568, #45, #801 ) ) ;
#459 = DIRECTION ( 'NONE',  ( 0.000000000000000000, 0.000000000000000000, -1.000000000000000000 ) ) ;
#460 = CARTESIAN_POINT ( 'NONE',  ( -3.845965311726829761, 19.00000000000001776, 17.86170212765956933 ) ) ;
#461 = VERTEX_POINT ( 'NONE', #226 ) ;
#462 = EDGE_CURVE ( 'NONE', #1095, #1084, #537, .T. ) ;
#463 = ADVANCED_FACE ( 'NONE', ( #549 ), #529, .F. ) ;
#464 = ORIENTED_EDGE ( 'NONE', *, *, #377, .F. ) ;
#465 = CARTESIAN_POINT ( 'NONE',  ( -9.061570170726598761, 11.00000000000000000, 17.86170212765956933 ) ) ;
#466 = LINE ( 'NONE', #1304, #908 ) ;
#467 = VERTEX_POINT ( 'NONE', #1069 ) ;
#468 = EDGE_CURVE ( 'NONE', #461, #894, #651, .T. ) ;
#469 = VECTOR ( 'NONE', #13, 1000.000000000000000 ) ;
#470 = ORIENTED_EDGE ( 'NONE', *, *, #691, .T. ) ;
#471 = VECTOR ( 'NONE', #183, 1000.000000000000000 ) ;
#472 = VECTOR ( 'NONE', #283, 1000.000000000000000 ) ;
#473 = FACE_BOUND ( 'NONE', #401, .T. ) ;
#474 = CARTESIAN_POINT ( 'NONE',  ( -9.061570170726602313, 10.00000000000000888, -8.638297872340427119 ) ) ;
#475 = ORIENTED_EDGE ( 'NONE', *, *, #666, .T. ) ;
#476 = ORIENTED_EDGE ( 'NONE', *, *, #904, .T. ) ;
#477 = EDGE_CURVE ( 'NONE', #996, #277, #140, .T. ) ;
#478 = PLANE ( 'NONE',  #1040 ) ;
#479 = DIRECTION ( 'NONE',  ( 1.756682000989172228E-16, 3.650880835435041526E-16, 1.000000000000000000 ) ) ;
#480 = VERTEX_POINT ( 'NONE', #1268 ) ;
#481 = DIRECTION ( 'NONE',  ( 1.000000000000000000, -0.000000000000000000, -0.000000000000000000 ) ) ;
#482 = EDGE_CURVE ( 'NONE', #1326, #410, #210, .T. ) ;
#483 = UNCERTAINTY_MEASURE_WITH_UNIT (LENGTH_MEASURE( 1.000000000000000082E-05 ), #533, 'distance_accuracy_value', 'NONE');
#484 = CARTESIAN_POINT ( 'NONE',  ( -9.061570170726604090, 14.75000000000001776, -19.78829787234039728 ) ) ;
#485 = PLANE ( 'NONE',  #1017 ) ;
#486 = ORIENTED_EDGE ( 'NONE', *, *, #142, .T. ) ;
#487 = EDGE_CURVE ( 'NONE', #1241, #227, #970, .T. ) ;
#488 = CARTESIAN_POINT ( 'NONE',  ( -9.061570170726596984, -2.000000000000000888, 23.86170212765956933 ) ) ;
#489 = CIRCLE ( 'NONE', #1253, 1.250000000000001110 ) ;
#490 = DIRECTION ( 'NONE',  ( 0.000000000000000000, 0.000000000000000000, -1.000000000000000000 ) ) ;
#491 = AXIS2_PLACEMENT_3D ( 'NONE', #1081, #261, #359 ) ;
#492 = FACE_OUTER_BOUND ( 'NONE', #1164, .T. ) ;
#493 = CIRCLE ( 'NONE', #664, 1.000000000000003553 ) ;
#494 = VECTOR ( 'NONE', #1314, 1000.000000000000000 ) ;
#495 = DIRECTION ( 'NONE',  ( 6.413436651365048520E-32, -1.000000000000000000, 3.650880835435041526E-16 ) ) ;
#496 = EDGE_LOOP ( 'NONE', ( #909, #18, #777, #875, #195, #564, #510, #878, #751, #980, #84, #373, #546, #176, #249, #94, #676 ) ) ;
#497 = CARTESIAN_POINT ( 'NONE',  ( -9.061570170726596984, 1.999999999999999112, 18.61170212765957288 ) ) ;
#498 = VERTEX_POINT ( 'NONE', #545 ) ;
#499 = CARTESIAN_POINT ( 'NONE',  ( -3.845965311726822211, 1.999999999999999112, 19.86170212765956933 ) ) ;
#500 = DIRECTION ( 'NONE',  ( 0.000000000000000000, 0.000000000000000000, -1.000000000000000000 ) ) ;
#501 = FACE_OUTER_BOUND ( 'NONE', #1275, .T. ) ;
#502 = ORIENTED_EDGE ( 'NONE', *, *, #677, .T. ) ;
#503 = CARTESIAN_POINT ( 'NONE',  ( -9.061570170726598761, 11.00304079574318372, 2.411702127659603345 ) ) ;
#504 = ORIENTED_EDGE ( 'NONE', *, *, #1086, .T. ) ;
#505 = CARTESIAN_POINT ( 'NONE',  ( -3.845965311726828872, 10.00000000000000888, -18.28829787234042925 ) ) ;
#506 = CARTESIAN_POINT ( 'NONE',  ( -4.845965311726830649, 1.999999999999999112, 19.86170212765956933 ) ) ;
#507 = FILL_AREA_STYLE_COLOUR ( '', #20 ) ;
#508 = ORIENTED_EDGE ( 'NONE', *, *, #1187, .F. ) ;
#509 = DIRECTION ( 'NONE',  ( 0.000000000000000000, 0.000000000000000000, -1.000000000000000000 ) ) ;
#510 = ORIENTED_EDGE ( 'NONE', *, *, #520, .T. ) ;
#511 = DIRECTION ( 'NONE',  ( -1.000000000000000000, 0.000000000000000000, 0.000000000000000000 ) ) ;
#512 = DIRECTION ( 'NONE',  ( 0.000000000000000000, 0.000000000000000000, -1.000000000000000000 ) ) ;
#513 =( GEOMETRIC_REPRESENTATION_CONTEXT ( 3 ) GLOBAL_UNCERTAINTY_ASSIGNED_CONTEXT ( ( #258 ) ) GLOBAL_UNIT_ASSIGNED_CONTEXT ( ( #284, #694, #1121 ) ) REPRESENTATION_CONTEXT ( 'NONE', 'WORKASPACE' ) );
#514 = CARTESIAN_POINT ( 'NONE',  ( -9.061570170726611195, 6.250000000000005329, 12.61170212765960308 ) ) ;
#515 = VECTOR ( 'NONE', #920, 1000.000000000000000 ) ;
#516 = CARTESIAN_POINT ( 'NONE',  ( -3.811570170726598761, 14.75000000000001776, -19.78829787234039728 ) ) ;
#517 = ORIENTED_EDGE ( 'NONE', *, *, #1329, .T. ) ;
#518 = DIRECTION ( 'NONE',  ( 1.000000000000000000, 0.000000000000000000, -1.756682000989172474E-16 ) ) ;
#519 = DIRECTION ( 'NONE',  ( 0.000000000000000000, -1.000000000000000000, 0.000000000000000000 ) ) ;
#520 = EDGE_CURVE ( 'NONE', #670, #960, #860, .T. ) ;
#521 = CARTESIAN_POINT ( 'NONE',  ( -9.061570170726600537, 14.75000000000001421, 3.911702127659608230 ) ) ;
#522 = EDGE_CURVE ( 'NONE', #1090, #601, #523, .T. ) ;
#523 = LINE ( 'NONE', #11, #596 ) ;
#524 = EDGE_LOOP ( 'NONE', ( #895, #133, #1312, #1180 ) ) ;
#525 = LINE ( 'NONE', #330, #469 ) ;
#526 = LINE ( 'NONE', #1156, #385 ) ;
#527 = ADVANCED_FACE ( 'NONE', ( #419 ), #735, .F. ) ;
#528 = CARTESIAN_POINT ( 'NONE',  ( -6.431570170726598867, 0.000000000000000000, 11.61170212765957110 ) ) ;
#529 = CYLINDRICAL_SURFACE ( 'NONE', #1189, 1.000000000000000888 ) ;
#530 = VERTEX_POINT ( 'NONE', #839 ) ;
#531 = ADVANCED_FACE ( 'NONE', ( #948 ), #317, .T. ) ;
#532 = DIRECTION ( 'NONE',  ( -1.000000000000000000, -0.000000000000000000, -0.000000000000000000 ) ) ;
#533 =( LENGTH_UNIT ( ) NAMED_UNIT ( * ) SI_UNIT ( .MILLI., .METRE. ) );
#534 = ORIENTED_EDGE ( 'NONE', *, *, #187, .T. ) ;
#535 = LINE ( 'NONE', #101, #318 ) ;
#536 = VECTOR ( 'NONE', #965, 1000.000000000000000 ) ;
#537 = LINE ( 'NONE', #443, #536 ) ;
#538 = VECTOR ( 'NONE', #1047, 1000.000000000000000 ) ;
#539 = EDGE_LOOP ( 'NONE', ( #1235, #1077, #667, #1193 ) ) ;
#540 = CIRCLE ( 'NONE', #686, 1.000000000000000888 ) ;
#541 = CARTESIAN_POINT ( 'NONE',  ( -9.061570170726596984, 1.999999999999999112, 19.86170212765956933 ) ) ;
#542 = DIRECTION ( 'NONE',  ( -1.000000000000000000, 0.000000000000000000, 1.756682000989171981E-16 ) ) ;
#543 = ORIENTED_EDGE ( 'NONE', *, *, #421, .T. ) ;
#544 = FACE_OUTER_BOUND ( 'NONE', #161, .T. ) ;
#545 = CARTESIAN_POINT ( 'NONE',  ( -4.845965311726830649, 1.999999999999999556, 21.86170212765956578 ) ) ;
#546 = ORIENTED_EDGE ( 'NONE', *, *, #1287, .T. ) ;
#547 = VERTEX_POINT ( 'NONE', #146 ) ;
#548 = DIRECTION ( 'NONE',  ( -1.000000000000000000, 0.000000000000000000, 1.756682000989171981E-16 ) ) ;
#549 = FACE_OUTER_BOUND ( 'NONE', #916, .T. ) ;
#550 = ORIENTED_EDGE ( 'NONE', *, *, #142, .F. ) ;
#551 = ORIENTED_EDGE ( 'NONE', *, *, #482, .F. ) ;
#552 = DIRECTION ( 'NONE',  ( 1.000000000000000000, 1.223849885766669635E-16, -0.000000000000000000 ) ) ;
#553 = AXIS2_PLACEMENT_3D ( 'NONE', #19, #314, #852 ) ;
#554 = DIRECTION ( 'NONE',  ( 1.000000000000000000, 0.000000000000000000, 0.000000000000000000 ) ) ;
#555 = VERTEX_POINT ( 'NONE', #675 ) ;
#556 = VECTOR ( 'NONE', #367, 1000.000000000000000 ) ;
#557 = CIRCLE ( 'NONE', #151, 0.9999999999999974465 ) ;
#558 = ORIENTED_EDGE ( 'NONE', *, *, #522, .F. ) ;
#559 = CARTESIAN_POINT ( 'NONE',  ( -3.845965311726828872, 19.00000000000001066, -18.28829787234042925 ) ) ;
#560 = EDGE_CURVE ( 'NONE', #319, #1090, #159, .T. ) ;
#561 = ADVANCED_FACE ( 'NONE', ( #765 ), #784, .F. ) ;
#562 = CARTESIAN_POINT ( 'NONE',  ( -3.845965311726831537, 6.250000000000005329, 14.61170212765960130 ) ) ;
#563 = ORIENTED_EDGE ( 'NONE', *, *, #1148, .T. ) ;
#564 = ORIENTED_EDGE ( 'NONE', *, *, #673, .T. ) ;
#565 = CARTESIAN_POINT ( 'NONE',  ( -9.061570170726596984, 11.00000000000000000, 20.86170212765956933 ) ) ;
#566 = EDGE_CURVE ( 'NONE', #1170, #1311, #48, .T. ) ;
#567 = LINE ( 'NONE', #372, #1016 ) ;
#568 = ORIENTED_EDGE ( 'NONE', *, *, #1187, .T. ) ;
#569 =( NAMED_UNIT ( * ) PLANE_ANGLE_UNIT ( ) SI_UNIT ( $, .RADIAN. ) );
#570 = ORIENTED_EDGE ( 'NONE', *, *, #1250, .T. ) ;
#571 = LINE ( 'NONE', #264, #1277 ) ;
#572 = EDGE_CURVE ( 'NONE', #235, #457, #1183, .T. ) ;
#573 = DIRECTION ( 'NONE',  ( 1.000000000000000000, -0.000000000000000000, -0.000000000000000000 ) ) ;
#574 = ORIENTED_EDGE ( 'NONE', *, *, #566, .T. ) ;
#575 = EDGE_LOOP ( 'NONE', ( #430, #262, #772, #720 ) ) ;
#576 = EDGE_CURVE ( 'NONE', #1083, #704, #466, .T. ) ;
#577 = AXIS2_PLACEMENT_3D ( 'NONE', #1041, #1151, #1033 ) ;
#578 = VERTEX_POINT ( 'NONE', #1298 ) ;
#579 = CIRCLE ( 'NONE', #1102, 0.9999999999999974465 ) ;
#580 = DIRECTION ( 'NONE',  ( 1.000000000000000000, 0.000000000000000000, 0.000000000000000000 ) ) ;
#581 = CARTESIAN_POINT ( 'NONE',  ( -3.845965311726829761, 6.250000000000005329, -9.088297872340399763 ) ) ;
#582 = ORIENTED_EDGE ( 'NONE', *, *, #1263, .F. ) ;
#583 = EDGE_CURVE ( 'NONE', #763, #293, #567, .T. ) ;
#584 = DIRECTION ( 'NONE',  ( 1.000000000000000000, -0.000000000000000000, -0.000000000000000000 ) ) ;
#585 = CARTESIAN_POINT ( 'NONE',  ( -9.061570170726602313, 10.00000000000000888, -18.28829787234042925 ) ) ;
#586 = EDGE_LOOP ( 'NONE', ( #64, #780, #614, #166 ) ) ;
#587 = CYLINDRICAL_SURFACE ( 'NONE', #1125, 1.250000000000001110 ) ;
#588 = ADVANCED_FACE ( 'NONE', ( #995 ), #1285, .F. ) ;
#589 = DIRECTION ( 'NONE',  ( 0.000000000000000000, 0.000000000000000000, 1.000000000000000000 ) ) ;
#590 = CARTESIAN_POINT ( 'NONE',  ( -9.061570170726600537, 2.000000000000000000, 2.411702127659603345 ) ) ;
#591 = SURFACE_SIDE_STYLE ('',( #1333 ) ) ;
#592 = ORIENTED_EDGE ( 'NONE', *, *, #287, .F. ) ;
#593 = DIRECTION ( 'NONE',  ( 1.000000000000000000, 0.000000000000000000, -0.000000000000000000 ) ) ;
#594 = ORIENTED_EDGE ( 'NONE', *, *, #462, .F. ) ;
#595 = DIRECTION ( 'NONE',  ( 1.756682000989172228E-16, 0.000000000000000000, 1.000000000000000000 ) ) ;
#596 = VECTOR ( 'NONE', #428, 1000.000000000000000 ) ;
#597 = CYLINDRICAL_SURFACE ( 'NONE', #21, 0.9999999999999991118 ) ;
#598 = VECTOR ( 'NONE', #1332, 1000.000000000000114 ) ;
#599 = LINE ( 'NONE', #376, #997 ) ;
#600 = EDGE_CURVE ( 'NONE', #1294, #343, #1254, .T. ) ;
#601 = VERTEX_POINT ( 'NONE', #474 ) ;
#602 = DIRECTION ( 'NONE',  ( 3.469446951953611231E-16, 0.000000000000000000, 1.000000000000000000 ) ) ;
#603 = DIRECTION ( 'NONE',  ( 1.000000000000000000, 0.000000000000000000, 0.000000000000000000 ) ) ;
#604 = CARTESIAN_POINT ( 'NONE',  ( -3.845965311726827096, 1.500000000000000000, -8.638297872340428896 ) ) ;
#605 = EDGE_CURVE ( 'NONE', #31, #106, #1256, .T. ) ;
#606 = DIRECTION ( 'NONE',  ( 0.000000000000000000, -1.000000000000000000, 3.650880835435041526E-16 ) ) ;
#607 = VERTEX_POINT ( 'NONE', #562 ) ;
#608 = CARTESIAN_POINT ( 'NONE',  ( -4.845965311726830649, 1.999999999999999112, 21.11170212765956578 ) ) ;
#609 = ORIENTED_EDGE ( 'NONE', *, *, #906, .F. ) ;
#610 = DIRECTION ( 'NONE',  ( -0.000000000000000000, 0.000000000000000000, -1.000000000000000000 ) ) ;
#611 = CARTESIAN_POINT ( 'NONE',  ( -3.811570170726598761, 14.75000000000001776, -19.78829787234039728 ) ) ;
#612 = LINE ( 'NONE', #175, #429 ) ;
#613 = DIRECTION ( 'NONE',  ( 0.000000000000000000, 0.000000000000000000, -1.000000000000000000 ) ) ;
#614 = ORIENTED_EDGE ( 'NONE', *, *, #700, .F. ) ;
#615 = EDGE_CURVE ( 'NONE', #769, #1160, #868, .T. ) ;
#616 = DIRECTION ( 'NONE',  ( -0.000000000000000000, 0.000000000000000000, -1.000000000000000000 ) ) ;
#617 = AXIS2_PLACEMENT_3D ( 'NONE', #658, #150, #402 ) ;
#618 = DIRECTION ( 'NONE',  ( 0.000000000000000000, 0.000000000000000000, -1.000000000000000000 ) ) ;
#619 = VECTOR ( 'NONE', #855, 1000.000000000000000 ) ;
#620 = PRESENTATION_LAYER_ASSIGNMENT (  '', '', ( #646 ) ) ;
#621 = LINE ( 'NONE', #936, #1171 ) ;
#622 = VECTOR ( 'NONE', #552, 1000.000000000000000 ) ;
#623 = CYLINDRICAL_SURFACE ( 'NONE', #58, 1.000000000000003553 ) ;
#624 = EDGE_LOOP ( 'NONE', ( #1302, #816 ) ) ;
#625 = ADVANCED_FACE ( 'NONE', ( #893 ), #759, .F. ) ;
#626 = CARTESIAN_POINT ( 'NONE',  ( -3.845965311726822655, 1.999999999999999112, 18.61170212765957288 ) ) ;
#627 = LINE ( 'NONE', #1248, #1215 ) ;
#628 = DIRECTION ( 'NONE',  ( -1.000000000000000000, 0.000000000000000000, 1.756682000989171981E-16 ) ) ;
#629 = EDGE_CURVE ( 'NONE', #1176, #15, #248, .T. ) ;
#630 = DIRECTION ( 'NONE',  ( 1.000000000000000000, 0.000000000000000000, 0.000000000000000000 ) ) ;
#631 = ORIENTED_EDGE ( 'NONE', *, *, #482, .T. ) ;
#632 = LINE ( 'NONE', #120, #683 ) ;
#633 = DIRECTION ( 'NONE',  ( 0.000000000000000000, 0.000000000000000000, -1.000000000000000000 ) ) ;
#634 = ORIENTED_EDGE ( 'NONE', *, *, #1048, .F. ) ;
#635 = DIRECTION ( 'NONE',  ( -1.000000000000000000, -1.223849885766669635E-16, 0.000000000000000000 ) ) ;
#636 = CARTESIAN_POINT ( 'NONE',  ( -9.061570170726611195, 6.250000000000005329, -10.08829787234040154 ) ) ;
#637 = ORIENTED_EDGE ( 'NONE', *, *, #1228, .F. ) ;
#638 = PLANE ( 'NONE',  #427 ) ;
#639 = DIRECTION ( 'NONE',  ( 0.000000000000000000, 0.000000000000000000, 1.000000000000000000 ) ) ;
#640 = VERTEX_POINT ( 'NONE', #270 ) ;
#641 = AXIS2_PLACEMENT_3D ( 'NONE', #1004, #201, #294 ) ;
#642 = DIRECTION ( 'NONE',  ( 0.000000000000000000, 0.000000000000000000, 1.000000000000000000 ) ) ;
#643 = AXIS2_PLACEMENT_3D ( 'NONE', #1222, #685, #589 ) ;
#644 = CIRCLE ( 'NONE', #709, 2.999999999999995559 ) ;
#645 = CARTESIAN_POINT ( 'NONE',  ( -6.431570170726598867, 0.000000000000000000, 15.86170212765957288 ) ) ;
#646 = STYLED_ITEM ( 'NONE', ( #1310 ), #696 ) ;
#647 = ORIENTED_EDGE ( 'NONE', *, *, #880, .T. ) ;
#648 = AXIS2_PLACEMENT_3D ( 'NONE', #716, #1134, #618 ) ;
#649 = ORIENTED_EDGE ( 'NONE', *, *, #657, .T. ) ;
#650 = CARTESIAN_POINT ( 'NONE',  ( -3.845965311726831093, -2.000000000000000888, 23.86170212765956933 ) ) ;
#651 = LINE ( 'NONE', #211, #731 ) ;
#652 = ORIENTED_EDGE ( 'NONE', *, *, #1014, .F. ) ;
#653 = VERTEX_POINT ( 'NONE', #655 ) ;
#654 = CARTESIAN_POINT ( 'NONE',  ( -9.061570170726602313, 10.00000000000000888, -8.138297872340427119 ) ) ;
#655 = CARTESIAN_POINT ( 'NONE',  ( -3.845965311726823987, 1.500000000000001332, 12.11170212765957288 ) ) ;
#656 = ORIENTED_EDGE ( 'NONE', *, *, #857, .F. ) ;
#657 = EDGE_CURVE ( 'NONE', #244, #714, #1099, .T. ) ;
#658 = CARTESIAN_POINT ( 'NONE',  ( -3.845965311726822211, 1.999999999999999112, 19.86170212765956933 ) ) ;
#659 = EDGE_CURVE ( 'NONE', #1262, #782, #669, .T. ) ;
#660 = DIRECTION ( 'NONE',  ( -1.000000000000000000, 0.000000000000000000, 0.000000000000000000 ) ) ;
#661 = DIRECTION ( 'NONE',  ( 0.000000000000000000, -1.000000000000000000, 0.000000000000000000 ) ) ;
#662 = VERTEX_POINT ( 'NONE', #581 ) ;
#663 = AXIS2_PLACEMENT_3D ( 'NONE', #206, #422, #738 ) ;
#664 = AXIS2_PLACEMENT_3D ( 'NONE', #521, #117, #941 ) ;
#665 = CIRCLE ( 'NONE', #83, 1.000000000000003553 ) ;
#666 = EDGE_CURVE ( 'NONE', #1259, #1241, #1190, .T. ) ;
#667 = ORIENTED_EDGE ( 'NONE', *, *, #572, .F. ) ;
#668 = FACE_BOUND ( 'NONE', #624, .T. ) ;
#669 = LINE ( 'NONE', #1075, #1213 ) ;
#670 = VERTEX_POINT ( 'NONE', #978 ) ;
#671 = ORIENTED_EDGE ( 'NONE', *, *, #81, .F. ) ;
#672 = PRODUCT_DEFINITION_CONTEXT ( 'detailed design', #129, 'design' ) ;
#673 = EDGE_CURVE ( 'NONE', #235, #670, #384, .T. ) ;
#674 = CARTESIAN_POINT ( 'NONE',  ( -6.431570170726598867, 0.003040795743202945583, 15.86170212765957288 ) ) ;
#675 = CARTESIAN_POINT ( 'NONE',  ( -9.061570170726600537, 14.75000000000001421, 4.911702127659611783 ) ) ;
#676 = ORIENTED_EDGE ( 'NONE', *, *, #1087, .T. ) ;
#677 = EDGE_CURVE ( 'NONE', #1181, #607, #789, .T. ) ;
#678 = ORIENTED_EDGE ( 'NONE', *, *, #989, .F. ) ;
#679 = FACE_BOUND ( 'NONE', #1035, .T. ) ;
#680 = DIRECTION ( 'NONE',  ( 0.000000000000000000, 0.000000000000000000, -1.000000000000000000 ) ) ;
#681 = ORIENTED_EDGE ( 'NONE', *, *, #781, .F. ) ;
#682 = CIRCLE ( 'NONE', #102, 3.000000000000002665 ) ;
#683 = VECTOR ( 'NONE', #939, 1000.000000000000000 ) ;
#684 = VECTOR ( 'NONE', #29, 1000.000000000000000 ) ;
#685 = DIRECTION ( 'NONE',  ( -1.000000000000000000, 0.000000000000000000, 0.000000000000000000 ) ) ;
#686 = AXIS2_PLACEMENT_3D ( 'NONE', #1296, #59, #1278 ) ;
#687 = CARTESIAN_POINT ( 'NONE',  ( -3.845965311726831537, 6.250000000000005329, 12.61170212765960308 ) ) ;
#688 = CARTESIAN_POINT ( 'NONE',  ( -9.061570170726598761, 2.000000000000007550, 12.11170212765957466 ) ) ;
#689 = ORIENTED_EDGE ( 'NONE', *, *, #566, .F. ) ;
#690 = FACE_BOUND ( 'NONE', #434, .T. ) ;
#691 = EDGE_CURVE ( 'NONE', #1181, #769, #1276, .T. ) ;
#692 = CARTESIAN_POINT ( 'NONE',  ( -9.061570170726596984, 1.999999999999999112, 21.11170212765956578 ) ) ;
#693 = DIRECTION ( 'NONE',  ( 1.000000000000000000, -0.000000000000000000, -0.000000000000000000 ) ) ;
#694 =( NAMED_UNIT ( * ) PLANE_ANGLE_UNIT ( ) SI_UNIT ( $, .RADIAN. ) );
#695 = ORIENTED_EDGE ( 'NONE', *, *, #1162, .F. ) ;
#696 = MANIFOLD_SOLID_BREP ( 'Cut-Extrude6', #296 ) ;
#697 = CYLINDRICAL_SURFACE ( 'NONE', #818, 1.250000000000001110 ) ;
#698 = ORIENTED_EDGE ( 'NONE', *, *, #111, .F. ) ;
#699 = CARTESIAN_POINT ( 'NONE',  ( -3.845965311726831093, 1.000000000000000444, -18.03829787234042925 ) ) ;
#700 = EDGE_CURVE ( 'NONE', #996, #1083, #599, .T. ) ;
#701 = DIRECTION ( 'NONE',  ( 0.000000000000000000, 0.000000000000000000, -1.000000000000000000 ) ) ;
#702 = EDGE_CURVE ( 'NONE', #1024, #808, #88, .T. ) ;
#703 = FACE_OUTER_BOUND ( 'NONE', #891, .T. ) ;
#704 = VERTEX_POINT ( 'NONE', #1317 ) ;
#705 = DIRECTION ( 'NONE',  ( 0.000000000000000000, 0.000000000000000000, 1.000000000000000000 ) ) ;
#706 = AXIS2_PLACEMENT_3D ( 'NONE', #1322, #715, #391 ) ;
#707 = LINE ( 'NONE', #68, #1078 ) ;
#708 = ADVANCED_FACE ( 'NONE', ( #501 ), #1325, .T. ) ;
#709 = AXIS2_PLACEMENT_3D ( 'NONE', #744, #7, #841 ) ;
#710 = DIRECTION ( 'NONE',  ( -1.756682000989172228E-16, -6.270084852928217493E-17, -1.000000000000000000 ) ) ;
#711 = DIRECTION ( 'NONE',  ( 0.000000000000000000, 0.000000000000000000, -1.000000000000000000 ) ) ;
#712 = ORIENTED_EDGE ( 'NONE', *, *, #1329, .F. ) ;
#713 = FACE_BOUND ( 'NONE', #1199, .T. ) ;
#714 = VERTEX_POINT ( 'NONE', #387 ) ;
#715 = DIRECTION ( 'NONE',  ( -1.000000000000000000, -0.000000000000000000, -0.000000000000000000 ) ) ;
#716 = CARTESIAN_POINT ( 'NONE',  ( -4.845965311726819991, 1.999999999999999112, 19.86170212765956933 ) ) ;
#717 = CARTESIAN_POINT ( 'NONE',  ( -9.061570170726611195, 6.250000000000005329, 13.61170212765960130 ) ) ;
#718 = ADVANCED_FACE ( 'NONE', ( #921 ), #485, .F. ) ;
#719 = DIRECTION ( 'NONE',  ( -1.756682000989171981E-16, 0.000000000000000000, -1.000000000000000000 ) ) ;
#720 = ORIENTED_EDGE ( 'NONE', *, *, #629, .F. ) ;
#721 = DIRECTION ( 'NONE',  ( -1.000000000000000000, 0.000000000000000000, 0.000000000000000000 ) ) ;
#722 = CARTESIAN_POINT ( 'NONE',  ( 0.000000000000000000, 0.000000000000000000, -24.03829787234042925 ) ) ;
#723 = DIRECTION ( 'NONE',  ( -1.000000000000000000, -0.000000000000000000, 1.756682000989172474E-16 ) ) ;
#724 = EDGE_CURVE ( 'NONE', #894, #714, #612, .T. ) ;
#725 = CARTESIAN_POINT ( 'NONE',  ( -9.061570170726611195, 19.00000000000001066, -22.03829787234042570 ) ) ;
#726 = ORIENTED_EDGE ( 'NONE', *, *, #148, .F. ) ;
#727 = CARTESIAN_POINT ( 'NONE',  ( -9.061570170726596984, -2.000000000000000888, 23.86170212765956933 ) ) ;
#728 = CIRCLE ( 'NONE', #641, 0.9999999999999991118 ) ;
#729 = EDGE_CURVE ( 'NONE', #328, #766, #275, .T. ) ;
#730 = LINE ( 'NONE', #739, #1321 ) ;
#731 = VECTOR ( 'NONE', #848, 1000.000000000000000 ) ;
#732 = AXIS2_PLACEMENT_3D ( 'NONE', #813, #70, #393 ) ;
#733 = LINE ( 'NONE', #1267, #130 ) ;
#734 = CIRCLE ( 'NONE', #152, 1.999999999999998224 ) ;
#735 = CYLINDRICAL_SURFACE ( 'NONE', #1341, 1.000000000000000888 ) ;
#736 = EDGE_LOOP ( 'NONE', ( #1286, #475 ) ) ;
#737 = PRODUCT_DEFINITION ( 'General', '', #1279, #672 ) ;
#738 = DIRECTION ( 'NONE',  ( 0.000000000000000000, 0.000000000000000000, 1.000000000000000000 ) ) ;
#739 = CARTESIAN_POINT ( 'NONE',  ( -3.811570170726595208, 14.75000000000001421, 4.911702127659610895 ) ) ;
#740 = ORIENTED_EDGE ( 'NONE', *, *, #904, .F. ) ;
#741 = CARTESIAN_POINT ( 'NONE',  ( -6.431570170726598867, 0.000000000000000000, 15.86170212765957288 ) ) ;
#742 = LINE ( 'NONE', #1251, #273 ) ;
#743 = ORIENTED_EDGE ( 'NONE', *, *, #1336, .F. ) ;
#744 = CARTESIAN_POINT ( 'NONE',  ( -3.845965311726831093, 1.999999999999999112, 19.86170212765956933 ) ) ;
#745 = FACE_OUTER_BOUND ( 'NONE', #1061, .T. ) ;
#746 = ORIENTED_EDGE ( 'NONE', *, *, #42, .F. ) ;
#747 = EDGE_CURVE ( 'NONE', #378, #1024, #1230, .T. ) ;
#748 = CARTESIAN_POINT ( 'NONE',  ( -4.845965311726823543, 1.000000000000000000, -21.03829787234043280 ) ) ;
#749 = LINE ( 'NONE', #24, #1098 ) ;
#750 = ORIENTED_EDGE ( 'NONE', *, *, #691, .F. ) ;
#751 = ORIENTED_EDGE ( 'NONE', *, *, #605, .T. ) ;
#752 = FACE_OUTER_BOUND ( 'NONE', #147, .T. ) ;
#753 = CIRCLE ( 'NONE', #450, 3.000000000000002665 ) ;
#754 = DIRECTION ( 'NONE',  ( 0.000000000000000000, 0.000000000000000000, 1.000000000000000000 ) ) ;
#755 = VECTOR ( 'NONE', #1208, 1000.000000000000000 ) ;
#756 = ORIENTED_EDGE ( 'NONE', *, *, #857, .T. ) ;
#757 = ORIENTED_EDGE ( 'NONE', *, *, #111, .T. ) ;
#758 = LINE ( 'NONE', #1178, #622 ) ;
#759 = PLANE ( 'NONE',  #1101 ) ;
#760 = EDGE_LOOP ( 'NONE', ( #1054, #786, #647, #1100 ) ) ;
#761 = ADVANCED_FACE ( 'NONE', ( #297 ), #903, .F. ) ;
#762 = EDGE_CURVE ( 'NONE', #1160, #607, #105, .T. ) ;
#763 = VERTEX_POINT ( 'NONE', #290 ) ;
#764 = FACE_BOUND ( 'NONE', #399, .T. ) ;
#765 = FACE_OUTER_BOUND ( 'NONE', #444, .T. ) ;
#766 = VERTEX_POINT ( 'NONE', #1027 ) ;
#767 = ADVANCED_FACE ( 'NONE', ( #703 ), #238, .F. ) ;
#768 = SURFACE_STYLE_FILL_AREA ( #877 ) ;
#769 = VERTEX_POINT ( 'NONE', #514 ) ;
#770 = CARTESIAN_POINT ( 'NONE',  ( -3.845965311726823987, 1.500000000000001332, 12.11170212765957288 ) ) ;
#771 = CARTESIAN_POINT ( 'NONE',  ( -3.845965311726831537, 5.000000000000000000, 20.86170212765956933 ) ) ;
#772 = ORIENTED_EDGE ( 'NONE', *, *, #831, .T. ) ;
#773 = AXIS2_PLACEMENT_3D ( 'NONE', #1152, #327, #1198 ) ;
#774 = CONICAL_SURFACE ( 'NONE', #955, 2.000000000000001776, 0.7853981633974517207 ) ;
#775 = VECTOR ( 'NONE', #710, 1000.000000000000000 ) ;
#776 = AXIS2_PLACEMENT_3D ( 'NONE', #1072, #973, #884 ) ;
#777 = ORIENTED_EDGE ( 'NONE', *, *, #1250, .F. ) ;
#778 = DIRECTION ( 'NONE',  ( 0.7071067811865449082, 0.000000000000000000, -0.7071067811865501263 ) ) ;
#779 = CARTESIAN_POINT ( 'NONE',  ( -3.845965311726831093, 1.000000000000000000, -21.03829787234043280 ) ) ;
#780 = ORIENTED_EDGE ( 'NONE', *, *, #576, .F. ) ;
#781 = EDGE_CURVE ( 'NONE', #996, #790, #208, .T. ) ;
#782 = VERTEX_POINT ( 'NONE', #1055 ) ;
#783 = FACE_OUTER_BOUND ( 'NONE', #999, .T. ) ;
#784 = PLANE ( 'NONE',  #1316 ) ;
#785 = ORIENTED_EDGE ( 'NONE', *, *, #269, .F. ) ;
#786 = ORIENTED_EDGE ( 'NONE', *, *, #1336, .T. ) ;
#787 = PLANE ( 'NONE',  #1295 ) ;
#788 = LINE ( 'NONE', #1120, #494 ) ;
#789 = LINE ( 'NONE', #825, #60 ) ;
#790 = VERTEX_POINT ( 'NONE', #846 ) ;
#791 = CIRCLE ( 'NONE', #1059, 2.999999999999999112 ) ;
#792 = VECTOR ( 'NONE', #1166, 1000.000000000000000 ) ;
#793 = ORIENTED_EDGE ( 'NONE', *, *, #3, .T. ) ;
#794 = VECTOR ( 'NONE', #573, 1000.000000000000000 ) ;
#795 = CARTESIAN_POINT ( 'NONE',  ( -4.845965311726830649, 1.000000000000000222, -22.28829787234043636 ) ) ;
#796 = CONICAL_SURFACE ( 'NONE', #648, 1.999999999999998224, 0.7853981633974520538 ) ;
#797 = UNCERTAINTY_MEASURE_WITH_UNIT (LENGTH_MEASURE( 1.000000000000000082E-05 ), #1195, 'distance_accuracy_value', 'NONE');
#798 =( GEOMETRIC_REPRESENTATION_CONTEXT ( 3 ) GLOBAL_UNCERTAINTY_ASSIGNED_CONTEXT ( ( #797 ) ) GLOBAL_UNIT_ASSIGNED_CONTEXT ( ( #1195, #569, #50 ) ) REPRESENTATION_CONTEXT ( 'NONE', 'WORKASPACE' ) );
#799 = LINE ( 'NONE', #181, #472 ) ;
#800 = DIRECTION ( 'NONE',  ( 0.000000000000000000, 0.000000000000000000, 1.000000000000000000 ) ) ;
#801 = ORIENTED_EDGE ( 'NONE', *, *, #1145, .T. ) ;
#802 = PLANE ( 'NONE',  #820 ) ;
#803 = EDGE_CURVE ( 'NONE', #49, #55, #413, .T. ) ;
#804 = EDGE_CURVE ( 'NONE', #960, #31, #1063, .T. ) ;
#805 = CARTESIAN_POINT ( 'NONE',  ( -9.061570170726604090, 14.75000000000001776, -18.78829787234040083 ) ) ;
#806 = DIRECTION ( 'NONE',  ( 0.000000000000000000, 0.000000000000000000, -1.000000000000000000 ) ) ;
#807 = CARTESIAN_POINT ( 'NONE',  ( -3.845965311726831537, 6.250000000000005329, 13.61170212765960130 ) ) ;
#808 = VERTEX_POINT ( 'NONE', #1243 ) ;
#809 = FACE_OUTER_BOUND ( 'NONE', #97, .T. ) ;
#810 = EDGE_CURVE ( 'NONE', #293, #480, #80, .T. ) ;
#811 = CARTESIAN_POINT ( 'NONE',  ( -3.845965311726831093, 0.003040795743203261736, 15.86170212765957288 ) ) ;
#812 = CARTESIAN_POINT ( 'NONE',  ( -4.845965311726830649, 1.999999999999999112, 19.86170212765956933 ) ) ;
#813 = CARTESIAN_POINT ( 'NONE',  ( -3.845965311726831093, 1.999999999999999112, 19.86170212765956933 ) ) ;
#814 = ORIENTED_EDGE ( 'NONE', *, *, #615, .T. ) ;
#815 = DIRECTION ( 'NONE',  ( -1.000000000000000000, -0.000000000000000000, 1.756682000989172474E-16 ) ) ;
#816 = ORIENTED_EDGE ( 'NONE', *, *, #321, .T. ) ;
#817 = VECTOR ( 'NONE', #282, 1000.000000000000000 ) ;
#818 = AXIS2_PLACEMENT_3D ( 'NONE', #1117, #90, #602 ) ;
#819 = LINE ( 'NONE', #91, #1036 ) ;
#820 = AXIS2_PLACEMENT_3D ( 'NONE', #1220, #286, #593 ) ;
#821 = DIRECTION ( 'NONE',  ( 1.000000000000000000, -0.000000000000000000, -0.000000000000000000 ) ) ;
#822 = AXIS2_PLACEMENT_3D ( 'NONE', #1135, #479, #606 ) ;
#823 = EDGE_CURVE ( 'NONE', #453, #1066, #16, .T. ) ;
#824 = CONICAL_SURFACE ( 'NONE', #935, 1.999999999999998224, 0.7853981633974520538 ) ;
#825 = CARTESIAN_POINT ( 'NONE',  ( -9.061570170726611195, 6.250000000000005329, 14.61170212765960130 ) ) ;
#826 = DIRECTION ( 'NONE',  ( 0.7071067811865451302, 8.659560562354962440E-17, 0.7071067811865500152 ) ) ;
#827 = ORIENTED_EDGE ( 'NONE', *, *, #1011, .F. ) ;
#828 = APPLICATION_CONTEXT ( 'automotive_design' ) ;
#829 = DIRECTION ( 'NONE',  ( 3.304235192336772554E-16, -0.000000000000000000, 1.000000000000000000 ) ) ;
#830 = DIRECTION ( 'NONE',  ( -1.000000000000000000, -0.000000000000000000, 1.756682000989172474E-16 ) ) ;
#831 = EDGE_CURVE ( 'NONE', #55, #15, #557, .T. ) ;
#832 = DIRECTION ( 'NONE',  ( -0.000000000000000000, -0.000000000000000000, -1.000000000000000000 ) ) ;
#833 = CARTESIAN_POINT ( 'NONE',  ( -3.845965311726831093, -2.000000000000000888, 23.86170212765956933 ) ) ;
#834 = VERTEX_POINT ( 'NONE', #135 ) ;
#835 = EDGE_CURVE ( 'NONE', #578, #714, #733, .T. ) ;
#836 = DIRECTION ( 'NONE',  ( 0.000000000000000000, 0.000000000000000000, 1.000000000000000000 ) ) ;
#837 = PLANE ( 'NONE',  #957 ) ;
#838 = DIRECTION ( 'NONE',  ( 0.000000000000000000, -1.000000000000000000, 0.000000000000000000 ) ) ;
#839 = CARTESIAN_POINT ( 'NONE',  ( -3.845965311726829761, 11.00000000000000000, 17.86170212765956933 ) ) ;
#840 = ORIENTED_EDGE ( 'NONE', *, *, #1014, .T. ) ;
#841 = DIRECTION ( 'NONE',  ( 0.000000000000000000, 0.000000000000000000, 1.000000000000000000 ) ) ;
#842 = PLANE ( 'NONE',  #39 ) ;
#843 = EDGE_LOOP ( 'NONE', ( #351, #213, #649, #307 ) ) ;
#844 = VECTOR ( 'NONE', #826, 1000.000000000000114 ) ;
#845 = AXIS2_PLACEMENT_3D ( 'NONE', #771, #43, #456 ) ;
#846 = CARTESIAN_POINT ( 'NONE',  ( -6.431570170726598867, 0.000000000000000000, 15.86170212765957288 ) ) ;
#847 = VECTOR ( 'NONE', #830, 1000.000000000000000 ) ;
#848 = DIRECTION ( 'NONE',  ( 0.000000000000000000, 1.000000000000000000, 0.000000000000000000 ) ) ;
#849 = STYLED_ITEM ( 'NONE', ( #862 ), #1301 ) ;
#850 = ORIENTED_EDGE ( 'NONE', *, *, #1071, .T. ) ;
#851 = ADVANCED_FACE ( 'NONE', ( #544 ), #242, .F. ) ;
#852 = DIRECTION ( 'NONE',  ( 0.000000000000000000, 0.000000000000000000, 1.000000000000000000 ) ) ;
#853 = ORIENTED_EDGE ( 'NONE', *, *, #438, .T. ) ;
#854 = DIRECTION ( 'NONE',  ( 0.000000000000000000, 1.000000000000000000, 0.000000000000000000 ) ) ;
#855 = DIRECTION ( 'NONE',  ( 0.000000000000000000, 1.000000000000000000, 0.000000000000000000 ) ) ;
#856 = EDGE_LOOP ( 'NONE', ( #1043, #313, #1205, #689 ) ) ;
#857 = EDGE_CURVE ( 'NONE', #498, #766, #621, .T. ) ;
#858 = VERTEX_POINT ( 'NONE', #528 ) ;
#859 = DIRECTION ( 'NONE',  ( -1.000000000000000000, 0.000000000000000000, 1.756682000989171981E-16 ) ) ;
#860 = LINE ( 'NONE', #833, #994 ) ;
#861 = ORIENTED_EDGE ( 'NONE', *, *, #823, .T. ) ;
#862 = PRESENTATION_STYLE_ASSIGNMENT (( #346 ) ) ;
#863 = ORIENTED_EDGE ( 'NONE', *, *, #230, .T. ) ;
#864 = DIRECTION ( 'NONE',  ( -0.000000000000000000, 1.000000000000000000, -0.000000000000000000 ) ) ;
#865 = AXIS2_PLACEMENT_3D ( 'NONE', #725, #1159, #118 ) ;
#866 = EDGE_CURVE ( 'NONE', #547, #453, #333, .T. ) ;
#867 = VECTOR ( 'NONE', #832, 1000.000000000000000 ) ;
#868 = LINE ( 'NONE', #1179, #794 ) ;
#869 = AXIS2_PLACEMENT_3D ( 'NONE', #1182, #660, #1079 ) ;
#870 = ORIENTED_EDGE ( 'NONE', *, *, #1087, .F. ) ;
#871 = VERTEX_POINT ( 'NONE', #1165 ) ;
#872 = LINE ( 'NONE', #879, #107 ) ;
#873 = ADVANCED_FACE ( 'NONE', ( #752 ), #224, .F. ) ;
#874 = DIRECTION ( 'NONE',  ( 0.000000000000000000, 0.000000000000000000, -1.000000000000000000 ) ) ;
#875 = ORIENTED_EDGE ( 'NONE', *, *, #1092, .F. ) ;
#876 = EDGE_CURVE ( 'NONE', #782, #1305, #535, .T. ) ;
#877 = FILL_AREA_STYLE ('',( #363 ) ) ;
#878 = ORIENTED_EDGE ( 'NONE', *, *, #804, .T. ) ;
#879 = CARTESIAN_POINT ( 'NONE',  ( -20.72347396041719847, -2.000000000000000888, 23.86170212765956933 ) ) ;
#880 = EDGE_CURVE ( 'NONE', #480, #293, #1080, .T. ) ;
#881 = DIRECTION ( 'NONE',  ( 0.000000000000000000, -0.000000000000000000, 1.000000000000000000 ) ) ;
#882 = EDGE_CURVE ( 'NONE', #790, #858, #4, .T. ) ;
#883 = ORIENTED_EDGE ( 'NONE', *, *, #583, .T. ) ;
#884 = DIRECTION ( 'NONE',  ( 1.000000000000000000, 0.000000000000000000, 0.000000000000000000 ) ) ;
#885 = ORIENTED_EDGE ( 'NONE', *, *, #576, .T. ) ;
#886 = FACE_OUTER_BOUND ( 'NONE', #255, .T. ) ;
#887 = CARTESIAN_POINT ( 'NONE',  ( -4.845965311726830649, 1.000000000000000000, -21.03829787234043280 ) ) ;
#888 = ORIENTED_EDGE ( 'NONE', *, *, #810, .F. ) ;
#889 = AXIS2_PLACEMENT_3D ( 'NONE', #1131, #1029, #613 ) ;
#890 = COLOUR_RGB ( '',1.000000000000000000, 0.5019607843137254832, 0.5019607843137254832 ) ;
#891 = EDGE_LOOP ( 'NONE', ( #279, #1076, #1157, #726 ) ) ;
#892 = DIRECTION ( 'NONE',  ( 0.000000000000000000, 0.000000000000000000, 1.000000000000000000 ) ) ;
#893 = FACE_OUTER_BOUND ( 'NONE', #1142, .T. ) ;
#894 = VERTEX_POINT ( 'NONE', #110 ) ;
#895 = ORIENTED_EDGE ( 'NONE', *, *, #906, .T. ) ;
#896 = ORIENTED_EDGE ( 'NONE', *, *, #605, .F. ) ;
#897 = CARTESIAN_POINT ( 'NONE',  ( -3.845965311726827096, 1.500000000000000000, -8.638297872340428896 ) ) ;
#898 = DIRECTION ( 'NONE',  ( 0.000000000000000000, 1.000000000000000000, 0.000000000000000000 ) ) ;
#899 = ORIENTED_EDGE ( 'NONE', *, *, #729, .T. ) ;
#900 = PRODUCT_DEFINITION_SHAPE ( 'NONE', 'NONE',  #737 ) ;
#901 = DIRECTION ( 'NONE',  ( 0.000000000000000000, 0.000000000000000000, 1.000000000000000000 ) ) ;
#902 = LINE ( 'NONE', #926, #598 ) ;
#903 = PLANE ( 'NONE',  #822 ) ;
#904 = EDGE_CURVE ( 'NONE', #555, #640, #493, .T. ) ;
#905 = EDGE_LOOP ( 'NONE', ( #1167, #66 ) ) ;
#906 = EDGE_CURVE ( 'NONE', #858, #871, #23, .T. ) ;
#907 = DIRECTION ( 'NONE',  ( -0.000000000000000000, 1.000000000000000000, 0.000000000000000000 ) ) ;
#908 = VECTOR ( 'NONE', #1093, 1000.000000000000000 ) ;
#909 = ORIENTED_EDGE ( 'NONE', *, *, #154, .T. ) ;
#910 = AXIS2_PLACEMENT_3D ( 'NONE', #425, #123, #635 ) ;
#911 = DIRECTION ( 'NONE',  ( -1.000000000000000000, -0.000000000000000000, 1.756682000989172474E-16 ) ) ;
#912 = VECTOR ( 'NONE', #371, 1000.000000000000000 ) ;
#913 = CARTESIAN_POINT ( 'NONE',  ( -3.845965311726829761, 14.75000000000001776, -18.78829787234040083 ) ) ;
#914 = ADVANCED_FACE ( 'NONE', ( #10 ), #774, .F. ) ;
#915 = DIRECTION ( 'NONE',  ( 0.000000000000000000, 0.000000000000000000, -1.000000000000000000 ) ) ;
#916 = EDGE_LOOP ( 'NONE', ( #73, #1231, #1067, #6 ) ) ;
#917 = FACE_BOUND ( 'NONE', #219, .T. ) ;
#918 = ORIENTED_EDGE ( 'NONE', *, *, #1263, .T. ) ;
#919 = DIRECTION ( 'NONE',  ( -1.756682000989172474E-16, 0.000000000000000000, -1.000000000000000000 ) ) ;
#920 = DIRECTION ( 'NONE',  ( -0.000000000000000000, 1.000000000000000000, -3.650880835435040540E-16 ) ) ;
#921 = FACE_OUTER_BOUND ( 'NONE', #922, .T. ) ;
#922 = EDGE_LOOP ( 'NONE', ( #634, #695, #1008, #370 ) ) ;
#923 = CARTESIAN_POINT ( 'NONE',  ( -4.845965311726830649, 1.000000000000000000, -23.03829787234043636 ) ) ;
#924 = ORIENTED_EDGE ( 'NONE', *, *, #250, .F. ) ;
#925 = DIRECTION ( 'NONE',  ( 1.000000000000000000, -0.000000000000000000, -0.000000000000000000 ) ) ;
#926 = CARTESIAN_POINT ( 'NONE',  ( -4.845965311726823543, 1.000000000000000000, -23.03829787234043636 ) ) ;
#927 = ORIENTED_EDGE ( 'NONE', *, *, #116, .F. ) ;
#928 = CARTESIAN_POINT ( 'NONE',  ( -3.845965311726831093, 14.75000000000001421, 3.911702127659607342 ) ) ;
#929 = VERTEX_POINT ( 'NONE', #674 ) ;
#930 = AXIS2_PLACEMENT_3D ( 'NONE', #381, #603, #490 ) ;
#931 = AXIS2_PLACEMENT_3D ( 'NONE', #928, #306, #705 ) ;
#932 = CARTESIAN_POINT ( 'NONE',  ( 0.000000000000000000, 0.000000000000000000, 15.86170212765957288 ) ) ;
#933 = VECTOR ( 'NONE', #838, 1000.000000000000000 ) ;
#934 = CARTESIAN_POINT ( 'NONE',  ( -9.061570170726596984, 19.00000000000001776, 2.411702127659603345 ) ) ;
#935 = AXIS2_PLACEMENT_3D ( 'NONE', #1202, #986, #139 ) ;
#936 = CARTESIAN_POINT ( 'NONE',  ( -4.845965311726819991, 1.999999999999999556, 21.86170212765956578 ) ) ;
#937 = DIRECTION ( 'NONE',  ( -1.000000000000000000, -0.000000000000000000, 1.756682000989171981E-16 ) ) ;
#938 = ORIENTED_EDGE ( 'NONE', *, *, #1111, .F. ) ;
#939 = DIRECTION ( 'NONE',  ( -1.000000000000000000, -0.000000000000000000, 1.756682000989172474E-16 ) ) ;
#940 = EDGE_CURVE ( 'NONE', #244, #1311, #1197, .T. ) ;
#941 = DIRECTION ( 'NONE',  ( 0.000000000000000000, 0.000000000000000000, 1.000000000000000000 ) ) ;
#942 = CARTESIAN_POINT ( 'NONE',  ( -9.061570170726611195, 6.250000000000005329, -11.08829787234040154 ) ) ;
#943 = ORIENTED_EDGE ( 'NONE', *, *, #203, .F. ) ;
#944 = CARTESIAN_POINT ( 'NONE',  ( -3.845965311726831093, 8.000000000000000000, 20.86170212765956933 ) ) ;
#945 = CARTESIAN_POINT ( 'NONE',  ( -4.845965311726830649, 1.999999999999999112, 19.86170212765956933 ) ) ;
#946 = CARTESIAN_POINT ( 'NONE',  ( -3.845965311726829761, 19.00000000000001776, 17.86170212765956933 ) ) ;
#947 = ADVANCED_FACE ( 'NONE', ( #886 ), #976, .F. ) ;
#948 = FACE_OUTER_BOUND ( 'NONE', #62, .T. ) ;
#949 = ORIENTED_EDGE ( 'NONE', *, *, #967, .F. ) ;
#950 = ADVANCED_FACE ( 'NONE', ( #783 ), #824, .F. ) ;
#951 = CARTESIAN_POINT ( 'NONE',  ( -3.845965311726829761, 19.00000000000001776, -18.28829787234042925 ) ) ;
#952 = VECTOR ( 'NONE', #1127, 1000.000000000000000 ) ;
#953 = DIRECTION ( 'NONE',  ( 0.000000000000000000, -0.000000000000000000, -1.000000000000000000 ) ) ;
#954 = VERTEX_POINT ( 'NONE', #366 ) ;
#955 = AXIS2_PLACEMENT_3D ( 'NONE', #748, #417, #459 ) ;
#956 = CARTESIAN_POINT ( 'NONE',  ( -9.061570170726604090, 14.75000000000001776, -19.78829787234039728 ) ) ;
#957 = AXIS2_PLACEMENT_3D ( 'NONE', #722, #1139, #1045 ) ;
#958 = EDGE_CURVE ( 'NONE', #871, #929, #33, .T. ) ;
#959 = DIRECTION ( 'NONE',  ( 1.000000000000000000, -0.000000000000000000, -0.000000000000000000 ) ) ;
#960 = VERTEX_POINT ( 'NONE', #650 ) ;
#961 = DIRECTION ( 'NONE',  ( -1.000000000000000000, 0.000000000000000000, 1.756682000989171981E-16 ) ) ;
#962 = FACE_OUTER_BOUND ( 'NONE', #171, .T. ) ;
#963 = ORIENTED_EDGE ( 'NONE', *, *, #340, .T. ) ;
#964 = CARTESIAN_POINT ( 'NONE',  ( -3.811570170726604978, 0.000000000000000000, 15.86170212765957288 ) ) ;
#965 = DIRECTION ( 'NONE',  ( -1.000000000000000000, -0.000000000000000000, 1.756682000989172474E-16 ) ) ;
#966 = ORIENTED_EDGE ( 'NONE', *, *, #225, .F. ) ;
#967 = EDGE_CURVE ( 'NONE', #227, #662, #540, .T. ) ;
#968 = ORIENTED_EDGE ( 'NONE', *, *, #1185, .F. ) ;
#969 = CARTESIAN_POINT ( 'NONE',  ( -9.061570170726598761, 19.00000000000001066, -24.03829787234042925 ) ) ;
#970 = LINE ( 'NONE', #942, #382 ) ;
#971 = EDGE_LOOP ( 'NONE', ( #1177, #1089, #165, #1344, #271 ) ) ;
#972 = EDGE_CURVE ( 'NONE', #126, #357, #301, .T. ) ;
#973 = DIRECTION ( 'NONE',  ( 0.000000000000000000, 0.000000000000000000, 1.000000000000000000 ) ) ;
#974 = ORIENTED_EDGE ( 'NONE', *, *, #600, .F. ) ;
#975 = AXIS2_PLACEMENT_3D ( 'NONE', #1155, #411, #518 ) ;
#976 = CYLINDRICAL_SURFACE ( 'NONE', #1019, 1.000000000000003553 ) ;
#977 = VECTOR ( 'NONE', #1271, 1000.000000000000000 ) ;
#978 = CARTESIAN_POINT ( 'NONE',  ( -3.845965311726831093, 5.000000000000000000, 23.86170212765956933 ) ) ;
#979 = AXIS2_PLACEMENT_3D ( 'NONE', #611, #1032, #309 ) ;
#980 = ORIENTED_EDGE ( 'NONE', *, *, #148, .T. ) ;
#981 = ORIENTED_EDGE ( 'NONE', *, *, #1194, .F. ) ;
#982 = CARTESIAN_POINT ( 'NONE',  ( -4.845965311726819991, 1.999999999999999112, 17.86170212765956933 ) ) ;
#983 = DIRECTION ( 'NONE',  ( -1.000000000000000000, -0.000000000000000000, 1.756682000989171981E-16 ) ) ;
#984 = ORIENTED_EDGE ( 'NONE', *, *, #67, .F. ) ;
#985 = ORIENTED_EDGE ( 'NONE', *, *, #803, .F. ) ;
#986 = DIRECTION ( 'NONE',  ( 1.000000000000000000, 0.000000000000000000, 0.000000000000000000 ) ) ;
#987 = DIRECTION ( 'NONE',  ( -0.000000000000000000, 1.000000000000000000, 0.000000000000000000 ) ) ;
#988 = ORIENTED_EDGE ( 'NONE', *, *, #882, .F. ) ;
#989 = EDGE_CURVE ( 'NONE', #670, #954, #571, .T. ) ;
#990 = APPLICATION_PROTOCOL_DEFINITION ( 'draft international standard', 'automotive_design', 1998, #828 ) ;
#991 = ORIENTED_EDGE ( 'NONE', *, *, #187, .F. ) ;
#992 = DIRECTION ( 'NONE',  ( 0.000000000000000000, 0.000000000000000000, 1.000000000000000000 ) ) ;
#993 = CIRCLE ( 'NONE', #403, 1.000000000000000888 ) ;
#994 = VECTOR ( 'NONE', #112, 1000.000000000000000 ) ;
#995 = FACE_OUTER_BOUND ( 'NONE', #539, .T. ) ;
#996 = VERTEX_POINT ( 'NONE', #1068 ) ;
#997 = VECTOR ( 'NONE', #915, 1000.000000000000000 ) ;
#998 = VECTOR ( 'NONE', #495, 1000.000000000000000 ) ;
#999 = EDGE_LOOP ( 'NONE', ( #656, #446, #850, #785 ) ) ;
#1000 = ORIENTED_EDGE ( 'NONE', *, *, #729, .F. ) ;
#1001 = FACE_OUTER_BOUND ( 'NONE', #1289, .T. ) ;
#1002 = CARTESIAN_POINT ( 'NONE',  ( -9.061570170726611195, 6.250000000000005329, -10.08829787234040154 ) ) ;
#1003 = ORIENTED_EDGE ( 'NONE', *, *, #42, .T. ) ;
#1004 = CARTESIAN_POINT ( 'NONE',  ( -9.061570170726611195, 6.250000000000005329, 13.61170212765960130 ) ) ;
#1005 = EDGE_CURVE ( 'NONE', #1122, #578, #1290, .T. ) ;
#1006 = CARTESIAN_POINT ( 'NONE',  ( -9.061570170726611195, 6.250000000000005329, -10.08829787234040154 ) ) ;
#1007 = DIRECTION ( 'NONE',  ( 0.000000000000000000, -0.000000000000000000, -1.000000000000000000 ) ) ;
#1008 = ORIENTED_EDGE ( 'NONE', *, *, #462, .T. ) ;
#1009 = LINE ( 'NONE', #5, #1169 ) ;
#1010 = DIRECTION ( 'NONE',  ( 0.000000000000000000, 0.000000000000000000, 1.000000000000000000 ) ) ;
#1011 = EDGE_CURVE ( 'NONE', #601, #1170, #46, .T. ) ;
#1012 = LINE ( 'NONE', #65, #775 ) ;
#1013 = ORIENTED_EDGE ( 'NONE', *, *, #659, .F. ) ;
#1014 = EDGE_CURVE ( 'NONE', #871, #704, #758, .T. ) ;
#1015 = FACE_OUTER_BOUND ( 'NONE', #222, .T. ) ;
#1016 = VECTOR ( 'NONE', #1280, 1000.000000000000000 ) ;
#1017 = AXIS2_PLACEMENT_3D ( 'NONE', #1108, #1224, #398 ) ;
#1018 = CARTESIAN_POINT ( 'NONE',  ( -3.845965311726831093, 1.000000000000000000, -21.03829787234043280 ) ) ;
#1019 = AXIS2_PLACEMENT_3D ( 'NONE', #358, #162, #992 ) ;
#1020 = PRESENTATION_LAYER_ASSIGNMENT (  '', '', ( #849 ) ) ;
#1021 = DIRECTION ( 'NONE',  ( 0.000000000000000000, 0.000000000000000000, 1.000000000000000000 ) ) ;
#1022 = EDGE_LOOP ( 'NONE', ( #1112, #200, #1212, #1109 ) ) ;
#1023 = FACE_BOUND ( 'NONE', #79, .T. ) ;
#1024 = VERTEX_POINT ( 'NONE', #253 ) ;
#1025 = DIRECTION ( 'NONE',  ( 0.000000000000000000, 0.000000000000000000, 1.000000000000000000 ) ) ;
#1026 = DIRECTION ( 'NONE',  ( -1.000000000000000000, -0.000000000000000000, -0.000000000000000000 ) ) ;
#1027 = CARTESIAN_POINT ( 'NONE',  ( -3.845965311726831093, 1.999999999999999556, 22.86170212765956578 ) ) ;
#1028 = ORIENTED_EDGE ( 'NONE', *, *, #666, .F. ) ;
#1029 = DIRECTION ( 'NONE',  ( 1.000000000000000000, -0.000000000000000000, -0.000000000000000000 ) ) ;
#1030 = ORIENTED_EDGE ( 'NONE', *, *, #560, .F. ) ;
#1031 = DIRECTION ( 'NONE',  ( -1.000000000000000000, 0.000000000000000000, 0.000000000000000000 ) ) ;
#1032 = DIRECTION ( 'NONE',  ( -1.000000000000000000, -0.000000000000000000, 1.756682000989171981E-16 ) ) ;
#1033 = DIRECTION ( 'NONE',  ( -1.000000000000000000, 0.000000000000000000, -0.000000000000000000 ) ) ;
#1034 = FACE_OUTER_BOUND ( 'NONE', #575, .T. ) ;
#1035 = EDGE_LOOP ( 'NONE', ( #563, #631 ) ) ;
#1036 = VECTOR ( 'NONE', #215, 1000.000000000000000 ) ;
#1037 = AXIS2_PLACEMENT_3D ( 'NONE', #541, #961, #26 ) ;
#1038 = PLANE ( 'NONE',  #167 ) ;
#1039 = AXIS2_PLACEMENT_3D ( 'NONE', #779, #155, #163 ) ;
#1040 = AXIS2_PLACEMENT_3D ( 'NONE', #897, #1309, #274 ) ;
#1041 = CARTESIAN_POINT ( 'NONE',  ( -3.811570170726599205, 2.000000000000000000, 11.61170212765957110 ) ) ;
#1042 = CARTESIAN_POINT ( 'NONE',  ( -3.845965311726829761, 19.00000000000001776, 15.86170212765957288 ) ) ;
#1043 = ORIENTED_EDGE ( 'NONE', *, *, #230, .F. ) ;
#1044 = CARTESIAN_POINT ( 'NONE',  ( -4.845965311726830649, 1.000000000000000000, -21.03829787234043280 ) ) ;
#1045 = DIRECTION ( 'NONE',  ( -1.000000000000000000, 0.000000000000000000, 0.000000000000000000 ) ) ;
#1046 = EDGE_CURVE ( 'NONE', #302, #960, #872, .T. ) ;
#1047 = DIRECTION ( 'NONE',  ( -0.000000000000000000, -0.000000000000000000, -1.000000000000000000 ) ) ;
#1048 = EDGE_CURVE ( 'NONE', #653, #808, #40, .T. ) ;
#1049 = DIRECTION ( 'NONE',  ( -1.000000000000000000, -0.000000000000000000, 1.756682000989172474E-16 ) ) ;
#1050 = ORIENTED_EDGE ( 'NONE', *, *, #520, .F. ) ;
#1051 = LINE ( 'NONE', #626, #236 ) ;
#1052 = DIRECTION ( 'NONE',  ( 0.000000000000000000, 0.000000000000000000, 1.000000000000000000 ) ) ;
#1053 = ADVANCED_FACE ( 'NONE', ( #473, #353, #1303, #455, #668, #1188, #764 ), #260, .F. ) ;
#1054 = ORIENTED_EDGE ( 'NONE', *, *, #78, .F. ) ;
#1055 = CARTESIAN_POINT ( 'NONE',  ( -3.845965311726825764, 19.00000000000001776, 2.411702127659602457 ) ) ;
#1056 = DIRECTION ( 'NONE',  ( 1.000000000000000000, -0.000000000000000000, -0.000000000000000000 ) ) ;
#1057 = ORIENTED_EDGE ( 'NONE', *, *, #1228, .T. ) ;
#1058 = CARTESIAN_POINT ( 'NONE',  ( -6.431570170726598867, 0.000000000000000000, 15.86170212765957288 ) ) ;
#1059 = AXIS2_PLACEMENT_3D ( 'NONE', #144, #1196, #263 ) ;
#1060 = CARTESIAN_POINT ( 'NONE',  ( -3.845965311726825764, 11.00304079574318372, 2.411702127659602457 ) ) ;
#1061 = EDGE_LOOP ( 'NONE', ( #570, #1252, #122, #172 ) ) ;
#1062 = CIRCLE ( 'NONE', #1037, 1.249999999999997558 ) ;
#1063 = LINE ( 'NONE', #232, #867 ) ;
#1064 = AXIS2_PLACEMENT_3D ( 'NONE', #1006, #404, #806 ) ;
#1065 = CARTESIAN_POINT ( 'NONE',  ( -9.061570170726596984, 8.000000000000000000, 20.86170212765956933 ) ) ;
#1066 = VERTEX_POINT ( 'NONE', #465 ) ;
#1067 = ORIENTED_EDGE ( 'NONE', *, *, #487, .T. ) ;
#1068 = CARTESIAN_POINT ( 'NONE',  ( -3.845965311726829761, 0.000000000000000000, 15.86170212765957288 ) ) ;
#1069 = CARTESIAN_POINT ( 'NONE',  ( -3.845965311726831093, 14.75000000000001421, 2.911702127659603789 ) ) ;
#1070 = ORIENTED_EDGE ( 'NONE', *, *, #329, .T. ) ;
#1071 = EDGE_CURVE ( 'NONE', #834, #328, #153, .T. ) ;
#1072 = CARTESIAN_POINT ( 'NONE',  ( 0.000000000000000000, 0.000000000000000000, 0.000000000000000000 ) ) ;
#1073 = ORIENTED_EDGE ( 'NONE', *, *, #468, .T. ) ;
#1074 = DIRECTION ( 'NONE',  ( -1.000000000000000000, -0.000000000000000000, 1.756682000989172474E-16 ) ) ;
#1075 = CARTESIAN_POINT ( 'NONE',  ( -3.845965311726825764, 11.00304079574318372, 2.411702127659602457 ) ) ;
#1076 = ORIENTED_EDGE ( 'NONE', *, *, #421, .F. ) ;
#1077 = ORIENTED_EDGE ( 'NONE', *, *, #1086, .F. ) ;
#1078 = VECTOR ( 'NONE', #196, 1000.000000000000000 ) ;
#1079 = DIRECTION ( 'NONE',  ( 0.000000000000000000, 0.000000000000000000, 1.000000000000000000 ) ) ;
#1080 = CIRCLE ( 'NONE', #365, 1.250000000000001110 ) ;
#1081 = CARTESIAN_POINT ( 'NONE',  ( 0.000000000000000000, 11.00000000000000000, 20.86170212765956933 ) ) ;
#1082 = VECTOR ( 'NONE', #512, 1000.000000000000000 ) ;
#1083 = VERTEX_POINT ( 'NONE', #1085 ) ;
#1084 = VERTEX_POINT ( 'NONE', #158 ) ;
#1085 = CARTESIAN_POINT ( 'NONE',  ( -3.845965311726829761, -0.000000000000000000, 11.61170212765957110 ) ) ;
#1086 = EDGE_CURVE ( 'NONE', #457, #1066, #1172, .T. ) ;
#1087 = EDGE_CURVE ( 'NONE', #653, #378, #1114, .T. ) ;
#1088 = CARTESIAN_POINT ( 'NONE',  ( -20.72347396041719847, 8.000000000000000000, 20.86170212765956933 ) ) ;
#1089 = ORIENTED_EDGE ( 'NONE', *, *, #81, .T. ) ;
#1090 = VERTEX_POINT ( 'NONE', #197 ) ;
#1091 = DIRECTION ( 'NONE',  ( 1.000000000000000000, 0.000000000000000000, 0.000000000000000000 ) ) ;
#1092 = EDGE_CURVE ( 'NONE', #530, #547, #268, .T. ) ;
#1093 = DIRECTION ( 'NONE',  ( 0.000000000000000000, 1.000000000000000000, 0.000000000000000000 ) ) ;
#1094 = ORIENTED_EDGE ( 'NONE', *, *, #1005, .F. ) ;
#1095 = VERTEX_POINT ( 'NONE', #604 ) ;
#1096 = EDGE_LOOP ( 'NONE', ( #364, #757, #918, #637 ) ) ;
#1097 = DIRECTION ( 'NONE',  ( -1.000000000000000000, 0.000000000000000000, 1.756682000989171981E-16 ) ) ;
#1098 = VECTOR ( 'NONE', #1175, 1000.000000000000000 ) ;
#1099 = LINE ( 'NONE', #460, #1126 ) ;
#1100 = ORIENTED_EDGE ( 'NONE', *, *, #583, .F. ) ;
#1101 = AXIS2_PLACEMENT_3D ( 'NONE', #1191, #987, #881 ) ;
#1102 = AXIS2_PLACEMENT_3D ( 'NONE', #484, #1097, #1021 ) ;
#1103 = ORIENTED_EDGE ( 'NONE', *, *, #329, .F. ) ;
#1104 = EDGE_CURVE ( 'NONE', #1241, #1259, #407, .T. ) ;
#1105 = CARTESIAN_POINT ( 'NONE',  ( -3.845965311726829761, 14.75000000000001776, -20.78829787234039372 ) ) ;
#1106 = PRODUCT ( 'Fixture 6', 'Fixture 6', '', ( #1282 ) ) ;
#1107 = DIRECTION ( 'NONE',  ( 0.000000000000000000, 0.000000000000000000, -1.000000000000000000 ) ) ;
#1108 = CARTESIAN_POINT ( 'NONE',  ( -3.845965311726827096, 1.500000000000000000, -8.638297872340428896 ) ) ;
#1109 = ORIENTED_EDGE ( 'NONE', *, *, #1111, .T. ) ;
#1110 = FACE_BOUND ( 'NONE', #736, .T. ) ;
#1111 = EDGE_CURVE ( 'NONE', #929, #277, #69, .T. ) ;
#1112 = ORIENTED_EDGE ( 'NONE', *, *, #477, .F. ) ;
#1113 = CARTESIAN_POINT ( 'NONE',  ( -9.061570170726602313, 11.00304079574318372, -8.138297872340427119 ) ) ;
#1114 = LINE ( 'NONE', #1223, #515 ) ;
#1115 = DIRECTION ( 'NONE',  ( 0.000000000000000000, -1.000000000000000000, 0.000000000000000000 ) ) ;
#1116 = EDGE_LOOP ( 'NONE', ( #1028, #1246, #394, #44 ) ) ;
#1117 = CARTESIAN_POINT ( 'NONE',  ( -3.845965311726828872, 1.000000000000000000, -21.03829787234043280 ) ) ;
#1118 = EDGE_CURVE ( 'NONE', #1259, #662, #295, .T. ) ;
#1119 = CARTESIAN_POINT ( 'NONE',  ( -3.845965311726829761, 14.75000000000001776, -19.78829787234039728 ) ) ;
#1120 = CARTESIAN_POINT ( 'NONE',  ( -3.845965311726827096, 1.500000000000000000, -8.638297872340428896 ) ) ;
#1121 =( NAMED_UNIT ( * ) SI_UNIT ( $, .STERADIAN. ) SOLID_ANGLE_UNIT ( ) );
#1122 = VERTEX_POINT ( 'NONE', #92 ) ;
#1123 = VECTOR ( 'NONE', #925, 1000.000000000000000 ) ;
#1124 = CARTESIAN_POINT ( 'NONE',  ( -9.061570170726602313, 2.000000000000000000, -8.138297872340427119 ) ) ;
#1125 = AXIS2_PLACEMENT_3D ( 'NONE', #400, #815, #82 ) ;
#1126 = VECTOR ( 'NONE', #874, 1000.000000000000000 ) ;
#1127 = DIRECTION ( 'NONE',  ( -0.000000000000000000, -0.000000000000000000, -1.000000000000000000 ) ) ;
#1128 = CARTESIAN_POINT ( 'NONE',  ( -3.845965311726829761, 19.00000000000001776, 17.86170212765956933 ) ) ;
#1129 = DIRECTION ( 'NONE',  ( 1.000000000000000000, 0.000000000000000000, 0.000000000000000000 ) ) ;
#1130 = ORIENTED_EDGE ( 'NONE', *, *, #281, .T. ) ;
#1131 = CARTESIAN_POINT ( 'NONE',  ( -9.061570170726611195, 6.250000000000005329, 13.61170212765960130 ) ) ;
#1132 = ORIENTED_EDGE ( 'NONE', *, *, #673, .F. ) ;
#1133 = CARTESIAN_POINT ( 'NONE',  ( -3.845965311726829761, -2.000000000000000000, 17.86170212765956933 ) ) ;
#1134 = DIRECTION ( 'NONE',  ( 1.000000000000000000, 0.000000000000000000, 0.000000000000000000 ) ) ;
#1135 = CARTESIAN_POINT ( 'NONE',  ( -3.845965311726823987, 11.00304079574318372, 12.11170212765956933 ) ) ;
#1136 = DIRECTION ( 'NONE',  ( 1.000000000000000000, 0.000000000000000000, -1.756682000989171981E-16 ) ) ;
#1137 = ORIENTED_EDGE ( 'NONE', *, *, #747, .F. ) ;
#1138 = FACE_OUTER_BOUND ( 'NONE', #178, .T. ) ;
#1139 = DIRECTION ( 'NONE',  ( -0.000000000000000000, 0.000000000000000000, -1.000000000000000000 ) ) ;
#1140 = DIRECTION ( 'NONE',  ( 0.000000000000000000, 0.000000000000000000, 1.000000000000000000 ) ) ;
#1141 = LINE ( 'NONE', #645, #619 ) ;
#1142 = EDGE_LOOP ( 'NONE', ( #347, #1292, #1269, #550 ) ) ;
#1143 = AXIS2_PLACEMENT_3D ( 'NONE', #1119, #584, #1010 ) ;
#1144 = AXIS2_PLACEMENT_3D ( 'NONE', #234, #1261, #30 ) ;
#1145 = EDGE_CURVE ( 'NONE', #15, #55, #579, .T. ) ;
#1146 = DIRECTION ( 'NONE',  ( -1.000000000000000000, 0.000000000000000000, 0.000000000000000000 ) ) ;
#1147 = AXIS2_PLACEMENT_3D ( 'NONE', #1002, #554, #1291 ) ;
#1148 = EDGE_CURVE ( 'NONE', #410, #1326, #1345, .T. ) ;
#1149 = CARTESIAN_POINT ( 'NONE',  ( -9.061570170726611195, 6.250000000000005329, -9.088297872340399763 ) ) ;
#1150 = VECTOR ( 'NONE', #1284, 1000.000000000000000 ) ;
#1151 = DIRECTION ( 'NONE',  ( 0.000000000000000000, 0.000000000000000000, -1.000000000000000000 ) ) ;
#1152 = CARTESIAN_POINT ( 'NONE',  ( -20.72347396041719847, 5.000000000000000000, 20.86170212765956933 ) ) ;
#1153 = ORIENTED_EDGE ( 'NONE', *, *, #1046, .F. ) ;
#1154 = EDGE_CURVE ( 'NONE', #343, #894, #902, .T. ) ;
#1155 = CARTESIAN_POINT ( 'NONE',  ( -3.845965311726825764, 11.00304079574318372, 2.411702127659602457 ) ) ;
#1156 = CARTESIAN_POINT ( 'NONE',  ( -3.845965311726827096, 1.500000000000000000, -8.638297872340428896 ) ) ;
#1157 = ORIENTED_EDGE ( 'NONE', *, *, #1154, .T. ) ;
#1158 = CARTESIAN_POINT ( 'NONE',  ( -9.061570170726604090, 1.000000000000000000, -21.03829787234043280 ) ) ;
#1159 = DIRECTION ( 'NONE',  ( 0.000000000000000000, -1.000000000000000000, 0.000000000000000000 ) ) ;
#1160 = VERTEX_POINT ( 'NONE', #687 ) ;
#1161 = CARTESIAN_POINT ( 'NONE',  ( -3.845965311726831093, 0.003040795743203261736, 15.86170212765957288 ) ) ;
#1162 = EDGE_CURVE ( 'NONE', #1095, #653, #788, .T. ) ;
#1163 = PLANE ( 'NONE',  #452 ) ;
#1164 = EDGE_LOOP ( 'NONE', ( #37, #517 ) ) ;
#1165 = CARTESIAN_POINT ( 'NONE',  ( -6.431570170726598867, 0.003040795743202942547, 11.61170212765957110 ) ) ;
#1166 = DIRECTION ( 'NONE',  ( -0.000000000000000000, 1.000000000000000000, -0.000000000000000000 ) ) ;
#1167 = ORIENTED_EDGE ( 'NONE', *, *, #762, .T. ) ;
#1168 = AXIS2_PLACEMENT_3D ( 'NONE', #499, #911, #1338 ) ;
#1169 = VECTOR ( 'NONE', #414, 1000.000000000000000 ) ;
#1170 = VERTEX_POINT ( 'NONE', #585 ) ;
#1171 = VECTOR ( 'NONE', #310, 1000.000000000000000 ) ;
#1172 = CIRCLE ( 'NONE', #1258, 2.999999999999999112 ) ;
#1173 = DIRECTION ( 'NONE',  ( 1.000000000000000000, -0.000000000000000000, -0.000000000000000000 ) ) ;
#1174 = CIRCLE ( 'NONE', #1237, 0.9999999999999974465 ) ;
#1175 = DIRECTION ( 'NONE',  ( -0.000000000000000000, -0.000000000000000000, -1.000000000000000000 ) ) ;
#1176 = VERTEX_POINT ( 'NONE', #913 ) ;
#1177 = ORIENTED_EDGE ( 'NONE', *, *, #468, .F. ) ;
#1178 = CARTESIAN_POINT ( 'NONE',  ( -3.845965311726831093, 0.003040795743203261736, 11.61170212765957110 ) ) ;
#1179 = CARTESIAN_POINT ( 'NONE',  ( -9.061570170726611195, 6.250000000000005329, 12.61170212765960308 ) ) ;
#1180 = ORIENTED_EDGE ( 'NONE', *, *, #882, .T. ) ;
#1181 = VERTEX_POINT ( 'NONE', #383 ) ;
#1182 = CARTESIAN_POINT ( 'NONE',  ( -3.845965311726831093, 0.003040795743203261736, 15.86170212765957288 ) ) ;
#1183 = LINE ( 'NONE', #1088, #189 ) ;
#1184 = ORIENTED_EDGE ( 'NONE', *, *, #1330, .F. ) ;
#1185 = EDGE_CURVE ( 'NONE', #410, #126, #799, .T. ) ;
#1186 = ORIENTED_EDGE ( 'NONE', *, *, #1092, .T. ) ;
#1187 = EDGE_CURVE ( 'NONE', #49, #1176, #1174, .T. ) ;
#1188 = FACE_BOUND ( 'NONE', #12, .T. ) ;
#1189 = AXIS2_PLACEMENT_3D ( 'NONE', #218, #959, #1272 ) ;
#1190 = CIRCLE ( 'NONE', #1147, 1.000000000000000888 ) ;
#1191 = CARTESIAN_POINT ( 'NONE',  ( -3.845965311726825764, 11.00304079574318372, 2.411702127659602457 ) ) ;
#1192 = VECTOR ( 'NONE', #174, 1000.000000000000000 ) ;
#1193 = ORIENTED_EDGE ( 'NONE', *, *, #87, .F. ) ;
#1194 = EDGE_CURVE ( 'NONE', #1305, #338, #188, .T. ) ;
#1195 =( LENGTH_UNIT ( ) NAMED_UNIT ( * ) SI_UNIT ( .MILLI., .METRE. ) );
#1196 = DIRECTION ( 'NONE',  ( -1.000000000000000000, -0.000000000000000000, 1.756682000989171981E-16 ) ) ;
#1197 = LINE ( 'NONE', #559, #451 ) ;
#1198 = DIRECTION ( 'NONE',  ( 0.000000000000000000, 0.000000000000000000, -1.000000000000000000 ) ) ;
#1199 = EDGE_LOOP ( 'NONE', ( #424, #470 ) ) ;
#1200 = ADVANCED_FACE ( 'NONE', ( #289 ), #597, .F. ) ;
#1201 = FACE_OUTER_BOUND ( 'NONE', #35, .T. ) ;
#1202 = CARTESIAN_POINT ( 'NONE',  ( -4.845965311726819991, 1.999999999999999112, 19.86170212765956933 ) ) ;
#1203 = CARTESIAN_POINT ( 'NONE',  ( -3.811570170726598761, 14.75000000000001776, -18.78829787234040083 ) ) ;
#1204 = ADVANCED_FACE ( 'NONE', ( #492, #679 ), #1217, .T. ) ;
#1205 = ORIENTED_EDGE ( 'NONE', *, *, #940, .T. ) ;
#1206 = VERTEX_POINT ( 'NONE', #392 ) ;
#1207 = CARTESIAN_POINT ( 'NONE',  ( -9.061570170726604090, 14.75000000000001776, -20.78829787234039372 ) ) ;
#1208 = DIRECTION ( 'NONE',  ( 0.000000000000000000, -1.000000000000000000, 0.000000000000000000 ) ) ;
#1209 = EDGE_CURVE ( 'NONE', #808, #1084, #1012, .T. ) ;
#1210 = CIRCLE ( 'NONE', #931, 1.000000000000003553 ) ;
#1211 = CARTESIAN_POINT ( 'NONE',  ( 0.000000000000000000, -2.000000000000000000, 0.000000000000000000 ) ) ;
#1212 = ORIENTED_EDGE ( 'NONE', *, *, #445, .T. ) ;
#1213 = VECTOR ( 'NONE', #170, 1000.000000000000000 ) ;
#1214 = FACE_OUTER_BOUND ( 'NONE', #25, .T. ) ;
#1215 = VECTOR ( 'NONE', #315, 1000.000000000000000 ) ;
#1216 = CARTESIAN_POINT ( 'NONE',  ( -3.811570170726604978, -2.000000000000000000, -24.03829787234042925 ) ) ;
#1217 = PLANE ( 'NONE',  #276 ) ;
#1218 = SURFACE_STYLE_USAGE ( .BOTH. , #591 ) ;
#1219 = ORIENTED_EDGE ( 'NONE', *, *, #454, .T. ) ;
#1220 = CARTESIAN_POINT ( 'NONE',  ( -20.72347396041719847, -2.000000000000000888, 23.86170212765956933 ) ) ;
#1221 = ADVANCED_FACE ( 'NONE', ( #1001 ), #478, .F. ) ;
#1222 = CARTESIAN_POINT ( 'NONE',  ( -3.845965311726831093, 11.00000000000000000, 20.86170212765956933 ) ) ;
#1223 = CARTESIAN_POINT ( 'NONE',  ( -3.845965311726823987, 11.00304079574318372, 12.11170212765956933 ) ) ;
#1224 = DIRECTION ( 'NONE',  ( 1.101454520581383984E-32, -1.000000000000000000, 6.270084852928217493E-17 ) ) ;
#1225 = EDGE_LOOP ( 'NONE', ( #113, #984, #814, #943 ) ) ;
#1226 = DIRECTION ( 'NONE',  ( 1.000000000000000000, 0.000000000000000000, 0.000000000000000000 ) ) ;
#1227 = LINE ( 'NONE', #303, #1123 ) ;
#1228 = EDGE_CURVE ( 'NONE', #1206, #555, #730, .T. ) ;
#1229 = DIRECTION ( 'NONE',  ( 0.000000000000000000, 0.000000000000000000, -1.000000000000000000 ) ) ;
#1230 = LINE ( 'NONE', #406, #471 ) ;
#1231 = ORIENTED_EDGE ( 'NONE', *, *, #1104, .F. ) ;
#1232 = CIRCLE ( 'NONE', #706, 1.250000000000001110 ) ;
#1233 = CYLINDRICAL_SURFACE ( 'NONE', #889, 0.9999999999999991118 ) ;
#1234 = AXIS2_PLACEMENT_3D ( 'NONE', #395, #1226, #509 ) ;
#1235 = ORIENTED_EDGE ( 'NONE', *, *, #245, .F. ) ;
#1236 = DIRECTION ( 'NONE',  ( -1.000000000000000000, 0.000000000000000000, 1.756682000989172474E-16 ) ) ;
#1237 = AXIS2_PLACEMENT_3D ( 'NONE', #375, #693, #86 ) ;
#1238 = CARTESIAN_POINT ( 'NONE',  ( -9.061570170726600537, 14.75000000000001421, 3.911702127659608230 ) ) ;
#1239 = DIRECTION ( 'NONE',  ( -1.000000000000000000, 0.000000000000000000, 0.000000000000000000 ) ) ;
#1240 = FACE_BOUND ( 'NONE', #137, .T. ) ;
#1241 = VERTEX_POINT ( 'NONE', #131 ) ;
#1242 = CARTESIAN_POINT ( 'NONE',  ( -3.845965311726831093, 1.000000000000000000, -21.03829787234043280 ) ) ;
#1243 = CARTESIAN_POINT ( 'NONE',  ( -9.061570170726598761, 1.500000000000001332, 12.11170212765957466 ) ) ;
#1244 = ADVANCED_FACE ( 'NONE', ( #745 ), #1163, .F. ) ;
#1245 = DIRECTION ( 'NONE',  ( 0.000000000000000000, 0.000000000000000000, -1.000000000000000000 ) ) ;
#1246 = ORIENTED_EDGE ( 'NONE', *, *, #1118, .T. ) ;
#1247 = CARTESIAN_POINT ( 'NONE',  ( -9.061570170726604090, 1.000000000000000000, -19.78829787234043280 ) ) ;
#1248 = CARTESIAN_POINT ( 'NONE',  ( -3.845965311726828872, 10.00000000000000888, -18.28829787234042925 ) ) ;
#1249 = DIRECTION ( 'NONE',  ( 0.000000000000000000, 0.000000000000000000, 1.000000000000000000 ) ) ;
#1250 = EDGE_CURVE ( 'NONE', #547, #782, #14, .T. ) ;
#1251 = CARTESIAN_POINT ( 'NONE',  ( -3.845965311726825764, 11.00304079574318372, 2.411702127659602457 ) ) ;
#1252 = ORIENTED_EDGE ( 'NONE', *, *, #876, .T. ) ;
#1253 = AXIS2_PLACEMENT_3D ( 'NONE', #1044, #532, #416 ) ;
#1254 = CIRCLE ( 'NONE', #1297, 2.000000000000001776 ) ;
#1255 = FACE_OUTER_BOUND ( 'NONE', #1307, .T. ) ;
#1256 = CIRCLE ( 'NONE', #1039, 3.000000000000002665 ) ;
#1257 = DIRECTION ( 'NONE',  ( -1.000000000000000000, 0.000000000000000000, 0.000000000000000000 ) ) ;
#1258 = AXIS2_PLACEMENT_3D ( 'NONE', #565, #52, #1107 ) ;
#1259 = VERTEX_POINT ( 'NONE', #1149 ) ;
#1260 = CARTESIAN_POINT ( 'NONE',  ( -9.061570170726598761, 19.00000000000001776, 17.86170212765956933 ) ) ;
#1261 = DIRECTION ( 'NONE',  ( -1.000000000000000000, -0.000000000000000000, -0.000000000000000000 ) ) ;
#1262 = VERTEX_POINT ( 'NONE', #1060 ) ;
#1263 = EDGE_CURVE ( 'NONE', #640, #555, #194, .T. ) ;
#1264 = DIRECTION ( 'NONE',  ( -1.000000000000000000, -0.000000000000000000, 1.756682000989172474E-16 ) ) ;
#1265 = DIRECTION ( 'NONE',  ( -1.000000000000000000, -0.000000000000000000, 1.756682000989171981E-16 ) ) ;
#1266 = ORIENTED_EDGE ( 'NONE', *, *, #880, .F. ) ;
#1267 = CARTESIAN_POINT ( 'NONE',  ( -3.811570170726604978, 19.00000000000001066, -24.03829787234042925 ) ) ;
#1268 = CARTESIAN_POINT ( 'NONE',  ( -9.061570170726604090, 1.000000000000000222, -22.28829787234043636 ) ) ;
#1269 = ORIENTED_EDGE ( 'NONE', *, *, #747, .T. ) ;
#1270 = ORIENTED_EDGE ( 'NONE', *, *, #831, .F. ) ;
#1271 = DIRECTION ( 'NONE',  ( -1.000000000000000000, 0.000000000000000000, 0.000000000000000000 ) ) ;
#1272 = DIRECTION ( 'NONE',  ( 0.000000000000000000, 0.000000000000000000, -1.000000000000000000 ) ) ;
#1273 = EDGE_LOOP ( 'NONE', ( #861, #22, #1186, #184 ) ) ;
#1274 = CIRCLE ( 'NONE', #663, 0.9999999999999991118 ) ;
#1275 = EDGE_LOOP ( 'NONE', ( #671, #746, #332, #1153, #853 ) ) ;
#1276 = CIRCLE ( 'NONE', #299, 0.9999999999999991118 ) ;
#1277 = VECTOR ( 'NONE', #247, 1000.000000000000000 ) ;
#1278 = DIRECTION ( 'NONE',  ( 0.000000000000000000, 0.000000000000000000, 1.000000000000000000 ) ) ;
#1279 = PRODUCT_DEFINITION_FORMATION_WITH_SPECIFIED_SOURCE ( 'Symmetric', '', #1106, .NOT_KNOWN. ) ;
#1280 = DIRECTION ( 'NONE',  ( -1.000000000000000000, -0.000000000000000000, 1.756682000989172474E-16 ) ) ;
#1281 = ORIENTED_EDGE ( 'NONE', *, *, #762, .F. ) ;
#1282 = PRODUCT_CONTEXT ( 'NONE', #828, 'mechanical' ) ;
#1283 = ORIENTED_EDGE ( 'NONE', *, *, #281, .F. ) ;
#1284 = DIRECTION ( 'NONE',  ( -1.000000000000000000, -0.000000000000000000, 1.756682000989172474E-16 ) ) ;
#1285 = CYLINDRICAL_SURFACE ( 'NONE', #491, 2.999999999999999112 ) ;
#1286 = ORIENTED_EDGE ( 'NONE', *, *, #1104, .T. ) ;
#1287 = EDGE_CURVE ( 'NONE', #244, #319, #627, .T. ) ;
#1288 = ADVANCED_FACE ( 'NONE', ( #331 ), #837, .T. ) ;
#1289 = EDGE_LOOP ( 'NONE', ( #594, #89, #1334, #1103 ) ) ;
#1290 = LINE ( 'NONE', #969, #320 ) ;
#1291 = DIRECTION ( 'NONE',  ( 0.000000000000000000, 0.000000000000000000, -1.000000000000000000 ) ) ;
#1292 = ORIENTED_EDGE ( 'NONE', *, *, #154, .F. ) ;
#1293 = ADVANCED_FACE ( 'NONE', ( #962 ), #842, .F. ) ;
#1294 = VERTEX_POINT ( 'NONE', #433 ) ;
#1295 = AXIS2_PLACEMENT_3D ( 'NONE', #505, #919, #1236 ) ;
#1296 = CARTESIAN_POINT ( 'NONE',  ( -3.845965311726829761, 6.250000000000005329, -10.08829787234040154 ) ) ;
#1297 = AXIS2_PLACEMENT_3D ( 'NONE', #887, #448, #680 ) ;
#1298 = CARTESIAN_POINT ( 'NONE',  ( -9.061570170726598761, 19.00000000000001066, -24.03829787234042925 ) ) ;
#1299 = AXIS2_PLACEMENT_3D ( 'NONE', #506, #1026, #500 ) ;
#1300 = ORIENTED_EDGE ( 'NONE', *, *, #41, .T. ) ;
#1301 = ADVANCED_BREP_SHAPE_REPRESENTATION ( 'Fixture 6', ( #696, #776 ), #132 ) ;
#1302 = ORIENTED_EDGE ( 'NONE', *, *, #1330, .T. ) ;
#1303 = FACE_BOUND ( 'NONE', #586, .T. ) ;
#1304 = CARTESIAN_POINT ( 'NONE',  ( -3.845965311726829761, 2.000000000000000000, 11.61170212765957110 ) ) ;
#1305 = VERTEX_POINT ( 'NONE', #934 ) ;
#1306 = ORIENTED_EDGE ( 'NONE', *, *, #702, .T. ) ;
#1307 = EDGE_LOOP ( 'NONE', ( #1073, #379, #1003 ) ) ;
#1308 = ADVANCED_FACE ( 'NONE', ( #216 ), #796, .F. ) ;
#1309 = DIRECTION ( 'NONE',  ( -1.756682000989172474E-16, 0.000000000000000000, -1.000000000000000000 ) ) ;
#1310 = PRESENTATION_STYLE_ASSIGNMENT (( #1218 ) ) ;
#1311 = VERTEX_POINT ( 'NONE', #324 ) ;
#1312 = ORIENTED_EDGE ( 'NONE', *, *, #445, .F. ) ;
#1313 = CARTESIAN_POINT ( 'NONE',  ( -3.845965311726829761, 6.250000000000005329, -10.08829787234040154 ) ) ;
#1314 = DIRECTION ( 'NONE',  ( 1.672022627447524747E-16, 6.270084852928217493E-17, 1.000000000000000000 ) ) ;
#1315 = ADVANCED_FACE ( 'NONE', ( #202 ), #115, .F. ) ;
#1316 = AXIS2_PLACEMENT_3D ( 'NONE', #265, #661, #350 ) ;
#1317 = CARTESIAN_POINT ( 'NONE',  ( -3.845965311726831093, 0.003040795743203261736, 11.61170212765957110 ) ) ;
#1318 = ORIENTED_EDGE ( 'NONE', *, *, #377, .T. ) ;
#1319 = VECTOR ( 'NONE', #983, 1000.000000000000000 ) ;
#1320 = CARTESIAN_POINT ( 'NONE',  ( -3.845965311726823987, 11.00304079574318372, 12.11170212765956933 ) ) ;
#1321 = VECTOR ( 'NONE', #1265, 1000.000000000000000 ) ;
#1322 = CARTESIAN_POINT ( 'NONE',  ( -4.845965311726830649, 1.000000000000000000, -21.03829787234043280 ) ) ;
#1323 = DIRECTION ( 'NONE',  ( 1.000000000000000000, 1.223849885766669635E-16, -0.000000000000000000 ) ) ;
#1324 = EDGE_CURVE ( 'NONE', #1090, #1095, #526, .T. ) ;
#1325 = PLANE ( 'NONE',  #38 ) ;
#1326 = VERTEX_POINT ( 'NONE', #2 ) ;
#1327 = PLANE ( 'NONE',  #1234 ) ;
#1328 = ORIENTED_EDGE ( 'NONE', *, *, #823, .F. ) ;
#1329 = EDGE_CURVE ( 'NONE', #498, #834, #734, .T. ) ;
#1330 = EDGE_CURVE ( 'NONE', #1206, #467, #665, .T. ) ;
#1331 = FACE_OUTER_BOUND ( 'NONE', #856, .T. ) ;
#1332 = DIRECTION ( 'NONE',  ( 0.7071067811865451302, 0.000000000000000000, -0.7071067811865500152 ) ) ;
#1333 = SURFACE_STYLE_FILL_AREA ( #77 ) ;
#1334 = ORIENTED_EDGE ( 'NONE', *, *, #522, .T. ) ;
#1335 = CARTESIAN_POINT ( 'NONE',  ( -3.845965311726828872, 10.00000000000000888, -18.28829787234042925 ) ) ;
#1336 = EDGE_CURVE ( 'NONE', #28, #480, #121, .T. ) ;
#1337 = ORIENTED_EDGE ( 'NONE', *, *, #702, .F. ) ;
#1338 = DIRECTION ( 'NONE',  ( 3.469446951953621091E-16, 0.000000000000000000, 1.000000000000000000 ) ) ;
#1339 = DIRECTION ( 'NONE',  ( -0.000000000000000000, 1.000000000000000000, -0.000000000000000000 ) ) ;
#1340 = CIRCLE ( 'NONE', #930, 1.999999999999998224 ) ;
#1341 = AXIS2_PLACEMENT_3D ( 'NONE', #636, #1056, #17 ) ;
#1342 = LINE ( 'NONE', #104, #127 ) ;
#1343 = VECTOR ( 'NONE', #854, 1000.000000000000000 ) ;
#1344 = ORIENTED_EDGE ( 'NONE', *, *, #835, .T. ) ;
#1345 = CIRCLE ( 'NONE', #1299, 1.249999999999997558 ) ;
ENDSEC;
END-ISO-10303-21;
