ISO-10303-21;
HEADER;
FILE_DESCRIPTION (( 'STEP AP214' ),
    '1' );
FILE_NAME ('Fixture 6 - mirror.STEP',
    '2025-10-21T18:57:06',
    ( 'Windows User' ),
    ( '' ),
    'SwSTEP 2.0',
    'SolidWorks 2023',
    '' );
FILE_SCHEMA (( 'AUTOMOTIVE_DESIGN' ));
ENDSEC;

DATA;
#1 = DIRECTION ( 'NONE',  ( 0.000000000000000000, -1.000000000000000000, 0.000000000000000000 ) ) ;
#2 = PRESENTATION_LAYER_ASSIGNMENT (  '', '', ( #309 ) ) ;
#3 = FACE_OUTER_BOUND ( 'NONE', #683, .T. ) ;
#4 = EDGE_CURVE ( 'NONE', #1194, #139, #632, .T. ) ;
#5 = CYLINDRICAL_SURFACE ( 'NONE', #24, 1.250000000000001110 ) ;
#6 = FACE_BOUND ( 'NONE', #143, .T. ) ;
#7 = ORIENTED_EDGE ( 'NONE', *, *, #229, .T. ) ;
#8 = DIRECTION ( 'NONE',  ( 0.000000000000000000, 0.000000000000000000, 1.000000000000000000 ) ) ;
#9 = CARTESIAN_POINT ( 'NONE',  ( -3.845965311726823987, 11.00304079574318372, 2.411702127659602457 ) ) ;
#10 = EDGE_CURVE ( 'NONE', #297, #887, #1081, .T. ) ;
#11 = DIRECTION ( 'NONE',  ( 1.000000000000000000, -0.000000000000000000, -1.756682000989171981E-16 ) ) ;
#12 = DIRECTION ( 'NONE',  ( 1.756682000989171981E-16, 0.000000000000000000, 1.000000000000000000 ) ) ;
#13 = ORIENTED_EDGE ( 'NONE', *, *, #332, .T. ) ;
#14 = DIRECTION ( 'NONE',  ( 0.000000000000000000, 0.000000000000000000, 1.000000000000000000 ) ) ;
#15 = CARTESIAN_POINT ( 'NONE',  ( -9.061570170726604090, 1.000000000000000000, -24.03829787234042925 ) ) ;
#16 = EDGE_LOOP ( 'NONE', ( #315, #35, #419, #948 ) ) ;
#17 = DIRECTION ( 'NONE',  ( 0.000000000000000000, 0.000000000000000000, 1.000000000000000000 ) ) ;
#18 = EDGE_CURVE ( 'NONE', #1118, #1136, #691, .T. ) ;
#19 = DIRECTION ( 'NONE',  ( -1.000000000000000000, 0.000000000000000000, 1.756682000989171981E-16 ) ) ;
#20 = ORIENTED_EDGE ( 'NONE', *, *, #597, .T. ) ;
#21 = VECTOR ( 'NONE', #710, 1000.000000000000000 ) ;
#22 = AXIS2_PLACEMENT_3D ( 'NONE', #1156, #230, #1054 ) ;
#23 = DIRECTION ( 'NONE',  ( 1.000000000000000000, 0.000000000000000000, -1.756682000989171981E-16 ) ) ;
#24 = AXIS2_PLACEMENT_3D ( 'NONE', #228, #423, #966 ) ;
#25 = DIRECTION ( 'NONE',  ( 1.000000000000000000, 0.000000000000000000, -1.756682000989171981E-16 ) ) ;
#26 = AXIS2_PLACEMENT_3D ( 'NONE', #722, #1116, #692 ) ;
#27 = EDGE_LOOP ( 'NONE', ( #688, #1231, #756, #799 ) ) ;
#28 = CARTESIAN_POINT ( 'NONE',  ( -9.061570170726602313, 10.00000000000000888, -8.138297872340427119 ) ) ;
#29 = CARTESIAN_POINT ( 'NONE',  ( -9.061570170726600537, 1.499999999999999556, 12.11170212765957288 ) ) ;
#30 = ORIENTED_EDGE ( 'NONE', *, *, #1091, .T. ) ;
#31 = CARTESIAN_POINT ( 'NONE',  ( -3.845965311726831537, 11.00000000000000000, 20.86170212765956933 ) ) ;
#32 = CARTESIAN_POINT ( 'NONE',  ( -3.845965311726823987, 11.00304079574318372, 2.411702127659602457 ) ) ;
#33 = ORIENTED_EDGE ( 'NONE', *, *, #532, .F. ) ;
#34 = LINE ( 'NONE', #1145, #1151 ) ;
#35 = ORIENTED_EDGE ( 'NONE', *, *, #379, .F. ) ;
#36 = EDGE_CURVE ( 'NONE', #887, #378, #1208, .T. ) ;
#37 = ORIENTED_EDGE ( 'NONE', *, *, #91, .F. ) ;
#38 = DIRECTION ( 'NONE',  ( 0.000000000000000000, 0.000000000000000000, 1.000000000000000000 ) ) ;
#39 = CARTESIAN_POINT ( 'NONE',  ( -9.061570170726611195, 6.250000000000005329, -9.088297872340399763 ) ) ;
#40 = VERTEX_POINT ( 'NONE', #942 ) ;
#41 = AXIS2_PLACEMENT_3D ( 'NONE', #871, #327, #762 ) ;
#42 = APPLICATION_PROTOCOL_DEFINITION ( 'draft international standard', 'automotive_design', 1998, #159 ) ;
#43 = EDGE_LOOP ( 'NONE', ( #344, #462, #689, #1180 ) ) ;
#44 = AXIS2_PLACEMENT_3D ( 'NONE', #862, #650, #747 ) ;
#45 = CIRCLE ( 'NONE', #67, 0.9999999999999974465 ) ;
#46 = CARTESIAN_POINT ( 'NONE',  ( 7.815938477963767284, 5.000000000000000000, 23.86170212765956578 ) ) ;
#47 = ADVANCED_FACE ( 'NONE', ( #407 ), #493, .F. ) ;
#48 = EDGE_CURVE ( 'NONE', #1194, #404, #1236, .T. ) ;
#49 = DIRECTION ( 'NONE',  ( 3.469446951953611231E-16, 0.000000000000000000, 1.000000000000000000 ) ) ;
#50 = VERTEX_POINT ( 'NONE', #294 ) ;
#51 = ORIENTED_EDGE ( 'NONE', *, *, #720, .T. ) ;
#52 = CARTESIAN_POINT ( 'NONE',  ( 0.9384298292734024605, 2.000000000000000000, 18.61170212765956578 ) ) ;
#53 = ADVANCED_FACE ( 'NONE', ( #1137 ), #698, .F. ) ;
#54 = DIRECTION ( 'NONE',  ( -1.000000000000000000, -0.000000000000000000, 1.756682000989171981E-16 ) ) ;
#55 = VERTEX_POINT ( 'NONE', #719 ) ;
#56 = ORIENTED_EDGE ( 'NONE', *, *, #851, .T. ) ;
#57 = CARTESIAN_POINT ( 'NONE',  ( -9.061570170726598761, -2.000000000000000000, -24.03829787234042925 ) ) ;
#58 = CARTESIAN_POINT ( 'NONE',  ( -3.845965311726825764, 1.500000000000000000, -8.638297872340428896 ) ) ;
#59 = ORIENTED_EDGE ( 'NONE', *, *, #1051, .F. ) ;
#60 = VECTOR ( 'NONE', #287, 1000.000000000000114 ) ;
#61 =( LENGTH_UNIT ( ) NAMED_UNIT ( * ) SI_UNIT ( .MILLI., .METRE. ) );
#62 = ORIENTED_EDGE ( 'NONE', *, *, #585, .F. ) ;
#63 = CARTESIAN_POINT ( 'NONE',  ( -8.061570170726604090, 1.000000000000000000, -19.78829787234043280 ) ) ;
#64 = CIRCLE ( 'NONE', #837, 2.999999999999999112 ) ;
#65 = AXIS2_PLACEMENT_3D ( 'NONE', #1308, #207, #808 ) ;
#66 = CARTESIAN_POINT ( 'NONE',  ( -3.845965311726829761, 19.00000000000001776, 15.86170212765957288 ) ) ;
#67 = AXIS2_PLACEMENT_3D ( 'NONE', #560, #1072, #38 ) ;
#68 = ORIENTED_EDGE ( 'NONE', *, *, #473, .F. ) ;
#69 = ORIENTED_EDGE ( 'NONE', *, *, #1022, .T. ) ;
#70 = CARTESIAN_POINT ( 'NONE',  ( -3.811570170726604978, 19.00000000000001066, -24.03829787234042925 ) ) ;
#71 = DIRECTION ( 'NONE',  ( 1.000000000000000000, 0.000000000000000000, 0.000000000000000000 ) ) ;
#72 = VERTEX_POINT ( 'NONE', #73 ) ;
#73 = CARTESIAN_POINT ( 'NONE',  ( -3.845965311726831537, 2.000000000000000000, 21.11170212765956578 ) ) ;
#74 = FACE_OUTER_BOUND ( 'NONE', #859, .T. ) ;
#75 = FACE_OUTER_BOUND ( 'NONE', #124, .T. ) ;
#76 = EDGE_LOOP ( 'NONE', ( #1225, #246, #671, #557 ) ) ;
#77 = CARTESIAN_POINT ( 'NONE',  ( -8.061570170726604090, 1.000000000000000000, -19.03829787234043280 ) ) ;
#78 = ORIENTED_EDGE ( 'NONE', *, *, #1051, .T. ) ;
#79 = FACE_OUTER_BOUND ( 'NONE', #16, .T. ) ;
#80 = DIRECTION ( 'NONE',  ( 0.000000000000000000, 0.000000000000000000, -1.000000000000000000 ) ) ;
#81 = DIRECTION ( 'NONE',  ( 0.000000000000000000, -1.000000000000000000, 0.000000000000000000 ) ) ;
#82 = EDGE_CURVE ( 'NONE', #824, #753, #704, .T. ) ;
#83 = EDGE_LOOP ( 'NONE', ( #1184, #581, #102, #1336, #226, #389, #913, #1277, #1041, #778, #1304, #509, #497, #589, #1107, #1327, #306 ) ) ;
#84 = VECTOR ( 'NONE', #122, 1000.000000000000000 ) ;
#85 = EDGE_CURVE ( 'NONE', #624, #152, #1130, .T. ) ;
#86 = DIRECTION ( 'NONE',  ( -1.000000000000000000, 0.000000000000000000, 0.000000000000000000 ) ) ;
#87 = AXIS2_PLACEMENT_3D ( 'NONE', #1138, #752, #1257 ) ;
#88 = ORIENTED_EDGE ( 'NONE', *, *, #1323, .F. ) ;
#89 = FACE_OUTER_BOUND ( 'NONE', #455, .T. ) ;
#90 = DIRECTION ( 'NONE',  ( 0.000000000000000000, 0.000000000000000000, 1.000000000000000000 ) ) ;
#91 = EDGE_CURVE ( 'NONE', #775, #1124, #962, .T. ) ;
#92 = DIRECTION ( 'NONE',  ( 1.756682000989171981E-16, 0.000000000000000000, 1.000000000000000000 ) ) ;
#93 = EDGE_LOOP ( 'NONE', ( #1344, #1170 ) ) ;
#94 = LINE ( 'NONE', #1215, #1042 ) ;
#95 = EDGE_LOOP ( 'NONE', ( #733, #248 ) ) ;
#96 = DIRECTION ( 'NONE',  ( -0.7071067811865454633, 8.659560562354958743E-17, -0.7071067811865496822 ) ) ;
#97 = CARTESIAN_POINT ( 'NONE',  ( -9.061570170726604090, 1.000000000000000000, -21.03829787234043280 ) ) ;
#98 = CARTESIAN_POINT ( 'NONE',  ( -9.061570170726598761, 11.00304079574318372, 12.11170212765957288 ) ) ;
#99 = VERTEX_POINT ( 'NONE', #805 ) ;
#100 = ADVANCED_FACE ( 'NONE', ( #89 ), #1148, .F. ) ;
#101 = LINE ( 'NONE', #1015, #1065 ) ;
#102 = ORIENTED_EDGE ( 'NONE', *, *, #437, .T. ) ;
#103 = EDGE_CURVE ( 'NONE', #468, #703, #923, .T. ) ;
#104 = CARTESIAN_POINT ( 'NONE',  ( -8.061570170726596984, 2.000000000000000444, 17.86170212765956933 ) ) ;
#105 = DIRECTION ( 'NONE',  ( -1.000000000000000000, 0.000000000000000000, 0.000000000000000000 ) ) ;
#106 = VECTOR ( 'NONE', #96, 1000.000000000000114 ) ;
#107 = VECTOR ( 'NONE', #1178, 1000.000000000000000 ) ;
#108 = CARTESIAN_POINT ( 'NONE',  ( -9.061570170726600537, 11.00000000000000000, 20.86170212765956933 ) ) ;
#109 = CIRCLE ( 'NONE', #1066, 1.250000000000001110 ) ;
#110 = VERTEX_POINT ( 'NONE', #311 ) ;
#111 = CIRCLE ( 'NONE', #1068, 2.999999999999999112 ) ;
#112 = EDGE_CURVE ( 'NONE', #139, #55, #599, .T. ) ;
#113 = DIRECTION ( 'NONE',  ( 1.000000000000000000, -0.000000000000000000, -0.000000000000000000 ) ) ;
#114 = CARTESIAN_POINT ( 'NONE',  ( -3.845965311726825764, 1.500000000000000000, -8.638297872340428896 ) ) ;
#115 = CARTESIAN_POINT ( 'NONE',  ( -8.061570170726596984, 2.000000000000000000, 19.86170212765956578 ) ) ;
#116 = EDGE_CURVE ( 'NONE', #918, #707, #515, .T. ) ;
#117 = CARTESIAN_POINT ( 'NONE',  ( -3.845965311726829761, 6.250000000000005329, -10.08829787234040154 ) ) ;
#118 = ORIENTED_EDGE ( 'NONE', *, *, #590, .F. ) ;
#119 = CARTESIAN_POINT ( 'NONE',  ( 0.000000000000000000, 0.000000000000000000, 0.000000000000000000 ) ) ;
#120 = CYLINDRICAL_SURFACE ( 'NONE', #87, 1.000000000000000888 ) ;
#121 = ADVANCED_FACE ( 'NONE', ( #79 ), #401, .F. ) ;
#122 = DIRECTION ( 'NONE',  ( -1.756682000989171981E-16, 2.090028284309406550E-17, -1.000000000000000000 ) ) ;
#123 = CARTESIAN_POINT ( 'NONE',  ( -6.431570170726598867, 0.000000000000000000, 11.61170212765957110 ) ) ;
#124 = EDGE_LOOP ( 'NONE', ( #118, #275, #435, #276, #877 ) ) ;
#125 = FACE_OUTER_BOUND ( 'NONE', #1286, .T. ) ;
#126 =( NAMED_UNIT ( * ) PLANE_ANGLE_UNIT ( ) SI_UNIT ( $, .RADIAN. ) );
#127 = VERTEX_POINT ( 'NONE', #501 ) ;
#128 = CARTESIAN_POINT ( 'NONE',  ( -3.845965311726831093, 0.003040795743203261736, 15.86170212765957288 ) ) ;
#129 = EDGE_CURVE ( 'NONE', #202, #1310, #384, .T. ) ;
#130 = DIRECTION ( 'NONE',  ( 1.672022627447525486E-16, -2.090028284309406858E-17, 1.000000000000000000 ) ) ;
#131 = EDGE_LOOP ( 'NONE', ( #833, #980 ) ) ;
#132 = COLOUR_RGB ( '',0.7921568627450980005, 0.8196078431372548767, 0.9333333333333333481 ) ;
#133 = CARTESIAN_POINT ( 'NONE',  ( -3.845965311726831093, 0.003040795743203261736, 15.86170212765957288 ) ) ;
#134 = VECTOR ( 'NONE', #1292, 1000.000000000000000 ) ;
#135 = DIRECTION ( 'NONE',  ( -0.7071067811865473507, 0.000000000000000000, 0.7071067811865477948 ) ) ;
#136 = COLOUR_RGB ( '',1.000000000000000000, 0.5019607843137254832, 0.5019607843137254832 ) ;
#137 = ORIENTED_EDGE ( 'NONE', *, *, #85, .F. ) ;
#138 = DIRECTION ( 'NONE',  ( -1.000000000000000000, 0.000000000000000000, 0.000000000000000000 ) ) ;
#139 = VERTEX_POINT ( 'NONE', #104 ) ;
#140 = ORIENTED_EDGE ( 'NONE', *, *, #892, .F. ) ;
#141 = DIRECTION ( 'NONE',  ( -1.000000000000000000, -0.000000000000000000, 1.756682000989171981E-16 ) ) ;
#142 = LINE ( 'NONE', #979, #789 ) ;
#143 = EDGE_LOOP ( 'NONE', ( #474, #977 ) ) ;
#144 = EDGE_CURVE ( 'NONE', #110, #902, #1010, .T. ) ;
#145 =( NAMED_UNIT ( * ) SI_UNIT ( $, .STERADIAN. ) SOLID_ANGLE_UNIT ( ) );
#146 = ORIENTED_EDGE ( 'NONE', *, *, #234, .T. ) ;
#147 = FACE_OUTER_BOUND ( 'NONE', #492, .T. ) ;
#148 = CARTESIAN_POINT ( 'NONE',  ( -9.061570170726600537, 14.75000000000001421, 3.911702127659608230 ) ) ;
#149 = ORIENTED_EDGE ( 'NONE', *, *, #925, .T. ) ;
#150 = ADVANCED_FACE ( 'NONE', ( #609 ), #813, .F. ) ;
#151 = CIRCLE ( 'NONE', #278, 1.250000000000001110 ) ;
#152 = VERTEX_POINT ( 'NONE', #641 ) ;
#153 = AXIS2_PLACEMENT_3D ( 'NONE', #1139, #627, #92 ) ;
#154 = VECTOR ( 'NONE', #449, 1000.000000000000000 ) ;
#155 = PLANE ( 'NONE',  #461 ) ;
#156 = EDGE_CURVE ( 'NONE', #997, #973, #983, .T. ) ;
#157 = CARTESIAN_POINT ( 'NONE',  ( -3.845965311726829761, -2.000000000000000000, -24.03829787234042925 ) ) ;
#158 = VERTEX_POINT ( 'NONE', #448 ) ;
#159 = APPLICATION_CONTEXT ( 'automotive_design' ) ;
#160 = VERTEX_POINT ( 'NONE', #1247 ) ;
#161 = EDGE_CURVE ( 'NONE', #970, #1259, #420, .T. ) ;
#162 = DIRECTION ( 'NONE',  ( 0.000000000000000000, 0.000000000000000000, 1.000000000000000000 ) ) ;
#163 = FACE_OUTER_BOUND ( 'NONE', #27, .T. ) ;
#164 = ORIENTED_EDGE ( 'NONE', *, *, #776, .T. ) ;
#165 = EDGE_LOOP ( 'NONE', ( #940, #1271, #872, #1282, #932 ) ) ;
#166 = DIRECTION ( 'NONE',  ( -1.000000000000000000, -0.000000000000000000, 1.756682000989172474E-16 ) ) ;
#167 = DIRECTION ( 'NONE',  ( 1.000000000000000000, 0.000000000000000000, 0.000000000000000000 ) ) ;
#168 = VERTEX_POINT ( 'NONE', #530 ) ;
#169 = ORIENTED_EDGE ( 'NONE', *, *, #669, .F. ) ;
#170 = VECTOR ( 'NONE', #825, 1000.000000000000000 ) ;
#171 = LINE ( 'NONE', #936, #281 ) ;
#172 = VECTOR ( 'NONE', #296, 1000.000000000000000 ) ;
#173 = VECTOR ( 'NONE', #1302, 1000.000000000000000 ) ;
#174 = CARTESIAN_POINT ( 'NONE',  ( -8.061570170726612972, 1.000000000000000000, -21.03829787234043280 ) ) ;
#175 = ORIENTED_EDGE ( 'NONE', *, *, #1328, .F. ) ;
#176 = DIRECTION ( 'NONE',  ( 1.000000000000000000, -0.000000000000000000, -0.000000000000000000 ) ) ;
#177 = CARTESIAN_POINT ( 'NONE',  ( -8.061570170726596984, 2.000000000000000000, 21.86170212765956578 ) ) ;
#178 = CYLINDRICAL_SURFACE ( 'NONE', #839, 2.999999999999999112 ) ;
#179 = EDGE_LOOP ( 'NONE', ( #652, #646, #897, #243 ) ) ;
#180 = PLANE ( 'NONE',  #695 ) ;
#181 = ORIENTED_EDGE ( 'NONE', *, *, #919, .F. ) ;
#182 = CARTESIAN_POINT ( 'NONE',  ( -3.845965311726822211, 11.00304079574318372, 12.11170212765957110 ) ) ;
#183 = EDGE_CURVE ( 'NONE', #378, #1259, #237, .T. ) ;
#184 = LINE ( 'NONE', #924, #593 ) ;
#185 = EDGE_CURVE ( 'NONE', #404, #55, #1001, .T. ) ;
#186 = CARTESIAN_POINT ( 'NONE',  ( -3.845965311726831537, 8.000000000000000000, 20.86170212765956933 ) ) ;
#187 = ORIENTED_EDGE ( 'NONE', *, *, #895, .T. ) ;
#188 = CYLINDRICAL_SURFACE ( 'NONE', #860, 0.9999999999999991118 ) ;
#189 = CARTESIAN_POINT ( 'NONE',  ( -8.061570170726614748, 2.000000000000000444, 17.86170212765956933 ) ) ;
#190 = EDGE_CURVE ( 'NONE', #707, #775, #1313, .T. ) ;
#191 = LINE ( 'NONE', #1012, #613 ) ;
#192 = AXIS2_PLACEMENT_3D ( 'NONE', #755, #336, #1146 ) ;
#193 = DIRECTION ( 'NONE',  ( -1.000000000000000000, 0.000000000000000000, 0.000000000000000000 ) ) ;
#194 = VERTEX_POINT ( 'NONE', #426 ) ;
#195 = AXIS2_PLACEMENT_3D ( 'NONE', #890, #1281, #1285 ) ;
#196 = PLANE ( 'NONE',  #372 ) ;
#197 = VECTOR ( 'NONE', #289, 1000.000000000000000 ) ;
#198 = DIRECTION ( 'NONE',  ( 0.000000000000000000, 0.000000000000000000, 1.000000000000000000 ) ) ;
#199 = CARTESIAN_POINT ( 'NONE',  ( -3.845965311726825764, 1.500000000000000000, -8.638297872340428896 ) ) ;
#200 = EDGE_CURVE ( 'NONE', #1183, #466, #316, .T. ) ;
#201 = CARTESIAN_POINT ( 'NONE',  ( -9.061570170726609419, 19.00000000000001066, -18.28829787234042925 ) ) ;
#202 = VERTEX_POINT ( 'NONE', #734 ) ;
#203 = FACE_BOUND ( 'NONE', #571, .T. ) ;
#204 = VERTEX_POINT ( 'NONE', #1159 ) ;
#205 = DIRECTION ( 'NONE',  ( 0.000000000000000000, 0.000000000000000000, 1.000000000000000000 ) ) ;
#206 = DIRECTION ( 'NONE',  ( 1.000000000000000000, 0.000000000000000000, -1.756682000989171981E-16 ) ) ;
#207 = DIRECTION ( 'NONE',  ( -1.000000000000000000, 0.000000000000000000, 1.756682000989171981E-16 ) ) ;
#208 = ADVANCED_FACE ( 'NONE', ( #443 ), #852, .F. ) ;
#209 = FACE_OUTER_BOUND ( 'NONE', #337, .T. ) ;
#210 = ORIENTED_EDGE ( 'NONE', *, *, #1328, .T. ) ;
#211 = DIRECTION ( 'NONE',  ( 0.000000000000000000, -1.000000000000000000, 0.000000000000000000 ) ) ;
#212 = DIRECTION ( 'NONE',  ( 0.000000000000000000, 0.000000000000000000, -1.000000000000000000 ) ) ;
#213 = FACE_OUTER_BOUND ( 'NONE', #827, .T. ) ;
#214 = VECTOR ( 'NONE', #1222, 1000.000000000000000 ) ;
#215 = VECTOR ( 'NONE', #405, 1000.000000000000000 ) ;
#216 = LINE ( 'NONE', #855, #1211 ) ;
#217 = VECTOR ( 'NONE', #1244, 1000.000000000000000 ) ;
#218 = ORIENTED_EDGE ( 'NONE', *, *, #847, .T. ) ;
#219 = CIRCLE ( 'NONE', #841, 0.9999999999999974465 ) ;
#220 = DIRECTION ( 'NONE',  ( -1.223849885766669635E-16, 1.000000000000000000, 0.000000000000000000 ) ) ;
#221 = DIRECTION ( 'NONE',  ( 1.756682000989171981E-16, -0.000000000000000000, 1.000000000000000000 ) ) ;
#222 = CARTESIAN_POINT ( 'NONE',  ( -3.845965311726829761, 6.250000000000005329, -9.088297872340399763 ) ) ;
#223 = CARTESIAN_POINT ( 'NONE',  ( -8.061570170726596984, 2.000000000000000000, 18.61170212765956578 ) ) ;
#224 = ORIENTED_EDGE ( 'NONE', *, *, #103, .T. ) ;
#225 = CARTESIAN_POINT ( 'NONE',  ( -9.061570170726604090, 1.000000000000000000, -21.03829787234043280 ) ) ;
#226 = ORIENTED_EDGE ( 'NONE', *, *, #892, .T. ) ;
#227 = EDGE_CURVE ( 'NONE', #99, #715, #741, .T. ) ;
#228 = CARTESIAN_POINT ( 'NONE',  ( -3.845965311726828872, 1.000000000000000000, -21.03829787234043280 ) ) ;
#229 = EDGE_CURVE ( 'NONE', #1325, #973, #868, .T. ) ;
#230 = DIRECTION ( 'NONE',  ( 1.000000000000000000, -0.000000000000000000, -0.000000000000000000 ) ) ;
#231 = ORIENTED_EDGE ( 'NONE', *, *, #185, .F. ) ;
#232 = FACE_OUTER_BOUND ( 'NONE', #1293, .T. ) ;
#233 = CARTESIAN_POINT ( 'NONE',  ( -9.061570170726596984, 2.000000000000000000, 19.86170212765956933 ) ) ;
#234 = EDGE_CURVE ( 'NONE', #441, #902, #1043, .T. ) ;
#235 = ORIENTED_EDGE ( 'NONE', *, *, #573, .F. ) ;
#236 = DIRECTION ( 'NONE',  ( 1.000000000000000000, 1.223849885766669635E-16, -0.000000000000000000 ) ) ;
#237 = CIRCLE ( 'NONE', #1253, 2.999999999999995559 ) ;
#238 = CARTESIAN_POINT ( 'NONE',  ( -3.845965311726825764, 1.500000000000000000, -8.638297872340428896 ) ) ;
#239 = ORIENTED_EDGE ( 'NONE', *, *, #478, .F. ) ;
#240 = CONICAL_SURFACE ( 'NONE', #1129, 2.000000000000001776, 0.7853981633974485010 ) ;
#241 = AXIS2_PLACEMENT_3D ( 'NONE', #115, #11, #1272 ) ;
#242 = CIRCLE ( 'NONE', #505, 0.9999999999999974465 ) ;
#243 = ORIENTED_EDGE ( 'NONE', *, *, #227, .F. ) ;
#244 = LINE ( 'NONE', #348, #1298 ) ;
#245 = CARTESIAN_POINT ( 'NONE',  ( -9.061570170726596984, -2.000000000000000000, 23.86170212765956933 ) ) ;
#246 = ORIENTED_EDGE ( 'NONE', *, *, #1075, .T. ) ;
#247 = ADVANCED_FACE ( 'NONE', ( #232 ), #751, .F. ) ;
#248 = ORIENTED_EDGE ( 'NONE', *, *, #543, .F. ) ;
#249 = DIRECTION ( 'NONE',  ( -1.000000000000000000, -0.000000000000000000, 1.756682000989171981E-16 ) ) ;
#250 = CARTESIAN_POINT ( 'NONE',  ( -3.845965311726831537, 6.250000000000005329, 14.61170212765960130 ) ) ;
#251 = ORIENTED_EDGE ( 'NONE', *, *, #338, .F. ) ;
#252 = EDGE_CURVE ( 'NONE', #363, #990, #954, .T. ) ;
#253 = EDGE_LOOP ( 'NONE', ( #831, #260, #239, #513 ) ) ;
#254 = ADVANCED_FACE ( 'NONE', ( #125 ), #1164, .F. ) ;
#255 = CARTESIAN_POINT ( 'NONE',  ( -6.431570170726598867, 0.000000000000000000, 15.86170212765957288 ) ) ;
#256 = FACE_OUTER_BOUND ( 'NONE', #270, .T. ) ;
#257 = ORIENTED_EDGE ( 'NONE', *, *, #826, .F. ) ;
#258 = AXIS2_PLACEMENT_3D ( 'NONE', #929, #1109, #301 ) ;
#259 = VECTOR ( 'NONE', #933, 1000.000000000000000 ) ;
#260 = ORIENTED_EDGE ( 'NONE', *, *, #1018, .T. ) ;
#261 = VECTOR ( 'NONE', #870, 1000.000000000000000 ) ;
#262 = AXIS2_PLACEMENT_3D ( 'NONE', #1322, #279, #90 ) ;
#263 = LINE ( 'NONE', #358, #790 ) ;
#264 = FACE_OUTER_BOUND ( 'NONE', #43, .T. ) ;
#265 = ORIENTED_EDGE ( 'NONE', *, *, #685, .T. ) ;
#266 = EDGE_LOOP ( 'NONE', ( #146, #210, #592, #1120 ) ) ;
#267 = CARTESIAN_POINT ( 'NONE',  ( -8.061570170726604090, 1.000000000000000222, -22.28829787234043636 ) ) ;
#268 = CARTESIAN_POINT ( 'NONE',  ( -9.061570170726604090, 14.75000000000001776, -18.78829787234040083 ) ) ;
#269 = ORIENTED_EDGE ( 'NONE', *, *, #1140, .T. ) ;
#270 = EDGE_LOOP ( 'NONE', ( #69, #1309, #1266, #596 ) ) ;
#271 = DIRECTION ( 'NONE',  ( -1.000000000000000000, 0.000000000000000000, 1.756682000989171981E-16 ) ) ;
#272 = UNCERTAINTY_MEASURE_WITH_UNIT (LENGTH_MEASURE( 1.000000000000000082E-05 ), #645, 'distance_accuracy_value', 'NONE');
#273 = LINE ( 'NONE', #911, #1005 ) ;
#274 = PLANE ( 'NONE',  #1172 ) ;
#275 = ORIENTED_EDGE ( 'NONE', *, *, #784, .F. ) ;
#276 = ORIENTED_EDGE ( 'NONE', *, *, #36, .T. ) ;
#277 = DIRECTION ( 'NONE',  ( -1.000000000000000000, -0.000000000000000000, 1.756682000989171981E-16 ) ) ;
#278 = AXIS2_PLACEMENT_3D ( 'NONE', #519, #1342, #424 ) ;
#279 = DIRECTION ( 'NONE',  ( -1.000000000000000000, 0.000000000000000000, 1.756682000989171981E-16 ) ) ;
#280 = AXIS2_PLACEMENT_3D ( 'NONE', #457, #167, #580 ) ;
#281 = VECTOR ( 'NONE', #1102, 1000.000000000000000 ) ;
#282 = DIRECTION ( 'NONE',  ( 0.000000000000000000, 0.000000000000000000, 1.000000000000000000 ) ) ;
#283 = VERTEX_POINT ( 'NONE', #757 ) ;
#284 = CYLINDRICAL_SURFACE ( 'NONE', #658, 1.000000000000003553 ) ;
#285 = EDGE_CURVE ( 'NONE', #194, #374, #721, .T. ) ;
#286 = EDGE_CURVE ( 'NONE', #204, #918, #64, .T. ) ;
#287 = DIRECTION ( 'NONE',  ( -0.7071067811865454633, 0.000000000000000000, 0.7071067811865496822 ) ) ;
#288 = UNCERTAINTY_MEASURE_WITH_UNIT (LENGTH_MEASURE( 1.000000000000000082E-05 ), #333, 'distance_accuracy_value', 'NONE');
#289 = DIRECTION ( 'NONE',  ( 0.000000000000000000, 1.000000000000000000, 0.000000000000000000 ) ) ;
#290 = LINE ( 'NONE', #386, #172 ) ;
#291 = ORIENTED_EDGE ( 'NONE', *, *, #161, .F. ) ;
#292 = DIRECTION ( 'NONE',  ( 0.000000000000000000, 0.000000000000000000, -1.000000000000000000 ) ) ;
#293 = EDGE_CURVE ( 'NONE', #707, #555, #1023, .T. ) ;
#294 = CARTESIAN_POINT ( 'NONE',  ( -9.061570170726611195, 6.250000000000005329, -11.08829787234040154 ) ) ;
#295 = DIRECTION ( 'NONE',  ( -1.000000000000000000, 0.000000000000000000, 1.756682000989171981E-16 ) ) ;
#296 = DIRECTION ( 'NONE',  ( -1.000000000000000000, -0.000000000000000000, 1.756682000989171981E-16 ) ) ;
#297 = VERTEX_POINT ( 'NONE', #1040 ) ;
#298 = FACE_OUTER_BOUND ( 'NONE', #83, .T. ) ;
#299 = VERTEX_POINT ( 'NONE', #508 ) ;
#300 = PRODUCT_RELATED_PRODUCT_CATEGORY ( 'part', '', ( #1195 ) ) ;
#301 = DIRECTION ( 'NONE',  ( -1.000000000000000000, 0.000000000000000000, -0.000000000000000000 ) ) ;
#302 = LINE ( 'NONE', #70, #1027 ) ;
#303 = VECTOR ( 'NONE', #271, 1000.000000000000000 ) ;
#304 = AXIS2_PLACEMENT_3D ( 'NONE', #857, #399, #832 ) ;
#305 = CARTESIAN_POINT ( 'NONE',  ( 7.815938477963767284, 11.00000000000000000, 20.86170212765956933 ) ) ;
#306 = ORIENTED_EDGE ( 'NONE', *, *, #422, .F. ) ;
#307 = CIRCLE ( 'NONE', #861, 1.250000000000001110 ) ;
#308 = CARTESIAN_POINT ( 'NONE',  ( -3.845965311726829761, 14.75000000000001776, -20.78829787234039372 ) ) ;
#309 = STYLED_ITEM ( 'NONE', ( #664 ), #598 ) ;
#310 = ORIENTED_EDGE ( 'NONE', *, *, #103, .F. ) ;
#311 = CARTESIAN_POINT ( 'NONE',  ( -3.845965311726829761, 0.000000000000000000, 15.86170212765957288 ) ) ;
#312 = PLANE ( 'NONE',  #375 ) ;
#313 = FACE_BOUND ( 'NONE', #131, .T. ) ;
#314 = DIRECTION ( 'NONE',  ( 1.000000000000000000, 0.000000000000000000, -1.756682000989171981E-16 ) ) ;
#315 = ORIENTED_EDGE ( 'NONE', *, *, #129, .F. ) ;
#316 = LINE ( 'NONE', #331, #1171 ) ;
#317 = DIRECTION ( 'NONE',  ( 3.469446951953611231E-16, 0.000000000000000000, 1.000000000000000000 ) ) ;
#318 = PLANE ( 'NONE',  #44 ) ;
#319 = ADVANCED_FACE ( 'NONE', ( #732 ), #726, .T. ) ;
#320 = CARTESIAN_POINT ( 'NONE',  ( -9.061570170726598761, 19.00000000000001776, 17.86170212765956933 ) ) ;
#321 = EDGE_LOOP ( 'NONE', ( #310, #181, #665, #770 ) ) ;
#322 = DIRECTION ( 'NONE',  ( 0.000000000000000000, 0.000000000000000000, -1.000000000000000000 ) ) ;
#323 = CARTESIAN_POINT ( 'NONE',  ( -9.061570170726596984, 5.000000000000000000, 23.86170212765956933 ) ) ;
#324 = FACE_OUTER_BOUND ( 'NONE', #1163, .T. ) ;
#325 = VECTOR ( 'NONE', #510, 1000.000000000000000 ) ;
#326 = AXIS2_PLACEMENT_3D ( 'NONE', #133, #220, #647 ) ;
#327 = DIRECTION ( 'NONE',  ( 1.000000000000000000, -0.000000000000000000, -1.756682000989171981E-16 ) ) ;
#328 = VECTOR ( 'NONE', #883, 1000.000000000000000 ) ;
#329 = ORIENTED_EDGE ( 'NONE', *, *, #826, .T. ) ;
#330 = EDGE_CURVE ( 'NONE', #1325, #629, #151, .T. ) ;
#331 = CARTESIAN_POINT ( 'NONE',  ( -3.845965311726822211, 1.499999999999999556, 12.11170212765957110 ) ) ;
#332 = EDGE_CURVE ( 'NONE', #283, #1134, #94, .T. ) ;
#333 =( LENGTH_UNIT ( ) NAMED_UNIT ( * ) SI_UNIT ( .MILLI., .METRE. ) );
#334 = ORIENTED_EDGE ( 'NONE', *, *, #359, .F. ) ;
#335 = LINE ( 'NONE', #128, #261 ) ;
#336 = DIRECTION ( 'NONE',  ( -1.000000000000000000, 0.000000000000000000, 0.000000000000000000 ) ) ;
#337 = EDGE_LOOP ( 'NONE', ( #398, #269 ) ) ;
#338 = EDGE_CURVE ( 'NONE', #127, #1187, #499, .T. ) ;
#339 = DIRECTION ( 'NONE',  ( -1.000000000000000000, 0.000000000000000000, 0.000000000000000000 ) ) ;
#340 = LINE ( 'NONE', #1248, #1154 ) ;
#341 = ORIENTED_EDGE ( 'NONE', *, *, #873, .T. ) ;
#342 = LINE ( 'NONE', #1168, #1025 ) ;
#343 = LINE ( 'NONE', #1262, #107 ) ;
#344 = ORIENTED_EDGE ( 'NONE', *, *, #18, .F. ) ;
#345 = EDGE_CURVE ( 'NONE', #583, #299, #101, .T. ) ;
#346 = DIRECTION ( 'NONE',  ( 0.000000000000000000, 0.000000000000000000, 1.000000000000000000 ) ) ;
#347 = ORIENTED_EDGE ( 'NONE', *, *, #345, .F. ) ;
#348 = CARTESIAN_POINT ( 'NONE',  ( -3.845965311726823987, 11.00304079574318372, 2.411702127659602457 ) ) ;
#349 = ADVANCED_FACE ( 'NONE', ( #608 ), #284, .F. ) ;
#350 = AXIS2_PLACEMENT_3D ( 'NONE', #914, #176, #205 ) ;
#351 = CARTESIAN_POINT ( 'NONE',  ( -3.845965311726829761, 6.250000000000005329, -10.08829787234040154 ) ) ;
#352 = EDGE_LOOP ( 'NONE', ( #725, #546, #1305, #88 ) ) ;
#353 = AXIS2_PLACEMENT_3D ( 'NONE', #1141, #86, #843 ) ;
#354 = AXIS2_PLACEMENT_3D ( 'NONE', #754, #138, #445 ) ;
#355 = CIRCLE ( 'NONE', #792, 2.999999999999995559 ) ;
#356 = CARTESIAN_POINT ( 'NONE',  ( 0.000000000000000000, 0.000000000000000000, 0.000000000000000000 ) ) ;
#357 = ORIENTED_EDGE ( 'NONE', *, *, #539, .T. ) ;
#358 = CARTESIAN_POINT ( 'NONE',  ( -3.811570170726604978, 0.000000000000000000, 15.86170212765957288 ) ) ;
#359 = EDGE_CURVE ( 'NONE', #775, #204, #514, .T. ) ;
#360 = DIRECTION ( 'NONE',  ( 0.000000000000000000, 0.000000000000000000, 1.000000000000000000 ) ) ;
#361 = ORIENTED_EDGE ( 'NONE', *, *, #925, .F. ) ;
#362 = PRODUCT_CONTEXT ( 'NONE', #159, 'mechanical' ) ;
#363 = VERTEX_POINT ( 'NONE', #708 ) ;
#364 = PRODUCT_DEFINITION_CONTEXT ( 'detailed design', #735, 'design' ) ;
#365 = CARTESIAN_POINT ( 'NONE',  ( -3.845965311726822211, 11.00304079574318372, 12.11170212765957110 ) ) ;
#366 = CARTESIAN_POINT ( 'NONE',  ( -3.845965311726831093, 14.75000000000001421, 3.911702127659607342 ) ) ;
#367 = ORIENTED_EDGE ( 'NONE', *, *, #494, .T. ) ;
#368 = ORIENTED_EDGE ( 'NONE', *, *, #1080, .F. ) ;
#369 = LINE ( 'NONE', #1000, #637 ) ;
#370 = CARTESIAN_POINT ( 'NONE',  ( -9.061570170726598761, 19.00000000000001776, 15.86170212765957288 ) ) ;
#371 = ORIENTED_EDGE ( 'NONE', *, *, #190, .T. ) ;
#372 = AXIS2_PLACEMENT_3D ( 'NONE', #617, #849, #12 ) ;
#373 = ADVANCED_FACE ( 'NONE', ( #1334 ), #188, .F. ) ;
#374 = VERTEX_POINT ( 'NONE', #77 ) ;
#375 = AXIS2_PLACEMENT_3D ( 'NONE', #545, #853, #25 ) ;
#376 = CYLINDRICAL_SURFACE ( 'NONE', #769, 0.9999999999999974465 ) ;
#377 = DIRECTION ( 'NONE',  ( 3.304235192336772554E-16, -0.000000000000000000, 1.000000000000000000 ) ) ;
#378 = VERTEX_POINT ( 'NONE', #1233 ) ;
#379 = EDGE_CURVE ( 'NONE', #583, #202, #745, .T. ) ;
#380 = ORIENTED_EDGE ( 'NONE', *, *, #1205, .T. ) ;
#381 = CARTESIAN_POINT ( 'NONE',  ( -9.061570170726600537, 5.000000000000000000, 20.86170212765956933 ) ) ;
#382 = LINE ( 'NONE', #1008, #610 ) ;
#383 = VERTEX_POINT ( 'NONE', #308 ) ;
#384 = LINE ( 'NONE', #1337, #810 ) ;
#385 = CARTESIAN_POINT ( 'NONE',  ( -3.845965311726823987, 19.00000000000001776, 2.411702127659602457 ) ) ;
#386 = CARTESIAN_POINT ( 'NONE',  ( -3.845965311726825764, 10.00000000000000888, -8.638297872340428896 ) ) ;
#387 = EDGE_CURVE ( 'NONE', #453, #99, #928, .T. ) ;
#388 = EDGE_LOOP ( 'NONE', ( #1035, #750, #1167, #367 ) ) ;
#389 = ORIENTED_EDGE ( 'NONE', *, *, #1097, .T. ) ;
#390 = AXIS2_PLACEMENT_3D ( 'NONE', #1202, #982, #906 ) ;
#391 = DIRECTION ( 'NONE',  ( 0.000000000000000000, 0.000000000000000000, 1.000000000000000000 ) ) ;
#392 = MECHANICAL_DESIGN_GEOMETRIC_PRESENTATION_REPRESENTATION (  '', ( #548 ), #1254 ) ;
#393 = DIRECTION ( 'NONE',  ( 0.000000000000000000, 0.000000000000000000, -1.000000000000000000 ) ) ;
#394 = AXIS2_PLACEMENT_3D ( 'NONE', #951, #1261, #17 ) ;
#395 = VECTOR ( 'NONE', #554, 1000.000000000000000 ) ;
#396 = ADVANCED_FACE ( 'NONE', ( #6, #603, #702, #1226, #203, #298 ), #180, .F. ) ;
#397 = CARTESIAN_POINT ( 'NONE',  ( -3.845965311726829761, 19.00000000000001776, 17.86170212765956933 ) ) ;
#398 = ORIENTED_EDGE ( 'NONE', *, *, #4, .T. ) ;
#399 = DIRECTION ( 'NONE',  ( -1.000000000000000000, 0.000000000000000000, 1.756682000989171981E-16 ) ) ;
#400 = ADVANCED_FACE ( 'NONE', ( #209, #947 ), #196, .T. ) ;
#401 = CYLINDRICAL_SURFACE ( 'NONE', #656, 1.000000000000003553 ) ;
#402 = CARTESIAN_POINT ( 'NONE',  ( 0.9384298292734026825, 2.000000000000000000, 19.86170212765956578 ) ) ;
#403 = CARTESIAN_POINT ( 'NONE',  ( 0.000000000000000000, -2.000000000000000000, 0.000000000000000000 ) ) ;
#404 = VERTEX_POINT ( 'NONE', #541 ) ;
#405 = DIRECTION ( 'NONE',  ( -0.000000000000000000, -0.000000000000000000, -1.000000000000000000 ) ) ;
#406 = EDGE_LOOP ( 'NONE', ( #1030, #507 ) ) ;
#407 = FACE_OUTER_BOUND ( 'NONE', #1283, .T. ) ;
#408 = DIRECTION ( 'NONE',  ( 0.000000000000000000, 1.000000000000000000, 0.000000000000000000 ) ) ;
#409 = LINE ( 'NONE', #512, #460 ) ;
#410 = VERTEX_POINT ( 'NONE', #39 ) ;
#411 = DIRECTION ( 'NONE',  ( 1.000000000000000000, -0.000000000000000000, -0.000000000000000000 ) ) ;
#412 = EDGE_LOOP ( 'NONE', ( #559, #1071, #1197, #1316 ) ) ;
#413 = CARTESIAN_POINT ( 'NONE',  ( -3.845965311726825764, 1.500000000000000000, -8.638297872340428896 ) ) ;
#414 = AXIS2_PLACEMENT_3D ( 'NONE', #31, #339, #8 ) ;
#415 = CARTESIAN_POINT ( 'NONE',  ( -9.061570170726604090, 1.000000000000000000, -18.03829787234043636 ) ) ;
#416 = DIRECTION ( 'NONE',  ( -1.000000000000000000, -0.000000000000000000, 1.756682000989171981E-16 ) ) ;
#417 = VECTOR ( 'NONE', #408, 1000.000000000000000 ) ;
#418 = DIRECTION ( 'NONE',  ( 1.000000000000000000, 0.000000000000000000, -1.756682000989171981E-16 ) ) ;
#419 = ORIENTED_EDGE ( 'NONE', *, *, #345, .T. ) ;
#420 = LINE ( 'NONE', #971, #500 ) ;
#421 = LINE ( 'NONE', #114, #395 ) ;
#422 = EDGE_CURVE ( 'NONE', #453, #918, #430, .T. ) ;
#423 = DIRECTION ( 'NONE',  ( -1.000000000000000000, -0.000000000000000000, 1.756682000989172474E-16 ) ) ;
#424 = DIRECTION ( 'NONE',  ( 3.469446951953611231E-16, 0.000000000000000000, 1.000000000000000000 ) ) ;
#425 = VERTEX_POINT ( 'NONE', #223 ) ;
#426 = CARTESIAN_POINT ( 'NONE',  ( -8.061570170726604090, 1.000000000000000444, -23.03829787234043636 ) ) ;
#427 = CYLINDRICAL_SURFACE ( 'NONE', #570, 1.250000000000001110 ) ;
#428 = DIRECTION ( 'NONE',  ( 0.000000000000000000, 0.000000000000000000, 1.000000000000000000 ) ) ;
#429 = ADVANCED_FACE ( 'NONE', ( #958 ), #969, .F. ) ;
#430 = LINE ( 'NONE', #320, #480 ) ;
#431 = EDGE_LOOP ( 'NONE', ( #759, #518, #51, #772 ) ) ;
#432 = EDGE_CURVE ( 'NONE', #374, #194, #1127, .T. ) ;
#433 = DIRECTION ( 'NONE',  ( 1.797640907747986603E-16, 0.000000000000000000, 1.000000000000000000 ) ) ;
#434 = DIRECTION ( 'NONE',  ( 1.000000000000000000, 0.000000000000000000, -1.756682000989171981E-16 ) ) ;
#435 = ORIENTED_EDGE ( 'NONE', *, *, #10, .T. ) ;
#436 = DIRECTION ( 'NONE',  ( -1.788374717501868710E-16, -0.000000000000000000, -1.000000000000000000 ) ) ;
#437 = EDGE_CURVE ( 'NONE', #715, #703, #216, .T. ) ;
#438 = VECTOR ( 'NONE', #433, 1000.000000000000000 ) ;
#439 = DIRECTION ( 'NONE',  ( 1.756682000989171981E-16, 0.000000000000000000, 1.000000000000000000 ) ) ;
#440 = VECTOR ( 'NONE', #795, 1000.000000000000000 ) ;
#441 = VERTEX_POINT ( 'NONE', #123 ) ;
#442 = AXIS2_PLACEMENT_3D ( 'NONE', #1144, #434, #212 ) ;
#443 = FACE_OUTER_BOUND ( 'NONE', #412, .T. ) ;
#444 = ORIENTED_EDGE ( 'NONE', *, *, #917, .T. ) ;
#445 = DIRECTION ( 'NONE',  ( 0.000000000000000000, 0.000000000000000000, 1.000000000000000000 ) ) ;
#446 = DIRECTION ( 'NONE',  ( 0.000000000000000000, -1.000000000000000000, 0.000000000000000000 ) ) ;
#447 = ORIENTED_EDGE ( 'NONE', *, *, #867, .F. ) ;
#448 = CARTESIAN_POINT ( 'NONE',  ( -8.061570170726596984, 2.000000000000000000, 21.11170212765956578 ) ) ;
#449 = DIRECTION ( 'NONE',  ( 0.000000000000000000, 1.000000000000000000, 0.000000000000000000 ) ) ;
#450 = EDGE_LOOP ( 'NONE', ( #1070, #701, #763, #347 ) ) ;
#451 = DIRECTION ( 'NONE',  ( -1.000000000000000000, -0.000000000000000000, 1.756682000989171981E-16 ) ) ;
#452 = DIRECTION ( 'NONE',  ( 1.000000000000000000, -0.000000000000000000, -0.000000000000000000 ) ) ;
#453 = VERTEX_POINT ( 'NONE', #1251 ) ;
#454 = EDGE_CURVE ( 'NONE', #160, #363, #343, .T. ) ;
#455 = EDGE_LOOP ( 'NONE', ( #1100, #1252, #231, #1076 ) ) ;
#456 = LINE ( 'NONE', #879, #526 ) ;
#457 = CARTESIAN_POINT ( 'NONE',  ( -9.061570170726611195, 6.250000000000005329, 13.61170212765960130 ) ) ;
#458 = ORIENTED_EDGE ( 'NONE', *, *, #454, .T. ) ;
#459 = AXIS2_PLACEMENT_3D ( 'NONE', #1031, #818, #1119 ) ;
#460 = VECTOR ( 'NONE', #830, 1000.000000000000000 ) ;
#461 = AXIS2_PLACEMENT_3D ( 'NONE', #485, #1096, #1291 ) ;
#462 = ORIENTED_EDGE ( 'NONE', *, *, #1245, .F. ) ;
#463 = EDGE_CURVE ( 'NONE', #563, #797, #921, .T. ) ;
#464 = DIRECTION ( 'NONE',  ( 0.000000000000000000, 0.000000000000000000, -1.000000000000000000 ) ) ;
#465 = CYLINDRICAL_SURFACE ( 'NONE', #195, 0.9999999999999974465 ) ;
#466 = VERTEX_POINT ( 'NONE', #29 ) ;
#467 = SURFACE_SIDE_STYLE ('',( #1276 ) ) ;
#468 = VERTEX_POINT ( 'NONE', #1162 ) ;
#469 = LINE ( 'NONE', #46, #440 ) ;
#470 = CARTESIAN_POINT ( 'NONE',  ( -3.845965311726831093, 14.75000000000001421, 4.911702127659610895 ) ) ;
#471 = ORIENTED_EDGE ( 'NONE', *, *, #472, .F. ) ;
#472 = EDGE_CURVE ( 'NONE', #887, #1320, #549, .T. ) ;
#473 = EDGE_CURVE ( 'NONE', #1118, #1183, #876, .T. ) ;
#474 = ORIENTED_EDGE ( 'NONE', *, *, #185, .T. ) ;
#475 = DIRECTION ( 'NONE',  ( 1.000000000000000000, -0.000000000000000000, -0.000000000000000000 ) ) ;
#476 = DIRECTION ( 'NONE',  ( -1.756682000989171981E-16, 0.000000000000000000, -1.000000000000000000 ) ) ;
#477 = ORIENTED_EDGE ( 'NONE', *, *, #229, .F. ) ;
#478 = EDGE_CURVE ( 'NONE', #158, #425, #880, .T. ) ;
#479 = VECTOR ( 'NONE', #1032, 1000.000000000000000 ) ;
#480 = VECTOR ( 'NONE', #446, 1000.000000000000000 ) ;
#481 = ORIENTED_EDGE ( 'NONE', *, *, #881, .F. ) ;
#482 = VECTOR ( 'NONE', #1224, 1000.000000000000000 ) ;
#483 = MANIFOLD_SOLID_BREP ( 'Cut-Extrude8', #1062 ) ;
#484 = CIRCLE ( 'NONE', #1046, 0.9999999999999991118 ) ;
#485 = CARTESIAN_POINT ( 'NONE',  ( -3.845965311726827096, 10.00000000000000888, -18.28829787234042925 ) ) ;
#486 = LINE ( 'NONE', #992, #524 ) ;
#487 = ORIENTED_EDGE ( 'NONE', *, *, #1158, .T. ) ;
#488 = ORIENTED_EDGE ( 'NONE', *, *, #987, .T. ) ;
#489 = EDGE_CURVE ( 'NONE', #874, #1179, #1103, .T. ) ;
#490 = CARTESIAN_POINT ( 'NONE',  ( -6.431570170726598867, 0.003040795743202945583, 15.86170212765957288 ) ) ;
#491 = CARTESIAN_POINT ( 'NONE',  ( -6.431570170726598867, 0.000000000000000000, 11.61170212765957110 ) ) ;
#492 = EDGE_LOOP ( 'NONE', ( #169, #1189, #380, #187 ) ) ;
#493 = PLANE ( 'NONE',  #1340 ) ;
#494 = EDGE_CURVE ( 'NONE', #1179, #874, #676, .T. ) ;
#495 = CYLINDRICAL_SURFACE ( 'NONE', #26, 0.9999999999999991118 ) ;
#496 = DIRECTION ( 'NONE',  ( -1.000000000000000000, 0.000000000000000000, 0.000000000000000000 ) ) ;
#497 = ORIENTED_EDGE ( 'NONE', *, *, #36, .F. ) ;
#498 = EDGE_CURVE ( 'NONE', #893, #797, #142, .T. ) ;
#499 = LINE ( 'NONE', #1240, #523 ) ;
#500 = VECTOR ( 'NONE', #1143, 1000.000000000000000 ) ;
#501 = CARTESIAN_POINT ( 'NONE',  ( -6.431570170726598867, 0.003040795743202942547, 11.61170212765957110 ) ) ;
#502 = CIRCLE ( 'NONE', #1314, 1.250000000000001110 ) ;
#503 = CYLINDRICAL_SURFACE ( 'NONE', #1216, 1.250000000000001110 ) ;
#504 = AXIS2_PLACEMENT_3D ( 'NONE', #1161, #105, #428 ) ;
#505 = AXIS2_PLACEMENT_3D ( 'NONE', #806, #295, #829 ) ;
#506 = DIRECTION ( 'NONE',  ( 0.000000000000000000, 0.000000000000000000, 1.000000000000000000 ) ) ;
#507 = ORIENTED_EDGE ( 'NONE', *, *, #1075, .F. ) ;
#508 = CARTESIAN_POINT ( 'NONE',  ( -9.061570170726600537, 14.75000000000001421, 4.911702127659611783 ) ) ;
#509 = ORIENTED_EDGE ( 'NONE', *, *, #1329, .T. ) ;
#510 = DIRECTION ( 'NONE',  ( -0.000000000000000000, -0.000000000000000000, -1.000000000000000000 ) ) ;
#511 = DIRECTION ( 'NONE',  ( 1.000000000000000000, 0.000000000000000000, -1.756682000989171981E-16 ) ) ;
#512 = CARTESIAN_POINT ( 'NONE',  ( -3.845965311726829761, -2.000000000000000000, 17.86170212765956933 ) ) ;
#513 = ORIENTED_EDGE ( 'NONE', *, *, #1092, .F. ) ;
#514 = LINE ( 'NONE', #1036, #170 ) ;
#515 = LINE ( 'NONE', #1311, #1232 ) ;
#516 = DIRECTION ( 'NONE',  ( 1.000000000000000000, 0.000000000000000000, 0.000000000000000000 ) ) ;
#517 = DIRECTION ( 'NONE',  ( -1.000000000000000000, 0.000000000000000000, 0.000000000000000000 ) ) ;
#518 = ORIENTED_EDGE ( 'NONE', *, *, #454, .F. ) ;
#519 = CARTESIAN_POINT ( 'NONE',  ( -3.845965311726828872, 1.000000000000000000, -21.03829787234043280 ) ) ;
#520 = ORIENTED_EDGE ( 'NONE', *, *, #1057, .F. ) ;
#521 = DIRECTION ( 'NONE',  ( -3.671515068604614194E-33, -1.000000000000000000, -2.090028284309406550E-17 ) ) ;
#522 = CARTESIAN_POINT ( 'NONE',  ( -8.061570170726612972, 1.000000000000000000, -19.03829787234043280 ) ) ;
#523 = VECTOR ( 'NONE', #1318, 1000.000000000000000 ) ;
#524 = VECTOR ( 'NONE', #54, 1000.000000000000000 ) ;
#525 = FACE_BOUND ( 'NONE', #909, .T. ) ;
#526 = VECTOR ( 'NONE', #930, 1000.000000000000000 ) ;
#527 = DIRECTION ( 'NONE',  ( 0.000000000000000000, 1.000000000000000000, 0.000000000000000000 ) ) ;
#528 =( GEOMETRIC_REPRESENTATION_CONTEXT ( 3 ) GLOBAL_UNCERTAINTY_ASSIGNED_CONTEXT ( ( #801 ) ) GLOBAL_UNIT_ASSIGNED_CONTEXT ( ( #61, #1270, #898 ) ) REPRESENTATION_CONTEXT ( 'NONE', 'WORKASPACE' ) );
#529 = VERTEX_POINT ( 'NONE', #674 ) ;
#530 = CARTESIAN_POINT ( 'NONE',  ( -3.845965311726829761, 14.75000000000001776, -18.78829787234040083 ) ) ;
#531 = FACE_OUTER_BOUND ( 'NONE', #934, .T. ) ;
#532 = EDGE_CURVE ( 'NONE', #194, #1259, #1093, .T. ) ;
#533 = LINE ( 'NONE', #946, #1317 ) ;
#534 = ADVANCED_FACE ( 'NONE', ( #163 ), #274, .F. ) ;
#535 = DIRECTION ( 'NONE',  ( 1.000000000000000000, -0.000000000000000000, -0.000000000000000000 ) ) ;
#536 = ORIENTED_EDGE ( 'NONE', *, *, #895, .F. ) ;
#537 = CARTESIAN_POINT ( 'NONE',  ( -9.061570170726600537, 2.000000000000000000, 2.411702127659603345 ) ) ;
#538 = FACE_OUTER_BOUND ( 'NONE', #321, .T. ) ;
#539 = EDGE_CURVE ( 'NONE', #797, #563, #1084, .T. ) ;
#540 = CARTESIAN_POINT ( 'NONE',  ( -9.061570170726611195, 6.250000000000005329, 12.61170212765960308 ) ) ;
#541 = CARTESIAN_POINT ( 'NONE',  ( -9.061570170726596984, 2.000000000000000000, 22.86170212765955512 ) ) ;
#542 = VERTEX_POINT ( 'NONE', #803 ) ;
#543 = EDGE_CURVE ( 'NONE', #1310, #299, #568, .T. ) ;
#544 = CARTESIAN_POINT ( 'NONE',  ( -6.431570170726598867, 0.000000000000000000, 15.86170212765957288 ) ) ;
#545 = CARTESIAN_POINT ( 'NONE',  ( -3.845965311726822211, 11.00304079574318372, 12.11170212765957110 ) ) ;
#546 = ORIENTED_EDGE ( 'NONE', *, *, #4, .F. ) ;
#547 = FACE_BOUND ( 'NONE', #406, .T. ) ;
#548 = STYLED_ITEM ( 'NONE', ( #952 ), #483 ) ;
#549 = LINE ( 'NONE', #245, #634 ) ;
#550 = CIRCLE ( 'NONE', #746, 1.000000000000003553 ) ;
#551 = EDGE_LOOP ( 'NONE', ( #334, #866, #788, #1220 ) ) ;
#552 = CIRCLE ( 'NONE', #442, 2.999999999999995559 ) ;
#553 = CARTESIAN_POINT ( 'NONE',  ( -3.845965311726827096, 10.00000000000000888, -18.28829787234042925 ) ) ;
#554 = DIRECTION ( 'NONE',  ( -0.000000000000000000, -1.000000000000000000, -0.000000000000000000 ) ) ;
#555 = VERTEX_POINT ( 'NONE', #896 ) ;
#556 = LINE ( 'NONE', #854, #882 ) ;
#557 = ORIENTED_EDGE ( 'NONE', *, *, #840, .T. ) ;
#558 = SURFACE_STYLE_USAGE ( .BOTH. , #467 ) ;
#559 = ORIENTED_EDGE ( 'NONE', *, *, #957, .F. ) ;
#560 = CARTESIAN_POINT ( 'NONE',  ( -3.845965311726829761, 14.75000000000001776, -19.78829787234039728 ) ) ;
#561 = FILL_AREA_STYLE_COLOUR ( '', #132 ) ;
#562 = EDGE_LOOP ( 'NONE', ( #62, #30, #1206, #1089 ) ) ;
#563 = VERTEX_POINT ( 'NONE', #250 ) ;
#564 = DIRECTION ( 'NONE',  ( -0.000000000000000000, 1.000000000000000000, -0.000000000000000000 ) ) ;
#565 = AXIS2_PLACEMENT_3D ( 'NONE', #845, #23, #322 ) ;
#566 = DIRECTION ( 'NONE',  ( 1.000000000000000000, -0.000000000000000000, -1.756682000989171981E-16 ) ) ;
#567 = EDGE_LOOP ( 'NONE', ( #481, #1333, #224, #1079 ) ) ;
#568 = CIRCLE ( 'NONE', #1024, 1.000000000000003553 ) ;
#569 = CIRCLE ( 'NONE', #394, 0.9999999999999974465 ) ;
#570 = AXIS2_PLACEMENT_3D ( 'NONE', #858, #729, #317 ) ;
#571 = EDGE_LOOP ( 'NONE', ( #1295, #1009 ) ) ;
#572 = DIRECTION ( 'NONE',  ( 1.000000000000000000, 0.000000000000000000, -1.756682000989171981E-16 ) ) ;
#573 = EDGE_CURVE ( 'NONE', #973, #997, #502, .T. ) ;
#574 = ADVANCED_FACE ( 'NONE', ( #1104 ), #240, .F. ) ;
#575 = LINE ( 'NONE', #996, #134 ) ;
#576 = ORIENTED_EDGE ( 'NONE', *, *, #690, .F. ) ;
#577 = ORIENTED_EDGE ( 'NONE', *, *, #1114, .F. ) ;
#578 = CARTESIAN_POINT ( 'NONE',  ( -3.811570170726598761, 14.75000000000001776, -19.78829787234039728 ) ) ;
#579 = EDGE_CURVE ( 'NONE', #794, #753, #382, .T. ) ;
#580 = DIRECTION ( 'NONE',  ( 0.000000000000000000, 0.000000000000000000, -1.000000000000000000 ) ) ;
#581 = ORIENTED_EDGE ( 'NONE', *, *, #227, .T. ) ;
#582 = APPLICATION_PROTOCOL_DEFINITION ( 'draft international standard', 'automotive_design', 1998, #735 ) ;
#583 = VERTEX_POINT ( 'NONE', #470 ) ;
#584 = LINE ( 'NONE', #907, #173 ) ;
#585 = EDGE_CURVE ( 'NONE', #40, #893, #635, .T. ) ;
#586 = DIRECTION ( 'NONE',  ( -1.000000000000000000, 0.000000000000000000, 1.756682000989171981E-16 ) ) ;
#587 = ORIENTED_EDGE ( 'NONE', *, *, #463, .T. ) ;
#588 = AXIS2_PLACEMENT_3D ( 'NONE', #1078, #693, #1299 ) ;
#589 = ORIENTED_EDGE ( 'NONE', *, *, #472, .T. ) ;
#590 = EDGE_CURVE ( 'NONE', #624, #970, #901, .T. ) ;
#591 = AXIS2_PLACEMENT_3D ( 'NONE', #1219, #71, #700 ) ;
#592 = ORIENTED_EDGE ( 'NONE', *, *, #917, .F. ) ;
#593 = VECTOR ( 'NONE', #1007, 1000.000000000000000 ) ;
#594 = DIRECTION ( 'NONE',  ( -0.000000000000000000, -0.000000000000000000, -1.000000000000000000 ) ) ;
#595 = DIRECTION ( 'NONE',  ( 0.000000000000000000, 0.000000000000000000, 1.000000000000000000 ) ) ;
#596 = ORIENTED_EDGE ( 'NONE', *, *, #1294, .F. ) ;
#597 = EDGE_CURVE ( 'NONE', #629, #1325, #307, .T. ) ;
#598 = ADVANCED_BREP_SHAPE_REPRESENTATION ( 'Fixture 6 - mirror', ( #483, #905 ), #723 ) ;
#599 = LINE ( 'NONE', #189, #106 ) ;
#600 = CARTESIAN_POINT ( 'NONE',  ( -9.061570170726611195, 6.250000000000005329, 13.61170212765960130 ) ) ;
#601 = DIRECTION ( 'NONE',  ( -0.000000000000000000, -0.000000000000000000, -1.000000000000000000 ) ) ;
#602 = ORIENTED_EDGE ( 'NONE', *, *, #91, .T. ) ;
#603 = FACE_BOUND ( 'NONE', #95, .T. ) ;
#604 = DIRECTION ( 'NONE',  ( 1.000000000000000000, -0.000000000000000000, -0.000000000000000000 ) ) ;
#605 = DIRECTION ( 'NONE',  ( 0.000000000000000000, 0.000000000000000000, -1.000000000000000000 ) ) ;
#606 = DIRECTION ( 'NONE',  ( 0.000000000000000000, 0.000000000000000000, 1.000000000000000000 ) ) ;
#607 = ORIENTED_EDGE ( 'NONE', *, *, #1149, .F. ) ;
#608 = FACE_OUTER_BOUND ( 'NONE', #450, .T. ) ;
#609 = FACE_OUTER_BOUND ( 'NONE', #1003, .T. ) ;
#610 = VECTOR ( 'NONE', #377, 1000.000000000000000 ) ;
#611 = CARTESIAN_POINT ( 'NONE',  ( -3.845965311726831537, 5.000000000000000000, 23.86170212765956933 ) ) ;
#612 = CIRCLE ( 'NONE', #1106, 1.250000000000001110 ) ;
#613 = VECTOR ( 'NONE', #705, 1000.000000000000000 ) ;
#614 = DIRECTION ( 'NONE',  ( -1.000000000000000000, 0.000000000000000000, 1.756682000989171981E-16 ) ) ;
#615 = ADVANCED_FACE ( 'NONE', ( #256 ), #465, .F. ) ;
#616 = ORIENTED_EDGE ( 'NONE', *, *, #1092, .T. ) ;
#617 = CARTESIAN_POINT ( 'NONE',  ( -8.061570170726596984, 2.000000000000000000, 19.86170212765956933 ) ) ;
#618 = DIRECTION ( 'NONE',  ( -1.000000000000000000, 0.000000000000000000, 0.000000000000000000 ) ) ;
#619 = DIRECTION ( 'NONE',  ( 0.000000000000000000, -1.000000000000000000, 0.000000000000000000 ) ) ;
#620 = EDGE_CURVE ( 'NONE', #202, #583, #550, .T. ) ;
#621 = CARTESIAN_POINT ( 'NONE',  ( -3.845965311726831537, 6.250000000000005329, 12.61170212765960308 ) ) ;
#622 = ORIENTED_EDGE ( 'NONE', *, *, #630, .T. ) ;
#623 = DIRECTION ( 'NONE',  ( -1.000000000000000000, -0.000000000000000000, 1.756682000989171981E-16 ) ) ;
#624 = VERTEX_POINT ( 'NONE', #157 ) ;
#625 = DIRECTION ( 'NONE',  ( 0.000000000000000000, 1.000000000000000000, 0.000000000000000000 ) ) ;
#626 = DIRECTION ( 'NONE',  ( -0.000000000000000000, 1.000000000000000000, 0.000000000000000000 ) ) ;
#627 = DIRECTION ( 'NONE',  ( -1.000000000000000000, 0.000000000000000000, 1.756682000989171981E-16 ) ) ;
#628 = CARTESIAN_POINT ( 'NONE',  ( -3.845965311726829761, 19.00000000000001776, 17.86170212765956933 ) ) ;
#629 = VERTEX_POINT ( 'NONE', #796 ) ;
#630 = EDGE_CURVE ( 'NONE', #363, #824, #575, .T. ) ;
#631 = DIRECTION ( 'NONE',  ( 0.000000000000000000, -0.000000000000000000, -1.000000000000000000 ) ) ;
#632 = CIRCLE ( 'NONE', #390, 1.999999999999998224 ) ;
#633 = PLANE ( 'NONE',  #1131 ) ;
#634 = VECTOR ( 'NONE', #651, 1000.000000000000000 ) ;
#635 = CIRCLE ( 'NONE', #280, 0.9999999999999991118 ) ;
#636 = LINE ( 'NONE', #28, #1085 ) ;
#637 = VECTOR ( 'NONE', #779, 1000.000000000000000 ) ;
#638 = FILL_AREA_STYLE ('',( #561 ) ) ;
#639 = EDGE_LOOP ( 'NONE', ( #357, #587 ) ) ;
#640 = EDGE_CURVE ( 'NONE', #1134, #99, #486, .T. ) ;
#641 = CARTESIAN_POINT ( 'NONE',  ( -3.845965311726829761, 19.00000000000001776, -24.03829787234042925 ) ) ;
#642 = CARTESIAN_POINT ( 'NONE',  ( -3.845965311726828428, 1.000000000000000000, -19.78829787234043280 ) ) ;
#643 = CARTESIAN_POINT ( 'NONE',  ( -9.061570170726596984, -2.000000000000000000, 23.86170212765956933 ) ) ;
#644 = ADVANCED_FACE ( 'NONE', ( #264 ), #682, .F. ) ;
#645 =( LENGTH_UNIT ( ) NAMED_UNIT ( * ) SI_UNIT ( .MILLI., .METRE. ) );
#646 = ORIENTED_EDGE ( 'NONE', *, *, #332, .F. ) ;
#647 = DIRECTION ( 'NONE',  ( -1.000000000000000000, -1.223849885766669635E-16, 0.000000000000000000 ) ) ;
#648 = CARTESIAN_POINT ( 'NONE',  ( 7.815938477963767284, -2.000000000000000000, 23.86170212765956578 ) ) ;
#649 = EDGE_LOOP ( 'NONE', ( #137, #812, #809, #488, #487 ) ) ;
#650 = DIRECTION ( 'NONE',  ( 0.000000000000000000, -1.000000000000000000, 0.000000000000000000 ) ) ;
#651 = DIRECTION ( 'NONE',  ( 0.000000000000000000, 1.000000000000000000, 0.000000000000000000 ) ) ;
#652 = ORIENTED_EDGE ( 'NONE', *, *, #640, .F. ) ;
#653 = CARTESIAN_POINT ( 'NONE',  ( -3.845965311726828428, 1.000000000000000000, -19.78829787234043280 ) ) ;
#654 = LINE ( 'NONE', #522, #1177 ) ;
#655 = ORIENTED_EDGE ( 'NONE', *, *, #738, .F. ) ;
#656 = AXIS2_PLACEMENT_3D ( 'NONE', #935, #277, #391 ) ;
#657 = CARTESIAN_POINT ( 'NONE',  ( -9.061570170726598761, 11.00000000000000000, 17.86170212765956933 ) ) ;
#658 = AXIS2_PLACEMENT_3D ( 'NONE', #920, #623, #1221 ) ;
#659 = CIRCLE ( 'NONE', #591, 1.000000000000000888 ) ;
#660 = ORIENTED_EDGE ( 'NONE', *, *, #18, .T. ) ;
#661 = VERTEX_POINT ( 'NONE', #268 ) ;
#662 = DIRECTION ( 'NONE',  ( 1.000000000000000000, 0.000000000000000000, 0.000000000000000000 ) ) ;
#663 = ORIENTED_EDGE ( 'NONE', *, *, #85, .T. ) ;
#664 = PRESENTATION_STYLE_ASSIGNMENT (( #558 ) ) ;
#665 = ORIENTED_EDGE ( 'NONE', *, *, #200, .T. ) ;
#666 = CARTESIAN_POINT ( 'NONE',  ( 0.000000000000000000, 0.000000000000000000, 15.86170212765957288 ) ) ;
#667 = DIRECTION ( 'NONE',  ( 0.000000000000000000, 0.000000000000000000, 1.000000000000000000 ) ) ;
#668 = ORIENTED_EDGE ( 'NONE', *, *, #840, .F. ) ;
#669 = EDGE_CURVE ( 'NONE', #110, #542, #1002, .T. ) ;
#670 = FILL_AREA_STYLE_COLOUR ( '', #136 ) ;
#671 = ORIENTED_EDGE ( 'NONE', *, *, #1294, .T. ) ;
#672 = EDGE_CURVE ( 'NONE', #72, #975, #109, .T. ) ;
#673 = DIRECTION ( 'NONE',  ( 0.000000000000000000, 0.000000000000000000, -1.000000000000000000 ) ) ;
#674 = CARTESIAN_POINT ( 'NONE',  ( -9.061570170726604090, 10.00000000000000888, -8.638297872340427119 ) ) ;
#675 = EDGE_LOOP ( 'NONE', ( #576, #218, #1263, #607 ) ) ;
#676 = CIRCLE ( 'NONE', #766, 1.000000000000000888 ) ;
#677 = CONICAL_SURFACE ( 'NONE', #354, 2.000000000000001776, 0.7853981633974485010 ) ;
#678 = CIRCLE ( 'NONE', #748, 2.999999999999988898 ) ;
#679 = EDGE_CURVE ( 'NONE', #555, #453, #926, .T. ) ;
#680 = ORIENTED_EDGE ( 'NONE', *, *, #919, .T. ) ;
#681 = CARTESIAN_POINT ( 'NONE',  ( -3.845965311726825764, 10.00000000000000888, -8.638297872340428896 ) ) ;
#682 = PLANE ( 'NONE',  #697 ) ;
#683 = EDGE_LOOP ( 'NONE', ( #368, #149, #471, #856 ) ) ;
#684 = EDGE_LOOP ( 'NONE', ( #727, #1105 ) ) ;
#685 = EDGE_CURVE ( 'NONE', #441, #127, #816, .T. ) ;
#686 = CARTESIAN_POINT ( 'NONE',  ( -3.845965311726829761, 19.00000000000001776, 15.86170212765957288 ) ) ;
#687 = CARTESIAN_POINT ( 'NONE',  ( -8.061570170726604090, 1.000000000000000000, -21.03829787234043280 ) ) ;
#688 = ORIENTED_EDGE ( 'NONE', *, *, #998, .T. ) ;
#689 = ORIENTED_EDGE ( 'NONE', *, *, #711, .T. ) ;
#690 = EDGE_CURVE ( 'NONE', #410, #50, #659, .T. ) ;
#691 = LINE ( 'NONE', #1121, #718 ) ;
#692 = DIRECTION ( 'NONE',  ( 0.000000000000000000, 0.000000000000000000, -1.000000000000000000 ) ) ;
#693 = DIRECTION ( 'NONE',  ( -1.000000000000000000, 0.000000000000000000, 0.000000000000000000 ) ) ;
#694 = ORIENTED_EDGE ( 'NONE', *, *, #498, .T. ) ;
#695 = AXIS2_PLACEMENT_3D ( 'NONE', #716, #314, #1135 ) ;
#696 = ORIENTED_EDGE ( 'NONE', *, *, #1228, .T. ) ;
#697 = AXIS2_PLACEMENT_3D ( 'NONE', #58, #476, #1199 ) ;
#698 = PLANE ( 'NONE',  #258 ) ;
#699 = DIRECTION ( 'NONE',  ( 1.000000000000000000, -0.000000000000000000, -0.000000000000000000 ) ) ;
#700 = DIRECTION ( 'NONE',  ( 0.000000000000000000, 0.000000000000000000, -1.000000000000000000 ) ) ;
#701 = ORIENTED_EDGE ( 'NONE', *, *, #129, .T. ) ;
#702 = FACE_BOUND ( 'NONE', #1200, .T. ) ;
#703 = VERTEX_POINT ( 'NONE', #98 ) ;
#704 = LINE ( 'NONE', #728, #21 ) ;
#705 = DIRECTION ( 'NONE',  ( -1.000000000000000000, -0.000000000000000000, 1.756682000989171735E-16 ) ) ;
#706 = PLANE ( 'NONE',  #153 ) ;
#707 = VERTEX_POINT ( 'NONE', #842 ) ;
#708 = CARTESIAN_POINT ( 'NONE',  ( -3.845965311726827096, 10.00000000000000888, -18.28829787234042925 ) ) ;
#709 = EDGE_LOOP ( 'NONE', ( #37, #1142, #520, #361 ) ) ;
#710 = DIRECTION ( 'NONE',  ( 0.000000000000000000, 1.000000000000000000, 0.000000000000000000 ) ) ;
#711 = EDGE_CURVE ( 'NONE', #990, #529, #290, .T. ) ;
#712 = FACE_OUTER_BOUND ( 'NONE', #1290, .T. ) ;
#713 = ADVANCED_FACE ( 'NONE', ( #1111, #313 ), #706, .T. ) ;
#714 = CYLINDRICAL_SURFACE ( 'NONE', #943, 2.999999999999999112 ) ;
#715 = VERTEX_POINT ( 'NONE', #823 ) ;
#716 = CARTESIAN_POINT ( 'NONE',  ( -9.061570170726602313, 2.000000000000000000, -8.138297872340427119 ) ) ;
#717 = ORIENTED_EDGE ( 'NONE', *, *, #1053, .F. ) ;
#718 = VECTOR ( 'NONE', #1330, 1000.000000000000000 ) ;
#719 = CARTESIAN_POINT ( 'NONE',  ( -9.061570170726596984, 2.000000000000000444, 16.86170212765957999 ) ) ;
#720 = EDGE_CURVE ( 'NONE', #160, #753, #1239, .T. ) ;
#721 = CIRCLE ( 'NONE', #304, 2.000000000000001776 ) ;
#722 = CARTESIAN_POINT ( 'NONE',  ( -9.061570170726611195, 6.250000000000005329, 13.61170212765960130 ) ) ;
#723 =( GEOMETRIC_REPRESENTATION_CONTEXT ( 3 ) GLOBAL_UNCERTAINTY_ASSIGNED_CONTEXT ( ( #288 ) ) GLOBAL_UNIT_ASSIGNED_CONTEXT ( ( #333, #126, #145 ) ) REPRESENTATION_CONTEXT ( 'NONE', 'WORKASPACE' ) );
#724 = FACE_BOUND ( 'NONE', #910, .T. ) ;
#725 = ORIENTED_EDGE ( 'NONE', *, *, #112, .F. ) ;
#726 = PLANE ( 'NONE',  #459 ) ;
#727 = ORIENTED_EDGE ( 'NONE', *, *, #976, .T. ) ;
#728 = CARTESIAN_POINT ( 'NONE',  ( -9.061570170726604090, 2.000000000000000000, -18.28829787234042570 ) ) ;
#729 = DIRECTION ( 'NONE',  ( -1.000000000000000000, -0.000000000000000000, 1.756682000989172474E-16 ) ) ;
#730 = CARTESIAN_POINT ( 'NONE',  ( -9.061570170726598761, -2.000000000000000000, -22.03829787234042570 ) ) ;
#731 = ADVANCED_FACE ( 'NONE', ( #1117 ), #1044, .F. ) ;
#732 = FACE_OUTER_BOUND ( 'NONE', #649, .T. ) ;
#733 = ORIENTED_EDGE ( 'NONE', *, *, #743, .F. ) ;
#734 = CARTESIAN_POINT ( 'NONE',  ( -3.845965311726831093, 14.75000000000001421, 2.911702127659603789 ) ) ;
#735 = APPLICATION_CONTEXT ( 'automotive_design' ) ;
#736 = DIRECTION ( 'NONE',  ( 0.000000000000000000, 0.000000000000000000, -1.000000000000000000 ) ) ;
#737 = DIRECTION ( 'NONE',  ( 1.000000000000000000, -0.000000000000000000, -0.000000000000000000 ) ) ;
#738 = EDGE_CURVE ( 'NONE', #378, #970, #937, .T. ) ;
#739 = DIRECTION ( 'NONE',  ( 0.000000000000000000, 0.000000000000000000, 1.000000000000000000 ) ) ;
#740 = ORIENTED_EDGE ( 'NONE', *, *, #1158, .F. ) ;
#741 = LINE ( 'NONE', #537, #835 ) ;
#742 = AXIS2_PLACEMENT_3D ( 'NONE', #119, #211, #631 ) ;
#743 = EDGE_CURVE ( 'NONE', #299, #1310, #767, .T. ) ;
#744 = DIRECTION ( 'NONE',  ( 1.734723475976805615E-16, 0.000000000000000000, 1.000000000000000000 ) ) ;
#745 = CIRCLE ( 'NONE', #353, 1.000000000000003553 ) ;
#746 = AXIS2_PLACEMENT_3D ( 'NONE', #366, #1186, #1193 ) ;
#747 = DIRECTION ( 'NONE',  ( 0.000000000000000000, -0.000000000000000000, -1.000000000000000000 ) ) ;
#748 = AXIS2_PLACEMENT_3D ( 'NONE', #233, #1063, #736 ) ;
#749 = SURFACE_SIDE_STYLE ('',( #1268 ) ) ;
#750 = ORIENTED_EDGE ( 'NONE', *, *, #976, .F. ) ;
#751 = PLANE ( 'NONE',  #326 ) ;
#752 = DIRECTION ( 'NONE',  ( 1.000000000000000000, -0.000000000000000000, -0.000000000000000000 ) ) ;
#753 = VERTEX_POINT ( 'NONE', #201 ) ;
#754 = CARTESIAN_POINT ( 'NONE',  ( -8.061570170726612972, 1.000000000000000000, -21.03829787234043280 ) ) ;
#755 = CARTESIAN_POINT ( 'NONE',  ( -3.845965311726831537, 6.250000000000005329, 13.61170212765960130 ) ) ;
#756 = ORIENTED_EDGE ( 'NONE', *, *, #387, .F. ) ;
#757 = CARTESIAN_POINT ( 'NONE',  ( -3.845965311726823987, 11.00304079574318372, 2.411702127659602457 ) ) ;
#758 = PLANE ( 'NONE',  #1319 ) ;
#759 = ORIENTED_EDGE ( 'NONE', *, *, #630, .F. ) ;
#760 = ADVANCED_FACE ( 'NONE', ( #1324 ), #714, .F. ) ;
#761 = FACE_BOUND ( 'NONE', #1095, .T. ) ;
#762 = DIRECTION ( 'NONE',  ( 0.000000000000000000, 0.000000000000000000, 1.000000000000000000 ) ) ;
#763 = ORIENTED_EDGE ( 'NONE', *, *, #543, .T. ) ;
#764 = ORIENTED_EDGE ( 'NONE', *, *, #252, .F. ) ;
#765 = LINE ( 'NONE', #1052, #84 ) ;
#766 = AXIS2_PLACEMENT_3D ( 'NONE', #351, #535, #768 ) ;
#767 = CIRCLE ( 'NONE', #65, 1.000000000000003553 ) ;
#768 = DIRECTION ( 'NONE',  ( 0.000000000000000000, 0.000000000000000000, 1.000000000000000000 ) ) ;
#769 = AXIS2_PLACEMENT_3D ( 'NONE', #578, #249, #1191 ) ;
#770 = ORIENTED_EDGE ( 'NONE', *, *, #820, .F. ) ;
#771 = DIRECTION ( 'NONE',  ( 1.000000000000000000, 0.000000000000000000, 0.000000000000000000 ) ) ;
#772 = ORIENTED_EDGE ( 'NONE', *, *, #82, .F. ) ;
#773 = CARTESIAN_POINT ( 'NONE',  ( -9.061570170726611195, 6.250000000000005329, -10.08829787234040154 ) ) ;
#774 = CARTESIAN_POINT ( 'NONE',  ( -8.061570170726612972, 1.000000000000000222, -23.03829787234043636 ) ) ;
#775 = VERTEX_POINT ( 'NONE', #186 ) ;
#776 = EDGE_CURVE ( 'NONE', #975, #72, #612, .T. ) ;
#777 = ADVANCED_FACE ( 'NONE', ( #1020 ), #178, .T. ) ;
#778 = ORIENTED_EDGE ( 'NONE', *, *, #987, .F. ) ;
#779 = DIRECTION ( 'NONE',  ( -0.000000000000000000, 1.000000000000000000, -0.000000000000000000 ) ) ;
#780 = DIRECTION ( 'NONE',  ( 1.000000000000000000, -0.000000000000000000, -0.000000000000000000 ) ) ;
#781 = ORIENTED_EDGE ( 'NONE', *, *, #1053, .T. ) ;
#782 = ADVANCED_FACE ( 'NONE', ( #75 ), #916, .T. ) ;
#783 = ORIENTED_EDGE ( 'NONE', *, *, #183, .T. ) ;
#784 = EDGE_CURVE ( 'NONE', #297, #624, #409, .T. ) ;
#785 = DIRECTION ( 'NONE',  ( -1.000000000000000000, -0.000000000000000000, 1.756682000989171735E-16 ) ) ;
#786 = VECTOR ( 'NONE', #625, 1000.000000000000000 ) ;
#787 = CARTESIAN_POINT ( 'NONE',  ( -3.811570170726604978, -2.000000000000000000, -24.03829787234042925 ) ) ;
#788 = ORIENTED_EDGE ( 'NONE', *, *, #116, .F. ) ;
#789 = VECTOR ( 'NONE', #780, 1000.000000000000000 ) ;
#790 = VECTOR ( 'NONE', #1181, 1000.000000000000000 ) ;
#791 = PRODUCT_DEFINITION ( 'General', '', #865, #364 ) ;
#792 = AXIS2_PLACEMENT_3D ( 'NONE', #97, #511, #80 ) ;
#793 = SHAPE_DEFINITION_REPRESENTATION ( #1260, #598 ) ;
#794 = VERTEX_POINT ( 'NONE', #1230 ) ;
#795 = DIRECTION ( 'NONE',  ( -1.000000000000000000, 0.000000000000000000, 1.756682000989171981E-16 ) ) ;
#796 = CARTESIAN_POINT ( 'NONE',  ( -3.845965311726829317, 1.000000000000000222, -22.28829787234043636 ) ) ;
#797 = VERTEX_POINT ( 'NONE', #621 ) ;
#798 = ADVANCED_FACE ( 'NONE', ( #724, #1034, #324, #1176, #956, #525, #761, #547 ), #1047, .F. ) ;
#799 = ORIENTED_EDGE ( 'NONE', *, *, #679, .F. ) ;
#800 = ORIENTED_EDGE ( 'NONE', *, *, #338, .T. ) ;
#801 = UNCERTAINTY_MEASURE_WITH_UNIT (LENGTH_MEASURE( 1.000000000000000082E-05 ), #61, 'distance_accuracy_value', 'NONE');
#802 = DIRECTION ( 'NONE',  ( 0.000000000000000000, 0.000000000000000000, -1.000000000000000000 ) ) ;
#803 = CARTESIAN_POINT ( 'NONE',  ( -3.845965311726831093, 0.003040795743203261736, 15.86170212765957288 ) ) ;
#804 = ORIENTED_EDGE ( 'NONE', *, *, #252, .T. ) ;
#805 = CARTESIAN_POINT ( 'NONE',  ( -9.061570170726598761, 19.00000000000001776, 2.411702127659603345 ) ) ;
#806 = CARTESIAN_POINT ( 'NONE',  ( -9.061570170726604090, 14.75000000000001776, -19.78829787234039728 ) ) ;
#807 = ADVANCED_FACE ( 'NONE', ( #1249 ), #5, .F. ) ;
#808 = DIRECTION ( 'NONE',  ( 0.000000000000000000, 0.000000000000000000, 1.000000000000000000 ) ) ;
#809 = ORIENTED_EDGE ( 'NONE', *, *, #161, .T. ) ;
#810 = VECTOR ( 'NONE', #1038, 1000.000000000000000 ) ;
#811 = AXIS2_PLACEMENT_3D ( 'NONE', #544, #1150, #961 ) ;
#812 = ORIENTED_EDGE ( 'NONE', *, *, #590, .T. ) ;
#813 = PLANE ( 'NONE',  #834 ) ;
#814 = VECTOR ( 'NONE', #785, 1000.000000000000000 ) ;
#815 = LINE ( 'NONE', #1218, #197 ) ;
#816 = LINE ( 'NONE', #491, #965 ) ;
#817 = EDGE_LOOP ( 'NONE', ( #33, #1241, #696, #964 ) ) ;
#818 = DIRECTION ( 'NONE',  ( -0.000000000000000000, 0.000000000000000000, -1.000000000000000000 ) ) ;
#819 = ADVANCED_FACE ( 'NONE', ( #213 ), #318, .F. ) ;
#820 = EDGE_CURVE ( 'NONE', #703, #466, #848, .T. ) ;
#821 = CARTESIAN_POINT ( 'NONE',  ( -3.845965311726829761, -0.000000000000000000, 0.000000000000000000 ) ) ;
#822 = CARTESIAN_POINT ( 'NONE',  ( -3.845965311726829761, 6.250000000000005329, -11.08829787234040154 ) ) ;
#823 = CARTESIAN_POINT ( 'NONE',  ( -9.061570170726600537, 11.00304079574318372, 2.411702127659603345 ) ) ;
#824 = VERTEX_POINT ( 'NONE', #974 ) ;
#825 = DIRECTION ( 'NONE',  ( -1.000000000000000000, 0.000000000000000000, 0.000000000000000000 ) ) ;
#826 = EDGE_CURVE ( 'NONE', #425, #158, #986, .T. ) ;
#827 = EDGE_LOOP ( 'NONE', ( #885, #764, #622, #447 ) ) ;
#828 = CARTESIAN_POINT ( 'NONE',  ( -8.061570170726614748, 2.000000000000000000, 21.86170212765956578 ) ) ;
#829 = DIRECTION ( 'NONE',  ( 0.000000000000000000, 0.000000000000000000, 1.000000000000000000 ) ) ;
#830 = DIRECTION ( 'NONE',  ( -0.000000000000000000, -0.000000000000000000, -1.000000000000000000 ) ) ;
#831 = ORIENTED_EDGE ( 'NONE', *, *, #776, .F. ) ;
#832 = DIRECTION ( 'NONE',  ( 0.000000000000000000, 0.000000000000000000, 1.000000000000000000 ) ) ;
#833 = ORIENTED_EDGE ( 'NONE', *, *, #573, .T. ) ;
#834 = AXIS2_PLACEMENT_3D ( 'NONE', #413, #521, #1026 ) ;
#835 = VECTOR ( 'NONE', #1, 1000.000000000000000 ) ;
#836 = DIRECTION ( 'NONE',  ( -0.000000000000000000, 0.000000000000000000, -1.000000000000000000 ) ) ;
#837 = AXIS2_PLACEMENT_3D ( 'NONE', #108, #418, #292 ) ;
#838 = FACE_OUTER_BOUND ( 'NONE', #253, .T. ) ;
#839 = AXIS2_PLACEMENT_3D ( 'NONE', #1013, #614, #1339 ) ;
#840 = EDGE_CURVE ( 'NONE', #661, #1094, #569, .T. ) ;
#841 = AXIS2_PLACEMENT_3D ( 'NONE', #995, #475, #162 ) ;
#842 = CARTESIAN_POINT ( 'NONE',  ( -3.845965311726829761, 11.00000000000000000, 17.86170212765956933 ) ) ;
#843 = DIRECTION ( 'NONE',  ( 0.000000000000000000, 0.000000000000000000, 1.000000000000000000 ) ) ;
#844 = ORIENTED_EDGE ( 'NONE', *, *, #1201, .F. ) ;
#845 = CARTESIAN_POINT ( 'NONE',  ( -9.061570170726596984, 2.000000000000000000, 19.86170212765956933 ) ) ;
#846 = PLANE ( 'NONE',  #904 ) ;
#847 = EDGE_CURVE ( 'NONE', #410, #874, #556, .T. ) ;
#848 = LINE ( 'NONE', #1059, #217 ) ;
#849 = DIRECTION ( 'NONE',  ( -1.000000000000000000, 0.000000000000000000, 1.756682000989171981E-16 ) ) ;
#850 = ORIENTED_EDGE ( 'NONE', *, *, #330, .F. ) ;
#851 = EDGE_CURVE ( 'NONE', #994, #441, #34, .T. ) ;
#852 = PLANE ( 'NONE',  #742 ) ;
#853 = DIRECTION ( 'NONE',  ( 1.756682000989171981E-16, 0.000000000000000000, 1.000000000000000000 ) ) ;
#854 = CARTESIAN_POINT ( 'NONE',  ( -9.061570170726611195, 6.250000000000005329, -9.088297872340399763 ) ) ;
#855 = CARTESIAN_POINT ( 'NONE',  ( -9.061570170726602313, 11.00304079574318372, -8.138297872340427119 ) ) ;
#856 = ORIENTED_EDGE ( 'NONE', *, *, #10, .F. ) ;
#857 = CARTESIAN_POINT ( 'NONE',  ( -8.061570170726604090, 1.000000000000000000, -21.03829787234043280 ) ) ;
#858 = CARTESIAN_POINT ( 'NONE',  ( -3.845965311726828872, 1.000000000000000000, -21.03829787234043280 ) ) ;
#859 = EDGE_LOOP ( 'NONE', ( #1274, #1147, #616, #257 ) ) ;
#860 = AXIS2_PLACEMENT_3D ( 'NONE', #1126, #411, #939 ) ;
#861 = AXIS2_PLACEMENT_3D ( 'NONE', #988, #586, #49 ) ;
#862 = CARTESIAN_POINT ( 'NONE',  ( -3.845965311726827096, 10.00000000000000888, -18.28829787234042925 ) ) ;
#863 = AXIS2_PLACEMENT_3D ( 'NONE', #666, #888, #1284 ) ;
#864 = CARTESIAN_POINT ( 'NONE',  ( -8.061570170726604090, 1.000000000000000000, -21.03829787234043280 ) ) ;
#865 = PRODUCT_DEFINITION_FORMATION_WITH_SPECIFIED_SOURCE ( 'Symmetric', '', #1195, .NOT_KNOWN. ) ;
#866 = ORIENTED_EDGE ( 'NONE', *, *, #190, .F. ) ;
#867 = EDGE_CURVE ( 'NONE', #529, #824, #636, .T. ) ;
#868 = LINE ( 'NONE', #653, #1275 ) ;
#869 = ORIENTED_EDGE ( 'NONE', *, *, #579, .T. ) ;
#870 = DIRECTION ( 'NONE',  ( 1.000000000000000000, 1.223849885766669635E-16, -0.000000000000000000 ) ) ;
#871 = CARTESIAN_POINT ( 'NONE',  ( -8.061570170726596984, 2.000000000000000000, 19.86170212765956578 ) ) ;
#872 = ORIENTED_EDGE ( 'NONE', *, *, #183, .F. ) ;
#873 = EDGE_CURVE ( 'NONE', #468, #283, #244, .T. ) ;
#874 = VERTEX_POINT ( 'NONE', #222 ) ;
#875 = FACE_OUTER_BOUND ( 'NONE', #817, .T. ) ;
#876 = LINE ( 'NONE', #238, #941 ) ;
#877 = ORIENTED_EDGE ( 'NONE', *, *, #738, .T. ) ;
#878 = EDGE_LOOP ( 'NONE', ( #1014, #20 ) ) ;
#879 = CARTESIAN_POINT ( 'NONE',  ( -3.845965311726831537, -2.000000000000000000, 23.86170212765956933 ) ) ;
#880 = CIRCLE ( 'NONE', #41, 1.250000000000001110 ) ;
#881 = EDGE_CURVE ( 'NONE', #283, #715, #533, .T. ) ;
#882 = VECTOR ( 'NONE', #737, 1000.000000000000000 ) ;
#883 = DIRECTION ( 'NONE',  ( -1.000000000000000000, 0.000000000000000000, 0.000000000000000000 ) ) ;
#884 = VECTOR ( 'NONE', #673, 1000.000000000000000 ) ;
#885 = ORIENTED_EDGE ( 'NONE', *, *, #711, .F. ) ;
#886 = MECHANICAL_DESIGN_GEOMETRIC_PRESENTATION_REPRESENTATION (  '', ( #309 ), #528 ) ;
#887 = VERTEX_POINT ( 'NONE', #643 ) ;
#888 = DIRECTION ( 'NONE',  ( -0.000000000000000000, 0.000000000000000000, -1.000000000000000000 ) ) ;
#889 = ADVANCED_FACE ( 'NONE', ( #875 ), #677, .F. ) ;
#890 = CARTESIAN_POINT ( 'NONE',  ( -3.811570170726598761, 14.75000000000001776, -19.78829787234039728 ) ) ;
#891 = ORIENTED_EDGE ( 'NONE', *, *, #669, .T. ) ;
#892 = EDGE_CURVE ( 'NONE', #466, #1136, #765, .T. ) ;
#893 = VERTEX_POINT ( 'NONE', #540 ) ;
#894 = CARTESIAN_POINT ( 'NONE',  ( -9.061570170726602313, 2.000000000000000000, -8.138297872340427119 ) ) ;
#895 = EDGE_CURVE ( 'NONE', #1187, #542, #335, .T. ) ;
#896 = CARTESIAN_POINT ( 'NONE',  ( -3.845965311726829761, 19.00000000000001776, 17.86170212765956933 ) ) ;
#897 = ORIENTED_EDGE ( 'NONE', *, *, #881, .T. ) ;
#898 =( NAMED_UNIT ( * ) SI_UNIT ( $, .STERADIAN. ) SOLID_ANGLE_UNIT ( ) );
#899 = ORIENTED_EDGE ( 'NONE', *, *, #144, .F. ) ;
#900 = CARTESIAN_POINT ( 'NONE',  ( -3.845965311726829317, 1.000000000000000222, -22.28829787234043636 ) ) ;
#901 = LINE ( 'NONE', #787, #328 ) ;
#902 = VERTEX_POINT ( 'NONE', #1267 ) ;
#903 = VECTOR ( 'NONE', #113, 1000.000000000000000 ) ;
#904 = AXIS2_PLACEMENT_3D ( 'NONE', #648, #1243, #206 ) ;
#905 = AXIS2_PLACEMENT_3D ( 'NONE', #356, #346, #771 ) ;
#906 = DIRECTION ( 'NONE',  ( 0.000000000000000000, 0.000000000000000000, 1.000000000000000000 ) ) ;
#907 = CARTESIAN_POINT ( 'NONE',  ( -3.845965311726829761, 19.00000000000001776, 17.86170212765956933 ) ) ;
#908 = DIRECTION ( 'NONE',  ( -0.000000000000000000, 1.000000000000000000, -0.000000000000000000 ) ) ;
#909 = EDGE_LOOP ( 'NONE', ( #993, #175, #899, #891 ) ) ;
#910 = EDGE_LOOP ( 'NONE', ( #1128, #164 ) ) ;
#911 = CARTESIAN_POINT ( 'NONE',  ( -3.845965311726831093, 0.003040795743203261736, 15.86170212765957288 ) ) ;
#912 = CARTESIAN_POINT ( 'NONE',  ( -3.845965311726827096, 19.00000000000001066, -18.28829787234042925 ) ) ;
#913 = ORIENTED_EDGE ( 'NONE', *, *, #867, .T. ) ;
#914 = CARTESIAN_POINT ( 'NONE',  ( -3.845965311726831537, 5.000000000000000000, 20.86170212765956933 ) ) ;
#915 = PLANE ( 'NONE',  #1258 ) ;
#916 = PLANE ( 'NONE',  #1214 ) ;
#917 = EDGE_CURVE ( 'NONE', #127, #927, #342, .T. ) ;
#918 = VERTEX_POINT ( 'NONE', #657 ) ;
#919 = EDGE_CURVE ( 'NONE', #1183, #468, #1067, .T. ) ;
#920 = CARTESIAN_POINT ( 'NONE',  ( -3.811570170726595208, 14.75000000000001421, 3.911702127659607342 ) ) ;
#921 = CIRCLE ( 'NONE', #192, 0.9999999999999991118 ) ;
#922 = VECTOR ( 'NONE', #601, 1000.000000000000000 ) ;
#923 = LINE ( 'NONE', #182, #479 ) ;
#924 = CARTESIAN_POINT ( 'NONE',  ( -9.061570170726611195, 6.250000000000005329, -11.08829787234040154 ) ) ;
#925 = EDGE_CURVE ( 'NONE', #1124, #1320, #469, .T. ) ;
#926 = LINE ( 'NONE', #397, #482 ) ;
#927 = VERTEX_POINT ( 'NONE', #1198 ) ;
#928 = LINE ( 'NONE', #1326, #215 ) ;
#929 = CARTESIAN_POINT ( 'NONE',  ( -3.811570170726599205, 2.000000000000000000, 11.61170212765957110 ) ) ;
#930 = DIRECTION ( 'NONE',  ( 0.000000000000000000, -1.000000000000000000, 0.000000000000000000 ) ) ;
#931 = DIRECTION ( 'NONE',  ( 0.000000000000000000, -0.000000000000000000, -1.000000000000000000 ) ) ;
#932 = ORIENTED_EDGE ( 'NONE', *, *, #1228, .F. ) ;
#933 = DIRECTION ( 'NONE',  ( -0.000000000000000000, 1.000000000000000000, -0.000000000000000000 ) ) ;
#934 = EDGE_LOOP ( 'NONE', ( #1173, #78, #235, #477 ) ) ;
#935 = CARTESIAN_POINT ( 'NONE',  ( -3.811570170726595208, 14.75000000000001421, 3.911702127659607342 ) ) ;
#936 = CARTESIAN_POINT ( 'NONE',  ( -9.061570170726611195, 6.250000000000005329, 14.61170212765960130 ) ) ;
#937 = LINE ( 'NONE', #730, #922 ) ;
#938 = ORIENTED_EDGE ( 'NONE', *, *, #1245, .T. ) ;
#939 = DIRECTION ( 'NONE',  ( 0.000000000000000000, 0.000000000000000000, -1.000000000000000000 ) ) ;
#940 = ORIENTED_EDGE ( 'NONE', *, *, #285, .F. ) ;
#941 = VECTOR ( 'NONE', #130, 1000.000000000000000 ) ;
#942 = CARTESIAN_POINT ( 'NONE',  ( -9.061570170726611195, 6.250000000000005329, 14.61170212765960130 ) ) ;
#943 = AXIS2_PLACEMENT_3D ( 'NONE', #305, #1212, #282 ) ;
#944 = DIRECTION ( 'NONE',  ( 1.000000000000000000, 0.000000000000000000, -1.756682000989171981E-16 ) ) ;
#945 = AXIS2_PLACEMENT_3D ( 'NONE', #402, #1028, #1229 ) ;
#946 = CARTESIAN_POINT ( 'NONE',  ( -3.845965311726823987, 11.00304079574318372, 2.411702127659602457 ) ) ;
#947 = FACE_BOUND ( 'NONE', #1037, .T. ) ;
#948 = ORIENTED_EDGE ( 'NONE', *, *, #743, .T. ) ;
#949 = DIRECTION ( 'NONE',  ( 1.000000000000000000, 0.000000000000000000, -1.756682000989171981E-16 ) ) ;
#950 = FACE_OUTER_BOUND ( 'NONE', #179, .T. ) ;
#951 = CARTESIAN_POINT ( 'NONE',  ( -9.061570170726604090, 14.75000000000001776, -19.78829787234039728 ) ) ;
#952 = PRESENTATION_STYLE_ASSIGNMENT (( #1169 ) ) ;
#953 = ORIENTED_EDGE ( 'NONE', *, *, #156, .F. ) ;
#954 = LINE ( 'NONE', #553, #438 ) ;
#955 = CARTESIAN_POINT ( 'NONE',  ( -9.061570170726600537, 14.75000000000001421, 2.911702127659604677 ) ) ;
#956 = FACE_BOUND ( 'NONE', #639, .T. ) ;
#957 = EDGE_CURVE ( 'NONE', #110, #994, #263, .T. ) ;
#958 = FACE_OUTER_BOUND ( 'NONE', #675, .T. ) ;
#959 = ORIENTED_EDGE ( 'NONE', *, *, #478, .T. ) ;
#960 = ADVANCED_FACE ( 'NONE', ( #1203 ), #984, .F. ) ;
#961 = DIRECTION ( 'NONE',  ( 0.000000000000000000, 0.000000000000000000, 1.000000000000000000 ) ) ;
#962 = CIRCLE ( 'NONE', #350, 2.999999999999999112 ) ;
#963 = FACE_OUTER_BOUND ( 'NONE', #567, .T. ) ;
#964 = ORIENTED_EDGE ( 'NONE', *, *, #1196, .F. ) ;
#965 = VECTOR ( 'NONE', #1029, 1000.000000000000000 ) ;
#966 = DIRECTION ( 'NONE',  ( 3.469446951953611231E-16, 0.000000000000000000, 1.000000000000000000 ) ) ;
#967 = CIRCLE ( 'NONE', #1279, 1.000000000000000888 ) ;
#968 = ADVANCED_FACE ( 'NONE', ( #1077 ), #376, .F. ) ;
#969 = CYLINDRICAL_SURFACE ( 'NONE', #22, 1.000000000000000888 ) ;
#970 = VERTEX_POINT ( 'NONE', #57 ) ;
#971 = CARTESIAN_POINT ( 'NONE',  ( -9.061570170726598761, 19.00000000000001066, -24.03829787234042925 ) ) ;
#972 = CARTESIAN_POINT ( 'NONE',  ( -3.845965311726829761, 2.000000000000000000, 11.61170212765957110 ) ) ;
#973 = VERTEX_POINT ( 'NONE', #63 ) ;
#974 = CARTESIAN_POINT ( 'NONE',  ( -9.061570170726604090, 10.00000000000000888, -18.28829787234042925 ) ) ;
#975 = VERTEX_POINT ( 'NONE', #1296 ) ;
#976 = EDGE_CURVE ( 'NONE', #50, #410, #967, .T. ) ;
#977 = ORIENTED_EDGE ( 'NONE', *, *, #1323, .T. ) ;
#978 = PLANE ( 'NONE',  #863 ) ;
#979 = CARTESIAN_POINT ( 'NONE',  ( -9.061570170726611195, 6.250000000000005329, 12.61170212765960308 ) ) ;
#980 = ORIENTED_EDGE ( 'NONE', *, *, #156, .T. ) ;
#981 = ADVANCED_FACE ( 'NONE', ( #147 ), #978, .T. ) ;
#982 = DIRECTION ( 'NONE',  ( -1.000000000000000000, 0.000000000000000000, 1.756682000989171981E-16 ) ) ;
#983 = CIRCLE ( 'NONE', #1082, 1.250000000000001110 ) ;
#984 = PLANE ( 'NONE',  #1237 ) ;
#985 = PRESENTATION_LAYER_ASSIGNMENT (  '', '', ( #548 ) ) ;
#986 = CIRCLE ( 'NONE', #241, 1.250000000000001110 ) ;
#987 = EDGE_CURVE ( 'NONE', #1259, #794, #369, .T. ) ;
#988 = CARTESIAN_POINT ( 'NONE',  ( -3.845965311726828872, 1.000000000000000000, -21.03829787234043280 ) ) ;
#989 = ORIENTED_EDGE ( 'NONE', *, *, #1108, .F. ) ;
#990 = VERTEX_POINT ( 'NONE', #681 ) ;
#991 = LINE ( 'NONE', #52, #814 ) ;
#992 = CARTESIAN_POINT ( 'NONE',  ( -3.845965311726823987, 19.00000000000001776, 2.411702127659602457 ) ) ;
#993 = ORIENTED_EDGE ( 'NONE', *, *, #1114, .T. ) ;
#994 = VERTEX_POINT ( 'NONE', #255 ) ;
#995 = CARTESIAN_POINT ( 'NONE',  ( -3.845965311726829761, 14.75000000000001776, -19.78829787234039728 ) ) ;
#996 = CARTESIAN_POINT ( 'NONE',  ( -3.845965311726827096, 10.00000000000000888, -18.28829787234042925 ) ) ;
#997 = VERTEX_POINT ( 'NONE', #267 ) ;
#998 = EDGE_CURVE ( 'NONE', #555, #1134, #1280, .T. ) ;
#999 = CARTESIAN_POINT ( 'NONE',  ( 7.815938477963767284, -2.000000000000000000, 23.86170212765956578 ) ) ;
#1000 = CARTESIAN_POINT ( 'NONE',  ( -9.061570170726598761, 19.00000000000001066, -24.03829787234042925 ) ) ;
#1001 = CIRCLE ( 'NONE', #565, 2.999999999999988898 ) ;
#1002 = LINE ( 'NONE', #66, #1192 ) ;
#1003 = EDGE_LOOP ( 'NONE', ( #1055, #68, #660, #140 ) ) ;
#1004 = ORIENTED_EDGE ( 'NONE', *, *, #1080, .T. ) ;
#1005 = VECTOR ( 'NONE', #594, 1000.000000000000000 ) ;
#1006 = ORIENTED_EDGE ( 'NONE', *, *, #1091, .F. ) ;
#1007 = DIRECTION ( 'NONE',  ( 1.000000000000000000, -0.000000000000000000, -0.000000000000000000 ) ) ;
#1008 = CARTESIAN_POINT ( 'NONE',  ( -9.061570170726611195, 19.00000000000001066, -22.03829787234042570 ) ) ;
#1009 = ORIENTED_EDGE ( 'NONE', *, *, #585, .T. ) ;
#1010 = LINE ( 'NONE', #821, #214 ) ;
#1011 = ADVANCED_FACE ( 'NONE', ( #1083 ), #155, .F. ) ;
#1012 = CARTESIAN_POINT ( 'NONE',  ( 0.9384298292734029046, 2.000000000000000000, 21.11170212765956578 ) ) ;
#1013 = CARTESIAN_POINT ( 'NONE',  ( 7.815938477963767284, 5.000000000000000000, 20.86170212765956578 ) ) ;
#1014 = ORIENTED_EDGE ( 'NONE', *, *, #330, .T. ) ;
#1015 = CARTESIAN_POINT ( 'NONE',  ( -3.811570170726595208, 14.75000000000001421, 4.911702127659610895 ) ) ;
#1016 = ORIENTED_EDGE ( 'NONE', *, *, #116, .T. ) ;
#1017 = CARTESIAN_POINT ( 'NONE',  ( -3.845965311726829761, 0.000000000000000000, -24.03829787234042925 ) ) ;
#1018 = EDGE_CURVE ( 'NONE', #975, #425, #991, .T. ) ;
#1019 = LINE ( 'NONE', #1122, #1345 ) ;
#1020 = FACE_OUTER_BOUND ( 'NONE', #709, .T. ) ;
#1021 = ORIENTED_EDGE ( 'NONE', *, *, #463, .F. ) ;
#1022 = EDGE_CURVE ( 'NONE', #168, #383, #219, .T. ) ;
#1023 = LINE ( 'NONE', #628, #259 ) ;
#1024 = AXIS2_PLACEMENT_3D ( 'NONE', #148, #1098, #667 ) ;
#1025 = VECTOR ( 'NONE', #236, 1000.000000000000000 ) ;
#1026 = DIRECTION ( 'NONE',  ( 0.000000000000000000, 2.090028284309406550E-17, -1.000000000000000000 ) ) ;
#1027 = VECTOR ( 'NONE', #699, 1000.000000000000000 ) ;
#1028 = DIRECTION ( 'NONE',  ( -1.000000000000000000, -0.000000000000000000, 1.756682000989171735E-16 ) ) ;
#1029 = DIRECTION ( 'NONE',  ( 0.000000000000000000, 1.000000000000000000, 0.000000000000000000 ) ) ;
#1030 = ORIENTED_EDGE ( 'NONE', *, *, #1022, .F. ) ;
#1031 = CARTESIAN_POINT ( 'NONE',  ( 0.000000000000000000, 0.000000000000000000, -24.03829787234042925 ) ) ;
#1032 = DIRECTION ( 'NONE',  ( -1.000000000000000000, -0.000000000000000000, 1.756682000989171981E-16 ) ) ;
#1033 = FACE_OUTER_BOUND ( 'NONE', #1235, .T. ) ;
#1034 = FACE_BOUND ( 'NONE', #878, .T. ) ;
#1035 = ORIENTED_EDGE ( 'NONE', *, *, #847, .F. ) ;
#1036 = CARTESIAN_POINT ( 'NONE',  ( 7.815938477963767284, 8.000000000000000000, 20.86170212765956933 ) ) ;
#1037 = EDGE_LOOP ( 'NONE', ( #959, #329 ) ) ;
#1038 = DIRECTION ( 'NONE',  ( -1.000000000000000000, -0.000000000000000000, 1.756682000989171981E-16 ) ) ;
#1039 = DIRECTION ( 'NONE',  ( -0.000000000000000000, -0.000000000000000000, -1.000000000000000000 ) ) ;
#1040 = CARTESIAN_POINT ( 'NONE',  ( -3.845965311726831537, -2.000000000000000000, 23.86170212765956933 ) ) ;
#1041 = ORIENTED_EDGE ( 'NONE', *, *, #579, .F. ) ;
#1042 = VECTOR ( 'NONE', #527, 1000.000000000000000 ) ;
#1043 = LINE ( 'NONE', #1264, #903 ) ;
#1044 = CONICAL_SURFACE ( 'NONE', #1343, 1.999999999999998224, 0.7853981633974512766 ) ;
#1045 = DIRECTION ( 'NONE',  ( -1.000000000000000000, -0.000000000000000000, 1.756682000989171981E-16 ) ) ;
#1046 = AXIS2_PLACEMENT_3D ( 'NONE', #600, #516, #393 ) ;
#1047 = PLANE ( 'NONE',  #504 ) ;
#1048 = EDGE_LOOP ( 'NONE', ( #655, #783, #291 ) ) ;
#1049 = DIRECTION ( 'NONE',  ( -1.000000000000000000, -0.000000000000000000, 1.756682000989171981E-16 ) ) ;
#1050 = LINE ( 'NONE', #972, #154 ) ;
#1051 = EDGE_CURVE ( 'NONE', #629, #997, #1090, .T. ) ;
#1052 = CARTESIAN_POINT ( 'NONE',  ( -9.061570170726602313, 1.500000000000000000, -8.138297872340427119 ) ) ;
#1053 = EDGE_CURVE ( 'NONE', #160, #152, #584, .T. ) ;
#1054 = DIRECTION ( 'NONE',  ( 0.000000000000000000, 0.000000000000000000, -1.000000000000000000 ) ) ;
#1055 = ORIENTED_EDGE ( 'NONE', *, *, #200, .F. ) ;
#1056 = DIRECTION ( 'NONE',  ( -1.000000000000000000, -0.000000000000000000, 1.756682000989172474E-16 ) ) ;
#1057 = EDGE_CURVE ( 'NONE', #1320, #204, #111, .T. ) ;
#1058 = ORIENTED_EDGE ( 'NONE', *, *, #998, .F. ) ;
#1059 = CARTESIAN_POINT ( 'NONE',  ( -9.061570170726598761, 2.000000000000000000, 12.11170212765957110 ) ) ;
#1060 = ORIENTED_EDGE ( 'NONE', *, *, #720, .F. ) ;
#1061 = DIRECTION ( 'NONE',  ( 1.000000000000000000, -0.000000000000000000, -1.756682000989171981E-16 ) ) ;
#1062 = CLOSED_SHELL ( 'NONE', ( #100, #574, #615, #349, #429, #373, #1287, #1210, #1152, #47, #960, #807, #53, #247, #396, #798, #254, #534, #1188, #1165, #1335, #121, #968, #782, #208, #319, #981, #713, #889, #1278, #400, #731, #760, #777, #1306, #1288, #150, #644, #819, #1250, #1011 ) ) ;
#1063 = DIRECTION ( 'NONE',  ( 1.000000000000000000, 0.000000000000000000, -1.756682000989171981E-16 ) ) ;
#1064 = EDGE_LOOP ( 'NONE', ( #1088, #1300 ) ) ;
#1065 = VECTOR ( 'NONE', #1113, 1000.000000000000000 ) ;
#1066 = AXIS2_PLACEMENT_3D ( 'NONE', #1315, #496, #506 ) ;
#1067 = LINE ( 'NONE', #365, #1174 ) ;
#1068 = AXIS2_PLACEMENT_3D ( 'NONE', #381, #141, #802 ) ;
#1069 =( NAMED_UNIT ( * ) SI_UNIT ( $, .STERADIAN. ) SOLID_ANGLE_UNIT ( ) );
#1070 = ORIENTED_EDGE ( 'NONE', *, *, #620, .F. ) ;
#1071 = ORIENTED_EDGE ( 'NONE', *, *, #144, .T. ) ;
#1072 = DIRECTION ( 'NONE',  ( 1.000000000000000000, -0.000000000000000000, -0.000000000000000000 ) ) ;
#1073 =( NAMED_UNIT ( * ) PLANE_ANGLE_UNIT ( ) SI_UNIT ( $, .RADIAN. ) );
#1074 = ORIENTED_EDGE ( 'NONE', *, *, #473, .T. ) ;
#1075 = EDGE_CURVE ( 'NONE', #383, #168, #45, .T. ) ;
#1076 = ORIENTED_EDGE ( 'NONE', *, *, #48, .F. ) ;
#1077 = FACE_OUTER_BOUND ( 'NONE', #76, .T. ) ;
#1078 = CARTESIAN_POINT ( 'NONE',  ( -3.845965311726831537, 6.250000000000005329, 13.61170212765960130 ) ) ;
#1079 = ORIENTED_EDGE ( 'NONE', *, *, #437, .F. ) ;
#1080 = EDGE_CURVE ( 'NONE', #1124, #297, #456, .T. ) ;
#1081 = LINE ( 'NONE', #999, #303 ) ;
#1082 = AXIS2_PLACEMENT_3D ( 'NONE', #1242, #1061, #14 ) ;
#1083 = FACE_OUTER_BOUND ( 'NONE', #431, .T. ) ;
#1084 = CIRCLE ( 'NONE', #588, 0.9999999999999991118 ) ;
#1085 = VECTOR ( 'NONE', #1155, 1000.000000000000000 ) ;
#1086 = DIRECTION ( 'NONE',  ( 0.000000000000000000, -0.000000000000000000, -1.000000000000000000 ) ) ;
#1087 = VECTOR ( 'NONE', #166, 1000.000000000000000 ) ;
#1088 = ORIENTED_EDGE ( 'NONE', *, *, #432, .T. ) ;
#1089 = ORIENTED_EDGE ( 'NONE', *, *, #498, .F. ) ;
#1090 = LINE ( 'NONE', #900, #1087 ) ;
#1091 = EDGE_CURVE ( 'NONE', #40, #563, #171, .T. ) ;
#1092 = EDGE_CURVE ( 'NONE', #72, #158, #191, .T. ) ;
#1093 = LINE ( 'NONE', #774, #1234 ) ;
#1094 = VERTEX_POINT ( 'NONE', #1307 ) ;
#1095 = EDGE_LOOP ( 'NONE', ( #1112, #1160 ) ) ;
#1096 = DIRECTION ( 'NONE',  ( -1.756682000989171981E-16, 0.000000000000000000, -1.000000000000000000 ) ) ;
#1097 = EDGE_CURVE ( 'NONE', #1136, #529, #1331, .T. ) ;
#1098 = DIRECTION ( 'NONE',  ( -1.000000000000000000, 0.000000000000000000, 1.756682000989171981E-16 ) ) ;
#1099 = EDGE_LOOP ( 'NONE', ( #59, #850, #7, #953 ) ) ;
#1100 = ORIENTED_EDGE ( 'NONE', *, *, #1140, .F. ) ;
#1101 = ORIENTED_EDGE ( 'NONE', *, *, #293, .T. ) ;
#1102 = DIRECTION ( 'NONE',  ( 1.000000000000000000, -0.000000000000000000, -0.000000000000000000 ) ) ;
#1103 = CIRCLE ( 'NONE', #1341, 1.000000000000000888 ) ;
#1104 = FACE_OUTER_BOUND ( 'NONE', #165, .T. ) ;
#1105 = ORIENTED_EDGE ( 'NONE', *, *, #690, .T. ) ;
#1106 = AXIS2_PLACEMENT_3D ( 'NONE', #1133, #193, #606 ) ;
#1107 = ORIENTED_EDGE ( 'NONE', *, *, #1057, .T. ) ;
#1108 = EDGE_CURVE ( 'NONE', #1094, #661, #242, .T. ) ;
#1109 = DIRECTION ( 'NONE',  ( 0.000000000000000000, 0.000000000000000000, -1.000000000000000000 ) ) ;
#1110 = DIRECTION ( 'NONE',  ( -1.000000000000000000, -0.000000000000000000, 1.756682000989171981E-16 ) ) ;
#1111 = FACE_OUTER_BOUND ( 'NONE', #1064, .T. ) ;
#1112 = ORIENTED_EDGE ( 'NONE', *, *, #494, .F. ) ;
#1113 = DIRECTION ( 'NONE',  ( -1.000000000000000000, -0.000000000000000000, 1.756682000989171981E-16 ) ) ;
#1114 = EDGE_CURVE ( 'NONE', #542, #927, #273, .T. ) ;
#1115 = CARTESIAN_POINT ( 'NONE',  ( -8.061570170726614748, 2.000000000000000000, 19.86170212765956933 ) ) ;
#1116 = DIRECTION ( 'NONE',  ( 1.000000000000000000, -0.000000000000000000, -0.000000000000000000 ) ) ;
#1117 = FACE_OUTER_BOUND ( 'NONE', #352, .T. ) ;
#1118 = VERTEX_POINT ( 'NONE', #199 ) ;
#1119 = DIRECTION ( 'NONE',  ( -1.000000000000000000, 0.000000000000000000, 0.000000000000000000 ) ) ;
#1120 = ORIENTED_EDGE ( 'NONE', *, *, #685, .F. ) ;
#1121 = CARTESIAN_POINT ( 'NONE',  ( -3.845965311726825764, 1.500000000000000000, -8.638297872340428896 ) ) ;
#1122 = CARTESIAN_POINT ( 'NONE',  ( -3.811570170726598761, 14.75000000000001776, -20.78829787234039372 ) ) ;
#1123 = CARTESIAN_POINT ( 'NONE',  ( -8.061570170726614748, 2.000000000000000000, 19.86170212765956933 ) ) ;
#1124 = VERTEX_POINT ( 'NONE', #611 ) ;
#1125 = AXIS2_PLACEMENT_3D ( 'NONE', #1115, #618, #198 ) ;
#1126 = CARTESIAN_POINT ( 'NONE',  ( -9.061570170726611195, 6.250000000000005329, 13.61170212765960130 ) ) ;
#1127 = CIRCLE ( 'NONE', #1297, 2.000000000000001776 ) ;
#1128 = ORIENTED_EDGE ( 'NONE', *, *, #672, .T. ) ;
#1129 = AXIS2_PLACEMENT_3D ( 'NONE', #174, #1303, #595 ) ;
#1130 = LINE ( 'NONE', #1017, #786 ) ;
#1131 = AXIS2_PLACEMENT_3D ( 'NONE', #9, #221, #944 ) ;
#1132 = CARTESIAN_POINT ( 'NONE',  ( -3.845965311726822211, 1.499999999999999556, 12.11170212765957110 ) ) ;
#1133 = CARTESIAN_POINT ( 'NONE',  ( -3.845965311726831537, 2.000000000000000000, 19.86170212765956578 ) ) ;
#1134 = VERTEX_POINT ( 'NONE', #385 ) ;
#1135 = DIRECTION ( 'NONE',  ( -1.756682000989171981E-16, 0.000000000000000000, -1.000000000000000000 ) ) ;
#1136 = VERTEX_POINT ( 'NONE', #1209 ) ;
#1137 = FACE_OUTER_BOUND ( 'NONE', #266, .T. ) ;
#1138 = CARTESIAN_POINT ( 'NONE',  ( -9.061570170726611195, 6.250000000000005329, -10.08829787234040154 ) ) ;
#1139 = CARTESIAN_POINT ( 'NONE',  ( -8.061570170726604090, 1.000000000000000000, -21.03829787234043280 ) ) ;
#1140 = EDGE_CURVE ( 'NONE', #139, #1194, #1175, .T. ) ;
#1141 = CARTESIAN_POINT ( 'NONE',  ( -3.845965311726831093, 14.75000000000001421, 3.911702127659607342 ) ) ;
#1142 = ORIENTED_EDGE ( 'NONE', *, *, #359, .T. ) ;
#1143 = DIRECTION ( 'NONE',  ( -0.000000000000000000, 1.000000000000000000, -0.000000000000000000 ) ) ;
#1144 = CARTESIAN_POINT ( 'NONE',  ( -9.061570170726604090, 1.000000000000000000, -21.03829787234043280 ) ) ;
#1145 = CARTESIAN_POINT ( 'NONE',  ( -6.431570170726598867, 0.000000000000000000, 15.86170212765957288 ) ) ;
#1146 = DIRECTION ( 'NONE',  ( 0.000000000000000000, 0.000000000000000000, 1.000000000000000000 ) ) ;
#1147 = ORIENTED_EDGE ( 'NONE', *, *, #672, .F. ) ;
#1148 = CONICAL_SURFACE ( 'NONE', #1125, 1.999999999999998224, 0.7853981633974512766 ) ;
#1149 = EDGE_CURVE ( 'NONE', #50, #1179, #184, .T. ) ;
#1150 = DIRECTION ( 'NONE',  ( -1.000000000000000000, 0.000000000000000000, 0.000000000000000000 ) ) ;
#1151 = VECTOR ( 'NONE', #1039, 1000.000000000000000 ) ;
#1152 = ADVANCED_FACE ( 'NONE', ( #74 ), #1338, .F. ) ;
#1153 = DIRECTION ( 'NONE',  ( -1.000000000000000000, -0.000000000000000000, 1.756682000989171735E-16 ) ) ;
#1154 = VECTOR ( 'NONE', #1045, 1000.000000000000000 ) ;
#1155 = DIRECTION ( 'NONE',  ( -1.756682000989171981E-16, 0.000000000000000000, -1.000000000000000000 ) ) ;
#1156 = CARTESIAN_POINT ( 'NONE',  ( -9.061570170726611195, 6.250000000000005329, -10.08829787234040154 ) ) ;
#1157 = ORIENTED_EDGE ( 'NONE', *, *, #293, .F. ) ;
#1158 = EDGE_CURVE ( 'NONE', #794, #152, #302, .T. ) ;
#1159 = CARTESIAN_POINT ( 'NONE',  ( -9.061570170726596984, 8.000000000000000000, 20.86170212765956933 ) ) ;
#1160 = ORIENTED_EDGE ( 'NONE', *, *, #489, .F. ) ;
#1161 = CARTESIAN_POINT ( 'NONE',  ( -3.845965311726831093, 0.003040795743203261736, 15.86170212765957288 ) ) ;
#1162 = CARTESIAN_POINT ( 'NONE',  ( -3.845965311726822211, 11.00304079574318372, 12.11170212765957110 ) ) ;
#1163 = EDGE_LOOP ( 'NONE', ( #341, #13, #1058, #1157, #371, #602, #1004, #1213, #663, #717, #458, #804, #938, #1074, #680 ) ) ;
#1164 = PLANE ( 'NONE',  #811 ) ;
#1165 = ADVANCED_FACE ( 'NONE', ( #712 ), #495, .F. ) ;
#1166 = DIRECTION ( 'NONE',  ( 0.000000000000000000, -0.000000000000000000, 1.000000000000000000 ) ) ;
#1167 = ORIENTED_EDGE ( 'NONE', *, *, #1149, .T. ) ;
#1168 = CARTESIAN_POINT ( 'NONE',  ( -3.845965311726831093, 0.003040795743203261736, 11.61170212765957110 ) ) ;
#1169 = SURFACE_STYLE_USAGE ( .BOTH. , #749 ) ;
#1170 = ORIENTED_EDGE ( 'NONE', *, *, #620, .T. ) ;
#1171 = VECTOR ( 'NONE', #1049, 1000.000000000000000 ) ;
#1172 = AXIS2_PLACEMENT_3D ( 'NONE', #370, #1182, #1086 ) ;
#1173 = ORIENTED_EDGE ( 'NONE', *, *, #597, .F. ) ;
#1174 = VECTOR ( 'NONE', #564, 1000.000000000000000 ) ;
#1175 = CIRCLE ( 'NONE', #262, 1.999999999999998224 ) ;
#1176 = FACE_BOUND ( 'NONE', #93, .T. ) ;
#1177 = VECTOR ( 'NONE', #135, 999.9999999999998863 ) ;
#1178 = DIRECTION ( 'NONE',  ( -0.000000000000000000, -1.000000000000000000, -0.000000000000000000 ) ) ;
#1179 = VERTEX_POINT ( 'NONE', #822 ) ;
#1180 = ORIENTED_EDGE ( 'NONE', *, *, #1097, .F. ) ;
#1181 = DIRECTION ( 'NONE',  ( -1.000000000000000000, 0.000000000000000000, 0.000000000000000000 ) ) ;
#1182 = DIRECTION ( 'NONE',  ( 0.000000000000000000, -1.000000000000000000, 0.000000000000000000 ) ) ;
#1183 = VERTEX_POINT ( 'NONE', #1132 ) ;
#1184 = ORIENTED_EDGE ( 'NONE', *, *, #387, .T. ) ;
#1185 = DIRECTION ( 'NONE',  ( -1.756682000989171981E-16, 0.000000000000000000, -1.000000000000000000 ) ) ;
#1186 = DIRECTION ( 'NONE',  ( -1.000000000000000000, 0.000000000000000000, 0.000000000000000000 ) ) ;
#1187 = VERTEX_POINT ( 'NONE', #490 ) ;
#1188 = ADVANCED_FACE ( 'NONE', ( #1033 ), #915, .F. ) ;
#1189 = ORIENTED_EDGE ( 'NONE', *, *, #957, .T. ) ;
#1190 = EDGE_CURVE ( 'NONE', #383, #1094, #1019, .T. ) ;
#1191 = DIRECTION ( 'NONE',  ( 0.000000000000000000, 0.000000000000000000, 1.000000000000000000 ) ) ;
#1192 = VECTOR ( 'NONE', #908, 1000.000000000000000 ) ;
#1193 = DIRECTION ( 'NONE',  ( 0.000000000000000000, 0.000000000000000000, 1.000000000000000000 ) ) ;
#1194 = VERTEX_POINT ( 'NONE', #177 ) ;
#1195 = PRODUCT ( 'Fixture 6 - mirror', 'Fixture 6 - mirror', '', ( #362 ) ) ;
#1196 = EDGE_CURVE ( 'NONE', #1259, #1207, #355, .T. ) ;
#1197 = ORIENTED_EDGE ( 'NONE', *, *, #234, .F. ) ;
#1198 = CARTESIAN_POINT ( 'NONE',  ( -3.845965311726831093, 0.003040795743203261736, 11.61170212765957110 ) ) ;
#1199 = DIRECTION ( 'NONE',  ( -1.000000000000000000, 0.000000000000000000, 1.756682000989171981E-16 ) ) ;
#1200 = EDGE_LOOP ( 'NONE', ( #668, #989 ) ) ;
#1201 = EDGE_CURVE ( 'NONE', #893, #40, #484, .T. ) ;
#1202 = CARTESIAN_POINT ( 'NONE',  ( -8.061570170726596984, 2.000000000000000000, 19.86170212765956933 ) ) ;
#1203 = FACE_OUTER_BOUND ( 'NONE', #1048, .T. ) ;
#1204 = DIRECTION ( 'NONE',  ( -0.7071067811865473507, 8.659560562354936556E-17, -0.7071067811865477948 ) ) ;
#1205 = EDGE_CURVE ( 'NONE', #994, #1187, #815, .T. ) ;
#1206 = ORIENTED_EDGE ( 'NONE', *, *, #539, .F. ) ;
#1207 = VERTEX_POINT ( 'NONE', #415 ) ;
#1208 = LINE ( 'NONE', #1217, #325 ) ;
#1209 = CARTESIAN_POINT ( 'NONE',  ( -9.061570170726602313, 1.500000000000000000, -8.638297872340427119 ) ) ;
#1210 = ADVANCED_FACE ( 'NONE', ( #838 ), #503, .F. ) ;
#1211 = VECTOR ( 'NONE', #439, 1000.000000000000000 ) ;
#1212 = DIRECTION ( 'NONE',  ( -1.000000000000000000, 0.000000000000000000, 0.000000000000000000 ) ) ;
#1213 = ORIENTED_EDGE ( 'NONE', *, *, #784, .T. ) ;
#1214 = AXIS2_PLACEMENT_3D ( 'NONE', #403, #81, #931 ) ;
#1215 = CARTESIAN_POINT ( 'NONE',  ( -3.845965311726823987, 11.00304079574318372, 2.411702127659602457 ) ) ;
#1216 = AXIS2_PLACEMENT_3D ( 'NONE', #1265, #1153, #744 ) ;
#1217 = CARTESIAN_POINT ( 'NONE',  ( -9.061570170726598761, -2.000000000000000000, -22.03829787234042570 ) ) ;
#1218 = CARTESIAN_POINT ( 'NONE',  ( -6.431570170726598867, 0.000000000000000000, 15.86170212765957288 ) ) ;
#1219 = CARTESIAN_POINT ( 'NONE',  ( -9.061570170726611195, 6.250000000000005329, -10.08829787234040154 ) ) ;
#1220 = ORIENTED_EDGE ( 'NONE', *, *, #286, .F. ) ;
#1221 = DIRECTION ( 'NONE',  ( 0.000000000000000000, 0.000000000000000000, 1.000000000000000000 ) ) ;
#1222 = DIRECTION ( 'NONE',  ( 0.000000000000000000, 0.000000000000000000, -1.000000000000000000 ) ) ;
#1223 = CARTESIAN_POINT ( 'NONE',  ( -9.061570170726602313, 2.000000000000000000, -8.638297872340428896 ) ) ;
#1224 = DIRECTION ( 'NONE',  ( -1.000000000000000000, 0.000000000000000000, 0.000000000000000000 ) ) ;
#1225 = ORIENTED_EDGE ( 'NONE', *, *, #1190, .F. ) ;
#1226 = FACE_BOUND ( 'NONE', #684, .T. ) ;
#1227 = DIRECTION ( 'NONE',  ( -1.000000000000000000, 0.000000000000000000, 0.000000000000000000 ) ) ;
#1228 = EDGE_CURVE ( 'NONE', #374, #1207, #654, .T. ) ;
#1229 = DIRECTION ( 'NONE',  ( 1.734723475976805615E-16, 0.000000000000000000, 1.000000000000000000 ) ) ;
#1230 = CARTESIAN_POINT ( 'NONE',  ( -9.061570170726598761, 19.00000000000001066, -24.03829787234042925 ) ) ;
#1231 = ORIENTED_EDGE ( 'NONE', *, *, #640, .T. ) ;
#1232 = VECTOR ( 'NONE', #604, 1000.000000000000000 ) ;
#1233 = CARTESIAN_POINT ( 'NONE',  ( -9.061570170726604090, -2.000000000000000000, -21.03829787234043280 ) ) ;
#1234 = VECTOR ( 'NONE', #1204, 999.9999999999998863 ) ;
#1235 = EDGE_LOOP ( 'NONE', ( #869, #1060, #781, #740 ) ) ;
#1236 = LINE ( 'NONE', #828, #60 ) ;
#1237 = AXIS2_PLACEMENT_3D ( 'NONE', #894, #572, #1185 ) ;
#1238 = FACE_OUTER_BOUND ( 'NONE', #388, .T. ) ;
#1239 = LINE ( 'NONE', #912, #1256 ) ;
#1240 = CARTESIAN_POINT ( 'NONE',  ( -6.431570170726598867, 0.003040795743202945583, 15.86170212765957288 ) ) ;
#1241 = ORIENTED_EDGE ( 'NONE', *, *, #432, .F. ) ;
#1242 = CARTESIAN_POINT ( 'NONE',  ( -8.061570170726604090, 1.000000000000000000, -21.03829787234043280 ) ) ;
#1243 = DIRECTION ( 'NONE',  ( 1.756682000989171981E-16, -0.000000000000000000, 1.000000000000000000 ) ) ;
#1244 = DIRECTION ( 'NONE',  ( 0.000000000000000000, -1.000000000000000000, 0.000000000000000000 ) ) ;
#1245 = EDGE_CURVE ( 'NONE', #990, #1118, #421, .T. ) ;
#1246 = ORIENTED_EDGE ( 'NONE', *, *, #1205, .F. ) ;
#1247 = CARTESIAN_POINT ( 'NONE',  ( -3.845965311726829761, 19.00000000000001776, -18.28829787234042925 ) ) ;
#1248 = CARTESIAN_POINT ( 'NONE',  ( -3.811570170726598761, 14.75000000000001776, -18.78829787234040083 ) ) ;
#1249 = FACE_OUTER_BOUND ( 'NONE', #1099, .T. ) ;
#1250 = ADVANCED_FACE ( 'NONE', ( #950 ), #633, .F. ) ;
#1251 = CARTESIAN_POINT ( 'NONE',  ( -9.061570170726598761, 19.00000000000001776, 17.86170212765956933 ) ) ;
#1252 = ORIENTED_EDGE ( 'NONE', *, *, #112, .T. ) ;
#1253 = AXIS2_PLACEMENT_3D ( 'NONE', #225, #949, #1255 ) ;
#1254 =( GEOMETRIC_REPRESENTATION_CONTEXT ( 3 ) GLOBAL_UNCERTAINTY_ASSIGNED_CONTEXT ( ( #272 ) ) GLOBAL_UNIT_ASSIGNED_CONTEXT ( ( #645, #1073, #1069 ) ) REPRESENTATION_CONTEXT ( 'NONE', 'WORKASPACE' ) );
#1255 = DIRECTION ( 'NONE',  ( 0.000000000000000000, 0.000000000000000000, -1.000000000000000000 ) ) ;
#1256 = VECTOR ( 'NONE', #416, 1000.000000000000000 ) ;
#1257 = DIRECTION ( 'NONE',  ( 0.000000000000000000, 0.000000000000000000, -1.000000000000000000 ) ) ;
#1258 = AXIS2_PLACEMENT_3D ( 'NONE', #1312, #619, #605 ) ;
#1259 = VERTEX_POINT ( 'NONE', #15 ) ;
#1260 = PRODUCT_DEFINITION_SHAPE ( 'NONE', 'NONE',  #791 ) ;
#1261 = DIRECTION ( 'NONE',  ( -1.000000000000000000, 0.000000000000000000, 1.756682000989171981E-16 ) ) ;
#1262 = CARTESIAN_POINT ( 'NONE',  ( -3.845965311726827096, 10.00000000000000888, -18.28829787234042925 ) ) ;
#1263 = ORIENTED_EDGE ( 'NONE', *, *, #489, .T. ) ;
#1264 = CARTESIAN_POINT ( 'NONE',  ( -3.811570170726599205, 0.000000000000000000, 11.61170212765957110 ) ) ;
#1265 = CARTESIAN_POINT ( 'NONE',  ( 0.9384298292734026825, 2.000000000000000000, 19.86170212765956578 ) ) ;
#1266 = ORIENTED_EDGE ( 'NONE', *, *, #1108, .T. ) ;
#1267 = CARTESIAN_POINT ( 'NONE',  ( -3.845965311726829761, -0.000000000000000000, 11.61170212765957110 ) ) ;
#1268 = SURFACE_STYLE_FILL_AREA ( #638 ) ;
#1269 = ORIENTED_EDGE ( 'NONE', *, *, #679, .T. ) ;
#1270 =( NAMED_UNIT ( * ) PLANE_ANGLE_UNIT ( ) SI_UNIT ( $, .RADIAN. ) );
#1271 = ORIENTED_EDGE ( 'NONE', *, *, #532, .T. ) ;
#1272 = DIRECTION ( 'NONE',  ( 0.000000000000000000, 0.000000000000000000, 1.000000000000000000 ) ) ;
#1273 = DIRECTION ( 'NONE',  ( 0.000000000000000000, 0.000000000000000000, 1.000000000000000000 ) ) ;
#1274 = ORIENTED_EDGE ( 'NONE', *, *, #1018, .F. ) ;
#1275 = VECTOR ( 'NONE', #1056, 1000.000000000000000 ) ;
#1276 = SURFACE_STYLE_FILL_AREA ( #1289 ) ;
#1277 = ORIENTED_EDGE ( 'NONE', *, *, #82, .T. ) ;
#1278 = ADVANCED_FACE ( 'NONE', ( #3 ), #846, .T. ) ;
#1279 = AXIS2_PLACEMENT_3D ( 'NONE', #773, #662, #464 ) ;
#1280 = LINE ( 'NONE', #686, #884 ) ;
#1281 = DIRECTION ( 'NONE',  ( -1.000000000000000000, -0.000000000000000000, 1.756682000989171981E-16 ) ) ;
#1282 = ORIENTED_EDGE ( 'NONE', *, *, #1329, .F. ) ;
#1283 = EDGE_LOOP ( 'NONE', ( #1301, #1016, #1101, #1269 ) ) ;
#1284 = DIRECTION ( 'NONE',  ( -1.000000000000000000, 0.000000000000000000, 0.000000000000000000 ) ) ;
#1285 = DIRECTION ( 'NONE',  ( 0.000000000000000000, 0.000000000000000000, 1.000000000000000000 ) ) ;
#1286 = EDGE_LOOP ( 'NONE', ( #265, #800, #1246, #56 ) ) ;
#1287 = ADVANCED_FACE ( 'NONE', ( #531 ), #427, .F. ) ;
#1288 = ADVANCED_FACE ( 'NONE', ( #538 ), #312, .F. ) ;
#1289 = FILL_AREA_STYLE ('',( #670 ) ) ;
#1290 = EDGE_LOOP ( 'NONE', ( #1006, #844, #694, #1021 ) ) ;
#1291 = DIRECTION ( 'NONE',  ( -1.000000000000000000, 0.000000000000000000, 1.756682000989171981E-16 ) ) ;
#1292 = DIRECTION ( 'NONE',  ( -1.000000000000000000, -0.000000000000000000, 1.756682000989171981E-16 ) ) ;
#1293 = EDGE_LOOP ( 'NONE', ( #251, #444, #577, #536 ) ) ;
#1294 = EDGE_CURVE ( 'NONE', #168, #661, #340, .T. ) ;
#1295 = ORIENTED_EDGE ( 'NONE', *, *, #1201, .T. ) ;
#1296 = CARTESIAN_POINT ( 'NONE',  ( -3.845965311726831537, 2.000000000000000000, 18.61170212765956578 ) ) ;
#1297 = AXIS2_PLACEMENT_3D ( 'NONE', #864, #19, #739 ) ;
#1298 = VECTOR ( 'NONE', #436, 1000.000000000000000 ) ;
#1299 = DIRECTION ( 'NONE',  ( 0.000000000000000000, 0.000000000000000000, 1.000000000000000000 ) ) ;
#1300 = ORIENTED_EDGE ( 'NONE', *, *, #285, .T. ) ;
#1301 = ORIENTED_EDGE ( 'NONE', *, *, #422, .T. ) ;
#1302 = DIRECTION ( 'NONE',  ( 0.000000000000000000, 0.000000000000000000, -1.000000000000000000 ) ) ;
#1303 = DIRECTION ( 'NONE',  ( -1.000000000000000000, 0.000000000000000000, 0.000000000000000000 ) ) ;
#1304 = ORIENTED_EDGE ( 'NONE', *, *, #1196, .T. ) ;
#1305 = ORIENTED_EDGE ( 'NONE', *, *, #48, .T. ) ;
#1306 = ADVANCED_FACE ( 'NONE', ( #963 ), #758, .F. ) ;
#1307 = CARTESIAN_POINT ( 'NONE',  ( -9.061570170726604090, 14.75000000000001776, -20.78829787234039372 ) ) ;
#1308 = CARTESIAN_POINT ( 'NONE',  ( -9.061570170726600537, 14.75000000000001421, 3.911702127659608230 ) ) ;
#1309 = ORIENTED_EDGE ( 'NONE', *, *, #1190, .T. ) ;
#1310 = VERTEX_POINT ( 'NONE', #955 ) ;
#1311 = CARTESIAN_POINT ( 'NONE',  ( 0.000000000000000000, 11.00000000000000000, 17.86170212765956933 ) ) ;
#1312 = CARTESIAN_POINT ( 'NONE',  ( -9.061570170726611195, 19.00000000000001066, -22.03829787234042570 ) ) ;
#1313 = CIRCLE ( 'NONE', #414, 2.999999999999999112 ) ;
#1314 = AXIS2_PLACEMENT_3D ( 'NONE', #687, #566, #360 ) ;
#1315 = CARTESIAN_POINT ( 'NONE',  ( -3.845965311726831537, 2.000000000000000000, 19.86170212765956578 ) ) ;
#1316 = ORIENTED_EDGE ( 'NONE', *, *, #851, .F. ) ;
#1317 = VECTOR ( 'NONE', #451, 1000.000000000000000 ) ;
#1318 = DIRECTION ( 'NONE',  ( 0.000000000000000000, 0.000000000000000000, 1.000000000000000000 ) ) ;
#1319 = AXIS2_PLACEMENT_3D ( 'NONE', #32, #626, #1166 ) ;
#1320 = VERTEX_POINT ( 'NONE', #323 ) ;
#1321 = CARTESIAN_POINT ( 'NONE',  ( 0.000000000000000000, 0.000000000000000000, 17.86170212765956933 ) ) ;
#1322 = CARTESIAN_POINT ( 'NONE',  ( -8.061570170726596984, 2.000000000000000000, 19.86170212765956933 ) ) ;
#1323 = EDGE_CURVE ( 'NONE', #55, #404, #678, .T. ) ;
#1324 = FACE_OUTER_BOUND ( 'NONE', #551, .T. ) ;
#1325 = VERTEX_POINT ( 'NONE', #642 ) ;
#1326 = CARTESIAN_POINT ( 'NONE',  ( -9.061570170726598761, 19.00000000000001776, 15.86170212765957288 ) ) ;
#1327 = ORIENTED_EDGE ( 'NONE', *, *, #286, .T. ) ;
#1328 = EDGE_CURVE ( 'NONE', #902, #927, #1050, .T. ) ;
#1329 = EDGE_CURVE ( 'NONE', #1207, #378, #552, .T. ) ;
#1330 = DIRECTION ( 'NONE',  ( -1.000000000000000000, -0.000000000000000000, 1.756682000989171981E-16 ) ) ;
#1331 = LINE ( 'NONE', #1223, #417 ) ;
#1332 = DIRECTION ( 'NONE',  ( 0.000000000000000000, 0.000000000000000000, 1.000000000000000000 ) ) ;
#1333 = ORIENTED_EDGE ( 'NONE', *, *, #873, .F. ) ;
#1334 = FACE_OUTER_BOUND ( 'NONE', #562, .T. ) ;
#1335 = ADVANCED_FACE ( 'NONE', ( #1238 ), #120, .F. ) ;
#1336 = ORIENTED_EDGE ( 'NONE', *, *, #820, .T. ) ;
#1337 = CARTESIAN_POINT ( 'NONE',  ( -3.811570170726595208, 14.75000000000001421, 2.911702127659603789 ) ) ;
#1338 = CYLINDRICAL_SURFACE ( 'NONE', #945, 1.250000000000001110 ) ;
#1339 = DIRECTION ( 'NONE',  ( 0.000000000000000000, 0.000000000000000000, 1.000000000000000000 ) ) ;
#1340 = AXIS2_PLACEMENT_3D ( 'NONE', #1321, #836, #1227 ) ;
#1341 = AXIS2_PLACEMENT_3D ( 'NONE', #117, #452, #1273 ) ;
#1342 = DIRECTION ( 'NONE',  ( -1.000000000000000000, 0.000000000000000000, 1.756682000989171981E-16 ) ) ;
#1343 = AXIS2_PLACEMENT_3D ( 'NONE', #1123, #517, #1332 ) ;
#1344 = ORIENTED_EDGE ( 'NONE', *, *, #379, .T. ) ;
#1345 = VECTOR ( 'NONE', #1110, 1000.000000000000000 ) ;
ENDSEC;
END-ISO-10303-21;
