ISO-10303-21;
HEADER;
FILE_DESCRIPTION (( 'STEP AP214' ),
    '1' );
FILE_NAME ('Jaw holder.STEP',
    '2025-10-21T18:57:06',
    ( 'Windows User' ),
    ( '' ),
    'SwSTEP 2.0',
    'SolidWorks 2023',
    '' );
FILE_SCHEMA (( 'AUTOMOTIVE_DESIGN' ));
ENDSEC;

DATA;
#1 = CARTESIAN_POINT ( 'NONE',  ( 10.00000000000000000, -1.850000000000000533, 8.000000000000000000 ) ) ;
#2 = ADVANCED_FACE ( 'NONE', ( #706 ), #1002, .F. ) ;
#3 = SURFACE_SIDE_STYLE ('',( #419 ) ) ;
#4 = DIRECTION ( 'NONE',  ( 1.000000000000000000, 0.000000000000000000, 0.000000000000000000 ) ) ;
#5 = ORIENTED_EDGE ( 'NONE', *, *, #722, .F. ) ;
#6 = DIRECTION ( 'NONE',  ( 0.000000000000000000, 0.000000000000000000, 1.000000000000000000 ) ) ;
#7 = EDGE_CURVE ( 'NONE', #322, #50, #616, .T. ) ;
#8 = ORIENTED_EDGE ( 'NONE', *, *, #138, .F. ) ;
#9 = DIRECTION ( 'NONE',  ( 0.000000000000000000, 0.000000000000000000, 1.000000000000000000 ) ) ;
#10 = FACE_OUTER_BOUND ( 'NONE', #993, .T. ) ;
#11 = LINE ( 'NONE', #520, #837 ) ;
#12 = ORIENTED_EDGE ( 'NONE', *, *, #503, .T. ) ;
#13 = AXIS2_PLACEMENT_3D ( 'NONE', #691, #621, #206 ) ;
#14 = CYLINDRICAL_SURFACE ( 'NONE', #936, 2.000000000000000000 ) ;
#15 = AXIS2_PLACEMENT_3D ( 'NONE', #148, #795, #958 ) ;
#16 = PRESENTATION_LAYER_ASSIGNMENT (  '', '', ( #549 ) ) ;
#17 = DIRECTION ( 'NONE',  ( 1.000000000000000000, 0.000000000000000000, 0.000000000000000000 ) ) ;
#18 = SURFACE_STYLE_USAGE ( .BOTH. , #3 ) ;
#19 = CARTESIAN_POINT ( 'NONE',  ( -0.000000000000000000, 1.849999999999999645, 0.000000000000000000 ) ) ;
#20 = VERTEX_POINT ( 'NONE', #809 ) ;
#21 = DIRECTION ( 'NONE',  ( 0.000000000000000000, 1.000000000000000000, 0.000000000000000000 ) ) ;
#22 = DIRECTION ( 'NONE',  ( -0.000000000000000000, 1.000000000000000000, -0.000000000000000000 ) ) ;
#23 = LINE ( 'NONE', #19, #47 ) ;
#24 = ORIENTED_EDGE ( 'NONE', *, *, #37, .F. ) ;
#25 = VERTEX_POINT ( 'NONE', #835 ) ;
#26 = PLANE ( 'NONE',  #181 ) ;
#27 = CARTESIAN_POINT ( 'NONE',  ( -8.000000000000000000, -1.850000000000000533, 1.499999999999999778 ) ) ;
#28 = ORIENTED_EDGE ( 'NONE', *, *, #81, .F. ) ;
#29 = VECTOR ( 'NONE', #177, 1000.000000000000000 ) ;
#30 = CARTESIAN_POINT ( 'NONE',  ( -4.999999999999999112, 1.849999999999999645, 10.00000000000000000 ) ) ;
#31 = AXIS2_PLACEMENT_3D ( 'NONE', #725, #154, #1057 ) ;
#32 = EDGE_CURVE ( 'NONE', #460, #562, #737, .T. ) ;
#33 = EDGE_CURVE ( 'NONE', #227, #500, #72, .T. ) ;
#34 = PLANE ( 'NONE',  #147 ) ;
#35 = VERTEX_POINT ( 'NONE', #594 ) ;
#36 = DIRECTION ( 'NONE',  ( 0.000000000000000000, 1.000000000000000000, 0.000000000000000000 ) ) ;
#37 = EDGE_CURVE ( 'NONE', #135, #892, #106, .T. ) ;
#38 = CARTESIAN_POINT ( 'NONE',  ( 0.000000000000000000, 5.549999999999998934, 10.00000000000000000 ) ) ;
#39 = ORIENTED_EDGE ( 'NONE', *, *, #222, .T. ) ;
#40 = LINE ( 'NONE', #367, #215 ) ;
#41 = PRODUCT_DEFINITION_SHAPE ( 'NONE', 'NONE',  #137 ) ;
#42 = CARTESIAN_POINT ( 'NONE',  ( 2.649999999999999467, 5.549999999999998934, 10.00000000000000000 ) ) ;
#43 = VERTEX_POINT ( 'NONE', #488 ) ;
#44 = CARTESIAN_POINT ( 'NONE',  ( 5.000000000000000000, 1.849999999999999645, 10.00000000000000000 ) ) ;
#45 = VECTOR ( 'NONE', #752, 1000.000000000000000 ) ;
#46 = VECTOR ( 'NONE', #976, 1000.000000000000000 ) ;
#47 = VECTOR ( 'NONE', #191, 1000.000000000000000 ) ;
#48 = CARTESIAN_POINT ( 'NONE',  ( 0.000000000000000000, 27.05000000000000071, 2.000000000000000000 ) ) ;
#49 = AXIS2_PLACEMENT_3D ( 'NONE', #492, #561, #384 ) ;
#50 = VERTEX_POINT ( 'NONE', #677 ) ;
#51 = ORIENTED_EDGE ( 'NONE', *, *, #908, .F. ) ;
#52 = DIRECTION ( 'NONE',  ( 1.000000000000000000, 4.688441826964343312E-16, -0.000000000000000000 ) ) ;
#53 = FACE_OUTER_BOUND ( 'NONE', #710, .T. ) ;
#54 = ORIENTED_EDGE ( 'NONE', *, *, #526, .F. ) ;
#55 = ORIENTED_EDGE ( 'NONE', *, *, #801, .T. ) ;
#56 = CARTESIAN_POINT ( 'NONE',  ( 10.00000000000000000, -1.850000000000000533, 10.00000000000000000 ) ) ;
#57 = EDGE_LOOP ( 'NONE', ( #139, #969 ) ) ;
#58 = DIRECTION ( 'NONE',  ( 0.000000000000000000, 0.000000000000000000, 1.000000000000000000 ) ) ;
#59 = VERTEX_POINT ( 'NONE', #830 ) ;
#60 = DIRECTION ( 'NONE',  ( 1.000000000000000000, -4.688441826964343312E-16, 0.000000000000000000 ) ) ;
#61 = AXIS2_PLACEMENT_3D ( 'NONE', #423, #338, #259 ) ;
#62 = DIRECTION ( 'NONE',  ( -0.000000000000000000, 1.000000000000000000, -0.000000000000000000 ) ) ;
#63 = EDGE_CURVE ( 'NONE', #917, #625, #753, .T. ) ;
#64 = ORIENTED_EDGE ( 'NONE', *, *, #418, .T. ) ;
#65 = VECTOR ( 'NONE', #765, 1000.000000000000000 ) ;
#66 = EDGE_CURVE ( 'NONE', #796, #43, #834, .T. ) ;
#67 = DIRECTION ( 'NONE',  ( -1.000000000000000000, 0.000000000000000000, 0.000000000000000000 ) ) ;
#68 = ORIENTED_EDGE ( 'NONE', *, *, #334, .F. ) ;
#69 = CARTESIAN_POINT ( 'NONE',  ( 5.000000000000011546, 27.04999999999999716, 2.000000000000000000 ) ) ;
#70 = ADVANCED_FACE ( 'NONE', ( #270, #352, #764, #651, #10 ), #26, .F. ) ;
#71 = DIRECTION ( 'NONE',  ( -1.000000000000000000, 0.000000000000000000, 0.000000000000000000 ) ) ;
#72 = LINE ( 'NONE', #991, #201 ) ;
#73 = CARTESIAN_POINT ( 'NONE',  ( 3.061616997868382155E-16, 10.54999999999999716, 0.000000000000000000 ) ) ;
#74 = EDGE_LOOP ( 'NONE', ( #365, #543 ) ) ;
#75 = CARTESIAN_POINT ( 'NONE',  ( 0.000000000000000000, 29.05000000000000426, 2.000000000000000000 ) ) ;
#76 =( NAMED_UNIT ( * ) PLANE_ANGLE_UNIT ( ) SI_UNIT ( $, .RADIAN. ) );
#77 = CARTESIAN_POINT ( 'NONE',  ( -8.000000000000000000, -1.850000000000000533, 2.000000000000000000 ) ) ;
#78 = ADVANCED_FACE ( 'NONE', ( #428 ), #482, .F. ) ;
#79 = DIRECTION ( 'NONE',  ( -0.000000000000000000, 1.000000000000000000, -0.000000000000000000 ) ) ;
#80 = ORIENTED_EDGE ( 'NONE', *, *, #388, .T. ) ;
#81 = EDGE_CURVE ( 'NONE', #840, #758, #729, .T. ) ;
#82 = CARTESIAN_POINT ( 'NONE',  ( -4.999999999999986677, 29.05000000000000426, 8.000000000000000000 ) ) ;
#83 = CARTESIAN_POINT ( 'NONE',  ( 0.000000000000000000, 0.000000000000000000, 0.000000000000000000 ) ) ;
#84 = AXIS2_PLACEMENT_3D ( 'NONE', #97, #507, #734 ) ;
#85 = CYLINDRICAL_SURFACE ( 'NONE', #31, 1.000000000000000888 ) ;
#86 = CIRCLE ( 'NONE', #115, 2.649999999999999467 ) ;
#87 = ORIENTED_EDGE ( 'NONE', *, *, #675, .T. ) ;
#88 = AXIS2_PLACEMENT_3D ( 'NONE', #157, #62, #956 ) ;
#89 = EDGE_CURVE ( 'NONE', #932, #35, #633, .T. ) ;
#90 = DIRECTION ( 'NONE',  ( 0.000000000000000000, 0.000000000000000000, 1.000000000000000000 ) ) ;
#91 = ADVANCED_FACE ( 'NONE', ( #146 ), #348, .F. ) ;
#92 = LINE ( 'NONE', #985, #921 ) ;
#93 = EDGE_LOOP ( 'NONE', ( #509, #454, #957, #964 ) ) ;
#94 = CARTESIAN_POINT ( 'NONE',  ( 8.000000000000000000, 1.849999999999999645, 10.00000000000000000 ) ) ;
#95 = ORIENTED_EDGE ( 'NONE', *, *, #1047, .T. ) ;
#96 = FACE_OUTER_BOUND ( 'NONE', #1005, .T. ) ;
#97 = CARTESIAN_POINT ( 'NONE',  ( -8.000000000000000000, 1.849999999999999645, 8.000000000000000000 ) ) ;
#98 = CARTESIAN_POINT ( 'NONE',  ( 7.654042494670960318E-17, 30.54999999999999716, 0.000000000000000000 ) ) ;
#99 = ORIENTED_EDGE ( 'NONE', *, *, #935, .F. ) ;
#100 = AXIS2_PLACEMENT_3D ( 'NONE', #580, #433, #171 ) ;
#101 = CYLINDRICAL_SURFACE ( 'NONE', #656, 2.000000000000000000 ) ;
#102 = DIRECTION ( 'NONE',  ( 1.000000000000000000, 0.000000000000000000, 0.000000000000000000 ) ) ;
#103 = PRESENTATION_STYLE_ASSIGNMENT (( #18 ) ) ;
#104 = CARTESIAN_POINT ( 'NONE',  ( -8.000000000000001776, -1.850000000000000533, 6.999999999999999112 ) ) ;
#105 = VERTEX_POINT ( 'NONE', #569 ) ;
#106 = LINE ( 'NONE', #672, #237 ) ;
#107 = CARTESIAN_POINT ( 'NONE',  ( -8.000000000000001776, -1.850000000000000533, 6.999999999999999112 ) ) ;
#108 = ORIENTED_EDGE ( 'NONE', *, *, #641, .T. ) ;
#109 = DIRECTION ( 'NONE',  ( 8.673617379884027583E-16, 1.000000000000000000, 0.000000000000000000 ) ) ;
#110 = DIRECTION ( 'NONE',  ( -0.000000000000000000, 0.000000000000000000, 1.000000000000000000 ) ) ;
#111 = ORIENTED_EDGE ( 'NONE', *, *, #1052, .F. ) ;
#112 = EDGE_CURVE ( 'NONE', #625, #227, #266, .T. ) ;
#113 = CIRCLE ( 'NONE', #988, 0.7500000000000006661 ) ;
#114 = FACE_OUTER_BOUND ( 'NONE', #804, .T. ) ;
#115 = AXIS2_PLACEMENT_3D ( 'NONE', #699, #110, #195 ) ;
#116 = CARTESIAN_POINT ( 'NONE',  ( 4.999999999999998224, 5.549999999999999822, 10.00000000000000000 ) ) ;
#117 = EDGE_LOOP ( 'NONE', ( #611, #472, #64, #302 ) ) ;
#118 = CARTESIAN_POINT ( 'NONE',  ( -4.999999999999987566, 28.05000000000000071, 8.000000000000000000 ) ) ;
#119 = DIRECTION ( 'NONE',  ( -0.000000000000000000, 0.000000000000000000, 1.000000000000000000 ) ) ;
#120 = ORIENTED_EDGE ( 'NONE', *, *, #1009, .F. ) ;
#121 = DIRECTION ( 'NONE',  ( -1.000000000000000000, 0.000000000000000000, 0.000000000000000000 ) ) ;
#122 = DIRECTION ( 'NONE',  ( 0.000000000000000000, 1.000000000000000000, -0.000000000000000000 ) ) ;
#123 = EDGE_LOOP ( 'NONE', ( #111, #160, #470, #311 ) ) ;
#124 = VERTEX_POINT ( 'NONE', #434 ) ;
#125 = CARTESIAN_POINT ( 'NONE',  ( 5.000000000000000888, 2.344220913482171952E-15, 10.00000000000000000 ) ) ;
#126 = AXIS2_PLACEMENT_3D ( 'NONE', #968, #574, #895 ) ;
#127 = CIRCLE ( 'NONE', #217, 1.000000000000000888 ) ;
#128 = DIRECTION ( 'NONE',  ( 0.000000000000000000, 0.000000000000000000, -1.000000000000000000 ) ) ;
#129 = ORIENTED_EDGE ( 'NONE', *, *, #481, .F. ) ;
#130 = ORIENTED_EDGE ( 'NONE', *, *, #941, .T. ) ;
#131 = CARTESIAN_POINT ( 'NONE',  ( 5.000000000000000888, 2.344220913482171952E-15, 10.00000000000000000 ) ) ;
#132 = DIRECTION ( 'NONE',  ( 0.000000000000000000, 0.000000000000000000, 1.000000000000000000 ) ) ;
#133 = VERTEX_POINT ( 'NONE', #760 ) ;
#134 = CARTESIAN_POINT ( 'NONE',  ( 8.000000000000000000, -1.850000000000000533, 8.000000000000000000 ) ) ;
#135 = VERTEX_POINT ( 'NONE', #681 ) ;
#136 = DIRECTION ( 'NONE',  ( -1.000000000000000000, 4.688441826964343312E-16, 0.000000000000000000 ) ) ;
#137 = PRODUCT_DEFINITION ( 'General', '', #346, #1022 ) ;
#138 = EDGE_CURVE ( 'NONE', #505, #840, #272, .T. ) ;
#139 = ORIENTED_EDGE ( 'NONE', *, *, #269, .T. ) ;
#140 = DIRECTION ( 'NONE',  ( 0.000000000000000000, 0.000000000000000000, 1.000000000000000000 ) ) ;
#141 = ORIENTED_EDGE ( 'NONE', *, *, #582, .F. ) ;
#142 = CARTESIAN_POINT ( 'NONE',  ( -10.00000000000000000, -1.850000000000000533, 2.000000000000000000 ) ) ;
#143 = EDGE_CURVE ( 'NONE', #416, #133, #544, .T. ) ;
#144 = CIRCLE ( 'NONE', #275, 2.000000000000000000 ) ;
#145 =( LENGTH_UNIT ( ) NAMED_UNIT ( * ) SI_UNIT ( .MILLI., .METRE. ) );
#146 = FACE_OUTER_BOUND ( 'NONE', #587, .T. ) ;
#147 = AXIS2_PLACEMENT_3D ( 'NONE', #938, #119, #364 ) ;
#148 = CARTESIAN_POINT ( 'NONE',  ( 0.000000000000000000, 5.549999999999998934, 10.00000000000000000 ) ) ;
#149 = CIRCLE ( 'NONE', #445, 0.7500000000000002220 ) ;
#150 = ORIENTED_EDGE ( 'NONE', *, *, #112, .F. ) ;
#151 = LINE ( 'NONE', #131, #568 ) ;
#152 = FACE_OUTER_BOUND ( 'NONE', #564, .T. ) ;
#153 = DIRECTION ( 'NONE',  ( -0.000000000000000000, -1.000000000000000000, -0.000000000000000000 ) ) ;
#154 = DIRECTION ( 'NONE',  ( -1.000000000000000000, 4.688441826964343312E-16, 0.000000000000000000 ) ) ;
#155 = ORIENTED_EDGE ( 'NONE', *, *, #63, .F. ) ;
#156 = DIRECTION ( 'NONE',  ( 0.000000000000000000, 1.000000000000000000, 0.000000000000000000 ) ) ;
#157 = CARTESIAN_POINT ( 'NONE',  ( 8.000000000000001776, -1.850000000000000533, 7.750000000000000000 ) ) ;
#158 = ADVANCED_FACE ( 'NONE', ( #114 ), #440, .T. ) ;
#159 = LINE ( 'NONE', #810, #782 ) ;
#160 = ORIENTED_EDGE ( 'NONE', *, *, #801, .F. ) ;
#161 = CARTESIAN_POINT ( 'NONE',  ( 8.000000000000001776, -1.850000000000000533, 7.750000000000000000 ) ) ;
#162 = DIRECTION ( 'NONE',  ( 1.000000000000000000, 0.000000000000000000, 0.000000000000000000 ) ) ;
#163 = AXIS2_PLACEMENT_3D ( 'NONE', #995, #22, #240 ) ;
#164 = CIRCLE ( 'NONE', #13, 0.7500000000000006661 ) ;
#165 = PRESENTATION_STYLE_ASSIGNMENT (( #499 ) ) ;
#166 = AXIS2_PLACEMENT_3D ( 'NONE', #134, #471, #58 ) ;
#167 = VERTEX_POINT ( 'NONE', #527 ) ;
#168 = CARTESIAN_POINT ( 'NONE',  ( 0.000000000000000000, 5.549999999999998934, 10.00000000000000000 ) ) ;
#169 = DIRECTION ( 'NONE',  ( 0.000000000000000000, 0.000000000000000000, 1.000000000000000000 ) ) ;
#170 = EDGE_LOOP ( 'NONE', ( #845, #1030 ) ) ;
#171 = DIRECTION ( 'NONE',  ( 8.673617379884027583E-16, 1.000000000000000000, 0.000000000000000000 ) ) ;
#172 = DIRECTION ( 'NONE',  ( 0.000000000000000000, 0.000000000000000000, 1.000000000000000000 ) ) ;
#173 = ADVANCED_FACE ( 'NONE', ( #451 ), #704, .F. ) ;
#174 = EDGE_CURVE ( 'NONE', #776, #525, #849, .T. ) ;
#175 = FACE_OUTER_BOUND ( 'NONE', #857, .T. ) ;
#176 = VERTEX_POINT ( 'NONE', #285 ) ;
#177 = DIRECTION ( 'NONE',  ( -0.000000000000000000, -0.000000000000000000, -1.000000000000000000 ) ) ;
#178 = EDGE_CURVE ( 'NONE', #293, #796, #609, .T. ) ;
#179 = CARTESIAN_POINT ( 'NONE',  ( 0.000000000000000000, -1.850000000000000533, 10.00000000000000000 ) ) ;
#180 = SHAPE_DEFINITION_REPRESENTATION ( #41, #366 ) ;
#181 = AXIS2_PLACEMENT_3D ( 'NONE', #179, #511, #883 ) ;
#182 = DIRECTION ( 'NONE',  ( -1.000000000000000000, 0.000000000000000000, 0.000000000000000000 ) ) ;
#183 = ORIENTED_EDGE ( 'NONE', *, *, #264, .F. ) ;
#184 = VECTOR ( 'NONE', #136, 1000.000000000000000 ) ;
#185 = CIRCLE ( 'NONE', #379, 1.000000000000000888 ) ;
#186 = CIRCLE ( 'NONE', #15, 4.999999999999998224 ) ;
#187 =( GEOMETRIC_REPRESENTATION_CONTEXT ( 3 ) GLOBAL_UNCERTAINTY_ASSIGNED_CONTEXT ( ( #225 ) ) GLOBAL_UNIT_ASSIGNED_CONTEXT ( ( #340, #761, #590 ) ) REPRESENTATION_CONTEXT ( 'NONE', 'WORKASPACE' ) );
#188 = CARTESIAN_POINT ( 'NONE',  ( 0.000000000000000000, 5.549999999999998934, 10.00000000000000000 ) ) ;
#189 = APPLICATION_CONTEXT ( 'automotive_design' ) ;
#190 = PRODUCT_CONTEXT ( 'NONE', #189, 'mechanical' ) ;
#191 = DIRECTION ( 'NONE',  ( 1.000000000000000000, 0.000000000000000000, 0.000000000000000000 ) ) ;
#192 = ORIENTED_EDGE ( 'NONE', *, *, #696, .T. ) ;
#193 = VERTEX_POINT ( 'NONE', #523 ) ;
#194 = DIRECTION ( 'NONE',  ( 0.000000000000000000, 1.000000000000000000, 0.000000000000000000 ) ) ;
#195 = DIRECTION ( 'NONE',  ( 1.000000000000000000, 0.000000000000000000, 0.000000000000000000 ) ) ;
#196 = VERTEX_POINT ( 'NONE', #462 ) ;
#197 = EDGE_CURVE ( 'NONE', #212, #500, #708, .T. ) ;
#198 = DIRECTION ( 'NONE',  ( 0.000000000000000000, 0.000000000000000000, 1.000000000000000000 ) ) ;
#199 = EDGE_CURVE ( 'NONE', #298, #458, #901, .T. ) ;
#200 = VERTEX_POINT ( 'NONE', #701 ) ;
#201 = VECTOR ( 'NONE', #841, 1000.000000000000000 ) ;
#202 = AXIS2_PLACEMENT_3D ( 'NONE', #820, #251, #903 ) ;
#203 = CARTESIAN_POINT ( 'NONE',  ( 0.000000000000000000, 5.549999999999998934, 10.00000000000000000 ) ) ;
#204 = DIRECTION ( 'NONE',  ( -0.000000000000000000, -0.000000000000000000, -1.000000000000000000 ) ) ;
#205 = EDGE_LOOP ( 'NONE', ( #1043, #940, #108, #219 ) ) ;
#206 = DIRECTION ( 'NONE',  ( 0.000000000000000000, 0.000000000000000000, -1.000000000000000000 ) ) ;
#207 = CARTESIAN_POINT ( 'NONE',  ( -4.999999999999987566, 28.05000000000000071, 2.000000000000000000 ) ) ;
#208 = ORIENTED_EDGE ( 'NONE', *, *, #1009, .T. ) ;
#209 = ORIENTED_EDGE ( 'NONE', *, *, #1052, .T. ) ;
#210 = DIRECTION ( 'NONE',  ( 0.000000000000000000, 0.000000000000000000, 1.000000000000000000 ) ) ;
#211 = LINE ( 'NONE', #779, #397 ) ;
#212 = VERTEX_POINT ( 'NONE', #1026 ) ;
#213 = EDGE_LOOP ( 'NONE', ( #120, #640, #80, #780 ) ) ;
#214 = CARTESIAN_POINT ( 'NONE',  ( -10.00000000000000000, 1.849999999999999645, 10.00000000000000000 ) ) ;
#215 = VECTOR ( 'NONE', #614, 1000.000000000000000 ) ;
#216 = VECTOR ( 'NONE', #262, 1000.000000000000000 ) ;
#217 = AXIS2_PLACEMENT_3D ( 'NONE', #207, #789, #865 ) ;
#218 = FACE_OUTER_BOUND ( 'NONE', #571, .T. ) ;
#219 = ORIENTED_EDGE ( 'NONE', *, *, #174, .T. ) ;
#220 = CYLINDRICAL_SURFACE ( 'NONE', #937, 0.7500000000000006661 ) ;
#221 = ORIENTED_EDGE ( 'NONE', *, *, #223, .T. ) ;
#222 = EDGE_CURVE ( 'NONE', #293, #952, #513, .T. ) ;
#223 = EDGE_CURVE ( 'NONE', #212, #551, #40, .T. ) ;
#224 = DIRECTION ( 'NONE',  ( 4.688441826964343312E-16, -1.000000000000000000, 0.000000000000000000 ) ) ;
#225 = UNCERTAINTY_MEASURE_WITH_UNIT (LENGTH_MEASURE( 1.000000000000000082E-05 ), #340, 'distance_accuracy_value', 'NONE');
#226 = DIRECTION ( 'NONE',  ( 0.000000000000000000, 0.000000000000000000, -1.000000000000000000 ) ) ;
#227 = VERTEX_POINT ( 'NONE', #30 ) ;
#228 = CARTESIAN_POINT ( 'NONE',  ( -8.000000000000000000, 1.849999999999999645, 2.250000000000000444 ) ) ;
#229 = EDGE_CURVE ( 'NONE', #135, #315, #934, .T. ) ;
#230 = ORIENTED_EDGE ( 'NONE', *, *, #486, .F. ) ;
#231 = CARTESIAN_POINT ( 'NONE',  ( 8.000000000000000000, -1.850000000000000533, 1.499999999999999778 ) ) ;
#232 = FACE_OUTER_BOUND ( 'NONE', #912, .T. ) ;
#233 = VERTEX_POINT ( 'NONE', #846 ) ;
#234 = CARTESIAN_POINT ( 'NONE',  ( -8.000000000000001776, -1.850000000000000533, 8.500000000000000000 ) ) ;
#235 = ORIENTED_EDGE ( 'NONE', *, *, #260, .F. ) ;
#236 = FACE_BOUND ( 'NONE', #386, .T. ) ;
#237 = VECTOR ( 'NONE', #102, 1000.000000000000000 ) ;
#238 = CIRCLE ( 'NONE', #360, 2.649999999999999467 ) ;
#239 = DIRECTION ( 'NONE',  ( -0.000000000000000000, 1.000000000000000000, -0.000000000000000000 ) ) ;
#240 = DIRECTION ( 'NONE',  ( 0.000000000000000000, 0.000000000000000000, 1.000000000000000000 ) ) ;
#241 = AXIS2_PLACEMENT_3D ( 'NONE', #504, #254, #916 ) ;
#242 = FACE_OUTER_BOUND ( 'NONE', #986, .T. ) ;
#243 = ORIENTED_EDGE ( 'NONE', *, *, #908, .T. ) ;
#244 = CARTESIAN_POINT ( 'NONE',  ( -8.000000000000000000, 1.849999999999999645, 2.000000000000000000 ) ) ;
#245 = DIRECTION ( 'NONE',  ( 0.000000000000000000, 1.000000000000000000, 0.000000000000000000 ) ) ;
#246 = DIRECTION ( 'NONE',  ( 0.000000000000000000, 0.000000000000000000, -1.000000000000000000 ) ) ;
#247 = ORIENTED_EDGE ( 'NONE', *, *, #486, .T. ) ;
#248 = LINE ( 'NONE', #417, #497 ) ;
#249 = FILL_AREA_STYLE ('',( #664 ) ) ;
#250 = ORIENTED_EDGE ( 'NONE', *, *, #798, .F. ) ;
#251 = DIRECTION ( 'NONE',  ( -0.000000000000000000, -1.000000000000000000, -0.000000000000000000 ) ) ;
#252 = AXIS2_PLACEMENT_3D ( 'NONE', #383, #446, #198 ) ;
#253 = AXIS2_PLACEMENT_3D ( 'NONE', #989, #496, #90 ) ;
#254 = DIRECTION ( 'NONE',  ( -1.000000000000000000, 4.688441826964343312E-16, 0.000000000000000000 ) ) ;
#255 = CIRCLE ( 'NONE', #325, 1.000000000000000888 ) ;
#256 = EDGE_LOOP ( 'NONE', ( #243, #39 ) ) ;
#257 = CIRCLE ( 'NONE', #1003, 0.7500000000000006661 ) ;
#258 = ADVANCED_FACE ( 'NONE', ( #854 ), #848, .F. ) ;
#259 = DIRECTION ( 'NONE',  ( 0.000000000000000000, 0.000000000000000000, 1.000000000000000000 ) ) ;
#260 = EDGE_CURVE ( 'NONE', #684, #212, #295, .T. ) ;
#261 = CARTESIAN_POINT ( 'NONE',  ( 8.000000000000000000, 0.000000000000000000, 0.000000000000000000 ) ) ;
#262 = DIRECTION ( 'NONE',  ( -0.000000000000000000, -1.000000000000000000, -0.000000000000000000 ) ) ;
#263 = EDGE_LOOP ( 'NONE', ( #711, #209, #618, #5 ) ) ;
#264 = EDGE_CURVE ( 'NONE', #952, #43, #541, .T. ) ;
#265 = DIRECTION ( 'NONE',  ( 0.000000000000000000, -1.000000000000000000, 0.000000000000000000 ) ) ;
#266 = LINE ( 'NONE', #915, #1056 ) ;
#267 = DIRECTION ( 'NONE',  ( 1.000000000000000000, 0.000000000000000000, 0.000000000000000000 ) ) ;
#268 = VERTEX_POINT ( 'NONE', #1014 ) ;
#269 = EDGE_CURVE ( 'NONE', #579, #766, #164, .T. ) ;
#270 = FACE_BOUND ( 'NONE', #385, .T. ) ;
#271 = ADVANCED_FACE ( 'NONE', ( #858 ), #697, .F. ) ;
#272 = CIRCLE ( 'NONE', #769, 2.000000000000000000 ) ;
#273 = DIRECTION ( 'NONE',  ( -1.000000000000000000, 0.000000000000000000, 0.000000000000000000 ) ) ;
#274 = ORIENTED_EDGE ( 'NONE', *, *, #294, .T. ) ;
#275 = AXIS2_PLACEMENT_3D ( 'NONE', #485, #387, #721 ) ;
#276 = VECTOR ( 'NONE', #1037, 1000.000000000000000 ) ;
#277 = DIRECTION ( 'NONE',  ( 0.000000000000000000, 1.000000000000000000, 0.000000000000000000 ) ) ;
#278 = EDGE_CURVE ( 'NONE', #133, #416, #803, .T. ) ;
#279 = DIRECTION ( 'NONE',  ( 0.000000000000000000, 0.000000000000000000, 1.000000000000000000 ) ) ;
#280 = ORIENTED_EDGE ( 'NONE', *, *, #32, .F. ) ;
#281 = ORIENTED_EDGE ( 'NONE', *, *, #1041, .T. ) ;
#282 = DIRECTION ( 'NONE',  ( -4.688441826964343312E-16, 1.000000000000000000, 0.000000000000000000 ) ) ;
#283 = DIRECTION ( 'NONE',  ( 0.000000000000000000, 1.000000000000000000, 0.000000000000000000 ) ) ;
#284 = EDGE_LOOP ( 'NONE', ( #880, #329, #674, #393 ) ) ;
#285 = CARTESIAN_POINT ( 'NONE',  ( -8.000000000000000000, -1.850000000000000533, 3.000000000000000888 ) ) ;
#286 = LINE ( 'NONE', #783, #990 ) ;
#287 = EDGE_LOOP ( 'NONE', ( #607, #51, #866, #690 ) ) ;
#288 = VECTOR ( 'NONE', #533, 1000.000000000000000 ) ;
#289 = DIRECTION ( 'NONE',  ( -0.000000000000000000, 1.000000000000000000, -0.000000000000000000 ) ) ;
#290 = CIRCLE ( 'NONE', #888, 0.7500000000000002220 ) ;
#291 = DIRECTION ( 'NONE',  ( -1.000000000000000000, 0.000000000000000000, 0.000000000000000000 ) ) ;
#292 = ORIENTED_EDGE ( 'NONE', *, *, #222, .F. ) ;
#293 = VERTEX_POINT ( 'NONE', #231 ) ;
#294 = EDGE_CURVE ( 'NONE', #917, #105, #727, .T. ) ;
#295 = LINE ( 'NONE', #604, #1001 ) ;
#296 = LINE ( 'NONE', #116, #413 ) ;
#297 = EDGE_LOOP ( 'NONE', ( #382, #661 ) ) ;
#298 = VERTEX_POINT ( 'NONE', #82 ) ;
#299 = LINE ( 'NONE', #1054, #46 ) ;
#300 = PLANE ( 'NONE',  #906 ) ;
#301 = ORIENTED_EDGE ( 'NONE', *, *, #89, .T. ) ;
#302 = ORIENTED_EDGE ( 'NONE', *, *, #199, .F. ) ;
#303 = VECTOR ( 'NONE', #686, 1000.000000000000000 ) ;
#304 = FACE_BOUND ( 'NONE', #715, .T. ) ;
#305 = AXIS2_PLACEMENT_3D ( 'NONE', #118, #781, #109 ) ;
#306 = CIRCLE ( 'NONE', #904, 0.7500000000000002220 ) ;
#307 = EDGE_CURVE ( 'NONE', #193, #135, #151, .T. ) ;
#308 =( NAMED_UNIT ( * ) SI_UNIT ( $, .STERADIAN. ) SOLID_ANGLE_UNIT ( ) );
#309 = ORIENTED_EDGE ( 'NONE', *, *, #528, .T. ) ;
#310 = FACE_OUTER_BOUND ( 'NONE', #263, .T. ) ;
#311 = ORIENTED_EDGE ( 'NONE', *, *, #582, .T. ) ;
#312 = EDGE_CURVE ( 'NONE', #167, #743, #238, .T. ) ;
#313 = PLANE ( 'NONE',  #429 ) ;
#314 = PLANE ( 'NONE',  #924 ) ;
#315 = VERTEX_POINT ( 'NONE', #407 ) ;
#316 = CARTESIAN_POINT ( 'NONE',  ( -5.000000000000000888, 2.344220913482171952E-15, 10.00000000000000000 ) ) ;
#317 = ORIENTED_EDGE ( 'NONE', *, *, #223, .F. ) ;
#318 = DIRECTION ( 'NONE',  ( 0.000000000000000000, -0.000000000000000000, 1.000000000000000000 ) ) ;
#319 = DIRECTION ( 'NONE',  ( 0.000000000000000000, 0.000000000000000000, 1.000000000000000000 ) ) ;
#320 = DIRECTION ( 'NONE',  ( -1.000000000000000000, 4.688441826964343312E-16, 0.000000000000000000 ) ) ;
#321 = CARTESIAN_POINT ( 'NONE',  ( -8.000000000000001776, -1.850000000000000533, 8.500000000000000000 ) ) ;
#322 = VERTEX_POINT ( 'NONE', #142 ) ;
#323 = FACE_BOUND ( 'NONE', #297, .T. ) ;
#324 = AXIS2_PLACEMENT_3D ( 'NONE', #357, #320, #1050 ) ;
#325 = AXIS2_PLACEMENT_3D ( 'NONE', #349, #182, #842 ) ;
#326 = CARTESIAN_POINT ( 'NONE',  ( 0.000000000000000000, 30.54999999999999716, 0.000000000000000000 ) ) ;
#327 = DIRECTION ( 'NONE',  ( -1.000000000000000000, 0.000000000000000000, 0.000000000000000000 ) ) ;
#328 = VECTOR ( 'NONE', #971, 1000.000000000000000 ) ;
#329 = ORIENTED_EDGE ( 'NONE', *, *, #528, .F. ) ;
#330 = DIRECTION ( 'NONE',  ( -1.000000000000000000, 0.000000000000000000, 0.000000000000000000 ) ) ;
#331 = FACE_OUTER_BOUND ( 'NONE', #467, .T. ) ;
#332 = ORIENTED_EDGE ( 'NONE', *, *, #714, .T. ) ;
#333 = CARTESIAN_POINT ( 'NONE',  ( 10.00000000000000000, 1.849999999999999645, 2.000000000000000000 ) ) ;
#334 = EDGE_CURVE ( 'NONE', #562, #917, #893, .T. ) ;
#335 = FACE_BOUND ( 'NONE', #490, .T. ) ;
#336 = ORIENTED_EDGE ( 'NONE', *, *, #748, .F. ) ;
#337 = ADVANCED_FACE ( 'NONE', ( #236, #323, #792 ), #313, .T. ) ;
#338 = DIRECTION ( 'NONE',  ( 0.000000000000000000, 1.000000000000000000, 0.000000000000000000 ) ) ;
#339 = DIRECTION ( 'NONE',  ( -0.000000000000000000, -1.000000000000000000, -0.000000000000000000 ) ) ;
#340 =( LENGTH_UNIT ( ) NAMED_UNIT ( * ) SI_UNIT ( .MILLI., .METRE. ) );
#341 = EDGE_CURVE ( 'NONE', #50, #899, #299, .T. ) ;
#342 = AXIS2_PLACEMENT_3D ( 'NONE', #506, #744, #6 ) ;
#343 = DIRECTION ( 'NONE',  ( -1.000000000000000000, 4.688441826964343312E-16, 0.000000000000000000 ) ) ;
#344 = AXIS2_PLACEMENT_3D ( 'NONE', #1011, #283, #534 ) ;
#345 = VERTEX_POINT ( 'NONE', #643 ) ;
#346 = PRODUCT_DEFINITION_FORMATION_WITH_SPECIFIED_SOURCE ( 'Symmetric', '', #682, .NOT_KNOWN. ) ;
#347 = FACE_OUTER_BOUND ( 'NONE', #1008, .T. ) ;
#348 = CYLINDRICAL_SURFACE ( 'NONE', #163, 0.7500000000000006661 ) ;
#349 = CARTESIAN_POINT ( 'NONE',  ( 0.000000000000000000, 28.05000000000000071, 8.000000000000000000 ) ) ;
#350 = ORIENTED_EDGE ( 'NONE', *, *, #933, .T. ) ;
#351 = FACE_OUTER_BOUND ( 'NONE', #945, .T. ) ;
#352 = FACE_BOUND ( 'NONE', #57, .T. ) ;
#353 = DIRECTION ( 'NONE',  ( -0.000000000000000000, -0.000000000000000000, 1.000000000000000000 ) ) ;
#354 = ORIENTED_EDGE ( 'NONE', *, *, #481, .T. ) ;
#355 = ORIENTED_EDGE ( 'NONE', *, *, #424, .T. ) ;
#356 = EDGE_CURVE ( 'NONE', #525, #776, #738, .T. ) ;
#357 = CARTESIAN_POINT ( 'NONE',  ( 5.000000000000012434, 28.04999999999999716, 8.000000000000000000 ) ) ;
#358 = DIRECTION ( 'NONE',  ( 0.000000000000000000, 1.000000000000000000, 0.000000000000000000 ) ) ;
#359 = ORIENTED_EDGE ( 'NONE', *, *, #278, .F. ) ;
#360 = AXIS2_PLACEMENT_3D ( 'NONE', #970, #712, #797 ) ;
#361 = COLOUR_RGB ( '',0.7921568627450980005, 0.8196078431372548767, 0.9333333333333333481 ) ;
#362 = EDGE_LOOP ( 'NONE', ( #130, #350 ) ) ;
#363 = DIRECTION ( 'NONE',  ( -1.000000000000000000, 0.000000000000000000, 0.000000000000000000 ) ) ;
#364 = DIRECTION ( 'NONE',  ( 1.000000000000000000, 0.000000000000000000, 0.000000000000000000 ) ) ;
#365 = ORIENTED_EDGE ( 'NONE', *, *, #844, .T. ) ;
#366 = ADVANCED_BREP_SHAPE_REPRESENTATION ( 'Jaw holder', ( #778, #838 ), #585 ) ;
#367 = CARTESIAN_POINT ( 'NONE',  ( -5.000000000000000888, 30.54999999999999716, 0.000000000000000000 ) ) ;
#368 = FACE_BOUND ( 'NONE', #74, .T. ) ;
#369 = ORIENTED_EDGE ( 'NONE', *, *, #526, .T. ) ;
#370 = PRODUCT_RELATED_PRODUCT_CATEGORY ( 'part', '', ( #682 ) ) ;
#371 = EDGE_CURVE ( 'NONE', #899, #105, #886, .T. ) ;
#372 = CARTESIAN_POINT ( 'NONE',  ( -8.000000000000000000, -1.850000000000000533, 2.250000000000000444 ) ) ;
#373 = CARTESIAN_POINT ( 'NONE',  ( 8.000000000000000000, -1.850000000000000533, 2.250000000000000444 ) ) ;
#374 = EDGE_LOOP ( 'NONE', ( #235, #843, #553, #694, #192, #1045, #930, #707, #95, #530 ) ) ;
#375 = EDGE_CURVE ( 'NONE', #484, #477, #478, .T. ) ;
#376 = AXIS2_PLACEMENT_3D ( 'NONE', #437, #277, #404 ) ;
#377 = VECTOR ( 'NONE', #1031, 1000.000000000000000 ) ;
#378 = DIRECTION ( 'NONE',  ( -0.000000000000000000, 0.000000000000000000, 1.000000000000000000 ) ) ;
#379 = AXIS2_PLACEMENT_3D ( 'NONE', #493, #327, #817 ) ;
#380 = CARTESIAN_POINT ( 'NONE',  ( 0.000000000000000000, -1.850000000000000533, 0.000000000000000000 ) ) ;
#381 = ORIENTED_EDGE ( 'NONE', *, *, #452, .F. ) ;
#382 = ORIENTED_EDGE ( 'NONE', *, *, #680, .F. ) ;
#383 = CARTESIAN_POINT ( 'NONE',  ( 8.000000000000000000, -1.850000000000000533, 2.250000000000000444 ) ) ;
#384 = DIRECTION ( 'NONE',  ( -8.673617379884027583E-16, -1.000000000000000000, 0.000000000000000000 ) ) ;
#385 = EDGE_LOOP ( 'NONE', ( #55, #926 ) ) ;
#386 = EDGE_LOOP ( 'NONE', ( #962, #555 ) ) ;
#387 = DIRECTION ( 'NONE',  ( 0.000000000000000000, 1.000000000000000000, 0.000000000000000000 ) ) ;
#388 = EDGE_CURVE ( 'NONE', #869, #59, #806, .T. ) ;
#389 = FACE_BOUND ( 'NONE', #876, .T. ) ;
#390 = ORIENTED_EDGE ( 'NONE', *, *, #687, .F. ) ;
#391 = EDGE_CURVE ( 'NONE', #932, #315, #871, .T. ) ;
#392 = LINE ( 'NONE', #717, #276 ) ;
#393 = ORIENTED_EDGE ( 'NONE', *, *, #855, .T. ) ;
#394 = VECTOR ( 'NONE', #289, 1000.000000000000000 ) ;
#395 = CARTESIAN_POINT ( 'NONE',  ( 0.000000000000000000, 1.849999999999999645, 10.00000000000000000 ) ) ;
#396 = AXIS2_PLACEMENT_3D ( 'NONE', #244, #156, #566 ) ;
#397 = VECTOR ( 'NONE', #1007, 1000.000000000000000 ) ;
#398 = CARTESIAN_POINT ( 'NONE',  ( -10.00000000000000000, 0.000000000000000000, 10.00000000000000000 ) ) ;
#399 = ORIENTED_EDGE ( 'NONE', *, *, #767, .T. ) ;
#400 = CYLINDRICAL_SURFACE ( 'NONE', #459, 2.000000000000000000 ) ;
#401 = ORIENTED_EDGE ( 'NONE', *, *, #612, .F. ) ;
#402 = FACE_BOUND ( 'NONE', #653, .T. ) ;
#403 = CARTESIAN_POINT ( 'NONE',  ( -8.000000000000001776, -1.850000000000000533, 7.750000000000000000 ) ) ;
#404 = DIRECTION ( 'NONE',  ( 0.000000000000000000, 0.000000000000000000, 1.000000000000000000 ) ) ;
#405 = LINE ( 'NONE', #742, #619 ) ;
#406 = ORIENTED_EDGE ( 'NONE', *, *, #1041, .F. ) ;
#407 = CARTESIAN_POINT ( 'NONE',  ( 5.000000000000000000, 1.849999999999999645, 0.000000000000000000 ) ) ;
#408 = DIRECTION ( 'NONE',  ( 0.000000000000000000, 0.000000000000000000, 1.000000000000000000 ) ) ;
#409 = FACE_OUTER_BOUND ( 'NONE', #117, .T. ) ;
#410 = ORIENTED_EDGE ( 'NONE', *, *, #615, .T. ) ;
#411 = DIRECTION ( 'NONE',  ( 0.000000000000000000, 1.000000000000000000, 0.000000000000000000 ) ) ;
#412 = AXIS2_PLACEMENT_3D ( 'NONE', #372, #931, #536 ) ;
#413 = VECTOR ( 'NONE', #622, 1000.000000000000000 ) ;
#414 = AXIS2_PLACEMENT_3D ( 'NONE', #524, #709, #474 ) ;
#415 = CARTESIAN_POINT ( 'NONE',  ( -8.000000000000000000, 1.849999999999999645, 10.00000000000000000 ) ) ;
#416 = VERTEX_POINT ( 'NONE', #877 ) ;
#417 = CARTESIAN_POINT ( 'NONE',  ( 3.061616997868382155E-16, 10.54999999999999716, 10.00000000000000000 ) ) ;
#418 = EDGE_CURVE ( 'NONE', #703, #458, #655, .T. ) ;
#419 = SURFACE_STYLE_FILL_AREA ( #923 ) ;
#420 = ADVANCED_FACE ( 'NONE', ( #402, #468, #739 ), #572, .T. ) ;
#421 = CARTESIAN_POINT ( 'NONE',  ( 0.000000000000000000, 30.54999999999999716, 10.00000000000000000 ) ) ;
#422 = ORIENTED_EDGE ( 'NONE', *, *, #307, .T. ) ;
#423 = CARTESIAN_POINT ( 'NONE',  ( 8.000000000000001776, -1.850000000000000533, 7.750000000000000000 ) ) ;
#424 = EDGE_CURVE ( 'NONE', #892, #784, #144, .T. ) ;
#425 = ORIENTED_EDGE ( 'NONE', *, *, #859, .T. ) ;
#426 = ADVANCED_FACE ( 'NONE', ( #304, #649, #889 ), #554, .F. ) ;
#427 = CARTESIAN_POINT ( 'NONE',  ( 10.00000000000000000, -1.850000000000000533, 2.000000000000000000 ) ) ;
#428 = FACE_OUTER_BOUND ( 'NONE', #538, .T. ) ;
#429 = AXIS2_PLACEMENT_3D ( 'NONE', #732, #637, #960 ) ;
#430 = CARTESIAN_POINT ( 'NONE',  ( -2.649999999999999467, 5.549999999999998934, 0.000000000000000000 ) ) ;
#431 = CIRCLE ( 'NONE', #584, 0.7500000000000002220 ) ;
#432 = EDGE_LOOP ( 'NONE', ( #292, #1035, #763, #183 ) ) ;
#433 = DIRECTION ( 'NONE',  ( 1.000000000000000000, -4.688441826964343312E-16, 0.000000000000000000 ) ) ;
#434 = CARTESIAN_POINT ( 'NONE',  ( 8.000000000000001776, -1.850000000000000533, 6.999999999999999112 ) ) ;
#435 = CARTESIAN_POINT ( 'NONE',  ( 0.000000000000000000, 27.05000000000000071, 8.000000000000000000 ) ) ;
#436 = VERTEX_POINT ( 'NONE', #75 ) ;
#437 = CARTESIAN_POINT ( 'NONE',  ( 8.000000000000000000, 1.849999999999999645, 2.250000000000000444 ) ) ;
#438 = CYLINDRICAL_SURFACE ( 'NONE', #241, 1.000000000000000888 ) ;
#439 = ORIENTED_EDGE ( 'NONE', *, *, #641, .F. ) ;
#440 = PLANE ( 'NONE',  #441 ) ;
#441 = AXIS2_PLACEMENT_3D ( 'NONE', #125, #52, #282 ) ;
#442 = CARTESIAN_POINT ( 'NONE',  ( 8.000000000000000000, 1.849999999999999645, 1.499999999999999778 ) ) ;
#443 = ORIENTED_EDGE ( 'NONE', *, *, #466, .F. ) ;
#444 = AXIS2_PLACEMENT_3D ( 'NONE', #395, #953, #318 ) ;
#445 = AXIS2_PLACEMENT_3D ( 'NONE', #1004, #860, #279 ) ;
#446 = DIRECTION ( 'NONE',  ( -0.000000000000000000, 1.000000000000000000, -0.000000000000000000 ) ) ;
#447 = ADVANCED_FACE ( 'NONE', ( #351 ), #662, .F. ) ;
#448 = ADVANCED_FACE ( 'NONE', ( #347 ), #101, .T. ) ;
#449 = CARTESIAN_POINT ( 'NONE',  ( 8.000000000000000000, 1.849999999999999645, 0.000000000000000000 ) ) ;
#450 = ORIENTED_EDGE ( 'NONE', *, *, #7, .F. ) ;
#451 = FACE_OUTER_BOUND ( 'NONE', #432, .T. ) ;
#452 = EDGE_CURVE ( 'NONE', #458, #298, #819, .T. ) ;
#453 = CARTESIAN_POINT ( 'NONE',  ( -8.000000000000000000, 1.849999999999999645, 0.000000000000000000 ) ) ;
#454 = ORIENTED_EDGE ( 'NONE', *, *, #798, .T. ) ;
#455 = DIRECTION ( 'NONE',  ( -0.000000000000000000, 0.000000000000000000, 1.000000000000000000 ) ) ;
#456 = EDGE_CURVE ( 'NONE', #758, #477, #1033, .T. ) ;
#457 = DIRECTION ( 'NONE',  ( 0.000000000000000000, 1.000000000000000000, -0.000000000000000000 ) ) ;
#458 = VERTEX_POINT ( 'NONE', #676 ) ;
#459 = AXIS2_PLACEMENT_3D ( 'NONE', #476, #1051, #246 ) ;
#460 = VERTEX_POINT ( 'NONE', #588 ) ;
#461 = VECTOR ( 'NONE', #353, 1000.000000000000000 ) ;
#462 = CARTESIAN_POINT ( 'NONE',  ( 0.000000000000000000, 29.05000000000000426, 8.000000000000000000 ) ) ;
#463 = VECTOR ( 'NONE', #966, 1000.000000000000000 ) ;
#464 = DIRECTION ( 'NONE',  ( 1.000000000000000000, 0.000000000000000000, 0.000000000000000000 ) ) ;
#465 = EDGE_LOOP ( 'NONE', ( #623, #1039, #401, #317 ) ) ;
#466 = EDGE_CURVE ( 'NONE', #832, #268, #248, .T. ) ;
#467 = EDGE_LOOP ( 'NONE', ( #700, #1019, #811, #54 ) ) ;
#468 = FACE_BOUND ( 'NONE', #750, .T. ) ;
#469 = CARTESIAN_POINT ( 'NONE',  ( -8.000000000000000000, -1.850000000000000533, 1.500000000000000000 ) ) ;
#470 = ORIENTED_EDGE ( 'NONE', *, *, #722, .T. ) ;
#471 = DIRECTION ( 'NONE',  ( -0.000000000000000000, -1.000000000000000000, -0.000000000000000000 ) ) ;
#472 = ORIENTED_EDGE ( 'NONE', *, *, #615, .F. ) ;
#473 = CARTESIAN_POINT ( 'NONE',  ( -5.000000000000000888, 2.344220913482171952E-15, 10.00000000000000000 ) ) ;
#474 = DIRECTION ( 'NONE',  ( 8.673617379884027583E-16, 1.000000000000000000, 0.000000000000000000 ) ) ;
#475 = ORIENTED_EDGE ( 'NONE', *, *, #229, .F. ) ;
#476 = CARTESIAN_POINT ( 'NONE',  ( 8.000000000000000000, 0.000000000000000000, 8.000000000000000000 ) ) ;
#477 = VERTEX_POINT ( 'NONE', #427 ) ;
#478 = LINE ( 'NONE', #56, #545 ) ;
#479 = VECTOR ( 'NONE', #777, 1000.000000000000000 ) ;
#480 = CIRCLE ( 'NONE', #166, 2.000000000000000000 ) ;
#481 = EDGE_CURVE ( 'NONE', #784, #505, #502, .T. ) ;
#482 = CYLINDRICAL_SURFACE ( 'NONE', #324, 1.000000000000000888 ) ;
#483 = LINE ( 'NONE', #73, #515 ) ;
#484 = VERTEX_POINT ( 'NONE', #1 ) ;
#485 = CARTESIAN_POINT ( 'NONE',  ( 8.000000000000000000, 1.849999999999999645, 8.000000000000000000 ) ) ;
#486 = EDGE_CURVE ( 'NONE', #124, #603, #113, .T. ) ;
#487 = CARTESIAN_POINT ( 'NONE',  ( -0.000000000000000000, 1.849999999999999645, 0.000000000000000000 ) ) ;
#488 = CARTESIAN_POINT ( 'NONE',  ( 8.000000000000000000, 1.849999999999999645, 3.000000000000000444 ) ) ;
#489 = LINE ( 'NONE', #316, #600 ) ;
#490 = EDGE_LOOP ( 'NONE', ( #1024, #359 ) ) ;
#491 = CARTESIAN_POINT ( 'NONE',  ( 5.000000000000000888, 2.344220913482171952E-15, 0.000000000000000000 ) ) ;
#492 = CARTESIAN_POINT ( 'NONE',  ( 5.000000000000012434, 28.04999999999999716, 2.000000000000000000 ) ) ;
#493 = CARTESIAN_POINT ( 'NONE',  ( 0.000000000000000000, 28.05000000000000071, 8.000000000000000000 ) ) ;
#494 = ORIENTED_EDGE ( 'NONE', *, *, #859, .F. ) ;
#495 = EDGE_CURVE ( 'NONE', #124, #233, #671, .T. ) ;
#496 = DIRECTION ( 'NONE',  ( -0.000000000000000000, 1.000000000000000000, -0.000000000000000000 ) ) ;
#497 = VECTOR ( 'NONE', #747, 1000.000000000000000 ) ;
#498 = VECTOR ( 'NONE', #204, 1000.000000000000000 ) ;
#499 = SURFACE_STYLE_USAGE ( .BOTH. , #898 ) ;
#500 = VERTEX_POINT ( 'NONE', #510 ) ;
#501 = ADVANCED_FACE ( 'NONE', ( #897 ), #833, .F. ) ;
#502 = LINE ( 'NONE', #828, #29 ) ;
#503 = EDGE_CURVE ( 'NONE', #233, #20, #850, .T. ) ;
#504 = CARTESIAN_POINT ( 'NONE',  ( 5.000000000000012434, 28.04999999999999716, 2.000000000000000000 ) ) ;
#505 = VERTEX_POINT ( 'NONE', #333 ) ;
#506 = CARTESIAN_POINT ( 'NONE',  ( 8.000000000000001776, 1.849999999999999645, 7.750000000000000000 ) ) ;
#507 = DIRECTION ( 'NONE',  ( 0.000000000000000000, 1.000000000000000000, 0.000000000000000000 ) ) ;
#508 = PLANE ( 'NONE',  #636 ) ;
#509 = ORIENTED_EDGE ( 'NONE', *, *, #143, .T. ) ;
#510 = CARTESIAN_POINT ( 'NONE',  ( -4.999999999999999112, 1.849999999999999645, 0.000000000000000000 ) ) ;
#511 = DIRECTION ( 'NONE',  ( 0.000000000000000000, 1.000000000000000000, 0.000000000000000000 ) ) ;
#512 = CLOSED_SHELL ( 'NONE', ( #78, #1046, #567, #608, #91, #173, #875, #158, #642, #426, #420, #984, #70, #271, #447, #337, #751, #902, #532, #1013, #448, #560, #501, #954, #2, #258, #1027, #947, #692, #624 ) ) ;
#513 = CIRCLE ( 'NONE', #836, 0.7500000000000002220 ) ;
#514 = CARTESIAN_POINT ( 'NONE',  ( 8.000000000000000000, -1.850000000000000533, 0.000000000000000000 ) ) ;
#515 = VECTOR ( 'NONE', #552, 1000.000000000000000 ) ;
#516 = ORIENTED_EDGE ( 'NONE', *, *, #696, .F. ) ;
#517 = AXIS2_PLACEMENT_3D ( 'NONE', #1028, #644, #733 ) ;
#518 = ORIENTED_EDGE ( 'NONE', *, *, #7, .T. ) ;
#519 = DIRECTION ( 'NONE',  ( -0.000000000000000000, 1.000000000000000000, -0.000000000000000000 ) ) ;
#520 = CARTESIAN_POINT ( 'NONE',  ( 8.000000000000001776, -1.850000000000000533, 8.500000000000000000 ) ) ;
#521 = ORIENTED_EDGE ( 'NONE', *, *, #1047, .F. ) ;
#522 = EDGE_LOOP ( 'NONE', ( #787, #281, #129, #719 ) ) ;
#523 = CARTESIAN_POINT ( 'NONE',  ( 4.999999999999998224, 5.549999999999999822, 10.00000000000000000 ) ) ;
#524 = CARTESIAN_POINT ( 'NONE',  ( -4.999999999999987566, 28.05000000000000071, 2.000000000000000000 ) ) ;
#525 = VERTEX_POINT ( 'NONE', #667 ) ;
#526 = EDGE_CURVE ( 'NONE', #200, #892, #983, .T. ) ;
#527 = CARTESIAN_POINT ( 'NONE',  ( 2.649999999999999467, 5.549999999999998934, 0.000000000000000000 ) ) ;
#528 = EDGE_CURVE ( 'NONE', #603, #124, #531, .T. ) ;
#529 = FACE_OUTER_BOUND ( 'NONE', #93, .T. ) ;
#530 = ORIENTED_EDGE ( 'NONE', *, *, #197, .F. ) ;
#531 = CIRCLE ( 'NONE', #61, 0.7500000000000006661 ) ;
#532 = ADVANCED_FACE ( 'NONE', ( #96 ), #14, .T. ) ;
#533 = DIRECTION ( 'NONE',  ( -0.000000000000000000, -0.000000000000000000, -1.000000000000000000 ) ) ;
#534 = DIRECTION ( 'NONE',  ( 0.000000000000000000, 0.000000000000000000, 1.000000000000000000 ) ) ;
#535 = ORIENTED_EDGE ( 'NONE', *, *, #37, .T. ) ;
#536 = DIRECTION ( 'NONE',  ( 0.000000000000000000, 0.000000000000000000, 1.000000000000000000 ) ) ;
#537 = LINE ( 'NONE', #380, #688 ) ;
#538 = EDGE_LOOP ( 'NONE', ( #539, #628, #381, #596 ) ) ;
#539 = ORIENTED_EDGE ( 'NONE', *, *, #698, .F. ) ;
#540 = EDGE_CURVE ( 'NONE', #460, #200, #405, .T. ) ;
#541 = LINE ( 'NONE', #788, #479 ) ;
#542 = DIRECTION ( 'NONE',  ( 0.000000000000000000, 0.000000000000000000, 1.000000000000000000 ) ) ;
#543 = ORIENTED_EDGE ( 'NONE', *, *, #312, .T. ) ;
#544 = CIRCLE ( 'NONE', #900, 2.649999999999999467 ) ;
#545 = VECTOR ( 'NONE', #1048, 1000.000000000000000 ) ;
#546 = ORIENTED_EDGE ( 'NONE', *, *, #341, .F. ) ;
#547 = AXIS2_PLACEMENT_3D ( 'NONE', #652, #639, #660 ) ;
#548 = CARTESIAN_POINT ( 'NONE',  ( -10.00000000000000000, 0.000000000000000000, 8.000000000000000000 ) ) ;
#549 = STYLED_ITEM ( 'NONE', ( #103 ), #366 ) ;
#550 = LINE ( 'NONE', #713, #463 ) ;
#551 = VERTEX_POINT ( 'NONE', #978 ) ;
#552 = DIRECTION ( 'NONE',  ( -1.530808498934190893E-17, 1.000000000000000000, 0.000000000000000000 ) ) ;
#553 = ORIENTED_EDGE ( 'NONE', *, *, #89, .F. ) ;
#554 = PLANE ( 'NONE',  #864 ) ;
#555 = ORIENTED_EDGE ( 'NONE', *, *, #503, .F. ) ;
#556 = DIRECTION ( 'NONE',  ( 0.000000000000000000, 1.000000000000000000, 0.000000000000000000 ) ) ;
#557 = ORIENTED_EDGE ( 'NONE', *, *, #647, .F. ) ;
#558 = CARTESIAN_POINT ( 'NONE',  ( -8.000000000000001776, 1.849999999999999645, 7.750000000000000000 ) ) ;
#559 = EDGE_CURVE ( 'NONE', #416, #743, #159, .T. ) ;
#560 = ADVANCED_FACE ( 'NONE', ( #331 ), #400, .T. ) ;
#561 = DIRECTION ( 'NONE',  ( -1.000000000000000000, 4.688441826964343312E-16, 0.000000000000000000 ) ) ;
#562 = VERTEX_POINT ( 'NONE', #570 ) ;
#563 = LINE ( 'NONE', #234, #740 ) ;
#564 = EDGE_LOOP ( 'NONE', ( #336, #907, #221, #847 ) ) ;
#565 = AXIS2_PLACEMENT_3D ( 'NONE', #77, #339, #408 ) ;
#566 = DIRECTION ( 'NONE',  ( 0.000000000000000000, 0.000000000000000000, 1.000000000000000000 ) ) ;
#567 = ADVANCED_FACE ( 'NONE', ( #310 ), #735, .F. ) ;
#568 = VECTOR ( 'NONE', #224, 1000.000000000000000 ) ;
#569 = CARTESIAN_POINT ( 'NONE',  ( -10.00000000000000000, 1.849999999999999645, 2.000000000000000000 ) ) ;
#570 = CARTESIAN_POINT ( 'NONE',  ( -10.00000000000000000, -1.850000000000000533, 8.000000000000000000 ) ) ;
#571 = EDGE_LOOP ( 'NONE', ( #280, #1059, #155, #68 ) ) ;
#572 = PLANE ( 'NONE',  #444 ) ;
#573 = FACE_OUTER_BOUND ( 'NONE', #284, .T. ) ;
#574 = DIRECTION ( 'NONE',  ( -0.000000000000000000, 1.000000000000000000, -0.000000000000000000 ) ) ;
#575 = ORIENTED_EDGE ( 'NONE', *, *, #32, .T. ) ;
#576 = DIRECTION ( 'NONE',  ( 0.000000000000000000, 1.000000000000000000, 0.000000000000000000 ) ) ;
#577 = EDGE_CURVE ( 'NONE', #436, #869, #599, .T. ) ;
#578 = SURFACE_STYLE_FILL_AREA ( #249 ) ;
#579 = VERTEX_POINT ( 'NONE', #321 ) ;
#580 = CARTESIAN_POINT ( 'NONE',  ( -4.999999999999987566, 28.05000000000000071, 8.000000000000000000 ) ) ;
#581 = AXIS2_PLACEMENT_3D ( 'NONE', #863, #36, #210 ) ;
#582 = EDGE_CURVE ( 'NONE', #1000, #25, #431, .T. ) ;
#583 = AXIS2_PLACEMENT_3D ( 'NONE', #558, #411, #881 ) ;
#584 = AXIS2_PLACEMENT_3D ( 'NONE', #228, #556, #885 ) ;
#585 =( GEOMETRIC_REPRESENTATION_CONTEXT ( 3 ) GLOBAL_UNCERTAINTY_ASSIGNED_CONTEXT ( ( #943 ) ) GLOBAL_UNIT_ASSIGNED_CONTEXT ( ( #145, #76, #308 ) ) REPRESENTATION_CONTEXT ( 'NONE', 'WORKASPACE' ) );
#586 = CARTESIAN_POINT ( 'NONE',  ( -8.000000000000001776, 1.849999999999999645, 8.500000000000000000 ) ) ;
#587 = EDGE_LOOP ( 'NONE', ( #230, #773, #12, #390 ) ) ;
#588 = CARTESIAN_POINT ( 'NONE',  ( -8.000000000000000000, -1.850000000000000533, 10.00000000000000000 ) ) ;
#589 = CARTESIAN_POINT ( 'NONE',  ( -8.000000000000001776, -1.850000000000000533, 7.750000000000000000 ) ) ;
#590 =( NAMED_UNIT ( * ) SI_UNIT ( $, .STERADIAN. ) SOLID_ANGLE_UNIT ( ) );
#591 = FACE_OUTER_BOUND ( 'NONE', #213, .T. ) ;
#592 = ORIENTED_EDGE ( 'NONE', *, *, #829, .F. ) ;
#593 = DIRECTION ( 'NONE',  ( 0.000000000000000000, 0.000000000000000000, -1.000000000000000000 ) ) ;
#594 = CARTESIAN_POINT ( 'NONE',  ( 3.061616997868377225E-16, 10.54999999999999716, 0.000000000000000000 ) ) ;
#595 = LINE ( 'NONE', #992, #461 ) ;
#596 = ORIENTED_EDGE ( 'NONE', *, *, #418, .F. ) ;
#597 = DIRECTION ( 'NONE',  ( 0.000000000000000000, 1.000000000000000000, 0.000000000000000000 ) ) ;
#598 = APPLICATION_PROTOCOL_DEFINITION ( 'draft international standard', 'automotive_design', 1998, #919 ) ;
#599 = CIRCLE ( 'NONE', #785, 1.000000000000000888 ) ;
#600 = VECTOR ( 'NONE', #1044, 1000.000000000000000 ) ;
#601 = DIRECTION ( 'NONE',  ( -0.000000000000000000, 1.000000000000000000, -0.000000000000000000 ) ) ;
#602 = COLOUR_RGB ( '',1.000000000000000000, 1.000000000000000000, 0.000000000000000000 ) ;
#603 = VERTEX_POINT ( 'NONE', #973 ) ;
#604 = CARTESIAN_POINT ( 'NONE',  ( 0.000000000000000000, 30.54999999999999716, 0.000000000000000000 ) ) ;
#605 =( NAMED_UNIT ( * ) SI_UNIT ( $, .STERADIAN. ) SOLID_ANGLE_UNIT ( ) );
#606 = ORIENTED_EDGE ( 'NONE', *, *, #388, .F. ) ;
#607 = ORIENTED_EDGE ( 'NONE', *, *, #178, .F. ) ;
#608 = ADVANCED_FACE ( 'NONE', ( #242 ), #220, .F. ) ;
#609 = LINE ( 'NONE', #626, #394 ) ;
#610 = CARTESIAN_POINT ( 'NONE',  ( 8.000000000000000000, 1.849999999999999645, 10.00000000000000000 ) ) ;
#611 = ORIENTED_EDGE ( 'NONE', *, *, #716, .F. ) ;
#612 = EDGE_CURVE ( 'NONE', #551, #227, #489, .T. ) ;
#613 = ORIENTED_EDGE ( 'NONE', *, *, #698, .T. ) ;
#614 = DIRECTION ( 'NONE',  ( 0.000000000000000000, 0.000000000000000000, 1.000000000000000000 ) ) ;
#615 = EDGE_CURVE ( 'NONE', #703, #196, #185, .T. ) ;
#616 = CIRCLE ( 'NONE', #565, 2.000000000000000000 ) ;
#617 = DIRECTION ( 'NONE',  ( -1.000000000000000000, 0.000000000000000000, 0.000000000000000000 ) ) ;
#618 = ORIENTED_EDGE ( 'NONE', *, *, #935, .T. ) ;
#619 = VECTOR ( 'NONE', #4, 1000.000000000000000 ) ;
#620 =( GEOMETRIC_REPRESENTATION_CONTEXT ( 3 ) GLOBAL_UNCERTAINTY_ASSIGNED_CONTEXT ( ( #1032 ) ) GLOBAL_UNIT_ASSIGNED_CONTEXT ( ( #745, #669, #605 ) ) REPRESENTATION_CONTEXT ( 'NONE', 'WORKASPACE' ) );
#621 = DIRECTION ( 'NONE',  ( 0.000000000000000000, 1.000000000000000000, -0.000000000000000000 ) ) ;
#622 = DIRECTION ( 'NONE',  ( -0.000000000000000000, -0.000000000000000000, -1.000000000000000000 ) ) ;
#623 = ORIENTED_EDGE ( 'NONE', *, *, #197, .T. ) ;
#624 = ADVANCED_FACE ( 'NONE', ( #409 ), #85, .F. ) ;
#625 = VERTEX_POINT ( 'NONE', #415 ) ;
#626 = CARTESIAN_POINT ( 'NONE',  ( 8.000000000000000000, -1.850000000000000533, 1.500000000000000000 ) ) ;
#627 = CARTESIAN_POINT ( 'NONE',  ( -8.000000000000000000, -1.850000000000000533, 2.250000000000000444 ) ) ;
#628 = ORIENTED_EDGE ( 'NONE', *, *, #716, .T. ) ;
#629 = ORIENTED_EDGE ( 'NONE', *, *, #356, .F. ) ;
#630 = DIRECTION ( 'NONE',  ( -1.000000000000000000, 4.688441826964343312E-16, 0.000000000000000000 ) ) ;
#631 = DIRECTION ( 'NONE',  ( 0.000000000000000000, 0.000000000000000000, 1.000000000000000000 ) ) ;
#632 = ORIENTED_EDGE ( 'NONE', *, *, #829, .T. ) ;
#633 = CIRCLE ( 'NONE', #918, 4.999999999999998224 ) ;
#634 = AXIS2_PLACEMENT_3D ( 'NONE', #203, #378, #948 ) ;
#635 = ORIENTED_EDGE ( 'NONE', *, *, #941, .F. ) ;
#636 = AXIS2_PLACEMENT_3D ( 'NONE', #683, #831, #267 ) ;
#637 = DIRECTION ( 'NONE',  ( 0.000000000000000000, 1.000000000000000000, 0.000000000000000000 ) ) ;
#638 = ORIENTED_EDGE ( 'NONE', *, *, #456, .F. ) ;
#639 = DIRECTION ( 'NONE',  ( -0.000000000000000000, -0.000000000000000000, -1.000000000000000000 ) ) ;
#640 = ORIENTED_EDGE ( 'NONE', *, *, #914, .F. ) ;
#641 = EDGE_CURVE ( 'NONE', #579, #776, #563, .T. ) ;
#642 = ADVANCED_FACE ( 'NONE', ( #646 ), #879, .T. ) ;
#643 = CARTESIAN_POINT ( 'NONE',  ( -4.999999999999986677, 29.05000000000000426, 2.000000000000000000 ) ) ;
#644 = DIRECTION ( 'NONE',  ( 1.000000000000000000, 1.530808498934190893E-17, -0.000000000000000000 ) ) ;
#645 = EDGE_LOOP ( 'NONE', ( #309, #247 ) ) ;
#646 = FACE_OUTER_BOUND ( 'NONE', #946, .T. ) ;
#647 = EDGE_CURVE ( 'NONE', #193, #832, #186, .T. ) ;
#648 = ORIENTED_EDGE ( 'NONE', *, *, #540, .F. ) ;
#649 = FACE_BOUND ( 'NONE', #362, .T. ) ;
#650 = LINE ( 'NONE', #977, #328 ) ;
#651 = FACE_BOUND ( 'NONE', #256, .T. ) ;
#652 = CARTESIAN_POINT ( 'NONE',  ( 0.000000000000000000, 5.549999999999998934, 10.00000000000000000 ) ) ;
#653 = EDGE_LOOP ( 'NONE', ( #141, #99 ) ) ;
#654 = VECTOR ( 'NONE', #965, 1000.000000000000000 ) ;
#655 = LINE ( 'NONE', #812, #955 ) ;
#656 = AXIS2_PLACEMENT_3D ( 'NONE', #913, #21, #980 ) ;
#657 = VECTOR ( 'NONE', #273, 1000.000000000000000 ) ;
#658 = EDGE_CURVE ( 'NONE', #35, #684, #483, .T. ) ;
#659 = CYLINDRICAL_SURFACE ( 'NONE', #88, 0.7500000000000006661 ) ;
#660 = DIRECTION ( 'NONE',  ( -1.000000000000000000, 0.000000000000000000, 0.000000000000000000 ) ) ;
#661 = ORIENTED_EDGE ( 'NONE', *, *, #66, .F. ) ;
#662 = CYLINDRICAL_SURFACE ( 'NONE', #770, 2.649999999999999467 ) ;
#663 = EDGE_CURVE ( 'NONE', #484, #200, #480, .T. ) ;
#664 = FILL_AREA_STYLE_COLOUR ( '', #361 ) ;
#665 = ORIENTED_EDGE ( 'NONE', *, *, #199, .T. ) ;
#666 = EDGE_CURVE ( 'NONE', #35, #832, #392, .T. ) ;
#667 = CARTESIAN_POINT ( 'NONE',  ( -8.000000000000001776, 1.849999999999999645, 6.999999999999999112 ) ) ;
#668 = FILL_AREA_STYLE_COLOUR ( '', #602 ) ;
#669 =( NAMED_UNIT ( * ) PLANE_ANGLE_UNIT ( ) SI_UNIT ( $, .RADIAN. ) );
#670 = ORIENTED_EDGE ( 'NONE', *, *, #33, .T. ) ;
#671 = LINE ( 'NONE', #759, #718 ) ;
#672 = CARTESIAN_POINT ( 'NONE',  ( 0.000000000000000000, 1.849999999999999645, 10.00000000000000000 ) ) ;
#673 = LINE ( 'NONE', #999, #1036 ) ;
#674 = ORIENTED_EDGE ( 'NONE', *, *, #687, .T. ) ;
#675 = EDGE_CURVE ( 'NONE', #625, #460, #963, .T. ) ;
#676 = CARTESIAN_POINT ( 'NONE',  ( -4.999999999999988454, 27.05000000000000071, 8.000000000000000000 ) ) ;
#677 = CARTESIAN_POINT ( 'NONE',  ( -8.000000000000000000, -1.850000000000000533, 0.000000000000000000 ) ) ;
#678 = DIRECTION ( 'NONE',  ( -0.000000000000000000, 1.000000000000000000, -0.000000000000000000 ) ) ;
#679 = ORIENTED_EDGE ( 'NONE', *, *, #577, .F. ) ;
#680 = EDGE_CURVE ( 'NONE', #43, #796, #771, .T. ) ;
#681 = CARTESIAN_POINT ( 'NONE',  ( 5.000000000000000000, 1.849999999999999645, 10.00000000000000000 ) ) ;
#682 = PRODUCT ( 'Jaw holder', 'Jaw holder', '', ( #190 ) ) ;
#683 = CARTESIAN_POINT ( 'NONE',  ( 0.000000000000000000, 0.000000000000000000, 10.00000000000000000 ) ) ;
#684 = VERTEX_POINT ( 'NONE', #98 ) ;
#685 = ORIENTED_EDGE ( 'NONE', *, *, #456, .T. ) ;
#686 = DIRECTION ( 'NONE',  ( -0.000000000000000000, -1.000000000000000000, -0.000000000000000000 ) ) ;
#687 = EDGE_CURVE ( 'NONE', #603, #20, #11, .T. ) ;
#688 = VECTOR ( 'NONE', #464, 1000.000000000000000 ) ;
#689 = CARTESIAN_POINT ( 'NONE',  ( 4.999999999999998224, 5.549999999999999822, 0.000000000000000000 ) ) ;
#690 = ORIENTED_EDGE ( 'NONE', *, *, #680, .T. ) ;
#691 = CARTESIAN_POINT ( 'NONE',  ( -8.000000000000001776, -1.850000000000000533, 7.750000000000000000 ) ) ;
#692 = ADVANCED_FACE ( 'NONE', ( #591 ), #438, .F. ) ;
#693 = LINE ( 'NONE', #42, #498 ) ;
#694 = ORIENTED_EDGE ( 'NONE', *, *, #391, .T. ) ;
#695 = EDGE_LOOP ( 'NONE', ( #521, #827, #1029, #887, #975, #670 ) ) ;
#696 = EDGE_CURVE ( 'NONE', #315, #840, #23, .T. ) ;
#697 = PLANE ( 'NONE',  #1016 ) ;
#698 = EDGE_CURVE ( 'NONE', #196, #703, #255, .T. ) ;
#699 = CARTESIAN_POINT ( 'NONE',  ( 0.000000000000000000, 5.549999999999998934, 0.000000000000000000 ) ) ;
#700 = ORIENTED_EDGE ( 'NONE', *, *, #663, .F. ) ;
#701 = CARTESIAN_POINT ( 'NONE',  ( 8.000000000000000000, -1.850000000000000533, 10.00000000000000000 ) ) ;
#702 = CARTESIAN_POINT ( 'NONE',  ( 0.000000000000000000, 28.05000000000000071, 2.000000000000000000 ) ) ;
#703 = VERTEX_POINT ( 'NONE', #435 ) ;
#704 = CYLINDRICAL_SURFACE ( 'NONE', #252, 0.7500000000000002220 ) ;
#705 = DIRECTION ( 'NONE',  ( -0.000000000000000000, -0.000000000000000000, -1.000000000000000000 ) ) ;
#706 = FACE_OUTER_BOUND ( 'NONE', #205, .T. ) ;
#707 = ORIENTED_EDGE ( 'NONE', *, *, #341, .T. ) ;
#708 = LINE ( 'NONE', #942, #987 ) ;
#709 = DIRECTION ( 'NONE',  ( 1.000000000000000000, -4.688441826964343312E-16, 0.000000000000000000 ) ) ;
#710 = EDGE_LOOP ( 'NONE', ( #274, #332, #494, #815 ) ) ;
#711 = ORIENTED_EDGE ( 'NONE', *, *, #825, .F. ) ;
#712 = DIRECTION ( 'NONE',  ( -0.000000000000000000, 0.000000000000000000, 1.000000000000000000 ) ) ;
#713 = CARTESIAN_POINT ( 'NONE',  ( 10.00000000000000000, 0.000000000000000000, 2.000000000000000000 ) ) ;
#714 = EDGE_CURVE ( 'NONE', #105, #322, #762, .T. ) ;
#715 = EDGE_LOOP ( 'NONE', ( #736, #665 ) ) ;
#716 = EDGE_CURVE ( 'NONE', #196, #298, #92, .T. ) ;
#717 = CARTESIAN_POINT ( 'NONE',  ( 3.061616997868382155E-16, 10.54999999999999716, 0.000000000000000000 ) ) ;
#718 = VECTOR ( 'NONE', #823, 1000.000000000000000 ) ;
#719 = ORIENTED_EDGE ( 'NONE', *, *, #905, .T. ) ;
#720 = CIRCLE ( 'NONE', #344, 0.7500000000000006661 ) ;
#721 = DIRECTION ( 'NONE',  ( 0.000000000000000000, 0.000000000000000000, 1.000000000000000000 ) ) ;
#722 = EDGE_CURVE ( 'NONE', #176, #1000, #673, .T. ) ;
#723 = CARTESIAN_POINT ( 'NONE',  ( -8.000000000000000000, 1.849999999999999645, 3.000000000000000444 ) ) ;
#724 = ORIENTED_EDGE ( 'NONE', *, *, #756, .T. ) ;
#725 = CARTESIAN_POINT ( 'NONE',  ( 5.000000000000012434, 28.04999999999999716, 8.000000000000000000 ) ) ;
#726 = ORIENTED_EDGE ( 'NONE', *, *, #466, .T. ) ;
#727 = LINE ( 'NONE', #214, #654 ) ;
#728 = DIRECTION ( 'NONE',  ( 0.000000000000000000, 1.000000000000000000, -0.000000000000000000 ) ) ;
#729 = LINE ( 'NONE', #261, #303 ) ;
#730 = DIRECTION ( 'NONE',  ( -0.000000000000000000, -0.000000000000000000, -1.000000000000000000 ) ) ;
#731 = EDGE_LOOP ( 'NONE', ( #354, #791, #516, #475, #535, #355 ) ) ;
#732 = CARTESIAN_POINT ( 'NONE',  ( 0.000000000000000000, 1.849999999999999645, 10.00000000000000000 ) ) ;
#733 = DIRECTION ( 'NONE',  ( -1.530808498934190893E-17, 1.000000000000000000, 0.000000000000000000 ) ) ;
#734 = DIRECTION ( 'NONE',  ( 0.000000000000000000, 0.000000000000000000, 1.000000000000000000 ) ) ;
#735 = CYLINDRICAL_SURFACE ( 'NONE', #126, 0.7500000000000002220 ) ;
#736 = ORIENTED_EDGE ( 'NONE', *, *, #452, .T. ) ;
#737 = CIRCLE ( 'NONE', #884, 2.000000000000000000 ) ;
#738 = CIRCLE ( 'NONE', #583, 0.7500000000000006661 ) ;
#739 = FACE_OUTER_BOUND ( 'NONE', #695, .T. ) ;
#740 = VECTOR ( 'NONE', #79, 1000.000000000000000 ) ;
#741 = MECHANICAL_DESIGN_GEOMETRIC_PRESENTATION_REPRESENTATION (  '', ( #549 ), #187 ) ;
#742 = CARTESIAN_POINT ( 'NONE',  ( 0.000000000000000000, -1.850000000000000533, 10.00000000000000000 ) ) ;
#743 = VERTEX_POINT ( 'NONE', #430 ) ;
#744 = DIRECTION ( 'NONE',  ( 0.000000000000000000, 1.000000000000000000, 0.000000000000000000 ) ) ;
#745 =( LENGTH_UNIT ( ) NAMED_UNIT ( * ) SI_UNIT ( .MILLI., .METRE. ) );
#746 = ORIENTED_EDGE ( 'NONE', *, *, #714, .F. ) ;
#747 = DIRECTION ( 'NONE',  ( -1.530808498934190893E-17, 1.000000000000000000, 0.000000000000000000 ) ) ;
#748 = EDGE_CURVE ( 'NONE', #684, #268, #595, .T. ) ;
#749 = CARTESIAN_POINT ( 'NONE',  ( -8.000000000000000000, 0.000000000000000000, 10.00000000000000000 ) ) ;
#750 = EDGE_LOOP ( 'NONE', ( #997, #629 ) ) ;
#751 = ADVANCED_FACE ( 'NONE', ( #175, #335 ), #508, .T. ) ;
#752 = DIRECTION ( 'NONE',  ( 0.000000000000000000, 1.000000000000000000, -0.000000000000000000 ) ) ;
#753 = CIRCLE ( 'NONE', #84, 2.000000000000000000 ) ;
#754 = CARTESIAN_POINT ( 'NONE',  ( 0.000000000000000000, 5.549999999999998934, 0.000000000000000000 ) ) ;
#755 = CIRCLE ( 'NONE', #805, 0.7500000000000002220 ) ;
#756 = EDGE_CURVE ( 'NONE', #268, #551, #996, .T. ) ;
#757 = CARTESIAN_POINT ( 'NONE',  ( 8.000000000000000000, 1.849999999999999645, 2.250000000000000444 ) ) ;
#758 = VERTEX_POINT ( 'NONE', #514 ) ;
#759 = CARTESIAN_POINT ( 'NONE',  ( 8.000000000000001776, -1.850000000000000533, 6.999999999999999112 ) ) ;
#760 = CARTESIAN_POINT ( 'NONE',  ( 2.649999999999999467, 5.549999999999998934, 10.00000000000000000 ) ) ;
#761 =( NAMED_UNIT ( * ) PLANE_ANGLE_UNIT ( ) SI_UNIT ( $, .RADIAN. ) );
#762 = LINE ( 'NONE', #911, #65 ) ;
#763 = ORIENTED_EDGE ( 'NONE', *, *, #66, .T. ) ;
#764 = FACE_BOUND ( 'NONE', #645, .T. ) ;
#765 = DIRECTION ( 'NONE',  ( -0.000000000000000000, -1.000000000000000000, -0.000000000000000000 ) ) ;
#766 = VERTEX_POINT ( 'NONE', #107 ) ;
#767 = EDGE_CURVE ( 'NONE', #766, #525, #839, .T. ) ;
#768 = DIRECTION ( 'NONE',  ( -4.688441826964343312E-16, -1.000000000000000000, 0.000000000000000000 ) ) ;
#769 = AXIS2_PLACEMENT_3D ( 'NONE', #998, #597, #920 ) ;
#770 = AXIS2_PLACEMENT_3D ( 'NONE', #168, #909, #330 ) ;
#771 = CIRCLE ( 'NONE', #1017, 0.7500000000000002220 ) ;
#772 = DIRECTION ( 'NONE',  ( -0.000000000000000000, -0.000000000000000000, -1.000000000000000000 ) ) ;
#773 = ORIENTED_EDGE ( 'NONE', *, *, #495, .T. ) ;
#774 = DIRECTION ( 'NONE',  ( 1.000000000000000000, 0.000000000000000000, 0.000000000000000000 ) ) ;
#775 = CYLINDRICAL_SURFACE ( 'NONE', #851, 2.649999999999999467 ) ;
#776 = VERTEX_POINT ( 'NONE', #586 ) ;
#777 = DIRECTION ( 'NONE',  ( -0.000000000000000000, 1.000000000000000000, -0.000000000000000000 ) ) ;
#778 = MANIFOLD_SOLID_BREP ( 'Cut-Extrude3', #512 ) ;
#779 = CARTESIAN_POINT ( 'NONE',  ( 10.00000000000000000, -1.850000000000000533, 8.000000000000000000 ) ) ;
#780 = ORIENTED_EDGE ( 'NONE', *, *, #933, .F. ) ;
#781 = DIRECTION ( 'NONE',  ( 1.000000000000000000, -4.688441826964343312E-16, 0.000000000000000000 ) ) ;
#782 = VECTOR ( 'NONE', #730, 1000.000000000000000 ) ;
#783 = CARTESIAN_POINT ( 'NONE',  ( -10.00000000000000000, -1.850000000000000533, 10.00000000000000000 ) ) ;
#784 = VERTEX_POINT ( 'NONE', #1018 ) ;
#785 = AXIS2_PLACEMENT_3D ( 'NONE', #814, #67, #874 ) ;
#786 = VECTOR ( 'NONE', #601, 1000.000000000000000 ) ;
#787 = ORIENTED_EDGE ( 'NONE', *, *, #375, .T. ) ;
#788 = CARTESIAN_POINT ( 'NONE',  ( 8.000000000000000000, -1.850000000000000533, 3.000000000000000444 ) ) ;
#789 = DIRECTION ( 'NONE',  ( 1.000000000000000000, -4.688441826964343312E-16, 0.000000000000000000 ) ) ;
#790 = ORIENTED_EDGE ( 'NONE', *, *, #612, .T. ) ;
#791 = ORIENTED_EDGE ( 'NONE', *, *, #138, .T. ) ;
#792 = FACE_OUTER_BOUND ( 'NONE', #731, .T. ) ;
#793 = CARTESIAN_POINT ( 'NONE',  ( 8.000000000000000000, -1.850000000000000533, 3.000000000000000444 ) ) ;
#794 = VERTEX_POINT ( 'NONE', #27 ) ;
#795 = DIRECTION ( 'NONE',  ( -0.000000000000000000, 0.000000000000000000, 1.000000000000000000 ) ) ;
#796 = VERTEX_POINT ( 'NONE', #442 ) ;
#797 = DIRECTION ( 'NONE',  ( 1.000000000000000000, 0.000000000000000000, 0.000000000000000000 ) ) ;
#798 = EDGE_CURVE ( 'NONE', #133, #167, #693, .T. ) ;
#799 = FACE_OUTER_BOUND ( 'NONE', #853, .T. ) ;
#800 = ORIENTED_EDGE ( 'NONE', *, *, #870, .T. ) ;
#801 = EDGE_CURVE ( 'NONE', #176, #794, #306, .T. ) ;
#802 = CARTESIAN_POINT ( 'NONE',  ( -8.000000000000001776, -1.850000000000000533, 7.750000000000000000 ) ) ;
#803 = CIRCLE ( 'NONE', #634, 2.649999999999999467 ) ;
#804 = EDGE_LOOP ( 'NONE', ( #862, #592, #422, #979 ) ) ;
#805 = AXIS2_PLACEMENT_3D ( 'NONE', #852, #457, #128 ) ;
#806 = LINE ( 'NONE', #69, #184 ) ;
#807 = CIRCLE ( 'NONE', #414, 1.000000000000000888 ) ;
#808 = DIRECTION ( 'NONE',  ( 0.000000000000000000, 1.000000000000000000, -0.000000000000000000 ) ) ;
#809 = CARTESIAN_POINT ( 'NONE',  ( 8.000000000000001776, 1.849999999999999645, 8.500000000000000000 ) ) ;
#810 = CARTESIAN_POINT ( 'NONE',  ( -2.649999999999999467, 5.549999999999998934, 10.00000000000000000 ) ) ;
#811 = ORIENTED_EDGE ( 'NONE', *, *, #424, .F. ) ;
#812 = CARTESIAN_POINT ( 'NONE',  ( 5.000000000000011546, 27.04999999999999716, 8.000000000000000000 ) ) ;
#813 = CARTESIAN_POINT ( 'NONE',  ( -8.000000000000000000, -1.850000000000000533, 8.000000000000000000 ) ) ;
#814 = CARTESIAN_POINT ( 'NONE',  ( 0.000000000000000000, 28.05000000000000071, 2.000000000000000000 ) ) ;
#815 = ORIENTED_EDGE ( 'NONE', *, *, #334, .T. ) ;
#816 = DIRECTION ( 'NONE',  ( 4.688441826964343312E-16, -1.000000000000000000, 0.000000000000000000 ) ) ;
#817 = DIRECTION ( 'NONE',  ( 0.000000000000000000, 0.000000000000000000, 1.000000000000000000 ) ) ;
#818 = ORIENTED_EDGE ( 'NONE', *, *, #647, .T. ) ;
#819 = CIRCLE ( 'NONE', #100, 1.000000000000000888 ) ;
#820 = CARTESIAN_POINT ( 'NONE',  ( 8.000000000000000000, -1.850000000000000533, 2.000000000000000000 ) ) ;
#821 = PRESENTATION_LAYER_ASSIGNMENT (  '', '', ( #1058 ) ) ;
#822 = ORIENTED_EDGE ( 'NONE', *, *, #307, .F. ) ;
#823 = DIRECTION ( 'NONE',  ( -0.000000000000000000, 1.000000000000000000, -0.000000000000000000 ) ) ;
#824 = APPLICATION_PROTOCOL_DEFINITION ( 'draft international standard', 'automotive_design', 1998, #189 ) ;
#825 = EDGE_CURVE ( 'NONE', #794, #176, #755, .T. ) ;
#826 = DIRECTION ( 'NONE',  ( 0.000000000000000000, 0.000000000000000000, 1.000000000000000000 ) ) ;
#827 = ORIENTED_EDGE ( 'NONE', *, *, #371, .T. ) ;
#828 = CARTESIAN_POINT ( 'NONE',  ( 10.00000000000000000, 1.849999999999999645, 10.00000000000000000 ) ) ;
#829 = EDGE_CURVE ( 'NONE', #193, #932, #296, .T. ) ;
#830 = CARTESIAN_POINT ( 'NONE',  ( -4.999999999999988454, 27.05000000000000071, 2.000000000000000000 ) ) ;
#831 = DIRECTION ( 'NONE',  ( -0.000000000000000000, 0.000000000000000000, 1.000000000000000000 ) ) ;
#832 = VERTEX_POINT ( 'NONE', #1023 ) ;
#833 = CYLINDRICAL_SURFACE ( 'NONE', #253, 0.7500000000000002220 ) ;
#834 = CIRCLE ( 'NONE', #376, 0.7500000000000002220 ) ;
#835 = CARTESIAN_POINT ( 'NONE',  ( -8.000000000000000000, 1.849999999999999645, 1.499999999999999778 ) ) ;
#836 = AXIS2_PLACEMENT_3D ( 'NONE', #1021, #194, #928 ) ;
#837 = VECTOR ( 'NONE', #981, 1000.000000000000000 ) ;
#838 = AXIS2_PLACEMENT_3D ( 'NONE', #83, #169, #162 ) ;
#839 = LINE ( 'NONE', #104, #786 ) ;
#840 = VERTEX_POINT ( 'NONE', #449 ) ;
#841 = DIRECTION ( 'NONE',  ( -0.000000000000000000, -0.000000000000000000, -1.000000000000000000 ) ) ;
#842 = DIRECTION ( 'NONE',  ( 0.000000000000000000, 0.000000000000000000, 1.000000000000000000 ) ) ;
#843 = ORIENTED_EDGE ( 'NONE', *, *, #658, .F. ) ;
#844 = EDGE_CURVE ( 'NONE', #743, #167, #86, .T. ) ;
#845 = ORIENTED_EDGE ( 'NONE', *, *, #914, .T. ) ;
#846 = CARTESIAN_POINT ( 'NONE',  ( 8.000000000000001776, 1.849999999999999645, 6.999999999999999112 ) ) ;
#847 = ORIENTED_EDGE ( 'NONE', *, *, #756, .F. ) ;
#848 = CYLINDRICAL_SURFACE ( 'NONE', #412, 0.7500000000000002220 ) ;
#849 = CIRCLE ( 'NONE', #581, 0.7500000000000006661 ) ;
#850 = CIRCLE ( 'NONE', #342, 0.7500000000000006661 ) ;
#851 = AXIS2_PLACEMENT_3D ( 'NONE', #38, #705, #617 ) ;
#852 = CARTESIAN_POINT ( 'NONE',  ( -8.000000000000000000, -1.850000000000000533, 2.250000000000000444 ) ) ;
#853 = EDGE_LOOP ( 'NONE', ( #1012, #967, #443, #896 ) ) ;
#854 = FACE_OUTER_BOUND ( 'NONE', #123, .T. ) ;
#855 = EDGE_CURVE ( 'NONE', #20, #233, #720, .T. ) ;
#856 = DIRECTION ( 'NONE',  ( 0.000000000000000000, 0.000000000000000000, -1.000000000000000000 ) ) ;
#857 = EDGE_LOOP ( 'NONE', ( #726, #724, #790, #150, #87, #878, #369, #24, #822, #818 ) ) ;
#858 = FACE_OUTER_BOUND ( 'NONE', #522, .T. ) ;
#859 = EDGE_CURVE ( 'NONE', #562, #322, #286, .T. ) ;
#860 = DIRECTION ( 'NONE',  ( 0.000000000000000000, 1.000000000000000000, 0.000000000000000000 ) ) ;
#861 = ORIENTED_EDGE ( 'NONE', *, *, #375, .F. ) ;
#862 = ORIENTED_EDGE ( 'NONE', *, *, #391, .F. ) ;
#863 = CARTESIAN_POINT ( 'NONE',  ( -8.000000000000001776, 1.849999999999999645, 7.750000000000000000 ) ) ;
#864 = AXIS2_PLACEMENT_3D ( 'NONE', #473, #60, #1040 ) ;
#865 = DIRECTION ( 'NONE',  ( 8.673617379884027583E-16, 1.000000000000000000, 0.000000000000000000 ) ) ;
#866 = ORIENTED_EDGE ( 'NONE', *, *, #264, .T. ) ;
#867 = MECHANICAL_DESIGN_GEOMETRIC_PRESENTATION_REPRESENTATION (  '', ( #1058 ), #620 ) ;
#868 = CIRCLE ( 'NONE', #939, 1.000000000000000888 ) ;
#869 = VERTEX_POINT ( 'NONE', #48 ) ;
#870 = EDGE_CURVE ( 'NONE', #50, #758, #537, .T. ) ;
#871 = LINE ( 'NONE', #491, #974 ) ;
#872 = LINE ( 'NONE', #487, #1060 ) ;
#873 = ORIENTED_EDGE ( 'NONE', *, *, #950, .F. ) ;
#874 = DIRECTION ( 'NONE',  ( 0.000000000000000000, 0.000000000000000000, 1.000000000000000000 ) ) ;
#875 = ADVANCED_FACE ( 'NONE', ( #529 ), #775, .F. ) ;
#876 = EDGE_LOOP ( 'NONE', ( #410, #613 ) ) ;
#877 = CARTESIAN_POINT ( 'NONE',  ( -2.649999999999999467, 5.549999999999998934, 10.00000000000000000 ) ) ;
#878 = ORIENTED_EDGE ( 'NONE', *, *, #540, .T. ) ;
#879 = CYLINDRICAL_SURFACE ( 'NONE', #547, 4.999999999999998224 ) ;
#880 = ORIENTED_EDGE ( 'NONE', *, *, #495, .F. ) ;
#881 = DIRECTION ( 'NONE',  ( 0.000000000000000000, 0.000000000000000000, 1.000000000000000000 ) ) ;
#882 = LINE ( 'NONE', #469, #922 ) ;
#883 = DIRECTION ( 'NONE',  ( 0.000000000000000000, -0.000000000000000000, 1.000000000000000000 ) ) ;
#884 = AXIS2_PLACEMENT_3D ( 'NONE', #813, #153, #172 ) ;
#885 = DIRECTION ( 'NONE',  ( 0.000000000000000000, 0.000000000000000000, 1.000000000000000000 ) ) ;
#886 = CIRCLE ( 'NONE', #396, 2.000000000000000000 ) ;
#887 = ORIENTED_EDGE ( 'NONE', *, *, #63, .T. ) ;
#888 = AXIS2_PLACEMENT_3D ( 'NONE', #373, #358, #542 ) ;
#889 = FACE_OUTER_BOUND ( 'NONE', #465, .T. ) ;
#890 = DIRECTION ( 'NONE',  ( 1.000000000000000000, 0.000000000000000000, 0.000000000000000000 ) ) ;
#891 = DIRECTION ( 'NONE',  ( -0.000000000000000000, 1.000000000000000000, -0.000000000000000000 ) ) ;
#892 = VERTEX_POINT ( 'NONE', #610 ) ;
#893 = LINE ( 'NONE', #548, #377 ) ;
#894 = CYLINDRICAL_SURFACE ( 'NONE', #49, 1.000000000000000888 ) ;
#895 = DIRECTION ( 'NONE',  ( 0.000000000000000000, 0.000000000000000000, 1.000000000000000000 ) ) ;
#896 = ORIENTED_EDGE ( 'NONE', *, *, #666, .F. ) ;
#897 = FACE_OUTER_BOUND ( 'NONE', #287, .T. ) ;
#898 = SURFACE_SIDE_STYLE ('',( #578 ) ) ;
#899 = VERTEX_POINT ( 'NONE', #453 ) ;
#900 = AXIS2_PLACEMENT_3D ( 'NONE', #188, #455, #774 ) ;
#901 = CIRCLE ( 'NONE', #305, 1.000000000000000888 ) ;
#902 = ADVANCED_FACE ( 'NONE', ( #368, #949 ), #34, .F. ) ;
#903 = DIRECTION ( 'NONE',  ( 0.000000000000000000, 0.000000000000000000, 1.000000000000000000 ) ) ;
#904 = AXIS2_PLACEMENT_3D ( 'NONE', #627, #122, #856 ) ;
#905 = EDGE_CURVE ( 'NONE', #784, #484, #211, .T. ) ;
#906 = AXIS2_PLACEMENT_3D ( 'NONE', #398, #71, #631 ) ;
#907 = ORIENTED_EDGE ( 'NONE', *, *, #260, .T. ) ;
#908 = EDGE_CURVE ( 'NONE', #952, #293, #290, .T. ) ;
#909 = DIRECTION ( 'NONE',  ( -0.000000000000000000, -0.000000000000000000, -1.000000000000000000 ) ) ;
#910 = DIRECTION ( 'NONE',  ( 0.000000000000000000, 0.000000000000000000, 1.000000000000000000 ) ) ;
#911 = CARTESIAN_POINT ( 'NONE',  ( -10.00000000000000000, -1.850000000000000533, 2.000000000000000000 ) ) ;
#912 = EDGE_LOOP ( 'NONE', ( #679, #208, #635, #606 ) ) ;
#913 = CARTESIAN_POINT ( 'NONE',  ( 8.000000000000000000, 0.000000000000000000, 2.000000000000000000 ) ) ;
#914 = EDGE_CURVE ( 'NONE', #869, #436, #868, .T. ) ;
#915 = CARTESIAN_POINT ( 'NONE',  ( 0.000000000000000000, 1.849999999999999645, 10.00000000000000000 ) ) ;
#916 = DIRECTION ( 'NONE',  ( -8.673617379884027583E-16, -1.000000000000000000, 0.000000000000000000 ) ) ;
#917 = VERTEX_POINT ( 'NONE', #929 ) ;
#918 = AXIS2_PLACEMENT_3D ( 'NONE', #754, #972, #17 ) ;
#919 = APPLICATION_CONTEXT ( 'automotive_design' ) ;
#920 = DIRECTION ( 'NONE',  ( 0.000000000000000000, 0.000000000000000000, 1.000000000000000000 ) ) ;
#921 = VECTOR ( 'NONE', #343, 1000.000000000000000 ) ;
#922 = VECTOR ( 'NONE', #239, 1000.000000000000000 ) ;
#923 = FILL_AREA_STYLE ('',( #668 ) ) ;
#924 = AXIS2_PLACEMENT_3D ( 'NONE', #326, #728, #319 ) ;
#925 = DIRECTION ( 'NONE',  ( 0.000000000000000000, 1.000000000000000000, 0.000000000000000000 ) ) ;
#926 = ORIENTED_EDGE ( 'NONE', *, *, #825, .T. ) ;
#927 = ORIENTED_EDGE ( 'NONE', *, *, #278, .T. ) ;
#928 = DIRECTION ( 'NONE',  ( 0.000000000000000000, 0.000000000000000000, 1.000000000000000000 ) ) ;
#929 = CARTESIAN_POINT ( 'NONE',  ( -10.00000000000000000, 1.849999999999999645, 8.000000000000000000 ) ) ;
#930 = ORIENTED_EDGE ( 'NONE', *, *, #870, .F. ) ;
#931 = DIRECTION ( 'NONE',  ( -0.000000000000000000, 1.000000000000000000, -0.000000000000000000 ) ) ;
#932 = VERTEX_POINT ( 'NONE', #689 ) ;
#933 = EDGE_CURVE ( 'NONE', #345, #59, #127, .T. ) ;
#934 = LINE ( 'NONE', #44, #288 ) ;
#935 = EDGE_CURVE ( 'NONE', #25, #1000, #149, .T. ) ;
#936 = AXIS2_PLACEMENT_3D ( 'NONE', #994, #265, #593 ) ;
#937 = AXIS2_PLACEMENT_3D ( 'NONE', #802, #891, #140 ) ;
#938 = CARTESIAN_POINT ( 'NONE',  ( 0.000000000000000000, 0.000000000000000000, 0.000000000000000000 ) ) ;
#939 = AXIS2_PLACEMENT_3D ( 'NONE', #702, #291, #944 ) ;
#940 = ORIENTED_EDGE ( 'NONE', *, *, #269, .F. ) ;
#941 = EDGE_CURVE ( 'NONE', #59, #345, #807, .T. ) ;
#942 = CARTESIAN_POINT ( 'NONE',  ( -5.000000000000000888, 2.344220913482171952E-15, 0.000000000000000000 ) ) ;
#943 = UNCERTAINTY_MEASURE_WITH_UNIT (LENGTH_MEASURE( 1.000000000000000082E-05 ), #145, 'distance_accuracy_value', 'NONE');
#944 = DIRECTION ( 'NONE',  ( 0.000000000000000000, 0.000000000000000000, 1.000000000000000000 ) ) ;
#945 = EDGE_LOOP ( 'NONE', ( #250, #927, #982, #951 ) ) ;
#946 = EDGE_LOOP ( 'NONE', ( #301, #959, #557, #632 ) ) ;
#947 = ADVANCED_FACE ( 'NONE', ( #799, #1055, #389 ), #961, .T. ) ;
#948 = DIRECTION ( 'NONE',  ( 1.000000000000000000, 0.000000000000000000, 0.000000000000000000 ) ) ;
#949 = FACE_OUTER_BOUND ( 'NONE', #374, .T. ) ;
#950 = EDGE_CURVE ( 'NONE', #766, #579, #257, .T. ) ;
#951 = ORIENTED_EDGE ( 'NONE', *, *, #312, .F. ) ;
#952 = VERTEX_POINT ( 'NONE', #793 ) ;
#953 = DIRECTION ( 'NONE',  ( 0.000000000000000000, 1.000000000000000000, 0.000000000000000000 ) ) ;
#954 = ADVANCED_FACE ( 'NONE', ( #573 ), #659, .F. ) ;
#955 = VECTOR ( 'NONE', #630, 1000.000000000000000 ) ;
#956 = DIRECTION ( 'NONE',  ( 0.000000000000000000, 0.000000000000000000, 1.000000000000000000 ) ) ;
#957 = ORIENTED_EDGE ( 'NONE', *, *, #844, .F. ) ;
#958 = DIRECTION ( 'NONE',  ( 1.000000000000000000, 0.000000000000000000, 0.000000000000000000 ) ) ;
#959 = ORIENTED_EDGE ( 'NONE', *, *, #666, .T. ) ;
#960 = DIRECTION ( 'NONE',  ( 0.000000000000000000, -0.000000000000000000, 1.000000000000000000 ) ) ;
#961 = PLANE ( 'NONE',  #517 ) ;
#962 = ORIENTED_EDGE ( 'NONE', *, *, #855, .F. ) ;
#963 = LINE ( 'NONE', #749, #216 ) ;
#964 = ORIENTED_EDGE ( 'NONE', *, *, #559, .F. ) ;
#965 = DIRECTION ( 'NONE',  ( -0.000000000000000000, -0.000000000000000000, -1.000000000000000000 ) ) ;
#966 = DIRECTION ( 'NONE',  ( 0.000000000000000000, 1.000000000000000000, 0.000000000000000000 ) ) ;
#967 = ORIENTED_EDGE ( 'NONE', *, *, #748, .T. ) ;
#968 = CARTESIAN_POINT ( 'NONE',  ( -8.000000000000000000, -1.850000000000000533, 2.250000000000000444 ) ) ;
#969 = ORIENTED_EDGE ( 'NONE', *, *, #950, .T. ) ;
#970 = CARTESIAN_POINT ( 'NONE',  ( 0.000000000000000000, 5.549999999999998934, 0.000000000000000000 ) ) ;
#971 = DIRECTION ( 'NONE',  ( -1.000000000000000000, 4.688441826964343312E-16, 0.000000000000000000 ) ) ;
#972 = DIRECTION ( 'NONE',  ( -0.000000000000000000, 0.000000000000000000, 1.000000000000000000 ) ) ;
#973 = CARTESIAN_POINT ( 'NONE',  ( 8.000000000000001776, -1.850000000000000533, 8.500000000000000000 ) ) ;
#974 = VECTOR ( 'NONE', #816, 1000.000000000000000 ) ;
#975 = ORIENTED_EDGE ( 'NONE', *, *, #112, .T. ) ;
#976 = DIRECTION ( 'NONE',  ( 0.000000000000000000, 1.000000000000000000, -0.000000000000000000 ) ) ;
#977 = CARTESIAN_POINT ( 'NONE',  ( 5.000000000000013323, 29.05000000000000071, 2.000000000000000000 ) ) ;
#978 = CARTESIAN_POINT ( 'NONE',  ( -5.000000000000000888, 30.54999999999999716, 10.00000000000000000 ) ) ;
#979 = ORIENTED_EDGE ( 'NONE', *, *, #229, .T. ) ;
#980 = DIRECTION ( 'NONE',  ( 0.000000000000000000, 0.000000000000000000, 1.000000000000000000 ) ) ;
#981 = DIRECTION ( 'NONE',  ( -0.000000000000000000, 1.000000000000000000, -0.000000000000000000 ) ) ;
#982 = ORIENTED_EDGE ( 'NONE', *, *, #559, .T. ) ;
#983 = LINE ( 'NONE', #94, #45 ) ;
#984 = ADVANCED_FACE ( 'NONE', ( #53 ), #300, .T. ) ;
#985 = CARTESIAN_POINT ( 'NONE',  ( 5.000000000000013323, 29.05000000000000071, 8.000000000000000000 ) ) ;
#986 = EDGE_LOOP ( 'NONE', ( #873, #399, #1053, #439 ) ) ;
#987 = VECTOR ( 'NONE', #768, 1000.000000000000000 ) ;
#988 = AXIS2_PLACEMENT_3D ( 'NONE', #161, #576, #9 ) ;
#989 = CARTESIAN_POINT ( 'NONE',  ( 8.000000000000000000, -1.850000000000000533, 2.250000000000000444 ) ) ;
#990 = VECTOR ( 'NONE', #772, 1000.000000000000000 ) ;
#991 = CARTESIAN_POINT ( 'NONE',  ( -4.999999999999999112, 1.849999999999999645, 10.00000000000000000 ) ) ;
#992 = CARTESIAN_POINT ( 'NONE',  ( 7.654042494670960318E-17, 30.54999999999999716, 0.000000000000000000 ) ) ;
#993 = EDGE_LOOP ( 'NONE', ( #425, #518, #800, #685, #861, #1020, #648, #575 ) ) ;
#994 = CARTESIAN_POINT ( 'NONE',  ( -8.000000000000000000, 0.000000000000000000, 2.000000000000000000 ) ) ;
#995 = CARTESIAN_POINT ( 'NONE',  ( 8.000000000000001776, -1.850000000000000533, 7.750000000000000000 ) ) ;
#996 = LINE ( 'NONE', #421, #657 ) ;
#997 = ORIENTED_EDGE ( 'NONE', *, *, #174, .F. ) ;
#998 = CARTESIAN_POINT ( 'NONE',  ( 8.000000000000000000, 1.849999999999999645, 2.000000000000000000 ) ) ;
#999 = CARTESIAN_POINT ( 'NONE',  ( -8.000000000000000000, -1.850000000000000533, 3.000000000000000444 ) ) ;
#1000 = VERTEX_POINT ( 'NONE', #723 ) ;
#1001 = VECTOR ( 'NONE', #363, 1000.000000000000000 ) ;
#1002 = CYLINDRICAL_SURFACE ( 'NONE', #1015, 0.7500000000000006661 ) ;
#1003 = AXIS2_PLACEMENT_3D ( 'NONE', #403, #808, #226 ) ;
#1004 = CARTESIAN_POINT ( 'NONE',  ( -8.000000000000000000, 1.849999999999999645, 2.250000000000000444 ) ) ;
#1005 = EDGE_LOOP ( 'NONE', ( #450, #746, #1025, #546 ) ) ;
#1006 = DIRECTION ( 'NONE',  ( 0.000000000000000000, 0.000000000000000000, 1.000000000000000000 ) ) ;
#1007 = DIRECTION ( 'NONE',  ( -0.000000000000000000, -1.000000000000000000, -0.000000000000000000 ) ) ;
#1008 = EDGE_LOOP ( 'NONE', ( #638, #28, #8, #406 ) ) ;
#1009 = EDGE_CURVE ( 'NONE', #436, #345, #650, .T. ) ;
#1010 = CARTESIAN_POINT ( 'NONE',  ( 10.00000000000000000, 0.000000000000000000, 10.00000000000000000 ) ) ;
#1011 = CARTESIAN_POINT ( 'NONE',  ( 8.000000000000001776, 1.849999999999999645, 7.750000000000000000 ) ) ;
#1012 = ORIENTED_EDGE ( 'NONE', *, *, #658, .T. ) ;
#1013 = ADVANCED_FACE ( 'NONE', ( #218 ), #1042, .T. ) ;
#1014 = CARTESIAN_POINT ( 'NONE',  ( 7.654042494670960318E-17, 30.54999999999999716, 10.00000000000000000 ) ) ;
#1015 = AXIS2_PLACEMENT_3D ( 'NONE', #589, #519, #910 ) ;
#1016 = AXIS2_PLACEMENT_3D ( 'NONE', #1010, #121, #1006 ) ;
#1017 = AXIS2_PLACEMENT_3D ( 'NONE', #757, #925, #826 ) ;
#1018 = CARTESIAN_POINT ( 'NONE',  ( 10.00000000000000000, 1.849999999999999645, 8.000000000000000000 ) ) ;
#1019 = ORIENTED_EDGE ( 'NONE', *, *, #905, .F. ) ;
#1020 = ORIENTED_EDGE ( 'NONE', *, *, #663, .T. ) ;
#1021 = CARTESIAN_POINT ( 'NONE',  ( 8.000000000000000000, -1.850000000000000533, 2.250000000000000444 ) ) ;
#1022 = PRODUCT_DEFINITION_CONTEXT ( 'detailed design', #919, 'design' ) ;
#1023 = CARTESIAN_POINT ( 'NONE',  ( 3.061616997868377225E-16, 10.54999999999999716, 10.00000000000000000 ) ) ;
#1024 = ORIENTED_EDGE ( 'NONE', *, *, #143, .F. ) ;
#1025 = ORIENTED_EDGE ( 'NONE', *, *, #371, .F. ) ;
#1026 = CARTESIAN_POINT ( 'NONE',  ( -5.000000000000000888, 30.54999999999999716, 0.000000000000000000 ) ) ;
#1027 = ADVANCED_FACE ( 'NONE', ( #152 ), #314, .T. ) ;
#1028 = CARTESIAN_POINT ( 'NONE',  ( 3.061616997868382155E-16, 10.54999999999999716, 0.000000000000000000 ) ) ;
#1029 = ORIENTED_EDGE ( 'NONE', *, *, #294, .F. ) ;
#1030 = ORIENTED_EDGE ( 'NONE', *, *, #577, .T. ) ;
#1031 = DIRECTION ( 'NONE',  ( 0.000000000000000000, 1.000000000000000000, 0.000000000000000000 ) ) ;
#1032 = UNCERTAINTY_MEASURE_WITH_UNIT (LENGTH_MEASURE( 1.000000000000000082E-05 ), #745, 'distance_accuracy_value', 'NONE');
#1033 = CIRCLE ( 'NONE', #202, 2.000000000000000000 ) ;
#1034 = DIRECTION ( 'NONE',  ( 1.000000000000000000, 0.000000000000000000, 0.000000000000000000 ) ) ;
#1035 = ORIENTED_EDGE ( 'NONE', *, *, #178, .T. ) ;
#1036 = VECTOR ( 'NONE', #678, 1000.000000000000000 ) ;
#1037 = DIRECTION ( 'NONE',  ( 0.000000000000000000, 0.000000000000000000, 1.000000000000000000 ) ) ;
#1038 = AXIS2_PLACEMENT_3D ( 'NONE', #1049, #245, #132 ) ;
#1039 = ORIENTED_EDGE ( 'NONE', *, *, #33, .F. ) ;
#1040 = DIRECTION ( 'NONE',  ( 4.688441826964343312E-16, 1.000000000000000000, 0.000000000000000000 ) ) ;
#1041 = EDGE_CURVE ( 'NONE', #477, #505, #550, .T. ) ;
#1042 = CYLINDRICAL_SURFACE ( 'NONE', #1038, 2.000000000000000000 ) ;
#1043 = ORIENTED_EDGE ( 'NONE', *, *, #767, .F. ) ;
#1044 = DIRECTION ( 'NONE',  ( -4.688441826964343312E-16, -1.000000000000000000, 0.000000000000000000 ) ) ;
#1045 = ORIENTED_EDGE ( 'NONE', *, *, #81, .T. ) ;
#1046 = ADVANCED_FACE ( 'NONE', ( #232 ), #894, .F. ) ;
#1047 = EDGE_CURVE ( 'NONE', #899, #500, #872, .T. ) ;
#1048 = DIRECTION ( 'NONE',  ( -0.000000000000000000, -0.000000000000000000, -1.000000000000000000 ) ) ;
#1049 = CARTESIAN_POINT ( 'NONE',  ( -8.000000000000000000, 0.000000000000000000, 8.000000000000000000 ) ) ;
#1050 = DIRECTION ( 'NONE',  ( -8.673617379884027583E-16, -1.000000000000000000, 0.000000000000000000 ) ) ;
#1051 = DIRECTION ( 'NONE',  ( 0.000000000000000000, -1.000000000000000000, 0.000000000000000000 ) ) ;
#1052 = EDGE_CURVE ( 'NONE', #794, #25, #882, .T. ) ;
#1053 = ORIENTED_EDGE ( 'NONE', *, *, #356, .T. ) ;
#1054 = CARTESIAN_POINT ( 'NONE',  ( -8.000000000000000000, 1.849999999999999645, 0.000000000000000000 ) ) ;
#1055 = FACE_BOUND ( 'NONE', #170, .T. ) ;
#1056 = VECTOR ( 'NONE', #890, 1000.000000000000000 ) ;
#1057 = DIRECTION ( 'NONE',  ( -8.673617379884027583E-16, -1.000000000000000000, 0.000000000000000000 ) ) ;
#1058 = STYLED_ITEM ( 'NONE', ( #165 ), #778 ) ;
#1059 = ORIENTED_EDGE ( 'NONE', *, *, #675, .F. ) ;
#1060 = VECTOR ( 'NONE', #1034, 1000.000000000000000 ) ;
ENDSEC;
END-ISO-10303-21;
