ISO-10303-21;
HEADER;
FILE_DESCRIPTION (( 'STEP AP214' ),
    '1' );
FILE_NAME ('JawRod-180.STEP',
    '2025-10-21T18:57:07',
    ( 'Windows User' ),
    ( '' ),
    'SwSTEP 2.0',
    'SolidWorks 2023',
    '' );
FILE_SCHEMA (( 'AUTOMOTIVE_DESIGN' ));
ENDSEC;

DATA;
#1 = MECHANICAL_DESIGN_GEOMETRIC_PRESENTATION_REPRESENTATION (  '', ( #313 ), #856 ) ;
#2 = DIRECTION ( 'NONE',  ( 1.000000000000000000, 0.000000000000000000, 0.000000000000000000 ) ) ;
#3 = EDGE_CURVE ( 'NONE', #773, #956, #102, .T. ) ;
#4 = FACE_OUTER_BOUND ( 'NONE', #25, .T. ) ;
#5 = VERTEX_POINT ( 'NONE', #167 ) ;
#6 = DIRECTION ( 'NONE',  ( 0.000000000000000000, -1.000000000000000000, -0.000000000000000000 ) ) ;
#7 = DIRECTION ( 'NONE',  ( -4.336808689942018722E-16, 0.000000000000000000, -1.000000000000000000 ) ) ;
#8 = EDGE_CURVE ( 'NONE', #234, #790, #777, .T. ) ;
#9 = DIRECTION ( 'NONE',  ( -0.000000000000000000, -1.000000000000000000, -0.000000000000000000 ) ) ;
#10 = ORIENTED_EDGE ( 'NONE', *, *, #834, .T. ) ;
#11 = DIRECTION ( 'NONE',  ( 0.000000000000000000, 0.000000000000000000, -1.000000000000000000 ) ) ;
#12 = CARTESIAN_POINT ( 'NONE',  ( 1.999999999999997335, 2.000000000000000000, -0.9999999999999963363 ) ) ;
#13 = ORIENTED_EDGE ( 'NONE', *, *, #426, .T. ) ;
#14 = PRODUCT_CONTEXT ( 'NONE', #1183, 'mechanical' ) ;
#15 = PRESENTATION_LAYER_ASSIGNMENT (  '', '', ( #111 ) ) ;
#16 = PRESENTATION_LAYER_ASSIGNMENT (  '', '', ( #260 ) ) ;
#17 =( NAMED_UNIT ( * ) PLANE_ANGLE_UNIT ( ) SI_UNIT ( $, .RADIAN. ) );
#18 = STYLED_ITEM ( 'NONE', ( #275 ), #1270 ) ;
#19 = DIRECTION ( 'NONE',  ( 0.000000000000000000, 0.000000000000000000, 1.000000000000000000 ) ) ;
#20 = EDGE_LOOP ( 'NONE', ( #1300, #548, #628, #553 ) ) ;
#21 = SURFACE_SIDE_STYLE ('',( #125 ) ) ;
#22 = DIRECTION ( 'NONE',  ( 0.000000000000000000, 0.000000000000000000, 1.000000000000000000 ) ) ;
#23 = CYLINDRICAL_SURFACE ( 'NONE', #262, 1.000000000000000000 ) ;
#24 =( LENGTH_UNIT ( ) NAMED_UNIT ( * ) SI_UNIT ( .MILLI., .METRE. ) );
#25 = EDGE_LOOP ( 'NONE', ( #364, #843, #1173, #869 ) ) ;
#26 = DIRECTION ( 'NONE',  ( 0.000000000000000000, 0.000000000000000000, 1.000000000000000000 ) ) ;
#27 = PRESENTATION_STYLE_ASSIGNMENT (( #378 ) ) ;
#28 = ORIENTED_EDGE ( 'NONE', *, *, #1191, .F. ) ;
#29 =( GEOMETRIC_REPRESENTATION_CONTEXT ( 3 ) GLOBAL_UNCERTAINTY_ASSIGNED_CONTEXT ( ( #304 ) ) GLOBAL_UNIT_ASSIGNED_CONTEXT ( ( #1287, #377, #486 ) ) REPRESENTATION_CONTEXT ( 'NONE', 'WORKASPACE' ) );
#30 = STYLED_ITEM ( 'NONE', ( #1090 ), #1205 ) ;
#31 = COLOUR_RGB ( '',1.000000000000000000, 0.9372549019607843146, 0.1372549019607843257 ) ;
#32 = UNCERTAINTY_MEASURE_WITH_UNIT (LENGTH_MEASURE( 1.000000000000000082E-05 ), #263, 'distance_accuracy_value', 'NONE');
#33 = COLOUR_RGB ( '',1.000000000000000000, 0.9372549019607843146, 0.1372549019607843257 ) ;
#34 = DIRECTION ( 'NONE',  ( 1.000000000000000000, -0.000000000000000000, -1.517883041479720802E-15 ) ) ;
#35 = EDGE_CURVE ( 'NONE', #1279, #622, #159, .T. ) ;
#36 = PRESENTATION_LAYER_ASSIGNMENT (  '', '', ( #1243 ) ) ;
#37 = EDGE_CURVE ( 'NONE', #1273, #648, #1338, .T. ) ;
#38 = SURFACE_STYLE_USAGE ( .BOTH. , #994 ) ;
#39 = VECTOR ( 'NONE', #1244, 1000.000000000000000 ) ;
#40 = VERTEX_POINT ( 'NONE', #81 ) ;
#41 = VERTEX_POINT ( 'NONE', #61 ) ;
#42 = CARTESIAN_POINT ( 'NONE',  ( 25.00000000000000000, 2.000000000000000000, -2.999999999999998668 ) ) ;
#43 = SURFACE_SIDE_STYLE ('',( #162 ) ) ;
#44 = EDGE_CURVE ( 'NONE', #1279, #1181, #1019, .T. ) ;
#45 = DIRECTION ( 'NONE',  ( 1.000000000000000000, 0.000000000000000000, -4.336808689942017736E-16 ) ) ;
#46 = VERTEX_POINT ( 'NONE', #1012 ) ;
#47 = ORIENTED_EDGE ( 'NONE', *, *, #688, .F. ) ;
#48 = DIRECTION ( 'NONE',  ( 0.000000000000000000, 0.000000000000000000, 1.000000000000000000 ) ) ;
#49 = UNCERTAINTY_MEASURE_WITH_UNIT (LENGTH_MEASURE( 1.000000000000000082E-05 ), #1210, 'distance_accuracy_value', 'NONE');
#50 = CARTESIAN_POINT ( 'NONE',  ( 25.00000000000000000, 0.000000000000000000, -2.000000000000000888 ) ) ;
#51 = FILL_AREA_STYLE_COLOUR ( '', #835 ) ;
#52 = CARTESIAN_POINT ( 'NONE',  ( 5.000000000000000000, 1.000000000000000000, -3.999999999999994671 ) ) ;
#53 = FILL_AREA_STYLE ('',( #340 ) ) ;
#54 = CYLINDRICAL_SURFACE ( 'NONE', #852, 2.000000000000000000 ) ;
#55 = PRESENTATION_LAYER_ASSIGNMENT (  '', '', ( #124 ) ) ;
#56 = PRESENTATION_STYLE_ASSIGNMENT (( #362 ) ) ;
#57 = MECHANICAL_DESIGN_GEOMETRIC_PRESENTATION_REPRESENTATION (  '', ( #1239 ), #657 ) ;
#58 = CARTESIAN_POINT ( 'NONE',  ( 2.136650232754831435E-16, 0.000000000000000000, -5.000000000000000000 ) ) ;
#59 = APPLICATION_CONTEXT ( 'automotive_design' ) ;
#60 = MECHANICAL_DESIGN_GEOMETRIC_PRESENTATION_REPRESENTATION (  '', ( #460 ), #1297 ) ;
#61 = CARTESIAN_POINT ( 'NONE',  ( 2.000000000000015543, 2.000000000000000000, -3.999999999999994227 ) ) ;
#62 = MECHANICAL_DESIGN_GEOMETRIC_PRESENTATION_REPRESENTATION (  '', ( #129 ), #985 ) ;
#63 = VERTEX_POINT ( 'NONE', #714 ) ;
#64 = DIRECTION ( 'NONE',  ( -0.000000000000000000, -1.000000000000000000, -0.000000000000000000 ) ) ;
#65 = SURFACE_STYLE_USAGE ( .BOTH. , #43 ) ;
#66 = UNCERTAINTY_MEASURE_WITH_UNIT (LENGTH_MEASURE( 1.000000000000000082E-05 ), #1314, 'distance_accuracy_value', 'NONE');
#67 = DIRECTION ( 'NONE',  ( -1.000000000000000000, -0.000000000000000000, 4.995447944556281690E-17 ) ) ;
#68 = PRESENTATION_STYLE_ASSIGNMENT (( #496 ) ) ;
#69 = ORIENTED_EDGE ( 'NONE', *, *, #536, .T. ) ;
#70 = FACE_OUTER_BOUND ( 'NONE', #191, .T. ) ;
#71 = DIRECTION ( 'NONE',  ( 0.000000000000000000, 0.000000000000000000, -1.000000000000000000 ) ) ;
#72 = ORIENTED_EDGE ( 'NONE', *, *, #890, .T. ) ;
#73 = SURFACE_SIDE_STYLE ('',( #404 ) ) ;
#74 = VERTEX_POINT ( 'NONE', #590 ) ;
#75 = FILL_AREA_STYLE ('',( #289 ) ) ;
#76 = DIRECTION ( 'NONE',  ( -0.000000000000000000, -1.000000000000000000, -0.000000000000000000 ) ) ;
#77 = UNCERTAINTY_MEASURE_WITH_UNIT (LENGTH_MEASURE( 1.000000000000000082E-05 ), #207, 'distance_accuracy_value', 'NONE');
#78 = SURFACE_SIDE_STYLE ('',( #935 ) ) ;
#79 = PRESENTATION_LAYER_ASSIGNMENT (  '', '', ( #800 ) ) ;
#80 =( LENGTH_UNIT ( ) NAMED_UNIT ( * ) SI_UNIT ( .MILLI., .METRE. ) );
#81 = CARTESIAN_POINT ( 'NONE',  ( 6.790654235926973925, 2.749999999999999556, -1.301042606982605321E-15 ) ) ;
#82 = COLOUR_RGB ( '',1.000000000000000000, 0.9372549019607843146, 0.1372549019607843257 ) ;
#83 = EDGE_CURVE ( 'NONE', #498, #1273, #1133, .T. ) ;
#84 = CARTESIAN_POINT ( 'NONE',  ( 0.000000000000000000, 2.000000000000000000, -5.000000000000000000 ) ) ;
#85 = MECHANICAL_DESIGN_GEOMETRIC_PRESENTATION_REPRESENTATION (  '', ( #677 ), #855 ) ;
#86 = MECHANICAL_DESIGN_GEOMETRIC_PRESENTATION_REPRESENTATION (  '', ( #1318 ), #1137 ) ;
#87 = VERTEX_POINT ( 'NONE', #472 ) ;
#88 = DIRECTION ( 'NONE',  ( 0.000000000000000000, 1.000000000000000000, 0.000000000000000000 ) ) ;
#89 = DIRECTION ( 'NONE',  ( -0.000000000000000000, -1.000000000000000000, -0.000000000000000000 ) ) ;
#90 = SURFACE_STYLE_USAGE ( .BOTH. , #402 ) ;
#91 = EDGE_CURVE ( 'NONE', #63, #151, #386, .T. ) ;
#92 = DIRECTION ( 'NONE',  ( -0.000000000000000000, 1.000000000000000000, 0.000000000000000000 ) ) ;
#93 = DIRECTION ( 'NONE',  ( 0.000000000000000000, 0.000000000000000000, 1.000000000000000000 ) ) ;
#94 =( NAMED_UNIT ( * ) PLANE_ANGLE_UNIT ( ) SI_UNIT ( $, .RADIAN. ) );
#95 = ORIENTED_EDGE ( 'NONE', *, *, #108, .T. ) ;
#96 = FILL_AREA_STYLE ('',( #1015 ) ) ;
#97 = CARTESIAN_POINT ( 'NONE',  ( 2.000000000000000000, 2.000000000000000000, -1.999999999999994005 ) ) ;
#98 = EDGE_CURVE ( 'NONE', #1240, #602, #1150, .T. ) ;
#99 = ORIENTED_EDGE ( 'NONE', *, *, #333, .T. ) ;
#100 = ADVANCED_FACE ( 'NONE', ( #269 ), #686, .F. ) ;
#101 = DIRECTION ( 'NONE',  ( 0.000000000000000000, 0.000000000000000000, -1.000000000000000000 ) ) ;
#102 = CIRCLE ( 'NONE', #716, 0.9999999999999978906 ) ;
#103 = CIRCLE ( 'NONE', #389, 0.9999999999999978906 ) ;
#104 = FILL_AREA_STYLE ('',( #1021 ) ) ;
#105 = AXIS2_PLACEMENT_3D ( 'NONE', #844, #749, #598 ) ;
#106 = EDGE_LOOP ( 'NONE', ( #1014, #951, #295, #1061, #1272, #682, #1319, #244, #1189, #69, #28, #236, #1089, #1079, #1145 ) ) ;
#107 =( GEOMETRIC_REPRESENTATION_CONTEXT ( 3 ) GLOBAL_UNCERTAINTY_ASSIGNED_CONTEXT ( ( #413 ) ) GLOBAL_UNIT_ASSIGNED_CONTEXT ( ( #517, #1326, #816 ) ) REPRESENTATION_CONTEXT ( 'NONE', 'WORKASPACE' ) );
#108 = EDGE_CURVE ( 'NONE', #211, #1284, #1082, .T. ) ;
#109 = SURFACE_SIDE_STYLE ('',( #214 ) ) ;
#110 = AXIS2_PLACEMENT_3D ( 'NONE', #968, #9, #752 ) ;
#111 = STYLED_ITEM ( 'NONE', ( #640 ), #1094 ) ;
#112 = FILL_AREA_STYLE_COLOUR ( '', #1274 ) ;
#113 = FILL_AREA_STYLE_COLOUR ( '', #1177 ) ;
#114 = VERTEX_POINT ( 'NONE', #550 ) ;
#115 =( LENGTH_UNIT ( ) NAMED_UNIT ( * ) SI_UNIT ( .MILLI., .METRE. ) );
#116 =( NAMED_UNIT ( * ) PLANE_ANGLE_UNIT ( ) SI_UNIT ( $, .RADIAN. ) );
#117 = FILL_AREA_STYLE ('',( #1038 ) ) ;
#118 = ORIENTED_EDGE ( 'NONE', *, *, #394, .T. ) ;
#119 = APPLICATION_PROTOCOL_DEFINITION ( 'draft international standard', 'automotive_design', 1998, #59 ) ;
#120 =( NAMED_UNIT ( * ) SI_UNIT ( $, .STERADIAN. ) SOLID_ANGLE_UNIT ( ) );
#121 = CARTESIAN_POINT ( 'NONE',  ( 25.00000000000000000, 2.000000000000000000, -2.000000000000000888 ) ) ;
#122 = DIRECTION ( 'NONE',  ( 1.000000000000000000, 0.000000000000000000, 0.000000000000000000 ) ) ;
#123 = ORIENTED_EDGE ( 'NONE', *, *, #83, .T. ) ;
#124 = STYLED_ITEM ( 'NONE', ( #1034 ), #202 ) ;
#125 = SURFACE_STYLE_FILL_AREA ( #322 ) ;
#126 =( GEOMETRIC_REPRESENTATION_CONTEXT ( 3 ) GLOBAL_UNCERTAINTY_ASSIGNED_CONTEXT ( ( #156 ) ) GLOBAL_UNIT_ASSIGNED_CONTEXT ( ( #491, #911, #1026 ) ) REPRESENTATION_CONTEXT ( 'NONE', 'WORKASPACE' ) );
#127 = DIRECTION ( 'NONE',  ( -1.000000000000000000, 0.000000000000000000, 4.336808689942019708E-16 ) ) ;
#128 = CARTESIAN_POINT ( 'NONE',  ( 11.00000000000000355, 0.000000000000000000, -1.999999999999950928 ) ) ;
#129 = STYLED_ITEM ( 'NONE', ( #178 ), #730 ) ;
#130 = CARTESIAN_POINT ( 'NONE',  ( 5.000000000000000000, 1.000000000000000000, -5.000000000000000000 ) ) ;
#131 = SURFACE_STYLE_USAGE ( .BOTH. , #337 ) ;
#132 = VERTEX_POINT ( 'NONE', #308 ) ;
#133 = DIRECTION ( 'NONE',  ( -0.000000000000000000, -0.000000000000000000, 1.000000000000000000 ) ) ;
#134 = PLANE ( 'NONE',  #283 ) ;
#135 = EDGE_LOOP ( 'NONE', ( #443, #99, #1227, #447 ) ) ;
#136 = ORIENTED_EDGE ( 'NONE', *, *, #536, .F. ) ;
#137 = SURFACE_STYLE_USAGE ( .BOTH. , #265 ) ;
#138 = CARTESIAN_POINT ( 'NONE',  ( 5.000000000000000000, 1.000000000000000000, -8.673617379884035472E-16 ) ) ;
#139 =( NAMED_UNIT ( * ) PLANE_ANGLE_UNIT ( ) SI_UNIT ( $, .RADIAN. ) );
#140 = EDGE_LOOP ( 'NONE', ( #249, #270, #318, #970 ) ) ;
#141 = EDGE_CURVE ( 'NONE', #975, #41, #474, .T. ) ;
#142 = MECHANICAL_DESIGN_GEOMETRIC_PRESENTATION_REPRESENTATION (  '', ( #124 ), #941 ) ;
#143 = DIRECTION ( 'NONE',  ( -0.000000000000000000, -0.000000000000000000, -1.000000000000000000 ) ) ;
#144 = PRESENTATION_LAYER_ASSIGNMENT (  '', '', ( #803 ) ) ;
#145 = PRESENTATION_LAYER_ASSIGNMENT (  '', '', ( #1197 ) ) ;
#146 = CARTESIAN_POINT ( 'NONE',  ( 4.458809472654770900, -0.5000000000000004441, -3.999999999999994671 ) ) ;
#147 = EDGE_CURVE ( 'NONE', #463, #385, #613, .T. ) ;
#148 = DIRECTION ( 'NONE',  ( 0.000000000000000000, -1.000000000000000000, 0.000000000000000000 ) ) ;
#149 = COLOUR_RGB ( '',1.000000000000000000, 0.9372549019607843146, 0.1372549019607843257 ) ;
#150 = ORIENTED_EDGE ( 'NONE', *, *, #582, .F. ) ;
#151 = VERTEX_POINT ( 'NONE', #341 ) ;
#152 = SURFACE_STYLE_FILL_AREA ( #755 ) ;
#153 = LINE ( 'NONE', #1098, #606 ) ;
#154 = CARTESIAN_POINT ( 'NONE',  ( 11.00000000000000355, 0.000000000000000000, -1.999999999999950928 ) ) ;
#155 = FACE_OUTER_BOUND ( 'NONE', #1328, .T. ) ;
#156 = UNCERTAINTY_MEASURE_WITH_UNIT (LENGTH_MEASURE( 1.000000000000000082E-05 ), #491, 'distance_accuracy_value', 'NONE');
#157 = SURFACE_SIDE_STYLE ('',( #1288 ) ) ;
#158 = CARTESIAN_POINT ( 'NONE',  ( 9.122498999199178726, -4.000000000000000000, -1.553985997188485499E-15 ) ) ;
#159 = LINE ( 'NONE', #1008, #1041 ) ;
#160 = VERTEX_POINT ( 'NONE', #724 ) ;
#161 = DIRECTION ( 'NONE',  ( -1.000000000000000000, 0.000000000000000000, 0.000000000000000000 ) ) ;
#162 = SURFACE_STYLE_FILL_AREA ( #1091 ) ;
#163 = VECTOR ( 'NONE', #477, 1000.000000000000000 ) ;
#164 = SURFACE_STYLE_USAGE ( .BOTH. , #78 ) ;
#165 = CIRCLE ( 'NONE', #943, 1.000000000000000222 ) ;
#166 = VECTOR ( 'NONE', #846, 1000.000000000000000 ) ;
#167 = CARTESIAN_POINT ( 'NONE',  ( 25.00000000000000000, 0.000000000000000000, -2.999999999999998668 ) ) ;
#168 = ORIENTED_EDGE ( 'NONE', *, *, #1285, .F. ) ;
#169 = CARTESIAN_POINT ( 'NONE',  ( 1.999999999999997335, -1.500000000000000000, -2.999999999999996447 ) ) ;
#170 = UNCERTAINTY_MEASURE_WITH_UNIT (LENGTH_MEASURE( 1.000000000000000082E-05 ), #808, 'distance_accuracy_value', 'NONE');
#171 = FILL_AREA_STYLE_COLOUR ( '', #391 ) ;
#172 = CARTESIAN_POINT ( 'NONE',  ( 19.92820323027550700, 2.000000000000000000, -4.000000000000000888 ) ) ;
#173 = DIRECTION ( 'NONE',  ( -1.000000000000000000, -0.000000000000000000, 4.995447944556281690E-17 ) ) ;
#174 = PRESENTATION_STYLE_ASSIGNMENT (( #627 ) ) ;
#175 = EDGE_LOOP ( 'NONE', ( #878, #1111 ) ) ;
#176 = EDGE_CURVE ( 'NONE', #132, #87, #653, .T. ) ;
#177 = EDGE_CURVE ( 'NONE', #484, #403, #1174, .T. ) ;
#178 = PRESENTATION_STYLE_ASSIGNMENT (( #1116 ) ) ;
#179 = SURFACE_SIDE_STYLE ('',( #1245 ) ) ;
#180 = ORIENTED_EDGE ( 'NONE', *, *, #1306, .F. ) ;
#181 = CARTESIAN_POINT ( 'NONE',  ( 0.000000000000000000, 2.000000000000000000, 0.000000000000000000 ) ) ;
#182 = CYLINDRICAL_SURFACE ( 'NONE', #235, 1.000000000000000000 ) ;
#183 = EDGE_CURVE ( 'NONE', #863, #211, #751, .T. ) ;
#184 = UNCERTAINTY_MEASURE_WITH_UNIT (LENGTH_MEASURE( 1.000000000000000082E-05 ), #427, 'distance_accuracy_value', 'NONE');
#185 = VECTOR ( 'NONE', #616, 1000.000000000000000 ) ;
#186 = DIRECTION ( 'NONE',  ( 0.000000000000000000, 1.000000000000000000, 0.000000000000000000 ) ) ;
#187 = DIRECTION ( 'NONE',  ( 0.000000000000000000, 0.000000000000000000, 1.000000000000000000 ) ) ;
#188 = CIRCLE ( 'NONE', #1222, 4.000000000000000000 ) ;
#189 = MECHANICAL_DESIGN_GEOMETRIC_PRESENTATION_REPRESENTATION (  '', ( #1195 ), #921 ) ;
#190 =( NAMED_UNIT ( * ) SI_UNIT ( $, .STERADIAN. ) SOLID_ANGLE_UNIT ( ) );
#191 = EDGE_LOOP ( 'NONE', ( #468, #168, #375, #1125 ) ) ;
#192 = VECTOR ( 'NONE', #34, 1000.000000000000000 ) ;
#193 =( NAMED_UNIT ( * ) SI_UNIT ( $, .STERADIAN. ) SOLID_ANGLE_UNIT ( ) );
#194 =( LENGTH_UNIT ( ) NAMED_UNIT ( * ) SI_UNIT ( .MILLI., .METRE. ) );
#195 = CARTESIAN_POINT ( 'NONE',  ( 18.00000000000000355, 0.000000000000000000, -2.000000000000000000 ) ) ;
#196 =( NAMED_UNIT ( * ) PLANE_ANGLE_UNIT ( ) SI_UNIT ( $, .RADIAN. ) );
#197 = CYLINDRICAL_SURFACE ( 'NONE', #854, 4.000000000000000000 ) ;
#198 = ORIENTED_EDGE ( 'NONE', *, *, #977, .F. ) ;
#199 = DIRECTION ( 'NONE',  ( 1.000000000000000000, -0.000000000000000000, -1.517883041479720802E-15 ) ) ;
#200 = LINE ( 'NONE', #334, #39 ) ;
#201 = LINE ( 'NONE', #626, #281 ) ;
#202 = ADVANCED_FACE ( 'NONE', ( #1164 ), #1236, .F. ) ;
#203 = CARTESIAN_POINT ( 'NONE',  ( 4.458809472654772676, -0.5000000000000004441, 4.685669294024504861E-16 ) ) ;
#204 = ORIENTED_EDGE ( 'NONE', *, *, #1016, .T. ) ;
#205 =( NAMED_UNIT ( * ) SI_UNIT ( $, .STERADIAN. ) SOLID_ANGLE_UNIT ( ) );
#206 = CARTESIAN_POINT ( 'NONE',  ( 19.92820323027550700, 0.000000000000000000, -4.000000000000000888 ) ) ;
#207 =( LENGTH_UNIT ( ) NAMED_UNIT ( * ) SI_UNIT ( .MILLI., .METRE. ) );
#208 = VECTOR ( 'NONE', #173, 1000.000000000000000 ) ;
#209 = SURFACE_SIDE_STYLE ('',( #226 ) ) ;
#210 = VECTOR ( 'NONE', #199, 1000.000000000000000 ) ;
#211 = VERTEX_POINT ( 'NONE', #429 ) ;
#212 =( GEOMETRIC_REPRESENTATION_CONTEXT ( 3 ) GLOBAL_UNCERTAINTY_ASSIGNED_CONTEXT ( ( #49 ) ) GLOBAL_UNIT_ASSIGNED_CONTEXT ( ( #1210, #1113, #593 ) ) REPRESENTATION_CONTEXT ( 'NONE', 'WORKASPACE' ) );
#213 = VECTOR ( 'NONE', #1214, 1000.000000000000000 ) ;
#214 = SURFACE_STYLE_FILL_AREA ( #858 ) ;
#215 =( GEOMETRIC_REPRESENTATION_CONTEXT ( 3 ) GLOBAL_UNCERTAINTY_ASSIGNED_CONTEXT ( ( #290 ) ) GLOBAL_UNIT_ASSIGNED_CONTEXT ( ( #650, #17, #750 ) ) REPRESENTATION_CONTEXT ( 'NONE', 'WORKASPACE' ) );
#216 = LINE ( 'NONE', #422, #637 ) ;
#217 = DIRECTION ( 'NONE',  ( 0.000000000000000000, -0.000000000000000000, 1.000000000000000000 ) ) ;
#218 = CARTESIAN_POINT ( 'NONE',  ( 21.00000000000000000, 2.000000000000000000, -1.301042606982605321E-15 ) ) ;
#219 = ORIENTED_EDGE ( 'NONE', *, *, #339, .T. ) ;
#220 = CARTESIAN_POINT ( 'NONE',  ( 0.000000000000000000, 0.000000000000000000, 0.000000000000000000 ) ) ;
#221 = CARTESIAN_POINT ( 'NONE',  ( 4.458809472654772676, 2.500000000000000444, 4.685669294024502889E-16 ) ) ;
#222 = CARTESIAN_POINT ( 'NONE',  ( 4.458809472654772676, -0.5000000000000004441, -1.301042606982605321E-15 ) ) ;
#223 = PRODUCT_RELATED_PRODUCT_CATEGORY ( 'part', '', ( #917 ) ) ;
#224 =( NAMED_UNIT ( * ) PLANE_ANGLE_UNIT ( ) SI_UNIT ( $, .RADIAN. ) );
#225 = EDGE_CURVE ( 'NONE', #40, #1279, #829, .T. ) ;
#226 = SURFACE_STYLE_FILL_AREA ( #662 ) ;
#227 = ORIENTED_EDGE ( 'NONE', *, *, #141, .T. ) ;
#228 = DIRECTION ( 'NONE',  ( 1.000000000000000000, 0.000000000000000000, 0.000000000000000000 ) ) ;
#229 = DIRECTION ( 'NONE',  ( 0.000000000000000000, 0.000000000000000000, 1.000000000000000000 ) ) ;
#230 = SURFACE_STYLE_USAGE ( .BOTH. , #953 ) ;
#231 = EDGE_CURVE ( 'NONE', #1284, #211, #432, .T. ) ;
#232 = DIRECTION ( 'NONE',  ( 0.000000000000000000, 0.000000000000000000, 1.000000000000000000 ) ) ;
#233 = SURFACE_STYLE_FILL_AREA ( #524 ) ;
#234 = VERTEX_POINT ( 'NONE', #1062 ) ;
#235 = AXIS2_PLACEMENT_3D ( 'NONE', #1211, #89, #822 ) ;
#236 = ORIENTED_EDGE ( 'NONE', *, *, #1333, .F. ) ;
#237 = STYLED_ITEM ( 'NONE', ( #174 ), #529 ) ;
#238 = CARTESIAN_POINT ( 'NONE',  ( 11.00000000000000355, 0.000000000000000000, -1.999999999999950928 ) ) ;
#239 = SURFACE_SIDE_STYLE ('',( #866 ) ) ;
#240 =( GEOMETRIC_REPRESENTATION_CONTEXT ( 3 ) GLOBAL_UNCERTAINTY_ASSIGNED_CONTEXT ( ( #356 ) ) GLOBAL_UNIT_ASSIGNED_CONTEXT ( ( #1277, #261, #567 ) ) REPRESENTATION_CONTEXT ( 'NONE', 'WORKASPACE' ) );
#241 = CARTESIAN_POINT ( 'NONE',  ( 18.00000000000000355, 0.000000000000000000, -2.999999999999997780 ) ) ;
#242 = ORIENTED_EDGE ( 'NONE', *, *, #679, .T. ) ;
#243 = EDGE_CURVE ( 'NONE', #1181, #572, #1063, .T. ) ;
#244 = ORIENTED_EDGE ( 'NONE', *, *, #1325, .T. ) ;
#245 = DIRECTION ( 'NONE',  ( 0.000000000000000000, -0.000000000000000000, 1.000000000000000000 ) ) ;
#246 = CARTESIAN_POINT ( 'NONE',  ( 18.00000000000000355, 0.000000000000000000, -2.999999999999997780 ) ) ;
#247 = ORIENTED_EDGE ( 'NONE', *, *, #183, .F. ) ;
#248 = ADVANCED_FACE ( 'NONE', ( #660, #972, #349, #1132 ), #1076, .F. ) ;
#249 = ORIENTED_EDGE ( 'NONE', *, *, #1155, .F. ) ;
#250 = DIRECTION ( 'NONE',  ( 0.000000000000000000, 0.000000000000000000, 1.000000000000000000 ) ) ;
#251 = FILL_AREA_STYLE ('',( #901 ) ) ;
#252 = CARTESIAN_POINT ( 'NONE',  ( 9.122498999199178726, 2.000000000000000000, -1.725894538544121205E-15 ) ) ;
#253 = LINE ( 'NONE', #1101, #924 ) ;
#254 = ORIENTED_EDGE ( 'NONE', *, *, #1329, .F. ) ;
#255 = AXIS2_PLACEMENT_3D ( 'NONE', #904, #597, #1208 ) ;
#256 = ORIENTED_EDGE ( 'NONE', *, *, #83, .F. ) ;
#257 = VECTOR ( 'NONE', #408, 1000.000000000000000 ) ;
#258 = SURFACE_SIDE_STYLE ('',( #152 ) ) ;
#259 = VECTOR ( 'NONE', #2, 1000.000000000000000 ) ;
#260 = STYLED_ITEM ( 'NONE', ( #702 ), #533 ) ;
#261 =( NAMED_UNIT ( * ) PLANE_ANGLE_UNIT ( ) SI_UNIT ( $, .RADIAN. ) );
#262 = AXIS2_PLACEMENT_3D ( 'NONE', #747, #1159, #320 ) ;
#263 =( LENGTH_UNIT ( ) NAMED_UNIT ( * ) SI_UNIT ( .MILLI., .METRE. ) );
#264 = ORIENTED_EDGE ( 'NONE', *, *, #1074, .T. ) ;
#265 = SURFACE_SIDE_STYLE ('',( #664 ) ) ;
#266 = CARTESIAN_POINT ( 'NONE',  ( 11.00000000000000355, 0.000000000000000000, -1.999999999999950928 ) ) ;
#267 = DIRECTION ( 'NONE',  ( 0.000000000000000000, 1.000000000000000000, 0.000000000000000000 ) ) ;
#268 = CARTESIAN_POINT ( 'NONE',  ( 5.000000000000000000, 0.000000000000000000, 0.000000000000000000 ) ) ;
#269 = FACE_OUTER_BOUND ( 'NONE', #1220, .T. ) ;
#270 = ORIENTED_EDGE ( 'NONE', *, *, #37, .F. ) ;
#271 = CARTESIAN_POINT ( 'NONE',  ( 11.00000000000000355, 0.000000000000000000, -2.999999999999948930 ) ) ;
#272 = CARTESIAN_POINT ( 'NONE',  ( 18.00000000000000355, 0.000000000000000000, -1.000000000000002220 ) ) ;
#273 = DIRECTION ( 'NONE',  ( 0.000000000000000000, 0.000000000000000000, -1.000000000000000000 ) ) ;
#274 = ORIENTED_EDGE ( 'NONE', *, *, #813, .F. ) ;
#275 = PRESENTATION_STYLE_ASSIGNMENT (( #137 ) ) ;
#276 = DIRECTION ( 'NONE',  ( -0.000000000000000000, -1.000000000000000000, -0.000000000000000000 ) ) ;
#277 = AXIS2_PLACEMENT_3D ( 'NONE', #881, #1293, #245 ) ;
#278 = CARTESIAN_POINT ( 'NONE',  ( 6.000000000000000000, 1.000000000000000000, -3.999999999999995559 ) ) ;
#279 =( GEOMETRIC_REPRESENTATION_CONTEXT ( 3 ) GLOBAL_UNCERTAINTY_ASSIGNED_CONTEXT ( ( #494 ) ) GLOBAL_UNIT_ASSIGNED_CONTEXT ( ( #194, #116, #428 ) ) REPRESENTATION_CONTEXT ( 'NONE', 'WORKASPACE' ) );
#280 =( GEOMETRIC_REPRESENTATION_CONTEXT ( 3 ) GLOBAL_UNCERTAINTY_ASSIGNED_CONTEXT ( ( #697 ) ) GLOBAL_UNIT_ASSIGNED_CONTEXT ( ( #115, #966, #205 ) ) REPRESENTATION_CONTEXT ( 'NONE', 'WORKASPACE' ) );
#281 = VECTOR ( 'NONE', #67, 1000.000000000000000 ) ;
#282 = SURFACE_STYLE_FILL_AREA ( #931 ) ;
#283 = AXIS2_PLACEMENT_3D ( 'NONE', #793, #787, #889 ) ;
#284 = DIRECTION ( 'NONE',  ( 0.000000000000000000, -1.000000000000000000, -0.000000000000000000 ) ) ;
#285 = AXIS2_PLACEMENT_3D ( 'NONE', #824, #832, #1223 ) ;
#286 = DIRECTION ( 'NONE',  ( 0.000000000000000000, 0.000000000000000000, -1.000000000000000000 ) ) ;
#287 = ORIENTED_EDGE ( 'NONE', *, *, #883, .F. ) ;
#288 = EDGE_CURVE ( 'NONE', #773, #403, #355, .T. ) ;
#289 = FILL_AREA_STYLE_COLOUR ( '', #540 ) ;
#290 = UNCERTAINTY_MEASURE_WITH_UNIT (LENGTH_MEASURE( 1.000000000000000082E-05 ), #650, 'distance_accuracy_value', 'NONE');
#291 = DIRECTION ( 'NONE',  ( 0.000000000000000000, 1.000000000000000000, 0.000000000000000000 ) ) ;
#292 = CARTESIAN_POINT ( 'NONE',  ( 0.000000000000000000, 2.000000000000000000, 0.000000000000000000 ) ) ;
#293 = DIRECTION ( 'NONE',  ( 0.000000000000000000, -1.000000000000000000, 0.000000000000000000 ) ) ;
#294 = EDGE_CURVE ( 'NONE', #933, #132, #153, .T. ) ;
#295 = ORIENTED_EDGE ( 'NONE', *, *, #915, .T. ) ;
#296 = CARTESIAN_POINT ( 'NONE',  ( 1.999999999999997335, 3.500000000000000000, -1.999999999999996669 ) ) ;
#297 = CARTESIAN_POINT ( 'NONE',  ( 25.00000000000000000, 2.000000000000000000, -4.000000000000000888 ) ) ;
#298 =( NAMED_UNIT ( * ) SI_UNIT ( $, .STERADIAN. ) SOLID_ANGLE_UNIT ( ) );
#299 = DIRECTION ( 'NONE',  ( -4.336808689942018722E-16, 0.000000000000000000, -1.000000000000000000 ) ) ;
#300 = SURFACE_STYLE_USAGE ( .BOTH. , #179 ) ;
#301 = ORIENTED_EDGE ( 'NONE', *, *, #840, .T. ) ;
#302 = DIRECTION ( 'NONE',  ( 0.000000000000000000, 0.000000000000000000, 1.000000000000000000 ) ) ;
#303 = LINE ( 'NONE', #717, #210 ) ;
#304 = UNCERTAINTY_MEASURE_WITH_UNIT (LENGTH_MEASURE( 1.000000000000000082E-05 ), #1287, 'distance_accuracy_value', 'NONE');
#305 = CARTESIAN_POINT ( 'NONE',  ( 4.458809472654772676, -1.500000000000000000, -1.228285472622890244E-16 ) ) ;
#306 = COLOUR_RGB ( '',1.000000000000000000, 0.9372549019607843146, 0.1372549019607843257 ) ;
#307 = PRESENTATION_LAYER_ASSIGNMENT (  '', '', ( #346 ) ) ;
#308 = CARTESIAN_POINT ( 'NONE',  ( 18.00000000000000355, 2.000000000000000000, -1.000000000000002220 ) ) ;
#309 = CIRCLE ( 'NONE', #805, 1.000000000000000222 ) ;
#310 = CIRCLE ( 'NONE', #833, 1.000000000000000000 ) ;
#311 = DIRECTION ( 'NONE',  ( 0.000000000000000000, -0.000000000000000000, 1.000000000000000000 ) ) ;
#312 = ORIENTED_EDGE ( 'NONE', *, *, #108, .F. ) ;
#313 = STYLED_ITEM ( 'NONE', ( #641 ), #767 ) ;
#314 =( NAMED_UNIT ( * ) PLANE_ANGLE_UNIT ( ) SI_UNIT ( $, .RADIAN. ) );
#315 = SURFACE_STYLE_FILL_AREA ( #1046 ) ;
#316 = FACE_OUTER_BOUND ( 'NONE', #20, .T. ) ;
#317 = SURFACE_STYLE_FILL_AREA ( #417 ) ;
#318 = ORIENTED_EDGE ( 'NONE', *, *, #1016, .F. ) ;
#319 = FILL_AREA_STYLE_COLOUR ( '', #31 ) ;
#320 = DIRECTION ( 'NONE',  ( 0.000000000000000000, 0.000000000000000000, -1.000000000000000000 ) ) ;
#321 = ORIENTED_EDGE ( 'NONE', *, *, #3, .T. ) ;
#322 = FILL_AREA_STYLE ('',( #1250 ) ) ;
#323 = PRESENTATION_STYLE_ASSIGNMENT (( #1251 ) ) ;
#324 =( GEOMETRIC_REPRESENTATION_CONTEXT ( 3 ) GLOBAL_UNCERTAINTY_ASSIGNED_CONTEXT ( ( #66 ) ) GLOBAL_UNIT_ASSIGNED_CONTEXT ( ( #1314, #1225, #506 ) ) REPRESENTATION_CONTEXT ( 'NONE', 'WORKASPACE' ) );
#325 = ORIENTED_EDGE ( 'NONE', *, *, #688, .T. ) ;
#326 = AXIS2_PLACEMENT_3D ( 'NONE', #936, #186, #383 ) ;
#327 = PRESENTATION_STYLE_ASSIGNMENT (( #733 ) ) ;
#328 = ADVANCED_FACE ( 'NONE', ( #894 ), #368, .F. ) ;
#329 = CIRCLE ( 'NONE', #502, 0.9999999999999978906 ) ;
#330 = CARTESIAN_POINT ( 'NONE',  ( 18.00000000000000355, 0.000000000000000000, -2.000000000000000000 ) ) ;
#331 = FILL_AREA_STYLE_COLOUR ( '', #1193 ) ;
#332 = ORIENTED_EDGE ( 'NONE', *, *, #819, .T. ) ;
#333 = EDGE_CURVE ( 'NONE', #602, #498, #556, .T. ) ;
#334 = CARTESIAN_POINT ( 'NONE',  ( 1.999999999999998224, 2.000000000000000000, -1.301042606982605321E-15 ) ) ;
#335 = CARTESIAN_POINT ( 'NONE',  ( 25.00000000000000000, 2.000000000000000000, -2.000000000000000888 ) ) ;
#336 = DIRECTION ( 'NONE',  ( 4.336808689942018722E-16, -0.000000000000000000, 1.000000000000000000 ) ) ;
#337 = SURFACE_SIDE_STYLE ('',( #1253 ) ) ;
#338 = ORIENTED_EDGE ( 'NONE', *, *, #1100, .F. ) ;
#339 = EDGE_CURVE ( 'NONE', #956, #773, #103, .T. ) ;
#340 = FILL_AREA_STYLE_COLOUR ( '', #1024 ) ;
#341 = CARTESIAN_POINT ( 'NONE',  ( 6.790654235926972149, -0.7499999999999993339, -3.999999999999995559 ) ) ;
#342 =( NAMED_UNIT ( * ) SI_UNIT ( $, .STERADIAN. ) SOLID_ANGLE_UNIT ( ) );
#343 = ADVANCED_FACE ( 'NONE', ( #155 ), #54, .T. ) ;
#344 = AXIS2_PLACEMENT_3D ( 'NONE', #967, #826, #93 ) ;
#345 = ORIENTED_EDGE ( 'NONE', *, *, #568, .T. ) ;
#346 = STYLED_ITEM ( 'NONE', ( #888 ), #328 ) ;
#347 = MECHANICAL_DESIGN_GEOMETRIC_PRESENTATION_REPRESENTATION (  '', ( #237 ), #875 ) ;
#348 =( GEOMETRIC_REPRESENTATION_CONTEXT ( 3 ) GLOBAL_UNCERTAINTY_ASSIGNED_CONTEXT ( ( #726 ) ) GLOBAL_UNIT_ASSIGNED_CONTEXT ( ( #867, #442, #1172 ) ) REPRESENTATION_CONTEXT ( 'NONE', 'WORKASPACE' ) );
#349 = FACE_BOUND ( 'NONE', #175, .T. ) ;
#350 = CARTESIAN_POINT ( 'NONE',  ( 25.00000000000000000, 0.000000000000000000, -2.000000000000000888 ) ) ;
#351 = EDGE_CURVE ( 'NONE', #385, #687, #918, .T. ) ;
#352 =( LENGTH_UNIT ( ) NAMED_UNIT ( * ) SI_UNIT ( .MILLI., .METRE. ) );
#353 = ORIENTED_EDGE ( 'NONE', *, *, #1074, .F. ) ;
#354 = EDGE_LOOP ( 'NONE', ( #410, #1160, #359, #254 ) ) ;
#355 = LINE ( 'NONE', #271, #163 ) ;
#356 = UNCERTAINTY_MEASURE_WITH_UNIT (LENGTH_MEASURE( 1.000000000000000082E-05 ), #1277, 'distance_accuracy_value', 'NONE');
#357 = DIRECTION ( 'NONE',  ( 0.000000000000000000, 0.000000000000000000, 1.000000000000000000 ) ) ;
#358 = FACE_OUTER_BOUND ( 'NONE', #984, .T. ) ;
#359 = ORIENTED_EDGE ( 'NONE', *, *, #1325, .F. ) ;
#360 = FILL_AREA_STYLE_COLOUR ( '', #149 ) ;
#361 = DIRECTION ( 'NONE',  ( 0.000000000000000000, 1.000000000000000000, 0.000000000000000000 ) ) ;
#362 = SURFACE_STYLE_USAGE ( .BOTH. , #157 ) ;
#363 = ORIENTED_EDGE ( 'NONE', *, *, #1058, .T. ) ;
#364 = ORIENTED_EDGE ( 'NONE', *, *, #840, .F. ) ;
#365 = CIRCLE ( 'NONE', #539, 2.000000000000000000 ) ;
#366 = EDGE_CURVE ( 'NONE', #990, #514, #407, .T. ) ;
#367 = FILL_AREA_STYLE_COLOUR ( '', #459 ) ;
#368 = CYLINDRICAL_SURFACE ( 'NONE', #1042, 1.000000000000000000 ) ;
#369 = AXIS2_PLACEMENT_3D ( 'NONE', #1104, #1305, #161 ) ;
#370 = VECTOR ( 'NONE', #797, 1000.000000000000000 ) ;
#371 = FILL_AREA_STYLE ('',( #481 ) ) ;
#372 = COLOUR_RGB ( '',1.000000000000000000, 0.9372549019607843146, 0.1372549019607843257 ) ;
#373 = PRESENTATION_STYLE_ASSIGNMENT (( #891 ) ) ;
#374 = DIRECTION ( 'NONE',  ( 3.917189900008717578E-16, -0.000000000000000000, 1.000000000000000000 ) ) ;
#375 = ORIENTED_EDGE ( 'NONE', *, *, #962, .T. ) ;
#376 = EDGE_CURVE ( 'NONE', #398, #151, #510, .T. ) ;
#377 =( NAMED_UNIT ( * ) PLANE_ANGLE_UNIT ( ) SI_UNIT ( $, .RADIAN. ) );
#378 = SURFACE_STYLE_USAGE ( .BOTH. , #765 ) ;
#379 = DIRECTION ( 'NONE',  ( -1.000000000000000000, 0.000000000000000000, 4.336808689942018722E-16 ) ) ;
#380 = DIRECTION ( 'NONE',  ( 0.000000000000000000, 0.000000000000000000, 1.000000000000000000 ) ) ;
#381 = ORIENTED_EDGE ( 'NONE', *, *, #977, .T. ) ;
#382 = DIRECTION ( 'NONE',  ( -4.336808689942018722E-16, 0.000000000000000000, -1.000000000000000000 ) ) ;
#383 = DIRECTION ( 'NONE',  ( 0.000000000000000000, 0.000000000000000000, 1.000000000000000000 ) ) ;
#384 = ORIENTED_EDGE ( 'NONE', *, *, #3, .F. ) ;
#385 = VERTEX_POINT ( 'NONE', #169 ) ;
#386 = CIRCLE ( 'NONE', #255, 4.000000000000000000 ) ;
#387 = DIRECTION ( 'NONE',  ( 1.000000000000000000, 0.000000000000000000, -6.195440985631454085E-17 ) ) ;
#388 = DIRECTION ( 'NONE',  ( 0.000000000000000000, 0.000000000000000000, 1.000000000000000000 ) ) ;
#389 = AXIS2_PLACEMENT_3D ( 'NONE', #266, #361, #48 ) ;
#390 = FACE_OUTER_BOUND ( 'NONE', #615, .T. ) ;
#391 = COLOUR_RGB ( '',1.000000000000000000, 0.9372549019607843146, 0.1372549019607843257 ) ;
#392 = COLOUR_RGB ( '',1.000000000000000000, 0.9372549019607843146, 0.1372549019607843257 ) ;
#393 = CIRCLE ( 'NONE', #326, 0.9999999999999978906 ) ;
#394 = EDGE_CURVE ( 'NONE', #1087, #990, #365, .T. ) ;
#395 = SURFACE_SIDE_STYLE ('',( #282 ) ) ;
#396 = VECTOR ( 'NONE', #336, 1000.000000000000000 ) ;
#397 = STYLED_ITEM ( 'NONE', ( #512 ), #1020 ) ;
#398 = VERTEX_POINT ( 'NONE', #1323 ) ;
#399 = CARTESIAN_POINT ( 'NONE',  ( 18.00000000000000355, 2.000000000000000000, -2.000000000000000000 ) ) ;
#400 = EDGE_CURVE ( 'NONE', #990, #788, #624, .T. ) ;
#401 =( NAMED_UNIT ( * ) SI_UNIT ( $, .STERADIAN. ) SOLID_ANGLE_UNIT ( ) );
#402 = SURFACE_SIDE_STYLE ('',( #1324 ) ) ;
#403 = VERTEX_POINT ( 'NONE', #519 ) ;
#404 = SURFACE_STYLE_FILL_AREA ( #104 ) ;
#405 = ORIENTED_EDGE ( 'NONE', *, *, #1285, .T. ) ;
#406 = PRESENTATION_STYLE_ASSIGNMENT (( #804 ) ) ;
#407 = LINE ( 'NONE', #297, #1134 ) ;
#408 = DIRECTION ( 'NONE',  ( -0.000000000000000000, 1.000000000000000000, -0.000000000000000000 ) ) ;
#409 = CARTESIAN_POINT ( 'NONE',  ( 25.00000000000000000, 0.000000000000000000, -4.000000000000000888 ) ) ;
#410 = ORIENTED_EDGE ( 'NONE', *, *, #819, .F. ) ;
#411 =( LENGTH_UNIT ( ) NAMED_UNIT ( * ) SI_UNIT ( .MILLI., .METRE. ) );
#412 = AXIS2_PLACEMENT_3D ( 'NONE', #1070, #1141, #187 ) ;
#413 = UNCERTAINTY_MEASURE_WITH_UNIT (LENGTH_MEASURE( 1.000000000000000082E-05 ), #517, 'distance_accuracy_value', 'NONE');
#414 = AXIS2_PLACEMENT_3D ( 'NONE', #84, #513, #311 ) ;
#415 = CARTESIAN_POINT ( 'NONE',  ( 1.999999999999998224, 2.000000000000000000, -1.301042606982605321E-15 ) ) ;
#416 = PRESENTATION_LAYER_ASSIGNMENT (  '', '', ( #677 ) ) ;
#417 = FILL_AREA_STYLE ('',( #1340 ) ) ;
#418 = ORIENTED_EDGE ( 'NONE', *, *, #962, .F. ) ;
#419 = MECHANICAL_DESIGN_GEOMETRIC_PRESENTATION_REPRESENTATION (  '', ( #439 ), #348 ) ;
#420 =( NAMED_UNIT ( * ) PLANE_ANGLE_UNIT ( ) SI_UNIT ( $, .RADIAN. ) );
#421 = VERTEX_POINT ( 'NONE', #710 ) ;
#422 = CARTESIAN_POINT ( 'NONE',  ( 5.000000000000000000, 2.000000000000000000, 0.000000000000000000 ) ) ;
#423 = LINE ( 'NONE', #241, #166 ) ;
#424 = ADVANCED_FACE ( 'NONE', ( #70 ), #182, .F. ) ;
#425 = ORIENTED_EDGE ( 'NONE', *, *, #37, .T. ) ;
#426 = EDGE_CURVE ( 'NONE', #435, #687, #831, .T. ) ;
#427 =( LENGTH_UNIT ( ) NAMED_UNIT ( * ) SI_UNIT ( .MILLI., .METRE. ) );
#428 =( NAMED_UNIT ( * ) SI_UNIT ( $, .STERADIAN. ) SOLID_ANGLE_UNIT ( ) );
#429 = CARTESIAN_POINT ( 'NONE',  ( 25.00000000000000000, 2.000000000000000000, -1.000000000000003109 ) ) ;
#430 = FILL_AREA_STYLE_COLOUR ( '', #1029 ) ;
#431 = EDGE_CURVE ( 'NONE', #572, #622, #303, .T. ) ;
#432 = CIRCLE ( 'NONE', #560, 0.9999999999999978906 ) ;
#433 = FILL_AREA_STYLE_COLOUR ( '', #1241 ) ;
#434 = PRESENTATION_LAYER_ASSIGNMENT (  '', '', ( #523 ) ) ;
#435 = VERTEX_POINT ( 'NONE', #1043 ) ;
#436 = CIRCLE ( 'NONE', #961, 0.9999999999999978906 ) ;
#437 = AXIS2_PLACEMENT_3D ( 'NONE', #58, #148, #1196 ) ;
#438 = CYLINDRICAL_SURFACE ( 'NONE', #105, 4.000000000000000000 ) ;
#439 = STYLED_ITEM ( 'NONE', ( #323 ), #774 ) ;
#440 = DIRECTION ( 'NONE',  ( -0.000000000000000000, 1.000000000000000000, -0.000000000000000000 ) ) ;
#441 = DIRECTION ( 'NONE',  ( 0.000000000000000000, 1.000000000000000000, 0.000000000000000000 ) ) ;
#442 =( NAMED_UNIT ( * ) PLANE_ANGLE_UNIT ( ) SI_UNIT ( $, .RADIAN. ) );
#443 = ORIENTED_EDGE ( 'NONE', *, *, #1119, .T. ) ;
#444 = DIRECTION ( 'NONE',  ( 0.000000000000000000, 0.000000000000000000, -1.000000000000000000 ) ) ;
#445 =( NAMED_UNIT ( * ) SI_UNIT ( $, .STERADIAN. ) SOLID_ANGLE_UNIT ( ) );
#446 = DIRECTION ( 'NONE',  ( -3.917189900008717578E-16, 0.000000000000000000, -1.000000000000000000 ) ) ;
#447 = ORIENTED_EDGE ( 'NONE', *, *, #1100, .T. ) ;
#448 = ORIENTED_EDGE ( 'NONE', *, *, #176, .T. ) ;
#449 = EDGE_CURVE ( 'NONE', #463, #435, #1341, .T. ) ;
#450 =( NAMED_UNIT ( * ) SI_UNIT ( $, .STERADIAN. ) SOLID_ANGLE_UNIT ( ) );
#451 = DIRECTION ( 'NONE',  ( 0.000000000000000000, 0.000000000000000000, 1.000000000000000000 ) ) ;
#452 = DIRECTION ( 'NONE',  ( -3.917189900008717578E-16, 0.000000000000000000, -1.000000000000000000 ) ) ;
#453 = SURFACE_SIDE_STYLE ('',( #1188 ) ) ;
#454 = ORIENTED_EDGE ( 'NONE', *, *, #470, .T. ) ;
#455 = PRESENTATION_LAYER_ASSIGNMENT (  '', '', ( #780 ) ) ;
#456 = VECTOR ( 'NONE', #382, 1000.000000000000000 ) ;
#457 = VECTOR ( 'NONE', #276, 1000.000000000000000 ) ;
#458 = ORIENTED_EDGE ( 'NONE', *, *, #712, .F. ) ;
#459 = COLOUR_RGB ( '',1.000000000000000000, 0.9372549019607843146, 0.1372549019607843257 ) ;
#460 = STYLED_ITEM ( 'NONE', ( #903 ), #619 ) ;
#461 = PRESENTATION_STYLE_ASSIGNMENT (( #549 ) ) ;
#462 = CARTESIAN_POINT ( 'NONE',  ( 4.458809472654770900, 3.500000000000000000, -3.999999999999996447 ) ) ;
#463 = VERTEX_POINT ( 'NONE', #1168 ) ;
#464 = CARTESIAN_POINT ( 'NONE',  ( 6.000000000000000000, 1.000000000000000000, 0.000000000000000000 ) ) ;
#465 = CARTESIAN_POINT ( 'NONE',  ( 1.999999999999997335, 3.501000000000000334, -1.999999999999996669 ) ) ;
#466 = LINE ( 'NONE', #684, #192 ) ;
#467 = CYLINDRICAL_SURFACE ( 'NONE', #609, 4.000000000000000000 ) ;
#468 = ORIENTED_EDGE ( 'NONE', *, *, #568, .F. ) ;
#469 = EDGE_LOOP ( 'NONE', ( #1309, #559, #578, #95 ) ) ;
#470 = EDGE_CURVE ( 'NONE', #790, #234, #165, .T. ) ;
#471 = DIRECTION ( 'NONE',  ( 0.000000000000000000, 1.000000000000000000, 0.000000000000000000 ) ) ;
#472 = CARTESIAN_POINT ( 'NONE',  ( 18.00000000000000355, 2.000000000000000000, -2.999999999999997780 ) ) ;
#473 = ADVANCED_FACE ( 'NONE', ( #952 ), #1256, .T. ) ;
#474 = CIRCLE ( 'NONE', #998, 2.000000000000000000 ) ;
#475 = VECTOR ( 'NONE', #1010, 1000.000000000000000 ) ;
#476 = DIRECTION ( 'NONE',  ( 4.336808689942018722E-16, -0.000000000000000000, 1.000000000000000000 ) ) ;
#477 = DIRECTION ( 'NONE',  ( -0.000000000000000000, 1.000000000000000000, -0.000000000000000000 ) ) ;
#478 = CIRCLE ( 'NONE', #1025, 1.000000000000000000 ) ;
#479 = UNCERTAINTY_MEASURE_WITH_UNIT (LENGTH_MEASURE( 1.000000000000000082E-05 ), #411, 'distance_accuracy_value', 'NONE');
#480 = STYLED_ITEM ( 'NONE', ( #596 ), #638 ) ;
#481 = FILL_AREA_STYLE_COLOUR ( '', #723 ) ;
#482 = DIRECTION ( 'NONE',  ( 3.917189900008717578E-16, -0.000000000000000000, 1.000000000000000000 ) ) ;
#483 = EDGE_LOOP ( 'NONE', ( #338, #541, #274, #1149 ) ) ;
#484 = VERTEX_POINT ( 'NONE', #849 ) ;
#485 = CARTESIAN_POINT ( 'NONE',  ( 4.458809472654771788, -1.500000000000000000, -1.999999999999997335 ) ) ;
#486 =( NAMED_UNIT ( * ) SI_UNIT ( $, .STERADIAN. ) SOLID_ANGLE_UNIT ( ) );
#487 = ADVANCED_FACE ( 'NONE', ( #639 ), #438, .F. ) ;
#488 = DIRECTION ( 'NONE',  ( -0.000000000000000000, -1.000000000000000000, -0.000000000000000000 ) ) ;
#489 = LINE ( 'NONE', #172, #213 ) ;
#490 = ORIENTED_EDGE ( 'NONE', *, *, #1151, .F. ) ;
#491 =( LENGTH_UNIT ( ) NAMED_UNIT ( * ) SI_UNIT ( .MILLI., .METRE. ) );
#492 = SURFACE_SIDE_STYLE ('',( #515 ) ) ;
#493 = EDGE_CURVE ( 'NONE', #687, #385, #310, .T. ) ;
#494 = UNCERTAINTY_MEASURE_WITH_UNIT (LENGTH_MEASURE( 1.000000000000000082E-05 ), #194, 'distance_accuracy_value', 'NONE');
#495 = DIRECTION ( 'NONE',  ( -0.000000000000000000, 1.000000000000000000, -0.000000000000000000 ) ) ;
#496 = SURFACE_STYLE_USAGE ( .BOTH. , #1108 ) ;
#497 = EDGE_CURVE ( 'NONE', #435, #463, #478, .T. ) ;
#498 = VERTEX_POINT ( 'NONE', #1327 ) ;
#499 = AXIS2_PLACEMENT_3D ( 'NONE', #335, #441, #451 ) ;
#500 = SURFACE_STYLE_FILL_AREA ( #75 ) ;
#501 = DIRECTION ( 'NONE',  ( 0.000000000000000000, -0.000000000000000000, -1.000000000000000000 ) ) ;
#502 = AXIS2_PLACEMENT_3D ( 'NONE', #705, #291, #1331 ) ;
#503 =( GEOMETRIC_REPRESENTATION_CONTEXT ( 3 ) GLOBAL_UNCERTAINTY_ASSIGNED_CONTEXT ( ( #1028 ) ) GLOBAL_UNIT_ASSIGNED_CONTEXT ( ( #507, #94, #190 ) ) REPRESENTATION_CONTEXT ( 'NONE', 'WORKASPACE' ) );
#504 = AXIS2_PLACEMENT_3D ( 'NONE', #570, #482, #45 ) ;
#505 =( GEOMETRIC_REPRESENTATION_CONTEXT ( 3 ) GLOBAL_UNCERTAINTY_ASSIGNED_CONTEXT ( ( #1138 ) ) GLOBAL_UNIT_ASSIGNED_CONTEXT ( ( #661, #882, #1282 ) ) REPRESENTATION_CONTEXT ( 'NONE', 'WORKASPACE' ) );
#506 =( NAMED_UNIT ( * ) SI_UNIT ( $, .STERADIAN. ) SOLID_ANGLE_UNIT ( ) );
#507 =( LENGTH_UNIT ( ) NAMED_UNIT ( * ) SI_UNIT ( .MILLI., .METRE. ) );
#508 = EDGE_LOOP ( 'NONE', ( #795, #180 ) ) ;
#509 = DIRECTION ( 'NONE',  ( 0.000000000000000000, -0.000000000000000000, 1.000000000000000000 ) ) ;
#510 = LINE ( 'NONE', #1233, #185 ) ;
#511 = UNCERTAINTY_MEASURE_WITH_UNIT (LENGTH_MEASURE( 1.000000000000000082E-05 ), #1037, 'distance_accuracy_value', 'NONE');
#512 = PRESENTATION_STYLE_ASSIGNMENT (( #90 ) ) ;
#513 = DIRECTION ( 'NONE',  ( -0.000000000000000000, 1.000000000000000000, 0.000000000000000000 ) ) ;
#514 = VERTEX_POINT ( 'NONE', #409 ) ;
#515 = SURFACE_STYLE_FILL_AREA ( #96 ) ;
#516 = FACE_BOUND ( 'NONE', #508, .T. ) ;
#517 =( LENGTH_UNIT ( ) NAMED_UNIT ( * ) SI_UNIT ( .MILLI., .METRE. ) );
#518 = EDGE_LOOP ( 'NONE', ( #531, #13, #820, #725 ) ) ;
#519 = CARTESIAN_POINT ( 'NONE',  ( 11.00000000000000355, 2.000000000000000000, -2.999999999999948930 ) ) ;
#520 = LINE ( 'NONE', #735, #259 ) ;
#521 = MECHANICAL_DESIGN_GEOMETRIC_PRESENTATION_REPRESENTATION (  '', ( #346 ), #29 ) ;
#522 = MECHANICAL_DESIGN_GEOMETRIC_PRESENTATION_REPRESENTATION (  '', ( #397 ), #279 ) ;
#523 = STYLED_ITEM ( 'NONE', ( #543 ), #473 ) ;
#524 = FILL_AREA_STYLE ('',( #430 ) ) ;
#525 = MECHANICAL_DESIGN_GEOMETRIC_PRESENTATION_REPRESENTATION (  '', ( #480 ), #107 ) ;
#526 = CARTESIAN_POINT ( 'NONE',  ( 1.999999999999997335, 0.000000000000000000, -1.999999999999996669 ) ) ;
#527 = ORIENTED_EDGE ( 'NONE', *, *, #1213, .T. ) ;
#528 = DIRECTION ( 'NONE',  ( 1.000000000000000000, 0.000000000000000000, -3.917189900008717578E-16 ) ) ;
#529 = ADVANCED_FACE ( 'NONE', ( #827, #1118 ), #929, .F. ) ;
#530 = ADVANCED_FACE ( 'NONE', ( #4 ), #197, .T. ) ;
#531 = ORIENTED_EDGE ( 'NONE', *, *, #449, .T. ) ;
#532 = CARTESIAN_POINT ( 'NONE',  ( 11.00000000000000355, 2.000000000000000000, -1.999999999999950928 ) ) ;
#533 = ADVANCED_FACE ( 'NONE', ( #1035 ), #938, .F. ) ;
#534 = SURFACE_STYLE_USAGE ( .BOTH. , #1059 ) ;
#535 = EDGE_LOOP ( 'NONE', ( #123, #425, #325, #1096, #1180, #301, #1280, #1254, #991, #363, #768, #332, #1289, #1342, #857 ) ) ;
#536 = EDGE_CURVE ( 'NONE', #905, #604, #753, .T. ) ;
#537 = SHAPE_DEFINITION_REPRESENTATION ( #815, #554 ) ;
#538 = CARTESIAN_POINT ( 'NONE',  ( 2.000000000000000000, 0.000000000000000000, -1.999999999999994005 ) ) ;
#539 = AXIS2_PLACEMENT_3D ( 'NONE', #923, #1335, #388 ) ;
#540 = COLOUR_RGB ( '',1.000000000000000000, 0.9372549019607843146, 0.1372549019607843257 ) ;
#541 = ORIENTED_EDGE ( 'NONE', *, *, #718, .F. ) ;
#542 = VECTOR ( 'NONE', #1131, 1000.000000000000000 ) ;
#543 = PRESENTATION_STYLE_ASSIGNMENT (( #1262 ) ) ;
#544 = AXIS2_PLACEMENT_3D ( 'NONE', #50, #267, #1099 ) ;
#545 = DIRECTION ( 'NONE',  ( -1.000000000000000000, 0.000000000000000000, 3.917189900008717578E-16 ) ) ;
#546 = PRESENTATION_STYLE_ASSIGNMENT (( #131 ) ) ;
#547 = ORIENTED_EDGE ( 'NONE', *, *, #351, .T. ) ;
#548 = ORIENTED_EDGE ( 'NONE', *, *, #35, .T. ) ;
#549 = SURFACE_STYLE_USAGE ( .BOTH. , #1186 ) ;
#550 = CARTESIAN_POINT ( 'NONE',  ( 1.999999999999997335, -1.500000000000000000, 0.000000000000000000 ) ) ;
#551 = DIRECTION ( 'NONE',  ( 1.000000000000000000, 0.000000000000000000, -4.336808689942017736E-16 ) ) ;
#552 = DIRECTION ( 'NONE',  ( -0.000000000000000000, 1.000000000000000000, -0.000000000000000000 ) ) ;
#553 = ORIENTED_EDGE ( 'NONE', *, *, #243, .F. ) ;
#554 = ADVANCED_BREP_SHAPE_REPRESENTATION ( 'JawRod-180', ( #1270, #898 ), #212 ) ;
#555 = ORIENTED_EDGE ( 'NONE', *, *, #1200, .F. ) ;
#556 = LINE ( 'NONE', #1184, #692 ) ;
#557 = LINE ( 'NONE', #252, #1049 ) ;
#558 = STYLED_ITEM ( 'NONE', ( #68 ), #100 ) ;
#559 = ORIENTED_EDGE ( 'NONE', *, *, #887, .F. ) ;
#560 = AXIS2_PLACEMENT_3D ( 'NONE', #121, #872, #232 ) ;
#561 = AXIS2_PLACEMENT_3D ( 'NONE', #625, #1163, #1053 ) ;
#562 = PRESENTATION_LAYER_ASSIGNMENT (  '', '', ( #460 ) ) ;
#563 = DIRECTION ( 'NONE',  ( -0.000000000000000000, 1.000000000000000000, -0.000000000000000000 ) ) ;
#564 = CIRCLE ( 'NONE', #760, 1.000000000000000000 ) ;
#565 =( NAMED_UNIT ( * ) SI_UNIT ( $, .STERADIAN. ) SOLID_ANGLE_UNIT ( ) );
#566 = AXIS2_PLACEMENT_3D ( 'NONE', #532, #839, #1146 ) ;
#567 =( NAMED_UNIT ( * ) SI_UNIT ( $, .STERADIAN. ) SOLID_ANGLE_UNIT ( ) );
#568 = EDGE_CURVE ( 'NONE', #892, #790, #955, .T. ) ;
#569 = ADVANCED_FACE ( 'NONE', ( #740 ), #847, .F. ) ;
#570 = CARTESIAN_POINT ( 'NONE',  ( 9.122498999199176950, 6.000000000000000000, -3.999999999999996447 ) ) ;
#571 = ORIENTED_EDGE ( 'NONE', *, *, #98, .F. ) ;
#572 = VERTEX_POINT ( 'NONE', #647 ) ;
#573 = FACE_OUTER_BOUND ( 'NONE', #1078, .T. ) ;
#574 = SURFACE_STYLE_FILL_AREA ( #251 ) ;
#575 = UNCERTAINTY_MEASURE_WITH_UNIT (LENGTH_MEASURE( 1.000000000000000082E-05 ), #763, 'distance_accuracy_value', 'NONE');
#576 = ADVANCED_FACE ( 'NONE', ( #1060, #963 ), #1066, .F. ) ;
#577 = SURFACE_STYLE_FILL_AREA ( #673 ) ;
#578 = ORIENTED_EDGE ( 'NONE', *, *, #183, .T. ) ;
#579 = CARTESIAN_POINT ( 'NONE',  ( 11.00000000000000355, 0.000000000000000000, -0.9999999999999531486 ) ) ;
#580 = FILL_AREA_STYLE_COLOUR ( '', #873 ) ;
#581 = FACE_OUTER_BOUND ( 'NONE', #1040, .T. ) ;
#582 = EDGE_CURVE ( 'NONE', #160, #788, #806, .T. ) ;
#583 = FILL_AREA_STYLE ('',( #1102 ) ) ;
#584 = ORIENTED_EDGE ( 'NONE', *, *, #231, .F. ) ;
#585 = PRESENTATION_LAYER_ASSIGNMENT (  '', '', ( #1195 ) ) ;
#586 = SURFACE_SIDE_STYLE ('',( #996 ) ) ;
#587 = LINE ( 'NONE', #1006, #1194 ) ;
#588 = PRESENTATION_LAYER_ASSIGNMENT (  '', '', ( #1320 ) ) ;
#589 = DIRECTION ( 'NONE',  ( -0.000000000000000000, 1.000000000000000000, -0.000000000000000000 ) ) ;
#590 = CARTESIAN_POINT ( 'NONE',  ( 1.999999999999997335, 3.500000000000000000, -2.999999999999996447 ) ) ;
#591 = ADVANCED_FACE ( 'NONE', ( #778 ), #467, .F. ) ;
#592 = EDGE_LOOP ( 'NONE', ( #1209, #658 ) ) ;
#593 =( NAMED_UNIT ( * ) SI_UNIT ( $, .STERADIAN. ) SOLID_ANGLE_UNIT ( ) );
#594 = CARTESIAN_POINT ( 'NONE',  ( 25.00000000000000000, 2.000000000000000000, -4.000000000000000888 ) ) ;
#595 = FILL_AREA_STYLE ('',( #171 ) ) ;
#596 = PRESENTATION_STYLE_ASSIGNMENT (( #908 ) ) ;
#597 = DIRECTION ( 'NONE',  ( 3.917189900008717578E-16, -0.000000000000000000, 1.000000000000000000 ) ) ;
#598 = DIRECTION ( 'NONE',  ( -1.000000000000000000, 0.000000000000000000, 4.336808689942018722E-16 ) ) ;
#599 = ORIENTED_EDGE ( 'NONE', *, *, #288, .T. ) ;
#600 = DIRECTION ( 'NONE',  ( 0.000000000000000000, 0.000000000000000000, -1.000000000000000000 ) ) ;
#601 = LINE ( 'NONE', #1130, #456 ) ;
#602 = VERTEX_POINT ( 'NONE', #268 ) ;
#603 =( NAMED_UNIT ( * ) PLANE_ANGLE_UNIT ( ) SI_UNIT ( $, .RADIAN. ) );
#604 = VERTEX_POINT ( 'NONE', #1095 ) ;
#605 =( NAMED_UNIT ( * ) PLANE_ANGLE_UNIT ( ) SI_UNIT ( $, .RADIAN. ) );
#606 = VECTOR ( 'NONE', #680, 1000.000000000000000 ) ;
#607 = CARTESIAN_POINT ( 'NONE',  ( 2.000000000000015543, -1.500000000000000000, -3.999999999999993339 ) ) ;
#608 =( GEOMETRIC_REPRESENTATION_CONTEXT ( 3 ) GLOBAL_UNCERTAINTY_ASSIGNED_CONTEXT ( ( #170 ) ) GLOBAL_UNIT_ASSIGNED_CONTEXT ( ( #808, #925, #298 ) ) REPRESENTATION_CONTEXT ( 'NONE', 'WORKASPACE' ) );
#609 = AXIS2_PLACEMENT_3D ( 'NONE', #158, #1283, #379 ) ;
#610 = SURFACE_STYLE_FILL_AREA ( #700 ) ;
#611 = EDGE_CURVE ( 'NONE', #41, #572, #253, .T. ) ;
#612 = PRESENTATION_LAYER_ASSIGNMENT (  '', '', ( #439 ) ) ;
#613 = LINE ( 'NONE', #851, #1237 ) ;
#614 = PRESENTATION_STYLE_ASSIGNMENT (( #300 ) ) ;
#615 = EDGE_LOOP ( 'NONE', ( #1249, #72, #668, #118 ) ) ;
#616 = DIRECTION ( 'NONE',  ( -4.336808689942018722E-16, 0.000000000000000000, -1.000000000000000000 ) ) ;
#617 = UNCERTAINTY_MEASURE_WITH_UNIT (LENGTH_MEASURE( 1.000000000000000082E-05 ), #24, 'distance_accuracy_value', 'NONE');
#618 = FACE_BOUND ( 'NONE', #1291, .T. ) ;
#619 = ADVANCED_FACE ( 'NONE', ( #690 ), #999, .F. ) ;
#620 = SURFACE_STYLE_USAGE ( .BOTH. , #239 ) ;
#621 = DIRECTION ( 'NONE',  ( -1.000000000000000000, 0.000000000000000000, 4.336808689942018722E-16 ) ) ;
#622 = VERTEX_POINT ( 'NONE', #462 ) ;
#623 = DIRECTION ( 'NONE',  ( 0.000000000000000000, 0.000000000000000000, 1.000000000000000000 ) ) ;
#624 = LINE ( 'NONE', #594, #475 ) ;
#625 = CARTESIAN_POINT ( 'NONE',  ( 9.122498999199178726, -4.000000000000000000, -1.301042606982605321E-15 ) ) ;
#626 = CARTESIAN_POINT ( 'NONE',  ( 1.999999999999979128, -1.500000000000000000, 0.000000000000000000 ) ) ;
#627 = SURFACE_STYLE_USAGE ( .BOTH. , #73 ) ;
#628 = ORIENTED_EDGE ( 'NONE', *, *, #431, .F. ) ;
#629 = AXIS2_PLACEMENT_3D ( 'NONE', #995, #284, #380 ) ;
#630 = CYLINDRICAL_SURFACE ( 'NONE', #1322, 0.9999999999999978906 ) ;
#631 = VECTOR ( 'NONE', #563, 1000.000000000000000 ) ;
#632 = FACE_OUTER_BOUND ( 'NONE', #1167, .T. ) ;
#633 = STYLED_ITEM ( 'NONE', ( #655 ), #569 ) ;
#634 =( LENGTH_UNIT ( ) NAMED_UNIT ( * ) SI_UNIT ( .MILLI., .METRE. ) );
#635 = AXIS2_PLACEMENT_3D ( 'NONE', #1064, #446, #551 ) ;
#636 = VERTEX_POINT ( 'NONE', #884 ) ;
#637 = VECTOR ( 'NONE', #1263, 1000.000000000000000 ) ;
#638 = ADVANCED_FACE ( 'NONE', ( #358 ), #772, .F. ) ;
#639 = FACE_OUTER_BOUND ( 'NONE', #766, .T. ) ;
#640 = PRESENTATION_STYLE_ASSIGNMENT (( #230 ) ) ;
#641 = PRESENTATION_STYLE_ASSIGNMENT (( #534 ) ) ;
#642 = EDGE_CURVE ( 'NONE', #1009, #114, #201, .T. ) ;
#643 =( NAMED_UNIT ( * ) SI_UNIT ( $, .STERADIAN. ) SOLID_ANGLE_UNIT ( ) );
#644 = EDGE_LOOP ( 'NONE', ( #47, #811, #242, #227 ) ) ;
#645 = DIRECTION ( 'NONE',  ( -1.000000000000000000, 0.000000000000000000, 0.000000000000000000 ) ) ;
#646 = FACE_OUTER_BOUND ( 'NONE', #140, .T. ) ;
#647 = CARTESIAN_POINT ( 'NONE',  ( 2.000000000000015543, 3.500000000000000000, -3.999999999999993339 ) ) ;
#648 = VERTEX_POINT ( 'NONE', #722 ) ;
#649 = DIRECTION ( 'NONE',  ( 0.000000000000000000, 0.000000000000000000, -1.000000000000000000 ) ) ;
#650 =( LENGTH_UNIT ( ) NAMED_UNIT ( * ) SI_UNIT ( .MILLI., .METRE. ) );
#651 = PRESENTATION_LAYER_ASSIGNMENT (  '', '', ( #558 ) ) ;
#652 = LINE ( 'NONE', #1265, #396 ) ;
#653 = CIRCLE ( 'NONE', #412, 0.9999999999999978906 ) ;
#654 = PRESENTATION_LAYER_ASSIGNMENT (  '', '', ( #1239 ) ) ;
#655 = PRESENTATION_STYLE_ASSIGNMENT (( #1055 ) ) ;
#656 = CIRCLE ( 'NONE', #369, 4.000000000000000000 ) ;
#657 =( GEOMETRIC_REPRESENTATION_CONTEXT ( 3 ) GLOBAL_UNCERTAINTY_ASSIGNED_CONTEXT ( ( #479 ) ) GLOBAL_UNIT_ASSIGNED_CONTEXT ( ( #411, #942, #401 ) ) REPRESENTATION_CONTEXT ( 'NONE', 'WORKASPACE' ) );
#658 = ORIENTED_EDGE ( 'NONE', *, *, #493, .F. ) ;
#659 = CARTESIAN_POINT ( 'NONE',  ( 1.999999999999997335, 3.501000000000000334, -1.999999999999996669 ) ) ;
#660 = FACE_BOUND ( 'NONE', #1246, .T. ) ;
#661 =( LENGTH_UNIT ( ) NAMED_UNIT ( * ) SI_UNIT ( .MILLI., .METRE. ) );
#662 = FILL_AREA_STYLE ('',( #433 ) ) ;
#663 = ORIENTED_EDGE ( 'NONE', *, *, #8, .F. ) ;
#664 = SURFACE_STYLE_FILL_AREA ( #1201 ) ;
#665 = SURFACE_SIDE_STYLE ('',( #574 ) ) ;
#666 = FILL_AREA_STYLE_COLOUR ( '', #372 ) ;
#667 = ORIENTED_EDGE ( 'NONE', *, *, #294, .T. ) ;
#668 = ORIENTED_EDGE ( 'NONE', *, *, #1333, .T. ) ;
#669 = EDGE_CURVE ( 'NONE', #5, #1284, #914, .T. ) ;
#670 = CARTESIAN_POINT ( 'NONE',  ( 25.00000000000000000, 2.000000000000000000, -1.301042606982605321E-15 ) ) ;
#671 = EDGE_CURVE ( 'NONE', #636, #114, #713, .T. ) ;
#672 = UNCERTAINTY_MEASURE_WITH_UNIT (LENGTH_MEASURE( 1.000000000000000082E-05 ), #634, 'distance_accuracy_value', 'NONE');
#673 = FILL_AREA_STYLE ('',( #1296 ) ) ;
#674 = EDGE_LOOP ( 'NONE', ( #405, #527 ) ) ;
#675 = COLOUR_RGB ( '',1.000000000000000000, 0.9372549019607843146, 0.1372549019607843257 ) ;
#676 = PRESENTATION_LAYER_ASSIGNMENT (  '', '', ( #30 ) ) ;
#677 = STYLED_ITEM ( 'NONE', ( #406 ), #1290 ) ;
#678 = MECHANICAL_DESIGN_GEOMETRIC_PRESENTATION_REPRESENTATION (  '', ( #633 ), #696 ) ;
#679 = EDGE_CURVE ( 'NONE', #1261, #975, #810, .T. ) ;
#680 = DIRECTION ( 'NONE',  ( -0.000000000000000000, 1.000000000000000000, -0.000000000000000000 ) ) ;
#681 =( NAMED_UNIT ( * ) SI_UNIT ( $, .STERADIAN. ) SOLID_ANGLE_UNIT ( ) );
#682 = ORIENTED_EDGE ( 'NONE', *, *, #671, .T. ) ;
#683 = SURFACE_STYLE_USAGE ( .BOTH. , #258 ) ;
#684 = CARTESIAN_POINT ( 'NONE',  ( 5.999999999999977796, -1.500000000000000000, -3.999999999999999112 ) ) ;
#685 =( NAMED_UNIT ( * ) SI_UNIT ( $, .STERADIAN. ) SOLID_ANGLE_UNIT ( ) );
#686 = CYLINDRICAL_SURFACE ( 'NONE', #940, 0.9999999999999978906 ) ;
#687 = VERTEX_POINT ( 'NONE', #1224 ) ;
#688 = EDGE_CURVE ( 'NONE', #648, #41, #489, .T. ) ;
#689 = CARTESIAN_POINT ( 'NONE',  ( 11.00000000000000355, 0.000000000000000000, -0.9999999999999531486 ) ) ;
#690 = FACE_OUTER_BOUND ( 'NONE', #910, .T. ) ;
#691 = SURFACE_STYLE_FILL_AREA ( #583 ) ;
#692 = VECTOR ( 'NONE', #143, 1000.000000000000000 ) ;
#693 = VERTEX_POINT ( 'NONE', #1308 ) ;
#694 = MECHANICAL_DESIGN_GEOMETRIC_PRESENTATION_REPRESENTATION (  '', ( #111 ), #215 ) ;
#695 = PRESENTATION_STYLE_ASSIGNMENT (( #1122 ) ) ;
#696 =( GEOMETRIC_REPRESENTATION_CONTEXT ( 3 ) GLOBAL_UNCERTAINTY_ASSIGNED_CONTEXT ( ( #672 ) ) GLOBAL_UNIT_ASSIGNED_CONTEXT ( ( #634, #974, #1166 ) ) REPRESENTATION_CONTEXT ( 'NONE', 'WORKASPACE' ) );
#697 = UNCERTAINTY_MEASURE_WITH_UNIT (LENGTH_MEASURE( 1.000000000000000082E-05 ), #115, 'distance_accuracy_value', 'NONE');
#698 = FACE_OUTER_BOUND ( 'NONE', #354, .T. ) ;
#699 = CIRCLE ( 'NONE', #561, 4.000000000000000000 ) ;
#700 = FILL_AREA_STYLE ('',( #1085 ) ) ;
#701 = DIRECTION ( 'NONE',  ( 3.917189900008717578E-16, -0.000000000000000000, 1.000000000000000000 ) ) ;
#702 = PRESENTATION_STYLE_ASSIGNMENT (( #1039 ) ) ;
#703 = ORIENTED_EDGE ( 'NONE', *, *, #394, .F. ) ;
#704 = LINE ( 'NONE', #181, #738 ) ;
#705 = CARTESIAN_POINT ( 'NONE',  ( 18.00000000000000355, 0.000000000000000000, -2.000000000000000000 ) ) ;
#706 = CARTESIAN_POINT ( 'NONE',  ( 1.999999999999998224, 2.000000000000000000, -3.999999999999994227 ) ) ;
#707 = DIRECTION ( 'NONE',  ( -1.000000000000000000, 0.000000000000000000, 0.000000000000000000 ) ) ;
#708 = ORIENTED_EDGE ( 'NONE', *, *, #1200, .T. ) ;
#709 = CARTESIAN_POINT ( 'NONE',  ( 1.999999999999997335, -1.500000000000000000, -1.999999999999996669 ) ) ;
#710 = CARTESIAN_POINT ( 'NONE',  ( 1.999999999999998224, 0.000000000000000000, -3.999999999999994227 ) ) ;
#711 = DIRECTION ( 'NONE',  ( 0.000000000000000000, 0.000000000000000000, 1.000000000000000000 ) ) ;
#712 = EDGE_CURVE ( 'NONE', #848, #933, #393, .T. ) ;
#713 = LINE ( 'NONE', #415, #1086 ) ;
#714 = CARTESIAN_POINT ( 'NONE',  ( 9.122498999199176950, 0.000000000000000000, -3.999999999999996447 ) ) ;
#715 = EDGE_LOOP ( 'NONE', ( #879, #1232 ) ) ;
#716 = AXIS2_PLACEMENT_3D ( 'NONE', #154, #1000, #798 ) ;
#717 = CARTESIAN_POINT ( 'NONE',  ( 5.999999999999977796, 3.500000000000000000, -3.999999999999999112 ) ) ;
#718 = EDGE_CURVE ( 'NONE', #948, #421, #1030, .T. ) ;
#719 =( GEOMETRIC_REPRESENTATION_CONTEXT ( 3 ) GLOBAL_UNCERTAINTY_ASSIGNED_CONTEXT ( ( #1212 ) ) GLOBAL_UNIT_ASSIGNED_CONTEXT ( ( #1005, #786, #565 ) ) REPRESENTATION_CONTEXT ( 'NONE', 'WORKASPACE' ) );
#720 = LINE ( 'NONE', #278, #981 ) ;
#721 = VECTOR ( 'NONE', #476, 1000.000000000000000 ) ;
#722 = CARTESIAN_POINT ( 'NONE',  ( 5.000000000000000888, 2.000000000000000000, -3.999999999999994671 ) ) ;
#723 = COLOUR_RGB ( '',1.000000000000000000, 0.9372549019607843146, 0.1372549019607843257 ) ;
#724 = CARTESIAN_POINT ( 'NONE',  ( 6.790654235926972149, 2.749999999999999556, -3.999999999999995559 ) ) ;
#725 = ORIENTED_EDGE ( 'NONE', *, *, #147, .F. ) ;
#726 = UNCERTAINTY_MEASURE_WITH_UNIT (LENGTH_MEASURE( 1.000000000000000082E-05 ), #867, 'distance_accuracy_value', 'NONE');
#727 = ORIENTED_EDGE ( 'NONE', *, *, #333, .F. ) ;
#728 = CARTESIAN_POINT ( 'NONE',  ( 9.122498999199178726, 6.000000000000000000, -1.301042606982605321E-15 ) ) ;
#729 = CARTESIAN_POINT ( 'NONE',  ( 1.999999999999997335, 3.500000000000000000, -1.999999999999996669 ) ) ;
#730 = ADVANCED_FACE ( 'NONE', ( #1124, #316 ), #1018, .T. ) ;
#731 = DIRECTION ( 'NONE',  ( -0.000000000000000000, -1.000000000000000000, -0.000000000000000000 ) ) ;
#732 = ORIENTED_EDGE ( 'NONE', *, *, #890, .F. ) ;
#733 = SURFACE_STYLE_USAGE ( .BOTH. , #21 ) ;
#734 = MECHANICAL_DESIGN_GEOMETRIC_PRESENTATION_REPRESENTATION (  '', ( #558 ), #324 ) ;
#735 = CARTESIAN_POINT ( 'NONE',  ( 2.136650232754831435E-16, 0.000000000000000000, 0.000000000000000000 ) ) ;
#736 = AXIS2_PLACEMENT_3D ( 'NONE', #959, #756, #19 ) ;
#737 = AXIS2_PLACEMENT_3D ( 'NONE', #1152, #6, #1162 ) ;
#738 = VECTOR ( 'NONE', #387, 1000.000000000000000 ) ;
#739 =( GEOMETRIC_REPRESENTATION_CONTEXT ( 3 ) GLOBAL_UNCERTAINTY_ASSIGNED_CONTEXT ( ( #32 ) ) GLOBAL_UNIT_ASSIGNED_CONTEXT ( ( #263, #876, #681 ) ) REPRESENTATION_CONTEXT ( 'NONE', 'WORKASPACE' ) );
#740 = FACE_OUTER_BOUND ( 'NONE', #469, .T. ) ;
#741 = COLOUR_RGB ( '',1.000000000000000000, 0.9372549019607843146, 0.1372549019607843257 ) ;
#742 = ORIENTED_EDGE ( 'NONE', *, *, #611, .F. ) ;
#743 = VECTOR ( 'NONE', #528, 1000.000000000000000 ) ;
#744 = CARTESIAN_POINT ( 'NONE',  ( 1.999999999999997335, 2.000000000000000000, -1.999999999999996669 ) ) ;
#745 = DIRECTION ( 'NONE',  ( -0.000000000000000000, 1.000000000000000000, -0.000000000000000000 ) ) ;
#746 = DIRECTION ( 'NONE',  ( 0.000000000000000000, -1.000000000000000000, -0.000000000000000000 ) ) ;
#747 = CARTESIAN_POINT ( 'NONE',  ( 1.999999999999997335, 3.501000000000000334, -1.999999999999996669 ) ) ;
#748 = ORIENTED_EDGE ( 'NONE', *, *, #147, .T. ) ;
#749 = DIRECTION ( 'NONE',  ( -4.336808689942018722E-16, 0.000000000000000000, -1.000000000000000000 ) ) ;
#750 =( NAMED_UNIT ( * ) SI_UNIT ( $, .STERADIAN. ) SOLID_ANGLE_UNIT ( ) );
#751 = LINE ( 'NONE', #932, #257 ) ;
#752 = DIRECTION ( 'NONE',  ( 0.000000000000000000, 0.000000000000000000, 1.000000000000000000 ) ) ;
#753 = LINE ( 'NONE', #1148, #1343 ) ;
#754 = ORIENTED_EDGE ( 'NONE', *, *, #177, .F. ) ;
#755 = FILL_AREA_STYLE ('',( #360 ) ) ;
#756 = DIRECTION ( 'NONE',  ( -0.000000000000000000, -1.000000000000000000, -0.000000000000000000 ) ) ;
#757 = MECHANICAL_DESIGN_GEOMETRIC_PRESENTATION_REPRESENTATION (  '', ( #800 ), #719 ) ;
#758 = VECTOR ( 'NONE', #731, 1000.000000000000000 ) ;
#759 = ORIENTED_EDGE ( 'NONE', *, *, #1306, .T. ) ;
#760 = AXIS2_PLACEMENT_3D ( 'NONE', #138, #1093, #979 ) ;
#761 = ORIENTED_EDGE ( 'NONE', *, *, #376, .T. ) ;
#762 = PRESENTATION_LAYER_ASSIGNMENT (  '', '', ( #397 ) ) ;
#763 =( LENGTH_UNIT ( ) NAMED_UNIT ( * ) SI_UNIT ( .MILLI., .METRE. ) );
#764 = DIRECTION ( 'NONE',  ( 0.000000000000000000, 0.000000000000000000, -1.000000000000000000 ) ) ;
#765 = SURFACE_SIDE_STYLE ('',( #1071 ) ) ;
#766 = EDGE_LOOP ( 'NONE', ( #150, #1204, #490, #732 ) ) ;
#767 = ADVANCED_FACE ( 'NONE', ( #632 ), #23, .F. ) ;
#768 = ORIENTED_EDGE ( 'NONE', *, *, #91, .T. ) ;
#769 = EDGE_CURVE ( 'NONE', #848, #87, #423, .T. ) ;
#770 = FILL_AREA_STYLE_COLOUR ( '', #1107 ) ;
#771 = DIRECTION ( 'NONE',  ( 1.000000000000000000, 0.000000000000000000, -4.336808689942017736E-16 ) ) ;
#772 = CYLINDRICAL_SURFACE ( 'NONE', #1048, 0.9999999999999978906 ) ;
#773 = VERTEX_POINT ( 'NONE', #954 ) ;
#774 = ADVANCED_FACE ( 'NONE', ( #646 ), #861, .F. ) ;
#775 = EDGE_LOOP ( 'NONE', ( #930, #1198, #667, #448 ) ) ;
#776 = DIRECTION ( 'NONE',  ( -0.000000000000000000, 1.000000000000000000, -0.000000000000000000 ) ) ;
#777 = CIRCLE ( 'NONE', #629, 1.000000000000000222 ) ;
#778 = FACE_OUTER_BOUND ( 'NONE', #1023, .T. ) ;
#779 = EDGE_LOOP ( 'NONE', ( #1142, #976 ) ) ;
#780 = STYLED_ITEM ( 'NONE', ( #1129 ), #343 ) ;
#781 = CIRCLE ( 'NONE', #1044, 2.000000000000000000 ) ;
#782 = MECHANICAL_DESIGN_GEOMETRIC_PRESENTATION_REPRESENTATION (  '', ( #260 ), #1065 ) ;
#783 = MECHANICAL_DESIGN_GEOMETRIC_PRESENTATION_REPRESENTATION (  '', ( #18 ), #126 ) ;
#784 = AXIS2_PLACEMENT_3D ( 'NONE', #1302, #589, #982 ) ;
#785 = CIRCLE ( 'NONE', #110, 1.999999999999996669 ) ;
#786 =( NAMED_UNIT ( * ) PLANE_ANGLE_UNIT ( ) SI_UNIT ( $, .RADIAN. ) );
#787 = DIRECTION ( 'NONE',  ( 3.917189900008717578E-16, -0.000000000000000000, 1.000000000000000000 ) ) ;
#788 = VERTEX_POINT ( 'NONE', #841 ) ;
#789 = EDGE_CURVE ( 'NONE', #160, #40, #652, .T. ) ;
#790 = VERTEX_POINT ( 'NONE', #12 ) ;
#791 = FACE_BOUND ( 'NONE', #592, .T. ) ;
#792 = SURFACE_STYLE_USAGE ( .BOTH. , #586 ) ;
#793 = CARTESIAN_POINT ( 'NONE',  ( 19.92820323027550700, 2.000000000000000000, -4.000000000000000888 ) ) ;
#794 = CARTESIAN_POINT ( 'NONE',  ( 5.000000000000000000, 1.000000000000000000, -3.999999999999994671 ) ) ;
#795 = ORIENTED_EDGE ( 'NONE', *, *, #176, .F. ) ;
#796 = CARTESIAN_POINT ( 'NONE',  ( 25.00000000000000000, 2.000000000000000000, -4.000000000000000888 ) ) ;
#797 = DIRECTION ( 'NONE',  ( -0.000000000000000000, 1.000000000000000000, -0.000000000000000000 ) ) ;
#798 = DIRECTION ( 'NONE',  ( 0.000000000000000000, 0.000000000000000000, 1.000000000000000000 ) ) ;
#799 = AXIS2_PLACEMENT_3D ( 'NONE', #794, #701, #909 ) ;
#800 = STYLED_ITEM ( 'NONE', ( #1105 ), #248 ) ;
#801 = ORIENTED_EDGE ( 'NONE', *, *, #470, .F. ) ;
#802 = MECHANICAL_DESIGN_GEOMETRIC_PRESENTATION_REPRESENTATION (  '', ( #30 ), #920 ) ;
#803 = STYLED_ITEM ( 'NONE', ( #614 ), #530 ) ;
#804 = SURFACE_STYLE_USAGE ( .BOTH. , #1228 ) ;
#805 = AXIS2_PLACEMENT_3D ( 'NONE', #296, #64, #1330 ) ;
#806 = CIRCLE ( 'NONE', #504, 4.000000000000000000 ) ;
#807 = UNCERTAINTY_MEASURE_WITH_UNIT (LENGTH_MEASURE( 1.000000000000000082E-05 ), #842, 'distance_accuracy_value', 'NONE');
#808 =( LENGTH_UNIT ( ) NAMED_UNIT ( * ) SI_UNIT ( .MILLI., .METRE. ) );
#809 = VECTOR ( 'NONE', #545, 1000.000000000000000 ) ;
#810 = LINE ( 'NONE', #292, #542 ) ;
#811 = ORIENTED_EDGE ( 'NONE', *, *, #1155, .T. ) ;
#812 = PRODUCT_DEFINITION ( 'General', '', #877, #997 ) ;
#813 = EDGE_CURVE ( 'NONE', #114, #948, #785, .T. ) ;
#814 = CARTESIAN_POINT ( 'NONE',  ( 1.999999999999997335, 3.501000000000000334, -0.9999999999999963363 ) ) ;
#815 = PRODUCT_DEFINITION_SHAPE ( 'NONE', 'NONE',  #812 ) ;
#816 =( NAMED_UNIT ( * ) SI_UNIT ( $, .STERADIAN. ) SOLID_ANGLE_UNIT ( ) );
#817 = ORIENTED_EDGE ( 'NONE', *, *, #1054, .F. ) ;
#818 = FILL_AREA_STYLE_COLOUR ( '', #1045 ) ;
#819 = EDGE_CURVE ( 'NONE', #151, #693, #1067, .T. ) ;
#820 = ORIENTED_EDGE ( 'NONE', *, *, #493, .T. ) ;
#821 =( LENGTH_UNIT ( ) NAMED_UNIT ( * ) SI_UNIT ( .MILLI., .METRE. ) );
#822 = DIRECTION ( 'NONE',  ( 0.000000000000000000, 0.000000000000000000, -1.000000000000000000 ) ) ;
#823 = UNCERTAINTY_MEASURE_WITH_UNIT (LENGTH_MEASURE( 1.000000000000000082E-05 ), #1332, 'distance_accuracy_value', 'NONE');
#824 = CARTESIAN_POINT ( 'NONE',  ( 25.00000000000000000, 2.000000000000000000, -2.000000000000000888 ) ) ;
#825 = DIRECTION ( 'NONE',  ( 0.000000000000000000, -1.000000000000000000, 0.000000000000000000 ) ) ;
#826 = DIRECTION ( 'NONE',  ( 0.000000000000000000, 1.000000000000000000, 0.000000000000000000 ) ) ;
#827 = FACE_BOUND ( 'NONE', #1230, .T. ) ;
#828 = ORIENTED_EDGE ( 'NONE', *, *, #769, .T. ) ;
#829 = CIRCLE ( 'NONE', #1339, 4.000000000000000000 ) ;
#830 = APPLICATION_PROTOCOL_DEFINITION ( 'draft international standard', 'automotive_design', 1998, #1183 ) ;
#831 = LINE ( 'NONE', #814, #457 ) ;
#832 = DIRECTION ( 'NONE',  ( 0.000000000000000000, 1.000000000000000000, 0.000000000000000000 ) ) ;
#833 = AXIS2_PLACEMENT_3D ( 'NONE', #1013, #293, #286 ) ;
#834 = EDGE_CURVE ( 'NONE', #948, #693, #466, .T. ) ;
#835 = COLOUR_RGB ( '',1.000000000000000000, 0.9372549019607843146, 0.1372549019607843257 ) ;
#836 = MECHANICAL_DESIGN_GEOMETRIC_PRESENTATION_REPRESENTATION (  '', ( #1243 ), #240 ) ;
#837 = ORIENTED_EDGE ( 'NONE', *, *, #497, .T. ) ;
#838 = DIRECTION ( 'NONE',  ( -0.000000000000000000, 1.000000000000000000, -0.000000000000000000 ) ) ;
#839 = DIRECTION ( 'NONE',  ( 0.000000000000000000, 1.000000000000000000, 0.000000000000000000 ) ) ;
#840 = EDGE_CURVE ( 'NONE', #622, #160, #1112, .T. ) ;
#841 = CARTESIAN_POINT ( 'NONE',  ( 9.122498999199175174, 2.000000000000000000, -4.000000000000000888 ) ) ;
#842 =( LENGTH_UNIT ( ) NAMED_UNIT ( * ) SI_UNIT ( .MILLI., .METRE. ) );
#843 = ORIENTED_EDGE ( 'NONE', *, *, #35, .F. ) ;
#844 = CARTESIAN_POINT ( 'NONE',  ( 9.122498999199178726, 6.000000000000000000, -1.553985997188485302E-15 ) ) ;
#845 = LINE ( 'NONE', #670, #1216 ) ;
#846 = DIRECTION ( 'NONE',  ( -0.000000000000000000, 1.000000000000000000, -0.000000000000000000 ) ) ;
#847 = CYLINDRICAL_SURFACE ( 'NONE', #1027, 0.9999999999999978906 ) ;
#848 = VERTEX_POINT ( 'NONE', #246 ) ;
#849 = CARTESIAN_POINT ( 'NONE',  ( 11.00000000000000355, 2.000000000000000000, -0.9999999999999531486 ) ) ;
#850 = CARTESIAN_POINT ( 'NONE',  ( 25.00000000000000000, 2.000000000000000000, -1.301042606982605321E-15 ) ) ;
#851 = CARTESIAN_POINT ( 'NONE',  ( 1.999999999999997335, 3.501000000000000334, -2.999999999999996447 ) ) ;
#852 = AXIS2_PLACEMENT_3D ( 'NONE', #1033, #1229, #101 ) ;
#853 = AXIS2_PLACEMENT_3D ( 'NONE', #1097, #1286, #250 ) ;
#854 = AXIS2_PLACEMENT_3D ( 'NONE', #203, #1226, #621 ) ;
#855 =( GEOMETRIC_REPRESENTATION_CONTEXT ( 3 ) GLOBAL_UNCERTAINTY_ASSIGNED_CONTEXT ( ( #1187 ) ) GLOBAL_UNIT_ASSIGNED_CONTEXT ( ( #821, #605, #922 ) ) REPRESENTATION_CONTEXT ( 'NONE', 'WORKASPACE' ) );
#856 =( GEOMETRIC_REPRESENTATION_CONTEXT ( 3 ) GLOBAL_UNCERTAINTY_ASSIGNED_CONTEXT ( ( #77 ) ) GLOBAL_UNIT_ASSIGNED_CONTEXT ( ( #207, #224, #342 ) ) REPRESENTATION_CONTEXT ( 'NONE', 'WORKASPACE' ) );
#857 = ORIENTED_EDGE ( 'NONE', *, *, #1169, .T. ) ;
#858 = FILL_AREA_STYLE ('',( #319 ) ) ;
#859 = DIRECTION ( 'NONE',  ( -1.000000000000000000, 0.000000000000000000, 0.000000000000000000 ) ) ;
#860 = FILL_AREA_STYLE ('',( #331 ) ) ;
#861 = CYLINDRICAL_SURFACE ( 'NONE', #1278, 1.000000000000000000 ) ;
#862 = DIRECTION ( 'NONE',  ( -1.000000000000000000, 0.000000000000000000, -0.000000000000000000 ) ) ;
#863 = VERTEX_POINT ( 'NONE', #973 ) ;
#864 = ADVANCED_FACE ( 'NONE', ( #902 ), #134, .F. ) ;
#865 = LINE ( 'NONE', #579, #631 ) ;
#866 = SURFACE_STYLE_FILL_AREA ( #860 ) ;
#867 =( LENGTH_UNIT ( ) NAMED_UNIT ( * ) SI_UNIT ( .MILLI., .METRE. ) );
#868 =( NAMED_UNIT ( * ) PLANE_ANGLE_UNIT ( ) SI_UNIT ( $, .RADIAN. ) );
#869 = ORIENTED_EDGE ( 'NONE', *, *, #789, .F. ) ;
#870 = EDGE_LOOP ( 'NONE', ( #1310, #837, #748, #547 ) ) ;
#871 =( LENGTH_UNIT ( ) NAMED_UNIT ( * ) SI_UNIT ( .MILLI., .METRE. ) );
#872 = DIRECTION ( 'NONE',  ( 0.000000000000000000, 1.000000000000000000, 0.000000000000000000 ) ) ;
#873 = COLOUR_RGB ( '',1.000000000000000000, 0.9372549019607843146, 0.1372549019607843257 ) ;
#874 = AXIS2_PLACEMENT_3D ( 'NONE', #538, #440, #1170 ) ;
#875 =( GEOMETRIC_REPRESENTATION_CONTEXT ( 3 ) GLOBAL_UNCERTAINTY_ASSIGNED_CONTEXT ( ( #823 ) ) GLOBAL_UNIT_ASSIGNED_CONTEXT ( ( #1332, #603, #1238 ) ) REPRESENTATION_CONTEXT ( 'NONE', 'WORKASPACE' ) );
#876 =( NAMED_UNIT ( * ) PLANE_ANGLE_UNIT ( ) SI_UNIT ( $, .RADIAN. ) );
#877 = PRODUCT_DEFINITION_FORMATION_WITH_SPECIFIED_SOURCE ( 'Symmetric', '', #917, .NOT_KNOWN. ) ;
#878 = ORIENTED_EDGE ( 'NONE', *, *, #887, .T. ) ;
#879 = ORIENTED_EDGE ( 'NONE', *, *, #449, .F. ) ;
#880 = CIRCLE ( 'NONE', #874, 2.000000000000000000 ) ;
#881 = CARTESIAN_POINT ( 'NONE',  ( 25.00000000000000000, 0.000000000000000000, -2.000000000000000888 ) ) ;
#882 =( NAMED_UNIT ( * ) PLANE_ANGLE_UNIT ( ) SI_UNIT ( $, .RADIAN. ) );
#883 = EDGE_CURVE ( 'NONE', #5, #863, #1139, .T. ) ;
#884 = CARTESIAN_POINT ( 'NONE',  ( 2.000000000000000000, 0.000000000000000000, 0.000000000000000000 ) ) ;
#885 = EDGE_LOOP ( 'NONE', ( #136, #381, #1303, #1215 ) ) ;
#886 = ORIENTED_EDGE ( 'NONE', *, *, #971, .T. ) ;
#887 = EDGE_CURVE ( 'NONE', #863, #5, #1179, .T. ) ;
#888 = PRESENTATION_STYLE_ASSIGNMENT (( #65 ) ) ;
#889 = DIRECTION ( 'NONE',  ( 1.000000000000000000, 0.000000000000000000, -3.917189900008717578E-16 ) ) ;
#890 = EDGE_CURVE ( 'NONE', #788, #46, #557, .T. ) ;
#891 = SURFACE_STYLE_USAGE ( .BOTH. , #453 ) ;
#892 = VERTEX_POINT ( 'NONE', #1077 ) ;
#893 = CYLINDRICAL_SURFACE ( 'NONE', #945, 1.000000000000000000 ) ;
#894 = FACE_OUTER_BOUND ( 'NONE', #518, .T. ) ;
#895 = CYLINDRICAL_SURFACE ( 'NONE', #926, 2.000000000000000000 ) ;
#896 = DIRECTION ( 'NONE',  ( 1.000000000000000000, 0.000000000000000000, 0.000000000000000000 ) ) ;
#897 = MECHANICAL_DESIGN_GEOMETRIC_PRESENTATION_REPRESENTATION (  '', ( #780 ), #1083 ) ;
#898 = AXIS2_PLACEMENT_3D ( 'NONE', #220, #623, #228 ) ;
#899 = PRESENTATION_LAYER_ASSIGNMENT (  '', '', ( #1318 ) ) ;
#900 = AXIS2_PLACEMENT_3D ( 'NONE', #729, #947, #217 ) ;
#901 = FILL_AREA_STYLE_COLOUR ( '', #675 ) ;
#902 = FACE_OUTER_BOUND ( 'NONE', #535, .T. ) ;
#903 = PRESENTATION_STYLE_ASSIGNMENT (( #38 ) ) ;
#904 = CARTESIAN_POINT ( 'NONE',  ( 9.122498999199176950, -4.000000000000000000, -3.999999999999996447 ) ) ;
#905 = VERTEX_POINT ( 'NONE', #993 ) ;
#906 = UNCERTAINTY_MEASURE_WITH_UNIT (LENGTH_MEASURE( 1.000000000000000082E-05 ), #1264, 'distance_accuracy_value', 'NONE');
#907 = CARTESIAN_POINT ( 'NONE',  ( 25.00000000000000000, 0.000000000000000000, -2.000000000000000888 ) ) ;
#908 = SURFACE_STYLE_USAGE ( .BOTH. , #1235 ) ;
#909 = DIRECTION ( 'NONE',  ( 1.000000000000000000, 0.000000000000000000, 0.000000000000000000 ) ) ;
#910 = EDGE_LOOP ( 'NONE', ( #287, #919, #1068, #247 ) ) ;
#911 =( NAMED_UNIT ( * ) PLANE_ANGLE_UNIT ( ) SI_UNIT ( $, .RADIAN. ) );
#912 = DIRECTION ( 'NONE',  ( 0.000000000000000000, -1.000000000000000000, 0.000000000000000000 ) ) ;
#913 = PRESENTATION_STYLE_ASSIGNMENT (( #164 ) ) ;
#914 = LINE ( 'NONE', #1140, #370 ) ;
#915 = EDGE_CURVE ( 'NONE', #1261, #1240, #564, .T. ) ;
#916 = ADVANCED_FACE ( 'NONE', ( #581 ), #895, .T. ) ;
#917 = PRODUCT ( 'JawRod-180', 'JawRod-180', '', ( #14 ) ) ;
#918 = CIRCLE ( 'NONE', #1022, 1.000000000000000000 ) ;
#919 = ORIENTED_EDGE ( 'NONE', *, *, #669, .T. ) ;
#920 =( GEOMETRIC_REPRESENTATION_CONTEXT ( 3 ) GLOBAL_UNCERTAINTY_ASSIGNED_CONTEXT ( ( #575 ) ) GLOBAL_UNIT_ASSIGNED_CONTEXT ( ( #763, #1281, #450 ) ) REPRESENTATION_CONTEXT ( 'NONE', 'WORKASPACE' ) );
#921 =( GEOMETRIC_REPRESENTATION_CONTEXT ( 3 ) GLOBAL_UNCERTAINTY_ASSIGNED_CONTEXT ( ( #184 ) ) GLOBAL_UNIT_ASSIGNED_CONTEXT ( ( #427, #420, #120 ) ) REPRESENTATION_CONTEXT ( 'NONE', 'WORKASPACE' ) );
#922 =( NAMED_UNIT ( * ) SI_UNIT ( $, .STERADIAN. ) SOLID_ANGLE_UNIT ( ) );
#923 = CARTESIAN_POINT ( 'NONE',  ( 25.00000000000000000, 2.000000000000000000, -2.000000000000000888 ) ) ;
#924 = VECTOR ( 'NONE', #1207, 1000.000000000000000 ) ;
#925 =( NAMED_UNIT ( * ) PLANE_ANGLE_UNIT ( ) SI_UNIT ( $, .RADIAN. ) );
#926 = AXIS2_PLACEMENT_3D ( 'NONE', #1017, #1123, #71 ) ;
#927 = ADVANCED_FACE ( 'NONE', ( #1234, #516, #618, #390 ), #1336, .T. ) ;
#928 =( NAMED_UNIT ( * ) PLANE_ANGLE_UNIT ( ) SI_UNIT ( $, .RADIAN. ) );
#929 = PLANE ( 'NONE',  #414 ) ;
#930 = ORIENTED_EDGE ( 'NONE', *, *, #769, .F. ) ;
#931 = FILL_AREA_STYLE ('',( #1313 ) ) ;
#932 = CARTESIAN_POINT ( 'NONE',  ( 25.00000000000000000, 0.000000000000000000, -1.000000000000003109 ) ) ;
#933 = VERTEX_POINT ( 'NONE', #272 ) ;
#934 = CARTESIAN_POINT ( 'NONE',  ( 1.999999999999997335, -1.500000000000000000, -1.999999999999996669 ) ) ;
#935 = SURFACE_STYLE_FILL_AREA ( #1312 ) ;
#936 = CARTESIAN_POINT ( 'NONE',  ( 18.00000000000000355, 0.000000000000000000, -2.000000000000000000 ) ) ;
#937 = CARTESIAN_POINT ( 'NONE',  ( 5.000000000000000000, 1.000000000000000000, -5.000000000000000000 ) ) ;
#938 = PLANE ( 'NONE',  #1178 ) ;
#939 = EDGE_LOOP ( 'NONE', ( #312, #584 ) ) ;
#940 = AXIS2_PLACEMENT_3D ( 'NONE', #128, #1259, #26 ) ;
#941 =( GEOMETRIC_REPRESENTATION_CONTEXT ( 3 ) GLOBAL_UNCERTAINTY_ASSIGNED_CONTEXT ( ( #906 ) ) GLOBAL_UNIT_ASSIGNED_CONTEXT ( ( #1264, #196, #445 ) ) REPRESENTATION_CONTEXT ( 'NONE', 'WORKASPACE' ) );
#942 =( NAMED_UNIT ( * ) PLANE_ANGLE_UNIT ( ) SI_UNIT ( $, .RADIAN. ) );
#943 = AXIS2_PLACEMENT_3D ( 'NONE', #744, #1247, #229 ) ;
#944 = LINE ( 'NONE', #206, #743 ) ;
#945 = AXIS2_PLACEMENT_3D ( 'NONE', #659, #987, #1075 ) ;
#946 = PRESENTATION_LAYER_ASSIGNMENT (  '', '', ( #480 ) ) ;
#947 = DIRECTION ( 'NONE',  ( 0.000000000000000000, 1.000000000000000000, 0.000000000000000000 ) ) ;
#948 = VERTEX_POINT ( 'NONE', #607 ) ;
#949 = CARTESIAN_POINT ( 'NONE',  ( 1.999999999999997335, 0.000000000000000000, -1.999999999999996669 ) ) ;
#950 = CARTESIAN_POINT ( 'NONE',  ( 1.999999999999997335, 3.500000000000000000, 0.000000000000000000 ) ) ;
#951 = ORIENTED_EDGE ( 'NONE', *, *, #679, .F. ) ;
#952 = FACE_OUTER_BOUND ( 'NONE', #483, .T. ) ;
#953 = SURFACE_SIDE_STYLE ('',( #315 ) ) ;
#954 = CARTESIAN_POINT ( 'NONE',  ( 11.00000000000000355, 0.000000000000000000, -2.999999999999948930 ) ) ;
#955 = LINE ( 'NONE', #1248, #758 ) ;
#956 = VERTEX_POINT ( 'NONE', #689 ) ;
#957 = EDGE_CURVE ( 'NONE', #933, #848, #329, .T. ) ;
#958 = CLOSED_SHELL ( 'NONE', ( #328, #619, #638, #100, #767, #343, #424, #927, #248, #533, #916, #864, #473, #1205, #1094, #569, #1290, #730, #1252, #487, #591, #1020, #530, #529, #576, #774, #202 ) ) ;
#959 = CARTESIAN_POINT ( 'NONE',  ( 1.999999999999997335, 3.500000000000000000, -1.999999999999996669 ) ) ;
#960 = SURFACE_STYLE_FILL_AREA ( #117 ) ;
#961 = AXIS2_PLACEMENT_3D ( 'NONE', #399, #1301, #302 ) ;
#962 = EDGE_CURVE ( 'NONE', #74, #234, #587, .T. ) ;
#963 = FACE_OUTER_BOUND ( 'NONE', #135, .T. ) ;
#964 = AXIS2_PLACEMENT_3D ( 'NONE', #146, #452, #771 ) ;
#965 = ORIENTED_EDGE ( 'NONE', *, *, #243, .T. ) ;
#966 =( NAMED_UNIT ( * ) PLANE_ANGLE_UNIT ( ) SI_UNIT ( $, .RADIAN. ) );
#967 = CARTESIAN_POINT ( 'NONE',  ( 11.00000000000000355, 2.000000000000000000, -1.999999999999950928 ) ) ;
#968 = CARTESIAN_POINT ( 'NONE',  ( 1.999999999999997335, -1.500000000000000000, -1.999999999999996669 ) ) ;
#969 = DIRECTION ( 'NONE',  ( 0.000000000000000000, 0.000000000000000000, 1.000000000000000000 ) ) ;
#970 = ORIENTED_EDGE ( 'NONE', *, *, #915, .F. ) ;
#971 = EDGE_CURVE ( 'NONE', #604, #514, #781, .T. ) ;
#972 = FACE_BOUND ( 'NONE', #779, .T. ) ;
#973 = CARTESIAN_POINT ( 'NONE',  ( 25.00000000000000000, 0.000000000000000000, -1.000000000000003109 ) ) ;
#974 =( NAMED_UNIT ( * ) PLANE_ANGLE_UNIT ( ) SI_UNIT ( $, .RADIAN. ) );
#975 = VERTEX_POINT ( 'NONE', #1011 ) ;
#976 = ORIENTED_EDGE ( 'NONE', *, *, #712, .T. ) ;
#977 = EDGE_CURVE ( 'NONE', #905, #63, #601, .T. ) ;
#978 = AXIS2_PLACEMENT_3D ( 'NONE', #52, #374, #896 ) ;
#979 = DIRECTION ( 'NONE',  ( -1.000000000000000000, 0.000000000000000000, 0.000000000000000000 ) ) ;
#980 = AXIS2_PLACEMENT_3D ( 'NONE', #937, #11, #1171 ) ;
#981 = VECTOR ( 'NONE', #501, 1000.000000000000000 ) ;
#982 = DIRECTION ( 'NONE',  ( 0.000000000000000000, 0.000000000000000000, 1.000000000000000000 ) ) ;
#983 = PRESENTATION_LAYER_ASSIGNMENT (  '', '', ( #633 ) ) ;
#984 = EDGE_LOOP ( 'NONE', ( #458, #828, #759, #1120 ) ) ;
#985 =( GEOMETRIC_REPRESENTATION_CONTEXT ( 3 ) GLOBAL_UNCERTAINTY_ASSIGNED_CONTEXT ( ( #988 ) ) GLOBAL_UNIT_ASSIGNED_CONTEXT ( ( #80, #928, #1337 ) ) REPRESENTATION_CONTEXT ( 'NONE', 'WORKASPACE' ) );
#986 = PRESENTATION_LAYER_ASSIGNMENT (  '', '', ( #1315 ) ) ;
#987 = DIRECTION ( 'NONE',  ( -0.000000000000000000, -1.000000000000000000, -0.000000000000000000 ) ) ;
#988 = UNCERTAINTY_MEASURE_WITH_UNIT (LENGTH_MEASURE( 1.000000000000000082E-05 ), #80, 'distance_accuracy_value', 'NONE');
#989 = DIRECTION ( 'NONE',  ( 4.336808689942018722E-16, -0.000000000000000000, 1.000000000000000000 ) ) ;
#990 = VERTEX_POINT ( 'NONE', #796 ) ;
#991 = ORIENTED_EDGE ( 'NONE', *, *, #366, .T. ) ;
#992 =( NAMED_UNIT ( * ) SI_UNIT ( $, .STERADIAN. ) SOLID_ANGLE_UNIT ( ) );
#993 = CARTESIAN_POINT ( 'NONE',  ( 9.122498999199178726, 0.000000000000000000, -1.301042606982605321E-15 ) ) ;
#994 = SURFACE_SIDE_STYLE ('',( #577 ) ) ;
#995 = CARTESIAN_POINT ( 'NONE',  ( 1.999999999999997335, 2.000000000000000000, -1.999999999999996669 ) ) ;
#996 = SURFACE_STYLE_FILL_AREA ( #1206 ) ;
#997 = PRODUCT_DEFINITION_CONTEXT ( 'detailed design', #59, 'design' ) ;
#998 = AXIS2_PLACEMENT_3D ( 'NONE', #97, #746, #1176 ) ;
#999 = CYLINDRICAL_SURFACE ( 'NONE', #784, 0.9999999999999978906 ) ;
#1000 = DIRECTION ( 'NONE',  ( 0.000000000000000000, 1.000000000000000000, 0.000000000000000000 ) ) ;
#1001 = PRESENTATION_LAYER_ASSIGNMENT (  '', '', ( #237 ) ) ;
#1002 = ORIENTED_EDGE ( 'NONE', *, *, #813, .T. ) ;
#1003 = CARTESIAN_POINT ( 'NONE',  ( 6.000000000000000000, 1.000000000000000000, -3.999999999999995559 ) ) ;
#1004 = COLOUR_RGB ( '',1.000000000000000000, 0.9372549019607843146, 0.1372549019607843257 ) ;
#1005 =( LENGTH_UNIT ( ) NAMED_UNIT ( * ) SI_UNIT ( .MILLI., .METRE. ) );
#1006 = CARTESIAN_POINT ( 'NONE',  ( 1.999999999999997335, 3.501000000000000334, -2.999999999999996447 ) ) ;
#1007 = FILL_AREA_STYLE ('',( #51 ) ) ;
#1008 = CARTESIAN_POINT ( 'NONE',  ( 4.458809472654770900, 3.499999999999999556, -3.999999999999998224 ) ) ;
#1009 = VERTEX_POINT ( 'NONE', #305 ) ;
#1010 = DIRECTION ( 'NONE',  ( -1.000000000000000000, 0.000000000000000000, 0.000000000000000000 ) ) ;
#1011 = CARTESIAN_POINT ( 'NONE',  ( 2.000000000000000000, 2.000000000000000000, 0.000000000000000000 ) ) ;
#1012 = CARTESIAN_POINT ( 'NONE',  ( 9.122498999199175174, 2.000000000000000000, -5.651790419102049102E-16 ) ) ;
#1013 = CARTESIAN_POINT ( 'NONE',  ( 1.999999999999997335, -1.500000000000000000, -1.999999999999996669 ) ) ;
#1014 = ORIENTED_EDGE ( 'NONE', *, *, #1161, .T. ) ;
#1015 = FILL_AREA_STYLE_COLOUR ( '', #1294 ) ;
#1016 = EDGE_CURVE ( 'NONE', #1240, #1273, #720, .T. ) ;
#1017 = CARTESIAN_POINT ( 'NONE',  ( 25.00000000000000000, 2.000000000000000000, -2.000000000000000888 ) ) ;
#1018 = PLANE ( 'NONE',  #900 ) ;
#1019 = LINE ( 'NONE', #1117, #208 ) ;
#1020 = ADVANCED_FACE ( 'NONE', ( #698 ), #1115, .T. ) ;
#1021 = FILL_AREA_STYLE_COLOUR ( '', #392 ) ;
#1022 = AXIS2_PLACEMENT_3D ( 'NONE', #934, #912, #600 ) ;
#1023 = EDGE_LOOP ( 'NONE', ( #817, #761, #1036, #198 ) ) ;
#1024 = COLOUR_RGB ( '',1.000000000000000000, 0.9372549019607843146, 0.1372549019607843257 ) ;
#1025 = AXIS2_PLACEMENT_3D ( 'NONE', #526, #1316, #1231 ) ;
#1026 =( NAMED_UNIT ( * ) SI_UNIT ( $, .STERADIAN. ) SOLID_ANGLE_UNIT ( ) );
#1027 = AXIS2_PLACEMENT_3D ( 'NONE', #1051, #552, #969 ) ;
#1028 = UNCERTAINTY_MEASURE_WITH_UNIT (LENGTH_MEASURE( 1.000000000000000082E-05 ), #507, 'distance_accuracy_value', 'NONE');
#1029 = COLOUR_RGB ( '',1.000000000000000000, 0.9372549019607843146, 0.1372549019607843257 ) ;
#1030 = LINE ( 'NONE', #706, #1258 ) ;
#1031 = DIRECTION ( 'NONE',  ( -0.000000000000000000, -1.000000000000000000, -0.000000000000000000 ) ) ;
#1032 = EDGE_LOOP ( 'NONE', ( #10, #1304, #1185, #1002 ) ) ;
#1033 = CARTESIAN_POINT ( 'NONE',  ( 2.000000000000000000, 2.000000000000000000, -1.999999999999994005 ) ) ;
#1034 = PRESENTATION_STYLE_ASSIGNMENT (( #620 ) ) ;
#1035 = FACE_OUTER_BOUND ( 'NONE', #106, .T. ) ;
#1036 = ORIENTED_EDGE ( 'NONE', *, *, #91, .F. ) ;
#1037 =( LENGTH_UNIT ( ) NAMED_UNIT ( * ) SI_UNIT ( .MILLI., .METRE. ) );
#1038 = FILL_AREA_STYLE_COLOUR ( '', #1004 ) ;
#1039 = SURFACE_STYLE_USAGE ( .BOTH. , #1218 ) ;
#1040 = EDGE_LOOP ( 'NONE', ( #886, #1103, #703, #1052 ) ) ;
#1041 = VECTOR ( 'NONE', #299, 1000.000000000000000 ) ;
#1042 = AXIS2_PLACEMENT_3D ( 'NONE', #465, #1202, #764 ) ;
#1043 = CARTESIAN_POINT ( 'NONE',  ( 1.999999999999997335, 0.000000000000000000, -0.9999999999999963363 ) ) ;
#1044 = AXIS2_PLACEMENT_3D ( 'NONE', #907, #1307, #711 ) ;
#1045 = COLOUR_RGB ( '',1.000000000000000000, 0.9372549019607843146, 0.1372549019607843257 ) ;
#1046 = FILL_AREA_STYLE ('',( #112 ) ) ;
#1047 = PRESENTATION_LAYER_ASSIGNMENT (  '', '', ( #1295 ) ) ;
#1048 = AXIS2_PLACEMENT_3D ( 'NONE', #195, #495, #1144 ) ;
#1049 = VECTOR ( 'NONE', #989, 1000.000000000000000 ) ;
#1050 = AXIS2_PLACEMENT_3D ( 'NONE', #221, #7, #127 ) ;
#1051 = CARTESIAN_POINT ( 'NONE',  ( 25.00000000000000000, 0.000000000000000000, -2.000000000000000888 ) ) ;
#1052 = ORIENTED_EDGE ( 'NONE', *, *, #1191, .T. ) ;
#1053 = DIRECTION ( 'NONE',  ( -1.000000000000000000, 0.000000000000000000, 0.000000000000000000 ) ) ;
#1054 = EDGE_CURVE ( 'NONE', #398, #905, #699, .T. ) ;
#1055 = SURFACE_STYLE_USAGE ( .BOTH. , #209 ) ;
#1056 = EDGE_LOOP ( 'NONE', ( #256, #727, #571, #204 ) ) ;
#1057 = LINE ( 'NONE', #1156, #809 ) ;
#1058 = EDGE_CURVE ( 'NONE', #514, #63, #1057, .T. ) ;
#1059 = SURFACE_SIDE_STYLE ('',( #960 ) ) ;
#1060 = FACE_BOUND ( 'NONE', #715, .T. ) ;
#1061 = ORIENTED_EDGE ( 'NONE', *, *, #98, .T. ) ;
#1062 = CARTESIAN_POINT ( 'NONE',  ( 1.999999999999997335, 2.000000000000000000, -2.999999999999996447 ) ) ;
#1063 = CIRCLE ( 'NONE', #736, 1.999999999999996669 ) ;
#1064 = CARTESIAN_POINT ( 'NONE',  ( 4.458809472654770900, 2.500000000000000444, -3.999999999999994671 ) ) ;
#1065 =( GEOMETRIC_REPRESENTATION_CONTEXT ( 3 ) GLOBAL_UNCERTAINTY_ASSIGNED_CONTEXT ( ( #617 ) ) GLOBAL_UNIT_ASSIGNED_CONTEXT ( ( #24, #868, #643 ) ) REPRESENTATION_CONTEXT ( 'NONE', 'WORKASPACE' ) );
#1066 = PLANE ( 'NONE',  #437 ) ;
#1067 = CIRCLE ( 'NONE', #635, 4.000000000000000000 ) ;
#1068 = ORIENTED_EDGE ( 'NONE', *, *, #231, .T. ) ;
#1069 = SURFACE_STYLE_FILL_AREA ( #53 ) ;
#1070 = CARTESIAN_POINT ( 'NONE',  ( 18.00000000000000355, 2.000000000000000000, -2.000000000000000000 ) ) ;
#1071 = SURFACE_STYLE_FILL_AREA ( #1192 ) ;
#1072 =( NAMED_UNIT ( * ) SI_UNIT ( $, .STERADIAN. ) SOLID_ANGLE_UNIT ( ) );
#1073 = ORIENTED_EDGE ( 'NONE', *, *, #141, .F. ) ;
#1074 = EDGE_CURVE ( 'NONE', #403, #484, #1153, .T. ) ;
#1075 = DIRECTION ( 'NONE',  ( 0.000000000000000000, 0.000000000000000000, -1.000000000000000000 ) ) ;
#1076 = PLANE ( 'NONE',  #277 ) ;
#1077 = CARTESIAN_POINT ( 'NONE',  ( 1.999999999999997335, 3.500000000000000000, -0.9999999999999963363 ) ) ;
#1078 = EDGE_LOOP ( 'NONE', ( #1298, #1267, #708, #1334 ) ) ;
#1079 = ORIENTED_EDGE ( 'NONE', *, *, #225, .T. ) ;
#1080 = DIRECTION ( 'NONE',  ( 0.000000000000000000, 0.000000000000000000, 1.000000000000000000 ) ) ;
#1081 = SURFACE_STYLE_USAGE ( .BOTH. , #665 ) ;
#1082 = CIRCLE ( 'NONE', #499, 0.9999999999999978906 ) ;
#1083 =( GEOMETRIC_REPRESENTATION_CONTEXT ( 3 ) GLOBAL_UNCERTAINTY_ASSIGNED_CONTEXT ( ( #511 ) ) GLOBAL_UNIT_ASSIGNED_CONTEXT ( ( #1037, #314, #193 ) ) REPRESENTATION_CONTEXT ( 'NONE', 'WORKASPACE' ) );
#1084 = CIRCLE ( 'NONE', #853, 1.000000000000000222 ) ;
#1085 = FILL_AREA_STYLE_COLOUR ( '', #33 ) ;
#1086 = VECTOR ( 'NONE', #825, 1000.000000000000000 ) ;
#1087 = VERTEX_POINT ( 'NONE', #850 ) ;
#1088 = MECHANICAL_DESIGN_GEOMETRIC_PRESENTATION_REPRESENTATION (  '', ( #1320 ), #505 ) ;
#1089 = ORIENTED_EDGE ( 'NONE', *, *, #1151, .T. ) ;
#1090 = PRESENTATION_STYLE_ASSIGNMENT (( #683 ) ) ;
#1091 = FILL_AREA_STYLE ('',( #770 ) ) ;
#1092 = UNCERTAINTY_MEASURE_WITH_UNIT (LENGTH_MEASURE( 1.000000000000000082E-05 ), #871, 'distance_accuracy_value', 'NONE');
#1093 = DIRECTION ( 'NONE',  ( 0.000000000000000000, 0.000000000000000000, -1.000000000000000000 ) ) ;
#1094 = ADVANCED_FACE ( 'NONE', ( #1143 ), #630, .F. ) ;
#1095 = CARTESIAN_POINT ( 'NONE',  ( 25.00000000000000000, 0.000000000000000000, -1.301042606982605321E-15 ) ) ;
#1096 = ORIENTED_EDGE ( 'NONE', *, *, #611, .T. ) ;
#1097 = CARTESIAN_POINT ( 'NONE',  ( 1.999999999999997335, 3.500000000000000000, -1.999999999999996669 ) ) ;
#1098 = CARTESIAN_POINT ( 'NONE',  ( 18.00000000000000355, 0.000000000000000000, -1.000000000000002220 ) ) ;
#1099 = DIRECTION ( 'NONE',  ( 0.000000000000000000, 0.000000000000000000, 1.000000000000000000 ) ) ;
#1100 = EDGE_CURVE ( 'NONE', #421, #636, #880, .T. ) ;
#1101 = CARTESIAN_POINT ( 'NONE',  ( 1.999999999999998224, 2.000000000000000000, -3.999999999999994227 ) ) ;
#1102 = FILL_AREA_STYLE_COLOUR ( '', #306 ) ;
#1103 = ORIENTED_EDGE ( 'NONE', *, *, #366, .F. ) ;
#1104 = CARTESIAN_POINT ( 'NONE',  ( 4.458809472654772676, 2.500000000000000444, -1.301042606982605124E-15 ) ) ;
#1105 = PRESENTATION_STYLE_ASSIGNMENT (( #1081 ) ) ;
#1106 = FILL_AREA_STYLE_COLOUR ( '', #741 ) ;
#1107 = COLOUR_RGB ( '',1.000000000000000000, 0.9372549019607843146, 0.1372549019607843257 ) ;
#1108 = SURFACE_SIDE_STYLE ('',( #691 ) ) ;
#1109 = PRESENTATION_LAYER_ASSIGNMENT (  '', '', ( #18 ) ) ;
#1110 = MECHANICAL_DESIGN_GEOMETRIC_PRESENTATION_REPRESENTATION (  '', ( #1197 ), #739 ) ;
#1111 = ORIENTED_EDGE ( 'NONE', *, *, #883, .T. ) ;
#1112 = CIRCLE ( 'NONE', #964, 4.000000000000000000 ) ;
#1113 =( NAMED_UNIT ( * ) PLANE_ANGLE_UNIT ( ) SI_UNIT ( $, .RADIAN. ) );
#1114 = MECHANICAL_DESIGN_GEOMETRIC_PRESENTATION_REPRESENTATION (  '', ( #1315 ), #608 ) ;
#1115 = CYLINDRICAL_SURFACE ( 'NONE', #1050, 4.000000000000000000 ) ;
#1116 = SURFACE_STYLE_USAGE ( .BOTH. , #395 ) ;
#1117 = CARTESIAN_POINT ( 'NONE',  ( 1.999999999999979128, 3.500000000000000000, 0.000000000000000000 ) ) ;
#1118 = FACE_OUTER_BOUND ( 'NONE', #644, .T. ) ;
#1119 = EDGE_CURVE ( 'NONE', #636, #602, #520, .T. ) ;
#1120 = ORIENTED_EDGE ( 'NONE', *, *, #294, .F. ) ;
#1121 = PLANE ( 'NONE',  #1219 ) ;
#1122 = SURFACE_STYLE_USAGE ( .BOTH. , #492 ) ;
#1123 = DIRECTION ( 'NONE',  ( -0.000000000000000000, -1.000000000000000000, -0.000000000000000000 ) ) ;
#1124 = FACE_BOUND ( 'NONE', #674, .T. ) ;
#1125 = ORIENTED_EDGE ( 'NONE', *, *, #8, .T. ) ;
#1126 = FILL_AREA_STYLE ('',( #818 ) ) ;
#1127 = ORIENTED_EDGE ( 'NONE', *, *, #1213, .F. ) ;
#1128 = LINE ( 'NONE', #485, #721 ) ;
#1129 = PRESENTATION_STYLE_ASSIGNMENT (( #792 ) ) ;
#1130 = CARTESIAN_POINT ( 'NONE',  ( 9.122498999199175174, 0.000000000000000000, -1.999999999999994005 ) ) ;
#1131 = DIRECTION ( 'NONE',  ( -1.000000000000000000, -0.000000000000000000, -0.000000000000000000 ) ) ;
#1132 = FACE_OUTER_BOUND ( 'NONE', #885, .T. ) ;
#1133 = CIRCLE ( 'NONE', #978, 1.000000000000000000 ) ;
#1134 = VECTOR ( 'NONE', #76, 1000.000000000000000 ) ;
#1135 = ORIENTED_EDGE ( 'NONE', *, *, #1161, .F. ) ;
#1136 = AXIS2_PLACEMENT_3D ( 'NONE', #949, #838, #649 ) ;
#1137 =( GEOMETRIC_REPRESENTATION_CONTEXT ( 3 ) GLOBAL_UNCERTAINTY_ASSIGNED_CONTEXT ( ( #807 ) ) GLOBAL_UNIT_ASSIGNED_CONTEXT ( ( #842, #1271, #1072 ) ) REPRESENTATION_CONTEXT ( 'NONE', 'WORKASPACE' ) );
#1138 = UNCERTAINTY_MEASURE_WITH_UNIT (LENGTH_MEASURE( 1.000000000000000082E-05 ), #661, 'distance_accuracy_value', 'NONE');
#1139 = CIRCLE ( 'NONE', #544, 0.9999999999999978906 ) ;
#1140 = CARTESIAN_POINT ( 'NONE',  ( 25.00000000000000000, 0.000000000000000000, -2.999999999999998668 ) ) ;
#1141 = DIRECTION ( 'NONE',  ( 0.000000000000000000, 1.000000000000000000, 0.000000000000000000 ) ) ;
#1142 = ORIENTED_EDGE ( 'NONE', *, *, #957, .T. ) ;
#1143 = FACE_OUTER_BOUND ( 'NONE', #775, .T. ) ;
#1144 = DIRECTION ( 'NONE',  ( 0.000000000000000000, 0.000000000000000000, 1.000000000000000000 ) ) ;
#1145 = ORIENTED_EDGE ( 'NONE', *, *, #44, .T. ) ;
#1146 = DIRECTION ( 'NONE',  ( 0.000000000000000000, 0.000000000000000000, 1.000000000000000000 ) ) ;
#1147 = DIRECTION ( 'NONE',  ( -1.000000000000000000, 0.000000000000000000, 0.000000000000000000 ) ) ;
#1148 = CARTESIAN_POINT ( 'NONE',  ( 21.00000000000000000, 0.000000000000000000, -1.301042606982605321E-15 ) ) ;
#1149 = ORIENTED_EDGE ( 'NONE', *, *, #671, .F. ) ;
#1150 = CIRCLE ( 'NONE', #1255, 1.000000000000000000 ) ;
#1151 = EDGE_CURVE ( 'NONE', #46, #40, #188, .T. ) ;
#1152 = CARTESIAN_POINT ( 'NONE',  ( 2.000000000000000000, 2.000000000000000000, -1.999999999999994005 ) ) ;
#1153 = CIRCLE ( 'NONE', #566, 0.9999999999999978906 ) ;
#1154 = MECHANICAL_DESIGN_GEOMETRIC_PRESENTATION_REPRESENTATION (  '', ( #803 ), #503 ) ;
#1155 = EDGE_CURVE ( 'NONE', #648, #1261, #216, .T. ) ;
#1156 = CARTESIAN_POINT ( 'NONE',  ( 19.92820323027550700, 0.000000000000000000, -4.000000000000000888 ) ) ;
#1157 = COLOUR_RGB ( '',1.000000000000000000, 0.9372549019607843146, 0.1372549019607843257 ) ;
#1158 = PRESENTATION_LAYER_ASSIGNMENT (  '', '', ( #313 ) ) ;
#1159 = DIRECTION ( 'NONE',  ( -0.000000000000000000, -1.000000000000000000, -0.000000000000000000 ) ) ;
#1160 = ORIENTED_EDGE ( 'NONE', *, *, #376, .F. ) ;
#1161 = EDGE_CURVE ( 'NONE', #1181, #975, #200, .T. ) ;
#1162 = DIRECTION ( 'NONE',  ( 0.000000000000000000, 0.000000000000000000, -1.000000000000000000 ) ) ;
#1163 = DIRECTION ( 'NONE',  ( 0.000000000000000000, 0.000000000000000000, -1.000000000000000000 ) ) ;
#1164 = FACE_OUTER_BOUND ( 'NONE', #1056, .T. ) ;
#1165 = SURFACE_SIDE_STYLE ('',( #233 ) ) ;
#1166 =( NAMED_UNIT ( * ) SI_UNIT ( $, .STERADIAN. ) SOLID_ANGLE_UNIT ( ) );
#1167 = EDGE_LOOP ( 'NONE', ( #1127, #345, #454, #418 ) ) ;
#1168 = CARTESIAN_POINT ( 'NONE',  ( 1.999999999999997335, 0.000000000000000000, -2.999999999999996447 ) ) ;
#1169 = EDGE_CURVE ( 'NONE', #421, #498, #944, .T. ) ;
#1170 = DIRECTION ( 'NONE',  ( -8.673617379884035472E-16, 0.000000000000000000, -1.000000000000000000 ) ) ;
#1171 = DIRECTION ( 'NONE',  ( -1.000000000000000000, 0.000000000000000000, 0.000000000000000000 ) ) ;
#1172 =( NAMED_UNIT ( * ) SI_UNIT ( $, .STERADIAN. ) SOLID_ANGLE_UNIT ( ) );
#1173 = ORIENTED_EDGE ( 'NONE', *, *, #225, .F. ) ;
#1174 = CIRCLE ( 'NONE', #344, 0.9999999999999978906 ) ;
#1175 = FACE_OUTER_BOUND ( 'NONE', #870, .T. ) ;
#1176 = DIRECTION ( 'NONE',  ( 0.000000000000000000, 0.000000000000000000, 1.000000000000000000 ) ) ;
#1177 = COLOUR_RGB ( '',1.000000000000000000, 0.9372549019607843146, 0.1372549019607843257 ) ;
#1178 = AXIS2_PLACEMENT_3D ( 'NONE', #218, #1260, #862 ) ;
#1179 = CIRCLE ( 'NONE', #1299, 0.9999999999999978906 ) ;
#1180 = ORIENTED_EDGE ( 'NONE', *, *, #431, .T. ) ;
#1181 = VERTEX_POINT ( 'NONE', #950 ) ;
#1182 =( NAMED_UNIT ( * ) PLANE_ANGLE_UNIT ( ) SI_UNIT ( $, .RADIAN. ) );
#1183 = APPLICATION_CONTEXT ( 'automotive_design' ) ;
#1184 = CARTESIAN_POINT ( 'NONE',  ( 5.000000000000000000, 0.000000000000000000, -3.999999999999994671 ) ) ;
#1185 = ORIENTED_EDGE ( 'NONE', *, *, #642, .T. ) ;
#1186 = SURFACE_SIDE_STYLE ('',( #1069 ) ) ;
#1187 = UNCERTAINTY_MEASURE_WITH_UNIT (LENGTH_MEASURE( 1.000000000000000082E-05 ), #821, 'distance_accuracy_value', 'NONE');
#1188 = SURFACE_STYLE_FILL_AREA ( #1007 ) ;
#1189 = ORIENTED_EDGE ( 'NONE', *, *, #1054, .T. ) ;
#1190 = DIRECTION ( 'NONE',  ( -0.000000000000000000, -1.000000000000000000, -0.000000000000000000 ) ) ;
#1191 = EDGE_CURVE ( 'NONE', #1087, #604, #845, .T. ) ;
#1192 = FILL_AREA_STYLE ('',( #666 ) ) ;
#1193 = COLOUR_RGB ( '',1.000000000000000000, 0.9372549019607843146, 0.1372549019607843257 ) ;
#1194 = VECTOR ( 'NONE', #488, 1000.000000000000000 ) ;
#1195 = STYLED_ITEM ( 'NONE', ( #327 ), #487 ) ;
#1196 = DIRECTION ( 'NONE',  ( 0.000000000000000000, -0.000000000000000000, -1.000000000000000000 ) ) ;
#1197 = STYLED_ITEM ( 'NONE', ( #373 ), #591 ) ;
#1198 = ORIENTED_EDGE ( 'NONE', *, *, #957, .F. ) ;
#1199 = COLOUR_RGB ( '',1.000000000000000000, 0.9372549019607843146, 0.1372549019607843257 ) ;
#1200 = EDGE_CURVE ( 'NONE', #956, #484, #865, .T. ) ;
#1201 = FILL_AREA_STYLE ('',( #367 ) ) ;
#1202 = DIRECTION ( 'NONE',  ( -0.000000000000000000, -1.000000000000000000, -0.000000000000000000 ) ) ;
#1203 = CARTESIAN_POINT ( 'NONE',  ( 5.000000000000000000, 1.000000000000000000, -8.673617379884035472E-16 ) ) ;
#1204 = ORIENTED_EDGE ( 'NONE', *, *, #789, .T. ) ;
#1205 = ADVANCED_FACE ( 'NONE', ( #573 ), #1268, .F. ) ;
#1206 = FILL_AREA_STYLE ('',( #580 ) ) ;
#1207 = DIRECTION ( 'NONE',  ( -0.000000000000000000, 1.000000000000000000, 0.000000000000000000 ) ) ;
#1208 = DIRECTION ( 'NONE',  ( 1.000000000000000000, 0.000000000000000000, -4.336808689942017736E-16 ) ) ;
#1209 = ORIENTED_EDGE ( 'NONE', *, *, #351, .F. ) ;
#1210 =( LENGTH_UNIT ( ) NAMED_UNIT ( * ) SI_UNIT ( .MILLI., .METRE. ) );
#1211 = CARTESIAN_POINT ( 'NONE',  ( 1.999999999999997335, 3.501000000000000334, -1.999999999999996669 ) ) ;
#1212 = UNCERTAINTY_MEASURE_WITH_UNIT (LENGTH_MEASURE( 1.000000000000000082E-05 ), #1005, 'distance_accuracy_value', 'NONE');
#1213 = EDGE_CURVE ( 'NONE', #892, #74, #1084, .T. ) ;
#1214 = DIRECTION ( 'NONE',  ( -1.000000000000000000, 0.000000000000000000, 3.917189900008717578E-16 ) ) ;
#1215 = ORIENTED_EDGE ( 'NONE', *, *, #971, .F. ) ;
#1216 = VECTOR ( 'NONE', #1190, 1000.000000000000000 ) ;
#1217 = COLOUR_RGB ( '',1.000000000000000000, 0.9372549019607843146, 0.1372549019607843257 ) ;
#1218 = SURFACE_SIDE_STYLE ('',( #317 ) ) ;
#1219 = AXIS2_PLACEMENT_3D ( 'NONE', #709, #88, #509 ) ;
#1220 = EDGE_LOOP ( 'NONE', ( #384, #599, #264, #555 ) ) ;
#1221 = PRESENTATION_LAYER_ASSIGNMENT (  '', '', ( #129 ) ) ;
#1222 = AXIS2_PLACEMENT_3D ( 'NONE', #728, #444, #859 ) ;
#1223 = DIRECTION ( 'NONE',  ( 0.000000000000000000, -0.000000000000000000, 1.000000000000000000 ) ) ;
#1224 = CARTESIAN_POINT ( 'NONE',  ( 1.999999999999997335, -1.500000000000000000, -0.9999999999999963363 ) ) ;
#1225 =( NAMED_UNIT ( * ) PLANE_ANGLE_UNIT ( ) SI_UNIT ( $, .RADIAN. ) );
#1226 = DIRECTION ( 'NONE',  ( -4.336808689942018722E-16, 0.000000000000000000, -1.000000000000000000 ) ) ;
#1227 = ORIENTED_EDGE ( 'NONE', *, *, #1169, .F. ) ;
#1228 = SURFACE_SIDE_STYLE ('',( #500 ) ) ;
#1229 = DIRECTION ( 'NONE',  ( 0.000000000000000000, -1.000000000000000000, -0.000000000000000000 ) ) ;
#1230 = EDGE_LOOP ( 'NONE', ( #663, #801 ) ) ;
#1231 = DIRECTION ( 'NONE',  ( 0.000000000000000000, 0.000000000000000000, -1.000000000000000000 ) ) ;
#1232 = ORIENTED_EDGE ( 'NONE', *, *, #497, .F. ) ;
#1233 = CARTESIAN_POINT ( 'NONE',  ( 6.790654235926973925, -0.7499999999999993339, -5.427095338930176051E-16 ) ) ;
#1234 = FACE_BOUND ( 'NONE', #939, .T. ) ;
#1235 = SURFACE_SIDE_STYLE ('',( #610 ) ) ;
#1236 = CYLINDRICAL_SURFACE ( 'NONE', #980, 1.000000000000000000 ) ;
#1237 = VECTOR ( 'NONE', #1031, 1000.000000000000000 ) ;
#1238 =( NAMED_UNIT ( * ) SI_UNIT ( $, .STERADIAN. ) SOLID_ANGLE_UNIT ( ) );
#1239 = STYLED_ITEM ( 'NONE', ( #695 ), #424 ) ;
#1240 = VERTEX_POINT ( 'NONE', #464 ) ;
#1241 = COLOUR_RGB ( '',1.000000000000000000, 0.9372549019607843146, 0.1372549019607843257 ) ;
#1242 = UNCERTAINTY_MEASURE_WITH_UNIT (LENGTH_MEASURE( 1.000000000000000082E-05 ), #352, 'distance_accuracy_value', 'NONE');
#1243 = STYLED_ITEM ( 'NONE', ( #27 ), #864 ) ;
#1244 = DIRECTION ( 'NONE',  ( 0.000000000000000000, -1.000000000000000000, 0.000000000000000000 ) ) ;
#1245 = SURFACE_STYLE_FILL_AREA ( #1126 ) ;
#1246 = EDGE_LOOP ( 'NONE', ( #219, #321 ) ) ;
#1247 = DIRECTION ( 'NONE',  ( 0.000000000000000000, -1.000000000000000000, -0.000000000000000000 ) ) ;
#1248 = CARTESIAN_POINT ( 'NONE',  ( 1.999999999999997335, 3.501000000000000334, -0.9999999999999963363 ) ) ;
#1249 = ORIENTED_EDGE ( 'NONE', *, *, #400, .T. ) ;
#1250 = FILL_AREA_STYLE_COLOUR ( '', #1217 ) ;
#1251 = SURFACE_STYLE_USAGE ( .BOTH. , #1165 ) ;
#1252 = ADVANCED_FACE ( 'NONE', ( #1175 ), #893, .F. ) ;
#1253 = SURFACE_STYLE_FILL_AREA ( #1266 ) ;
#1254 = ORIENTED_EDGE ( 'NONE', *, *, #400, .F. ) ;
#1255 = AXIS2_PLACEMENT_3D ( 'NONE', #1203, #273, #707 ) ;
#1256 = CYLINDRICAL_SURFACE ( 'NONE', #737, 2.000000000000000000 ) ;
#1257 = AXIS2_PLACEMENT_3D ( 'NONE', #238, #776, #1080 ) ;
#1258 = VECTOR ( 'NONE', #92, 1000.000000000000000 ) ;
#1259 = DIRECTION ( 'NONE',  ( -0.000000000000000000, 1.000000000000000000, -0.000000000000000000 ) ) ;
#1260 = DIRECTION ( 'NONE',  ( 0.000000000000000000, 0.000000000000000000, -1.000000000000000000 ) ) ;
#1261 = VERTEX_POINT ( 'NONE', #1292 ) ;
#1262 = SURFACE_STYLE_USAGE ( .BOTH. , #109 ) ;
#1263 = DIRECTION ( 'NONE',  ( 0.000000000000000000, -0.000000000000000000, 1.000000000000000000 ) ) ;
#1264 =( LENGTH_UNIT ( ) NAMED_UNIT ( * ) SI_UNIT ( .MILLI., .METRE. ) );
#1265 = CARTESIAN_POINT ( 'NONE',  ( 6.790654235926973925, 2.749999999999999556, -5.427095338930174079E-16 ) ) ;
#1266 = FILL_AREA_STYLE ('',( #113 ) ) ;
#1267 = ORIENTED_EDGE ( 'NONE', *, *, #339, .F. ) ;
#1268 = CYLINDRICAL_SURFACE ( 'NONE', #1257, 0.9999999999999978906 ) ;
#1269 = DIRECTION ( 'NONE',  ( 0.000000000000000000, 0.000000000000000000, -1.000000000000000000 ) ) ;
#1270 = MANIFOLD_SOLID_BREP ( 'Fillet5', #958 ) ;
#1271 =( NAMED_UNIT ( * ) PLANE_ANGLE_UNIT ( ) SI_UNIT ( $, .RADIAN. ) );
#1272 = ORIENTED_EDGE ( 'NONE', *, *, #1119, .F. ) ;
#1273 = VERTEX_POINT ( 'NONE', #1003 ) ;
#1274 = COLOUR_RGB ( '',1.000000000000000000, 0.9372549019607843146, 0.1372549019607843257 ) ;
#1275 = MECHANICAL_DESIGN_GEOMETRIC_PRESENTATION_REPRESENTATION (  '', ( #523 ), #280 ) ;
#1276 = MECHANICAL_DESIGN_GEOMETRIC_PRESENTATION_REPRESENTATION (  '', ( #1295 ), #1317 ) ;
#1277 =( LENGTH_UNIT ( ) NAMED_UNIT ( * ) SI_UNIT ( .MILLI., .METRE. ) );
#1278 = AXIS2_PLACEMENT_3D ( 'NONE', #130, #1269, #1147 ) ;
#1279 = VERTEX_POINT ( 'NONE', #1311 ) ;
#1280 = ORIENTED_EDGE ( 'NONE', *, *, #582, .T. ) ;
#1281 =( NAMED_UNIT ( * ) PLANE_ANGLE_UNIT ( ) SI_UNIT ( $, .RADIAN. ) );
#1282 =( NAMED_UNIT ( * ) SI_UNIT ( $, .STERADIAN. ) SOLID_ANGLE_UNIT ( ) );
#1283 = DIRECTION ( 'NONE',  ( -4.336808689942018722E-16, 0.000000000000000000, -1.000000000000000000 ) ) ;
#1284 = VERTEX_POINT ( 'NONE', #42 ) ;
#1285 = EDGE_CURVE ( 'NONE', #74, #892, #309, .T. ) ;
#1286 = DIRECTION ( 'NONE',  ( -0.000000000000000000, -1.000000000000000000, -0.000000000000000000 ) ) ;
#1287 =( LENGTH_UNIT ( ) NAMED_UNIT ( * ) SI_UNIT ( .MILLI., .METRE. ) );
#1288 = SURFACE_STYLE_FILL_AREA ( #371 ) ;
#1289 = ORIENTED_EDGE ( 'NONE', *, *, #834, .F. ) ;
#1290 = ADVANCED_FACE ( 'NONE', ( #791, #1321 ), #1121, .F. ) ;
#1291 = EDGE_LOOP ( 'NONE', ( #754, #353 ) ) ;
#1292 = CARTESIAN_POINT ( 'NONE',  ( 5.000000000000000000, 2.000000000000000000, 0.000000000000000000 ) ) ;
#1293 = DIRECTION ( 'NONE',  ( 0.000000000000000000, 1.000000000000000000, 0.000000000000000000 ) ) ;
#1294 = COLOUR_RGB ( '',1.000000000000000000, 0.9372549019607843146, 0.1372549019607843257 ) ;
#1295 = STYLED_ITEM ( 'NONE', ( #461 ), #1252 ) ;
#1296 = FILL_AREA_STYLE_COLOUR ( '', #1157 ) ;
#1297 =( GEOMETRIC_REPRESENTATION_CONTEXT ( 3 ) GLOBAL_UNCERTAINTY_ASSIGNED_CONTEXT ( ( #1242 ) ) GLOBAL_UNIT_ASSIGNED_CONTEXT ( ( #352, #139, #685 ) ) REPRESENTATION_CONTEXT ( 'NONE', 'WORKASPACE' ) );
#1298 = ORIENTED_EDGE ( 'NONE', *, *, #288, .F. ) ;
#1299 = AXIS2_PLACEMENT_3D ( 'NONE', #350, #471, #357 ) ;
#1300 = ORIENTED_EDGE ( 'NONE', *, *, #44, .F. ) ;
#1301 = DIRECTION ( 'NONE',  ( 0.000000000000000000, 1.000000000000000000, 0.000000000000000000 ) ) ;
#1302 = CARTESIAN_POINT ( 'NONE',  ( 25.00000000000000000, 0.000000000000000000, -2.000000000000000888 ) ) ;
#1303 = ORIENTED_EDGE ( 'NONE', *, *, #1058, .F. ) ;
#1304 = ORIENTED_EDGE ( 'NONE', *, *, #1329, .T. ) ;
#1305 = DIRECTION ( 'NONE',  ( -0.000000000000000000, -0.000000000000000000, 1.000000000000000000 ) ) ;
#1306 = EDGE_CURVE ( 'NONE', #87, #132, #436, .T. ) ;
#1307 = DIRECTION ( 'NONE',  ( 0.000000000000000000, 1.000000000000000000, 0.000000000000000000 ) ) ;
#1308 = CARTESIAN_POINT ( 'NONE',  ( 4.458809472654770900, -1.500000000000000000, -3.999999999999996447 ) ) ;
#1309 = ORIENTED_EDGE ( 'NONE', *, *, #669, .F. ) ;
#1310 = ORIENTED_EDGE ( 'NONE', *, *, #426, .F. ) ;
#1311 = CARTESIAN_POINT ( 'NONE',  ( 4.458809472654772676, 3.500000000000000000, -1.228285472622890244E-16 ) ) ;
#1312 = FILL_AREA_STYLE ('',( #1106 ) ) ;
#1313 = FILL_AREA_STYLE_COLOUR ( '', #1199 ) ;
#1314 =( LENGTH_UNIT ( ) NAMED_UNIT ( * ) SI_UNIT ( .MILLI., .METRE. ) );
#1315 = STYLED_ITEM ( 'NONE', ( #913 ), #927 ) ;
#1316 = DIRECTION ( 'NONE',  ( -0.000000000000000000, 1.000000000000000000, -0.000000000000000000 ) ) ;
#1317 =( GEOMETRIC_REPRESENTATION_CONTEXT ( 3 ) GLOBAL_UNCERTAINTY_ASSIGNED_CONTEXT ( ( #1092 ) ) GLOBAL_UNIT_ASSIGNED_CONTEXT ( ( #871, #1182, #992 ) ) REPRESENTATION_CONTEXT ( 'NONE', 'WORKASPACE' ) );
#1318 = STYLED_ITEM ( 'NONE', ( #546 ), #576 ) ;
#1319 = ORIENTED_EDGE ( 'NONE', *, *, #642, .F. ) ;
#1320 = STYLED_ITEM ( 'NONE', ( #56 ), #916 ) ;
#1321 = FACE_OUTER_BOUND ( 'NONE', #1032, .T. ) ;
#1322 = AXIS2_PLACEMENT_3D ( 'NONE', #330, #745, #22 ) ;
#1323 = CARTESIAN_POINT ( 'NONE',  ( 6.790654235926973925, -0.7499999999999993339, -1.301042606982605321E-15 ) ) ;
#1324 = SURFACE_STYLE_FILL_AREA ( #595 ) ;
#1325 = EDGE_CURVE ( 'NONE', #1009, #398, #656, .T. ) ;
#1326 =( NAMED_UNIT ( * ) PLANE_ANGLE_UNIT ( ) SI_UNIT ( $, .RADIAN. ) );
#1327 = CARTESIAN_POINT ( 'NONE',  ( 5.000000000000000888, 0.000000000000000000, -3.999999999999994671 ) ) ;
#1328 = EDGE_LOOP ( 'NONE', ( #1073, #1135, #965, #742 ) ) ;
#1329 = EDGE_CURVE ( 'NONE', #693, #1009, #1128, .T. ) ;
#1330 = DIRECTION ( 'NONE',  ( 0.000000000000000000, 0.000000000000000000, 1.000000000000000000 ) ) ;
#1331 = DIRECTION ( 'NONE',  ( 0.000000000000000000, 0.000000000000000000, 1.000000000000000000 ) ) ;
#1332 =( LENGTH_UNIT ( ) NAMED_UNIT ( * ) SI_UNIT ( .MILLI., .METRE. ) );
#1333 = EDGE_CURVE ( 'NONE', #46, #1087, #704, .T. ) ;
#1334 = ORIENTED_EDGE ( 'NONE', *, *, #177, .T. ) ;
#1335 = DIRECTION ( 'NONE',  ( 0.000000000000000000, 1.000000000000000000, 0.000000000000000000 ) ) ;
#1336 = PLANE ( 'NONE',  #285 ) ;
#1337 =( NAMED_UNIT ( * ) SI_UNIT ( $, .STERADIAN. ) SOLID_ANGLE_UNIT ( ) );
#1338 = CIRCLE ( 'NONE', #799, 1.000000000000000000 ) ;
#1339 = AXIS2_PLACEMENT_3D ( 'NONE', #222, #133, #645 ) ;
#1340 = FILL_AREA_STYLE_COLOUR ( '', #82 ) ;
#1341 = CIRCLE ( 'NONE', #1136, 1.000000000000000000 ) ;
#1342 = ORIENTED_EDGE ( 'NONE', *, *, #718, .T. ) ;
#1343 = VECTOR ( 'NONE', #122, 1000.000000000000000 ) ;
ENDSEC;
END-ISO-10303-21;
