ISO-10303-21;
HEADER;
FILE_DESCRIPTION (( 'STEP AP214' ),
    '1' );
FILE_NAME ('LipDemo.STEP',
    '2025-10-21T18:59:32',
    ( 'Windows User' ),
    ( '' ),
    'SwSTEP 2.0',
    'SolidWorks 2023',
    '' );
FILE_SCHEMA (( 'AUTOMOTIVE_DESIGN' ));
ENDSEC;

DATA;
#1 = PRODUCT_RELATED_PRODUCT_CATEGORY ( 'part', '', ( #5 ) ) ;
#2 = DIRECTION ( 'NONE',  ( 1.000000000000000000, 0.000000000000000000, 0.000000000000000000 ) ) ;
#3 = PRODUCT_DEFINITION_SHAPE ( 'NONE', 'NONE',  #11 ) ;
#4 = PRODUCT_DEFINITION_FORMATION_WITH_SPECIFIED_SOURCE ( 'Symmetric', '', #5, .NOT_KNOWN. ) ;
#5 = PRODUCT ( 'LipDemo', 'LipDemo', '', ( #13 ) ) ;
#6 = APPLICATION_PROTOCOL_DEFINITION ( 'draft international standard', 'automotive_design', 1998, #14 ) ;
#7 = APPLICATION_CONTEXT ( 'automotive_design' ) ;
#8 = DIRECTION ( 'NONE',  ( 0.000000000000000000, 0.000000000000000000, 1.000000000000000000 ) ) ;
#9 = APPLICATION_PROTOCOL_DEFINITION ( 'draft international standard', 'automotive_design', 1998, #7 ) ;
#10 = PRODUCT_DEFINITION_CONTEXT ( 'detailed design', #7, 'design' ) ;
#11 = PRODUCT_DEFINITION ( 'General', '', #4, #10 ) ;
#12 = CARTESIAN_POINT ( 'NONE',  ( 0.000000000000000000, 0.000000000000000000, 0.000000000000000000 ) ) ;
#13 = PRODUCT_CONTEXT ( 'NONE', #14, 'mechanical' ) ;
#14 = APPLICATION_CONTEXT ( 'automotive_design' ) ;
#15 = AXIS2_PLACEMENT_3D ( 'NONE', #12, #8, #2 ) ;
ENDSEC;
END-ISO-10303-21;
