ISO-10303-21;
HEADER;
FILE_DESCRIPTION (( 'STEP AP214' ),
    '1' );
FILE_NAME ('MG90 - Holder1.STEP',
    '2025-10-21T18:57:07',
    ( 'Windows User' ),
    ( '' ),
    'SwSTEP 2.0',
    'SolidWorks 2023',
    '' );
FILE_SCHEMA (( 'AUTOMOTIVE_DESIGN' ));
ENDSEC;

DATA;
#1 = CARTESIAN_POINT ( 'NONE',  ( 9.500000000000001776, 4.000000000000000888, 6.000000000000000000 ) ) ;
#2 =( NAMED_UNIT ( * ) SI_UNIT ( $, .STERADIAN. ) SOLID_ANGLE_UNIT ( ) );
#3 =( LENGTH_UNIT ( ) NAMED_UNIT ( * ) SI_UNIT ( .MILLI., .METRE. ) );
#4 = DIRECTION ( 'NONE',  ( -0.000000000000000000, -0.000000000000000000, 1.000000000000000000 ) ) ;
#5 = SURFACE_STYLE_FILL_AREA ( #813 ) ;
#6 = ORIENTED_EDGE ( 'NONE', *, *, #770, .F. ) ;
#7 = AXIS2_PLACEMENT_3D ( 'NONE', #840, #223, #624 ) ;
#8 = FACE_BOUND ( 'NONE', #27, .T. ) ;
#9 = AXIS2_PLACEMENT_3D ( 'NONE', #620, #418, #877 ) ;
#10 = SURFACE_STYLE_USAGE ( .BOTH. , #279 ) ;
#11 = LINE ( 'NONE', #100, #691 ) ;
#12 = CARTESIAN_POINT ( 'NONE',  ( 1.499999999999999112, 16.00000000000000000, 6.000000000000000000 ) ) ;
#13 = DIRECTION ( 'NONE',  ( 1.000000000000000000, 0.000000000000000000, 0.000000000000000000 ) ) ;
#14 = LINE ( 'NONE', #89, #528 ) ;
#15 = DIRECTION ( 'NONE',  ( 1.000000000000000000, 0.000000000000000000, 0.000000000000000000 ) ) ;
#16 = ORIENTED_EDGE ( 'NONE', *, *, #184, .F. ) ;
#17 = CARTESIAN_POINT ( 'NONE',  ( 2.499999999999999556, 16.00000000000000000, 6.000000000000000000 ) ) ;
#18 = DIRECTION ( 'NONE',  ( 1.000000000000000000, 0.000000000000000000, 0.000000000000000000 ) ) ;
#19 =( NAMED_UNIT ( * ) SI_UNIT ( $, .STERADIAN. ) SOLID_ANGLE_UNIT ( ) );
#20 = ORIENTED_EDGE ( 'NONE', *, *, #639, .F. ) ;
#21 = AXIS2_PLACEMENT_3D ( 'NONE', #514, #790, #91 ) ;
#22 =( NAMED_UNIT ( * ) SI_UNIT ( $, .STERADIAN. ) SOLID_ANGLE_UNIT ( ) );
#23 = PRESENTATION_LAYER_ASSIGNMENT (  '', '', ( #726 ) ) ;
#24 = EDGE_CURVE ( 'NONE', #745, #795, #37, .T. ) ;
#25 = SURFACE_SIDE_STYLE ('',( #583 ) ) ;
#26 = PLANE ( 'NONE',  #81 ) ;
#27 = EDGE_LOOP ( 'NONE', ( #595, #221 ) ) ;
#28 = LINE ( 'NONE', #664, #694 ) ;
#29 = EDGE_CURVE ( 'NONE', #668, #532, #626, .T. ) ;
#30 =( NAMED_UNIT ( * ) SI_UNIT ( $, .STERADIAN. ) SOLID_ANGLE_UNIT ( ) );
#31 = CARTESIAN_POINT ( 'NONE',  ( 6.500000000000000000, 20.00000000000000000, 3.000000000000000000 ) ) ;
#32 = EDGE_LOOP ( 'NONE', ( #566, #580, #733, #512 ) ) ;
#33 = PLANE ( 'NONE',  #242 ) ;
#34 = UNCERTAINTY_MEASURE_WITH_UNIT (LENGTH_MEASURE( 1.000000000000000082E-05 ), #573, 'distance_accuracy_value', 'NONE');
#35 = PRESENTATION_STYLE_ASSIGNMENT (( #890 ) ) ;
#36 = EDGE_LOOP ( 'NONE', ( #16, #635 ) ) ;
#37 = CIRCLE ( 'NONE', #709, 0.9999999999999991118 ) ;
#38 = DIRECTION ( 'NONE',  ( -0.000000000000000000, -0.000000000000000000, 1.000000000000000000 ) ) ;
#39 = STYLED_ITEM ( 'NONE', ( #716 ), #352 ) ;
#40 = CYLINDRICAL_SURFACE ( 'NONE', #48, 0.9999999999999991118 ) ;
#41 = COLOUR_RGB ( '',0.007843137254901960675, 0.2392156862745097867, 0.8235294117647058432 ) ;
#42 = VERTEX_POINT ( 'NONE', #603 ) ;
#43 = FILL_AREA_STYLE ('',( #316 ) ) ;
#44 = ORIENTED_EDGE ( 'NONE', *, *, #386, .F. ) ;
#45 = LINE ( 'NONE', #613, #227 ) ;
#46 = SURFACE_STYLE_FILL_AREA ( #739 ) ;
#47 = EDGE_LOOP ( 'NONE', ( #176, #819, #777, #646 ) ) ;
#48 = AXIS2_PLACEMENT_3D ( 'NONE', #323, #457, #598 ) ;
#49 = DIRECTION ( 'NONE',  ( 1.000000000000000000, 0.000000000000000000, 0.000000000000000000 ) ) ;
#50 = STYLED_ITEM ( 'NONE', ( #792 ), #487 ) ;
#51 = ADVANCED_FACE ( 'NONE', ( #179 ), #475, .F. ) ;
#52 =( NAMED_UNIT ( * ) PLANE_ANGLE_UNIT ( ) SI_UNIT ( $, .RADIAN. ) );
#53 = AXIS2_PLACEMENT_3D ( 'NONE', #398, #116, #276 ) ;
#54 =( NAMED_UNIT ( * ) PLANE_ANGLE_UNIT ( ) SI_UNIT ( $, .RADIAN. ) );
#55 = MECHANICAL_DESIGN_GEOMETRIC_PRESENTATION_REPRESENTATION (  '', ( #230 ), #196 ) ;
#56 =( NAMED_UNIT ( * ) SI_UNIT ( $, .STERADIAN. ) SOLID_ANGLE_UNIT ( ) );
#57 = SURFACE_STYLE_USAGE ( .BOTH. , #561 ) ;
#58 =( LENGTH_UNIT ( ) NAMED_UNIT ( * ) SI_UNIT ( .MILLI., .METRE. ) );
#59 = CARTESIAN_POINT ( 'NONE',  ( 10.50000000000000178, 16.00000000000000000, 1.000000000000000000 ) ) ;
#60 = EDGE_CURVE ( 'NONE', #264, #174, #64, .T. ) ;
#61 = DIRECTION ( 'NONE',  ( -0.000000000000000000, -0.000000000000000000, 1.000000000000000000 ) ) ;
#62 =( NAMED_UNIT ( * ) PLANE_ANGLE_UNIT ( ) SI_UNIT ( $, .RADIAN. ) );
#63 = SURFACE_STYLE_FILL_AREA ( #477 ) ;
#64 = CIRCLE ( 'NONE', #253, 1.000000000000000444 ) ;
#65 = MECHANICAL_DESIGN_GEOMETRIC_PRESENTATION_REPRESENTATION (  '', ( #388 ), #900 ) ;
#66 = COLOUR_RGB ( '',0.007843137254901960675, 0.2392156862745097867, 0.8235294117647058432 ) ;
#67 = CARTESIAN_POINT ( 'NONE',  ( 10.50000000000000178, 4.000000000000000888, 1.000000000000000000 ) ) ;
#68 = MECHANICAL_DESIGN_GEOMETRIC_PRESENTATION_REPRESENTATION (  '', ( #812 ), #229 ) ;
#69 = ORIENTED_EDGE ( 'NONE', *, *, #493, .F. ) ;
#70 = LINE ( 'NONE', #502, #376 ) ;
#71 = CARTESIAN_POINT ( 'NONE',  ( 3.500000000000000444, 4.000000000000000888, 6.000000000000000000 ) ) ;
#72 = DIRECTION ( 'NONE',  ( -0.000000000000000000, -0.000000000000000000, 1.000000000000000000 ) ) ;
#73 = DIRECTION ( 'NONE',  ( 0.000000000000000000, 0.000000000000000000, 1.000000000000000000 ) ) ;
#74 = DIRECTION ( 'NONE',  ( 1.000000000000000000, 0.000000000000000000, 0.000000000000000000 ) ) ;
#75 = CARTESIAN_POINT ( 'NONE',  ( 1.499999999999999112, 16.00000000000000000, 1.000000000000000000 ) ) ;
#76 = ORIENTED_EDGE ( 'NONE', *, *, #428, .T. ) ;
#77 = FACE_OUTER_BOUND ( 'NONE', #345, .T. ) ;
#78 = CARTESIAN_POINT ( 'NONE',  ( 0.000000000000000000, 0.000000000000000000, 0.000000000000000000 ) ) ;
#79 = SURFACE_STYLE_FILL_AREA ( #764 ) ;
#80 = CYLINDRICAL_SURFACE ( 'NONE', #899, 1.000000000000000444 ) ;
#81 = AXIS2_PLACEMENT_3D ( 'NONE', #665, #602, #539 ) ;
#82 = ORIENTED_EDGE ( 'NONE', *, *, #892, .T. ) ;
#83 = CARTESIAN_POINT ( 'NONE',  ( 10.50000000000000178, 16.00000000000000000, 1.000000000000000000 ) ) ;
#84 = PRESENTATION_LAYER_ASSIGNMENT (  '', '', ( #495 ) ) ;
#85 = CARTESIAN_POINT ( 'NONE',  ( 3.500000000000000000, 16.00000000000000000, 6.000000000000000000 ) ) ;
#86 =( NAMED_UNIT ( * ) PLANE_ANGLE_UNIT ( ) SI_UNIT ( $, .RADIAN. ) );
#87 = VERTEX_POINT ( 'NONE', #338 ) ;
#88 =( NAMED_UNIT ( * ) PLANE_ANGLE_UNIT ( ) SI_UNIT ( $, .RADIAN. ) );
#89 = CARTESIAN_POINT ( 'NONE',  ( 0.000000000000000000, 0.000000000000000000, 0.000000000000000000 ) ) ;
#90 = ORIENTED_EDGE ( 'NONE', *, *, #425, .F. ) ;
#91 = DIRECTION ( 'NONE',  ( 1.000000000000000000, 0.000000000000000000, 0.000000000000000000 ) ) ;
#92 = ORIENTED_EDGE ( 'NONE', *, *, #730, .F. ) ;
#93 =( GEOMETRIC_REPRESENTATION_CONTEXT ( 3 ) GLOBAL_UNCERTAINTY_ASSIGNED_CONTEXT ( ( #853 ) ) GLOBAL_UNIT_ASSIGNED_CONTEXT ( ( #369, #86, #19 ) ) REPRESENTATION_CONTEXT ( 'NONE', 'WORKASPACE' ) );
#94 = COLOUR_RGB ( '',0.007843137254901960675, 0.2392156862745097867, 0.8235294117647058432 ) ;
#95 = UNCERTAINTY_MEASURE_WITH_UNIT (LENGTH_MEASURE( 1.000000000000000082E-05 ), #785, 'distance_accuracy_value', 'NONE');
#96 = AXIS2_PLACEMENT_3D ( 'NONE', #484, #627, #262 ) ;
#97 = PRESENTATION_LAYER_ASSIGNMENT (  '', '', ( #244 ) ) ;
#98 = EDGE_CURVE ( 'NONE', #668, #677, #555, .T. ) ;
#99 =( NAMED_UNIT ( * ) PLANE_ANGLE_UNIT ( ) SI_UNIT ( $, .RADIAN. ) );
#100 = CARTESIAN_POINT ( 'NONE',  ( 0.000000000000000000, 0.000000000000000000, 0.000000000000000000 ) ) ;
#101 = EDGE_LOOP ( 'NONE', ( #159, #117, #729, #430 ) ) ;
#102 = FACE_OUTER_BOUND ( 'NONE', #259, .T. ) ;
#103 = SURFACE_SIDE_STYLE ('',( #672 ) ) ;
#104 = FACE_BOUND ( 'NONE', #698, .T. ) ;
#105 = ORIENTED_EDGE ( 'NONE', *, *, #222, .F. ) ;
#106 = FILL_AREA_STYLE ('',( #306 ) ) ;
#107 = DIRECTION ( 'NONE',  ( 1.000000000000000000, 0.000000000000000000, 0.000000000000000000 ) ) ;
#108 = DIRECTION ( 'NONE',  ( 0.000000000000000000, 0.000000000000000000, 1.000000000000000000 ) ) ;
#109 = CIRCLE ( 'NONE', #309, 0.9999999999999991118 ) ;
#110 = AXIS2_PLACEMENT_3D ( 'NONE', #17, #705, #334 ) ;
#111 = COLOUR_RGB ( '',0.007843137254901960675, 0.2392156862745097867, 0.8235294117647058432 ) ;
#112 =( NAMED_UNIT ( * ) PLANE_ANGLE_UNIT ( ) SI_UNIT ( $, .RADIAN. ) );
#113 = SURFACE_SIDE_STYLE ('',( #46 ) ) ;
#114 = ORIENTED_EDGE ( 'NONE', *, *, #634, .F. ) ;
#115 = SURFACE_SIDE_STYLE ('',( #63 ) ) ;
#116 = DIRECTION ( 'NONE',  ( 0.000000000000000000, 1.000000000000000000, 0.000000000000000000 ) ) ;
#117 = ORIENTED_EDGE ( 'NONE', *, *, #303, .F. ) ;
#118 = FACE_OUTER_BOUND ( 'NONE', #153, .T. ) ;
#119 = EDGE_CURVE ( 'NONE', #767, #707, #344, .T. ) ;
#120 = DIRECTION ( 'NONE',  ( 0.000000000000000000, 0.000000000000000000, -1.000000000000000000 ) ) ;
#121 =( LENGTH_UNIT ( ) NAMED_UNIT ( * ) SI_UNIT ( .MILLI., .METRE. ) );
#122 = PRESENTATION_STYLE_ASSIGNMENT (( #888 ) ) ;
#123 =( GEOMETRIC_REPRESENTATION_CONTEXT ( 3 ) GLOBAL_UNCERTAINTY_ASSIGNED_CONTEXT ( ( #321 ) ) GLOBAL_UNIT_ASSIGNED_CONTEXT ( ( #178, #387, #673 ) ) REPRESENTATION_CONTEXT ( 'NONE', 'WORKASPACE' ) );
#124 = CARTESIAN_POINT ( 'NONE',  ( 3.500000000000000000, 16.00000000000000000, 1.000000000000000000 ) ) ;
#125 = FILL_AREA_STYLE ('',( #631 ) ) ;
#126 = AXIS2_PLACEMENT_3D ( 'NONE', #83, #569, #838 ) ;
#127 = ORIENTED_EDGE ( 'NONE', *, *, #29, .F. ) ;
#128 =( LENGTH_UNIT ( ) NAMED_UNIT ( * ) SI_UNIT ( .MILLI., .METRE. ) );
#129 = SURFACE_STYLE_FILL_AREA ( #783 ) ;
#130 = FACE_OUTER_BOUND ( 'NONE', #302, .T. ) ;
#131 = FILL_AREA_STYLE ('',( #880 ) ) ;
#132 = DIRECTION ( 'NONE',  ( -1.000000000000000000, 0.000000000000000000, -0.000000000000000000 ) ) ;
#133 = ORIENTED_EDGE ( 'NONE', *, *, #29, .T. ) ;
#134 = COLOUR_RGB ( '',0.007843137254901960675, 0.2392156862745097867, 0.8235294117647058432 ) ;
#135 = PRESENTATION_LAYER_ASSIGNMENT (  '', '', ( #540 ) ) ;
#136 = CARTESIAN_POINT ( 'NONE',  ( 0.000000000000000000, 20.00000000000000000, 0.000000000000000000 ) ) ;
#137 = AXIS2_PLACEMENT_3D ( 'NONE', #59, #647, #292 ) ;
#138 = CARTESIAN_POINT ( 'NONE',  ( 11.50000000000000533, 16.00000000000000000, 1.000000000000000000 ) ) ;
#139 = ORIENTED_EDGE ( 'NONE', *, *, #609, .F. ) ;
#140 = CARTESIAN_POINT ( 'NONE',  ( 0.000000000000000000, 20.00000000000000000, 6.000000000000000000 ) ) ;
#141 = COLOUR_RGB ( '',0.007843137254901960675, 0.2392156862745097867, 0.8235294117647058432 ) ;
#142 = DIRECTION ( 'NONE',  ( 1.000000000000000000, 0.000000000000000000, 0.000000000000000000 ) ) ;
#143 = FILL_AREA_STYLE_COLOUR ( '', #781 ) ;
#144 = ORIENTED_EDGE ( 'NONE', *, *, #184, .T. ) ;
#145 = CARTESIAN_POINT ( 'NONE',  ( 0.000000000000000000, 0.000000000000000000, 6.000000000000000000 ) ) ;
#146 =( LENGTH_UNIT ( ) NAMED_UNIT ( * ) SI_UNIT ( .MILLI., .METRE. ) );
#147 = EDGE_CURVE ( 'NONE', #236, #515, #284, .T. ) ;
#148 = CARTESIAN_POINT ( 'NONE',  ( 1.500000000000001998, 4.000000000000000888, 6.000000000000000000 ) ) ;
#149 =( NAMED_UNIT ( * ) SI_UNIT ( $, .STERADIAN. ) SOLID_ANGLE_UNIT ( ) );
#150 =( GEOMETRIC_REPRESENTATION_CONTEXT ( 3 ) GLOBAL_UNCERTAINTY_ASSIGNED_CONTEXT ( ( #534 ) ) GLOBAL_UNIT_ASSIGNED_CONTEXT ( ( #3, #62, #203 ) ) REPRESENTATION_CONTEXT ( 'NONE', 'WORKASPACE' ) );
#151 = SURFACE_SIDE_STYLE ('',( #358 ) ) ;
#152 =( GEOMETRIC_REPRESENTATION_CONTEXT ( 3 ) GLOBAL_UNCERTAINTY_ASSIGNED_CONTEXT ( ( #719 ) ) GLOBAL_UNIT_ASSIGNED_CONTEXT ( ( #168, #300, #22 ) ) REPRESENTATION_CONTEXT ( 'NONE', 'WORKASPACE' ) );
#153 = EDGE_LOOP ( 'NONE', ( #217, #187, #183, #144 ) ) ;
#154 = MECHANICAL_DESIGN_GEOMETRIC_PRESENTATION_REPRESENTATION (  '', ( #50 ), #152 ) ;
#155 = FACE_OUTER_BOUND ( 'NONE', #47, .T. ) ;
#156 = PRODUCT_DEFINITION_FORMATION_WITH_SPECIFIED_SOURCE ( 'Symmetric', '', #401, .NOT_KNOWN. ) ;
#157 = PLANE ( 'NONE',  #655 ) ;
#158 = CARTESIAN_POINT ( 'NONE',  ( 13.00000000000000000, 0.000000000000000000, 6.000000000000000000 ) ) ;
#159 = ORIENTED_EDGE ( 'NONE', *, *, #773, .T. ) ;
#160 =( NAMED_UNIT ( * ) SI_UNIT ( $, .STERADIAN. ) SOLID_ANGLE_UNIT ( ) );
#161 = ORIENTED_EDGE ( 'NONE', *, *, #247, .T. ) ;
#162 = CARTESIAN_POINT ( 'NONE',  ( 13.00000000000000000, 20.00000000000000000, 6.000000000000000000 ) ) ;
#163 = FILL_AREA_STYLE ('',( #535 ) ) ;
#164 = SURFACE_STYLE_USAGE ( .BOTH. , #794 ) ;
#165 = AXIS2_PLACEMENT_3D ( 'NONE', #396, #674, #190 ) ;
#166 = VERTEX_POINT ( 'NONE', #138 ) ;
#167 = AXIS2_PLACEMENT_3D ( 'NONE', #288, #860, #518 ) ;
#168 =( LENGTH_UNIT ( ) NAMED_UNIT ( * ) SI_UNIT ( .MILLI., .METRE. ) );
#169 = STYLED_ITEM ( 'NONE', ( #671 ), #473 ) ;
#170 = STYLED_ITEM ( 'NONE', ( #351 ), #735 ) ;
#171 = AXIS2_PLACEMENT_3D ( 'NONE', #453, #863, #238 ) ;
#172 =( LENGTH_UNIT ( ) NAMED_UNIT ( * ) SI_UNIT ( .MILLI., .METRE. ) );
#173 = DIRECTION ( 'NONE',  ( 1.000000000000000000, 0.000000000000000000, 0.000000000000000000 ) ) ;
#174 = VERTEX_POINT ( 'NONE', #75 ) ;
#175 = CARTESIAN_POINT ( 'NONE',  ( 1.500000000000001998, 4.000000000000000888, 1.000000000000000000 ) ) ;
#176 = ORIENTED_EDGE ( 'NONE', *, *, #549, .T. ) ;
#177 = UNCERTAINTY_MEASURE_WITH_UNIT (LENGTH_MEASURE( 1.000000000000000082E-05 ), #601, 'distance_accuracy_value', 'NONE');
#178 =( LENGTH_UNIT ( ) NAMED_UNIT ( * ) SI_UNIT ( .MILLI., .METRE. ) );
#179 = FACE_OUTER_BOUND ( 'NONE', #848, .T. ) ;
#180 =( NAMED_UNIT ( * ) PLANE_ANGLE_UNIT ( ) SI_UNIT ( $, .RADIAN. ) );
#181 = AXIS2_PLACEMENT_3D ( 'NONE', #511, #721, #454 ) ;
#182 = AXIS2_PLACEMENT_3D ( 'NONE', #297, #801, #304 ) ;
#183 = ORIENTED_EDGE ( 'NONE', *, *, #257, .T. ) ;
#184 = EDGE_CURVE ( 'NONE', #451, #788, #690, .T. ) ;
#185 =( NAMED_UNIT ( * ) SI_UNIT ( $, .STERADIAN. ) SOLID_ANGLE_UNIT ( ) );
#186 = EDGE_CURVE ( 'NONE', #174, #663, #762, .T. ) ;
#187 = ORIENTED_EDGE ( 'NONE', *, *, #704, .F. ) ;
#188 = CARTESIAN_POINT ( 'NONE',  ( 13.00000000000000000, 20.00000000000000000, 6.000000000000000000 ) ) ;
#189 =( NAMED_UNIT ( * ) SI_UNIT ( $, .STERADIAN. ) SOLID_ANGLE_UNIT ( ) );
#190 = DIRECTION ( 'NONE',  ( 1.000000000000000000, 0.000000000000000000, 0.000000000000000000 ) ) ;
#191 = FILL_AREA_STYLE_COLOUR ( '', #66 ) ;
#192 = UNCERTAINTY_MEASURE_WITH_UNIT (LENGTH_MEASURE( 1.000000000000000082E-05 ), #750, 'distance_accuracy_value', 'NONE');
#193 = COLOUR_RGB ( '',0.007843137254901960675, 0.2392156862745097867, 0.8235294117647058432 ) ;
#194 = PRESENTATION_LAYER_ASSIGNMENT (  '', '', ( #628 ) ) ;
#195 = DIRECTION ( 'NONE',  ( 0.000000000000000000, 0.000000000000000000, 1.000000000000000000 ) ) ;
#196 =( GEOMETRIC_REPRESENTATION_CONTEXT ( 3 ) GLOBAL_UNCERTAINTY_ASSIGNED_CONTEXT ( ( #472 ) ) GLOBAL_UNIT_ASSIGNED_CONTEXT ( ( #314, #305, #652 ) ) REPRESENTATION_CONTEXT ( 'NONE', 'WORKASPACE' ) );
#197 = FILL_AREA_STYLE_COLOUR ( '', #682 ) ;
#198 =( NAMED_UNIT ( * ) PLANE_ANGLE_UNIT ( ) SI_UNIT ( $, .RADIAN. ) );
#199 = DIRECTION ( 'NONE',  ( 1.000000000000000000, 0.000000000000000000, 0.000000000000000000 ) ) ;
#200 = SURFACE_STYLE_FILL_AREA ( #416 ) ;
#201 = CARTESIAN_POINT ( 'NONE',  ( 1.500000000000001998, 4.000000000000000888, 1.000000000000000000 ) ) ;
#202 = DIRECTION ( 'NONE',  ( -0.000000000000000000, 1.000000000000000000, -0.000000000000000000 ) ) ;
#203 =( NAMED_UNIT ( * ) SI_UNIT ( $, .STERADIAN. ) SOLID_ANGLE_UNIT ( ) );
#204 = ORIENTED_EDGE ( 'NONE', *, *, #257, .F. ) ;
#205 = VECTOR ( 'NONE', #568, 1000.000000000000000 ) ;
#206 = DIRECTION ( 'NONE',  ( 0.000000000000000000, 0.000000000000000000, 1.000000000000000000 ) ) ;
#207 =( GEOMETRIC_REPRESENTATION_CONTEXT ( 3 ) GLOBAL_UNCERTAINTY_ASSIGNED_CONTEXT ( ( #177 ) ) GLOBAL_UNIT_ASSIGNED_CONTEXT ( ( #601, #371, #649 ) ) REPRESENTATION_CONTEXT ( 'NONE', 'WORKASPACE' ) );
#208 = FILL_AREA_STYLE_COLOUR ( '', #724 ) ;
#209 = COLOUR_RGB ( '',0.007843137254901960675, 0.2392156862745097867, 0.8235294117647058432 ) ;
#210 = DIRECTION ( 'NONE',  ( -1.000000000000000000, -0.000000000000000000, -0.000000000000000000 ) ) ;
#211 = PRESENTATION_LAYER_ASSIGNMENT (  '', '', ( #230 ) ) ;
#212 = ADVANCED_FACE ( 'NONE', ( #562 ), #80, .F. ) ;
#213 = DIRECTION ( 'NONE',  ( -0.000000000000000000, -0.000000000000000000, 1.000000000000000000 ) ) ;
#214 = CARTESIAN_POINT ( 'NONE',  ( 2.499999999999999556, 16.00000000000000000, 6.000000000000000000 ) ) ;
#215 = SURFACE_STYLE_USAGE ( .BOTH. , #765 ) ;
#216 = ADVANCED_FACE ( 'NONE', ( #130 ), #268, .F. ) ;
#217 = ORIENTED_EDGE ( 'NONE', *, *, #796, .F. ) ;
#218 = CYLINDRICAL_SURFACE ( 'NONE', #359, 1.000000000000000888 ) ;
#219 =( NAMED_UNIT ( * ) PLANE_ANGLE_UNIT ( ) SI_UNIT ( $, .RADIAN. ) );
#220 = CARTESIAN_POINT ( 'NONE',  ( 3.500000000000000000, 16.00000000000000000, 1.000000000000000000 ) ) ;
#221 = ORIENTED_EDGE ( 'NONE', *, *, #805, .F. ) ;
#222 = EDGE_CURVE ( 'NONE', #677, #546, #328, .T. ) ;
#223 = DIRECTION ( 'NONE',  ( 0.000000000000000000, 0.000000000000000000, 1.000000000000000000 ) ) ;
#224 = PRESENTATION_LAYER_ASSIGNMENT (  '', '', ( #307 ) ) ;
#225 = DIRECTION ( 'NONE',  ( 1.000000000000000000, 0.000000000000000000, 0.000000000000000000 ) ) ;
#226 = CIRCLE ( 'NONE', #478, 1.000000000000001776 ) ;
#227 = VECTOR ( 'NONE', #552, 1000.000000000000000 ) ;
#228 = ORIENTED_EDGE ( 'NONE', *, *, #609, .T. ) ;
#229 =( GEOMETRIC_REPRESENTATION_CONTEXT ( 3 ) GLOBAL_UNCERTAINTY_ASSIGNED_CONTEXT ( ( #553 ) ) GLOBAL_UNIT_ASSIGNED_CONTEXT ( ( #412, #319, #269 ) ) REPRESENTATION_CONTEXT ( 'NONE', 'WORKASPACE' ) );
#230 = STYLED_ITEM ( 'NONE', ( #720 ), #876 ) ;
#231 = CARTESIAN_POINT ( 'NONE',  ( 3.500000000000000444, 4.000000000000000888, 1.000000000000000000 ) ) ;
#232 = LINE ( 'NONE', #158, #356 ) ;
#233 = ORIENTED_EDGE ( 'NONE', *, *, #549, .F. ) ;
#234 = DIRECTION ( 'NONE',  ( -1.000000000000000000, -0.000000000000000000, -0.000000000000000000 ) ) ;
#235 = FILL_AREA_STYLE ('',( #298 ) ) ;
#236 = VERTEX_POINT ( 'NONE', #524 ) ;
#237 = FILL_AREA_STYLE_COLOUR ( '', #725 ) ;
#238 = DIRECTION ( 'NONE',  ( 1.000000000000000000, 0.000000000000000000, 0.000000000000000000 ) ) ;
#239 = ORIENTED_EDGE ( 'NONE', *, *, #459, .T. ) ;
#240 = STYLED_ITEM ( 'NONE', ( #714 ), #320 ) ;
#241 = CARTESIAN_POINT ( 'NONE',  ( 0.000000000000000000, 20.00000000000000000, 0.000000000000000000 ) ) ;
#242 = AXIS2_PLACEMENT_3D ( 'NONE', #806, #723, #444 ) ;
#243 = AXIS2_PLACEMENT_3D ( 'NONE', #481, #120, #132 ) ;
#244 = STYLED_ITEM ( 'NONE', ( #640 ), #862 ) ;
#245 = CYLINDRICAL_SURFACE ( 'NONE', #799, 1.000000000000001776 ) ;
#246 = ORIENTED_EDGE ( 'NONE', *, *, #413, .F. ) ;
#247 = EDGE_CURVE ( 'NONE', #426, #722, #507, .T. ) ;
#248 = FACE_OUTER_BOUND ( 'NONE', #541, .T. ) ;
#249 = EDGE_LOOP ( 'NONE', ( #490, #455, #814, #851 ) ) ;
#250 = FILL_AREA_STYLE ('',( #197 ) ) ;
#251 = DIRECTION ( 'NONE',  ( -0.000000000000000000, -0.000000000000000000, 1.000000000000000000 ) ) ;
#252 = FILL_AREA_STYLE_COLOUR ( '', #134 ) ;
#253 = AXIS2_PLACEMENT_3D ( 'NONE', #897, #195, #277 ) ;
#254 = SURFACE_STYLE_FILL_AREA ( #131 ) ;
#255 = MECHANICAL_DESIGN_GEOMETRIC_PRESENTATION_REPRESENTATION (  '', ( #340 ), #434 ) ;
#256 = PRESENTATION_LAYER_ASSIGNMENT (  '', '', ( #653 ) ) ;
#257 = EDGE_CURVE ( 'NONE', #718, #451, #579, .T. ) ;
#258 = FACE_OUTER_BOUND ( 'NONE', #619, .T. ) ;
#259 = EDGE_LOOP ( 'NONE', ( #417, #133 ) ) ;
#260 = PRODUCT_DEFINITION_SHAPE ( 'NONE', 'NONE',  #563 ) ;
#261 = EDGE_CURVE ( 'NONE', #463, #42, #109, .T. ) ;
#262 = DIRECTION ( 'NONE',  ( 0.000000000000000000, 0.000000000000000000, 1.000000000000000000 ) ) ;
#263 = SURFACE_STYLE_FILL_AREA ( #272 ) ;
#264 = VERTEX_POINT ( 'NONE', #220 ) ;
#265 = DIRECTION ( 'NONE',  ( 0.000000000000000000, 0.000000000000000000, 1.000000000000000000 ) ) ;
#266 = DIRECTION ( 'NONE',  ( 0.000000000000000000, 0.000000000000000000, 1.000000000000000000 ) ) ;
#267 = SURFACE_STYLE_USAGE ( .BOTH. , #545 ) ;
#268 = PLANE ( 'NONE',  #167 ) ;
#269 =( NAMED_UNIT ( * ) SI_UNIT ( $, .STERADIAN. ) SOLID_ANGLE_UNIT ( ) );
#270 = PRESENTATION_LAYER_ASSIGNMENT (  '', '', ( #681 ) ) ;
#271 =( GEOMETRIC_REPRESENTATION_CONTEXT ( 3 ) GLOBAL_UNCERTAINTY_ASSIGNED_CONTEXT ( ( #382 ) ) GLOBAL_UNIT_ASSIGNED_CONTEXT ( ( #822, #52, #189 ) ) REPRESENTATION_CONTEXT ( 'NONE', 'WORKASPACE' ) );
#272 = FILL_AREA_STYLE ('',( #758 ) ) ;
#273 = VECTOR ( 'NONE', #643, 1000.000000000000000 ) ;
#274 =( LENGTH_UNIT ( ) NAMED_UNIT ( * ) SI_UNIT ( .MILLI., .METRE. ) );
#275 = PRESENTATION_LAYER_ASSIGNMENT (  '', '', ( #630 ) ) ;
#276 = DIRECTION ( 'NONE',  ( 0.000000000000000000, 0.000000000000000000, 1.000000000000000000 ) ) ;
#277 = DIRECTION ( 'NONE',  ( 1.000000000000000000, 0.000000000000000000, 0.000000000000000000 ) ) ;
#278 = FILL_AREA_STYLE_COLOUR ( '', #111 ) ;
#279 = SURFACE_SIDE_STYLE ('',( #5 ) ) ;
#280 = DIRECTION ( 'NONE',  ( 0.000000000000000000, 1.000000000000000000, 0.000000000000000000 ) ) ;
#281 = EDGE_CURVE ( 'NONE', #788, #451, #226, .T. ) ;
#282 = EDGE_CURVE ( 'NONE', #861, #443, #11, .T. ) ;
#283 = MECHANICAL_DESIGN_GEOMETRIC_PRESENTATION_REPRESENTATION (  '', ( #681 ), #123 ) ;
#284 = LINE ( 'NONE', #574, #205 ) ;
#285 = ORIENTED_EDGE ( 'NONE', *, *, #547, .T. ) ;
#286 = PRESENTATION_STYLE_ASSIGNMENT (( #835 ) ) ;
#287 = FILL_AREA_STYLE_COLOUR ( '', #599 ) ;
#288 = CARTESIAN_POINT ( 'NONE',  ( 13.00000000000000000, 0.000000000000000000, 6.000000000000000000 ) ) ;
#289 = DIRECTION ( 'NONE',  ( 0.000000000000000000, 0.000000000000000000, 1.000000000000000000 ) ) ;
#290 = CARTESIAN_POINT ( 'NONE',  ( 10.50000000000000178, 16.00000000000000000, 6.000000000000000000 ) ) ;
#291 = ORIENTED_EDGE ( 'NONE', *, *, #591, .F. ) ;
#292 = DIRECTION ( 'NONE',  ( 1.000000000000000000, 0.000000000000000000, 0.000000000000000000 ) ) ;
#293 = FILL_AREA_STYLE ('',( #445 ) ) ;
#294 = PRESENTATION_LAYER_ASSIGNMENT (  '', '', ( #666 ) ) ;
#295 = EDGE_LOOP ( 'NONE', ( #585, #483, #782, #90 ) ) ;
#296 = COLOUR_RGB ( '',0.007843137254901960675, 0.2392156862745097867, 0.8235294117647058432 ) ;
#297 = CARTESIAN_POINT ( 'NONE',  ( 0.000000000000000000, 0.000000000000000000, 6.000000000000000000 ) ) ;
#298 = FILL_AREA_STYLE_COLOUR ( '', #421 ) ;
#299 = EDGE_LOOP ( 'NONE', ( #76, #228 ) ) ;
#300 =( NAMED_UNIT ( * ) PLANE_ANGLE_UNIT ( ) SI_UNIT ( $, .RADIAN. ) );
#301 = CARTESIAN_POINT ( 'NONE',  ( 6.500000000000000000, 15.00000000000000000, 4.000000000000001776 ) ) ;
#302 = EDGE_LOOP ( 'NONE', ( #326, #879, #737, #800 ) ) ;
#303 = EDGE_CURVE ( 'NONE', #236, #767, #232, .T. ) ;
#304 = DIRECTION ( 'NONE',  ( 0.000000000000000000, -0.000000000000000000, 1.000000000000000000 ) ) ;
#305 =( NAMED_UNIT ( * ) PLANE_ANGLE_UNIT ( ) SI_UNIT ( $, .RADIAN. ) );
#306 = FILL_AREA_STYLE_COLOUR ( '', #570 ) ;
#307 = STYLED_ITEM ( 'NONE', ( #871 ), #51 ) ;
#308 = EDGE_LOOP ( 'NONE', ( #139, #656, #333, #590 ) ) ;
#309 = AXIS2_PLACEMENT_3D ( 'NONE', #727, #645, #15 ) ;
#310 = CARTESIAN_POINT ( 'NONE',  ( 11.50000000000000355, 4.000000000000000888, 1.000000000000000000 ) ) ;
#311 = AXIS2_PLACEMENT_3D ( 'NONE', #378, #592, #108 ) ;
#312 = UNCERTAINTY_MEASURE_WITH_UNIT (LENGTH_MEASURE( 1.000000000000000082E-05 ), #58, 'distance_accuracy_value', 'NONE');
#313 = AXIS2_PLACEMENT_3D ( 'NONE', #435, #712, #509 ) ;
#314 =( LENGTH_UNIT ( ) NAMED_UNIT ( * ) SI_UNIT ( .MILLI., .METRE. ) );
#315 = DIRECTION ( 'NONE',  ( 0.000000000000000000, 0.000000000000000000, 1.000000000000000000 ) ) ;
#316 = FILL_AREA_STYLE_COLOUR ( '', #407 ) ;
#317 = FACE_OUTER_BOUND ( 'NONE', #249, .T. ) ;
#318 = EDGE_LOOP ( 'NONE', ( #291, #550, #843, #161 ) ) ;
#319 =( NAMED_UNIT ( * ) PLANE_ANGLE_UNIT ( ) SI_UNIT ( $, .RADIAN. ) );
#320 = ADVANCED_FACE ( 'NONE', ( #732 ), #780, .F. ) ;
#321 = UNCERTAINTY_MEASURE_WITH_UNIT (LENGTH_MEASURE( 1.000000000000000082E-05 ), #178, 'distance_accuracy_value', 'NONE');
#322 =( NAMED_UNIT ( * ) SI_UNIT ( $, .STERADIAN. ) SOLID_ANGLE_UNIT ( ) );
#323 = CARTESIAN_POINT ( 'NONE',  ( 2.500000000000001332, 4.000000000000000888, 1.000000000000000000 ) ) ;
#324 = ADVANCED_FACE ( 'NONE', ( #654 ), #26, .T. ) ;
#325 = PRESENTATION_STYLE_ASSIGNMENT (( #57 ) ) ;
#326 = ORIENTED_EDGE ( 'NONE', *, *, #119, .T. ) ;
#327 = PRESENTATION_LAYER_ASSIGNMENT (  '', '', ( #476 ) ) ;
#328 = CIRCLE ( 'NONE', #181, 1.000000000000000888 ) ;
#329 = CIRCLE ( 'NONE', #784, 1.000000000000000888 ) ;
#330 = VECTOR ( 'NONE', #210, 1000.000000000000000 ) ;
#331 = MECHANICAL_DESIGN_GEOMETRIC_PRESENTATION_REPRESENTATION (  '', ( #713 ), #742 ) ;
#332 = DIRECTION ( 'NONE',  ( 0.000000000000000000, 0.000000000000000000, 1.000000000000000000 ) ) ;
#333 = ORIENTED_EDGE ( 'NONE', *, *, #730, .T. ) ;
#334 = DIRECTION ( 'NONE',  ( 1.000000000000000000, 0.000000000000000000, 0.000000000000000000 ) ) ;
#335 = FACE_OUTER_BOUND ( 'NONE', #715, .T. ) ;
#336 = CARTESIAN_POINT ( 'NONE',  ( 10.50000000000000178, 4.000000000000000888, 1.000000000000000000 ) ) ;
#337 = CARTESIAN_POINT ( 'NONE',  ( 13.00000000000000000, 20.00000000000000000, 0.000000000000000000 ) ) ;
#338 = CARTESIAN_POINT ( 'NONE',  ( 9.500000000000000000, 16.00000000000000000, 1.000000000000000000 ) ) ;
#339 = SURFACE_SIDE_STYLE ('',( #254 ) ) ;
#340 = STYLED_ITEM ( 'NONE', ( #35 ), #347 ) ;
#341 = AXIS2_PLACEMENT_3D ( 'NONE', #405, #265, #465 ) ;
#342 = CIRCLE ( 'NONE', #53, 1.000000000000001776 ) ;
#343 = PLANE ( 'NONE',  #510 ) ;
#344 = LINE ( 'NONE', #489, #462 ) ;
#345 = EDGE_LOOP ( 'NONE', ( #471, #526, #834, #741 ) ) ;
#346 = CARTESIAN_POINT ( 'NONE',  ( 9.500000000000001776, 4.000000000000000888, 1.000000000000000000 ) ) ;
#347 = ADVANCED_FACE ( 'NONE', ( #317 ), #40, .F. ) ;
#348 = SURFACE_SIDE_STYLE ('',( #79 ) ) ;
#349 = DIRECTION ( 'NONE',  ( -0.000000000000000000, -0.000000000000000000, 1.000000000000000000 ) ) ;
#350 = ADVANCED_FACE ( 'NONE', ( #258 ), #394, .F. ) ;
#351 = PRESENTATION_STYLE_ASSIGNMENT (( #10 ) ) ;
#352 = ADVANCED_FACE ( 'NONE', ( #617, #104, #662, #8, #155 ), #503, .F. ) ;
#353 = ORIENTED_EDGE ( 'NONE', *, *, #704, .T. ) ;
#354 = SURFACE_SIDE_STYLE ('',( #427 ) ) ;
#355 = DIRECTION ( 'NONE',  ( -0.000000000000000000, -0.000000000000000000, 1.000000000000000000 ) ) ;
#356 = VECTOR ( 'NONE', #850, 1000.000000000000000 ) ;
#357 = SURFACE_STYLE_USAGE ( .BOTH. , #348 ) ;
#358 = SURFACE_STYLE_FILL_AREA ( #442 ) ;
#359 = AXIS2_PLACEMENT_3D ( 'NONE', #415, #61, #199 ) ;
#360 = ORIENTED_EDGE ( 'NONE', *, *, #379, .F. ) ;
#361 = LINE ( 'NONE', #201, #558 ) ;
#362 =( GEOMETRIC_REPRESENTATION_CONTEXT ( 3 ) GLOBAL_UNCERTAINTY_ASSIGNED_CONTEXT ( ( #95 ) ) GLOBAL_UNIT_ASSIGNED_CONTEXT ( ( #785, #219, #2 ) ) REPRESENTATION_CONTEXT ( 'NONE', 'WORKASPACE' ) );
#363 =( NAMED_UNIT ( * ) SI_UNIT ( $, .STERADIAN. ) SOLID_ANGLE_UNIT ( ) );
#364 = FILL_AREA_STYLE_COLOUR ( '', #757 ) ;
#365 = DIRECTION ( 'NONE',  ( -0.000000000000000000, 1.000000000000000000, -0.000000000000000000 ) ) ;
#366 = ORIENTED_EDGE ( 'NONE', *, *, #778, .T. ) ;
#367 = LINE ( 'NONE', #124, #884 ) ;
#368 = DIRECTION ( 'NONE',  ( 0.000000000000000000, 0.000000000000000000, 1.000000000000000000 ) ) ;
#369 =( LENGTH_UNIT ( ) NAMED_UNIT ( * ) SI_UNIT ( .MILLI., .METRE. ) );
#370 = ORIENTED_EDGE ( 'NONE', *, *, #282, .T. ) ;
#371 =( NAMED_UNIT ( * ) PLANE_ANGLE_UNIT ( ) SI_UNIT ( $, .RADIAN. ) );
#372 = UNCERTAINTY_MEASURE_WITH_UNIT (LENGTH_MEASURE( 1.000000000000000082E-05 ), #825, 'distance_accuracy_value', 'NONE');
#373 = AXIS2_PLACEMENT_3D ( 'NONE', #842, #776, #482 ) ;
#374 = VECTOR ( 'NONE', #607, 1000.000000000000000 ) ;
#375 = ORIENTED_EDGE ( 'NONE', *, *, #247, .F. ) ;
#376 = VECTOR ( 'NONE', #4, 1000.000000000000000 ) ;
#377 = VECTOR ( 'NONE', #202, 1000.000000000000000 ) ;
#378 = CARTESIAN_POINT ( 'NONE',  ( 6.500000000000000000, 15.00000000000000000, 3.000000000000000000 ) ) ;
#379 = EDGE_CURVE ( 'NONE', #385, #663, #902, .T. ) ;
#380 = SURFACE_SIDE_STYLE ('',( #460 ) ) ;
#381 = EDGE_LOOP ( 'NONE', ( #44, #105 ) ) ;
#382 = UNCERTAINTY_MEASURE_WITH_UNIT (LENGTH_MEASURE( 1.000000000000000082E-05 ), #822, 'distance_accuracy_value', 'NONE');
#383 = EDGE_CURVE ( 'NONE', #532, #668, #329, .T. ) ;
#384 = PRESENTATION_STYLE_ASSIGNMENT (( #808 ) ) ;
#385 = VERTEX_POINT ( 'NONE', #85 ) ;
#386 = EDGE_CURVE ( 'NONE', #546, #677, #508, .T. ) ;
#387 =( NAMED_UNIT ( * ) PLANE_ANGLE_UNIT ( ) SI_UNIT ( $, .RADIAN. ) );
#388 = STYLED_ITEM ( 'NONE', ( #702 ), #216 ) ;
#389 = ORIENTED_EDGE ( 'NONE', *, *, #282, .F. ) ;
#390 = MECHANICAL_DESIGN_GEOMETRIC_PRESENTATION_REPRESENTATION (  '', ( #628 ), #436 ) ;
#391 = DIRECTION ( 'NONE',  ( 0.000000000000000000, 1.000000000000000000, 0.000000000000000000 ) ) ;
#392 = COLOUR_RGB ( '',0.007843137254901960675, 0.2392156862745097867, 0.8235294117647058432 ) ;
#393 = DIRECTION ( 'NONE',  ( 1.000000000000000000, 0.000000000000000000, -0.000000000000000000 ) ) ;
#394 = CYLINDRICAL_SURFACE ( 'NONE', #557, 0.9999999999999991118 ) ;
#395 = PRODUCT_RELATED_PRODUCT_CATEGORY ( 'part', '', ( #401 ) ) ;
#396 = CARTESIAN_POINT ( 'NONE',  ( 10.50000000000000178, 4.000000000000000888, 1.000000000000000000 ) ) ;
#397 = LINE ( 'NONE', #188, #409 ) ;
#398 = CARTESIAN_POINT ( 'NONE',  ( 6.500000000000000000, 15.00000000000000000, 3.000000000000000000 ) ) ;
#399 = ORIENTED_EDGE ( 'NONE', *, *, #493, .T. ) ;
#400 = CARTESIAN_POINT ( 'NONE',  ( 11.50000000000000355, 4.000000000000000888, 1.000000000000000000 ) ) ;
#401 = PRODUCT ( 'MG90 - Holder1', 'MG90 - Holder1', '', ( #548 ) ) ;
#402 = UNCERTAINTY_MEASURE_WITH_UNIT (LENGTH_MEASURE( 1.000000000000000082E-05 ), #793, 'distance_accuracy_value', 'NONE');
#403 = CARTESIAN_POINT ( 'NONE',  ( 6.500000000000000000, 15.00000000000000000, 3.000000000000000000 ) ) ;
#404 = CARTESIAN_POINT ( 'NONE',  ( 9.500000000000000000, 16.00000000000000000, 6.000000000000000000 ) ) ;
#405 = CARTESIAN_POINT ( 'NONE',  ( 2.499999999999999556, 16.00000000000000000, 1.000000000000000000 ) ) ;
#406 = PRESENTATION_LAYER_ASSIGNMENT (  '', '', ( #340 ) ) ;
#407 = COLOUR_RGB ( '',0.007843137254901960675, 0.2392156862745097867, 0.8235294117647058432 ) ;
#408 = STYLED_ITEM ( 'NONE', ( #286 ), #678 ) ;
#409 = VECTOR ( 'NONE', #485, 1000.000000000000000 ) ;
#410 = SURFACE_STYLE_FILL_AREA ( #125 ) ;
#411 = SURFACE_SIDE_STYLE ('',( #749 ) ) ;
#412 =( LENGTH_UNIT ( ) NAMED_UNIT ( * ) SI_UNIT ( .MILLI., .METRE. ) );
#413 = EDGE_CURVE ( 'NONE', #42, #745, #506, .T. ) ;
#414 = SURFACE_SIDE_STYLE ('',( #440 ) ) ;
#415 = CARTESIAN_POINT ( 'NONE',  ( 10.50000000000000178, 4.000000000000000888, 1.000000000000000000 ) ) ;
#416 = FILL_AREA_STYLE ('',( #143 ) ) ;
#417 = ORIENTED_EDGE ( 'NONE', *, *, #383, .T. ) ;
#418 = DIRECTION ( 'NONE',  ( 0.000000000000000000, 0.000000000000000000, 1.000000000000000000 ) ) ;
#419 = PLANE ( 'NONE',  #313 ) ;
#420 = LINE ( 'NONE', #140, #330 ) ;
#421 = COLOUR_RGB ( '',0.007843137254901960675, 0.2392156862745097867, 0.8235294117647058432 ) ;
#422 = PRESENTATION_LAYER_ASSIGNMENT (  '', '', ( #812 ) ) ;
#423 = COLOUR_RGB ( '',0.007843137254901960675, 0.2392156862745097867, 0.8235294117647058432 ) ;
#424 = PRESENTATION_STYLE_ASSIGNMENT (( #215 ) ) ;
#425 = EDGE_CURVE ( 'NONE', #264, #385, #367, .T. ) ;
#426 = VERTEX_POINT ( 'NONE', #637 ) ;
#427 = SURFACE_STYLE_FILL_AREA ( #708 ) ;
#428 = EDGE_CURVE ( 'NONE', #166, #87, #494, .T. ) ;
#429 = SURFACE_STYLE_USAGE ( .BOTH. , #688 ) ;
#430 = ORIENTED_EDGE ( 'NONE', *, *, #639, .T. ) ;
#431 =( NAMED_UNIT ( * ) SI_UNIT ( $, .STERADIAN. ) SOLID_ANGLE_UNIT ( ) );
#432 = CARTESIAN_POINT ( 'NONE',  ( 2.500000000000001332, 4.000000000000000888, 1.000000000000000000 ) ) ;
#433 = LINE ( 'NONE', #703, #669 ) ;
#434 =( GEOMETRIC_REPRESENTATION_CONTEXT ( 3 ) GLOBAL_UNCERTAINTY_ASSIGNED_CONTEXT ( ( #881 ) ) GLOBAL_UNIT_ASSIGNED_CONTEXT ( ( #608, #744, #185 ) ) REPRESENTATION_CONTEXT ( 'NONE', 'WORKASPACE' ) );
#435 = CARTESIAN_POINT ( 'NONE',  ( 0.000000000000000000, 20.00000000000000000, 6.000000000000000000 ) ) ;
#436 =( GEOMETRIC_REPRESENTATION_CONTEXT ( 3 ) GLOBAL_UNCERTAINTY_ASSIGNED_CONTEXT ( ( #810 ) ) GLOBAL_UNIT_ASSIGNED_CONTEXT ( ( #146, #479, #431 ) ) REPRESENTATION_CONTEXT ( 'NONE', 'WORKASPACE' ) );
#437 = SURFACE_STYLE_USAGE ( .BOTH. , #151 ) ;
#438 = MECHANICAL_DESIGN_GEOMETRIC_PRESENTATION_REPRESENTATION (  '', ( #170 ), #584 ) ;
#439 = ORIENTED_EDGE ( 'NONE', *, *, #60, .T. ) ;
#440 = SURFACE_STYLE_FILL_AREA ( #578 ) ;
#441 = CARTESIAN_POINT ( 'NONE',  ( 13.00000000000000000, 0.000000000000000000, 0.000000000000000000 ) ) ;
#442 = FILL_AREA_STYLE ('',( #594 ) ) ;
#443 = VERTEX_POINT ( 'NONE', #78 ) ;
#444 = DIRECTION ( 'NONE',  ( 1.000000000000000000, 0.000000000000000000, -0.000000000000000000 ) ) ;
#445 = FILL_AREA_STYLE_COLOUR ( '', #141 ) ;
#446 = DIRECTION ( 'NONE',  ( 0.000000000000000000, 1.000000000000000000, 0.000000000000000000 ) ) ;
#447 = ORIENTED_EDGE ( 'NONE', *, *, #547, .F. ) ;
#448 = ADVANCED_FACE ( 'NONE', ( #498 ), #845, .T. ) ;
#449 = PRESENTATION_STYLE_ASSIGNMENT (( #164 ) ) ;
#450 = VECTOR ( 'NONE', #234, 1000.000000000000000 ) ;
#451 = VERTEX_POINT ( 'NONE', #604 ) ;
#452 = MECHANICAL_DESIGN_GEOMETRIC_PRESENTATION_REPRESENTATION (  '', ( #495 ), #527 ) ;
#453 = CARTESIAN_POINT ( 'NONE',  ( 10.50000000000000178, 16.00000000000000000, 1.000000000000000000 ) ) ;
#454 = DIRECTION ( 'NONE',  ( 1.000000000000000000, 0.000000000000000000, 0.000000000000000000 ) ) ;
#455 = ORIENTED_EDGE ( 'NONE', *, *, #778, .F. ) ;
#456 = CARTESIAN_POINT ( 'NONE',  ( 6.500000000000000000, 15.00000000000000000, 3.000000000000000000 ) ) ;
#457 = DIRECTION ( 'NONE',  ( -0.000000000000000000, -0.000000000000000000, 1.000000000000000000 ) ) ;
#458 = EDGE_LOOP ( 'NONE', ( #389, #69, #600, #611 ) ) ;
#459 = EDGE_CURVE ( 'NONE', #648, #718, #612, .T. ) ;
#460 = SURFACE_STYLE_FILL_AREA ( #163 ) ;
#461 = FILL_AREA_STYLE_COLOUR ( '', #193 ) ;
#462 = VECTOR ( 'NONE', #280, 1000.000000000000000 ) ;
#463 = VERTEX_POINT ( 'NONE', #175 ) ;
#464 = MECHANICAL_DESIGN_GEOMETRIC_PRESENTATION_REPRESENTATION (  '', ( #169 ), #207 ) ;
#465 = DIRECTION ( 'NONE',  ( 1.000000000000000000, 0.000000000000000000, 0.000000000000000000 ) ) ;
#466 = UNCERTAINTY_MEASURE_WITH_UNIT (LENGTH_MEASURE( 1.000000000000000082E-05 ), #491, 'distance_accuracy_value', 'NONE');
#467 = SURFACE_STYLE_USAGE ( .BOTH. , #411 ) ;
#468 = SURFACE_STYLE_FILL_AREA ( #250 ) ;
#469 =( NAMED_UNIT ( * ) PLANE_ANGLE_UNIT ( ) SI_UNIT ( $, .RADIAN. ) );
#470 =( NAMED_UNIT ( * ) SI_UNIT ( $, .STERADIAN. ) SOLID_ANGLE_UNIT ( ) );
#471 = ORIENTED_EDGE ( 'NONE', *, *, #98, .F. ) ;
#472 = UNCERTAINTY_MEASURE_WITH_UNIT (LENGTH_MEASURE( 1.000000000000000082E-05 ), #314, 'distance_accuracy_value', 'NONE');
#473 = ADVANCED_FACE ( 'NONE', ( #102 ), #33, .T. ) ;
#474 = CARTESIAN_POINT ( 'NONE',  ( 0.000000000000000000, 0.000000000000000000, 6.000000000000000000 ) ) ;
#475 = CYLINDRICAL_SURFACE ( 'NONE', #636, 1.000000000000000888 ) ;
#476 = STYLED_ITEM ( 'NONE', ( #424 ), #212 ) ;
#477 = FILL_AREA_STYLE ('',( #191 ) ) ;
#478 = AXIS2_PLACEMENT_3D ( 'NONE', #31, #446, #504 ) ;
#479 =( NAMED_UNIT ( * ) PLANE_ANGLE_UNIT ( ) SI_UNIT ( $, .RADIAN. ) );
#480 = ADVANCED_BREP_SHAPE_REPRESENTATION ( 'MG90 - Holder1', ( #531, #9 ), #670 ) ;
#481 = CARTESIAN_POINT ( 'NONE',  ( 0.000000000000000000, 0.000000000000000000, 0.000000000000000000 ) ) ;
#482 = DIRECTION ( 'NONE',  ( 0.000000000000000000, 0.000000000000000000, 1.000000000000000000 ) ) ;
#483 = ORIENTED_EDGE ( 'NONE', *, *, #186, .T. ) ;
#484 = CARTESIAN_POINT ( 'NONE',  ( 6.500000000000000000, 15.00000000000000000, 3.000000000000000000 ) ) ;
#485 = DIRECTION ( 'NONE',  ( -0.000000000000000000, -0.000000000000000000, -1.000000000000000000 ) ) ;
#486 = FACE_BOUND ( 'NONE', #36, .T. ) ;
#487 = ADVANCED_FACE ( 'NONE', ( #596 ), #660, .F. ) ;
#488 = CARTESIAN_POINT ( 'NONE',  ( 2.499999999999999556, 16.00000000000000000, 1.000000000000000000 ) ) ;
#489 = CARTESIAN_POINT ( 'NONE',  ( 13.00000000000000000, 0.000000000000000000, 0.000000000000000000 ) ) ;
#490 = ORIENTED_EDGE ( 'NONE', *, *, #593, .F. ) ;
#491 =( LENGTH_UNIT ( ) NAMED_UNIT ( * ) SI_UNIT ( .MILLI., .METRE. ) );
#492 = VECTOR ( 'NONE', #632, 1000.000000000000000 ) ;
#493 = EDGE_CURVE ( 'NONE', #707, #861, #657, .T. ) ;
#494 = CIRCLE ( 'NONE', #137, 1.000000000000002665 ) ;
#495 = STYLED_ITEM ( 'NONE', ( #809 ), #587 ) ;
#496 = AXIS2_PLACEMENT_3D ( 'NONE', #432, #206, #142 ) ;
#497 =( NAMED_UNIT ( * ) SI_UNIT ( $, .STERADIAN. ) SOLID_ANGLE_UNIT ( ) );
#498 = FACE_OUTER_BOUND ( 'NONE', #791, .T. ) ;
#499 = DIRECTION ( 'NONE',  ( 1.000000000000000000, 0.000000000000000000, 0.000000000000000000 ) ) ;
#500 = FILL_AREA_STYLE ('',( #208 ) ) ;
#501 = EDGE_LOOP ( 'NONE', ( #360, #6 ) ) ;
#502 = CARTESIAN_POINT ( 'NONE',  ( 9.500000000000000000, 16.00000000000000000, 1.000000000000000000 ) ) ;
#503 = PLANE ( 'NONE',  #852 ) ;
#504 = DIRECTION ( 'NONE',  ( 0.000000000000000000, 0.000000000000000000, 1.000000000000000000 ) ) ;
#505 = ORIENTED_EDGE ( 'NONE', *, *, #261, .T. ) ;
#506 = LINE ( 'NONE', #231, #571 ) ;
#507 = CIRCLE ( 'NONE', #867, 1.000000000000002665 ) ;
#508 = CIRCLE ( 'NONE', #7, 1.000000000000000888 ) ;
#509 = DIRECTION ( 'NONE',  ( 0.000000000000000000, -0.000000000000000000, -1.000000000000000000 ) ) ;
#510 = AXIS2_PLACEMENT_3D ( 'NONE', #474, #752, #686 ) ;
#511 = CARTESIAN_POINT ( 'NONE',  ( 10.50000000000000178, 4.000000000000000888, 6.000000000000000000 ) ) ;
#512 = ORIENTED_EDGE ( 'NONE', *, *, #379, .T. ) ;
#513 = PRODUCT_DEFINITION_CONTEXT ( 'detailed design', #597, 'design' ) ;
#514 = CARTESIAN_POINT ( 'NONE',  ( 10.50000000000000178, 16.00000000000000000, 1.000000000000000000 ) ) ;
#515 = VERTEX_POINT ( 'NONE', #162 ) ;
#516 = EDGE_CURVE ( 'NONE', #166, #426, #28, .T. ) ;
#517 = FILL_AREA_STYLE ('',( #237 ) ) ;
#518 = DIRECTION ( 'NONE',  ( 0.000000000000000000, 0.000000000000000000, 1.000000000000000000 ) ) ;
#519 = EDGE_CURVE ( 'NONE', #532, #546, #738, .T. ) ;
#520 = ORIENTED_EDGE ( 'NONE', *, *, #805, .T. ) ;
#521 = SURFACE_STYLE_USAGE ( .BOTH. , #533 ) ;
#522 = MECHANICAL_DESIGN_GEOMETRIC_PRESENTATION_REPRESENTATION (  '', ( #476 ), #150 ) ;
#523 = FILL_AREA_STYLE_COLOUR ( '', #41 ) ;
#524 = CARTESIAN_POINT ( 'NONE',  ( 13.00000000000000000, 0.000000000000000000, 6.000000000000000000 ) ) ;
#525 = PRESENTATION_LAYER_ASSIGNMENT (  '', '', ( #388 ) ) ;
#526 = ORIENTED_EDGE ( 'NONE', *, *, #383, .F. ) ;
#527 =( GEOMETRIC_REPRESENTATION_CONTEXT ( 3 ) GLOBAL_UNCERTAINTY_ASSIGNED_CONTEXT ( ( #192 ) ) GLOBAL_UNIT_ASSIGNED_CONTEXT ( ( #750, #567, #497 ) ) REPRESENTATION_CONTEXT ( 'NONE', 'WORKASPACE' ) );
#528 = VECTOR ( 'NONE', #74, 1000.000000000000000 ) ;
#529 = PRESENTATION_STYLE_ASSIGNMENT (( #859 ) ) ;
#530 = EDGE_CURVE ( 'NONE', #174, #264, #667, .T. ) ;
#531 = MANIFOLD_SOLID_BREP ( 'Cut-Extrude2', #866 ) ;
#532 = VERTEX_POINT ( 'NONE', #400 ) ;
#533 = SURFACE_SIDE_STYLE ('',( #734 ) ) ;
#534 = UNCERTAINTY_MEASURE_WITH_UNIT (LENGTH_MEASURE( 1.000000000000000082E-05 ), #3, 'distance_accuracy_value', 'NONE');
#535 = FILL_AREA_STYLE_COLOUR ( '', #423 ) ;
#536 = ORIENTED_EDGE ( 'NONE', *, *, #796, .T. ) ;
#537 = SURFACE_STYLE_USAGE ( .BOTH. , #339 ) ;
#538 = CARTESIAN_POINT ( 'NONE',  ( 0.000000000000000000, 20.00000000000000000, 6.000000000000000000 ) ) ;
#539 = DIRECTION ( 'NONE',  ( 1.000000000000000000, 0.000000000000000000, -0.000000000000000000 ) ) ;
#540 = STYLED_ITEM ( 'NONE', ( #449 ), #324 ) ;
#541 = EDGE_LOOP ( 'NONE', ( #642, #536, #753, #204 ) ) ;
#542 = PRESENTATION_LAYER_ASSIGNMENT (  '', '', ( #50 ) ) ;
#543 = DIRECTION ( 'NONE',  ( -0.000000000000000000, -0.000000000000000000, 1.000000000000000000 ) ) ;
#544 = AXIS2_PLACEMENT_3D ( 'NONE', #832, #73, #763 ) ;
#545 = SURFACE_SIDE_STYLE ('',( #263 ) ) ;
#546 = VERTEX_POINT ( 'NONE', #893 ) ;
#547 = EDGE_CURVE ( 'NONE', #891, #861, #746, .T. ) ;
#548 = PRODUCT_CONTEXT ( 'NONE', #551, 'mechanical' ) ;
#549 = EDGE_CURVE ( 'NONE', #891, #606, #45, .T. ) ;
#550 = ORIENTED_EDGE ( 'NONE', *, *, #428, .F. ) ;
#551 = APPLICATION_CONTEXT ( 'automotive_design' ) ;
#552 = DIRECTION ( 'NONE',  ( -0.000000000000000000, -1.000000000000000000, -0.000000000000000000 ) ) ;
#553 = UNCERTAINTY_MEASURE_WITH_UNIT (LENGTH_MEASURE( 1.000000000000000082E-05 ), #412, 'distance_accuracy_value', 'NONE');
#554 = DIRECTION ( 'NONE',  ( -1.000000000000000000, 0.000000000000000000, -0.000000000000000000 ) ) ;
#555 = LINE ( 'NONE', #831, #766 ) ;
#556 = MECHANICAL_DESIGN_GEOMETRIC_PRESENTATION_REPRESENTATION (  '', ( #39 ), #797 ) ;
#557 = AXIS2_PLACEMENT_3D ( 'NONE', #878, #251, #49 ) ;
#558 = VECTOR ( 'NONE', #844, 1000.000000000000000 ) ;
#559 = APPLICATION_PROTOCOL_DEFINITION ( 'draft international standard', 'automotive_design', 1998, #551 ) ;
#560 = AXIS2_PLACEMENT_3D ( 'NONE', #214, #368, #499 ) ;
#561 = SURFACE_SIDE_STYLE ('',( #410 ) ) ;
#562 = FACE_OUTER_BOUND ( 'NONE', #32, .T. ) ;
#563 = PRODUCT_DEFINITION ( 'General', '', #156, #513 ) ;
#564 = CARTESIAN_POINT ( 'NONE',  ( 1.499999999999999112, 16.00000000000000000, 1.000000000000000000 ) ) ;
#565 = ADVANCED_FACE ( 'NONE', ( #118 ), #760, .F. ) ;
#566 = ORIENTED_EDGE ( 'NONE', *, *, #186, .F. ) ;
#567 =( NAMED_UNIT ( * ) PLANE_ANGLE_UNIT ( ) SI_UNIT ( $, .RADIAN. ) );
#568 = DIRECTION ( 'NONE',  ( 0.000000000000000000, 1.000000000000000000, 0.000000000000000000 ) ) ;
#569 = DIRECTION ( 'NONE',  ( 0.000000000000000000, 0.000000000000000000, 1.000000000000000000 ) ) ;
#570 = COLOUR_RGB ( '',0.007843137254901960675, 0.2392156862745097867, 0.8235294117647058432 ) ;
#571 = VECTOR ( 'NONE', #213, 1000.000000000000000 ) ;
#572 = COLOUR_RGB ( '',0.007843137254901960675, 0.2392156862745097867, 0.8235294117647058432 ) ;
#573 =( LENGTH_UNIT ( ) NAMED_UNIT ( * ) SI_UNIT ( .MILLI., .METRE. ) );
#574 = CARTESIAN_POINT ( 'NONE',  ( 13.00000000000000000, 0.000000000000000000, 6.000000000000000000 ) ) ;
#575 = ORIENTED_EDGE ( 'NONE', *, *, #222, .T. ) ;
#576 = CARTESIAN_POINT ( 'NONE',  ( 6.500000000000000000, 15.00000000000000000, 1.999999999999998224 ) ) ;
#577 = LINE ( 'NONE', #696, #377 ) ;
#578 = FILL_AREA_STYLE ('',( #287 ) ) ;
#579 = LINE ( 'NONE', #301, #582 ) ;
#580 = ORIENTED_EDGE ( 'NONE', *, *, #60, .F. ) ;
#581 = SURFACE_SIDE_STYLE ('',( #129 ) ) ;
#582 = VECTOR ( 'NONE', #365, 1000.000000000000000 ) ;
#583 = SURFACE_STYLE_FILL_AREA ( #293 ) ;
#584 =( GEOMETRIC_REPRESENTATION_CONTEXT ( 3 ) GLOBAL_UNCERTAINTY_ASSIGNED_CONTEXT ( ( #34 ) ) GLOBAL_UNIT_ASSIGNED_CONTEXT ( ( #573, #701, #841 ) ) REPRESENTATION_CONTEXT ( 'NONE', 'WORKASPACE' ) );
#585 = ORIENTED_EDGE ( 'NONE', *, *, #530, .F. ) ;
#586 = DIRECTION ( 'NONE',  ( 0.000000000000000000, -0.000000000000000000, 1.000000000000000000 ) ) ;
#587 = ADVANCED_FACE ( 'NONE', ( #335 ), #623, .T. ) ;
#588 = CYLINDRICAL_SURFACE ( 'NONE', #171, 1.000000000000002665 ) ;
#589 = SURFACE_STYLE_FILL_AREA ( #235 ) ;
#590 = ORIENTED_EDGE ( 'NONE', *, *, #516, .F. ) ;
#591 = EDGE_CURVE ( 'NONE', #87, #722, #70, .T. ) ;
#592 = DIRECTION ( 'NONE',  ( 0.000000000000000000, 1.000000000000000000, 0.000000000000000000 ) ) ;
#593 = EDGE_CURVE ( 'NONE', #463, #795, #361, .T. ) ;
#594 = FILL_AREA_STYLE_COLOUR ( '', #837 ) ;
#595 = ORIENTED_EDGE ( 'NONE', *, *, #24, .F. ) ;
#596 = FACE_OUTER_BOUND ( 'NONE', #101, .T. ) ;
#597 = APPLICATION_CONTEXT ( 'automotive_design' ) ;
#598 = DIRECTION ( 'NONE',  ( 1.000000000000000000, 0.000000000000000000, 0.000000000000000000 ) ) ;
#599 = COLOUR_RGB ( '',0.007843137254901960675, 0.2392156862745097867, 0.8235294117647058432 ) ;
#600 = ORIENTED_EDGE ( 'NONE', *, *, #119, .F. ) ;
#601 =( LENGTH_UNIT ( ) NAMED_UNIT ( * ) SI_UNIT ( .MILLI., .METRE. ) );
#602 = DIRECTION ( 'NONE',  ( 0.000000000000000000, 0.000000000000000000, 1.000000000000000000 ) ) ;
#603 = CARTESIAN_POINT ( 'NONE',  ( 3.500000000000000444, 4.000000000000000888, 1.000000000000000000 ) ) ;
#604 = CARTESIAN_POINT ( 'NONE',  ( 6.500000000000000000, 20.00000000000000000, 4.000000000000001776 ) ) ;
#605 = UNCERTAINTY_MEASURE_WITH_UNIT (LENGTH_MEASURE( 1.000000000000000082E-05 ), #121, 'distance_accuracy_value', 'NONE');
#606 = VERTEX_POINT ( 'NONE', #699 ) ;
#607 = DIRECTION ( 'NONE',  ( -0.000000000000000000, -0.000000000000000000, -1.000000000000000000 ) ) ;
#608 =( LENGTH_UNIT ( ) NAMED_UNIT ( * ) SI_UNIT ( .MILLI., .METRE. ) );
#609 = EDGE_CURVE ( 'NONE', #87, #166, #756, .T. ) ;
#610 =( GEOMETRIC_REPRESENTATION_CONTEXT ( 3 ) GLOBAL_UNCERTAINTY_ASSIGNED_CONTEXT ( ( #802 ) ) GLOBAL_UNIT_ASSIGNED_CONTEXT ( ( #676, #469, #821 ) ) REPRESENTATION_CONTEXT ( 'NONE', 'WORKASPACE' ) );
#611 = ORIENTED_EDGE ( 'NONE', *, *, #773, .F. ) ;
#612 = CIRCLE ( 'NONE', #311, 1.000000000000001776 ) ;
#613 = CARTESIAN_POINT ( 'NONE',  ( 0.000000000000000000, 0.000000000000000000, 6.000000000000000000 ) ) ;
#614 = AXIS2_PLACEMENT_3D ( 'NONE', #488, #846, #225 ) ;
#615 = EDGE_CURVE ( 'NONE', #606, #236, #774, .T. ) ;
#616 = SHAPE_DEFINITION_REPRESENTATION ( #260, #480 ) ;
#617 = FACE_BOUND ( 'NONE', #501, .T. ) ;
#618 = PRESENTATION_STYLE_ASSIGNMENT (( #267 ) ) ;
#619 = EDGE_LOOP ( 'NONE', ( #692, #886, #520, #246 ) ) ;
#620 = CARTESIAN_POINT ( 'NONE',  ( 0.000000000000000000, 0.000000000000000000, 0.000000000000000000 ) ) ;
#621 = FILL_AREA_STYLE_COLOUR ( '', #94 ) ;
#622 = DIRECTION ( 'NONE',  ( 1.000000000000000000, 0.000000000000000000, 0.000000000000000000 ) ) ;
#623 = PLANE ( 'NONE',  #544 ) ;
#624 = DIRECTION ( 'NONE',  ( 1.000000000000000000, 0.000000000000000000, 0.000000000000000000 ) ) ;
#625 = DIRECTION ( 'NONE',  ( -0.000000000000000000, -0.000000000000000000, 1.000000000000000000 ) ) ;
#626 = CIRCLE ( 'NONE', #165, 1.000000000000000888 ) ;
#627 = DIRECTION ( 'NONE',  ( -0.000000000000000000, 1.000000000000000000, -0.000000000000000000 ) ) ;
#628 = STYLED_ITEM ( 'NONE', ( #751 ), #448 ) ;
#629 = MECHANICAL_DESIGN_GEOMETRIC_PRESENTATION_REPRESENTATION (  '', ( #408 ), #695 ) ;
#630 = STYLED_ITEM ( 'NONE', ( #807 ), #864 ) ;
#631 = FILL_AREA_STYLE_COLOUR ( '', #296 ) ;
#632 = DIRECTION ( 'NONE',  ( -0.000000000000000000, -0.000000000000000000, 1.000000000000000000 ) ) ;
#633 = EDGE_LOOP ( 'NONE', ( #439, #857 ) ) ;
#634 = EDGE_CURVE ( 'NONE', #515, #891, #420, .T. ) ;
#635 = ORIENTED_EDGE ( 'NONE', *, *, #281, .F. ) ;
#636 = AXIS2_PLACEMENT_3D ( 'NONE', #67, #72, #833 ) ;
#637 = CARTESIAN_POINT ( 'NONE',  ( 11.50000000000000533, 16.00000000000000000, 6.000000000000000000 ) ) ;
#638 = MECHANICAL_DESIGN_GEOMETRIC_PRESENTATION_REPRESENTATION (  '', ( #666 ), #868 ) ;
#639 = EDGE_CURVE ( 'NONE', #606, #443, #433, .T. ) ;
#640 = PRESENTATION_STYLE_ASSIGNMENT (( #357 ) ) ;
#641 = AXIS2_PLACEMENT_3D ( 'NONE', #706, #289, #18 ) ;
#642 = ORIENTED_EDGE ( 'NONE', *, *, #459, .F. ) ;
#643 = DIRECTION ( 'NONE',  ( 1.000000000000000000, 0.000000000000000000, 0.000000000000000000 ) ) ;
#644 = DIRECTION ( 'NONE',  ( 0.000000000000000000, 0.000000000000000000, -1.000000000000000000 ) ) ;
#645 = DIRECTION ( 'NONE',  ( 0.000000000000000000, 0.000000000000000000, 1.000000000000000000 ) ) ;
#646 = ORIENTED_EDGE ( 'NONE', *, *, #634, .T. ) ;
#647 = DIRECTION ( 'NONE',  ( 0.000000000000000000, 0.000000000000000000, 1.000000000000000000 ) ) ;
#648 = VERTEX_POINT ( 'NONE', #576 ) ;
#649 =( NAMED_UNIT ( * ) SI_UNIT ( $, .STERADIAN. ) SOLID_ANGLE_UNIT ( ) );
#650 = MECHANICAL_DESIGN_GEOMETRIC_PRESENTATION_REPRESENTATION (  '', ( #540 ), #610 ) ;
#651 = PRESENTATION_LAYER_ASSIGNMENT (  '', '', ( #169 ) ) ;
#652 =( NAMED_UNIT ( * ) SI_UNIT ( $, .STERADIAN. ) SOLID_ANGLE_UNIT ( ) );
#653 = STYLED_ITEM ( 'NONE', ( #325 ), #700 ) ;
#654 = FACE_OUTER_BOUND ( 'NONE', #299, .T. ) ;
#655 = AXIS2_PLACEMENT_3D ( 'NONE', #661, #731, #393 ) ;
#656 = ORIENTED_EDGE ( 'NONE', *, *, #591, .T. ) ;
#657 = LINE ( 'NONE', #241, #450 ) ;
#658 = UNCERTAINTY_MEASURE_WITH_UNIT (LENGTH_MEASURE( 1.000000000000000082E-05 ), #172, 'distance_accuracy_value', 'NONE');
#659 = ORIENTED_EDGE ( 'NONE', *, *, #98, .T. ) ;
#660 = PLANE ( 'NONE',  #182 ) ;
#661 = CARTESIAN_POINT ( 'NONE',  ( 2.499999999999999556, 16.00000000000000000, 1.000000000000000000 ) ) ;
#662 = FACE_BOUND ( 'NONE', #381, .T. ) ;
#663 = VERTEX_POINT ( 'NONE', #12 ) ;
#664 = CARTESIAN_POINT ( 'NONE',  ( 11.50000000000000533, 16.00000000000000000, 1.000000000000000000 ) ) ;
#665 = CARTESIAN_POINT ( 'NONE',  ( 10.50000000000000178, 16.00000000000000000, 1.000000000000000000 ) ) ;
#666 = STYLED_ITEM ( 'NONE', ( #122 ), #531 ) ;
#667 = CIRCLE ( 'NONE', #341, 1.000000000000000444 ) ;
#668 = VERTEX_POINT ( 'NONE', #346 ) ;
#669 = VECTOR ( 'NONE', #693, 1000.000000000000000 ) ;
#670 =( GEOMETRIC_REPRESENTATION_CONTEXT ( 3 ) GLOBAL_UNCERTAINTY_ASSIGNED_CONTEXT ( ( #312 ) ) GLOBAL_UNIT_ASSIGNED_CONTEXT ( ( #58, #198, #322 ) ) REPRESENTATION_CONTEXT ( 'NONE', 'WORKASPACE' ) );
#671 = PRESENTATION_STYLE_ASSIGNMENT (( #875 ) ) ;
#672 = SURFACE_STYLE_FILL_AREA ( #798 ) ;
#673 =( NAMED_UNIT ( * ) SI_UNIT ( $, .STERADIAN. ) SOLID_ANGLE_UNIT ( ) );
#674 = DIRECTION ( 'NONE',  ( 0.000000000000000000, 0.000000000000000000, 1.000000000000000000 ) ) ;
#675 = DIRECTION ( 'NONE',  ( 0.000000000000000000, 0.000000000000000000, 1.000000000000000000 ) ) ;
#676 =( LENGTH_UNIT ( ) NAMED_UNIT ( * ) SI_UNIT ( .MILLI., .METRE. ) );
#677 = VERTEX_POINT ( 'NONE', #1 ) ;
#678 = ADVANCED_FACE ( 'NONE', ( #77 ), #218, .F. ) ;
#679 = ADVANCED_FACE ( 'NONE', ( #885 ), #343, .F. ) ;
#680 = CARTESIAN_POINT ( 'NONE',  ( 10.50000000000000178, 16.00000000000000000, 6.000000000000000000 ) ) ;
#681 = STYLED_ITEM ( 'NONE', ( #384 ), #350 ) ;
#682 = COLOUR_RGB ( '',0.007843137254901960675, 0.2392156862745097867, 0.8235294117647058432 ) ;
#683 = PRESENTATION_LAYER_ASSIGNMENT (  '', '', ( #170 ) ) ;
#684 = CIRCLE ( 'NONE', #641, 0.9999999999999991118 ) ;
#685 =( LENGTH_UNIT ( ) NAMED_UNIT ( * ) SI_UNIT ( .MILLI., .METRE. ) );
#686 = DIRECTION ( 'NONE',  ( 0.000000000000000000, 0.000000000000000000, -1.000000000000000000 ) ) ;
#687 = SURFACE_STYLE_USAGE ( .BOTH. , #414 ) ;
#688 = SURFACE_SIDE_STYLE ('',( #200 ) ) ;
#689 = FILL_AREA_STYLE_COLOUR ( '', #572 ) ;
#690 = CIRCLE ( 'NONE', #373, 1.000000000000001776 ) ;
#691 = VECTOR ( 'NONE', #787, 1000.000000000000000 ) ;
#692 = ORIENTED_EDGE ( 'NONE', *, *, #261, .F. ) ;
#693 = DIRECTION ( 'NONE',  ( -0.000000000000000000, -0.000000000000000000, -1.000000000000000000 ) ) ;
#694 = VECTOR ( 'NONE', #38, 1000.000000000000000 ) ;
#695 =( GEOMETRIC_REPRESENTATION_CONTEXT ( 3 ) GLOBAL_UNCERTAINTY_ASSIGNED_CONTEXT ( ( #466 ) ) GLOBAL_UNIT_ASSIGNED_CONTEXT ( ( #491, #768, #149 ) ) REPRESENTATION_CONTEXT ( 'NONE', 'WORKASPACE' ) );
#696 = CARTESIAN_POINT ( 'NONE',  ( 6.500000000000000000, 15.00000000000000000, 1.999999999999998224 ) ) ;
#697 = CARTESIAN_POINT ( 'NONE',  ( 2.499999999999999556, 16.00000000000000000, 1.000000000000000000 ) ) ;
#698 = EDGE_LOOP ( 'NONE', ( #375, #92 ) ) ;
#699 = CARTESIAN_POINT ( 'NONE',  ( 0.000000000000000000, 0.000000000000000000, 6.000000000000000000 ) ) ;
#700 = ADVANCED_FACE ( 'NONE', ( #818 ), #748, .T. ) ;
#701 =( NAMED_UNIT ( * ) PLANE_ANGLE_UNIT ( ) SI_UNIT ( $, .RADIAN. ) );
#702 = PRESENTATION_STYLE_ASSIGNMENT (( #429 ) ) ;
#703 = CARTESIAN_POINT ( 'NONE',  ( 0.000000000000000000, 0.000000000000000000, 6.000000000000000000 ) ) ;
#704 = EDGE_CURVE ( 'NONE', #718, #648, #342, .T. ) ;
#705 = DIRECTION ( 'NONE',  ( 0.000000000000000000, 0.000000000000000000, 1.000000000000000000 ) ) ;
#706 = CARTESIAN_POINT ( 'NONE',  ( 2.500000000000001332, 4.000000000000000888, 6.000000000000000000 ) ) ;
#707 = VERTEX_POINT ( 'NONE', #337 ) ;
#708 = FILL_AREA_STYLE ('',( #278 ) ) ;
#709 = AXIS2_PLACEMENT_3D ( 'NONE', #804, #315, #107 ) ;
#710 = CARTESIAN_POINT ( 'NONE',  ( 0.000000000000000000, 0.000000000000000000, 6.000000000000000000 ) ) ;
#711 = PRESENTATION_LAYER_ASSIGNMENT (  '', '', ( #39 ) ) ;
#712 = DIRECTION ( 'NONE',  ( 0.000000000000000000, -1.000000000000000000, 0.000000000000000000 ) ) ;
#713 = STYLED_ITEM ( 'NONE', ( #529 ), #889 ) ;
#714 = PRESENTATION_STYLE_ASSIGNMENT (( #437 ) ) ;
#715 = EDGE_LOOP ( 'NONE', ( #366, #505 ) ) ;
#716 = PRESENTATION_STYLE_ASSIGNMENT (( #687 ) ) ;
#717 =( NAMED_UNIT ( * ) PLANE_ANGLE_UNIT ( ) SI_UNIT ( $, .RADIAN. ) );
#718 = VERTEX_POINT ( 'NONE', #901 ) ;
#719 = UNCERTAINTY_MEASURE_WITH_UNIT (LENGTH_MEASURE( 1.000000000000000082E-05 ), #168, 'distance_accuracy_value', 'NONE');
#720 = PRESENTATION_STYLE_ASSIGNMENT (( #856 ) ) ;
#721 = DIRECTION ( 'NONE',  ( 0.000000000000000000, 0.000000000000000000, 1.000000000000000000 ) ) ;
#722 = VERTEX_POINT ( 'NONE', #404 ) ;
#723 = DIRECTION ( 'NONE',  ( 0.000000000000000000, 0.000000000000000000, 1.000000000000000000 ) ) ;
#724 = COLOUR_RGB ( '',0.007843137254901960675, 0.2392156862745097867, 0.8235294117647058432 ) ;
#725 = COLOUR_RGB ( '',0.007843137254901960675, 0.2392156862745097867, 0.8235294117647058432 ) ;
#726 = STYLED_ITEM ( 'NONE', ( #618 ), #679 ) ;
#727 = CARTESIAN_POINT ( 'NONE',  ( 2.500000000000001332, 4.000000000000000888, 1.000000000000000000 ) ) ;
#728 = PRESENTATION_LAYER_ASSIGNMENT (  '', '', ( #713 ) ) ;
#729 = ORIENTED_EDGE ( 'NONE', *, *, #615, .F. ) ;
#730 = EDGE_CURVE ( 'NONE', #722, #426, #854, .T. ) ;
#731 = DIRECTION ( 'NONE',  ( 0.000000000000000000, 0.000000000000000000, 1.000000000000000000 ) ) ;
#732 = FACE_OUTER_BOUND ( 'NONE', #318, .T. ) ;
#733 = ORIENTED_EDGE ( 'NONE', *, *, #425, .T. ) ;
#734 = SURFACE_STYLE_FILL_AREA ( #517 ) ;
#735 = ADVANCED_FACE ( 'NONE', ( #486, #761 ), #419, .F. ) ;
#736 =( NAMED_UNIT ( * ) SI_UNIT ( $, .STERADIAN. ) SOLID_ANGLE_UNIT ( ) );
#737 = ORIENTED_EDGE ( 'NONE', *, *, #147, .F. ) ;
#738 = LINE ( 'NONE', #310, #754 ) ;
#739 = FILL_AREA_STYLE ('',( #461 ) ) ;
#740 = PRESENTATION_LAYER_ASSIGNMENT (  '', '', ( #408 ) ) ;
#741 = ORIENTED_EDGE ( 'NONE', *, *, #386, .T. ) ;
#742 =( GEOMETRIC_REPRESENTATION_CONTEXT ( 3 ) GLOBAL_UNCERTAINTY_ASSIGNED_CONTEXT ( ( #402 ) ) GLOBAL_UNIT_ASSIGNED_CONTEXT ( ( #793, #99, #736 ) ) REPRESENTATION_CONTEXT ( 'NONE', 'WORKASPACE' ) );
#743 = CARTESIAN_POINT ( 'NONE',  ( 0.000000000000000000, 20.00000000000000000, 6.000000000000000000 ) ) ;
#744 =( NAMED_UNIT ( * ) PLANE_ANGLE_UNIT ( ) SI_UNIT ( $, .RADIAN. ) );
#745 = VERTEX_POINT ( 'NONE', #71 ) ;
#746 = LINE ( 'NONE', #743, #374 ) ;
#747 = UNCERTAINTY_MEASURE_WITH_UNIT (LENGTH_MEASURE( 1.000000000000000082E-05 ), #128, 'distance_accuracy_value', 'NONE');
#748 = PLANE ( 'NONE',  #243 ) ;
#749 = SURFACE_STYLE_FILL_AREA ( #874 ) ;
#750 =( LENGTH_UNIT ( ) NAMED_UNIT ( * ) SI_UNIT ( .MILLI., .METRE. ) );
#751 = PRESENTATION_STYLE_ASSIGNMENT (( #895 ) ) ;
#752 = DIRECTION ( 'NONE',  ( 1.000000000000000000, 0.000000000000000000, 0.000000000000000000 ) ) ;
#753 = ORIENTED_EDGE ( 'NONE', *, *, #281, .T. ) ;
#754 = VECTOR ( 'NONE', #543, 1000.000000000000000 ) ;
#755 = PRESENTATION_STYLE_ASSIGNMENT (( #820 ) ) ;
#756 = CIRCLE ( 'NONE', #126, 1.000000000000002665 ) ;
#757 = COLOUR_RGB ( '',0.007843137254901960675, 0.2392156862745097867, 0.8235294117647058432 ) ;
#758 = FILL_AREA_STYLE_COLOUR ( '', #209 ) ;
#759 = EDGE_LOOP ( 'NONE', ( #370, #20, #233, #285 ) ) ;
#760 = CYLINDRICAL_SURFACE ( 'NONE', #96, 1.000000000000001776 ) ;
#761 = FACE_OUTER_BOUND ( 'NONE', #865, .T. ) ;
#762 = LINE ( 'NONE', #564, #492 ) ;
#763 = DIRECTION ( 'NONE',  ( 1.000000000000000000, 0.000000000000000000, -0.000000000000000000 ) ) ;
#764 = FILL_AREA_STYLE ('',( #364 ) ) ;
#765 = SURFACE_SIDE_STYLE ('',( #772 ) ) ;
#766 = VECTOR ( 'NONE', #349, 1000.000000000000000 ) ;
#767 = VERTEX_POINT ( 'NONE', #441 ) ;
#768 =( NAMED_UNIT ( * ) PLANE_ANGLE_UNIT ( ) SI_UNIT ( $, .RADIAN. ) );
#769 = AXIS2_PLACEMENT_3D ( 'NONE', #456, #391, #586 ) ;
#770 = EDGE_CURVE ( 'NONE', #663, #385, #870, .T. ) ;
#771 =( GEOMETRIC_REPRESENTATION_CONTEXT ( 3 ) GLOBAL_UNCERTAINTY_ASSIGNED_CONTEXT ( ( #372 ) ) GLOBAL_UNIT_ASSIGNED_CONTEXT ( ( #825, #896, #470 ) ) REPRESENTATION_CONTEXT ( 'NONE', 'WORKASPACE' ) );
#772 = SURFACE_STYLE_FILL_AREA ( #500 ) ;
#773 = EDGE_CURVE ( 'NONE', #443, #767, #14, .T. ) ;
#774 = LINE ( 'NONE', #145, #273 ) ;
#775 = CARTESIAN_POINT ( 'NONE',  ( 6.500000000000000000, 20.00000000000000000, 1.999999999999998224 ) ) ;
#776 = DIRECTION ( 'NONE',  ( 0.000000000000000000, 1.000000000000000000, 0.000000000000000000 ) ) ;
#777 = ORIENTED_EDGE ( 'NONE', *, *, #147, .T. ) ;
#778 = EDGE_CURVE ( 'NONE', #42, #463, #815, .T. ) ;
#779 = FACE_OUTER_BOUND ( 'NONE', #295, .T. ) ;
#780 = CYLINDRICAL_SURFACE ( 'NONE', #21, 1.000000000000002665 ) ;
#781 = COLOUR_RGB ( '',0.007843137254901960675, 0.2392156862745097867, 0.8235294117647058432 ) ;
#782 = ORIENTED_EDGE ( 'NONE', *, *, #770, .T. ) ;
#783 = FILL_AREA_STYLE ('',( #621 ) ) ;
#784 = AXIS2_PLACEMENT_3D ( 'NONE', #336, #266, #13 ) ;
#785 =( LENGTH_UNIT ( ) NAMED_UNIT ( * ) SI_UNIT ( .MILLI., .METRE. ) );
#786 = MECHANICAL_DESIGN_GEOMETRIC_PRESENTATION_REPRESENTATION (  '', ( #630 ), #855 ) ;
#787 = DIRECTION ( 'NONE',  ( -0.000000000000000000, -1.000000000000000000, -0.000000000000000000 ) ) ;
#788 = VERTEX_POINT ( 'NONE', #775 ) ;
#789 = SURFACE_STYLE_USAGE ( .BOTH. , #380 ) ;
#790 = DIRECTION ( 'NONE',  ( -0.000000000000000000, -0.000000000000000000, 1.000000000000000000 ) ) ;
#791 = EDGE_LOOP ( 'NONE', ( #353, #239 ) ) ;
#792 = PRESENTATION_STYLE_ASSIGNMENT (( #521 ) ) ;
#793 =( LENGTH_UNIT ( ) NAMED_UNIT ( * ) SI_UNIT ( .MILLI., .METRE. ) );
#794 = SURFACE_SIDE_STYLE ('',( #589 ) ) ;
#795 = VERTEX_POINT ( 'NONE', #148 ) ;
#796 = EDGE_CURVE ( 'NONE', #648, #788, #577, .T. ) ;
#797 =( GEOMETRIC_REPRESENTATION_CONTEXT ( 3 ) GLOBAL_UNCERTAINTY_ASSIGNED_CONTEXT ( ( #894 ) ) GLOBAL_UNIT_ASSIGNED_CONTEXT ( ( #685, #88, #363 ) ) REPRESENTATION_CONTEXT ( 'NONE', 'WORKASPACE' ) );
#798 = FILL_AREA_STYLE ('',( #523 ) ) ;
#799 = AXIS2_PLACEMENT_3D ( 'NONE', #403, #898, #675 ) ;
#800 = ORIENTED_EDGE ( 'NONE', *, *, #303, .T. ) ;
#801 = DIRECTION ( 'NONE',  ( 0.000000000000000000, 1.000000000000000000, 0.000000000000000000 ) ) ;
#802 = UNCERTAINTY_MEASURE_WITH_UNIT (LENGTH_MEASURE( 1.000000000000000082E-05 ), #676, 'distance_accuracy_value', 'NONE');
#803 = FACE_OUTER_BOUND ( 'NONE', #308, .T. ) ;
#804 = CARTESIAN_POINT ( 'NONE',  ( 2.500000000000001332, 4.000000000000000888, 6.000000000000000000 ) ) ;
#805 = EDGE_CURVE ( 'NONE', #795, #745, #684, .T. ) ;
#806 = CARTESIAN_POINT ( 'NONE',  ( 10.50000000000000178, 4.000000000000000888, 1.000000000000000000 ) ) ;
#807 = PRESENTATION_STYLE_ASSIGNMENT (( #789 ) ) ;
#808 = SURFACE_STYLE_USAGE ( .BOTH. , #873 ) ;
#809 = PRESENTATION_STYLE_ASSIGNMENT (( #537 ) ) ;
#810 = UNCERTAINTY_MEASURE_WITH_UNIT (LENGTH_MEASURE( 1.000000000000000082E-05 ), #146, 'distance_accuracy_value', 'NONE');
#811 = MECHANICAL_DESIGN_GEOMETRIC_PRESENTATION_REPRESENTATION (  '', ( #240 ), #93 ) ;
#812 = STYLED_ITEM ( 'NONE', ( #755 ), #565 ) ;
#813 = FILL_AREA_STYLE ('',( #689 ) ) ;
#814 = ORIENTED_EDGE ( 'NONE', *, *, #413, .T. ) ;
#815 = CIRCLE ( 'NONE', #496, 0.9999999999999991118 ) ;
#816 = SURFACE_SIDE_STYLE ('',( #468 ) ) ;
#817 = SURFACE_STYLE_FILL_AREA ( #106 ) ;
#818 = FACE_OUTER_BOUND ( 'NONE', #458, .T. ) ;
#819 = ORIENTED_EDGE ( 'NONE', *, *, #615, .T. ) ;
#820 = SURFACE_STYLE_USAGE ( .BOTH. , #115 ) ;
#821 =( NAMED_UNIT ( * ) SI_UNIT ( $, .STERADIAN. ) SOLID_ANGLE_UNIT ( ) );
#822 =( LENGTH_UNIT ( ) NAMED_UNIT ( * ) SI_UNIT ( .MILLI., .METRE. ) );
#823 = ORIENTED_EDGE ( 'NONE', *, *, #519, .F. ) ;
#824 = MECHANICAL_DESIGN_GEOMETRIC_PRESENTATION_REPRESENTATION (  '', ( #307 ), #882 ) ;
#825 =( LENGTH_UNIT ( ) NAMED_UNIT ( * ) SI_UNIT ( .MILLI., .METRE. ) );
#826 =( NAMED_UNIT ( * ) SI_UNIT ( $, .STERADIAN. ) SOLID_ANGLE_UNIT ( ) );
#827 = MECHANICAL_DESIGN_GEOMETRIC_PRESENTATION_REPRESENTATION (  '', ( #726 ), #271 ) ;
#828 = UNCERTAINTY_MEASURE_WITH_UNIT (LENGTH_MEASURE( 1.000000000000000082E-05 ), #274, 'distance_accuracy_value', 'NONE');
#829 = APPLICATION_PROTOCOL_DEFINITION ( 'draft international standard', 'automotive_design', 1998, #597 ) ;
#830 = DIRECTION ( 'NONE',  ( 1.000000000000000000, 0.000000000000000000, 0.000000000000000000 ) ) ;
#831 = CARTESIAN_POINT ( 'NONE',  ( 9.500000000000001776, 4.000000000000000888, 1.000000000000000000 ) ) ;
#832 = CARTESIAN_POINT ( 'NONE',  ( 2.500000000000001332, 4.000000000000000888, 1.000000000000000000 ) ) ;
#833 = DIRECTION ( 'NONE',  ( 1.000000000000000000, 0.000000000000000000, 0.000000000000000000 ) ) ;
#834 = ORIENTED_EDGE ( 'NONE', *, *, #519, .T. ) ;
#835 = SURFACE_STYLE_USAGE ( .BOTH. , #354 ) ;
#836 = FACE_OUTER_BOUND ( 'NONE', #633, .T. ) ;
#837 = COLOUR_RGB ( '',0.007843137254901960675, 0.2392156862745097867, 0.8235294117647058432 ) ;
#838 = DIRECTION ( 'NONE',  ( 1.000000000000000000, 0.000000000000000000, 0.000000000000000000 ) ) ;
#839 = MECHANICAL_DESIGN_GEOMETRIC_PRESENTATION_REPRESENTATION (  '', ( #653 ), #771 ) ;
#840 = CARTESIAN_POINT ( 'NONE',  ( 10.50000000000000178, 4.000000000000000888, 6.000000000000000000 ) ) ;
#841 =( NAMED_UNIT ( * ) SI_UNIT ( $, .STERADIAN. ) SOLID_ANGLE_UNIT ( ) );
#842 = CARTESIAN_POINT ( 'NONE',  ( 6.500000000000000000, 20.00000000000000000, 3.000000000000000000 ) ) ;
#843 = ORIENTED_EDGE ( 'NONE', *, *, #516, .T. ) ;
#844 = DIRECTION ( 'NONE',  ( -0.000000000000000000, -0.000000000000000000, 1.000000000000000000 ) ) ;
#845 = PLANE ( 'NONE',  #769 ) ;
#846 = DIRECTION ( 'NONE',  ( -0.000000000000000000, -0.000000000000000000, 1.000000000000000000 ) ) ;
#847 = DIRECTION ( 'NONE',  ( 0.000000000000000000, 0.000000000000000000, 1.000000000000000000 ) ) ;
#848 = EDGE_LOOP ( 'NONE', ( #127, #659, #575, #823 ) ) ;
#849 = CYLINDRICAL_SURFACE ( 'NONE', #614, 1.000000000000000444 ) ;
#850 = DIRECTION ( 'NONE',  ( -0.000000000000000000, -0.000000000000000000, -1.000000000000000000 ) ) ;
#851 = ORIENTED_EDGE ( 'NONE', *, *, #24, .T. ) ;
#852 = AXIS2_PLACEMENT_3D ( 'NONE', #710, #644, #554 ) ;
#853 = UNCERTAINTY_MEASURE_WITH_UNIT (LENGTH_MEASURE( 1.000000000000000082E-05 ), #369, 'distance_accuracy_value', 'NONE');
#854 = CIRCLE ( 'NONE', #869, 1.000000000000002665 ) ;
#855 =( GEOMETRIC_REPRESENTATION_CONTEXT ( 3 ) GLOBAL_UNCERTAINTY_ASSIGNED_CONTEXT ( ( #658 ) ) GLOBAL_UNIT_ASSIGNED_CONTEXT ( ( #172, #112, #30 ) ) REPRESENTATION_CONTEXT ( 'NONE', 'WORKASPACE' ) );
#856 = SURFACE_STYLE_USAGE ( .BOTH. , #25 ) ;
#857 = ORIENTED_EDGE ( 'NONE', *, *, #530, .T. ) ;
#858 = SURFACE_STYLE_FILL_AREA ( #43 ) ;
#859 = SURFACE_STYLE_USAGE ( .BOTH. , #103 ) ;
#860 = DIRECTION ( 'NONE',  ( -1.000000000000000000, 0.000000000000000000, 0.000000000000000000 ) ) ;
#861 = VERTEX_POINT ( 'NONE', #136 ) ;
#862 = ADVANCED_FACE ( 'NONE', ( #779 ), #849, .F. ) ;
#863 = DIRECTION ( 'NONE',  ( -0.000000000000000000, -0.000000000000000000, 1.000000000000000000 ) ) ;
#864 = ADVANCED_FACE ( 'NONE', ( #836 ), #157, .T. ) ;
#865 = EDGE_LOOP ( 'NONE', ( #399, #447, #114, #82 ) ) ;
#866 = CLOSED_SHELL ( 'NONE', ( #862, #876, #51, #350, #889, #679, #487, #216, #735, #352, #700, #565, #448, #347, #587, #678, #473, #320, #324, #212, #864 ) ) ;
#867 = AXIS2_PLACEMENT_3D ( 'NONE', #290, #847, #173 ) ;
#868 =( GEOMETRIC_REPRESENTATION_CONTEXT ( 3 ) GLOBAL_UNCERTAINTY_ASSIGNED_CONTEXT ( ( #747 ) ) GLOBAL_UNIT_ASSIGNED_CONTEXT ( ( #128, #180, #56 ) ) REPRESENTATION_CONTEXT ( 'NONE', 'WORKASPACE' ) );
#869 = AXIS2_PLACEMENT_3D ( 'NONE', #680, #332, #830 ) ;
#870 = CIRCLE ( 'NONE', #560, 1.000000000000000444 ) ;
#871 = PRESENTATION_STYLE_ASSIGNMENT (( #467 ) ) ;
#872 = SURFACE_SIDE_STYLE ('',( #858 ) ) ;
#873 = SURFACE_SIDE_STYLE ('',( #817 ) ) ;
#874 = FILL_AREA_STYLE ('',( #252 ) ) ;
#875 = SURFACE_STYLE_USAGE ( .BOTH. , #872 ) ;
#876 = ADVANCED_FACE ( 'NONE', ( #803 ), #588, .F. ) ;
#877 = DIRECTION ( 'NONE',  ( 1.000000000000000000, 0.000000000000000000, 0.000000000000000000 ) ) ;
#878 = CARTESIAN_POINT ( 'NONE',  ( 2.500000000000001332, 4.000000000000000888, 1.000000000000000000 ) ) ;
#879 = ORIENTED_EDGE ( 'NONE', *, *, #892, .F. ) ;
#880 = FILL_AREA_STYLE_COLOUR ( '', #392 ) ;
#881 = UNCERTAINTY_MEASURE_WITH_UNIT (LENGTH_MEASURE( 1.000000000000000082E-05 ), #608, 'distance_accuracy_value', 'NONE');
#882 =( GEOMETRIC_REPRESENTATION_CONTEXT ( 3 ) GLOBAL_UNCERTAINTY_ASSIGNED_CONTEXT ( ( #605 ) ) GLOBAL_UNIT_ASSIGNED_CONTEXT ( ( #121, #54, #826 ) ) REPRESENTATION_CONTEXT ( 'NONE', 'WORKASPACE' ) );
#883 = PRESENTATION_LAYER_ASSIGNMENT (  '', '', ( #240 ) ) ;
#884 = VECTOR ( 'NONE', #355, 1000.000000000000000 ) ;
#885 = FACE_OUTER_BOUND ( 'NONE', #759, .T. ) ;
#886 = ORIENTED_EDGE ( 'NONE', *, *, #593, .T. ) ;
#887 = MECHANICAL_DESIGN_GEOMETRIC_PRESENTATION_REPRESENTATION (  '', ( #244 ), #362 ) ;
#888 = SURFACE_STYLE_USAGE ( .BOTH. , #816 ) ;
#889 = ADVANCED_FACE ( 'NONE', ( #248 ), #245, .F. ) ;
#890 = SURFACE_STYLE_USAGE ( .BOTH. , #113 ) ;
#891 = VERTEX_POINT ( 'NONE', #538 ) ;
#892 = EDGE_CURVE ( 'NONE', #515, #707, #397, .T. ) ;
#893 = CARTESIAN_POINT ( 'NONE',  ( 11.50000000000000355, 4.000000000000000888, 6.000000000000000000 ) ) ;
#894 = UNCERTAINTY_MEASURE_WITH_UNIT (LENGTH_MEASURE( 1.000000000000000082E-05 ), #685, 'distance_accuracy_value', 'NONE');
#895 = SURFACE_STYLE_USAGE ( .BOTH. , #581 ) ;
#896 =( NAMED_UNIT ( * ) PLANE_ANGLE_UNIT ( ) SI_UNIT ( $, .RADIAN. ) );
#897 = CARTESIAN_POINT ( 'NONE',  ( 2.499999999999999556, 16.00000000000000000, 1.000000000000000000 ) ) ;
#898 = DIRECTION ( 'NONE',  ( -0.000000000000000000, 1.000000000000000000, -0.000000000000000000 ) ) ;
#899 = AXIS2_PLACEMENT_3D ( 'NONE', #697, #625, #622 ) ;
#900 =( GEOMETRIC_REPRESENTATION_CONTEXT ( 3 ) GLOBAL_UNCERTAINTY_ASSIGNED_CONTEXT ( ( #828 ) ) GLOBAL_UNIT_ASSIGNED_CONTEXT ( ( #274, #717, #160 ) ) REPRESENTATION_CONTEXT ( 'NONE', 'WORKASPACE' ) );
#901 = CARTESIAN_POINT ( 'NONE',  ( 6.500000000000000000, 15.00000000000000000, 4.000000000000001776 ) ) ;
#902 = CIRCLE ( 'NONE', #110, 1.000000000000000444 ) ;
ENDSEC;
END-ISO-10303-21;
