ISO-10303-21;
HEADER;
FILE_DESCRIPTION (( 'STEP AP214' ),
    '1' );
FILE_NAME ('Rod betweem jaw.STEP',
    '2025-10-21T18:57:06',
    ( 'Windows User' ),
    ( '' ),
    'SwSTEP 2.0',
    'SolidWorks 2023',
    '' );
FILE_SCHEMA (( 'AUTOMOTIVE_DESIGN' ));
ENDSEC;

DATA;
#1 =( LENGTH_UNIT ( ) NAMED_UNIT ( * ) SI_UNIT ( .MILLI., .METRE. ) );
#2 = ORIENTED_EDGE ( 'NONE', *, *, #233, .T. ) ;
#3 = ORIENTED_EDGE ( 'NONE', *, *, #188, .F. ) ;
#4 = CIRCLE ( 'NONE', #117, 1.250000000000000000 ) ;
#5 = ORIENTED_EDGE ( 'NONE', *, *, #224, .T. ) ;
#6 = CARTESIAN_POINT ( 'NONE',  ( 0.000000000000000000, 0.000000000000000000, 76.00000000000000000 ) ) ;
#7 = DIRECTION ( 'NONE',  ( -1.000000000000000000, 0.000000000000000000, 0.000000000000000000 ) ) ;
#8 = AXIS2_PLACEMENT_3D ( 'NONE', #42, #212, #129 ) ;
#9 = EDGE_CURVE ( 'NONE', #31, #45, #138, .T. ) ;
#10 = DIRECTION ( 'NONE',  ( 0.000000000000000000, 0.000000000000000000, 1.000000000000000000 ) ) ;
#11 = CYLINDRICAL_SURFACE ( 'NONE', #26, 1.250000000000000000 ) ;
#12 = FACE_OUTER_BOUND ( 'NONE', #113, .T. ) ;
#13 = VECTOR ( 'NONE', #202, 1000.000000000000000 ) ;
#14 = MANIFOLD_SOLID_BREP ( 'Mirror1', #244 ) ;
#15 = AXIS2_PLACEMENT_3D ( 'NONE', #87, #20, #214 ) ;
#16 = FACE_BOUND ( 'NONE', #105, .T. ) ;
#17 = ORIENTED_EDGE ( 'NONE', *, *, #224, .F. ) ;
#18 = DIRECTION ( 'NONE',  ( 1.000000000000000000, 0.000000000000000000, 0.000000000000000000 ) ) ;
#19 = ORIENTED_EDGE ( 'NONE', *, *, #176, .T. ) ;
#20 = DIRECTION ( 'NONE',  ( 0.000000000000000000, 0.000000000000000000, 1.000000000000000000 ) ) ;
#21 = CIRCLE ( 'NONE', #155, 2.500000000000000444 ) ;
#22 = DIRECTION ( 'NONE',  ( 1.000000000000000000, 0.000000000000000000, 0.000000000000000000 ) ) ;
#23 = DIRECTION ( 'NONE',  ( 0.000000000000000000, 0.000000000000000000, 1.000000000000000000 ) ) ;
#24 = ADVANCED_FACE ( 'NONE', ( #234 ), #183, .T. ) ;
#25 = SURFACE_SIDE_STYLE ('',( #218 ) ) ;
#26 = AXIS2_PLACEMENT_3D ( 'NONE', #251, #190, #275 ) ;
#27 =( GEOMETRIC_REPRESENTATION_CONTEXT ( 3 ) GLOBAL_UNCERTAINTY_ASSIGNED_CONTEXT ( ( #191 ) ) GLOBAL_UNIT_ASSIGNED_CONTEXT ( ( #196, #148, #278 ) ) REPRESENTATION_CONTEXT ( 'NONE', 'WORKASPACE' ) );
#28 = ORIENTED_EDGE ( 'NONE', *, *, #29, .F. ) ;
#29 = EDGE_CURVE ( 'NONE', #48, #45, #219, .T. ) ;
#30 = ORIENTED_EDGE ( 'NONE', *, *, #106, .F. ) ;
#31 = VERTEX_POINT ( 'NONE', #80 ) ;
#32 = FACE_BOUND ( 'NONE', #269, .T. ) ;
#33 = CARTESIAN_POINT ( 'NONE',  ( 1.250000000000000000, 1.530808498934191324E-16, 76.00000000000000000 ) ) ;
#34 = DIRECTION ( 'NONE',  ( -1.000000000000000000, 0.000000000000000000, 0.000000000000000000 ) ) ;
#35 = ADVANCED_FACE ( 'NONE', ( #61 ), #56, .T. ) ;
#36 = LINE ( 'NONE', #99, #159 ) ;
#37 = DIRECTION ( 'NONE',  ( 1.000000000000000000, 0.000000000000000000, 0.000000000000000000 ) ) ;
#38 = VERTEX_POINT ( 'NONE', #33 ) ;
#39 = DIRECTION ( 'NONE',  ( -0.000000000000000000, -0.000000000000000000, -1.000000000000000000 ) ) ;
#40 = DIRECTION ( 'NONE',  ( 1.000000000000000000, 0.000000000000000000, -0.000000000000000000 ) ) ;
#41 = ADVANCED_FACE ( 'NONE', ( #187 ), #145, .T. ) ;
#42 = CARTESIAN_POINT ( 'NONE',  ( 0.000000000000000000, 0.000000000000000000, 8.000000000000000000 ) ) ;
#43 = PRODUCT_DEFINITION_CONTEXT ( 'detailed design', #147, 'design' ) ;
#44 = LINE ( 'NONE', #193, #264 ) ;
#45 = VERTEX_POINT ( 'NONE', #273 ) ;
#46 = EDGE_LOOP ( 'NONE', ( #134, #181 ) ) ;
#47 = DIRECTION ( 'NONE',  ( 0.000000000000000000, 0.000000000000000000, 1.000000000000000000 ) ) ;
#48 = VERTEX_POINT ( 'NONE', #120 ) ;
#49 =( GEOMETRIC_REPRESENTATION_CONTEXT ( 3 ) GLOBAL_UNCERTAINTY_ASSIGNED_CONTEXT ( ( #63 ) ) GLOBAL_UNIT_ASSIGNED_CONTEXT ( ( #1, #199, #268 ) ) REPRESENTATION_CONTEXT ( 'NONE', 'WORKASPACE' ) );
#50 = ORIENTED_EDGE ( 'NONE', *, *, #256, .F. ) ;
#51 = CARTESIAN_POINT ( 'NONE',  ( 0.000000000000000000, 0.000000000000000000, 0.000000000000000000 ) ) ;
#52 = VERTEX_POINT ( 'NONE', #228 ) ;
#53 = VERTEX_POINT ( 'NONE', #62 ) ;
#54 = AXIS2_PLACEMENT_3D ( 'NONE', #170, #237, #260 ) ;
#55 = CIRCLE ( 'NONE', #151, 1.250000000000000000 ) ;
#56 = CYLINDRICAL_SURFACE ( 'NONE', #205, 2.500000000000000444 ) ;
#57 = FACE_OUTER_BOUND ( 'NONE', #198, .T. ) ;
#58 = DIRECTION ( 'NONE',  ( 0.000000000000000000, 0.000000000000000000, -1.000000000000000000 ) ) ;
#59 = ADVANCED_FACE ( 'NONE', ( #204 ), #227, .F. ) ;
#60 = STYLED_ITEM ( 'NONE', ( #197 ), #14 ) ;
#61 = FACE_OUTER_BOUND ( 'NONE', #112, .T. ) ;
#62 = CARTESIAN_POINT ( 'NONE',  ( 2.500000000000000444, 3.061616997868383634E-16, 76.00000000000000000 ) ) ;
#63 = UNCERTAINTY_MEASURE_WITH_UNIT (LENGTH_MEASURE( 1.000000000000000082E-05 ), #1, 'distance_accuracy_value', 'NONE');
#64 = DIRECTION ( 'NONE',  ( -0.000000000000000000, -0.000000000000000000, -1.000000000000000000 ) ) ;
#65 = ORIENTED_EDGE ( 'NONE', *, *, #9, .T. ) ;
#66 = CARTESIAN_POINT ( 'NONE',  ( -2.500000000000000444, 0.000000000000000000, 76.00000000000000000 ) ) ;
#67 = DIRECTION ( 'NONE',  ( 1.000000000000000000, 0.000000000000000000, 0.000000000000000000 ) ) ;
#68 = AXIS2_PLACEMENT_3D ( 'NONE', #250, #229, #254 ) ;
#69 = ORIENTED_EDGE ( 'NONE', *, *, #106, .T. ) ;
#70 = ORIENTED_EDGE ( 'NONE', *, *, #188, .T. ) ;
#71 = ORIENTED_EDGE ( 'NONE', *, *, #9, .F. ) ;
#72 = CIRCLE ( 'NONE', #141, 2.500000000000000444 ) ;
#73 = ORIENTED_EDGE ( 'NONE', *, *, #189, .F. ) ;
#74 = ORIENTED_EDGE ( 'NONE', *, *, #256, .T. ) ;
#75 = DIRECTION ( 'NONE',  ( 0.000000000000000000, 0.000000000000000000, 1.000000000000000000 ) ) ;
#76 = EDGE_CURVE ( 'NONE', #162, #91, #284, .T. ) ;
#77 = AXIS2_PLACEMENT_3D ( 'NONE', #119, #203, #208 ) ;
#78 = DIRECTION ( 'NONE',  ( -0.000000000000000000, -0.000000000000000000, -1.000000000000000000 ) ) ;
#79 = DIRECTION ( 'NONE',  ( 1.000000000000000000, 0.000000000000000000, 0.000000000000000000 ) ) ;
#80 = CARTESIAN_POINT ( 'NONE',  ( -1.250000000000000000, 0.000000000000000000, 76.00000000000000000 ) ) ;
#81 = CYLINDRICAL_SURFACE ( 'NONE', #121, 1.250000000000000000 ) ;
#82 = CARTESIAN_POINT ( 'NONE',  ( 0.000000000000000000, 0.000000000000000000, 76.00000000000000000 ) ) ;
#83 = APPLICATION_CONTEXT ( 'automotive_design' ) ;
#84 = CARTESIAN_POINT ( 'NONE',  ( 0.000000000000000000, 0.000000000000000000, 76.00000000000000000 ) ) ;
#85 = CIRCLE ( 'NONE', #276, 1.250000000000000000 ) ;
#86 = ORIENTED_EDGE ( 'NONE', *, *, #114, .T. ) ;
#87 = CARTESIAN_POINT ( 'NONE',  ( 0.000000000000000000, 0.000000000000000000, 0.000000000000000000 ) ) ;
#88 = EDGE_CURVE ( 'NONE', #45, #48, #85, .T. ) ;
#89 = LINE ( 'NONE', #210, #122 ) ;
#90 = VERTEX_POINT ( 'NONE', #271 ) ;
#91 = VERTEX_POINT ( 'NONE', #166 ) ;
#92 = VERTEX_POINT ( 'NONE', #252 ) ;
#93 = ORIENTED_EDGE ( 'NONE', *, *, #76, .T. ) ;
#94 = ORIENTED_EDGE ( 'NONE', *, *, #189, .T. ) ;
#95 = ORIENTED_EDGE ( 'NONE', *, *, #160, .F. ) ;
#96 = CARTESIAN_POINT ( 'NONE',  ( 1.250000000000000000, 0.000000000000000000, -1.200000000000000030E-05 ) ) ;
#97 = AXIS2_PLACEMENT_3D ( 'NONE', #107, #262, #40 ) ;
#98 = DIRECTION ( 'NONE',  ( 0.000000000000000000, 0.000000000000000000, 1.000000000000000000 ) ) ;
#99 = CARTESIAN_POINT ( 'NONE',  ( -1.250000000000000000, 1.530808498934191324E-16, -1.200000000000000030E-05 ) ) ;
#100 = CARTESIAN_POINT ( 'NONE',  ( -2.500000000000000444, 0.000000000000000000, 76.00000000000000000 ) ) ;
#101 = ADVANCED_FACE ( 'NONE', ( #32, #206 ), #124, .T. ) ;
#102 = CARTESIAN_POINT ( 'NONE',  ( 0.000000000000000000, 0.000000000000000000, -1.200000000000000030E-05 ) ) ;
#103 = DIRECTION ( 'NONE',  ( -1.000000000000000000, 0.000000000000000000, 0.000000000000000000 ) ) ;
#104 = CARTESIAN_POINT ( 'NONE',  ( 0.000000000000000000, 0.000000000000000000, 8.000000000000000000 ) ) ;
#105 = EDGE_LOOP ( 'NONE', ( #2, #70 ) ) ;
#106 = EDGE_CURVE ( 'NONE', #92, #90, #232, .T. ) ;
#107 = CARTESIAN_POINT ( 'NONE',  ( 0.000000000000000000, 0.000000000000000000, 68.00000000000000000 ) ) ;
#108 = CIRCLE ( 'NONE', #54, 2.500000000000000444 ) ;
#109 = PLANE ( 'NONE',  #97 ) ;
#110 = DIRECTION ( 'NONE',  ( -0.000000000000000000, -0.000000000000000000, 1.000000000000000000 ) ) ;
#111 = ORIENTED_EDGE ( 'NONE', *, *, #176, .F. ) ;
#112 = EDGE_LOOP ( 'NONE', ( #279, #174, #19, #156 ) ) ;
#113 = EDGE_LOOP ( 'NONE', ( #3, #86, #74, #30 ) ) ;
#114 = EDGE_CURVE ( 'NONE', #52, #182, #36, .T. ) ;
#115 = ORIENTED_EDGE ( 'NONE', *, *, #283, .F. ) ;
#116 = EDGE_CURVE ( 'NONE', #211, #162, #207, .T. ) ;
#117 = AXIS2_PLACEMENT_3D ( 'NONE', #104, #110, #67 ) ;
#118 = EDGE_LOOP ( 'NONE', ( #73, #50 ) ) ;
#119 = CARTESIAN_POINT ( 'NONE',  ( 0.000000000000000000, 0.000000000000000000, 76.00000000000000000 ) ) ;
#120 = CARTESIAN_POINT ( 'NONE',  ( 1.250000000000000000, 1.530808498934191324E-16, 68.00000000000000000 ) ) ;
#121 = AXIS2_PLACEMENT_3D ( 'NONE', #102, #192, #143 ) ;
#122 = VECTOR ( 'NONE', #64, 1000.000000000000000 ) ;
#123 = DIRECTION ( 'NONE',  ( 0.000000000000000000, 0.000000000000000000, -1.000000000000000000 ) ) ;
#124 = PLANE ( 'NONE',  #77 ) ;
#125 = DIRECTION ( 'NONE',  ( 1.000000000000000000, 0.000000000000000000, 0.000000000000000000 ) ) ;
#126 = PRODUCT ( 'Rod betweem jaw', 'Rod betweem jaw', '', ( #222 ) ) ;
#127 = ADVANCED_FACE ( 'NONE', ( #12 ), #11, .F. ) ;
#128 = AXIS2_PLACEMENT_3D ( 'NONE', #217, #154, #103 ) ;
#129 = DIRECTION ( 'NONE',  ( 1.000000000000000000, 0.000000000000000000, 0.000000000000000000 ) ) ;
#130 = CYLINDRICAL_SURFACE ( 'NONE', #128, 1.250000000000000000 ) ;
#131 = CARTESIAN_POINT ( 'NONE',  ( 0.000000000000000000, 0.000000000000000000, 76.00000000000000000 ) ) ;
#132 = DIRECTION ( 'NONE',  ( -0.000000000000000000, -0.000000000000000000, -1.000000000000000000 ) ) ;
#133 = DIRECTION ( 'NONE',  ( 1.000000000000000000, 0.000000000000000000, 0.000000000000000000 ) ) ;
#134 = ORIENTED_EDGE ( 'NONE', *, *, #88, .T. ) ;
#135 = EDGE_LOOP ( 'NONE', ( #136, #111 ) ) ;
#136 = ORIENTED_EDGE ( 'NONE', *, *, #76, .F. ) ;
#137 = ADVANCED_FACE ( 'NONE', ( #57 ), #81, .F. ) ;
#138 = LINE ( 'NONE', #245, #13 ) ;
#139 = ORIENTED_EDGE ( 'NONE', *, *, #178, .T. ) ;
#140 = VECTOR ( 'NONE', #10, 1000.000000000000000 ) ;
#141 = AXIS2_PLACEMENT_3D ( 'NONE', #84, #23, #194 ) ;
#142 = DIRECTION ( 'NONE',  ( -1.000000000000000000, 0.000000000000000000, 0.000000000000000000 ) ) ;
#143 = DIRECTION ( 'NONE',  ( 1.000000000000000000, 0.000000000000000000, 0.000000000000000000 ) ) ;
#144 = DIRECTION ( 'NONE',  ( -0.000000000000000000, -0.000000000000000000, -1.000000000000000000 ) ) ;
#145 = CYLINDRICAL_SURFACE ( 'NONE', #239, 2.500000000000000444 ) ;
#146 = DIRECTION ( 'NONE',  ( 0.000000000000000000, 0.000000000000000000, 1.000000000000000000 ) ) ;
#147 = APPLICATION_CONTEXT ( 'automotive_design' ) ;
#148 =( NAMED_UNIT ( * ) PLANE_ANGLE_UNIT ( ) SI_UNIT ( $, .RADIAN. ) );
#149 = EDGE_CURVE ( 'NONE', #53, #211, #108, .T. ) ;
#150 = AXIS2_PLACEMENT_3D ( 'NONE', #164, #123, #7 ) ;
#151 = AXIS2_PLACEMENT_3D ( 'NONE', #82, #132, #18 ) ;
#152 = CARTESIAN_POINT ( 'NONE',  ( -2.500000000000000444, 0.000000000000000000, 0.000000000000000000 ) ) ;
#153 = CARTESIAN_POINT ( 'NONE',  ( -1.250000000000000000, 1.530808498934191324E-16, 8.000000000000000000 ) ) ;
#154 = DIRECTION ( 'NONE',  ( 0.000000000000000000, 0.000000000000000000, -1.000000000000000000 ) ) ;
#155 = AXIS2_PLACEMENT_3D ( 'NONE', #261, #238, #22 ) ;
#156 = ORIENTED_EDGE ( 'NONE', *, *, #116, .F. ) ;
#157 = EDGE_LOOP ( 'NONE', ( #17, #139, #179, #71 ) ) ;
#158 = ORIENTED_EDGE ( 'NONE', *, *, #114, .F. ) ;
#159 = VECTOR ( 'NONE', #75, 1000.000000000000000 ) ;
#160 = EDGE_CURVE ( 'NONE', #53, #91, #89, .T. ) ;
#161 = CIRCLE ( 'NONE', #8, 1.250000000000000000 ) ;
#162 = VERTEX_POINT ( 'NONE', #152 ) ;
#163 = ORIENTED_EDGE ( 'NONE', *, *, #116, .T. ) ;
#164 = CARTESIAN_POINT ( 'NONE',  ( 0.000000000000000000, 0.000000000000000000, 76.00001199999999812 ) ) ;
#165 = CARTESIAN_POINT ( 'NONE',  ( 0.000000000000000000, 0.000000000000000000, 8.000000000000000000 ) ) ;
#166 = CARTESIAN_POINT ( 'NONE',  ( 2.500000000000000444, 3.061616997868383634E-16, 0.000000000000000000 ) ) ;
#167 = PRODUCT_RELATED_PRODUCT_CATEGORY ( 'part', '', ( #126 ) ) ;
#168 = DIRECTION ( 'NONE',  ( -0.000000000000000000, -0.000000000000000000, -1.000000000000000000 ) ) ;
#169 = AXIS2_PLACEMENT_3D ( 'NONE', #195, #277, #133 ) ;
#170 = CARTESIAN_POINT ( 'NONE',  ( 0.000000000000000000, 0.000000000000000000, 76.00000000000000000 ) ) ;
#171 = EDGE_CURVE ( 'NONE', #211, #53, #72, .T. ) ;
#172 = MECHANICAL_DESIGN_GEOMETRIC_PRESENTATION_REPRESENTATION (  '', ( #60 ), #49 ) ;
#173 = CARTESIAN_POINT ( 'NONE',  ( 0.000000000000000000, 0.000000000000000000, 0.000000000000000000 ) ) ;
#174 = ORIENTED_EDGE ( 'NONE', *, *, #160, .T. ) ;
#175 = FACE_OUTER_BOUND ( 'NONE', #243, .T. ) ;
#176 = EDGE_CURVE ( 'NONE', #91, #162, #21, .T. ) ;
#177 = FACE_OUTER_BOUND ( 'NONE', #46, .T. ) ;
#178 = EDGE_CURVE ( 'NONE', #38, #48, #44, .T. ) ;
#179 = ORIENTED_EDGE ( 'NONE', *, *, #88, .F. ) ;
#180 = PRODUCT_DEFINITION_SHAPE ( 'NONE', 'NONE',  #274 ) ;
#181 = ORIENTED_EDGE ( 'NONE', *, *, #29, .T. ) ;
#182 = VERTEX_POINT ( 'NONE', #153 ) ;
#183 = PLANE ( 'NONE',  #209 ) ;
#184 = CARTESIAN_POINT ( 'NONE',  ( 0.000000000000000000, 0.000000000000000000, 68.00000000000000000 ) ) ;
#185 = AXIS2_PLACEMENT_3D ( 'NONE', #51, #47, #225 ) ;
#186 = CARTESIAN_POINT ( 'NONE',  ( 0.000000000000000000, 0.000000000000000000, 76.00000000000000000 ) ) ;
#187 = FACE_OUTER_BOUND ( 'NONE', #235, .T. ) ;
#188 = EDGE_CURVE ( 'NONE', #52, #92, #272, .T. ) ;
#189 = EDGE_CURVE ( 'NONE', #90, #182, #4, .T. ) ;
#190 = DIRECTION ( 'NONE',  ( 0.000000000000000000, 0.000000000000000000, 1.000000000000000000 ) ) ;
#191 = UNCERTAINTY_MEASURE_WITH_UNIT (LENGTH_MEASURE( 1.000000000000000082E-05 ), #196, 'distance_accuracy_value', 'NONE');
#192 = DIRECTION ( 'NONE',  ( 0.000000000000000000, 0.000000000000000000, 1.000000000000000000 ) ) ;
#193 = CARTESIAN_POINT ( 'NONE',  ( 1.250000000000000000, 1.530808498934191324E-16, 76.00001199999999812 ) ) ;
#194 = DIRECTION ( 'NONE',  ( 1.000000000000000000, 0.000000000000000000, 0.000000000000000000 ) ) ;
#195 = CARTESIAN_POINT ( 'NONE',  ( 0.000000000000000000, 0.000000000000000000, 0.000000000000000000 ) ) ;
#196 =( LENGTH_UNIT ( ) NAMED_UNIT ( * ) SI_UNIT ( .MILLI., .METRE. ) );
#197 = PRESENTATION_STYLE_ASSIGNMENT (( #246 ) ) ;
#198 = EDGE_LOOP ( 'NONE', ( #158, #242, #69, #94 ) ) ;
#199 =( NAMED_UNIT ( * ) PLANE_ANGLE_UNIT ( ) SI_UNIT ( $, .RADIAN. ) );
#200 = APPLICATION_PROTOCOL_DEFINITION ( 'draft international standard', 'automotive_design', 1998, #147 ) ;
#201 = ADVANCED_FACE ( 'NONE', ( #16, #257 ), #280, .F. ) ;
#202 = DIRECTION ( 'NONE',  ( 0.000000000000000000, 0.000000000000000000, -1.000000000000000000 ) ) ;
#203 = DIRECTION ( 'NONE',  ( 0.000000000000000000, 0.000000000000000000, 1.000000000000000000 ) ) ;
#204 = FACE_OUTER_BOUND ( 'NONE', #157, .T. ) ;
#205 = AXIS2_PLACEMENT_3D ( 'NONE', #186, #168, #142 ) ;
#206 = FACE_OUTER_BOUND ( 'NONE', #223, .T. ) ;
#207 = LINE ( 'NONE', #100, #230 ) ;
#208 = DIRECTION ( 'NONE',  ( 1.000000000000000000, 0.000000000000000000, -0.000000000000000000 ) ) ;
#209 = AXIS2_PLACEMENT_3D ( 'NONE', #165, #58, #37 ) ;
#210 = CARTESIAN_POINT ( 'NONE',  ( 2.500000000000000444, 3.061616997868383634E-16, 76.00000000000000000 ) ) ;
#211 = VERTEX_POINT ( 'NONE', #66 ) ;
#212 = DIRECTION ( 'NONE',  ( -0.000000000000000000, -0.000000000000000000, 1.000000000000000000 ) ) ;
#213 = ORIENTED_EDGE ( 'NONE', *, *, #178, .F. ) ;
#214 = DIRECTION ( 'NONE',  ( 1.000000000000000000, 0.000000000000000000, 0.000000000000000000 ) ) ;
#215 = ADVANCED_FACE ( 'NONE', ( #177 ), #109, .T. ) ;
#216 = AXIS2_PLACEMENT_3D ( 'NONE', #173, #255, #236 ) ;
#217 = CARTESIAN_POINT ( 'NONE',  ( 0.000000000000000000, 0.000000000000000000, 76.00001199999999812 ) ) ;
#218 = SURFACE_STYLE_FILL_AREA ( #266 ) ;
#219 = CIRCLE ( 'NONE', #68, 1.250000000000000000 ) ;
#220 = CIRCLE ( 'NONE', #15, 1.250000000000000000 ) ;
#221 = ORIENTED_EDGE ( 'NONE', *, *, #283, .T. ) ;
#222 = PRODUCT_CONTEXT ( 'NONE', #83, 'mechanical' ) ;
#223 = EDGE_LOOP ( 'NONE', ( #265, #226 ) ) ;
#224 = EDGE_CURVE ( 'NONE', #38, #31, #281, .T. ) ;
#225 = DIRECTION ( 'NONE',  ( 1.000000000000000000, 0.000000000000000000, 0.000000000000000000 ) ) ;
#226 = ORIENTED_EDGE ( 'NONE', *, *, #149, .T. ) ;
#227 = CYLINDRICAL_SURFACE ( 'NONE', #150, 1.250000000000000000 ) ;
#228 = CARTESIAN_POINT ( 'NONE',  ( -1.250000000000000000, 1.530808498934191324E-16, 0.000000000000000000 ) ) ;
#229 = DIRECTION ( 'NONE',  ( 0.000000000000000000, 0.000000000000000000, 1.000000000000000000 ) ) ;
#230 = VECTOR ( 'NONE', #78, 1000.000000000000000 ) ;
#231 = AXIS2_PLACEMENT_3D ( 'NONE', #131, #39, #282 ) ;
#232 = LINE ( 'NONE', #96, #140 ) ;
#233 = EDGE_CURVE ( 'NONE', #92, #52, #220, .T. ) ;
#234 = FACE_OUTER_BOUND ( 'NONE', #118, .T. ) ;
#235 = EDGE_LOOP ( 'NONE', ( #95, #247, #163, #93 ) ) ;
#236 = DIRECTION ( 'NONE',  ( 1.000000000000000000, 0.000000000000000000, -0.000000000000000000 ) ) ;
#237 = DIRECTION ( 'NONE',  ( 0.000000000000000000, 0.000000000000000000, 1.000000000000000000 ) ) ;
#238 = DIRECTION ( 'NONE',  ( 0.000000000000000000, 0.000000000000000000, 1.000000000000000000 ) ) ;
#239 = AXIS2_PLACEMENT_3D ( 'NONE', #6, #144, #34 ) ;
#240 = DIRECTION ( 'NONE',  ( 0.000000000000000000, 0.000000000000000000, -1.000000000000000000 ) ) ;
#241 = APPLICATION_PROTOCOL_DEFINITION ( 'draft international standard', 'automotive_design', 1998, #83 ) ;
#242 = ORIENTED_EDGE ( 'NONE', *, *, #233, .F. ) ;
#243 = EDGE_LOOP ( 'NONE', ( #213, #115, #65, #28 ) ) ;
#244 = CLOSED_SHELL ( 'NONE', ( #127, #59, #35, #41, #101, #201, #248, #215, #137, #24 ) ) ;
#245 = CARTESIAN_POINT ( 'NONE',  ( -1.250000000000000000, 0.000000000000000000, 76.00001199999999812 ) ) ;
#246 = SURFACE_STYLE_USAGE ( .BOTH. , #25 ) ;
#247 = ORIENTED_EDGE ( 'NONE', *, *, #171, .F. ) ;
#248 = ADVANCED_FACE ( 'NONE', ( #175 ), #130, .F. ) ;
#249 = PRESENTATION_LAYER_ASSIGNMENT (  '', '', ( #60 ) ) ;
#250 = CARTESIAN_POINT ( 'NONE',  ( 0.000000000000000000, 0.000000000000000000, 68.00000000000000000 ) ) ;
#251 = CARTESIAN_POINT ( 'NONE',  ( 0.000000000000000000, 0.000000000000000000, -1.200000000000000030E-05 ) ) ;
#252 = CARTESIAN_POINT ( 'NONE',  ( 1.250000000000000000, 0.000000000000000000, 0.000000000000000000 ) ) ;
#253 = CARTESIAN_POINT ( 'NONE',  ( 0.000000000000000000, 0.000000000000000000, 0.000000000000000000 ) ) ;
#254 = DIRECTION ( 'NONE',  ( 1.000000000000000000, 0.000000000000000000, 0.000000000000000000 ) ) ;
#255 = DIRECTION ( 'NONE',  ( 0.000000000000000000, 0.000000000000000000, 1.000000000000000000 ) ) ;
#256 = EDGE_CURVE ( 'NONE', #182, #90, #161, .T. ) ;
#257 = FACE_OUTER_BOUND ( 'NONE', #135, .T. ) ;
#258 = ADVANCED_BREP_SHAPE_REPRESENTATION ( 'Rod betweem jaw', ( #14, #185 ), #27 ) ;
#259 = PRODUCT_DEFINITION_FORMATION_WITH_SPECIFIED_SOURCE ( 'Symmetric', '', #126, .NOT_KNOWN. ) ;
#260 = DIRECTION ( 'NONE',  ( 1.000000000000000000, 0.000000000000000000, 0.000000000000000000 ) ) ;
#261 = CARTESIAN_POINT ( 'NONE',  ( 0.000000000000000000, 0.000000000000000000, 0.000000000000000000 ) ) ;
#262 = DIRECTION ( 'NONE',  ( 0.000000000000000000, 0.000000000000000000, 1.000000000000000000 ) ) ;
#263 = AXIS2_PLACEMENT_3D ( 'NONE', #253, #146, #125 ) ;
#264 = VECTOR ( 'NONE', #240, 1000.000000000000000 ) ;
#265 = ORIENTED_EDGE ( 'NONE', *, *, #171, .T. ) ;
#266 = FILL_AREA_STYLE ('',( #270 ) ) ;
#267 = COLOUR_RGB ( '',0.7921568627450980005, 0.8196078431372548767, 0.9333333333333333481 ) ;
#268 =( NAMED_UNIT ( * ) SI_UNIT ( $, .STERADIAN. ) SOLID_ANGLE_UNIT ( ) );
#269 = EDGE_LOOP ( 'NONE', ( #221, #5 ) ) ;
#270 = FILL_AREA_STYLE_COLOUR ( '', #267 ) ;
#271 = CARTESIAN_POINT ( 'NONE',  ( 1.250000000000000000, 0.000000000000000000, 8.000000000000000000 ) ) ;
#272 = CIRCLE ( 'NONE', #169, 1.250000000000000000 ) ;
#273 = CARTESIAN_POINT ( 'NONE',  ( -1.250000000000000000, 0.000000000000000000, 68.00000000000000000 ) ) ;
#274 = PRODUCT_DEFINITION ( 'General', '', #259, #43 ) ;
#275 = DIRECTION ( 'NONE',  ( 1.000000000000000000, 0.000000000000000000, 0.000000000000000000 ) ) ;
#276 = AXIS2_PLACEMENT_3D ( 'NONE', #184, #98, #79 ) ;
#277 = DIRECTION ( 'NONE',  ( 0.000000000000000000, 0.000000000000000000, 1.000000000000000000 ) ) ;
#278 =( NAMED_UNIT ( * ) SI_UNIT ( $, .STERADIAN. ) SOLID_ANGLE_UNIT ( ) );
#279 = ORIENTED_EDGE ( 'NONE', *, *, #149, .F. ) ;
#280 = PLANE ( 'NONE',  #216 ) ;
#281 = CIRCLE ( 'NONE', #231, 1.250000000000000000 ) ;
#282 = DIRECTION ( 'NONE',  ( 1.000000000000000000, 0.000000000000000000, 0.000000000000000000 ) ) ;
#283 = EDGE_CURVE ( 'NONE', #31, #38, #55, .T. ) ;
#284 = CIRCLE ( 'NONE', #263, 2.500000000000000444 ) ;
#285 = SHAPE_DEFINITION_REPRESENTATION ( #180, #258 ) ;
ENDSEC;
END-ISO-10303-21;
