ISO-10303-21;
HEADER;
FILE_DESCRIPTION (( 'STEP AP214' ),
    '1' );
FILE_NAME ('Rod new lip middle up.STEP',
    '2025-10-21T18:57:18',
    ( 'Windows User' ),
    ( '' ),
    'SwSTEP 2.0',
    'SolidWorks 2023',
    '' );
FILE_SCHEMA (( 'AUTOMOTIVE_DESIGN' ));
ENDSEC;

DATA;
#1 = EDGE_LOOP ( 'NONE', ( #229, #169, #239, #555 ) ) ;
#2 = LINE ( 'NONE', #432, #139 ) ;
#3 = UNCERTAINTY_MEASURE_WITH_UNIT (LENGTH_MEASURE( 1.000000000000000082E-05 ), #271, 'distance_accuracy_value', 'NONE');
#4 = VERTEX_POINT ( 'NONE', #48 ) ;
#5 = EDGE_CURVE ( 'NONE', #603, #20, #453, .T. ) ;
#6 = ORIENTED_EDGE ( 'NONE', *, *, #79, .F. ) ;
#7 = UNCERTAINTY_MEASURE_WITH_UNIT (LENGTH_MEASURE( 1.000000000000000082E-05 ), #387, 'distance_accuracy_value', 'NONE');
#8 =( NAMED_UNIT ( * ) SI_UNIT ( $, .STERADIAN. ) SOLID_ANGLE_UNIT ( ) );
#9 = ORIENTED_EDGE ( 'NONE', *, *, #362, .F. ) ;
#10 =( LENGTH_UNIT ( ) NAMED_UNIT ( * ) SI_UNIT ( .MILLI., .METRE. ) );
#11 = PRESENTATION_LAYER_ASSIGNMENT (  '', '', ( #89 ) ) ;
#12 = SURFACE_STYLE_USAGE ( .BOTH. , #313 ) ;
#13 = FILL_AREA_STYLE_COLOUR ( '', #276 ) ;
#14 = VERTEX_POINT ( 'NONE', #40 ) ;
#15 = CARTESIAN_POINT ( 'NONE',  ( 16.00000000000000000, 0.000000000000000000, 1.000000000000001554 ) ) ;
#16 = CARTESIAN_POINT ( 'NONE',  ( 16.00000000000000000, 0.000000000000000000, -1.000000000000001554 ) ) ;
#17 = CYLINDRICAL_SURFACE ( 'NONE', #128, 1.000000000000001554 ) ;
#18 = VERTEX_POINT ( 'NONE', #623 ) ;
#19 = LINE ( 'NONE', #226, #431 ) ;
#20 = VERTEX_POINT ( 'NONE', #354 ) ;
#21 = VECTOR ( 'NONE', #462, 1000.000000000000000 ) ;
#22 = COLOUR_RGB ( '',0.9686274509803921573, 0.2588235294117646745, 0.2588235294117646745 ) ;
#23 = AXIS2_PLACEMENT_3D ( 'NONE', #305, #516, #41 ) ;
#24 = EDGE_CURVE ( 'NONE', #422, #269, #402, .T. ) ;
#25 = SURFACE_STYLE_FILL_AREA ( #220 ) ;
#26 = EDGE_LOOP ( 'NONE', ( #224, #76, #636, #69 ) ) ;
#27 = DIRECTION ( 'NONE',  ( 0.000000000000000000, 0.000000000000000000, 1.000000000000000000 ) ) ;
#28 = EDGE_CURVE ( 'NONE', #603, #393, #670, .T. ) ;
#29 = SURFACE_STYLE_USAGE ( .BOTH. , #656 ) ;
#30 = VERTEX_POINT ( 'NONE', #566 ) ;
#31 = EDGE_LOOP ( 'NONE', ( #383, #9, #110, #681 ) ) ;
#32 = VECTOR ( 'NONE', #324, 1000.000000000000000 ) ;
#33 =( NAMED_UNIT ( * ) SI_UNIT ( $, .STERADIAN. ) SOLID_ANGLE_UNIT ( ) );
#34 =( GEOMETRIC_REPRESENTATION_CONTEXT ( 3 ) GLOBAL_UNCERTAINTY_ASSIGNED_CONTEXT ( ( #683 ) ) GLOBAL_UNIT_ASSIGNED_CONTEXT ( ( #178, #610, #499 ) ) REPRESENTATION_CONTEXT ( 'NONE', 'WORKASPACE' ) );
#35 = AXIS2_PLACEMENT_3D ( 'NONE', #210, #315, #101 ) ;
#36 = FACE_BOUND ( 'NONE', #657, .T. ) ;
#37 = LINE ( 'NONE', #404, #365 ) ;
#38 = FACE_BOUND ( 'NONE', #106, .T. ) ;
#39 = SURFACE_SIDE_STYLE ('',( #147 ) ) ;
#40 = CARTESIAN_POINT ( 'NONE',  ( -15.00000000000000000, 0.000000000000000000, 1.000000000000109912 ) ) ;
#41 = DIRECTION ( 'NONE',  ( 0.000000000000000000, 0.000000000000000000, 1.000000000000000000 ) ) ;
#42 = UNCERTAINTY_MEASURE_WITH_UNIT (LENGTH_MEASURE( 1.000000000000000082E-05 ), #281, 'distance_accuracy_value', 'NONE');
#43 = STYLED_ITEM ( 'NONE', ( #344 ), #248 ) ;
#44 = AXIS2_PLACEMENT_3D ( 'NONE', #546, #489, #378 ) ;
#45 = EDGE_CURVE ( 'NONE', #649, #4, #596, .T. ) ;
#46 = DIRECTION ( 'NONE',  ( 0.000000000000000000, -1.000000000000000000, 0.000000000000000000 ) ) ;
#47 =( NAMED_UNIT ( * ) SI_UNIT ( $, .STERADIAN. ) SOLID_ANGLE_UNIT ( ) );
#48 = CARTESIAN_POINT ( 'NONE',  ( 16.00000000000000000, 12.00000000000000000, -1.000000000000001554 ) ) ;
#49 = DIRECTION ( 'NONE',  ( 0.000000000000000000, 1.000000000000000000, 0.000000000000000000 ) ) ;
#50 = CARTESIAN_POINT ( 'NONE',  ( -1.000000000000000666, 0.000000000000000000, -0.9999999999999997780 ) ) ;
#51 = EDGE_CURVE ( 'NONE', #14, #605, #160, .T. ) ;
#52 = SURFACE_SIDE_STYLE ('',( #316 ) ) ;
#53 = ORIENTED_EDGE ( 'NONE', *, *, #270, .T. ) ;
#54 = PRESENTATION_LAYER_ASSIGNMENT (  '', '', ( #332 ) ) ;
#55 = AXIS2_PLACEMENT_3D ( 'NONE', #331, #522, #598 ) ;
#56 = CARTESIAN_POINT ( 'NONE',  ( 16.00000000000000000, 0.000000000000000000, 0.000000000000000000 ) ) ;
#57 = CIRCLE ( 'NONE', #409, 2.000000000000000000 ) ;
#58 = EDGE_CURVE ( 'NONE', #14, #157, #415, .T. ) ;
#59 = EDGE_LOOP ( 'NONE', ( #279, #435, #612, #338, #282, #491 ) ) ;
#60 = DIRECTION ( 'NONE',  ( 0.000000000000000000, 0.000000000000000000, -1.000000000000000000 ) ) ;
#61 = UNCERTAINTY_MEASURE_WITH_UNIT (LENGTH_MEASURE( 1.000000000000000082E-05 ), #235, 'distance_accuracy_value', 'NONE');
#62 = FILL_AREA_STYLE ('',( #644 ) ) ;
#63 = SURFACE_SIDE_STYLE ('',( #369 ) ) ;
#64 = VERTEX_POINT ( 'NONE', #616 ) ;
#65 = PRESENTATION_STYLE_ASSIGNMENT (( #585 ) ) ;
#66 = SURFACE_SIDE_STYLE ('',( #416 ) ) ;
#67 = DIRECTION ( 'NONE',  ( -0.000000000000000000, 1.000000000000000000, -0.000000000000000000 ) ) ;
#68 = AXIS2_PLACEMENT_3D ( 'NONE', #56, #265, #377 ) ;
#69 = ORIENTED_EDGE ( 'NONE', *, *, #225, .F. ) ;
#70 = CIRCLE ( 'NONE', #322, 1.000000000000001554 ) ;
#71 = DIRECTION ( 'NONE',  ( 0.000000000000000000, 0.000000000000000000, 1.000000000000000000 ) ) ;
#72 = ORIENTED_EDGE ( 'NONE', *, *, #613, .F. ) ;
#73 = UNCERTAINTY_MEASURE_WITH_UNIT (LENGTH_MEASURE( 1.000000000000000082E-05 ), #97, 'distance_accuracy_value', 'NONE');
#74 = FILL_AREA_STYLE_COLOUR ( '', #470 ) ;
#75 = ORIENTED_EDGE ( 'NONE', *, *, #212, .T. ) ;
#76 = ORIENTED_EDGE ( 'NONE', *, *, #389, .T. ) ;
#77 = MECHANICAL_DESIGN_GEOMETRIC_PRESENTATION_REPRESENTATION (  '', ( #504 ), #652 ) ;
#78 =( GEOMETRIC_REPRESENTATION_CONTEXT ( 3 ) GLOBAL_UNCERTAINTY_ASSIGNED_CONTEXT ( ( #535 ) ) GLOBAL_UNIT_ASSIGNED_CONTEXT ( ( #259, #629, #674 ) ) REPRESENTATION_CONTEXT ( 'NONE', 'WORKASPACE' ) );
#79 = EDGE_CURVE ( 'NONE', #18, #157, #394, .T. ) ;
#80 = SURFACE_SIDE_STYLE ('',( #25 ) ) ;
#81 = ORIENTED_EDGE ( 'NONE', *, *, #51, .F. ) ;
#82 =( NAMED_UNIT ( * ) SI_UNIT ( $, .STERADIAN. ) SOLID_ANGLE_UNIT ( ) );
#83 = EDGE_LOOP ( 'NONE', ( #75, #427, #364, #317 ) ) ;
#84 = SURFACE_STYLE_FILL_AREA ( #671 ) ;
#85 =( LENGTH_UNIT ( ) NAMED_UNIT ( * ) SI_UNIT ( .MILLI., .METRE. ) );
#86 = CARTESIAN_POINT ( 'NONE',  ( -1.000000000000000888, 0.000000000000000000, 0.000000000000000000 ) ) ;
#87 = FACE_OUTER_BOUND ( 'NONE', #348, .T. ) ;
#88 = MECHANICAL_DESIGN_GEOMETRIC_PRESENTATION_REPRESENTATION (  '', ( #43 ), #494 ) ;
#89 = STYLED_ITEM ( 'NONE', ( #181 ), #444 ) ;
#90 = DIRECTION ( 'NONE',  ( 0.000000000000000000, 0.000000000000000000, 1.000000000000000000 ) ) ;
#91 = CARTESIAN_POINT ( 'NONE',  ( -15.00000000000000000, 0.000000000000000000, 1.084183805627360551E-13 ) ) ;
#92 = LINE ( 'NONE', #361, #162 ) ;
#93 = LINE ( 'NONE', #294, #21 ) ;
#94 = CARTESIAN_POINT ( 'NONE',  ( -15.00000000000000000, 0.000000000000000000, 1.000000000000109912 ) ) ;
#95 = CARTESIAN_POINT ( 'NONE',  ( -15.00000000000000000, 0.000000000000000000, -0.9999999999998930855 ) ) ;
#96 = EDGE_CURVE ( 'NONE', #233, #329, #37, .T. ) ;
#97 =( LENGTH_UNIT ( ) NAMED_UNIT ( * ) SI_UNIT ( .MILLI., .METRE. ) );
#98 = CARTESIAN_POINT ( 'NONE',  ( 13.00000000000000178, 12.00000000000000000, 2.000000000000000000 ) ) ;
#99 = FILL_AREA_STYLE ('',( #419 ) ) ;
#100 = SURFACE_STYLE_FILL_AREA ( #381 ) ;
#101 = DIRECTION ( 'NONE',  ( 1.000000000000000000, 0.000000000000000000, 0.000000000000000000 ) ) ;
#102 = DIRECTION ( 'NONE',  ( 0.000000000000000000, 0.000000000000000000, -1.000000000000000000 ) ) ;
#103 = PRESENTATION_STYLE_ASSIGNMENT (( #464 ) ) ;
#104 = DIRECTION ( 'NONE',  ( 0.000000000000000000, -1.000000000000000000, 0.000000000000000000 ) ) ;
#105 =( NAMED_UNIT ( * ) SI_UNIT ( $, .STERADIAN. ) SOLID_ANGLE_UNIT ( ) );
#106 = EDGE_LOOP ( 'NONE', ( #545, #53 ) ) ;
#107 = MECHANICAL_DESIGN_GEOMETRIC_PRESENTATION_REPRESENTATION (  '', ( #408 ), #483 ) ;
#108 = CYLINDRICAL_SURFACE ( 'NONE', #564, 1.000000000000001554 ) ;
#109 = AXIS2_PLACEMENT_3D ( 'NONE', #372, #423, #113 ) ;
#110 = ORIENTED_EDGE ( 'NONE', *, *, #479, .F. ) ;
#111 = DIRECTION ( 'NONE',  ( 0.000000000000000000, -1.000000000000000000, 0.000000000000000000 ) ) ;
#112 = CARTESIAN_POINT ( 'NONE',  ( -15.00000000000000000, 3.000000000000000000, 1.000000000000109912 ) ) ;
#113 = DIRECTION ( 'NONE',  ( 0.000000000000000000, 0.000000000000000000, 1.000000000000000000 ) ) ;
#114 = FACE_BOUND ( 'NONE', #579, .T. ) ;
#115 = EDGE_CURVE ( 'NONE', #609, #329, #134, .T. ) ;
#116 = LINE ( 'NONE', #685, #32 ) ;
#117 = EDGE_LOOP ( 'NONE', ( #125, #509, #502, #284, #171, #136 ) ) ;
#118 = AXIS2_PLACEMENT_3D ( 'NONE', #285, #342, #240 ) ;
#119 = VERTEX_POINT ( 'NONE', #296 ) ;
#120 = VECTOR ( 'NONE', #337, 1000.000000000000000 ) ;
#121 = CARTESIAN_POINT ( 'NONE',  ( 13.00000000000000178, 12.00000000000000000, -2.000000000000000000 ) ) ;
#122 = VERTEX_POINT ( 'NONE', #249 ) ;
#123 = PRESENTATION_STYLE_ASSIGNMENT (( #29 ) ) ;
#124 = PRODUCT_RELATED_PRODUCT_CATEGORY ( 'part', '', ( #486 ) ) ;
#125 = ORIENTED_EDGE ( 'NONE', *, *, #679, .F. ) ;
#126 = VECTOR ( 'NONE', #217, 1000.000000000000000 ) ;
#127 = ORIENTED_EDGE ( 'NONE', *, *, #679, .T. ) ;
#128 = AXIS2_PLACEMENT_3D ( 'NONE', #195, #242, #359 ) ;
#129 = SURFACE_STYLE_FILL_AREA ( #662 ) ;
#130 = PRESENTATION_LAYER_ASSIGNMENT (  '', '', ( #355 ) ) ;
#131 = DIRECTION ( 'NONE',  ( 0.000000000000000000, 0.000000000000000000, -1.000000000000000000 ) ) ;
#132 = VERTEX_POINT ( 'NONE', #301 ) ;
#133 = SURFACE_STYLE_USAGE ( .BOTH. , #390 ) ;
#134 = LINE ( 'NONE', #194, #552 ) ;
#135 = SURFACE_STYLE_USAGE ( .BOTH. , #303 ) ;
#136 = ORIENTED_EDGE ( 'NONE', *, *, #362, .T. ) ;
#137 = FACE_OUTER_BOUND ( 'NONE', #31, .T. ) ;
#138 = MECHANICAL_DESIGN_GEOMETRIC_PRESENTATION_REPRESENTATION (  '', ( #355 ), #608 ) ;
#139 = VECTOR ( 'NONE', #646, 1000.000000000000000 ) ;
#140 = FILL_AREA_STYLE_COLOUR ( '', #396 ) ;
#141 = DIRECTION ( 'NONE',  ( 0.000000000000000000, 1.000000000000000000, -0.000000000000000000 ) ) ;
#142 = ADVANCED_FACE ( 'NONE', ( #304 ), #668, .F. ) ;
#143 = DIRECTION ( 'NONE',  ( -1.000000000000000000, 0.000000000000000000, 7.256926541169644063E-15 ) ) ;
#144 = FILL_AREA_STYLE ('',( #620 ) ) ;
#145 =( NAMED_UNIT ( * ) SI_UNIT ( $, .STERADIAN. ) SOLID_ANGLE_UNIT ( ) );
#146 = DIRECTION ( 'NONE',  ( -0.000000000000000000, -1.000000000000000000, -0.000000000000000000 ) ) ;
#147 = SURFACE_STYLE_FILL_AREA ( #188 ) ;
#148 = DIRECTION ( 'NONE',  ( 0.000000000000000000, -1.000000000000000000, 0.000000000000000000 ) ) ;
#149 = COLOUR_RGB ( '',0.9686274509803921573, 0.2588235294117646745, 0.2588235294117646745 ) ;
#150 = FACE_BOUND ( 'NONE', #673, .T. ) ;
#151 = COLOUR_RGB ( '',0.9686274509803921573, 0.2588235294117646745, 0.2588235294117646745 ) ;
#152 = APPLICATION_PROTOCOL_DEFINITION ( 'draft international standard', 'automotive_design', 1998, #500 ) ;
#153 = VECTOR ( 'NONE', #626, 1000.000000000000000 ) ;
#154 = CARTESIAN_POINT ( 'NONE',  ( 16.00000000000000000, 0.000000000000000000, 0.000000000000000000 ) ) ;
#155 =( NAMED_UNIT ( * ) PLANE_ANGLE_UNIT ( ) SI_UNIT ( $, .RADIAN. ) );
#156 = FACE_OUTER_BOUND ( 'NONE', #538, .T. ) ;
#157 = VERTEX_POINT ( 'NONE', #112 ) ;
#158 = ORIENTED_EDGE ( 'NONE', *, *, #28, .F. ) ;
#159 = CARTESIAN_POINT ( 'NONE',  ( 16.00000000000000000, 12.00000000000000000, 1.000000000000001554 ) ) ;
#160 = CIRCLE ( 'NONE', #675, 1.000000000000001554 ) ;
#161 = PRESENTATION_LAYER_ASSIGNMENT (  '', '', ( #504 ) ) ;
#162 = VECTOR ( 'NONE', #314, 1000.000000000000000 ) ;
#163 = CYLINDRICAL_SURFACE ( 'NONE', #68, 1.000000000000001554 ) ;
#164 = VECTOR ( 'NONE', #143, 1000.000000000000000 ) ;
#165 = ORIENTED_EDGE ( 'NONE', *, *, #5, .F. ) ;
#166 = SURFACE_SIDE_STYLE ('',( #539 ) ) ;
#167 = EDGE_CURVE ( 'NONE', #20, #122, #533, .T. ) ;
#168 = PRODUCT_DEFINITION_SHAPE ( 'NONE', 'NONE',  #247 ) ;
#169 = ORIENTED_EDGE ( 'NONE', *, *, #547, .T. ) ;
#170 = SURFACE_STYLE_USAGE ( .BOTH. , #80 ) ;
#171 = ORIENTED_EDGE ( 'NONE', *, *, #594, .T. ) ;
#172 = ADVANCED_FACE ( 'NONE', ( #156 ), #207, .F. ) ;
#173 = STYLED_ITEM ( 'NONE', ( #677 ), #142 ) ;
#174 = CIRCLE ( 'NONE', #421, 1.000000000000001554 ) ;
#175 = EDGE_LOOP ( 'NONE', ( #655, #81, #183, #398 ) ) ;
#176 = CARTESIAN_POINT ( 'NONE',  ( 13.00000000000000178, 12.00000000000000000, -2.000000000000000000 ) ) ;
#177 = EDGE_LOOP ( 'NONE', ( #434, #446 ) ) ;
#178 =( LENGTH_UNIT ( ) NAMED_UNIT ( * ) SI_UNIT ( .MILLI., .METRE. ) );
#179 = DIRECTION ( 'NONE',  ( -0.000000000000000000, 1.000000000000000000, -0.000000000000000000 ) ) ;
#180 = ORIENTED_EDGE ( 'NONE', *, *, #28, .T. ) ;
#181 = PRESENTATION_STYLE_ASSIGNMENT (( #133 ) ) ;
#182 = CARTESIAN_POINT ( 'NONE',  ( -1.000000000000000888, 0.000000000000000000, 0.000000000000000000 ) ) ;
#183 = ORIENTED_EDGE ( 'NONE', *, *, #58, .T. ) ;
#184 = CIRCLE ( 'NONE', #530, 1.000000000000001554 ) ;
#185 = CARTESIAN_POINT ( 'NONE',  ( -15.00000000000000000, 3.000000000000000000, 1.084183805627360551E-13 ) ) ;
#186 = CIRCLE ( 'NONE', #216, 0.9999999999999997780 ) ;
#187 = AXIS2_PLACEMENT_3D ( 'NONE', #567, #528, #102 ) ;
#188 = FILL_AREA_STYLE ('',( #140 ) ) ;
#189 = CARTESIAN_POINT ( 'NONE',  ( 13.00000000000000178, 12.00000000000000000, 2.000000000000000000 ) ) ;
#190 = CARTESIAN_POINT ( 'NONE',  ( 13.00000000000000178, 12.00000000000000000, 2.000000000000000000 ) ) ;
#191 = CARTESIAN_POINT ( 'NONE',  ( -15.00000000000000000, 3.000000000000000000, 1.084183805627360551E-13 ) ) ;
#192 = CYLINDRICAL_SURFACE ( 'NONE', #187, 2.000000000000000000 ) ;
#193 = PRESENTATION_STYLE_ASSIGNMENT (( #518 ) ) ;
#194 = CARTESIAN_POINT ( 'NONE',  ( -15.00000000000001421, 3.000000000000000000, -1.999999999999891198 ) ) ;
#195 = CARTESIAN_POINT ( 'NONE',  ( -15.00000000000000000, 0.000000000000000000, 1.084183805627360551E-13 ) ) ;
#196 =( LENGTH_UNIT ( ) NAMED_UNIT ( * ) SI_UNIT ( .MILLI., .METRE. ) );
#197 = LINE ( 'NONE', #524, #665 ) ;
#198 = UNCERTAINTY_MEASURE_WITH_UNIT (LENGTH_MEASURE( 1.000000000000000082E-05 ), #214, 'distance_accuracy_value', 'NONE');
#199 = CARTESIAN_POINT ( 'NONE',  ( 16.00000000000000000, 3.000000000000000000, 2.000000000000000000 ) ) ;
#200 =( NAMED_UNIT ( * ) SI_UNIT ( $, .STERADIAN. ) SOLID_ANGLE_UNIT ( ) );
#201 = SURFACE_STYLE_USAGE ( .BOTH. , #66 ) ;
#202 = DIRECTION ( 'NONE',  ( 0.000000000000000000, 0.000000000000000000, -1.000000000000000000 ) ) ;
#203 = VECTOR ( 'NONE', #307, 1000.000000000000000 ) ;
#204 = COLOUR_RGB ( '',0.9686274509803921573, 0.2588235294117646745, 0.2588235294117646745 ) ;
#205 = COLOUR_RGB ( '',0.9686274509803921573, 0.2588235294117646745, 0.2588235294117646745 ) ;
#206 =( GEOMETRIC_REPRESENTATION_CONTEXT ( 3 ) GLOBAL_UNCERTAINTY_ASSIGNED_CONTEXT ( ( #256 ) ) GLOBAL_UNIT_ASSIGNED_CONTEXT ( ( #10, #370, #318 ) ) REPRESENTATION_CONTEXT ( 'NONE', 'WORKASPACE' ) );
#207 = CYLINDRICAL_SURFACE ( 'NONE', #631, 1.000000000000001554 ) ;
#208 = ORIENTED_EDGE ( 'NONE', *, *, #225, .T. ) ;
#209 = FILL_AREA_STYLE ('',( #637 ) ) ;
#210 = CARTESIAN_POINT ( 'NONE',  ( 0.000000000000000000, 0.000000000000000000, 0.000000000000000000 ) ) ;
#211 = DIRECTION ( 'NONE',  ( 0.000000000000000000, 1.000000000000000000, -0.000000000000000000 ) ) ;
#212 = EDGE_CURVE ( 'NONE', #269, #233, #333, .T. ) ;
#213 = ORIENTED_EDGE ( 'NONE', *, *, #594, .F. ) ;
#214 =( LENGTH_UNIT ( ) NAMED_UNIT ( * ) SI_UNIT ( .MILLI., .METRE. ) );
#215 = MECHANICAL_DESIGN_GEOMETRIC_PRESENTATION_REPRESENTATION (  '', ( #519 ), #263 ) ;
#216 = AXIS2_PLACEMENT_3D ( 'NONE', #467, #647, #429 ) ;
#217 = DIRECTION ( 'NONE',  ( 0.000000000000000000, 0.000000000000000000, -1.000000000000000000 ) ) ;
#218 = CARTESIAN_POINT ( 'NONE',  ( 16.00000000000000000, 3.000000000000000000, -2.000000000000000000 ) ) ;
#219 = FILL_AREA_STYLE_COLOUR ( '', #565 ) ;
#220 = FILL_AREA_STYLE ('',( #74 ) ) ;
#221 = ORIENTED_EDGE ( 'NONE', *, *, #425, .F. ) ;
#222 =( NAMED_UNIT ( * ) PLANE_ANGLE_UNIT ( ) SI_UNIT ( $, .RADIAN. ) );
#223 = SURFACE_STYLE_USAGE ( .BOTH. , #335 ) ;
#224 = ORIENTED_EDGE ( 'NONE', *, *, #441, .F. ) ;
#225 = EDGE_CURVE ( 'NONE', #30, #64, #116, .T. ) ;
#226 = CARTESIAN_POINT ( 'NONE',  ( 16.00000000000000000, 0.000000000000000000, 1.000000000000001554 ) ) ;
#227 = PRESENTATION_STYLE_ASSIGNMENT (( #223 ) ) ;
#228 =( GEOMETRIC_REPRESENTATION_CONTEXT ( 3 ) GLOBAL_UNCERTAINTY_ASSIGNED_CONTEXT ( ( #61 ) ) GLOBAL_UNIT_ASSIGNED_CONTEXT ( ( #235, #447, #33 ) ) REPRESENTATION_CONTEXT ( 'NONE', 'WORKASPACE' ) );
#229 = ORIENTED_EDGE ( 'NONE', *, *, #569, .F. ) ;
#230 =( NAMED_UNIT ( * ) SI_UNIT ( $, .STERADIAN. ) SOLID_ANGLE_UNIT ( ) );
#231 = ORIENTED_EDGE ( 'NONE', *, *, #45, .F. ) ;
#232 = DIRECTION ( 'NONE',  ( 0.000000000000000000, 1.000000000000000000, -0.000000000000000000 ) ) ;
#233 = VERTEX_POINT ( 'NONE', #468 ) ;
#234 = ADVANCED_FACE ( 'NONE', ( #476 ), #163, .F. ) ;
#235 =( LENGTH_UNIT ( ) NAMED_UNIT ( * ) SI_UNIT ( .MILLI., .METRE. ) );
#236 = DIRECTION ( 'NONE',  ( -0.000000000000000000, 0.000000000000000000, 1.000000000000000000 ) ) ;
#237 = EDGE_CURVE ( 'NONE', #64, #592, #505, .T. ) ;
#238 = COLOUR_RGB ( '',0.9686274509803921573, 0.2588235294117646745, 0.2588235294117646745 ) ;
#239 = ORIENTED_EDGE ( 'NONE', *, *, #79, .T. ) ;
#240 = DIRECTION ( 'NONE',  ( 1.000000000000000000, 0.000000000000000000, -7.256926541169644063E-15 ) ) ;
#241 = AXIS2_PLACEMENT_3D ( 'NONE', #475, #593, #274 ) ;
#242 = DIRECTION ( 'NONE',  ( -0.000000000000000000, 1.000000000000000000, -0.000000000000000000 ) ) ;
#243 = EDGE_LOOP ( 'NONE', ( #443, #548, #127, #496 ) ) ;
#244 = PRESENTATION_STYLE_ASSIGNMENT (( #549 ) ) ;
#245 =( NAMED_UNIT ( * ) PLANE_ANGLE_UNIT ( ) SI_UNIT ( $, .RADIAN. ) );
#246 = CARTESIAN_POINT ( 'NONE',  ( -1.000000000000000666, 3.000000000000000000, -0.9999999999999997780 ) ) ;
#247 = PRODUCT_DEFINITION ( 'General', '', #642, #375 ) ;
#248 = ADVANCED_FACE ( 'NONE', ( #581 ), #108, .F. ) ;
#249 = CARTESIAN_POINT ( 'NONE',  ( 13.00000000000000178, 3.000000000000000000, -2.000000000000094591 ) ) ;
#250 = AXIS2_PLACEMENT_3D ( 'NONE', #86, #541, #417 ) ;
#251 = CARTESIAN_POINT ( 'NONE',  ( -15.00000000000001421, 3.000000000000000000, -1.999999999999891198 ) ) ;
#252 = STYLED_ITEM ( 'NONE', ( #227 ), #272 ) ;
#253 = LINE ( 'NONE', #611, #449 ) ;
#254 = DIRECTION ( 'NONE',  ( 0.000000000000000000, 1.000000000000000000, 0.000000000000000000 ) ) ;
#255 = DIRECTION ( 'NONE',  ( 0.000000000000000000, 0.000000000000000000, 1.000000000000000000 ) ) ;
#256 = UNCERTAINTY_MEASURE_WITH_UNIT (LENGTH_MEASURE( 1.000000000000000082E-05 ), #10, 'distance_accuracy_value', 'NONE');
#257 = PRESENTATION_STYLE_ASSIGNMENT (( #12 ) ) ;
#258 = DIRECTION ( 'NONE',  ( 0.000000000000000000, 0.000000000000000000, 1.000000000000000000 ) ) ;
#259 =( LENGTH_UNIT ( ) NAMED_UNIT ( * ) SI_UNIT ( .MILLI., .METRE. ) );
#260 = CARTESIAN_POINT ( 'NONE',  ( 16.00000000000000000, 0.000000000000000000, -1.000000000000001554 ) ) ;
#261 =( NAMED_UNIT ( * ) PLANE_ANGLE_UNIT ( ) SI_UNIT ( $, .RADIAN. ) );
#262 = PRESENTATION_STYLE_ASSIGNMENT (( #454 ) ) ;
#263 =( GEOMETRIC_REPRESENTATION_CONTEXT ( 3 ) GLOBAL_UNCERTAINTY_ASSIGNED_CONTEXT ( ( #461 ) ) GLOBAL_UNIT_ASSIGNED_CONTEXT ( ( #85, #448, #350 ) ) REPRESENTATION_CONTEXT ( 'NONE', 'WORKASPACE' ) );
#264 = AXIS2_PLACEMENT_3D ( 'NONE', #185, #232, #659 ) ;
#265 = DIRECTION ( 'NONE',  ( -0.000000000000000000, 1.000000000000000000, -0.000000000000000000 ) ) ;
#266 = ORIENTED_EDGE ( 'NONE', *, *, #237, .T. ) ;
#267 = ADVANCED_FACE ( 'NONE', ( #382 ), #650, .F. ) ;
#268 = PRESENTATION_STYLE_ASSIGNMENT (( #379 ) ) ;
#269 = VERTEX_POINT ( 'NONE', #395 ) ;
#270 = EDGE_CURVE ( 'NONE', #4, #649, #184, .T. ) ;
#271 =( LENGTH_UNIT ( ) NAMED_UNIT ( * ) SI_UNIT ( .MILLI., .METRE. ) );
#272 = ADVANCED_FACE ( 'NONE', ( #558 ), #17, .F. ) ;
#273 = ORIENTED_EDGE ( 'NONE', *, *, #343, .T. ) ;
#274 = DIRECTION ( 'NONE',  ( 1.000000000000000000, 0.000000000000000000, -7.256926541169644063E-15 ) ) ;
#275 =( LENGTH_UNIT ( ) NAMED_UNIT ( * ) SI_UNIT ( .MILLI., .METRE. ) );
#276 = COLOUR_RGB ( '',0.9686274509803921573, 0.2588235294117646745, 0.2588235294117646745 ) ;
#277 = FILL_AREA_STYLE ('',( #13 ) ) ;
#278 = STYLED_ITEM ( 'NONE', ( #65 ), #682 ) ;
#279 = ORIENTED_EDGE ( 'NONE', *, *, #96, .T. ) ;
#280 = PLANE ( 'NONE',  #55 ) ;
#281 =( LENGTH_UNIT ( ) NAMED_UNIT ( * ) SI_UNIT ( .MILLI., .METRE. ) );
#282 = ORIENTED_EDGE ( 'NONE', *, *, #425, .T. ) ;
#283 = LINE ( 'NONE', #540, #654 ) ;
#284 = ORIENTED_EDGE ( 'NONE', *, *, #5, .T. ) ;
#285 = CARTESIAN_POINT ( 'NONE',  ( 1.451385308233929128E-14, 3.000000000000000000, 2.000000000000000000 ) ) ;
#286 = AXIS2_PLACEMENT_3D ( 'NONE', #154, #478, #537 ) ;
#287 = AXIS2_PLACEMENT_3D ( 'NONE', #190, #455, #236 ) ;
#288 = CIRCLE ( 'NONE', #264, 2.000000000000000000 ) ;
#289 = ORIENTED_EDGE ( 'NONE', *, *, #457, .F. ) ;
#290 = ADVANCED_FACE ( 'NONE', ( #667 ), #410, .T. ) ;
#291 = ORIENTED_EDGE ( 'NONE', *, *, #586, .T. ) ;
#292 = ORIENTED_EDGE ( 'NONE', *, *, #441, .T. ) ;
#293 = FILL_AREA_STYLE_COLOUR ( '', #22 ) ;
#294 = CARTESIAN_POINT ( 'NONE',  ( -14.99999999999998579, 3.000000000000000000, 2.000000000000108802 ) ) ;
#295 = PRESENTATION_LAYER_ASSIGNMENT (  '', '', ( #553 ) ) ;
#296 = CARTESIAN_POINT ( 'NONE',  ( 16.00000000000000000, 12.00000000000000000, -2.000000000000000000 ) ) ;
#297 = MECHANICAL_DESIGN_GEOMETRIC_PRESENTATION_REPRESENTATION (  '', ( #376 ), #309 ) ;
#298 = CARTESIAN_POINT ( 'NONE',  ( 16.00000000000000000, 12.00000000000000000, 0.000000000000000000 ) ) ;
#299 = CIRCLE ( 'NONE', #484, 1.000000000000001554 ) ;
#300 = DIRECTION ( 'NONE',  ( -1.000000000000000000, 0.000000000000000000, 7.256926541169644063E-15 ) ) ;
#301 = CARTESIAN_POINT ( 'NONE',  ( -14.99999999999998579, 0.000000000000000000, 2.000000000000108802 ) ) ;
#302 = DIRECTION ( 'NONE',  ( 0.000000000000000000, 0.000000000000000000, 1.000000000000000000 ) ) ;
#303 = SURFACE_SIDE_STYLE ('',( #568 ) ) ;
#304 = FACE_OUTER_BOUND ( 'NONE', #26, .T. ) ;
#305 = CARTESIAN_POINT ( 'NONE',  ( -1.000000000000000888, 0.000000000000000000, 0.000000000000000000 ) ) ;
#306 = CLOSED_SHELL ( 'NONE', ( #272, #172, #142, #371, #682, #557, #445, #492, #392, #267, #234, #248, #290, #444 ) ) ;
#307 = DIRECTION ( 'NONE',  ( -0.000000000000000000, -1.000000000000000000, -0.000000000000000000 ) ) ;
#308 = COLOUR_RGB ( '',0.9686274509803921573, 0.2588235294117646745, 0.2588235294117646745 ) ;
#309 =( GEOMETRIC_REPRESENTATION_CONTEXT ( 3 ) GLOBAL_UNCERTAINTY_ASSIGNED_CONTEXT ( ( #363 ) ) GLOBAL_UNIT_ASSIGNED_CONTEXT ( ( #525, #542, #82 ) ) REPRESENTATION_CONTEXT ( 'NONE', 'WORKASPACE' ) );
#310 = DIRECTION ( 'NONE',  ( -0.000000000000000000, 1.000000000000000000, -0.000000000000000000 ) ) ;
#311 = APPLICATION_PROTOCOL_DEFINITION ( 'draft international standard', 'automotive_design', 1998, #517 ) ;
#312 = SURFACE_STYLE_FILL_AREA ( #99 ) ;
#313 = SURFACE_SIDE_STYLE ('',( #100 ) ) ;
#314 = DIRECTION ( 'NONE',  ( -0.000000000000000000, 1.000000000000000000, -0.000000000000000000 ) ) ;
#315 = DIRECTION ( 'NONE',  ( 0.000000000000000000, 0.000000000000000000, 1.000000000000000000 ) ) ;
#316 = SURFACE_STYLE_FILL_AREA ( #62 ) ;
#317 = ORIENTED_EDGE ( 'NONE', *, *, #24, .T. ) ;
#318 =( NAMED_UNIT ( * ) SI_UNIT ( $, .STERADIAN. ) SOLID_ANGLE_UNIT ( ) );
#319 = PRESENTATION_LAYER_ASSIGNMENT (  '', '', ( #173 ) ) ;
#320 = AXIS2_PLACEMENT_3D ( 'NONE', #506, #511, #90 ) ;
#321 = PRESENTATION_LAYER_ASSIGNMENT (  '', '', ( #376 ) ) ;
#322 = AXIS2_PLACEMENT_3D ( 'NONE', #686, #617, #302 ) ;
#323 =( NAMED_UNIT ( * ) PLANE_ANGLE_UNIT ( ) SI_UNIT ( $, .RADIAN. ) );
#324 = DIRECTION ( 'NONE',  ( -0.000000000000000000, 1.000000000000000000, -0.000000000000000000 ) ) ;
#325 = FACE_OUTER_BOUND ( 'NONE', #59, .T. ) ;
#326 = CARTESIAN_POINT ( 'NONE',  ( 16.00000000000000000, 12.00000000000000000, 2.000000000000000000 ) ) ;
#327 = UNCERTAINTY_MEASURE_WITH_UNIT (LENGTH_MEASURE( 1.000000000000000082E-05 ), #196, 'distance_accuracy_value', 'NONE');
#328 = CARTESIAN_POINT ( 'NONE',  ( 16.00000000000000000, 0.000000000000000000, 0.000000000000000000 ) ) ;
#329 = VERTEX_POINT ( 'NONE', #514 ) ;
#330 =( NAMED_UNIT ( * ) SI_UNIT ( $, .STERADIAN. ) SOLID_ANGLE_UNIT ( ) );
#331 = CARTESIAN_POINT ( 'NONE',  ( 0.000000000000000000, 0.000000000000000000, 0.000000000000000000 ) ) ;
#332 = STYLED_ITEM ( 'NONE', ( #268 ), #172 ) ;
#333 = CIRCLE ( 'NONE', #286, 2.000000000000000000 ) ;
#334 = CIRCLE ( 'NONE', #44, 1.000000000000001554 ) ;
#335 = SURFACE_SIDE_STYLE ('',( #485 ) ) ;
#336 = ORIENTED_EDGE ( 'NONE', *, *, #351, .F. ) ;
#337 = DIRECTION ( 'NONE',  ( -0.000000000000000000, 1.000000000000000000, -0.000000000000000000 ) ) ;
#338 = ORIENTED_EDGE ( 'NONE', *, *, #536, .F. ) ;
#339 = SURFACE_SIDE_STYLE ('',( #129 ) ) ;
#340 = FILL_AREA_STYLE_COLOUR ( '', #308 ) ;
#341 = ORIENTED_EDGE ( 'NONE', *, *, #658, .F. ) ;
#342 = DIRECTION ( 'NONE',  ( 7.256926541169644063E-15, -0.000000000000000000, 1.000000000000000000 ) ) ;
#343 = EDGE_CURVE ( 'NONE', #122, #609, #253, .T. ) ;
#344 = PRESENTATION_STYLE_ASSIGNMENT (( #170 ) ) ;
#345 = ORIENTED_EDGE ( 'NONE', *, *, #536, .T. ) ;
#346 = FACE_OUTER_BOUND ( 'NONE', #83, .T. ) ;
#347 = SURFACE_STYLE_FILL_AREA ( #595 ) ;
#348 = EDGE_LOOP ( 'NONE', ( #341, #221, #158, #72 ) ) ;
#349 = DIRECTION ( 'NONE',  ( 0.000000000000000000, 1.000000000000000000, 0.000000000000000000 ) ) ;
#350 =( NAMED_UNIT ( * ) SI_UNIT ( $, .STERADIAN. ) SOLID_ANGLE_UNIT ( ) );
#351 = EDGE_CURVE ( 'NONE', #592, #64, #573, .T. ) ;
#352 = SURFACE_STYLE_FILL_AREA ( #614 ) ;
#353 =( GEOMETRIC_REPRESENTATION_CONTEXT ( 3 ) GLOBAL_UNCERTAINTY_ASSIGNED_CONTEXT ( ( #327 ) ) GLOBAL_UNIT_ASSIGNED_CONTEXT ( ( #196, #245, #145 ) ) REPRESENTATION_CONTEXT ( 'NONE', 'WORKASPACE' ) );
#354 = CARTESIAN_POINT ( 'NONE',  ( 13.00000000000000178, 3.000000000000000000, 2.000000000000000000 ) ) ;
#355 = STYLED_ITEM ( 'NONE', ( #653 ), #392 ) ;
#356 = SURFACE_SIDE_STYLE ('',( #312 ) ) ;
#357 = DIRECTION ( 'NONE',  ( -0.000000000000000000, 1.000000000000000000, -0.000000000000000000 ) ) ;
#358 = SURFACE_STYLE_USAGE ( .BOTH. , #356 ) ;
#359 = DIRECTION ( 'NONE',  ( 0.000000000000000000, 0.000000000000000000, 1.000000000000000000 ) ) ;
#360 = DIRECTION ( 'NONE',  ( 0.000000000000000000, 0.000000000000000000, 1.000000000000000000 ) ) ;
#361 = CARTESIAN_POINT ( 'NONE',  ( -15.00000000000000000, 0.000000000000000000, -0.9999999999998930855 ) ) ;
#362 = EDGE_CURVE ( 'NONE', #426, #132, #93, .T. ) ;
#363 = UNCERTAINTY_MEASURE_WITH_UNIT (LENGTH_MEASURE( 1.000000000000000082E-05 ), #525, 'distance_accuracy_value', 'NONE');
#364 = ORIENTED_EDGE ( 'NONE', *, *, #658, .T. ) ;
#365 = VECTOR ( 'NONE', #570, 1000.000000000000000 ) ;
#366 = STYLED_ITEM ( 'NONE', ( #465 ), #557 ) ;
#367 = LINE ( 'NONE', #176, #599 ) ;
#368 = FILL_AREA_STYLE_COLOUR ( '', #149 ) ;
#369 = SURFACE_STYLE_FILL_AREA ( #587 ) ;
#370 =( NAMED_UNIT ( * ) PLANE_ANGLE_UNIT ( ) SI_UNIT ( $, .RADIAN. ) );
#371 = ADVANCED_FACE ( 'NONE', ( #36, #680, #406 ), #669, .T. ) ;
#372 = CARTESIAN_POINT ( 'NONE',  ( -15.00000000000000000, 0.000000000000000000, 1.084183805627360551E-13 ) ) ;
#373 = COLOUR_RGB ( '',0.9686274509803921573, 0.2588235294117646745, 0.2588235294117646745 ) ;
#374 = PRESENTATION_LAYER_ASSIGNMENT (  '', '', ( #43 ) ) ;
#375 = PRODUCT_DEFINITION_CONTEXT ( 'detailed design', #517, 'design' ) ;
#376 = STYLED_ITEM ( 'NONE', ( #257 ), #442 ) ;
#377 = DIRECTION ( 'NONE',  ( 0.000000000000000000, 0.000000000000000000, 1.000000000000000000 ) ) ;
#378 = DIRECTION ( 'NONE',  ( 0.000000000000000000, 0.000000000000000000, 1.000000000000000000 ) ) ;
#379 = SURFACE_STYLE_USAGE ( .BOTH. , #63 ) ;
#380 = ORIENTED_EDGE ( 'NONE', *, *, #401, .T. ) ;
#381 = FILL_AREA_STYLE ('',( #572 ) ) ;
#382 = FACE_OUTER_BOUND ( 'NONE', #559, .T. ) ;
#383 = ORIENTED_EDGE ( 'NONE', *, *, #672, .T. ) ;
#384 = FACE_BOUND ( 'NONE', #177, .T. ) ;
#385 = PRESENTATION_LAYER_ASSIGNMENT (  '', '', ( #519 ) ) ;
#386 = VERTEX_POINT ( 'NONE', #16 ) ;
#387 =( LENGTH_UNIT ( ) NAMED_UNIT ( * ) SI_UNIT ( .MILLI., .METRE. ) );
#388 = VERTEX_POINT ( 'NONE', #50 ) ;
#389 = EDGE_CURVE ( 'NONE', #388, #592, #283, .T. ) ;
#390 = SURFACE_SIDE_STYLE ('',( #84 ) ) ;
#391 = CARTESIAN_POINT ( 'NONE',  ( 16.00000000000000000, 12.00000000000000000, 0.000000000000000000 ) ) ;
#392 = ADVANCED_FACE ( 'NONE', ( #384, #114, #150, #684 ), #280, .F. ) ;
#393 = VERTEX_POINT ( 'NONE', #121 ) ;
#394 = CIRCLE ( 'NONE', #482, 1.000000000000001554 ) ;
#395 = CARTESIAN_POINT ( 'NONE',  ( 16.00000000000000000, 0.000000000000000000, 2.000000000000000000 ) ) ;
#396 = COLOUR_RGB ( '',0.9686274509803921573, 0.2588235294117646745, 0.2588235294117646745 ) ;
#397 = PRESENTATION_LAYER_ASSIGNMENT (  '', '', ( #408 ) ) ;
#398 = ORIENTED_EDGE ( 'NONE', *, *, #412, .T. ) ;
#399 = MECHANICAL_DESIGN_GEOMETRIC_PRESENTATION_REPRESENTATION (  '', ( #366 ), #78 ) ;
#400 = FILL_AREA_STYLE_COLOUR ( '', #151 ) ;
#401 = EDGE_CURVE ( 'NONE', #386, #4, #433, .T. ) ;
#402 = LINE ( 'NONE', #199, #203 ) ;
#403 = PRESENTATION_STYLE_ASSIGNMENT (( #135 ) ) ;
#404 = CARTESIAN_POINT ( 'NONE',  ( -1.451385308233929128E-14, 0.000000000000000000, -2.000000000000000000 ) ) ;
#405 = CARTESIAN_POINT ( 'NONE',  ( -15.00000000000000000, 0.000000000000000000, 1.084183805627360551E-13 ) ) ;
#406 = FACE_OUTER_BOUND ( 'NONE', #601, .T. ) ;
#407 = COLOUR_RGB ( '',0.9686274509803921573, 0.2588235294117646745, 0.2588235294117646745 ) ;
#408 = STYLED_ITEM ( 'NONE', ( #262 ), #492 ) ;
#409 = AXIS2_PLACEMENT_3D ( 'NONE', #588, #111, #60 ) ;
#410 = PLANE ( 'NONE',  #287 ) ;
#411 = PRODUCT_CONTEXT ( 'NONE', #500, 'mechanical' ) ;
#412 = EDGE_CURVE ( 'NONE', #157, #18, #334, .T. ) ;
#413 = CARTESIAN_POINT ( 'NONE',  ( 16.00000000000000000, 3.000000000000000000, 0.000000000000000000 ) ) ;
#414 = EDGE_CURVE ( 'NONE', #635, #649, #19, .T. ) ;
#415 = LINE ( 'NONE', #94, #469 ) ;
#416 = SURFACE_STYLE_FILL_AREA ( #643 ) ;
#417 = DIRECTION ( 'NONE',  ( 0.000000000000000000, 0.000000000000000000, 1.000000000000000000 ) ) ;
#418 =( GEOMETRIC_REPRESENTATION_CONTEXT ( 3 ) GLOBAL_UNCERTAINTY_ASSIGNED_CONTEXT ( ( #73 ) ) GLOBAL_UNIT_ASSIGNED_CONTEXT ( ( #97, #615, #627 ) ) REPRESENTATION_CONTEXT ( 'NONE', 'WORKASPACE' ) );
#419 = FILL_AREA_STYLE_COLOUR ( '', #641 ) ;
#420 = AXIS2_PLACEMENT_3D ( 'NONE', #473, #211, #424 ) ;
#421 = AXIS2_PLACEMENT_3D ( 'NONE', #497, #349, #27 ) ;
#422 = VERTEX_POINT ( 'NONE', #326 ) ;
#423 = DIRECTION ( 'NONE',  ( 0.000000000000000000, 1.000000000000000000, -0.000000000000000000 ) ) ;
#424 = DIRECTION ( 'NONE',  ( 0.000000000000000000, 0.000000000000000000, 1.000000000000000000 ) ) ;
#425 = EDGE_CURVE ( 'NONE', #393, #119, #367, .T. ) ;
#426 = VERTEX_POINT ( 'NONE', #436 ) ;
#427 = ORIENTED_EDGE ( 'NONE', *, *, #618, .F. ) ;
#428 = DIRECTION ( 'NONE',  ( -0.000000000000000000, -1.000000000000000000, -0.000000000000000000 ) ) ;
#429 = DIRECTION ( 'NONE',  ( 0.000000000000000000, 0.000000000000000000, 1.000000000000000000 ) ) ;
#430 = MECHANICAL_DESIGN_GEOMETRIC_PRESENTATION_REPRESENTATION (  '', ( #252 ), #607 ) ;
#431 = VECTOR ( 'NONE', #630, 1000.000000000000000 ) ;
#432 = CARTESIAN_POINT ( 'NONE',  ( 1.451385308233929128E-14, 0.000000000000000000, 2.000000000000000000 ) ) ;
#433 = LINE ( 'NONE', #260, #120 ) ;
#434 = ORIENTED_EDGE ( 'NONE', *, *, #51, .T. ) ;
#435 = ORIENTED_EDGE ( 'NONE', *, *, #115, .F. ) ;
#436 = CARTESIAN_POINT ( 'NONE',  ( -14.99999999999998579, 3.000000000000000000, 2.000000000000108802 ) ) ;
#437 =( GEOMETRIC_REPRESENTATION_CONTEXT ( 3 ) GLOBAL_UNCERTAINTY_ASSIGNED_CONTEXT ( ( #42 ) ) GLOBAL_UNIT_ASSIGNED_CONTEXT ( ( #281, #648, #544 ) ) REPRESENTATION_CONTEXT ( 'NONE', 'WORKASPACE' ) );
#438 = AXIS2_PLACEMENT_3D ( 'NONE', #676, #501, #589 ) ;
#439 = ORIENTED_EDGE ( 'NONE', *, *, #389, .F. ) ;
#440 = FILL_AREA_STYLE_COLOUR ( '', #204 ) ;
#441 = EDGE_CURVE ( 'NONE', #388, #30, #186, .T. ) ;
#442 = MANIFOLD_SOLID_BREP ( 'Boss-Extrude2', #306 ) ;
#443 = ORIENTED_EDGE ( 'NONE', *, *, #96, .F. ) ;
#444 = ADVANCED_FACE ( 'NONE', ( #38, #87 ), #463, .F. ) ;
#445 = ADVANCED_FACE ( 'NONE', ( #452 ), #510, .T. ) ;
#446 = ORIENTED_EDGE ( 'NONE', *, *, #569, .T. ) ;
#447 =( NAMED_UNIT ( * ) PLANE_ANGLE_UNIT ( ) SI_UNIT ( $, .RADIAN. ) );
#448 =( NAMED_UNIT ( * ) PLANE_ANGLE_UNIT ( ) SI_UNIT ( $, .RADIAN. ) );
#449 = VECTOR ( 'NONE', #300, 1000.000000000000000 ) ;
#450 = ORIENTED_EDGE ( 'NONE', *, *, #606, .F. ) ;
#451 = VECTOR ( 'NONE', #428, 1000.000000000000000 ) ;
#452 = FACE_OUTER_BOUND ( 'NONE', #117, .T. ) ;
#453 = LINE ( 'NONE', #98, #580 ) ;
#454 = SURFACE_STYLE_USAGE ( .BOTH. , #563 ) ;
#455 = DIRECTION ( 'NONE',  ( -1.000000000000000000, 0.000000000000000000, -0.000000000000000000 ) ) ;
#456 = LINE ( 'NONE', #624, #164 ) ;
#457 = EDGE_CURVE ( 'NONE', #635, #386, #174, .T. ) ;
#458 = SURFACE_STYLE_USAGE ( .BOTH. , #574 ) ;
#459 = AXIS2_PLACEMENT_3D ( 'NONE', #413, #146, #202 ) ;
#460 = LINE ( 'NONE', #678, #153 ) ;
#461 = UNCERTAINTY_MEASURE_WITH_UNIT (LENGTH_MEASURE( 1.000000000000000082E-05 ), #85, 'distance_accuracy_value', 'NONE');
#462 = DIRECTION ( 'NONE',  ( -0.000000000000000000, -1.000000000000000000, -0.000000000000000000 ) ) ;
#463 = PLANE ( 'NONE',  #507 ) ;
#464 = SURFACE_STYLE_USAGE ( .BOTH. , #52 ) ;
#465 = PRESENTATION_STYLE_ASSIGNMENT (( #358 ) ) ;
#466 = UNCERTAINTY_MEASURE_WITH_UNIT (LENGTH_MEASURE( 1.000000000000000082E-05 ), #600, 'distance_accuracy_value', 'NONE');
#467 = CARTESIAN_POINT ( 'NONE',  ( -1.000000000000000888, 0.000000000000000000, 0.000000000000000000 ) ) ;
#468 = CARTESIAN_POINT ( 'NONE',  ( 16.00000000000000000, 0.000000000000000000, -2.000000000000000000 ) ) ;
#469 = VECTOR ( 'NONE', #357, 1000.000000000000000 ) ;
#470 = COLOUR_RGB ( '',0.9686274509803921573, 0.2588235294117646745, 0.2588235294117646745 ) ;
#471 = EDGE_LOOP ( 'NONE', ( #498, #289, #477, #488 ) ) ;
#472 = STYLED_ITEM ( 'NONE', ( #244 ), #445 ) ;
#473 = CARTESIAN_POINT ( 'NONE',  ( -1.000000000000000888, 3.000000000000000000, 0.000000000000000000 ) ) ;
#474 = EDGE_LOOP ( 'NONE', ( #651, #165, #180, #345 ) ) ;
#475 = CARTESIAN_POINT ( 'NONE',  ( -1.451385308233929128E-14, 3.000000000000000000, -2.000000000000000000 ) ) ;
#476 = FACE_OUTER_BOUND ( 'NONE', #471, .T. ) ;
#477 = ORIENTED_EDGE ( 'NONE', *, *, #414, .T. ) ;
#478 = DIRECTION ( 'NONE',  ( 0.000000000000000000, 1.000000000000000000, -0.000000000000000000 ) ) ;
#479 = EDGE_CURVE ( 'NONE', #609, #426, #288, .T. ) ;
#480 = ORIENTED_EDGE ( 'NONE', *, *, #457, .T. ) ;
#481 = PLANE ( 'NONE',  #241 ) ;
#482 = AXIS2_PLACEMENT_3D ( 'NONE', #191, #141, #258 ) ;
#483 =( GEOMETRIC_REPRESENTATION_CONTEXT ( 3 ) GLOBAL_UNCERTAINTY_ASSIGNED_CONTEXT ( ( #513 ) ) GLOBAL_UNIT_ASSIGNED_CONTEXT ( ( #633, #155, #200 ) ) REPRESENTATION_CONTEXT ( 'NONE', 'WORKASPACE' ) );
#484 = AXIS2_PLACEMENT_3D ( 'NONE', #405, #49, #255 ) ;
#485 = SURFACE_STYLE_FILL_AREA ( #277 ) ;
#486 = PRODUCT ( 'Rod new lip middle up', 'Rod new lip middle up', '', ( #411 ) ) ;
#487 = ORIENTED_EDGE ( 'NONE', *, *, #586, .F. ) ;
#488 = ORIENTED_EDGE ( 'NONE', *, *, #270, .F. ) ;
#489 = DIRECTION ( 'NONE',  ( 0.000000000000000000, 1.000000000000000000, -0.000000000000000000 ) ) ;
#490 =( NAMED_UNIT ( * ) PLANE_ANGLE_UNIT ( ) SI_UNIT ( $, .RADIAN. ) );
#491 = ORIENTED_EDGE ( 'NONE', *, *, #618, .T. ) ;
#492 = ADVANCED_FACE ( 'NONE', ( #346 ), #560, .T. ) ;
#493 =( GEOMETRIC_REPRESENTATION_CONTEXT ( 3 ) GLOBAL_UNCERTAINTY_ASSIGNED_CONTEXT ( ( #3 ) ) GLOBAL_UNIT_ASSIGNED_CONTEXT ( ( #271, #261, #8 ) ) REPRESENTATION_CONTEXT ( 'NONE', 'WORKASPACE' ) );
#494 =( GEOMETRIC_REPRESENTATION_CONTEXT ( 3 ) GLOBAL_UNCERTAINTY_ASSIGNED_CONTEXT ( ( #7 ) ) GLOBAL_UNIT_ASSIGNED_CONTEXT ( ( #387, #660, #230 ) ) REPRESENTATION_CONTEXT ( 'NONE', 'WORKASPACE' ) );
#495 = MECHANICAL_DESIGN_GEOMETRIC_PRESENTATION_REPRESENTATION (  '', ( #472 ), #34 ) ;
#496 = ORIENTED_EDGE ( 'NONE', *, *, #672, .F. ) ;
#497 = CARTESIAN_POINT ( 'NONE',  ( 16.00000000000000000, 0.000000000000000000, 0.000000000000000000 ) ) ;
#498 = ORIENTED_EDGE ( 'NONE', *, *, #401, .F. ) ;
#499 =( NAMED_UNIT ( * ) SI_UNIT ( $, .STERADIAN. ) SOLID_ANGLE_UNIT ( ) );
#500 = APPLICATION_CONTEXT ( 'automotive_design' ) ;
#501 = DIRECTION ( 'NONE',  ( 0.000000000000000000, 1.000000000000000000, -0.000000000000000000 ) ) ;
#502 = ORIENTED_EDGE ( 'NONE', *, *, #613, .T. ) ;
#503 = DIRECTION ( 'NONE',  ( 0.000000000000000000, -0.000000000000000000, -1.000000000000000000 ) ) ;
#504 = STYLED_ITEM ( 'NONE', ( #103 ), #234 ) ;
#505 = CIRCLE ( 'NONE', #420, 0.9999999999999997780 ) ;
#506 = CARTESIAN_POINT ( 'NONE',  ( -1.000000000000000888, 3.000000000000000000, 0.000000000000000000 ) ) ;
#507 = AXIS2_PLACEMENT_3D ( 'NONE', #298, #556, #503 ) ;
#508 = COLOUR_RGB ( '',0.9686274509803921573, 0.2588235294117646745, 0.2588235294117646745 ) ;
#509 = ORIENTED_EDGE ( 'NONE', *, *, #24, .F. ) ;
#510 = PLANE ( 'NONE',  #118 ) ;
#511 = DIRECTION ( 'NONE',  ( 0.000000000000000000, 1.000000000000000000, -0.000000000000000000 ) ) ;
#512 = FILL_AREA_STYLE_COLOUR ( '', #238 ) ;
#513 = UNCERTAINTY_MEASURE_WITH_UNIT (LENGTH_MEASURE( 1.000000000000000082E-05 ), #633, 'distance_accuracy_value', 'NONE');
#514 = CARTESIAN_POINT ( 'NONE',  ( -15.00000000000001421, 0.000000000000000000, -1.999999999999891198 ) ) ;
#515 = DIRECTION ( 'NONE',  ( 0.000000000000000000, 0.000000000000000000, -1.000000000000000000 ) ) ;
#516 = DIRECTION ( 'NONE',  ( 0.000000000000000000, 1.000000000000000000, 0.000000000000000000 ) ) ;
#517 = APPLICATION_CONTEXT ( 'automotive_design' ) ;
#518 = SURFACE_STYLE_USAGE ( .BOTH. , #39 ) ;
#519 = STYLED_ITEM ( 'NONE', ( #193 ), #290 ) ;
#520 = CARTESIAN_POINT ( 'NONE',  ( 16.00000000000000000, 12.00000000000000000, 0.000000000000000000 ) ) ;
#521 = MECHANICAL_DESIGN_GEOMETRIC_PRESENTATION_REPRESENTATION (  '', ( #89 ), #228 ) ;
#522 = DIRECTION ( 'NONE',  ( 0.000000000000000000, 1.000000000000000000, -0.000000000000000000 ) ) ;
#523 = FILL_AREA_STYLE ('',( #512 ) ) ;
#524 = CARTESIAN_POINT ( 'NONE',  ( 13.00000000000000178, 12.00000000000000000, -2.000000000000000000 ) ) ;
#525 =( LENGTH_UNIT ( ) NAMED_UNIT ( * ) SI_UNIT ( .MILLI., .METRE. ) );
#526 =( LENGTH_UNIT ( ) NAMED_UNIT ( * ) SI_UNIT ( .MILLI., .METRE. ) );
#527 = ORIENTED_EDGE ( 'NONE', *, *, #412, .F. ) ;
#528 = DIRECTION ( 'NONE',  ( -0.000000000000000000, -1.000000000000000000, -0.000000000000000000 ) ) ;
#529 = MECHANICAL_DESIGN_GEOMETRIC_PRESENTATION_REPRESENTATION (  '', ( #332 ), #493 ) ;
#530 = AXIS2_PLACEMENT_3D ( 'NONE', #391, #554, #131 ) ;
#531 = LINE ( 'NONE', #218, #451 ) ;
#532 = PRESENTATION_LAYER_ASSIGNMENT (  '', '', ( #278 ) ) ;
#533 = LINE ( 'NONE', #578, #126 ) ;
#534 =( NAMED_UNIT ( * ) PLANE_ANGLE_UNIT ( ) SI_UNIT ( $, .RADIAN. ) );
#535 = UNCERTAINTY_MEASURE_WITH_UNIT (LENGTH_MEASURE( 1.000000000000000082E-05 ), #259, 'distance_accuracy_value', 'NONE');
#536 = EDGE_CURVE ( 'NONE', #393, #122, #197, .T. ) ;
#537 = DIRECTION ( 'NONE',  ( 0.000000000000000000, 0.000000000000000000, 1.000000000000000000 ) ) ;
#538 = EDGE_LOOP ( 'NONE', ( #487, #380, #231, #640 ) ) ;
#539 = SURFACE_STYLE_FILL_AREA ( #209 ) ;
#540 = CARTESIAN_POINT ( 'NONE',  ( -1.000000000000000666, 0.000000000000000000, -0.9999999999999997780 ) ) ;
#541 = DIRECTION ( 'NONE',  ( -0.000000000000000000, 1.000000000000000000, -0.000000000000000000 ) ) ;
#542 =( NAMED_UNIT ( * ) PLANE_ANGLE_UNIT ( ) SI_UNIT ( $, .RADIAN. ) );
#543 = CIRCLE ( 'NONE', #109, 2.000000000000000000 ) ;
#544 =( NAMED_UNIT ( * ) SI_UNIT ( $, .STERADIAN. ) SOLID_ANGLE_UNIT ( ) );
#545 = ORIENTED_EDGE ( 'NONE', *, *, #45, .T. ) ;
#546 = CARTESIAN_POINT ( 'NONE',  ( -15.00000000000000000, 3.000000000000000000, 1.084183805627360551E-13 ) ) ;
#547 = EDGE_CURVE ( 'NONE', #605, #18, #92, .T. ) ;
#548 = ORIENTED_EDGE ( 'NONE', *, *, #212, .F. ) ;
#549 = SURFACE_STYLE_USAGE ( .BOTH. , #339 ) ;
#550 = CARTESIAN_POINT ( 'NONE',  ( -15.00000000000000000, 0.000000000000000000, 1.084183805627360551E-13 ) ) ;
#551 = ORIENTED_EDGE ( 'NONE', *, *, #606, .T. ) ;
#552 = VECTOR ( 'NONE', #628, 1000.000000000000000 ) ;
#553 = STYLED_ITEM ( 'NONE', ( #123 ), #267 ) ;
#554 = DIRECTION ( 'NONE',  ( 0.000000000000000000, -1.000000000000000000, 0.000000000000000000 ) ) ;
#555 = ORIENTED_EDGE ( 'NONE', *, *, #58, .F. ) ;
#556 = DIRECTION ( 'NONE',  ( 0.000000000000000000, -1.000000000000000000, 0.000000000000000000 ) ) ;
#557 = ADVANCED_FACE ( 'NONE', ( #137 ), #192, .T. ) ;
#558 = FACE_OUTER_BOUND ( 'NONE', #1, .T. ) ;
#559 = EDGE_LOOP ( 'NONE', ( #439, #450, #208, #266 ) ) ;
#560 = CYLINDRICAL_SURFACE ( 'NONE', #459, 2.000000000000000000 ) ;
#561 =( NAMED_UNIT ( * ) SI_UNIT ( $, .STERADIAN. ) SOLID_ANGLE_UNIT ( ) );
#562 = DIRECTION ( 'NONE',  ( 0.000000000000000000, 0.000000000000000000, -1.000000000000000000 ) ) ;
#563 = SURFACE_SIDE_STYLE ('',( #352 ) ) ;
#564 = AXIS2_PLACEMENT_3D ( 'NONE', #550, #604, #602 ) ;
#565 = COLOUR_RGB ( '',0.9686274509803921573, 0.2588235294117646745, 0.2588235294117646745 ) ;
#566 = CARTESIAN_POINT ( 'NONE',  ( -1.000000000000000888, 0.000000000000000000, 0.9999999999999997780 ) ) ;
#567 = CARTESIAN_POINT ( 'NONE',  ( -15.00000000000000000, 3.000000000000000000, 1.084183805627360551E-13 ) ) ;
#568 = SURFACE_STYLE_FILL_AREA ( #144 ) ;
#569 = EDGE_CURVE ( 'NONE', #605, #14, #299, .T. ) ;
#570 = DIRECTION ( 'NONE',  ( -1.000000000000000000, 0.000000000000000000, 7.256926541169644063E-15 ) ) ;
#571 = CARTESIAN_POINT ( 'NONE',  ( 13.00000000000000178, 12.00000000000000000, 2.000000000000000000 ) ) ;
#572 = FILL_AREA_STYLE_COLOUR ( '', #508 ) ;
#573 = CIRCLE ( 'NONE', #320, 0.9999999999999997780 ) ;
#574 = SURFACE_SIDE_STYLE ('',( #625 ) ) ;
#575 = CIRCLE ( 'NONE', #23, 0.9999999999999997780 ) ;
#576 = ADVANCED_BREP_SHAPE_REPRESENTATION ( 'Rod new lip middle up', ( #442, #35 ), #206 ) ;
#577 = DIRECTION ( 'NONE',  ( 1.000000000000000000, 0.000000000000000000, 0.000000000000000000 ) ) ;
#578 = CARTESIAN_POINT ( 'NONE',  ( 13.00000000000000178, 3.000000000000000000, 2.000000000000000000 ) ) ;
#579 = EDGE_LOOP ( 'NONE', ( #480, #291 ) ) ;
#580 = VECTOR ( 'NONE', #46, 1000.000000000000000 ) ;
#581 = FACE_OUTER_BOUND ( 'NONE', #175, .T. ) ;
#582 = AXIS2_PLACEMENT_3D ( 'NONE', #520, #148, #562 ) ;
#583 = PRESENTATION_LAYER_ASSIGNMENT (  '', '', ( #664 ) ) ;
#584 = EDGE_LOOP ( 'NONE', ( #527, #6 ) ) ;
#585 = SURFACE_STYLE_USAGE ( .BOTH. , #166 ) ;
#586 = EDGE_CURVE ( 'NONE', #386, #635, #70, .T. ) ;
#587 = FILL_AREA_STYLE ('',( #368 ) ) ;
#588 = CARTESIAN_POINT ( 'NONE',  ( 16.00000000000000000, 12.00000000000000000, 0.000000000000000000 ) ) ;
#589 = DIRECTION ( 'NONE',  ( 0.000000000000000000, 0.000000000000000000, 1.000000000000000000 ) ) ;
#590 = UNCERTAINTY_MEASURE_WITH_UNIT (LENGTH_MEASURE( 1.000000000000000082E-05 ), #526, 'distance_accuracy_value', 'NONE');
#591 = DIRECTION ( 'NONE',  ( 0.000000000000000000, 0.000000000000000000, 1.000000000000000000 ) ) ;
#592 = VERTEX_POINT ( 'NONE', #246 ) ;
#593 = DIRECTION ( 'NONE',  ( 7.256926541169644063E-15, -0.000000000000000000, 1.000000000000000000 ) ) ;
#594 = EDGE_CURVE ( 'NONE', #20, #426, #456, .T. ) ;
#595 = FILL_AREA_STYLE ('',( #340 ) ) ;
#596 = CIRCLE ( 'NONE', #582, 1.000000000000001554 ) ;
#597 = ORIENTED_EDGE ( 'NONE', *, *, #167, .T. ) ;
#598 = DIRECTION ( 'NONE',  ( 0.000000000000000000, 0.000000000000000000, 1.000000000000000000 ) ) ;
#599 = VECTOR ( 'NONE', #577, 1000.000000000000000 ) ;
#600 =( LENGTH_UNIT ( ) NAMED_UNIT ( * ) SI_UNIT ( .MILLI., .METRE. ) );
#601 = EDGE_LOOP ( 'NONE', ( #213, #597, #273, #661 ) ) ;
#602 = DIRECTION ( 'NONE',  ( 0.000000000000000000, 0.000000000000000000, 1.000000000000000000 ) ) ;
#603 = VERTEX_POINT ( 'NONE', #571 ) ;
#604 = DIRECTION ( 'NONE',  ( -0.000000000000000000, 1.000000000000000000, -0.000000000000000000 ) ) ;
#605 = VERTEX_POINT ( 'NONE', #95 ) ;
#606 = EDGE_CURVE ( 'NONE', #30, #388, #575, .T. ) ;
#607 =( GEOMETRIC_REPRESENTATION_CONTEXT ( 3 ) GLOBAL_UNCERTAINTY_ASSIGNED_CONTEXT ( ( #466 ) ) GLOBAL_UNIT_ASSIGNED_CONTEXT ( ( #600, #490, #561 ) ) REPRESENTATION_CONTEXT ( 'NONE', 'WORKASPACE' ) );
#608 =( GEOMETRIC_REPRESENTATION_CONTEXT ( 3 ) GLOBAL_UNCERTAINTY_ASSIGNED_CONTEXT ( ( #638 ) ) GLOBAL_UNIT_ASSIGNED_CONTEXT ( ( #275, #222, #47 ) ) REPRESENTATION_CONTEXT ( 'NONE', 'WORKASPACE' ) );
#609 = VERTEX_POINT ( 'NONE', #251 ) ;
#610 =( NAMED_UNIT ( * ) PLANE_ANGLE_UNIT ( ) SI_UNIT ( $, .RADIAN. ) );
#611 = CARTESIAN_POINT ( 'NONE',  ( -1.451385308233929128E-14, 3.000000000000000000, -2.000000000000000000 ) ) ;
#612 = ORIENTED_EDGE ( 'NONE', *, *, #343, .F. ) ;
#613 = EDGE_CURVE ( 'NONE', #422, #603, #460, .T. ) ;
#614 = FILL_AREA_STYLE ('',( #293 ) ) ;
#615 =( NAMED_UNIT ( * ) PLANE_ANGLE_UNIT ( ) SI_UNIT ( $, .RADIAN. ) );
#616 = CARTESIAN_POINT ( 'NONE',  ( -1.000000000000000888, 3.000000000000000000, 0.9999999999999997780 ) ) ;
#617 = DIRECTION ( 'NONE',  ( 0.000000000000000000, 1.000000000000000000, 0.000000000000000000 ) ) ;
#618 = EDGE_CURVE ( 'NONE', #119, #233, #531, .T. ) ;
#619 = AXIS2_PLACEMENT_3D ( 'NONE', #182, #179, #71 ) ;
#620 = FILL_AREA_STYLE_COLOUR ( '', #407 ) ;
#621 = PRESENTATION_LAYER_ASSIGNMENT (  '', '', ( #472 ) ) ;
#622 = PRESENTATION_LAYER_ASSIGNMENT (  '', '', ( #366 ) ) ;
#623 = CARTESIAN_POINT ( 'NONE',  ( -15.00000000000000000, 3.000000000000000000, -0.9999999999998930855 ) ) ;
#624 = CARTESIAN_POINT ( 'NONE',  ( 1.451385308233929128E-14, 3.000000000000000000, 2.000000000000000000 ) ) ;
#625 = SURFACE_STYLE_FILL_AREA ( #523 ) ;
#626 = DIRECTION ( 'NONE',  ( -1.000000000000000000, 0.000000000000000000, 0.000000000000000000 ) ) ;
#627 =( NAMED_UNIT ( * ) SI_UNIT ( $, .STERADIAN. ) SOLID_ANGLE_UNIT ( ) );
#628 = DIRECTION ( 'NONE',  ( -0.000000000000000000, -1.000000000000000000, -0.000000000000000000 ) ) ;
#629 =( NAMED_UNIT ( * ) PLANE_ANGLE_UNIT ( ) SI_UNIT ( $, .RADIAN. ) );
#630 = DIRECTION ( 'NONE',  ( -0.000000000000000000, 1.000000000000000000, -0.000000000000000000 ) ) ;
#631 = AXIS2_PLACEMENT_3D ( 'NONE', #328, #67, #591 ) ;
#632 = MECHANICAL_DESIGN_GEOMETRIC_PRESENTATION_REPRESENTATION (  '', ( #664 ), #418 ) ;
#633 =( LENGTH_UNIT ( ) NAMED_UNIT ( * ) SI_UNIT ( .MILLI., .METRE. ) );
#634 = SHAPE_DEFINITION_REPRESENTATION ( #168, #576 ) ;
#635 = VERTEX_POINT ( 'NONE', #15 ) ;
#636 = ORIENTED_EDGE ( 'NONE', *, *, #351, .T. ) ;
#637 = FILL_AREA_STYLE_COLOUR ( '', #205 ) ;
#638 = UNCERTAINTY_MEASURE_WITH_UNIT (LENGTH_MEASURE( 1.000000000000000082E-05 ), #275, 'distance_accuracy_value', 'NONE');
#639 = MECHANICAL_DESIGN_GEOMETRIC_PRESENTATION_REPRESENTATION (  '', ( #553 ), #437 ) ;
#640 = ORIENTED_EDGE ( 'NONE', *, *, #414, .F. ) ;
#641 = COLOUR_RGB ( '',0.9686274509803921573, 0.2588235294117646745, 0.2588235294117646745 ) ;
#642 = PRODUCT_DEFINITION_FORMATION_WITH_SPECIFIED_SOURCE ( 'Symmetric', '', #486, .NOT_KNOWN. ) ;
#643 = FILL_AREA_STYLE ('',( #219 ) ) ;
#644 = FILL_AREA_STYLE_COLOUR ( '', #373 ) ;
#645 = ORIENTED_EDGE ( 'NONE', *, *, #237, .F. ) ;
#646 = DIRECTION ( 'NONE',  ( -1.000000000000000000, 0.000000000000000000, 7.256926541169644063E-15 ) ) ;
#647 = DIRECTION ( 'NONE',  ( 0.000000000000000000, 1.000000000000000000, 0.000000000000000000 ) ) ;
#648 =( NAMED_UNIT ( * ) PLANE_ANGLE_UNIT ( ) SI_UNIT ( $, .RADIAN. ) );
#649 = VERTEX_POINT ( 'NONE', #159 ) ;
#650 = CYLINDRICAL_SURFACE ( 'NONE', #619, 0.9999999999999997780 ) ;
#651 = ORIENTED_EDGE ( 'NONE', *, *, #167, .F. ) ;
#652 =( GEOMETRIC_REPRESENTATION_CONTEXT ( 3 ) GLOBAL_UNCERTAINTY_ASSIGNED_CONTEXT ( ( #590 ) ) GLOBAL_UNIT_ASSIGNED_CONTEXT ( ( #526, #323, #105 ) ) REPRESENTATION_CONTEXT ( 'NONE', 'WORKASPACE' ) );
#653 = PRESENTATION_STYLE_ASSIGNMENT (( #201 ) ) ;
#654 = VECTOR ( 'NONE', #310, 1000.000000000000000 ) ;
#655 = ORIENTED_EDGE ( 'NONE', *, *, #547, .F. ) ;
#656 = SURFACE_SIDE_STYLE ('',( #347 ) ) ;
#657 = EDGE_LOOP ( 'NONE', ( #645, #336 ) ) ;
#658 = EDGE_CURVE ( 'NONE', #119, #422, #57, .T. ) ;
#659 = DIRECTION ( 'NONE',  ( 0.000000000000000000, 0.000000000000000000, 1.000000000000000000 ) ) ;
#660 =( NAMED_UNIT ( * ) PLANE_ANGLE_UNIT ( ) SI_UNIT ( $, .RADIAN. ) );
#661 = ORIENTED_EDGE ( 'NONE', *, *, #479, .T. ) ;
#662 = FILL_AREA_STYLE ('',( #400 ) ) ;
#663 = MECHANICAL_DESIGN_GEOMETRIC_PRESENTATION_REPRESENTATION (  '', ( #173 ), #353 ) ;
#664 = STYLED_ITEM ( 'NONE', ( #403 ), #371 ) ;
#665 = VECTOR ( 'NONE', #104, 1000.000000000000000 ) ;
#666 =( GEOMETRIC_REPRESENTATION_CONTEXT ( 3 ) GLOBAL_UNCERTAINTY_ASSIGNED_CONTEXT ( ( #198 ) ) GLOBAL_UNIT_ASSIGNED_CONTEXT ( ( #214, #534, #330 ) ) REPRESENTATION_CONTEXT ( 'NONE', 'WORKASPACE' ) );
#667 = FACE_OUTER_BOUND ( 'NONE', #474, .T. ) ;
#668 = CYLINDRICAL_SURFACE ( 'NONE', #250, 0.9999999999999997780 ) ;
#669 = PLANE ( 'NONE',  #438 ) ;
#670 = LINE ( 'NONE', #189, #687 ) ;
#671 = FILL_AREA_STYLE ('',( #440 ) ) ;
#672 = EDGE_CURVE ( 'NONE', #329, #132, #543, .T. ) ;
#673 = EDGE_LOOP ( 'NONE', ( #551, #292 ) ) ;
#674 =( NAMED_UNIT ( * ) SI_UNIT ( $, .STERADIAN. ) SOLID_ANGLE_UNIT ( ) );
#675 = AXIS2_PLACEMENT_3D ( 'NONE', #91, #254, #360 ) ;
#676 = CARTESIAN_POINT ( 'NONE',  ( 0.000000000000000000, 3.000000000000000000, 0.000000000000000000 ) ) ;
#677 = PRESENTATION_STYLE_ASSIGNMENT (( #458 ) ) ;
#678 = CARTESIAN_POINT ( 'NONE',  ( 16.00000000000000000, 12.00000000000000000, 2.000000000000000000 ) ) ;
#679 = EDGE_CURVE ( 'NONE', #269, #132, #2, .T. ) ;
#680 = FACE_BOUND ( 'NONE', #584, .T. ) ;
#681 = ORIENTED_EDGE ( 'NONE', *, *, #115, .T. ) ;
#682 = ADVANCED_FACE ( 'NONE', ( #325 ), #481, .F. ) ;
#683 = UNCERTAINTY_MEASURE_WITH_UNIT (LENGTH_MEASURE( 1.000000000000000082E-05 ), #178, 'distance_accuracy_value', 'NONE');
#684 = FACE_OUTER_BOUND ( 'NONE', #243, .T. ) ;
#685 = CARTESIAN_POINT ( 'NONE',  ( -1.000000000000000888, 0.000000000000000000, 0.9999999999999997780 ) ) ;
#686 = CARTESIAN_POINT ( 'NONE',  ( 16.00000000000000000, 0.000000000000000000, 0.000000000000000000 ) ) ;
#687 = VECTOR ( 'NONE', #515, 1000.000000000000000 ) ;
#688 = PRESENTATION_LAYER_ASSIGNMENT (  '', '', ( #252 ) ) ;
#689 = MECHANICAL_DESIGN_GEOMETRIC_PRESENTATION_REPRESENTATION (  '', ( #278 ), #666 ) ;
ENDSEC;
END-ISO-10303-21;
