ISO-10303-21;
HEADER;
FILE_DESCRIPTION (( 'STEP AP214' ),
    '1' );
FILE_NAME ('Servo holder - Mouth 2.STEP',
    '2025-10-21T18:57:07',
    ( 'Windows User' ),
    ( '' ),
    'SwSTEP 2.0',
    'SolidWorks 2023',
    '' );
FILE_SCHEMA (( 'AUTOMOTIVE_DESIGN' ));
ENDSEC;

DATA;
#1 = DIRECTION ( 'NONE',  ( -0.000000000000000000, 1.000000000000000000, -0.000000000000000000 ) ) ;
#2 = FACE_OUTER_BOUND ( 'NONE', #650, .T. ) ;
#3 = ORIENTED_EDGE ( 'NONE', *, *, #143, .F. ) ;
#4 = LINE ( 'NONE', #261, #12 ) ;
#5 = EDGE_CURVE ( 'NONE', #711, #693, #488, .T. ) ;
#6 = VERTEX_POINT ( 'NONE', #476 ) ;
#7 = DIRECTION ( 'NONE',  ( 1.000000000000000000, -0.000000000000000000, 0.000000000000000000 ) ) ;
#8 = CARTESIAN_POINT ( 'NONE',  ( 14.28249180386698214, 2.466392983102046799, -0.5627192073624137647 ) ) ;
#9 = EDGE_LOOP ( 'NONE', ( #528, #367 ) ) ;
#10 = VECTOR ( 'NONE', #147, 1000.000000000000000 ) ;
#11 = DIRECTION ( 'NONE',  ( 0.000000000000000000, 0.000000000000000000, -1.000000000000000000 ) ) ;
#12 = VECTOR ( 'NONE', #264, 1000.000000000000227 ) ;
#13 = DIRECTION ( 'NONE',  ( -0.000000000000000000, -0.000000000000000000, 1.000000000000000000 ) ) ;
#14 = DIRECTION ( 'NONE',  ( 0.7455767157236693476, 0.4130910679394486640, -0.5229446725604466328 ) ) ;
#15 = CARTESIAN_POINT ( 'NONE',  ( 19.39680914045992921, 0.000000000000000000, -8.673617379884035472E-16 ) ) ;
#16 = LINE ( 'NONE', #582, #658 ) ;
#17 = DIRECTION ( 'NONE',  ( 0.7455767157236693476, 0.4130910679394486640, -0.5229446725604466328 ) ) ;
#18 = ORIENTED_EDGE ( 'NONE', *, *, #285, .F. ) ;
#19 = PRODUCT ( 'Servo holder - Mouth 2', 'Servo holder - Mouth 2', '', ( #21 ) ) ;
#20 = LINE ( 'NONE', #642, #94 ) ;
#21 = PRODUCT_CONTEXT ( 'NONE', #321, 'mechanical' ) ;
#22 = VERTEX_POINT ( 'NONE', #283 ) ;
#23 = VERTEX_POINT ( 'NONE', #407 ) ;
#24 = VECTOR ( 'NONE', #127, 1000.000000000000000 ) ;
#25 = CARTESIAN_POINT ( 'NONE',  ( 2.000000000000000444, 4.000000000000000000, -2.000000000000000000 ) ) ;
#26 = AXIS2_PLACEMENT_3D ( 'NONE', #73, #7, #326 ) ;
#27 = EDGE_CURVE ( 'NONE', #370, #591, #92, .T. ) ;
#28 = DIRECTION ( 'NONE',  ( -0.5742292462298663747, 0.000000000000000000, -0.8186945540152807954 ) ) ;
#29 = ORIENTED_EDGE ( 'NONE', *, *, #794, .F. ) ;
#30 = CARTESIAN_POINT ( 'NONE',  ( 12.57741678230768834, 0.8726859697632599611, -4.252613125416067952 ) ) ;
#31 = ADVANCED_FACE ( 'NONE', ( #155 ), #706, .F. ) ;
#32 = EDGE_LOOP ( 'NONE', ( #222, #505, #485, #29 ) ) ;
#33 = EDGE_LOOP ( 'NONE', ( #394, #797, #419 ) ) ;
#34 =( BOUNDED_CURVE ( )  B_SPLINE_CURVE ( 3, ( #396, #529, #526, #270 ),
 .UNSPECIFIED., .F., .F. ) 
 B_SPLINE_CURVE_WITH_KNOTS ( ( 4, 4 ),
 ( 0.8558951418920819343, 0.8592501051012447766 ),
 .UNSPECIFIED. ) 
 CURVE ( )  GEOMETRIC_REPRESENTATION_ITEM ( )  RATIONAL_B_SPLINE_CURVE ( ( 1.000000000000000000, 0.9999990620187086954, 0.9999990620187086954, 1.000000000000000000 ) ) 
 REPRESENTATION_ITEM ( '' )  );
#35 = CARTESIAN_POINT ( 'NONE',  ( 0.000000000000000000, 0.000000000000000000, 0.000000000000000000 ) ) ;
#36 = CARTESIAN_POINT ( 'NONE',  ( 2.000000000000000000, 0.000000000000000000, -6.000000000000000000 ) ) ;
#37 = EDGE_LOOP ( 'NONE', ( #541, #787, #328 ) ) ;
#38 = AXIS2_PLACEMENT_3D ( 'NONE', #719, #208, #28 ) ;
#39 =( NAMED_UNIT ( * ) SI_UNIT ( $, .STERADIAN. ) SOLID_ANGLE_UNIT ( ) );
#40 = CIRCLE ( 'NONE', #239, 1.149999999999999245 ) ;
#41 = AXIS2_PLACEMENT_3D ( 'NONE', #282, #470, #160 ) ;
#42 = DIRECTION ( 'NONE',  ( 0.000000000000000000, 0.000000000000000000, 1.000000000000000000 ) ) ;
#43 = ORIENTED_EDGE ( 'NONE', *, *, #675, .F. ) ;
#44 = LINE ( 'NONE', #717, #402 ) ;
#45 = DIRECTION ( 'NONE',  ( 0.000000000000000000, 0.000000000000000000, 1.000000000000000000 ) ) ;
#46 = VERTEX_POINT ( 'NONE', #590 ) ;
#47 = CARTESIAN_POINT ( 'NONE',  ( 10.67689949093090540, 0.000000000000000000, -5.057146861588440068 ) ) ;
#48 = DIRECTION ( 'NONE',  ( -0.5742292462298663747, 0.000000000000000000, -0.8186945540152807954 ) ) ;
#49 = VERTEX_POINT ( 'NONE', #762 ) ;
#50 = CARTESIAN_POINT ( 'NONE',  ( 13.48020743132392063, 2.021882711716673331, -4.336808689942017736E-16 ) ) ;
#51 = CIRCLE ( 'NONE', #335, 1.000000000000000222 ) ;
#52 = DIRECTION ( 'NONE',  ( -0.7455767157236693476, -0.4130910679394485530, 0.5229446725604466328 ) ) ;
#53 = VECTOR ( 'NONE', #516, 1000.000000000000114 ) ;
#54 = EDGE_CURVE ( 'NONE', #693, #711, #581, .T. ) ;
#55 = ORIENTED_EDGE ( 'NONE', *, *, #117, .T. ) ;
#56 = FACE_OUTER_BOUND ( 'NONE', #37, .T. ) ;
#57 = ADVANCED_FACE ( 'NONE', ( #149 ), #85, .F. ) ;
#58 = LINE ( 'NONE', #87, #570 ) ;
#59 = DIRECTION ( 'NONE',  ( 0.7455767157236693476, 0.4130910679394485530, -0.5229446725604466328 ) ) ;
#60 = ORIENTED_EDGE ( 'NONE', *, *, #205, .F. ) ;
#61 = CARTESIAN_POINT ( 'NONE',  ( 5.955887309171656874, -4.068630589650826579, 5.277529514450715276 ) ) ;
#62 = CARTESIAN_POINT ( 'NONE',  ( 16.03399340007767293, 0.000000000000000000, 0.000000000000000000 ) ) ;
#63 = EDGE_CURVE ( 'NONE', #384, #602, #253, .T. ) ;
#64 = CARTESIAN_POINT ( 'NONE',  ( 16.03751265246174640, 0.000000000000000000, -0.004211985505221498872 ) ) ;
#65 = VERTEX_POINT ( 'NONE', #339 ) ;
#66 = CARTESIAN_POINT ( 'NONE',  ( 5.955887309171658650, -4.068630589650826579, 5.277529514450714387 ) ) ;
#67 = VECTOR ( 'NONE', #297, 1000.000000000000114 ) ;
#68 = AXIS2_PLACEMENT_3D ( 'NONE', #425, #735, #493 ) ;
#69 = LINE ( 'NONE', #323, #164 ) ;
#70 = AXIS2_PLACEMENT_3D ( 'NONE', #696, #448, #577 ) ;
#71 = ORIENTED_EDGE ( 'NONE', *, *, #93, .T. ) ;
#72 = EDGE_CURVE ( 'NONE', #688, #6, #471, .T. ) ;
#73 = CARTESIAN_POINT ( 'NONE',  ( 0.000000000000000000, 4.000000000000000000, 0.000000000000000000 ) ) ;
#74 = EDGE_CURVE ( 'NONE', #65, #204, #569, .T. ) ;
#75 = ORIENTED_EDGE ( 'NONE', *, *, #579, .T. ) ;
#76 = FACE_BOUND ( 'NONE', #9, .T. ) ;
#77 = ORIENTED_EDGE ( 'NONE', *, *, #330, .T. ) ;
#78 = DIRECTION ( 'NONE',  ( 0.7455767157236693476, 0.4130910679394486640, -0.5229446725604465218 ) ) ;
#79 = DIRECTION ( 'NONE',  ( -0.5742292462298657085, -7.589415207398535968E-16, -0.8186945540152812395 ) ) ;
#80 = ORIENTED_EDGE ( 'NONE', *, *, #776, .T. ) ;
#81 = CIRCLE ( 'NONE', #530, 1.000000000000001110 ) ;
#82 = CARTESIAN_POINT ( 'NONE',  ( 16.16404631030646399, 1.905413639611884147, -3.103891144771342425 ) ) ;
#83 = CARTESIAN_POINT ( 'NONE',  ( 7.534049906540855268, 2.168404344971008868E-16, -0.7152147815177068990 ) ) ;
#84 =( BOUNDED_CURVE ( )  B_SPLINE_CURVE ( 3, ( #674, #64, #808, #630 ),
 .UNSPECIFIED., .F., .F. ) 
 B_SPLINE_CURVE_WITH_KNOTS ( ( 4, 4 ),
 ( 0.9913240536371081824, 0.9935642615381429232 ),
 .UNSPECIFIED. ) 
 CURVE ( )  GEOMETRIC_REPRESENTATION_ITEM ( )  RATIONAL_B_SPLINE_CURVE ( ( 1.000000000000000000, 0.9999995817890903194, 0.9999995817890903194, 1.000000000000000000 ) ) 
 REPRESENTATION_ITEM ( '' )  );
#85 = CYLINDRICAL_SURFACE ( 'NONE', #38, 1.750000000000002887 ) ;
#86 = ORIENTED_EDGE ( 'NONE', *, *, #54, .T. ) ;
#87 = CARTESIAN_POINT ( 'NONE',  ( 13.14527794029878294, 11.28321685508681682, 0.000000000000000000 ) ) ;
#88 = EDGE_LOOP ( 'NONE', ( #331, #356, #547, #621 ) ) ;
#89 = ORIENTED_EDGE ( 'NONE', *, *, #539, .T. ) ;
#90 = PRODUCT_RELATED_PRODUCT_CATEGORY ( 'part', '', ( #19 ) ) ;
#91 = FILL_AREA_STYLE ('',( #646 ) ) ;
#92 = LINE ( 'NONE', #524, #400 ) ;
#93 = EDGE_CURVE ( 'NONE', #427, #708, #99, .T. ) ;
#94 = VECTOR ( 'NONE', #682, 1000.000000000000000 ) ;
#95 = LINE ( 'NONE', #781, #669 ) ;
#96 = CIRCLE ( 'NONE', #174, 1.149999999999999911 ) ;
#97 = EDGE_CURVE ( 'NONE', #111, #6, #289, .T. ) ;
#98 = PRODUCT_DEFINITION_SHAPE ( 'NONE', 'NONE',  #798 ) ;
#99 = LINE ( 'NONE', #351, #806 ) ;
#100 = ORIENTED_EDGE ( 'NONE', *, *, #699, .F. ) ;
#101 = DIRECTION ( 'NONE',  ( -0.7455767157236693476, -0.4130910679394485530, 0.5229446725604466328 ) ) ;
#102 = DIRECTION ( 'NONE',  ( 0.7455767157236693476, 0.4130910679394485530, -0.5229446725604466328 ) ) ;
#103 = ORIENTED_EDGE ( 'NONE', *, *, #720, .F. ) ;
#104 = DIRECTION ( 'NONE',  ( -0.7455767157236693476, -0.4130910679394485530, 0.5229446725604466328 ) ) ;
#105 = UNCERTAINTY_MEASURE_WITH_UNIT (LENGTH_MEASURE( 1.000000000000000082E-05 ), #426, 'distance_accuracy_value', 'NONE');
#106 = DIRECTION ( 'NONE',  ( -0.5742292462298662636, 0.000000000000000000, -0.8186945540152809064 ) ) ;
#107 = ORIENTED_EDGE ( 'NONE', *, *, #513, .T. ) ;
#108 = LINE ( 'NONE', #35, #461 ) ;
#109 = VECTOR ( 'NONE', #502, 1000.000000000000000 ) ;
#110 = FACE_BOUND ( 'NONE', #412, .T. ) ;
#111 = VERTEX_POINT ( 'NONE', #673 ) ;
#112 = LINE ( 'NONE', #492, #451 ) ;
#113 = CARTESIAN_POINT ( 'NONE',  ( 2.000000000000000444, 0.000000000000000000, -2.000000000000000000 ) ) ;
#114 = DIRECTION ( 'NONE',  ( 0.7455767157236692366, 0.4130910679394485530, -0.5229446725604466328 ) ) ;
#115 = ORIENTED_EDGE ( 'NONE', *, *, #617, .F. ) ;
#116 = CYLINDRICAL_SURFACE ( 'NONE', #768, 1.000000000000000000 ) ;
#117 = EDGE_CURVE ( 'NONE', #560, #324, #604, .T. ) ;
#118 = EDGE_CURVE ( 'NONE', #522, #693, #287, .T. ) ;
#119 = CYLINDRICAL_SURFACE ( 'NONE', #211, 1.149999999999999911 ) ;
#120 = VERTEX_POINT ( 'NONE', #433 ) ;
#121 = CARTESIAN_POINT ( 'NONE',  ( 2.000000000000000000, 0.000000000000000000, -7.150000000000000355 ) ) ;
#122 = EDGE_CURVE ( 'NONE', #374, #540, #135, .T. ) ;
#123 = CARTESIAN_POINT ( 'NONE',  ( 14.75862900392339760, 2.319389566840296624, 2.168404344971008868E-16 ) ) ;
#124 = VECTOR ( 'NONE', #623, 1000.000000000000000 ) ;
#125 = VERTEX_POINT ( 'NONE', #363 ) ;
#126 = DIRECTION ( 'NONE',  ( 0.000000000000000000, 1.000000000000000000, 0.000000000000000000 ) ) ;
#127 = DIRECTION ( 'NONE',  ( 0.000000000000000000, 1.000000000000000000, -0.000000000000000000 ) ) ;
#128 = CARTESIAN_POINT ( 'NONE',  ( 5.381658062941790277, -4.068630589650826579, 4.458834960435433814 ) ) ;
#129 = ORIENTED_EDGE ( 'NONE', *, *, #263, .T. ) ;
#130 = CARTESIAN_POINT ( 'NONE',  ( 2.000000000000000000, 4.000000000000000000, 0.000000000000000000 ) ) ;
#131 = EDGE_CURVE ( 'NONE', #792, #810, #401, .T. ) ;
#132 = DIRECTION ( 'NONE',  ( 0.000000000000000000, 0.000000000000000000, 1.000000000000000000 ) ) ;
#133 = ORIENTED_EDGE ( 'NONE', *, *, #718, .F. ) ;
#134 = DIRECTION ( 'NONE',  ( -0.5742292462298665967, 0.000000000000000000, -0.8186945540152805734 ) ) ;
#135 = CIRCLE ( 'NONE', #389, 1.149999999999999911 ) ;
#136 = AXIS2_PLACEMENT_3D ( 'NONE', #417, #104, #353 ) ;
#137 = AXIS2_PLACEMENT_3D ( 'NONE', #201, #198, #134 ) ;
#138 = ORIENTED_EDGE ( 'NONE', *, *, #414, .F. ) ;
#139 = CARTESIAN_POINT ( 'NONE',  ( 4.233199570482057972, -4.068630589650828355, 2.821445852404871335 ) ) ;
#140 = ORIENTED_EDGE ( 'NONE', *, *, #496, .F. ) ;
#141 = FACE_OUTER_BOUND ( 'NONE', #533, .T. ) ;
#142 = CARTESIAN_POINT ( 'NONE',  ( 3.067128360892021899, -2.474923576312040296, 2.417867000382119436 ) ) ;
#143 = EDGE_CURVE ( 'NONE', #46, #125, #610, .T. ) ;
#144 = ORIENTED_EDGE ( 'NONE', *, *, #535, .T. ) ;
#145 = CYLINDRICAL_SURFACE ( 'NONE', #607, 2.000000000000000000 ) ;
#146 = ADVANCED_FACE ( 'NONE', ( #549 ), #228, .F. ) ;
#147 = DIRECTION ( 'NONE',  ( 0.5742292462298662636, 0.000000000000000000, 0.8186945540152809064 ) ) ;
#148 = VECTOR ( 'NONE', #731, 1000.000000000000000 ) ;
#149 = FACE_OUTER_BOUND ( 'NONE', #32, .T. ) ;
#150 = VECTOR ( 'NONE', #382, 1000.000000000000000 ) ;
#151 = ORIENTED_EDGE ( 'NONE', *, *, #496, .T. ) ;
#152 = AXIS2_PLACEMENT_3D ( 'NONE', #757, #751, #337 ) ;
#153 = DIRECTION ( 'NONE',  ( -0.9374456900226590950, -0.3481315530915585210, 0.000000000000000000 ) ) ;
#154 = APPLICATION_CONTEXT ( 'automotive_design' ) ;
#155 = FACE_OUTER_BOUND ( 'NONE', #702, .T. ) ;
#156 = ORIENTED_EDGE ( 'NONE', *, *, #54, .F. ) ;
#157 = VERTEX_POINT ( 'NONE', #480 ) ;
#158 = ADVANCED_FACE ( 'NONE', ( #235 ), #119, .F. ) ;
#159 = EDGE_LOOP ( 'NONE', ( #177, #435, #527, #77, #691, #464 ) ) ;
#160 = DIRECTION ( 'NONE',  ( 0.000000000000000000, -0.000000000000000000, -1.000000000000000000 ) ) ;
#161 = EDGE_LOOP ( 'NONE', ( #456, #430, #242, #140, #129, #643 ) ) ;
#162 = ORIENTED_EDGE ( 'NONE', *, *, #97, .F. ) ;
#163 = AXIS2_PLACEMENT_3D ( 'NONE', #66, #431, #193 ) ;
#164 = VECTOR ( 'NONE', #114, 1000.000000000000000 ) ;
#165 = ORIENTED_EDGE ( 'NONE', *, *, #205, .T. ) ;
#166 = PLANE ( 'NONE',  #684 ) ;
#167 = CARTESIAN_POINT ( 'NONE',  ( 14.44135857161686332, 1.905413639611883259, -5.559974806817186810 ) ) ;
#168 = VERTEX_POINT ( 'NONE', #355 ) ;
#169 = CARTESIAN_POINT ( 'NONE',  ( 12.73734577896449416, 0.000000000000000000, -4.713961057249197673 ) ) ;
#170 = DIRECTION ( 'NONE',  ( 0.000000000000000000, 1.000000000000000000, 0.000000000000000000 ) ) ;
#171 = EDGE_LOOP ( 'NONE', ( #352, #138, #596, #3, #236, #18, #295, #284, #224, #536, #100, #680, #726, #660, #624, #186 ) ) ;
#172 = LINE ( 'NONE', #424, #376 ) ;
#173 = VECTOR ( 'NONE', #561, 1000.000000000000000 ) ;
#174 = AXIS2_PLACEMENT_3D ( 'NONE', #627, #434, #132 ) ;
#175 = FACE_OUTER_BOUND ( 'NONE', #195, .T. ) ;
#176 = DIRECTION ( 'NONE',  ( 0.000000000000000000, 0.000000000000000000, 1.000000000000000000 ) ) ;
#177 = ORIENTED_EDGE ( 'NONE', *, *, #515, .F. ) ;
#178 = EDGE_CURVE ( 'NONE', #260, #712, #301, .T. ) ;
#179 = CARTESIAN_POINT ( 'NONE',  ( 16.03926884368780037, -7.589415207398531038E-16, -0.006317814389555182972 ) ) ;
#180 = CARTESIAN_POINT ( 'NONE',  ( 0.000000000000000000, 4.000000000000000000, -6.000000000000000000 ) ) ;
#181 = ADVANCED_FACE ( 'NONE', ( #110, #606, #175 ), #542, .T. ) ;
#182 = ORIENTED_EDGE ( 'NONE', *, *, #381, .T. ) ;
#183 = CARTESIAN_POINT ( 'NONE',  ( 2.000000000000000444, 0.000000000000000000, -0.8500000000000007550 ) ) ;
#184 = CARTESIAN_POINT ( 'NONE',  ( 12.73734577896449416, 0.000000000000000000, -4.713961057249197673 ) ) ;
#185 = APPLICATION_PROTOCOL_DEFINITION ( 'draft international standard', 'automotive_design', 1998, #321 ) ;
#186 = ORIENTED_EDGE ( 'NONE', *, *, #327, .F. ) ;
#187 = DIRECTION ( 'NONE',  ( 0.5742292462298662636, 0.000000000000000000, 0.8186945540152809064 ) ) ;
#188 = VECTOR ( 'NONE', #663, 1000.000000000000000 ) ;
#189 = AXIS2_PLACEMENT_3D ( 'NONE', #497, #677, #316 ) ;
#190 = LINE ( 'NONE', #686, #24 ) ;
#191 = CIRCLE ( 'NONE', #152, 2.000000000000000000 ) ;
#192 = VERTEX_POINT ( 'NONE', #739 ) ;
#193 = DIRECTION ( 'NONE',  ( -0.5742292462298663747, 0.000000000000000000, -0.8186945540152806844 ) ) ;
#194 = CARTESIAN_POINT ( 'NONE',  ( 8.035698833932773510, -0.000000000000000000, 0.000000000000000000 ) ) ;
#195 = EDGE_LOOP ( 'NONE', ( #212, #598, #209, #628 ) ) ;
#196 = DIRECTION ( 'NONE',  ( 0.000000000000000000, -0.000000000000000000, -1.000000000000000000 ) ) ;
#197 = ORIENTED_EDGE ( 'NONE', *, *, #330, .F. ) ;
#198 = DIRECTION ( 'NONE',  ( 0.7455767157236693476, 0.4130910679394485530, -0.5229446725604466328 ) ) ;
#199 = CIRCLE ( 'NONE', #307, 1.000000000000000222 ) ;
#200 = ORIENTED_EDGE ( 'NONE', *, *, #450, .F. ) ;
#201 = CARTESIAN_POINT ( 'NONE',  ( 14.87433376722715295, 0.8726859697632607382, -0.9778349093549441040 ) ) ;
#202 = ADVANCED_FACE ( 'NONE', ( #232 ), #779, .F. ) ;
#203 = CARTESIAN_POINT ( 'NONE',  ( 15.36256929945639271, 0.000000000000000000, -0.9711071127477609588 ) ) ;
#204 = VERTEX_POINT ( 'NONE', #429 ) ;
#205 = EDGE_CURVE ( 'NONE', #540, #374, #449, .T. ) ;
#206 = CARTESIAN_POINT ( 'NONE',  ( 15.03426276388396410, 0.000000000000000000, -1.439182841188069606 ) ) ;
#207 = DIRECTION ( 'NONE',  ( -0.7455767157236693476, -0.4130910679394485530, 0.5229446725604466328 ) ) ;
#208 = DIRECTION ( 'NONE',  ( 0.7455767157236692366, 0.4130910679394485530, -0.5229446725604466328 ) ) ;
#209 = ORIENTED_EDGE ( 'NONE', *, *, #354, .F. ) ;
#210 = EDGE_CURVE ( 'NONE', #408, #427, #325, .T. ) ;
#211 = AXIS2_PLACEMENT_3D ( 'NONE', #782, #487, #45 ) ;
#212 = ORIENTED_EDGE ( 'NONE', *, *, #515, .T. ) ;
#213 = CIRCLE ( 'NONE', #347, 0.9999999999999993339 ) ;
#214 = AXIS2_PLACEMENT_3D ( 'NONE', #272, #1, #443 ) ;
#215 = ORIENTED_EDGE ( 'NONE', *, *, #240, .F. ) ;
#216 = CARTESIAN_POINT ( 'NONE',  ( 6.945392423613048649, 0.000000000000000000, -1.554480072544736746 ) ) ;
#217 = EDGE_CURVE ( 'NONE', #204, #65, #199, .T. ) ;
#218 = VERTEX_POINT ( 'NONE', #180 ) ;
#219 = ORIENTED_EDGE ( 'NONE', *, *, #63, .T. ) ;
#220 = DIRECTION ( 'NONE',  ( -0.000000000000000000, 1.000000000000000000, -0.000000000000000000 ) ) ;
#221 = DIRECTION ( 'NONE',  ( 0.000000000000000000, 0.000000000000000000, 1.000000000000000000 ) ) ;
#222 = ORIENTED_EDGE ( 'NONE', *, *, #327, .T. ) ;
#223 = DIRECTION ( 'NONE',  ( 1.000000000000000000, 0.000000000000000000, 0.000000000000000000 ) ) ;
#224 = ORIENTED_EDGE ( 'NONE', *, *, #785, .F. ) ;
#225 = ORIENTED_EDGE ( 'NONE', *, *, #525, .F. ) ;
#226 = CARTESIAN_POINT ( 'NONE',  ( 0.000000000000000000, 4.000000000000000000, 0.000000000000000000 ) ) ;
#227 = CIRCLE ( 'NONE', #214, 2.000000000000000000 ) ;
#228 = CYLINDRICAL_SURFACE ( 'NONE', #707, 1.000000000000001110 ) ;
#229 = ORIENTED_EDGE ( 'NONE', *, *, #217, .F. ) ;
#230 = EDGE_CURVE ( 'NONE', #522, #615, #81, .T. ) ;
#231 = PLANE ( 'NONE',  #41 ) ;
#232 = FACE_OUTER_BOUND ( 'NONE', #161, .T. ) ;
#233 = ORIENTED_EDGE ( 'NONE', *, *, #5, .F. ) ;
#234 = DIRECTION ( 'NONE',  ( -0.000000000000000000, 1.000000000000000000, -0.000000000000000000 ) ) ;
#235 = FACE_OUTER_BOUND ( 'NONE', #251, .T. ) ;
#236 = ORIENTED_EDGE ( 'NONE', *, *, #799, .T. ) ;
#237 = AXIS2_PLACEMENT_3D ( 'NONE', #714, #14, #410 ) ;
#238 = DIRECTION ( 'NONE',  ( -0.000000000000000000, 1.000000000000000000, -0.000000000000000000 ) ) ;
#239 = AXIS2_PLACEMENT_3D ( 'NONE', #508, #126, #368 ) ;
#240 = EDGE_CURVE ( 'NONE', #120, #712, #58, .T. ) ;
#241 = DIRECTION ( 'NONE',  ( 0.7455767157236693476, 0.4130910679394486640, -0.5229446725604466328 ) ) ;
#242 = ORIENTED_EDGE ( 'NONE', *, *, #74, .T. ) ;
#243 = EDGE_CURVE ( 'NONE', #22, #120, #20, .T. ) ;
#244 = CYLINDRICAL_SURFACE ( 'NONE', #163, 1.750000000000001332 ) ;
#245 = DIRECTION ( 'NONE',  ( 0.000000000000000000, 1.000000000000000000, 0.000000000000000000 ) ) ;
#246 = DIRECTION ( 'NONE',  ( -0.5742292462298661526, 0.000000000000000000, -0.8186945540152809064 ) ) ;
#247 = ORIENTED_EDGE ( 'NONE', *, *, #699, .T. ) ;
#248 = CYLINDRICAL_SURFACE ( 'NONE', #189, 2.000000000000000000 ) ;
#249 = CARTESIAN_POINT ( 'NONE',  ( 2.000000000000000000, 0.000000000000000000, 0.000000000000000000 ) ) ;
#250 = DIRECTION ( 'NONE',  ( -0.5742292462298665967, 0.000000000000000000, -0.8186945540152805734 ) ) ;
#251 = EDGE_LOOP ( 'NONE', ( #225, #752, #257, #165 ) ) ;
#252 = DIRECTION ( 'NONE',  ( -0.000000000000000000, 1.000000000000000000, -0.000000000000000000 ) ) ;
#253 = CIRCLE ( 'NONE', #436, 1.000000000000000000 ) ;
#254 = CIRCLE ( 'NONE', #543, 1.000000000000000666 ) ;
#255 = VECTOR ( 'NONE', #78, 1000.000000000000114 ) ;
#256 = CARTESIAN_POINT ( 'NONE',  ( 2.000000000000000444, 0.000000000000000000, -0.8500000000000007550 ) ) ;
#257 = ORIENTED_EDGE ( 'NONE', *, *, #557, .T. ) ;
#258 = PLANE ( 'NONE',  #26 ) ;
#259 = PLANE ( 'NONE',  #809 ) ;
#260 = VERTEX_POINT ( 'NONE', #62 ) ;
#261 = CARTESIAN_POINT ( 'NONE',  ( 10.57973392999095452, 9.861762439044525763, 0.000000000000000000 ) ) ;
#262 = EDGE_LOOP ( 'NONE', ( #550, #219, #151, #511 ) ) ;
#263 = EDGE_CURVE ( 'NONE', #602, #408, #213, .T. ) ;
#264 = DIRECTION ( 'NONE',  ( 0.4846401232874369414, -0.8747136393700155610, 0.000000000000000000 ) ) ;
#265 = LINE ( 'NONE', #519, #507 ) ;
#266 = EDGE_CURVE ( 'NONE', #459, #298, #575, .T. ) ;
#267 = AXIS2_PLACEMENT_3D ( 'NONE', #306, #788, #748 ) ;
#268 = ORIENTED_EDGE ( 'NONE', *, *, #720, .T. ) ;
#269 = FACE_OUTER_BOUND ( 'NONE', #636, .T. ) ;
#270 = CARTESIAN_POINT ( 'NONE',  ( 16.03399340007767293, 0.000000000000000000, 0.000000000000000000 ) ) ;
#271 = DIRECTION ( 'NONE',  ( 0.7455767157236693476, 0.4130910679394486640, -0.5229446725604466328 ) ) ;
#272 = CARTESIAN_POINT ( 'NONE',  ( 2.000000000000000000, 4.000000000000000000, -6.000000000000000000 ) ) ;
#273 = DIRECTION ( 'NONE',  ( -0.3381954076343830495, 0.9106897219078767813, 0.2372089725671600036 ) ) ;
#274 = CARTESIAN_POINT ( 'NONE',  ( 2.654069143349925941, -4.068630589650827467, 0.5700358288628468717 ) ) ;
#275 = EDGE_CURVE ( 'NONE', #370, #522, #254, .T. ) ;
#276 = CARTESIAN_POINT ( 'NONE',  ( 13.92342238343364436, 2.186475830308566071, 0.000000000000000000 ) ) ;
#277 = DIRECTION ( 'NONE',  ( 0.5742292462298662636, 0.000000000000000000, 0.8186945540152807954 ) ) ;
#278 =( GEOMETRIC_REPRESENTATION_CONTEXT ( 3 ) GLOBAL_UNCERTAINTY_ASSIGNED_CONTEXT ( ( #380 ) ) GLOBAL_UNIT_ASSIGNED_CONTEXT ( ( #724, #668, #39 ) ) REPRESENTATION_CONTEXT ( 'NONE', 'WORKASPACE' ) );
#279 = SURFACE_SIDE_STYLE ('',( #784 ) ) ;
#280 = VERTEX_POINT ( 'NONE', #8 ) ;
#281 = EDGE_LOOP ( 'NONE', ( #404, #311, #773, #378, #775, #517, #215, #564, #89 ) ) ;
#282 = CARTESIAN_POINT ( 'NONE',  ( 0.000000000000000000, 4.000000000000000000, 0.000000000000000000 ) ) ;
#283 = CARTESIAN_POINT ( 'NONE',  ( 2.000000000000000000, 4.000000000000000000, 0.000000000000000000 ) ) ;
#284 = ORIENTED_EDGE ( 'NONE', *, *, #178, .F. ) ;
#285 = EDGE_CURVE ( 'NONE', #348, #780, #651, .T. ) ;
#286 = CARTESIAN_POINT ( 'NONE',  ( 2.000000000000000000, 4.000000000000000000, -7.150000000000000355 ) ) ;
#287 = LINE ( 'NONE', #359, #67 ) ;
#288 = EDGE_CURVE ( 'NONE', #764, #459, #16, .T. ) ;
#289 = CIRCLE ( 'NONE', #657, 1.750000000000003331 ) ;
#290 = VECTOR ( 'NONE', #187, 1000.000000000000000 ) ;
#291 = FACE_OUTER_BOUND ( 'NONE', #88, .T. ) ;
#292 =( GEOMETRIC_REPRESENTATION_CONTEXT ( 3 ) GLOBAL_UNCERTAINTY_ASSIGNED_CONTEXT ( ( #105 ) ) GLOBAL_UNIT_ASSIGNED_CONTEXT ( ( #426, #683, #687 ) ) REPRESENTATION_CONTEXT ( 'NONE', 'WORKASPACE' ) );
#293 = PRODUCT_DEFINITION_CONTEXT ( 'detailed design', #154, 'design' ) ;
#294 = DIRECTION ( 'NONE',  ( 0.000000000000000000, 0.000000000000000000, 1.000000000000000000 ) ) ;
#295 = ORIENTED_EDGE ( 'NONE', *, *, #354, .T. ) ;
#296 = DIRECTION ( 'NONE',  ( -1.000000000000000000, -0.000000000000000000, -0.000000000000000000 ) ) ;
#297 = DIRECTION ( 'NONE',  ( 0.7455767157236693476, 0.4130910679394486640, -0.5229446725604465218 ) ) ;
#298 = VERTEX_POINT ( 'NONE', #589 ) ;
#299 = DIRECTION ( 'NONE',  ( -0.000000000000000000, 1.000000000000000000, -0.000000000000000000 ) ) ;
#300 = ADVANCED_FACE ( 'NONE', ( #743 ), #377, .F. ) ;
#301 = LINE ( 'NONE', #613, #148 ) ;
#302 = EDGE_CURVE ( 'NONE', #423, #260, #34, .T. ) ;
#303 = CARTESIAN_POINT ( 'NONE',  ( 14.87433376722715295, 0.8726859697632607382, -0.9778349093549441040 ) ) ;
#304 = ORIENTED_EDGE ( 'NONE', *, *, #266, .F. ) ;
#305 = CLOSED_SHELL ( 'NONE', ( #57, #202, #146, #420, #332, #393, #803, #432, #619, #662, #31, #158, #697, #472, #181, #469, #592, #638, #481, #300, #391, #774 ) ) ;
#306 = CARTESIAN_POINT ( 'NONE',  ( 2.000000000000000444, 4.000000000000000000, -2.000000000000000000 ) ) ;
#307 = AXIS2_PLACEMENT_3D ( 'NONE', #167, #790, #418 ) ;
#308 = VECTOR ( 'NONE', #246, 1000.000000000000000 ) ;
#309 = CARTESIAN_POINT ( 'NONE',  ( 12.57741678230768834, 0.8726859697632599611, -4.252613125416067952 ) ) ;
#310 = CARTESIAN_POINT ( 'NONE',  ( 2.000000000000000000, 0.000000000000000000, -6.000000000000000000 ) ) ;
#311 = ORIENTED_EDGE ( 'NONE', *, *, #288, .T. ) ;
#312 = CARTESIAN_POINT ( 'NONE',  ( 11.51547293773008285, 4.000000000000000000, -8.076908918695147932 ) ) ;
#313 = CARTESIAN_POINT ( 'NONE',  ( 7.965757320106439110, 0.000000000000000000, -3.155562054972661734 ) ) ;
#314 = LINE ( 'NONE', #567, #308 ) ;
#315 = EDGE_LOOP ( 'NONE', ( #390, #770, #80, #777 ) ) ;
#316 = DIRECTION ( 'NONE',  ( 0.000000000000000000, 0.000000000000000000, -1.000000000000000000 ) ) ;
#317 = CARTESIAN_POINT ( 'NONE',  ( 13.00092028383988563, 0.000000000000000000, -9.118796037263749099 ) ) ;
#318 = LINE ( 'NONE', #383, #124 ) ;
#319 = ORIENTED_EDGE ( 'NONE', *, *, #553, .F. ) ;
#320 = LINE ( 'NONE', #672, #766 ) ;
#321 = APPLICATION_CONTEXT ( 'automotive_design' ) ;
#322 = CIRCLE ( 'NONE', #648, 2.000000000000000000 ) ;
#323 = CARTESIAN_POINT ( 'NONE',  ( 3.067128360892021899, -2.474923576312040296, 2.417867000382119436 ) ) ;
#324 = VERTEX_POINT ( 'NONE', #440 ) ;
#325 =( BOUNDED_CURVE ( )  B_SPLINE_CURVE ( 3, ( #184, #795, #498, #666 ),
 .UNSPECIFIED., .F., .F. ) 
 B_SPLINE_CURVE_WITH_KNOTS ( ( 4, 4 ),
 ( 5.993274106995830408, 6.573096507363342056 ),
 .UNSPECIFIED. ) 
 CURVE ( )  GEOMETRIC_REPRESENTATION_ITEM ( )  RATIONAL_B_SPLINE_CURVE ( ( 1.000000000000000000, 0.9721795094930906211, 0.9721795094930906211, 1.000000000000000000 ) ) 
 REPRESENTATION_ITEM ( '' )  );
#326 = DIRECTION ( 'NONE',  ( 0.000000000000000000, 0.000000000000000000, -1.000000000000000000 ) ) ;
#327 = EDGE_CURVE ( 'NONE', #168, #688, #565, .T. ) ;
#328 = ORIENTED_EDGE ( 'NONE', *, *, #302, .F. ) ;
#329 = PLANE ( 'NONE',  #491 ) ;
#330 = EDGE_CURVE ( 'NONE', #218, #750, #460, .T. ) ;
#331 = ORIENTED_EDGE ( 'NONE', *, *, #117, .F. ) ;
#332 = ADVANCED_FACE ( 'NONE', ( #523 ), #562, .F. ) ;
#333 = DIRECTION ( 'NONE',  ( -0.000000000000000000, -1.000000000000000000, 0.000000000000000000 ) ) ;
#334 = CARTESIAN_POINT ( 'NONE',  ( 14.35629616599972280, 2.287211706858928828, 0.000000000000000000 ) ) ;
#335 = AXIS2_PLACEMENT_3D ( 'NONE', #415, #101, #600 ) ;
#336 = ORIENTED_EDGE ( 'NONE', *, *, #723, .F. ) ;
#337 = DIRECTION ( 'NONE',  ( 0.000000000000000000, 0.000000000000000000, -1.000000000000000000 ) ) ;
#338 = CARTESIAN_POINT ( 'NONE',  ( 13.48020743132392063, 2.021882711716673331, -4.336808689942017736E-16 ) ) ;
#339 = CARTESIAN_POINT ( 'NONE',  ( 15.01558781784672902, 1.905413639611883259, -4.741280252801905348 ) ) ;
#340 = DIRECTION ( 'NONE',  ( 0.9374456900226590950, 0.3481315530915585210, 0.000000000000000000 ) ) ;
#341 = SHAPE_DEFINITION_REPRESENTATION ( #98, #366 ) ;
#342 = ORIENTED_EDGE ( 'NONE', *, *, #653, .T. ) ;
#343 = VERTEX_POINT ( 'NONE', #249 ) ;
#344 = FACE_OUTER_BOUND ( 'NONE', #405, .T. ) ;
#345 = AXIS2_PLACEMENT_3D ( 'NONE', #484, #558, #618 ) ;
#346 = DIRECTION ( 'NONE',  ( -0.000000000000000000, 1.000000000000000000, -0.000000000000000000 ) ) ;
#347 = AXIS2_PLACEMENT_3D ( 'NONE', #758, #767, #79 ) ;
#348 = VERTEX_POINT ( 'NONE', #503 ) ;
#349 = DIRECTION ( 'NONE',  ( -0.5742292462298662636, 0.000000000000000000, -0.8186945540152807954 ) ) ;
#350 = EDGE_CURVE ( 'NONE', #125, #750, #190, .T. ) ;
#351 = CARTESIAN_POINT ( 'NONE',  ( 10.75346285042301453, 0.000000000000000000, -7.542437941811474644 ) ) ;
#352 = ORIENTED_EDGE ( 'NONE', *, *, #729, .F. ) ;
#353 = DIRECTION ( 'NONE',  ( -0.5742292462298664857, 0.000000000000000000, -0.8186945540152806844 ) ) ;
#354 = EDGE_CURVE ( 'NONE', #348, #712, #626, .T. ) ;
#355 = CARTESIAN_POINT ( 'NONE',  ( 7.534049906540855268, 2.168404344971008868E-16, -0.7152147815177068990 ) ) ;
#356 = ORIENTED_EDGE ( 'NONE', *, *, #525, .T. ) ;
#357 = DIRECTION ( 'NONE',  ( -0.000000000000000000, 1.000000000000000000, -0.000000000000000000 ) ) ;
#358 = EDGE_CURVE ( 'NONE', #780, #192, #265, .T. ) ;
#359 = CARTESIAN_POINT ( 'NONE',  ( 6.530116555401524359, -4.068630589650826579, 6.096224068465996737 ) ) ;
#360 = MECHANICAL_DESIGN_GEOMETRIC_PRESENTATION_REPRESENTATION (  '', ( #605 ), #278 ) ;
#361 = ORIENTED_EDGE ( 'NONE', *, *, #583, .F. ) ;
#362 = FACE_BOUND ( 'NONE', #747, .T. ) ;
#363 = CARTESIAN_POINT ( 'NONE',  ( 0.000000000000000000, 0.000000000000000000, -2.000000000000000000 ) ) ;
#364 = MANIFOLD_SOLID_BREP ( 'Cut-Extrude4', #305 ) ;
#365 = EDGE_CURVE ( 'NONE', #810, #737, #95, .T. ) ;
#366 = ADVANCED_BREP_SHAPE_REPRESENTATION ( 'Servo holder - Mouth 2', ( #364, #478 ), #292 ) ;
#367 = ORIENTED_EDGE ( 'NONE', *, *, #553, .T. ) ;
#368 = DIRECTION ( 'NONE',  ( 0.000000000000000000, 0.000000000000000000, 1.000000000000000000 ) ) ;
#369 = DIRECTION ( 'NONE',  ( 0.000000000000000000, 1.000000000000000000, 0.000000000000000000 ) ) ;
#370 = VERTEX_POINT ( 'NONE', #203 ) ;
#371 = LINE ( 'NONE', #121, #422 ) ;
#372 =( BOUNDED_CURVE ( )  B_SPLINE_CURVE ( 3, ( #395, #760, #398, #644 ),
 .UNSPECIFIED., .F., .F. ) 
 B_SPLINE_CURVE_WITH_KNOTS ( ( 4, 4 ),
 ( 5.993274106995836625, 6.573096507363338503 ),
 .UNSPECIFIED. ) 
 CURVE ( )  GEOMETRIC_REPRESENTATION_ITEM ( )  RATIONAL_B_SPLINE_CURVE ( ( 1.000000000000000000, 0.9721795094930915093, 0.9721795094930915093, 1.000000000000000000 ) ) 
 REPRESENTATION_ITEM ( '' )  );
#373 = DIRECTION ( 'NONE',  ( -0.000000000000000000, -0.000000000000000000, 1.000000000000000000 ) ) ;
#374 = VERTEX_POINT ( 'NONE', #286 ) ;
#375 = LINE ( 'NONE', #130, #173 ) ;
#376 = VECTOR ( 'NONE', #299, 1000.000000000000000 ) ;
#377 = PLANE ( 'NONE',  #709 ) ;
#378 = ORIENTED_EDGE ( 'NONE', *, *, #675, .T. ) ;
#379 = FACE_OUTER_BOUND ( 'NONE', #537, .T. ) ;
#380 = UNCERTAINTY_MEASURE_WITH_UNIT (LENGTH_MEASURE( 1.000000000000000082E-05 ), #724, 'distance_accuracy_value', 'NONE');
#381 = EDGE_CURVE ( 'NONE', #23, #737, #730, .T. ) ;
#382 = DIRECTION ( 'NONE',  ( -1.000000000000000000, -0.000000000000000000, -0.000000000000000000 ) ) ;
#383 = CARTESIAN_POINT ( 'NONE',  ( 5.364045345811488730, -2.474923576312040741, 5.692645216443245282 ) ) ;
#384 = VERTEX_POINT ( 'NONE', #409 ) ;
#385 = LINE ( 'NONE', #183, #620 ) ;
#386 = DIRECTION ( 'NONE',  ( 0.7455767157236692366, 0.4130910679394485530, -0.5229446725604466328 ) ) ;
#387 = EDGE_LOOP ( 'NONE', ( #588, #55 ) ) ;
#388 = CYLINDRICAL_SURFACE ( 'NONE', #70, 1.750000000000001332 ) ;
#389 = AXIS2_PLACEMENT_3D ( 'NONE', #721, #170, #42 ) ;
#390 = ORIENTED_EDGE ( 'NONE', *, *, #118, .F. ) ;
#391 = ADVANCED_FACE ( 'NONE', ( #344 ), #661, .F. ) ;
#392 = LINE ( 'NONE', #640, #403 ) ;
#393 = ADVANCED_FACE ( 'NONE', ( #593 ), #166, .F. ) ;
#394 = ORIENTED_EDGE ( 'NONE', *, *, #72, .F. ) ;
#395 = CARTESIAN_POINT ( 'NONE',  ( 15.03426276388396410, 0.000000000000000000, -1.439182841188069606 ) ) ;
#396 = CARTESIAN_POINT ( 'NONE',  ( 16.03955857373456340, 0.007474989512443056330, 2.168404344971008868E-16 ) ) ;
#397 = EDGE_LOOP ( 'NONE', ( #482, #514 ) ) ;
#398 = CARTESIAN_POINT ( 'NONE',  ( 15.36576196592743138, 0.000000000000000000, -1.202798601764264896 ) ) ;
#399 = DIRECTION ( 'NONE',  ( -0.000000000000000000, 1.000000000000000000, -0.000000000000000000 ) ) ;
#400 = VECTOR ( 'NONE', #277, 1000.000000000000114 ) ;
#401 = CIRCLE ( 'NONE', #506, 1.149999999999999245 ) ;
#402 = VECTOR ( 'NONE', #296, 1000.000000000000000 ) ;
#403 = VECTOR ( 'NONE', #512, 1000.000000000000227 ) ;
#404 = ORIENTED_EDGE ( 'NONE', *, *, #414, .T. ) ;
#405 = EDGE_LOOP ( 'NONE', ( #631, #495, #568, #162, #413, #501, #667, #804, #71, #649, #465, #654, #573, #336, #43 ) ) ;
#406 = CARTESIAN_POINT ( 'NONE',  ( 14.87433376722715117, 0.8726859697632616264, -0.9778349093549423277 ) ) ;
#407 = CARTESIAN_POINT ( 'NONE',  ( 2.000000000000000444, 4.000000000000000000, -0.8500000000000007550 ) ) ;
#408 = VERTEX_POINT ( 'NONE', #169 ) ;
#409 = CARTESIAN_POINT ( 'NONE',  ( 13.15164602853755227, 0.8726859697632590729, -3.433918571400785602 ) ) ;
#410 = DIRECTION ( 'NONE',  ( -0.5742292462298653755, 0.000000000000000000, -0.8186945540152815726 ) ) ;
#411 = EDGE_CURVE ( 'NONE', #615, #708, #695, .T. ) ;
#412 = EDGE_LOOP ( 'NONE', ( #229, #783 ) ) ;
#413 = ORIENTED_EDGE ( 'NONE', *, *, #641, .T. ) ;
#414 = EDGE_CURVE ( 'NONE', #343, #764, #108, .T. ) ;
#415 = CARTESIAN_POINT ( 'NONE',  ( 12.57741678230768656, 0.8726859697632599611, -4.252613125416067952 ) ) ;
#416 = DIRECTION ( 'NONE',  ( -0.7455767157236693476, -0.4130910679394485530, 0.5229446725604466328 ) ) ;
#417 = CARTESIAN_POINT ( 'NONE',  ( 14.87433376722715117, 0.8726859697632616264, -0.9778349093549423277 ) ) ;
#418 = DIRECTION ( 'NONE',  ( -0.5742292462298670408, 0.000000000000000000, -0.8186945540152804623 ) ) ;
#419 = ORIENTED_EDGE ( 'NONE', *, *, #97, .T. ) ;
#420 = ADVANCED_FACE ( 'NONE', ( #291 ), #466, .F. ) ;
#421 = DIRECTION ( 'NONE',  ( -0.5742292462298664857, 0.000000000000000000, -0.8186945540152806844 ) ) ;
#422 = VECTOR ( 'NONE', #252, 1000.000000000000000 ) ;
#423 = VERTEX_POINT ( 'NONE', #603 ) ;
#424 = CARTESIAN_POINT ( 'NONE',  ( 2.000000000000000000, 0.000000000000000000, -4.850000000000000533 ) ) ;
#425 = CARTESIAN_POINT ( 'NONE',  ( 2.000000000000000000, 4.000000000000000000, -6.000000000000000000 ) ) ;
#426 =( LENGTH_UNIT ( ) NAMED_UNIT ( * ) SI_UNIT ( .MILLI., .METRE. ) );
#427 = VERTEX_POINT ( 'NONE', #545 ) ;
#428 = FACE_OUTER_BOUND ( 'NONE', #262, .T. ) ;
#429 = CARTESIAN_POINT ( 'NONE',  ( 13.86712932538699761, 1.905413639611882370, -6.378669360832466495 ) ) ;
#430 = ORIENTED_EDGE ( 'NONE', *, *, #665, .T. ) ;
#431 = DIRECTION ( 'NONE',  ( 0.7455767157236692366, 0.4130910679394485530, -0.5229446725604466328 ) ) ;
#432 = ADVANCED_FACE ( 'NONE', ( #474, #362, #713 ), #231, .F. ) ;
#433 = CARTESIAN_POINT ( 'NONE',  ( 17.18058613226958187, 4.000000000000000000, 0.000000000000000000 ) ) ;
#434 = DIRECTION ( 'NONE',  ( 0.000000000000000000, 1.000000000000000000, 0.000000000000000000 ) ) ;
#435 = ORIENTED_EDGE ( 'NONE', *, *, #438, .T. ) ;
#436 = AXIS2_PLACEMENT_3D ( 'NONE', #587, #416, #595 ) ;
#437 = CARTESIAN_POINT ( 'NONE',  ( 12.06064623473309005, -6.505213034913026604E-16, -5.678750355607404821 ) ) ;
#438 = EDGE_CURVE ( 'NONE', #49, #192, #44, .T. ) ;
#439 = AXIS2_PLACEMENT_3D ( 'NONE', #597, #357, #609 ) ;
#440 = CARTESIAN_POINT ( 'NONE',  ( 2.000000000000000000, 0.000000000000000000, -4.850000000000000533 ) ) ;
#441 = ORIENTED_EDGE ( 'NONE', *, *, #143, .T. ) ;
#442 = CARTESIAN_POINT ( 'NONE',  ( 2.000000000000000000, 4.000000000000000000, -2.000000000000000000 ) ) ;
#443 = DIRECTION ( 'NONE',  ( 0.000000000000000000, 0.000000000000000000, -1.000000000000000000 ) ) ;
#444 = ORIENTED_EDGE ( 'NONE', *, *, #799, .F. ) ;
#445 = FACE_OUTER_BOUND ( 'NONE', #171, .T. ) ;
#446 = EDGE_CURVE ( 'NONE', #427, #384, #51, .T. ) ;
#447 = ORIENTED_EDGE ( 'NONE', *, *, #275, .T. ) ;
#448 = DIRECTION ( 'NONE',  ( 0.7455767157236692366, 0.4130910679394485530, -0.5229446725604466328 ) ) ;
#449 = CIRCLE ( 'NONE', #68, 1.149999999999999911 ) ;
#450 = EDGE_CURVE ( 'NONE', #218, #46, #548, .T. ) ;
#451 = VECTOR ( 'NONE', #571, 1000.000000000000000 ) ;
#452 = CIRCLE ( 'NONE', #137, 1.750000000000002220 ) ;
#453 = EDGE_LOOP ( 'NONE', ( #233, #156 ) ) ;
#454 = FACE_OUTER_BOUND ( 'NONE', #490, .T. ) ;
#455 = DIRECTION ( 'NONE',  ( -0.5742292462298664857, 0.000000000000000000, -0.8186945540152806844 ) ) ;
#456 = ORIENTED_EDGE ( 'NONE', *, *, #446, .T. ) ;
#457 = DIRECTION ( 'NONE',  ( 0.000000000000000000, -1.000000000000000000, 0.000000000000000000 ) ) ;
#458 = CARTESIAN_POINT ( 'NONE',  ( 0.000000000000000000, 0.000000000000000000, -8.000000000000000000 ) ) ;
#459 = VERTEX_POINT ( 'NONE', #50 ) ;
#460 = LINE ( 'NONE', #701, #489 ) ;
#461 = VECTOR ( 'NONE', #223, 1000.000000000000000 ) ;
#462 = PRODUCT_DEFINITION_FORMATION_WITH_SPECIFIED_SOURCE ( 'Symmetric', '', #19, .NOT_KNOWN. ) ;
#463 = APPLICATION_PROTOCOL_DEFINITION ( 'draft international standard', 'automotive_design', 1998, #154 ) ;
#464 = ORIENTED_EDGE ( 'NONE', *, *, #243, .T. ) ;
#465 = ORIENTED_EDGE ( 'NONE', *, *, #230, .F. ) ;
#466 = CYLINDRICAL_SURFACE ( 'NONE', #439, 1.149999999999999911 ) ;
#467 = CARTESIAN_POINT ( 'NONE',  ( 2.000000000000000444, 0.000000000000000000, -2.000000000000000000 ) ) ;
#468 = ORIENTED_EDGE ( 'NONE', *, *, #411, .T. ) ;
#469 = ADVANCED_FACE ( 'NONE', ( #800 ), #738, .F. ) ;
#470 = DIRECTION ( 'NONE',  ( 0.000000000000000000, -1.000000000000000000, 0.000000000000000000 ) ) ;
#471 = LINE ( 'NONE', #274, #188 ) ;
#472 = ADVANCED_FACE ( 'NONE', ( #379 ), #248, .T. ) ;
#473 = ORIENTED_EDGE ( 'NONE', *, *, #365, .F. ) ;
#474 = FACE_BOUND ( 'NONE', #397, .T. ) ;
#475 = AXIS2_PLACEMENT_3D ( 'NONE', #652, #271, #772 ) ;
#476 = CARTESIAN_POINT ( 'NONE',  ( 11.57251560140542068, 0.8726859697632607382, -5.685328594942811620 ) ) ;
#477 = AXIS2_PLACEMENT_3D ( 'NONE', #552, #241, #106 ) ;
#478 = AXIS2_PLACEMENT_3D ( 'NONE', #499, #740, #559 ) ;
#479 = PRESENTATION_STYLE_ASSIGNMENT (( #664 ) ) ;
#480 = CARTESIAN_POINT ( 'NONE',  ( 11.98557481894751575, 2.466392983102047243, -3.837497423423538834 ) ) ;
#481 = ADVANCED_FACE ( 'NONE', ( #56 ), #244, .F. ) ;
#482 = ORIENTED_EDGE ( 'NONE', *, *, #381, .F. ) ;
#483 = CARTESIAN_POINT ( 'NONE',  ( 0.000000000000000000, 4.000000000000000000, -6.000000000000000000 ) ) ;
#484 = CARTESIAN_POINT ( 'NONE',  ( 10.78238824736466661, 5.974044229262709393, -7.562726105206772687 ) ) ;
#485 = ORIENTED_EDGE ( 'NONE', *, *, #500, .T. ) ;
#486 = DIRECTION ( 'NONE',  ( -0.5742292462298662636, 0.000000000000000000, -0.8186945540152807954 ) ) ;
#487 = DIRECTION ( 'NONE',  ( -0.000000000000000000, 1.000000000000000000, -0.000000000000000000 ) ) ;
#488 = CIRCLE ( 'NONE', #475, 1.000000000000000000 ) ;
#489 = VECTOR ( 'NONE', #13, 1000.000000000000000 ) ;
#490 = EDGE_LOOP ( 'NONE', ( #197, #555, #441, #608 ) ) ;
#491 = AXIS2_PLACEMENT_3D ( 'NONE', #580, #457, #196 ) ;
#492 = CARTESIAN_POINT ( 'NONE',  ( 11.98557481894751575, 2.466392983102047243, -3.837497423423538834 ) ) ;
#493 = DIRECTION ( 'NONE',  ( 0.000000000000000000, 0.000000000000000000, 1.000000000000000000 ) ) ;
#494 = FACE_OUTER_BOUND ( 'NONE', #33, .T. ) ;
#495 = ORIENTED_EDGE ( 'NONE', *, *, #535, .F. ) ;
#496 = EDGE_CURVE ( 'NONE', #602, #204, #320, .T. ) ;
#497 = CARTESIAN_POINT ( 'NONE',  ( 2.000000000000000000, 4.000000000000000000, -2.000000000000000000 ) ) ;
#498 = CARTESIAN_POINT ( 'NONE',  ( 13.06884498100796854, 0.000000000000000000, -4.477576817825391409 ) ) ;
#499 = CARTESIAN_POINT ( 'NONE',  ( 0.000000000000000000, 0.000000000000000000, 0.000000000000000000 ) ) ;
#500 = EDGE_CURVE ( 'NONE', #6, #157, #509, .T. ) ;
#501 = ORIENTED_EDGE ( 'NONE', *, *, #263, .F. ) ;
#502 = DIRECTION ( 'NONE',  ( -0.000000000000000000, -1.000000000000000000, 0.000000000000000000 ) ) ;
#503 = CARTESIAN_POINT ( 'NONE',  ( 13.78563956896527998, 0.000000000000000000, -8.000000000000000000 ) ) ;
#504 = CARTESIAN_POINT ( 'NONE',  ( 2.000000000000000000, 0.000000000000000000, -8.000000000000000000 ) ) ;
#505 = ORIENTED_EDGE ( 'NONE', *, *, #72, .T. ) ;
#506 = AXIS2_PLACEMENT_3D ( 'NONE', #113, #369, #294 ) ;
#507 = VECTOR ( 'NONE', #399, 1000.000000000000000 ) ;
#508 = CARTESIAN_POINT ( 'NONE',  ( 2.000000000000000444, 0.000000000000000000, -2.000000000000000000 ) ) ;
#509 = CIRCLE ( 'NONE', #647, 1.750000000000003331 ) ;
#510 = VECTOR ( 'NONE', #749, 1000.000000000000114 ) ;
#511 = ORIENTED_EDGE ( 'NONE', *, *, #217, .T. ) ;
#512 = DIRECTION ( 'NONE',  ( -0.4846401232874369969, 0.8747136393700155610, 0.000000000000000000 ) ) ;
#513 = EDGE_CURVE ( 'NONE', #792, #23, #385, .T. ) ;
#514 = ORIENTED_EDGE ( 'NONE', *, *, #579, .F. ) ;
#515 = EDGE_CURVE ( 'NONE', #49, #120, #742, .T. ) ;
#516 = DIRECTION ( 'NONE',  ( 0.5742292462298662636, 0.000000000000000000, 0.8186945540152807954 ) ) ;
#517 = ORIENTED_EDGE ( 'NONE', *, *, #178, .T. ) ;
#518 = CARTESIAN_POINT ( 'NONE',  ( 2.000000000000000000, 4.000000000000000000, -6.000000000000000000 ) ) ;
#519 = CARTESIAN_POINT ( 'NONE',  ( 2.000000000000000000, 4.000000000000000000, -8.000000000000000000 ) ) ;
#520 = AXIS2_PLACEMENT_3D ( 'NONE', #61, #625, #681 ) ;
#521 = AXIS2_PLACEMENT_3D ( 'NONE', #303, #59, #250 ) ;
#522 = VERTEX_POINT ( 'NONE', #612 ) ;
#523 = FACE_OUTER_BOUND ( 'NONE', #685, .T. ) ;
#524 = CARTESIAN_POINT ( 'NONE',  ( 10.75346285042301453, 0.000000000000000000, -7.542437941811474644 ) ) ;
#525 = EDGE_CURVE ( 'NONE', #560, #374, #371, .T. ) ;
#526 = CARTESIAN_POINT ( 'NONE',  ( 16.03585325312812060, 0.002491480925112109224, 0.000000000000000000 ) ) ;
#527 = ORIENTED_EDGE ( 'NONE', *, *, #718, .T. ) ;
#528 = ORIENTED_EDGE ( 'NONE', *, *, #131, .T. ) ;
#529 = CARTESIAN_POINT ( 'NONE',  ( 16.03770831275376096, 0.004983146433061968160, 0.000000000000000000 ) ) ;
#530 = AXIS2_PLACEMENT_3D ( 'NONE', #678, #52, #455 ) ;
#531 = CIRCLE ( 'NONE', #521, 1.750000000000002220 ) ;
#532 = ORIENTED_EDGE ( 'NONE', *, *, #358, .F. ) ;
#533 = EDGE_LOOP ( 'NONE', ( #133, #532, #444, #200 ) ) ;
#534 = DIRECTION ( 'NONE',  ( 0.000000000000000000, 0.000000000000000000, 1.000000000000000000 ) ) ;
#535 = EDGE_CURVE ( 'NONE', #157, #280, #112, .T. ) ;
#536 = ORIENTED_EDGE ( 'NONE', *, *, #27, .F. ) ;
#537 = EDGE_LOOP ( 'NONE', ( #361, #676, #759, #639 ) ) ;
#538 = EDGE_CURVE ( 'NONE', #688, #111, #727, .T. ) ;
#539 = EDGE_CURVE ( 'NONE', #22, #343, #375, .T. ) ;
#540 = VERTEX_POINT ( 'NONE', #805 ) ;
#541 = ORIENTED_EDGE ( 'NONE', *, *, #723, .T. ) ;
#542 = PLANE ( 'NONE',  #345 ) ;
#543 = AXIS2_PLACEMENT_3D ( 'NONE', #406, #207, #586 ) ;
#544 = ORIENTED_EDGE ( 'NONE', *, *, #729, .T. ) ;
#545 = CARTESIAN_POINT ( 'NONE',  ( 13.06565231453692810, 0.000000000000000000, -4.245885328808882697 ) ) ;
#546 = DIRECTION ( 'NONE',  ( -0.5742292462298662636, 0.000000000000000000, -0.8186945540152807954 ) ) ;
#547 = ORIENTED_EDGE ( 'NONE', *, *, #122, .T. ) ;
#548 = LINE ( 'NONE', #483, #109 ) ;
#549 = FACE_OUTER_BOUND ( 'NONE', #576, .T. ) ;
#550 = ORIENTED_EDGE ( 'NONE', *, *, #665, .F. ) ;
#551 = CARTESIAN_POINT ( 'NONE',  ( 2.000000000000000000, 0.000000000000000000, -7.150000000000000355 ) ) ;
#552 = CARTESIAN_POINT ( 'NONE',  ( 3.658970324252192263, -4.068630589650828355, 2.002751298389590318 ) ) ;
#553 = EDGE_CURVE ( 'NONE', #810, #792, #40, .T. ) ;
#554 = AXIS2_PLACEMENT_3D ( 'NONE', #710, #705, #801 ) ;
#555 = ORIENTED_EDGE ( 'NONE', *, *, #450, .T. ) ;
#556 = DIRECTION ( 'NONE',  ( 0.7455767157236693476, 0.4130910679394486640, -0.5229446725604466328 ) ) ;
#557 = EDGE_CURVE ( 'NONE', #324, #540, #172, .T. ) ;
#558 = DIRECTION ( 'NONE',  ( 0.7455767157236693476, 0.4130910679394486640, -0.5229446725604466328 ) ) ;
#559 = DIRECTION ( 'NONE',  ( 1.000000000000000000, 0.000000000000000000, 0.000000000000000000 ) ) ;
#560 = VERTEX_POINT ( 'NONE', #551 ) ;
#561 = DIRECTION ( 'NONE',  ( 0.000000000000000000, -1.000000000000000000, 0.000000000000000000 ) ) ;
#562 = CYLINDRICAL_SURFACE ( 'NONE', #554, 1.149999999999999245 ) ;
#563 = CYLINDRICAL_SURFACE ( 'NONE', #635, 1.750000000000002887 ) ;
#564 = ORIENTED_EDGE ( 'NONE', *, *, #243, .F. ) ;
#565 =( BOUNDED_CURVE ( )  B_SPLINE_CURVE ( 3, ( #83, #216, #313, #763 ),
 .UNSPECIFIED., .F., .F. ) 
 B_SPLINE_CURVE_WITH_KNOTS ( ( 4, 4 ),
 ( 3.141592653589794448, 4.712388980384689674 ),
 .UNSPECIFIED. ) 
 CURVE ( )  GEOMETRIC_REPRESENTATION_ITEM ( )  RATIONAL_B_SPLINE_CURVE ( ( 1.000000000000000000, 0.8047378541243652705, 0.8047378541243652705, 1.000000000000000000 ) ) 
 REPRESENTATION_ITEM ( '' )  );
#566 = CARTESIAN_POINT ( 'NONE',  ( 12.57741678230768834, 0.8726859697632599611, -4.252613125416067952 ) ) ;
#567 = CARTESIAN_POINT ( 'NONE',  ( 5.386013710213160444, -0.000000000000000000, -3.777729530300137473 ) ) ;
#568 = ORIENTED_EDGE ( 'NONE', *, *, #500, .F. ) ;
#569 = CIRCLE ( 'NONE', #645, 1.000000000000000222 ) ;
#570 = VECTOR ( 'NONE', #761, 1000.000000000000227 ) ;
#571 = DIRECTION ( 'NONE',  ( 0.5742292462298663747, 1.084202172485503941E-16, 0.8186945540152807954 ) ) ;
#572 = DIRECTION ( 'NONE',  ( 0.000000000000000000, -1.000000000000000000, 0.000000000000000000 ) ) ;
#573 = ORIENTED_EDGE ( 'NONE', *, *, #27, .T. ) ;
#574 = LINE ( 'NONE', #139, #255 ) ;
#575 =( BOUNDED_CURVE ( )  B_SPLINE_CURVE ( 3, ( #338, #276, #334, #123 ),
 .UNSPECIFIED., .F., .F. ) 
 B_SPLINE_CURVE_WITH_KNOTS ( ( 4, 4 ),
 ( 4.994407020229180816, 5.427290165287504742 ),
 .UNSPECIFIED. ) 
 CURVE ( )  GEOMETRIC_REPRESENTATION_ITEM ( )  RATIONAL_B_SPLINE_CURVE ( ( 1.000000000000000000, 0.9844452155860774489, 0.9844452155860774489, 1.000000000000000000 ) ) 
 REPRESENTATION_ITEM ( '' )  );
#576 = EDGE_LOOP ( 'NONE', ( #447, #671, #86, #755, #468, #247 ) ) ;
#577 = DIRECTION ( 'NONE',  ( -0.5742292462298663747, 0.000000000000000000, -0.8186945540152806844 ) ) ;
#578 = EDGE_LOOP ( 'NONE', ( #544, #741, #144, #103, #733 ) ) ;
#579 = EDGE_CURVE ( 'NONE', #737, #23, #633, .T. ) ;
#580 = CARTESIAN_POINT ( 'NONE',  ( 0.000000000000000000, 0.000000000000000000, 0.000000000000000000 ) ) ;
#581 = CIRCLE ( 'NONE', #237, 1.000000000000000000 ) ;
#582 = CARTESIAN_POINT ( 'NONE',  ( 2.279308862911445743, -2.137703551406682667, 0.000000000000000000 ) ) ;
#583 = EDGE_CURVE ( 'NONE', #750, #22, #791, .T. ) ;
#584 = DIRECTION ( 'NONE',  ( 0.5742292462298662636, 0.000000000000000000, 0.8186945540152807954 ) ) ;
#585 = CARTESIAN_POINT ( 'NONE',  ( 10.75346285042301453, 0.000000000000000000, -7.542437941811474644 ) ) ;
#586 = DIRECTION ( 'NONE',  ( -0.5742292462298668188, 1.626303258728255665E-15, -0.8186945540152805734 ) ) ;
#587 = CARTESIAN_POINT ( 'NONE',  ( 12.57741678230768656, 0.8726859697632599611, -4.252613125416067952 ) ) ;
#588 = ORIENTED_EDGE ( 'NONE', *, *, #754, .T. ) ;
#589 = CARTESIAN_POINT ( 'NONE',  ( 14.75862900392339760, 2.319389566840296624, 2.168404344971008868E-16 ) ) ;
#590 = CARTESIAN_POINT ( 'NONE',  ( 0.000000000000000000, 0.000000000000000000, -6.000000000000000000 ) ) ;
#591 = VERTEX_POINT ( 'NONE', #179 ) ;
#592 = ADVANCED_FACE ( 'NONE', ( #428 ), #116, .F. ) ;
#593 = FACE_OUTER_BOUND ( 'NONE', #281, .T. ) ;
#594 = AXIS2_PLACEMENT_3D ( 'NONE', #442, #238, #734 ) ;
#595 = DIRECTION ( 'NONE',  ( -0.5742292462298653755, -1.626303258728256651E-15, -0.8186945540152815726 ) ) ;
#596 = ORIENTED_EDGE ( 'NONE', *, *, #704, .T. ) ;
#597 = CARTESIAN_POINT ( 'NONE',  ( 2.000000000000000000, 0.000000000000000000, -6.000000000000000000 ) ) ;
#598 = ORIENTED_EDGE ( 'NONE', *, *, #240, .T. ) ;
#599 = ORIENTED_EDGE ( 'NONE', *, *, #358, .T. ) ;
#600 = DIRECTION ( 'NONE',  ( -0.5742292462298670408, 1.626303258728256257E-15, -0.8186945540152804623 ) ) ;
#601 = DIRECTION ( 'NONE',  ( 0.000000000000000000, 0.000000000000000000, 1.000000000000000000 ) ) ;
#602 = VERTEX_POINT ( 'NONE', #753 ) ;
#603 = CARTESIAN_POINT ( 'NONE',  ( 16.03955857373456340, 0.007474989512443056330, 2.168404344971008868E-16 ) ) ;
#604 = CIRCLE ( 'NONE', #744, 1.149999999999999911 ) ;
#605 = STYLED_ITEM ( 'NONE', ( #479 ), #364 ) ;
#606 = FACE_BOUND ( 'NONE', #453, .T. ) ;
#607 = AXIS2_PLACEMENT_3D ( 'NONE', #518, #333, #11 ) ;
#608 = ORIENTED_EDGE ( 'NONE', *, *, #350, .T. ) ;
#609 = DIRECTION ( 'NONE',  ( 0.000000000000000000, 0.000000000000000000, 1.000000000000000000 ) ) ;
#610 = LINE ( 'NONE', #725, #694 ) ;
#611 = ORIENTED_EDGE ( 'NONE', *, *, #438, .F. ) ;
#612 = CARTESIAN_POINT ( 'NONE',  ( 15.44856301345701688, 0.8726859697632607382, -0.1591403553396599224 ) ) ;
#613 = CARTESIAN_POINT ( 'NONE',  ( 0.000000000000000000, 0.000000000000000000, 0.000000000000000000 ) ) ;
#614 = CARTESIAN_POINT ( 'NONE',  ( 0.000000000000000000, 4.000000000000000000, -2.000000000000000000 ) ) ;
#615 = VERTEX_POINT ( 'NONE', #634 ) ;
#616 = CARTESIAN_POINT ( 'NONE',  ( 3.658970324252192263, -4.068630589650828355, 2.002751298389590318 ) ) ;
#617 = EDGE_CURVE ( 'NONE', #348, #49, #392, .T. ) ;
#618 = DIRECTION ( 'NONE',  ( -0.5742292462298662636, 0.000000000000000000, -0.8186945540152809064 ) ) ;
#619 = ADVANCED_FACE ( 'NONE', ( #445, #637, #76 ), #329, .T. ) ;
#620 = VECTOR ( 'NONE', #234, 1000.000000000000000 ) ;
#621 = ORIENTED_EDGE ( 'NONE', *, *, #557, .F. ) ;
#622 = CARTESIAN_POINT ( 'NONE',  ( 9.997428678224618892, 0.000000000000000000, -4.580568617966405576 ) ) ;
#623 = DIRECTION ( 'NONE',  ( 0.7455767157236692366, 0.4130910679394485530, -0.5229446725604466328 ) ) ;
#624 = ORIENTED_EDGE ( 'NONE', *, *, #538, .F. ) ;
#625 = DIRECTION ( 'NONE',  ( 0.7455767157236693476, 0.4130910679394486640, -0.5229446725604466328 ) ) ;
#626 = LINE ( 'NONE', #317, #10 ) ;
#627 = CARTESIAN_POINT ( 'NONE',  ( 2.000000000000000000, 0.000000000000000000, -6.000000000000000000 ) ) ;
#628 = ORIENTED_EDGE ( 'NONE', *, *, #617, .T. ) ;
#629 = DIRECTION ( 'NONE',  ( 0.7455767157236693476, 0.4130910679394486640, -0.5229446725604465218 ) ) ;
#630 = CARTESIAN_POINT ( 'NONE',  ( 16.03399340007767293, 0.000000000000000000, 0.000000000000000000 ) ) ;
#631 = ORIENTED_EDGE ( 'NONE', *, *, #653, .F. ) ;
#632 = AXIS2_PLACEMENT_3D ( 'NONE', #467, #346, #221 ) ;
#633 = CIRCLE ( 'NONE', #267, 1.149999999999999245 ) ;
#634 = CARTESIAN_POINT ( 'NONE',  ( 14.30010452099728369, 0.8726859697632616264, -1.796529463370224011 ) ) ;
#635 = AXIS2_PLACEMENT_3D ( 'NONE', #690, #386, #48 ) ;
#636 = EDGE_LOOP ( 'NONE', ( #268, #342, #304 ) ) ;
#637 = FACE_BOUND ( 'NONE', #387, .T. ) ;
#638 = ADVANCED_FACE ( 'NONE', ( #269 ), #388, .F. ) ;
#639 = ORIENTED_EDGE ( 'NONE', *, *, #539, .F. ) ;
#640 = CARTESIAN_POINT ( 'NONE',  ( 8.852037708587285891, 8.904522409784940251, -8.000000000000000000 ) ) ;
#641 = EDGE_CURVE ( 'NONE', #111, #408, #692, .T. ) ;
#642 = CARTESIAN_POINT ( 'NONE',  ( 0.000000000000000000, 4.000000000000000000, 0.000000000000000000 ) ) ;
#643 = ORIENTED_EDGE ( 'NONE', *, *, #210, .T. ) ;
#644 = CARTESIAN_POINT ( 'NONE',  ( 15.36256929945639271, 0.000000000000000000, -0.9711071127477609588 ) ) ;
#645 = AXIS2_PLACEMENT_3D ( 'NONE', #716, #17, #659 ) ;
#646 = FILL_AREA_STYLE_COLOUR ( '', #746 ) ;
#647 = AXIS2_PLACEMENT_3D ( 'NONE', #566, #728, #486 ) ;
#648 = AXIS2_PLACEMENT_3D ( 'NONE', #310, #572, #745 ) ;
#649 = ORIENTED_EDGE ( 'NONE', *, *, #411, .F. ) ;
#650 = EDGE_LOOP ( 'NONE', ( #115, #698, #599, #611 ) ) ;
#651 = LINE ( 'NONE', #458, #150 ) ;
#652 = CARTESIAN_POINT ( 'NONE',  ( 16.73827555653632615, 1.905413639611885035, -2.285196590756061852 ) ) ;
#653 = EDGE_CURVE ( 'NONE', #280, #298, #452, .T. ) ;
#654 = ORIENTED_EDGE ( 'NONE', *, *, #275, .F. ) ;
#655 = ORIENTED_EDGE ( 'NONE', *, *, #513, .F. ) ;
#656 = DIRECTION ( 'NONE',  ( 0.000000000000000000, 0.000000000000000000, -1.000000000000000000 ) ) ;
#657 = AXIS2_PLACEMENT_3D ( 'NONE', #309, #102, #546 ) ;
#658 = VECTOR ( 'NONE', #340, 1000.000000000000114 ) ;
#659 = DIRECTION ( 'NONE',  ( -0.5742292462298670408, 0.000000000000000000, -0.8186945540152804623 ) ) ;
#660 = ORIENTED_EDGE ( 'NONE', *, *, #641, .F. ) ;
#661 = PLANE ( 'NONE',  #807 ) ;
#662 = ADVANCED_FACE ( 'NONE', ( #454 ), #258, .F. ) ;
#663 = DIRECTION ( 'NONE',  ( 0.7455767157236692366, 0.4130910679394485530, -0.5229446725604466328 ) ) ;
#664 = SURFACE_STYLE_USAGE ( .BOTH. , #279 ) ;
#665 = EDGE_CURVE ( 'NONE', #384, #65, #574, .T. ) ;
#666 = CARTESIAN_POINT ( 'NONE',  ( 13.06565231453692810, 0.000000000000000000, -4.245885328808882697 ) ) ;
#667 = ORIENTED_EDGE ( 'NONE', *, *, #63, .F. ) ;
#668 =( NAMED_UNIT ( * ) PLANE_ANGLE_UNIT ( ) SI_UNIT ( $, .RADIAN. ) );
#669 = VECTOR ( 'NONE', #220, 1000.000000000000000 ) ;
#670 = DIRECTION ( 'NONE',  ( 0.7455767157236693476, 0.4130910679394486640, -0.5229446725604466328 ) ) ;
#671 = ORIENTED_EDGE ( 'NONE', *, *, #118, .T. ) ;
#672 = CARTESIAN_POINT ( 'NONE',  ( 3.084741078022325667, -4.068630589650828355, 1.184056744374309522 ) ) ;
#673 = CARTESIAN_POINT ( 'NONE',  ( 12.06064623473309005, -6.505213034913026604E-16, -5.678750355607404821 ) ) ;
#674 = CARTESIAN_POINT ( 'NONE',  ( 16.03926884368780037, -7.589415207398531038E-16, -0.006317814389555182972 ) ) ;
#675 = EDGE_CURVE ( 'NONE', #298, #423, #4, .T. ) ;
#676 = ORIENTED_EDGE ( 'NONE', *, *, #350, .F. ) ;
#677 = DIRECTION ( 'NONE',  ( 0.000000000000000000, -1.000000000000000000, 0.000000000000000000 ) ) ;
#678 = CARTESIAN_POINT ( 'NONE',  ( 14.87433376722715117, 0.8726859697632616264, -0.9778349093549423277 ) ) ;
#679 = CARTESIAN_POINT ( 'NONE',  ( 2.000000000000000444, 0.000000000000000000, -3.149999999999999023 ) ) ;
#680 = ORIENTED_EDGE ( 'NONE', *, *, #93, .F. ) ;
#681 = DIRECTION ( 'NONE',  ( -0.5742292462298664857, 0.000000000000000000, -0.8186945540152806844 ) ) ;
#682 = DIRECTION ( 'NONE',  ( 1.000000000000000000, 0.000000000000000000, 0.000000000000000000 ) ) ;
#683 =( NAMED_UNIT ( * ) PLANE_ANGLE_UNIT ( ) SI_UNIT ( $, .RADIAN. ) );
#684 = AXIS2_PLACEMENT_3D ( 'NONE', #226, #656, #778 ) ;
#685 = EDGE_LOOP ( 'NONE', ( #319, #765, #75, #655 ) ) ;
#686 = CARTESIAN_POINT ( 'NONE',  ( 0.000000000000000000, 4.000000000000000000, -2.000000000000000000 ) ) ;
#687 =( NAMED_UNIT ( * ) SI_UNIT ( $, .STERADIAN. ) SOLID_ANGLE_UNIT ( ) );
#688 = VERTEX_POINT ( 'NONE', #703 ) ;
#689 = CARTESIAN_POINT ( 'NONE',  ( 11.38429517729047724, 0.000000000000000000, -5.433669939145387318 ) ) ;
#690 = CARTESIAN_POINT ( 'NONE',  ( 3.658970324252193596, -4.068630589650827467, 2.002751298389590318 ) ) ;
#691 = ORIENTED_EDGE ( 'NONE', *, *, #583, .T. ) ;
#692 = LINE ( 'NONE', #585, #53 ) ;
#693 = VERTEX_POINT ( 'NONE', #700 ) ;
#694 = VECTOR ( 'NONE', #373, 1000.000000000000000 ) ;
#695 = CIRCLE ( 'NONE', #136, 1.000000000000001110 ) ;
#696 = CARTESIAN_POINT ( 'NONE',  ( 5.955887309171658650, -4.068630589650826579, 5.277529514450714387 ) ) ;
#697 = ADVANCED_FACE ( 'NONE', ( #141 ), #145, .T. ) ;
#698 = ORIENTED_EDGE ( 'NONE', *, *, #285, .T. ) ;
#699 = EDGE_CURVE ( 'NONE', #708, #370, #372, .T. ) ;
#700 = CARTESIAN_POINT ( 'NONE',  ( 17.31250480276619186, 1.905413639611885035, -1.466502036740779502 ) ) ;
#701 = CARTESIAN_POINT ( 'NONE',  ( 0.000000000000000000, 4.000000000000000000, 0.000000000000000000 ) ) ;
#702 = EDGE_LOOP ( 'NONE', ( #473, #722, #107, #182 ) ) ;
#703 = CARTESIAN_POINT ( 'NONE',  ( 9.997428678224618892, 0.000000000000000000, -4.580568617966405576 ) ) ;
#704 = EDGE_CURVE ( 'NONE', #343, #125, #191, .T. ) ;
#705 = DIRECTION ( 'NONE',  ( -0.000000000000000000, 1.000000000000000000, -0.000000000000000000 ) ) ;
#706 = CYLINDRICAL_SURFACE ( 'NONE', #632, 1.149999999999999245 ) ;
#707 = AXIS2_PLACEMENT_3D ( 'NONE', #786, #670, #421 ) ;
#708 = VERTEX_POINT ( 'NONE', #206 ) ;
#709 = AXIS2_PLACEMENT_3D ( 'NONE', #142, #273, #153 ) ;
#710 = CARTESIAN_POINT ( 'NONE',  ( 2.000000000000000444, 0.000000000000000000, -2.000000000000000000 ) ) ;
#711 = VERTEX_POINT ( 'NONE', #82 ) ;
#712 = VERTEX_POINT ( 'NONE', #15 ) ;
#713 = FACE_OUTER_BOUND ( 'NONE', #159, .T. ) ;
#714 = CARTESIAN_POINT ( 'NONE',  ( 16.73827555653632615, 1.905413639611885035, -2.285196590756061852 ) ) ;
#715 = DIRECTION ( 'NONE',  ( 0.000000000000000000, 1.000000000000000000, 0.000000000000000000 ) ) ;
#716 = CARTESIAN_POINT ( 'NONE',  ( 14.44135857161686332, 1.905413639611883259, -5.559974806817186810 ) ) ;
#717 = CARTESIAN_POINT ( 'NONE',  ( 0.000000000000000000, 4.000000000000000000, -8.000000000000000000 ) ) ;
#718 = EDGE_CURVE ( 'NONE', #192, #218, #227, .T. ) ;
#719 = CARTESIAN_POINT ( 'NONE',  ( 3.658970324252193596, -4.068630589650827467, 2.002751298389590318 ) ) ;
#720 = EDGE_CURVE ( 'NONE', #459, #280, #318, .T. ) ;
#721 = CARTESIAN_POINT ( 'NONE',  ( 2.000000000000000000, 4.000000000000000000, -6.000000000000000000 ) ) ;
#722 = ORIENTED_EDGE ( 'NONE', *, *, #131, .F. ) ;
#723 = EDGE_CURVE ( 'NONE', #423, #591, #531, .T. ) ;
#724 =( LENGTH_UNIT ( ) NAMED_UNIT ( * ) SI_UNIT ( .MILLI., .METRE. ) );
#725 = CARTESIAN_POINT ( 'NONE',  ( 0.000000000000000000, 0.000000000000000000, 0.000000000000000000 ) ) ;
#726 = ORIENTED_EDGE ( 'NONE', *, *, #210, .F. ) ;
#727 =( BOUNDED_CURVE ( )  B_SPLINE_CURVE ( 3, ( #622, #47, #689, #437 ),
 .UNSPECIFIED., .F., .F. ) 
 B_SPLINE_CURVE_WITH_KNOTS ( ( 4, 4 ),
 ( 4.712388980384689674, 5.291861253542477606 ),
 .UNSPECIFIED. ) 
 CURVE ( )  GEOMETRIC_REPRESENTATION_ITEM ( )  RATIONAL_B_SPLINE_CURVE ( ( 1.000000000000000000, 0.9722128629905804065, 0.9722128629905804065, 1.000000000000000000 ) ) 
 REPRESENTATION_ITEM ( '' )  );
#728 = DIRECTION ( 'NONE',  ( 0.7455767157236693476, 0.4130910679394485530, -0.5229446725604466328 ) ) ;
#729 = EDGE_CURVE ( 'NONE', #764, #168, #314, .T. ) ;
#730 = CIRCLE ( 'NONE', #789, 1.149999999999999245 ) ;
#731 = DIRECTION ( 'NONE',  ( 1.000000000000000000, 0.000000000000000000, 0.000000000000000000 ) ) ;
#732 = CARTESIAN_POINT ( 'NONE',  ( 0.000000000000000000, 4.000000000000000000, -8.000000000000000000 ) ) ;
#733 = ORIENTED_EDGE ( 'NONE', *, *, #288, .F. ) ;
#734 = DIRECTION ( 'NONE',  ( 0.000000000000000000, 0.000000000000000000, -1.000000000000000000 ) ) ;
#735 = DIRECTION ( 'NONE',  ( 0.000000000000000000, 1.000000000000000000, 0.000000000000000000 ) ) ;
#736 = DIRECTION ( 'NONE',  ( 1.000000000000000000, 0.000000000000000000, -0.000000000000000000 ) ) ;
#737 = VERTEX_POINT ( 'NONE', #796 ) ;
#738 = CYLINDRICAL_SURFACE ( 'NONE', #520, 1.000000000000001110 ) ;
#739 = CARTESIAN_POINT ( 'NONE',  ( 2.000000000000000000, 4.000000000000000000, -8.000000000000000000 ) ) ;
#740 = DIRECTION ( 'NONE',  ( 0.000000000000000000, 0.000000000000000000, 1.000000000000000000 ) ) ;
#741 = ORIENTED_EDGE ( 'NONE', *, *, #794, .T. ) ;
#742 = LINE ( 'NONE', #312, #290 ) ;
#743 = FACE_OUTER_BOUND ( 'NONE', #578, .T. ) ;
#744 = AXIS2_PLACEMENT_3D ( 'NONE', #36, #245, #601 ) ;
#745 = DIRECTION ( 'NONE',  ( 0.000000000000000000, 0.000000000000000000, -1.000000000000000000 ) ) ;
#746 = COLOUR_RGB ( '',0.7921568627450980005, 0.8196078431372548767, 0.9333333333333333481 ) ;
#747 = EDGE_LOOP ( 'NONE', ( #60, #769 ) ) ;
#748 = DIRECTION ( 'NONE',  ( 0.000000000000000000, 0.000000000000000000, 1.000000000000000000 ) ) ;
#749 = DIRECTION ( 'NONE',  ( 0.7455767157236693476, 0.4130910679394486640, -0.5229446725604465218 ) ) ;
#750 = VERTEX_POINT ( 'NONE', #614 ) ;
#751 = DIRECTION ( 'NONE',  ( 0.000000000000000000, -1.000000000000000000, 0.000000000000000000 ) ) ;
#752 = ORIENTED_EDGE ( 'NONE', *, *, #754, .F. ) ;
#753 = CARTESIAN_POINT ( 'NONE',  ( 12.00318753607781908, 0.8726859697632599611, -5.071307679431347637 ) ) ;
#754 = EDGE_CURVE ( 'NONE', #324, #560, #96, .T. ) ;
#755 = ORIENTED_EDGE ( 'NONE', *, *, #776, .F. ) ;
#756 = PRESENTATION_LAYER_ASSIGNMENT (  '', '', ( #605 ) ) ;
#757 = CARTESIAN_POINT ( 'NONE',  ( 2.000000000000000000, 0.000000000000000000, -2.000000000000000000 ) ) ;
#758 = CARTESIAN_POINT ( 'NONE',  ( 12.57741678230768656, 0.8726859697632599611, -4.252613125416067952 ) ) ;
#759 = ORIENTED_EDGE ( 'NONE', *, *, #704, .F. ) ;
#760 = CARTESIAN_POINT ( 'NONE',  ( 15.25319477973510196, 0.000000000000000000, -1.363288759487080615 ) ) ;
#761 = DIRECTION ( 'NONE',  ( 0.4846401232874369969, -0.8747136393700155610, 0.000000000000000000 ) ) ;
#762 = CARTESIAN_POINT ( 'NONE',  ( 11.56941656077493263, 4.000000000000000000, -8.000000000000000000 ) ) ;
#763 = CARTESIAN_POINT ( 'NONE',  ( 9.997428678224618892, 0.000000000000000000, -4.580568617966405576 ) ) ;
#764 = VERTEX_POINT ( 'NONE', #194 ) ;
#765 = ORIENTED_EDGE ( 'NONE', *, *, #365, .T. ) ;
#766 = VECTOR ( 'NONE', #629, 1000.000000000000114 ) ;
#767 = DIRECTION ( 'NONE',  ( -0.7455767157236693476, -0.4130910679394485530, 0.5229446725604466328 ) ) ;
#768 = AXIS2_PLACEMENT_3D ( 'NONE', #616, #556, #793 ) ;
#769 = ORIENTED_EDGE ( 'NONE', *, *, #122, .F. ) ;
#770 = ORIENTED_EDGE ( 'NONE', *, *, #230, .T. ) ;
#771 = DIRECTION ( 'NONE',  ( 0.7455767157236693476, 0.4130910679394485530, -0.5229446725604466328 ) ) ;
#772 = DIRECTION ( 'NONE',  ( -0.5742292462298653755, 0.000000000000000000, -0.8186945540152815726 ) ) ;
#773 = ORIENTED_EDGE ( 'NONE', *, *, #266, .T. ) ;
#774 = ADVANCED_FACE ( 'NONE', ( #494 ), #563, .F. ) ;
#775 = ORIENTED_EDGE ( 'NONE', *, *, #302, .T. ) ;
#776 = EDGE_CURVE ( 'NONE', #615, #711, #802, .T. ) ;
#777 = ORIENTED_EDGE ( 'NONE', *, *, #5, .T. ) ;
#778 = DIRECTION ( 'NONE',  ( -1.000000000000000000, 0.000000000000000000, -0.000000000000000000 ) ) ;
#779 = CYLINDRICAL_SURFACE ( 'NONE', #477, 1.000000000000000000 ) ;
#780 = VERTEX_POINT ( 'NONE', #504 ) ;
#781 = CARTESIAN_POINT ( 'NONE',  ( 2.000000000000000444, 0.000000000000000000, -3.149999999999999023 ) ) ;
#782 = CARTESIAN_POINT ( 'NONE',  ( 2.000000000000000000, 0.000000000000000000, -6.000000000000000000 ) ) ;
#783 = ORIENTED_EDGE ( 'NONE', *, *, #74, .F. ) ;
#784 = SURFACE_STYLE_FILL_AREA ( #91 ) ;
#785 = EDGE_CURVE ( 'NONE', #591, #260, #84, .T. ) ;
#786 = CARTESIAN_POINT ( 'NONE',  ( 5.955887309171656874, -4.068630589650826579, 5.277529514450715276 ) ) ;
#787 = ORIENTED_EDGE ( 'NONE', *, *, #785, .T. ) ;
#788 = DIRECTION ( 'NONE',  ( 0.000000000000000000, 1.000000000000000000, 0.000000000000000000 ) ) ;
#789 = AXIS2_PLACEMENT_3D ( 'NONE', #25, #715, #534 ) ;
#790 = DIRECTION ( 'NONE',  ( 0.7455767157236693476, 0.4130910679394486640, -0.5229446725604466328 ) ) ;
#791 = CIRCLE ( 'NONE', #594, 2.000000000000000000 ) ;
#792 = VERTEX_POINT ( 'NONE', #256 ) ;
#793 = DIRECTION ( 'NONE',  ( -0.5742292462298662636, 0.000000000000000000, -0.8186945540152809064 ) ) ;
#794 = EDGE_CURVE ( 'NONE', #168, #157, #69, .T. ) ;
#795 = CARTESIAN_POINT ( 'NONE',  ( 12.95627779481563735, 0.000000000000000000, -4.638066975548209570 ) ) ;
#796 = CARTESIAN_POINT ( 'NONE',  ( 2.000000000000000444, 4.000000000000000000, -3.149999999999999023 ) ) ;
#797 = ORIENTED_EDGE ( 'NONE', *, *, #538, .T. ) ;
#798 = PRODUCT_DEFINITION ( 'General', '', #462, #293 ) ;
#799 = EDGE_CURVE ( 'NONE', #46, #780, #322, .T. ) ;
#800 = FACE_OUTER_BOUND ( 'NONE', #315, .T. ) ;
#801 = DIRECTION ( 'NONE',  ( 0.000000000000000000, 0.000000000000000000, 1.000000000000000000 ) ) ;
#802 = LINE ( 'NONE', #128, #510 ) ;
#803 = ADVANCED_FACE ( 'NONE', ( #2 ), #259, .F. ) ;
#804 = ORIENTED_EDGE ( 'NONE', *, *, #446, .F. ) ;
#805 = CARTESIAN_POINT ( 'NONE',  ( 2.000000000000000000, 4.000000000000000000, -4.850000000000000533 ) ) ;
#806 = VECTOR ( 'NONE', #584, 1000.000000000000114 ) ;
#807 = AXIS2_PLACEMENT_3D ( 'NONE', #30, #771, #349 ) ;
#808 = CARTESIAN_POINT ( 'NONE',  ( 16.03575417052295649, 0.000000000000000000, -0.002106046494643106295 ) ) ;
#809 = AXIS2_PLACEMENT_3D ( 'NONE', #732, #176, #736 ) ;
#810 = VERTEX_POINT ( 'NONE', #679 ) ;
ENDSEC;
END-ISO-10303-21;
