ISO-10303-21;
HEADER;
FILE_DESCRIPTION (( 'STEP AP214' ),
    '1' );
FILE_NAME ('Servo holder - Teeth up 1.STEP',
    '2025-10-21T18:57:07',
    ( 'Windows User' ),
    ( '' ),
    'SwSTEP 2.0',
    'SolidWorks 2023',
    '' );
FILE_SCHEMA (( 'AUTOMOTIVE_DESIGN' ));
ENDSEC;

DATA;
#1 = DIRECTION ( 'NONE',  ( 1.137523590804463822E-16, 0.000000000000000000, 1.000000000000000000 ) ) ;
#2 = EDGE_CURVE ( 'NONE', #550, #763, #572, .T. ) ;
#3 = DIRECTION ( 'NONE',  ( 1.387778780781445922E-16, 0.000000000000000000, 1.000000000000000000 ) ) ;
#4 = ORIENTED_EDGE ( 'NONE', *, *, #285, .F. ) ;
#5 = CARTESIAN_POINT ( 'NONE',  ( 3.549999999999935874, 8.000000000000000000, -15.75000000000000000 ) ) ;
#6 = EDGE_CURVE ( 'NONE', #830, #198, #587, .T. ) ;
#7 = DIRECTION ( 'NONE',  ( -1.000000000000000000, 0.000000000000000000, 1.224646799147349509E-16 ) ) ;
#8 = ORIENTED_EDGE ( 'NONE', *, *, #60, .T. ) ;
#9 = CARTESIAN_POINT ( 'NONE',  ( 34.49999999999999289, 5.500000000000000000, -4.000000000000004441 ) ) ;
#10 = DIRECTION ( 'NONE',  ( 1.301042606982605567E-16, -0.000000000000000000, 1.000000000000000000 ) ) ;
#11 = CARTESIAN_POINT ( 'NONE',  ( 25.50000000000000000, 3.499999999999999556, 1.979187246363940331E-15 ) ) ;
#12 = ORIENTED_EDGE ( 'NONE', *, *, #140, .T. ) ;
#13 = VECTOR ( 'NONE', #599, 1000.000000000000000 ) ;
#14 = CARTESIAN_POINT ( 'NONE',  ( 7.999999999999996447, 5.500000000000000000, 1.999999999999999112 ) ) ;
#15 = CIRCLE ( 'NONE', #431, 1.000000000000000888 ) ;
#16 = AXIS2_PLACEMENT_3D ( 'NONE', #277, #962, #141 ) ;
#17 = DIRECTION ( 'NONE',  ( -0.000000000000000000, -1.000000000000000000, -0.000000000000000000 ) ) ;
#18 = CARTESIAN_POINT ( 'NONE',  ( 34.49999999999999289, 5.500000000000000000, 8.673617379884035472E-16 ) ) ;
#19 = ORIENTED_EDGE ( 'NONE', *, *, #977, .F. ) ;
#20 = CARTESIAN_POINT ( 'NONE',  ( 28.49999999999999645, 8.000000000000000000, -18.29999999999999716 ) ) ;
#21 = CARTESIAN_POINT ( 'NONE',  ( 0.000000000000000000, 3.500000000000000000, -18.29999999999999716 ) ) ;
#22 = DIRECTION ( 'NONE',  ( -1.224646799147352221E-16, 0.000000000000000000, -1.000000000000000000 ) ) ;
#23 = ORIENTED_EDGE ( 'NONE', *, *, #961, .T. ) ;
#24 = ORIENTED_EDGE ( 'NONE', *, *, #919, .F. ) ;
#25 = CARTESIAN_POINT ( 'NONE',  ( 34.49999999999999289, 5.500000000000000000, -4.000000000000005329 ) ) ;
#26 = DIRECTION ( 'NONE',  ( -0.000000000000000000, -1.000000000000000000, -0.000000000000000000 ) ) ;
#27 = ORIENTED_EDGE ( 'NONE', *, *, #71, .F. ) ;
#28 = ORIENTED_EDGE ( 'NONE', *, *, #507, .T. ) ;
#29 = VECTOR ( 'NONE', #304, 1000.000000000000000 ) ;
#30 = CARTESIAN_POINT ( 'NONE',  ( 8.999999999999998224, 3.500000000000000000, -4.000000000000001776 ) ) ;
#31 = AXIS2_PLACEMENT_3D ( 'NONE', #20, #82, #839 ) ;
#32 = EDGE_CURVE ( 'NONE', #392, #570, #703, .T. ) ;
#33 = EDGE_CURVE ( 'NONE', #959, #204, #361, .T. ) ;
#34 = LINE ( 'NONE', #352, #691 ) ;
#35 = ORIENTED_EDGE ( 'NONE', *, *, #33, .T. ) ;
#36 = CARTESIAN_POINT ( 'NONE',  ( 3.549999999999935874, 0.000000000000000000, -14.75000000000000000 ) ) ;
#37 = EDGE_CURVE ( 'NONE', #327, #174, #122, .T. ) ;
#38 = DIRECTION ( 'NONE',  ( -0.000000000000000000, -0.000000000000000000, 1.000000000000000000 ) ) ;
#39 = ORIENTED_EDGE ( 'NONE', *, *, #81, .T. ) ;
#40 = DIRECTION ( 'NONE',  ( -1.000000000000000000, 0.000000000000000000, 1.224646799147352221E-16 ) ) ;
#41 = CARTESIAN_POINT ( 'NONE',  ( 34.49999999999999289, 5.500000000000000000, -8.326672684688676025E-16 ) ) ;
#42 = VERTEX_POINT ( 'NONE', #517 ) ;
#43 = FACE_OUTER_BOUND ( 'NONE', #104, .T. ) ;
#44 = VECTOR ( 'NONE', #408, 1000.000000000000000 ) ;
#45 = AXIS2_PLACEMENT_3D ( 'NONE', #325, #231, #162 ) ;
#46 = DIRECTION ( 'NONE',  ( 0.000000000000000000, 0.000000000000000000, -1.000000000000000000 ) ) ;
#47 = DIRECTION ( 'NONE',  ( 0.000000000000000000, 1.000000000000000000, -0.000000000000000000 ) ) ;
#48 = ORIENTED_EDGE ( 'NONE', *, *, #266, .T. ) ;
#49 = CARTESIAN_POINT ( 'NONE',  ( 3.549999999999935874, 0.000000000000000000, -15.75000000000000000 ) ) ;
#50 = EDGE_LOOP ( 'NONE', ( #322, #853, #502, #677 ) ) ;
#51 = ORIENTED_EDGE ( 'NONE', *, *, #246, .F. ) ;
#52 = LINE ( 'NONE', #820, #396 ) ;
#53 = EDGE_LOOP ( 'NONE', ( #476, #472, #51, #233 ) ) ;
#54 = DIRECTION ( 'NONE',  ( -1.000000000000000000, -0.000000000000000000, 1.387778780781445922E-16 ) ) ;
#55 = VERTEX_POINT ( 'NONE', #423 ) ;
#56 = DIRECTION ( 'NONE',  ( -1.000000000000000000, 0.000000000000000000, 0.000000000000000000 ) ) ;
#57 = CIRCLE ( 'NONE', #251, 1.000000000000000888 ) ;
#58 = ADVANCED_FACE ( 'NONE', ( #974 ), #521, .F. ) ;
#59 = ORIENTED_EDGE ( 'NONE', *, *, #390, .F. ) ;
#60 = EDGE_CURVE ( 'NONE', #982, #495, #76, .T. ) ;
#61 = CARTESIAN_POINT ( 'NONE',  ( 30.50000000000000000, 3.500000000000000000, -4.000000000000004441 ) ) ;
#62 = ORIENTED_EDGE ( 'NONE', *, *, #32, .T. ) ;
#63 = CYLINDRICAL_SURFACE ( 'NONE', #986, 1.000000000000000888 ) ;
#64 = EDGE_CURVE ( 'NONE', #108, #206, #727, .T. ) ;
#65 =( LENGTH_UNIT ( ) NAMED_UNIT ( * ) SI_UNIT ( .MILLI., .METRE. ) );
#66 = DIRECTION ( 'NONE',  ( -0.000000000000000000, -0.000000000000000000, 1.000000000000000000 ) ) ;
#67 = PLANE ( 'NONE',  #925 ) ;
#68 = ORIENTED_EDGE ( 'NONE', *, *, #185, .T. ) ;
#69 = CARTESIAN_POINT ( 'NONE',  ( 35.50000000000000000, 5.500000000000000000, -4.000000000000004441 ) ) ;
#70 = CARTESIAN_POINT ( 'NONE',  ( 25.50000000000000000, 8.000000000000000000, 1.979187246363940331E-15 ) ) ;
#71 = EDGE_CURVE ( 'NONE', #835, #523, #661, .T. ) ;
#72 = CARTESIAN_POINT ( 'NONE',  ( 0.000000000000000000, 3.500000000000000000, 0.000000000000000000 ) ) ;
#73 = EDGE_LOOP ( 'NONE', ( #712, #441, #617, #419 ) ) ;
#74 = EDGE_CURVE ( 'NONE', #708, #739, #443, .T. ) ;
#75 = DIRECTION ( 'NONE',  ( 0.000000000000000000, 1.000000000000000000, 0.000000000000000000 ) ) ;
#76 = CIRCLE ( 'NONE', #729, 2.000000000000001776 ) ;
#77 = VECTOR ( 'NONE', #924, 1000.000000000000000 ) ;
#78 = CARTESIAN_POINT ( 'NONE',  ( 27.24999999999993250, 8.000000000000000000, -14.75000000000000000 ) ) ;
#79 = AXIS2_PLACEMENT_3D ( 'NONE', #759, #457, #837 ) ;
#80 = ORIENTED_EDGE ( 'NONE', *, *, #949, .T. ) ;
#81 = EDGE_CURVE ( 'NONE', #722, #928, #909, .T. ) ;
#82 = DIRECTION ( 'NONE',  ( 0.000000000000000000, 1.000000000000000000, -0.000000000000000000 ) ) ;
#83 = DIRECTION ( 'NONE',  ( 0.000000000000000000, 0.000000000000000000, -1.000000000000000000 ) ) ;
#84 = EDGE_LOOP ( 'NONE', ( #24, #838, #380, #250 ) ) ;
#85 = CARTESIAN_POINT ( 'NONE',  ( 36.50000000000000000, 5.500000000000000000, 3.135512682828079612E-15 ) ) ;
#86 = PLANE ( 'NONE',  #232 ) ;
#87 = VERTEX_POINT ( 'NONE', #786 ) ;
#88 = DIRECTION ( 'NONE',  ( 0.000000000000000000, 1.000000000000000000, 0.000000000000000000 ) ) ;
#89 = DIRECTION ( 'NONE',  ( -1.301042606982605567E-16, 0.000000000000000000, -1.000000000000000000 ) ) ;
#90 = EDGE_CURVE ( 'NONE', #567, #959, #329, .T. ) ;
#91 = CARTESIAN_POINT ( 'NONE',  ( 4.999999999999999112, 3.499999999999999556, -4.000000000000000000 ) ) ;
#92 = APPLICATION_CONTEXT ( 'automotive_design' ) ;
#93 = ORIENTED_EDGE ( 'NONE', *, *, #770, .F. ) ;
#94 = CIRCLE ( 'NONE', #751, 2.000000000000000000 ) ;
#95 = LINE ( 'NONE', #14, #77 ) ;
#96 = AXIS2_PLACEMENT_3D ( 'NONE', #522, #460, #149 ) ;
#97 =( GEOMETRIC_REPRESENTATION_CONTEXT ( 3 ) GLOBAL_UNCERTAINTY_ASSIGNED_CONTEXT ( ( #258 ) ) GLOBAL_UNIT_ASSIGNED_CONTEXT ( ( #984, #821, #893 ) ) REPRESENTATION_CONTEXT ( 'NONE', 'WORKASPACE' ) );
#98 = CARTESIAN_POINT ( 'NONE',  ( 25.50000000000000000, 8.000000000000000000, 1.979187246363940331E-15 ) ) ;
#99 = CARTESIAN_POINT ( 'NONE',  ( 8.999999999999998224, 5.500000000000000000, 8.673617379884035472E-16 ) ) ;
#100 = ORIENTED_EDGE ( 'NONE', *, *, #416, .F. ) ;
#101 = CYLINDRICAL_SURFACE ( 'NONE', #610, 2.000000000000001776 ) ;
#102 = DIRECTION ( 'NONE',  ( 0.000000000000000000, 0.000000000000000000, 1.000000000000000000 ) ) ;
#103 = ORIENTED_EDGE ( 'NONE', *, *, #421, .T. ) ;
#104 = EDGE_LOOP ( 'NONE', ( #458, #62, #146, #8, #184, #221 ) ) ;
#105 = ADVANCED_FACE ( 'NONE', ( #713 ), #101, .T. ) ;
#106 = CARTESIAN_POINT ( 'NONE',  ( 3.549999999999935874, 3.500000000000000000, -14.75000000000000000 ) ) ;
#107 = PLANE ( 'NONE',  #705 ) ;
#108 = VERTEX_POINT ( 'NONE', #641 ) ;
#109 = ORIENTED_EDGE ( 'NONE', *, *, #90, .T. ) ;
#110 = EDGE_CURVE ( 'NONE', #204, #824, #704, .T. ) ;
#111 = PRESENTATION_LAYER_ASSIGNMENT (  '', '', ( #300 ) ) ;
#112 = DIRECTION ( 'NONE',  ( -1.301042606982605567E-16, -0.000000000000000000, -1.000000000000000000 ) ) ;
#113 = CIRCLE ( 'NONE', #735, 2.000000000000001776 ) ;
#114 = EDGE_CURVE ( 'NONE', #198, #899, #172, .T. ) ;
#115 = CARTESIAN_POINT ( 'NONE',  ( 36.50000000000000000, 8.000000000000000000, -4.000000000000005329 ) ) ;
#116 = ORIENTED_EDGE ( 'NONE', *, *, #872, .F. ) ;
#117 =( NAMED_UNIT ( * ) SI_UNIT ( $, .STERADIAN. ) SOLID_ANGLE_UNIT ( ) );
#118 = PRESENTATION_STYLE_ASSIGNMENT (( #410 ) ) ;
#119 = ORIENTED_EDGE ( 'NONE', *, *, #674, .T. ) ;
#120 = SURFACE_STYLE_FILL_AREA ( #866 ) ;
#121 = LINE ( 'NONE', #426, #333 ) ;
#122 = LINE ( 'NONE', #594, #827 ) ;
#123 = ORIENTED_EDGE ( 'NONE', *, *, #650, .F. ) ;
#124 = CARTESIAN_POINT ( 'NONE',  ( 30.50000000000000000, 3.500000000000000000, -4.000000000000004441 ) ) ;
#125 = VECTOR ( 'NONE', #929, 1000.000000000000000 ) ;
#126 = CIRCLE ( 'NONE', #45, 2.000000000000000000 ) ;
#127 = DIRECTION ( 'NONE',  ( 1.000000000000000000, 0.000000000000000000, -1.137523590804463822E-16 ) ) ;
#128 = EDGE_LOOP ( 'NONE', ( #944, #864, #404, #68, #785, #736, #858 ) ) ;
#129 = ORIENTED_EDGE ( 'NONE', *, *, #450, .F. ) ;
#130 = FACE_OUTER_BOUND ( 'NONE', #271, .T. ) ;
#131 = EDGE_LOOP ( 'NONE', ( #116, #666, #811, #264, #911, #414 ) ) ;
#132 = CARTESIAN_POINT ( 'NONE',  ( 34.49999999999999289, 8.000000000000000000, -4.000000000000005329 ) ) ;
#133 = ORIENTED_EDGE ( 'NONE', *, *, #2, .F. ) ;
#134 = DIRECTION ( 'NONE',  ( 0.000000000000000000, 0.000000000000000000, 1.000000000000000000 ) ) ;
#135 = EDGE_CURVE ( 'NONE', #576, #189, #937, .T. ) ;
#136 = DIRECTION ( 'NONE',  ( 1.000000000000000000, -0.000000000000000000, -1.137523590804463822E-16 ) ) ;
#137 = FACE_OUTER_BOUND ( 'NONE', #778, .T. ) ;
#138 = ORIENTED_EDGE ( 'NONE', *, *, #470, .F. ) ;
#139 = CARTESIAN_POINT ( 'NONE',  ( 36.50000000000000000, 3.500000000000000000, -4.000000000000005329 ) ) ;
#140 = EDGE_CURVE ( 'NONE', #580, #574, #365, .T. ) ;
#141 = DIRECTION ( 'NONE',  ( 1.000000000000000000, 0.000000000000000000, 0.000000000000000000 ) ) ;
#142 = PLANE ( 'NONE',  #588 ) ;
#143 = VECTOR ( 'NONE', #38, 1000.000000000000000 ) ;
#144 = DIRECTION ( 'NONE',  ( -1.000000000000000000, 0.000000000000000000, -9.619403083625145814E-17 ) ) ;
#145 = COLOUR_RGB ( '',0.7921568627450980005, 0.8196078431372548767, 0.9333333333333333481 ) ;
#146 = ORIENTED_EDGE ( 'NONE', *, *, #846, .F. ) ;
#147 = CARTESIAN_POINT ( 'NONE',  ( 36.50000000000000000, 6.000000000000000000, -8.326672684688676025E-16 ) ) ;
#148 = FACE_OUTER_BOUND ( 'NONE', #131, .T. ) ;
#149 = DIRECTION ( 'NONE',  ( -1.000000000000000000, 0.000000000000000000, -9.619403083625144582E-17 ) ) ;
#150 = ORIENTED_EDGE ( 'NONE', *, *, #701, .F. ) ;
#151 = CARTESIAN_POINT ( 'NONE',  ( 1.999999999999998224, 3.499999999999999556, -20.29999999999999361 ) ) ;
#152 = EDGE_CURVE ( 'NONE', #461, #567, #478, .T. ) ;
#153 = LINE ( 'NONE', #970, #413 ) ;
#154 = ORIENTED_EDGE ( 'NONE', *, *, #874, .F. ) ;
#155 = DIRECTION ( 'NONE',  ( -1.301042606982605567E-16, -0.000000000000000000, -1.000000000000000000 ) ) ;
#156 = VECTOR ( 'NONE', #894, 1000.000000000000000 ) ;
#157 = AXIS2_PLACEMENT_3D ( 'NONE', #454, #75, #757 ) ;
#158 = FACE_OUTER_BOUND ( 'NONE', #84, .T. ) ;
#159 = VECTOR ( 'NONE', #910, 1000.000000000000000 ) ;
#160 = ORIENTED_EDGE ( 'NONE', *, *, #140, .F. ) ;
#161 = PLANE ( 'NONE',  #283 ) ;
#162 = DIRECTION ( 'NONE',  ( 1.000000000000000000, 0.000000000000000000, 0.000000000000000000 ) ) ;
#163 = ORIENTED_EDGE ( 'NONE', *, *, #342, .T. ) ;
#164 = DIRECTION ( 'NONE',  ( -1.301042606982605567E-16, 0.000000000000000000, -1.000000000000000000 ) ) ;
#165 = CARTESIAN_POINT ( 'NONE',  ( 11.00000000000000000, 8.000000000000000000, -4.000000000000001776 ) ) ;
#166 = EDGE_CURVE ( 'NONE', #958, #964, #859, .T. ) ;
#167 = CARTESIAN_POINT ( 'NONE',  ( 25.50000000000000000, 8.000000000000000000, 1.979187246363940331E-15 ) ) ;
#168 = EDGE_LOOP ( 'NONE', ( #411, #564 ) ) ;
#169 = FACE_OUTER_BOUND ( 'NONE', #445, .T. ) ;
#170 = EDGE_CURVE ( 'NONE', #340, #327, #680, .T. ) ;
#171 = CARTESIAN_POINT ( 'NONE',  ( 34.49999999999999289, 6.000000000000000000, -8.326672684688676025E-16 ) ) ;
#172 = CIRCLE ( 'NONE', #464, 2.000000000000001776 ) ;
#173 = DIRECTION ( 'NONE',  ( -0.000000000000000000, 1.000000000000000000, 0.000000000000000000 ) ) ;
#174 = VERTEX_POINT ( 'NONE', #21 ) ;
#175 = VECTOR ( 'NONE', #225, 1000.000000000000000 ) ;
#176 = AXIS2_PLACEMENT_3D ( 'NONE', #330, #881, #273 ) ;
#177 = AXIS2_PLACEMENT_3D ( 'NONE', #41, #939, #957 ) ;
#178 = CARTESIAN_POINT ( 'NONE',  ( 27.24999999999993250, 3.500000000000000000, -16.75000000000000000 ) ) ;
#179 = CARTESIAN_POINT ( 'NONE',  ( 27.24999999999993250, 3.500000000000000000, -15.75000000000000000 ) ) ;
#180 = ORIENTED_EDGE ( 'NONE', *, *, #598, .F. ) ;
#181 = ADVANCED_FACE ( 'NONE', ( #218 ), #142, .F. ) ;
#182 = CARTESIAN_POINT ( 'NONE',  ( 11.00000000000000000, 5.500000000000000000, -1.864827736675068021E-15 ) ) ;
#183 = DIRECTION ( 'NONE',  ( -0.000000000000000000, 1.000000000000000000, -0.000000000000000000 ) ) ;
#184 = ORIENTED_EDGE ( 'NONE', *, *, #636, .F. ) ;
#185 = EDGE_CURVE ( 'NONE', #768, #198, #552, .T. ) ;
#186 = VERTEX_POINT ( 'NONE', #856 ) ;
#187 = CARTESIAN_POINT ( 'NONE',  ( 36.50000000000000000, 0.000000000000000000, -8.326672684688676025E-16 ) ) ;
#188 = CARTESIAN_POINT ( 'NONE',  ( 9.999999999999998224, 5.500000000000000000, -4.000000000000000888 ) ) ;
#189 = VERTEX_POINT ( 'NONE', #70 ) ;
#190 = VECTOR ( 'NONE', #155, 1000.000000000000000 ) ;
#191 = DIRECTION ( 'NONE',  ( 0.000000000000000000, 0.000000000000000000, 1.000000000000000000 ) ) ;
#192 = VECTOR ( 'NONE', #379, 1000.000000000000000 ) ;
#193 = LINE ( 'NONE', #115, #733 ) ;
#194 = ORIENTED_EDGE ( 'NONE', *, *, #650, .T. ) ;
#195 = LINE ( 'NONE', #36, #44 ) ;
#196 = DIRECTION ( 'NONE',  ( -0.000000000000000000, 1.000000000000000000, -0.000000000000000000 ) ) ;
#197 = ORIENTED_EDGE ( 'NONE', *, *, #846, .T. ) ;
#198 = VERTEX_POINT ( 'NONE', #485 ) ;
#199 = CARTESIAN_POINT ( 'NONE',  ( 11.00000000000000000, 3.500000000000000000, -4.000000000000001776 ) ) ;
#200 = DIRECTION ( 'NONE',  ( -1.301042606982605567E-16, -0.000000000000000000, -1.000000000000000000 ) ) ;
#201 = EDGE_LOOP ( 'NONE', ( #487, #528, #848, #989 ) ) ;
#202 = CARTESIAN_POINT ( 'NONE',  ( 0.000000000000000000, 8.000000000000000000, 0.000000000000000000 ) ) ;
#203 = AXIS2_PLACEMENT_3D ( 'NONE', #294, #446, #604 ) ;
#204 = VERTEX_POINT ( 'NONE', #451 ) ;
#205 = LINE ( 'NONE', #755, #159 ) ;
#206 = VERTEX_POINT ( 'NONE', #607 ) ;
#207 = EDGE_CURVE ( 'NONE', #739, #204, #633, .T. ) ;
#208 = DIRECTION ( 'NONE',  ( -2.168404344971008868E-16, 0.000000000000000000, -1.000000000000000000 ) ) ;
#209 = CARTESIAN_POINT ( 'NONE',  ( 30.49999999999999645, 8.000000000000000000, -18.29999999999999716 ) ) ;
#210 = CARTESIAN_POINT ( 'NONE',  ( 34.49999999999999289, 5.500000000000000000, 1.999999999999995781 ) ) ;
#211 = EDGE_CURVE ( 'NONE', #174, #566, #922, .T. ) ;
#212 = VERTEX_POINT ( 'NONE', #178 ) ;
#213 = FACE_BOUND ( 'NONE', #288, .T. ) ;
#214 = DIRECTION ( 'NONE',  ( 0.000000000000000000, 0.000000000000000000, -1.000000000000000000 ) ) ;
#215 = PLANE ( 'NONE',  #219 ) ;
#216 = ORIENTED_EDGE ( 'NONE', *, *, #33, .F. ) ;
#217 = LINE ( 'NONE', #753, #967 ) ;
#218 = FACE_OUTER_BOUND ( 'NONE', #309, .T. ) ;
#219 = AXIS2_PLACEMENT_3D ( 'NONE', #527, #896, #144 ) ;
#220 = CARTESIAN_POINT ( 'NONE',  ( 33.49999999999999289, 5.500000000000000000, 9.898264179031386954E-16 ) ) ;
#221 = ORIENTED_EDGE ( 'NONE', *, *, #879, .T. ) ;
#222 = DIRECTION ( 'NONE',  ( 0.000000000000000000, 1.000000000000000000, 0.000000000000000000 ) ) ;
#223 = DIRECTION ( 'NONE',  ( -1.000000000000000000, 0.000000000000000000, 1.387778780781445922E-16 ) ) ;
#224 = ORIENTED_EDGE ( 'NONE', *, *, #110, .F. ) ;
#225 = DIRECTION ( 'NONE',  ( -0.000000000000000000, -0.000000000000000000, 1.000000000000000000 ) ) ;
#226 = CARTESIAN_POINT ( 'NONE',  ( 4.999999999999997335, 3.500000000000000000, -20.29999999999999716 ) ) ;
#227 = ORIENTED_EDGE ( 'NONE', *, *, #266, .F. ) ;
#228 = CARTESIAN_POINT ( 'NONE',  ( 33.49999999999999289, 5.500000000000000000, 1.999999999999995781 ) ) ;
#229 = AXIS2_PLACEMENT_3D ( 'NONE', #758, #374, #456 ) ;
#230 = VECTOR ( 'NONE', #586, 1000.000000000000000 ) ;
#231 = DIRECTION ( 'NONE',  ( -1.301042606982605567E-16, 0.000000000000000000, -1.000000000000000000 ) ) ;
#232 = AXIS2_PLACEMENT_3D ( 'NONE', #630, #638, #83 ) ;
#233 = ORIENTED_EDGE ( 'NONE', *, *, #314, .F. ) ;
#234 = ADVANCED_FACE ( 'NONE', ( #833, #148 ), #378, .F. ) ;
#235 = CARTESIAN_POINT ( 'NONE',  ( 34.49999999999999289, 5.500000000000000000, -4.000000000000004441 ) ) ;
#236 = ADVANCED_FACE ( 'NONE', ( #851 ), #869, .F. ) ;
#237 = DIRECTION ( 'NONE',  ( -0.000000000000000000, 1.000000000000000000, -0.000000000000000000 ) ) ;
#238 = LINE ( 'NONE', #916, #797 ) ;
#239 = EDGE_LOOP ( 'NONE', ( #799, #399 ) ) ;
#240 = ADVANCED_FACE ( 'NONE', ( #651, #43 ), #349, .F. ) ;
#241 = CARTESIAN_POINT ( 'NONE',  ( 1.999999999999998224, 3.499999999999999556, -20.29999999999999361 ) ) ;
#242 = CARTESIAN_POINT ( 'NONE',  ( 1.999999999999998224, 3.500000000000000000, -18.29999999999999361 ) ) ;
#243 = CYLINDRICAL_SURFACE ( 'NONE', #465, 1.000000000000000888 ) ;
#244 = VERTEX_POINT ( 'NONE', #794 ) ;
#245 = ORIENTED_EDGE ( 'NONE', *, *, #981, .T. ) ;
#246 = EDGE_CURVE ( 'NONE', #55, #293, #94, .T. ) ;
#247 = DIRECTION ( 'NONE',  ( 1.000000000000000000, 0.000000000000000000, 0.000000000000000000 ) ) ;
#248 = VECTOR ( 'NONE', #17, 1000.000000000000000 ) ;
#249 = CYLINDRICAL_SURFACE ( 'NONE', #317, 1.000000000000000888 ) ;
#250 = ORIENTED_EDGE ( 'NONE', *, *, #493, .T. ) ;
#251 = AXIS2_PLACEMENT_3D ( 'NONE', #9, #709, #626 ) ;
#252 = DIRECTION ( 'NONE',  ( -2.168404344971008868E-16, -0.000000000000000000, -1.000000000000000000 ) ) ;
#253 = ADVANCED_FACE ( 'NONE', ( #808 ), #659, .F. ) ;
#254 = CARTESIAN_POINT ( 'NONE',  ( 28.49999999999999645, 8.000000000000000000, -20.29999999999999716 ) ) ;
#255 = ORIENTED_EDGE ( 'NONE', *, *, #74, .F. ) ;
#256 = ORIENTED_EDGE ( 'NONE', *, *, #919, .T. ) ;
#257 = SURFACE_SIDE_STYLE ('',( #120 ) ) ;
#258 = UNCERTAINTY_MEASURE_WITH_UNIT (LENGTH_MEASURE( 1.000000000000000082E-05 ), #984, 'distance_accuracy_value', 'NONE');
#259 = CARTESIAN_POINT ( 'NONE',  ( 25.50000000000000000, 8.000000000000000000, 1.979187246363940331E-15 ) ) ;
#260 = VERTEX_POINT ( 'NONE', #106 ) ;
#261 = CARTESIAN_POINT ( 'NONE',  ( 8.999999999999998224, 5.500000000000000000, 1.999999999999999112 ) ) ;
#262 = CARTESIAN_POINT ( 'NONE',  ( 4.999999999999999112, 8.000000000000000000, -4.000000000000000888 ) ) ;
#263 = EDGE_LOOP ( 'NONE', ( #194, #807 ) ) ;
#264 = ORIENTED_EDGE ( 'NONE', *, *, #770, .T. ) ;
#265 = AXIS2_PLACEMENT_3D ( 'NONE', #49, #503, #950 ) ;
#266 = EDGE_CURVE ( 'NONE', #340, #461, #508, .T. ) ;
#267 = DIRECTION ( 'NONE',  ( -1.000000000000000000, 0.000000000000000000, 0.000000000000000000 ) ) ;
#268 = CIRCLE ( 'NONE', #96, 2.000000000000000000 ) ;
#269 = CARTESIAN_POINT ( 'NONE',  ( 27.24999999999993250, 3.500000000000000000, -15.75000000000000000 ) ) ;
#270 = DIRECTION ( 'NONE',  ( -1.000000000000000000, 0.000000000000000000, 1.224646799147351482E-16 ) ) ;
#271 = EDGE_LOOP ( 'NONE', ( #275, #976, #467, #12 ) ) ;
#272 = EDGE_CURVE ( 'NONE', #260, #544, #195, .T. ) ;
#273 = DIRECTION ( 'NONE',  ( 2.168404344971008868E-16, 0.000000000000000000, 1.000000000000000000 ) ) ;
#274 = CARTESIAN_POINT ( 'NONE',  ( 0.000000000000000000, 8.000000000000000000, 0.000000000000000000 ) ) ;
#275 = ORIENTED_EDGE ( 'NONE', *, *, #892, .F. ) ;
#276 = PLANE ( 'NONE',  #412 ) ;
#277 = CARTESIAN_POINT ( 'NONE',  ( 0.000000000000000000, 0.000000000000000000, 0.000000000000000000 ) ) ;
#278 = ADVANCED_FACE ( 'NONE', ( #717 ), #655, .F. ) ;
#279 = DIRECTION ( 'NONE',  ( -1.000000000000000000, 0.000000000000000000, 1.224646799147351482E-16 ) ) ;
#280 = EDGE_LOOP ( 'NONE', ( #341, #358, #658, #427 ) ) ;
#281 = VECTOR ( 'NONE', #200, 1000.000000000000000 ) ;
#282 = DIRECTION ( 'NONE',  ( 0.000000000000000000, 0.000000000000000000, 1.000000000000000000 ) ) ;
#283 = AXIS2_PLACEMENT_3D ( 'NONE', #319, #1, #400 ) ;
#284 = CIRCLE ( 'NONE', #671, 1.999999999999998224 ) ;
#285 = EDGE_CURVE ( 'NONE', #603, #768, #960, .T. ) ;
#286 = ORIENTED_EDGE ( 'NONE', *, *, #417, .F. ) ;
#287 = DIRECTION ( 'NONE',  ( 0.000000000000000000, 0.000000000000000000, 1.000000000000000000 ) ) ;
#288 = EDGE_LOOP ( 'NONE', ( #948, #286 ) ) ;
#289 = ADVANCED_FACE ( 'NONE', ( #338 ), #942, .F. ) ;
#290 = CARTESIAN_POINT ( 'NONE',  ( 0.000000000000000000, 8.000000000000000000, -18.29999999999999361 ) ) ;
#291 = DIRECTION ( 'NONE',  ( 1.000000000000000000, -0.000000000000000000, 0.000000000000000000 ) ) ;
#292 = FACE_OUTER_BOUND ( 'NONE', #50, .T. ) ;
#293 = VERTEX_POINT ( 'NONE', #30 ) ;
#294 = CARTESIAN_POINT ( 'NONE',  ( 0.000000000000000000, 8.000000000000000000, 0.000000000000000000 ) ) ;
#295 = DIRECTION ( 'NONE',  ( -1.387778780781445922E-16, -0.000000000000000000, -1.000000000000000000 ) ) ;
#296 = FACE_BOUND ( 'NONE', #882, .T. ) ;
#297 = ORIENTED_EDGE ( 'NONE', *, *, #166, .T. ) ;
#298 = DIRECTION ( 'NONE',  ( 0.000000000000000000, 1.000000000000000000, 0.000000000000000000 ) ) ;
#299 = VECTOR ( 'NONE', #252, 1000.000000000000000 ) ;
#300 = STYLED_ITEM ( 'NONE', ( #803 ), #312 ) ;
#301 = VECTOR ( 'NONE', #565, 1000.000000000000000 ) ;
#302 = DIRECTION ( 'NONE',  ( -1.000000000000000000, 0.000000000000000000, 0.000000000000000000 ) ) ;
#303 = ORIENTED_EDGE ( 'NONE', *, *, #973, .F. ) ;
#304 = DIRECTION ( 'NONE',  ( -0.000000000000000000, -0.000000000000000000, -1.000000000000000000 ) ) ;
#305 = CARTESIAN_POINT ( 'NONE',  ( 3.549999999999935874, 3.500000000000000000, -15.75000000000000000 ) ) ;
#306 = ORIENTED_EDGE ( 'NONE', *, *, #775, .T. ) ;
#307 = CARTESIAN_POINT ( 'NONE',  ( 1.999999999999998224, 3.499999999999999556, -18.29999999999999361 ) ) ;
#308 = DIRECTION ( 'NONE',  ( -1.301042606982605567E-16, -0.000000000000000000, -1.000000000000000000 ) ) ;
#309 = EDGE_LOOP ( 'NONE', ( #93, #954, #590, #216 ) ) ;
#310 = EDGE_CURVE ( 'NONE', #550, #964, #885, .T. ) ;
#311 = CARTESIAN_POINT ( 'NONE',  ( 28.49999999999999645, 3.499999999999999556, -20.29999999999999716 ) ) ;
#312 = MANIFOLD_SOLID_BREP ( 'Cut-Extrude14[2]', #480 ) ;
#313 = DIRECTION ( 'NONE',  ( 1.000000000000000000, 0.000000000000000000, -1.301042606982605567E-16 ) ) ;
#314 = EDGE_CURVE ( 'NONE', #743, #55, #723, .T. ) ;
#315 = VECTOR ( 'NONE', #343, 1000.000000000000000 ) ;
#316 = CARTESIAN_POINT ( 'NONE',  ( 11.00000000000000000, 5.500000000000000000, -7.083454193571959015E-16 ) ) ;
#317 = AXIS2_PLACEMENT_3D ( 'NONE', #863, #321, #624 ) ;
#318 = ORIENTED_EDGE ( 'NONE', *, *, #949, .F. ) ;
#319 = CARTESIAN_POINT ( 'NONE',  ( 30.49999999999999645, 3.499999999999999556, -20.29999999999999716 ) ) ;
#320 = CARTESIAN_POINT ( 'NONE',  ( 8.999999999999998224, 5.500000000000000000, -4.000000000000000888 ) ) ;
#321 = DIRECTION ( 'NONE',  ( -1.301042606982605567E-16, -0.000000000000000000, -1.000000000000000000 ) ) ;
#322 = ORIENTED_EDGE ( 'NONE', *, *, #804, .F. ) ;
#323 = CARTESIAN_POINT ( 'NONE',  ( 34.49999999999999289, 8.000000000000000000, 8.770051271313238993E-16 ) ) ;
#324 = DIRECTION ( 'NONE',  ( 0.000000000000000000, 0.000000000000000000, -1.000000000000000000 ) ) ;
#325 = CARTESIAN_POINT ( 'NONE',  ( 8.999999999999998224, 6.000000000000000000, -4.000000000000001776 ) ) ;
#326 = ORIENTED_EDGE ( 'NONE', *, *, #6, .T. ) ;
#327 = VERTEX_POINT ( 'NONE', #355 ) ;
#328 = ADVANCED_FACE ( 'NONE', ( #130 ), #520, .F. ) ;
#329 = LINE ( 'NONE', #165, #409 ) ;
#330 = CARTESIAN_POINT ( 'NONE',  ( 11.00000000000000000, -3.134651602192768148E-31, -1.864827736675068021E-15 ) ) ;
#331 = VERTEX_POINT ( 'NONE', #972 ) ;
#332 = AXIS2_PLACEMENT_3D ( 'NONE', #5, #88, #545 ) ;
#333 = VECTOR ( 'NONE', #183, 1000.000000000000000 ) ;
#334 = EDGE_LOOP ( 'NONE', ( #197, #245, #103, #687 ) ) ;
#335 = CARTESIAN_POINT ( 'NONE',  ( 27.24999999999993250, 0.000000000000000000, -15.75000000000000000 ) ) ;
#336 = DIRECTION ( 'NONE',  ( 1.137523590804463822E-16, 0.000000000000000000, 1.000000000000000000 ) ) ;
#337 = ORIENTED_EDGE ( 'NONE', *, *, #701, .T. ) ;
#338 = FACE_OUTER_BOUND ( 'NONE', #540, .T. ) ;
#339 = LINE ( 'NONE', #199, #938 ) ;
#340 = VERTEX_POINT ( 'NONE', #202 ) ;
#341 = ORIENTED_EDGE ( 'NONE', *, *, #360, .T. ) ;
#342 = EDGE_CURVE ( 'NONE', #964, #958, #829, .T. ) ;
#343 = DIRECTION ( 'NONE',  ( 1.000000000000000000, -0.000000000000000000, 9.619403083625145814E-17 ) ) ;
#344 = CARTESIAN_POINT ( 'NONE',  ( 27.24999999999993250, 0.000000000000000000, -16.75000000000000000 ) ) ;
#345 = VERTEX_POINT ( 'NONE', #683 ) ;
#346 = ADVANCED_FACE ( 'NONE', ( #761 ), #815, .T. ) ;
#347 = VECTOR ( 'NONE', #136, 1000.000000000000000 ) ;
#348 = VECTOR ( 'NONE', #873, 1000.000000000000000 ) ;
#349 = PLANE ( 'NONE',  #875 ) ;
#350 = VECTOR ( 'NONE', #54, 1000.000000000000000 ) ;
#351 = VECTOR ( 'NONE', #46, 1000.000000000000000 ) ;
#352 = CARTESIAN_POINT ( 'NONE',  ( 27.24999999999993250, 0.000000000000000000, -14.75000000000000000 ) ) ;
#353 = CARTESIAN_POINT ( 'NONE',  ( 11.00000000000000000, 6.000000000000000000, -1.864827736675068021E-15 ) ) ;
#354 = ORIENTED_EDGE ( 'NONE', *, *, #800, .F. ) ;
#355 = CARTESIAN_POINT ( 'NONE',  ( -3.469446951953614189E-15, 3.500000000000000000, -4.814824860968089633E-31 ) ) ;
#356 = PRODUCT_DEFINITION ( 'General', '', #615, #605 ) ;
#357 = DIRECTION ( 'NONE',  ( 1.224646799147352221E-16, -0.000000000000000000, 1.000000000000000000 ) ) ;
#358 = ORIENTED_EDGE ( 'NONE', *, *, #314, .T. ) ;
#359 = CARTESIAN_POINT ( 'NONE',  ( 34.49999999999999289, 3.500000000000000000, 4.488596994089989146E-15 ) ) ;
#360 = EDGE_CURVE ( 'NONE', #206, #743, #52, .T. ) ;
#361 = LINE ( 'NONE', #806, #281 ) ;
#362 = EDGE_CURVE ( 'NONE', #392, #87, #217, .T. ) ;
#363 = CARTESIAN_POINT ( 'NONE',  ( 9.000000000000000000, 6.000000000000000000, 8.657462775262629507E-16 ) ) ;
#364 = ORIENTED_EDGE ( 'NONE', *, *, #71, .T. ) ;
#365 = CIRCLE ( 'NONE', #229, 1.000000000000000888 ) ;
#366 = CARTESIAN_POINT ( 'NONE',  ( 3.549999999999935874, 8.000000000000000000, -15.75000000000000000 ) ) ;
#367 = AXIS2_PLACEMENT_3D ( 'NONE', #366, #372, #912 ) ;
#368 = VECTOR ( 'NONE', #620, 1000.000000000000000 ) ;
#369 = DIRECTION ( 'NONE',  ( -1.000000000000000000, 0.000000000000000000, -9.619403083625150745E-17 ) ) ;
#370 = LINE ( 'NONE', #383, #192 ) ;
#371 = ORIENTED_EDGE ( 'NONE', *, *, #430, .T. ) ;
#372 = DIRECTION ( 'NONE',  ( 0.000000000000000000, 1.000000000000000000, 0.000000000000000000 ) ) ;
#373 = SHAPE_DEFINITION_REPRESENTATION ( #532, #734 ) ;
#374 = DIRECTION ( 'NONE',  ( 0.000000000000000000, 1.000000000000000000, 0.000000000000000000 ) ) ;
#375 = CARTESIAN_POINT ( 'NONE',  ( 30.49999999999999645, 8.000000000000000000, -24.99999999999999645 ) ) ;
#376 = VERTEX_POINT ( 'NONE', #69 ) ;
#377 = CARTESIAN_POINT ( 'NONE',  ( 3.549999999999935874, 0.000000000000000000, -15.75000000000000000 ) ) ;
#378 = PLANE ( 'NONE',  #589 ) ;
#379 = DIRECTION ( 'NONE',  ( 2.168404344971008868E-16, -0.000000000000000000, 1.000000000000000000 ) ) ;
#380 = ORIENTED_EDGE ( 'NONE', *, *, #547, .T. ) ;
#381 = DIRECTION ( 'NONE',  ( 1.000000000000000000, 0.000000000000000000, 0.000000000000000000 ) ) ;
#382 = AXIS2_PLACEMENT_3D ( 'NONE', #898, #438, #832 ) ;
#383 = CARTESIAN_POINT ( 'NONE',  ( 9.000000000000000000, 3.500000000000000000, -1.951563910473907981E-15 ) ) ;
#384 = EDGE_LOOP ( 'NONE', ( #19, #756, #371, #154 ) ) ;
#385 = CARTESIAN_POINT ( 'NONE',  ( 27.24999999999993250, 8.000000000000000000, -16.75000000000000000 ) ) ;
#386 = ADVANCED_FACE ( 'NONE', ( #741 ), #63, .F. ) ;
#387 = CARTESIAN_POINT ( 'NONE',  ( 1.999999999999997780, 8.000000000000000000, -20.29999999999999361 ) ) ;
#388 = ORIENTED_EDGE ( 'NONE', *, *, #310, .T. ) ;
#389 = CYLINDRICAL_SURFACE ( 'NONE', #719, 1.999999999999998224 ) ;
#390 = EDGE_CURVE ( 'NONE', #331, #174, #690, .T. ) ;
#391 = DIRECTION ( 'NONE',  ( -9.619403083625145814E-17, -0.000000000000000000, 1.000000000000000000 ) ) ;
#392 = VERTEX_POINT ( 'NONE', #359 ) ;
#393 = ADVANCED_FACE ( 'NONE', ( #515, #906 ), #276, .F. ) ;
#394 = CARTESIAN_POINT ( 'NONE',  ( 30.50000000000000000, 3.500000000000000000, 3.968179951296947017E-15 ) ) ;
#395 = DIRECTION ( 'NONE',  ( 1.301042606982605567E-16, 0.000000000000000000, 1.000000000000000000 ) ) ;
#396 = VECTOR ( 'NONE', #672, 1000.000000000000000 ) ;
#397 = DIRECTION ( 'NONE',  ( 0.000000000000000000, 0.000000000000000000, 1.000000000000000000 ) ) ;
#398 = CIRCLE ( 'NONE', #812, 1.000000000000000888 ) ;
#399 = ORIENTED_EDGE ( 'NONE', *, *, #800, .T. ) ;
#400 = DIRECTION ( 'NONE',  ( 1.000000000000000000, 0.000000000000000000, -1.137523590804463822E-16 ) ) ;
#401 = CARTESIAN_POINT ( 'NONE',  ( 9.000000000000000000, 8.000000000000000000, -1.951563910473907981E-15 ) ) ;
#402 = DIRECTION ( 'NONE',  ( 9.619403083625145814E-17, 0.000000000000000000, -1.000000000000000000 ) ) ;
#403 = ORIENTED_EDGE ( 'NONE', *, *, #272, .F. ) ;
#404 = ORIENTED_EDGE ( 'NONE', *, *, #907, .T. ) ;
#405 = DIRECTION ( 'NONE',  ( -1.000000000000000000, -0.000000000000000000, 1.301042606982605567E-16 ) ) ;
#406 = FACE_OUTER_BOUND ( 'NONE', #871, .T. ) ;
#407 = ORIENTED_EDGE ( 'NONE', *, *, #436, .F. ) ;
#408 = DIRECTION ( 'NONE',  ( -0.000000000000000000, 1.000000000000000000, -0.000000000000000000 ) ) ;
#409 = VECTOR ( 'NONE', #405, 1000.000000000000000 ) ;
#410 = SURFACE_STYLE_USAGE ( .BOTH. , #501 ) ;
#411 = ORIENTED_EDGE ( 'NONE', *, *, #166, .F. ) ;
#412 = AXIS2_PLACEMENT_3D ( 'NONE', #836, #222, #530 ) ;
#413 = VECTOR ( 'NONE', #681, 1000.000000000000000 ) ;
#414 = ORIENTED_EDGE ( 'NONE', *, *, #804, .T. ) ;
#415 = CARTESIAN_POINT ( 'NONE',  ( 9.999999999999998224, 5.500000000000000000, 1.999999999999999112 ) ) ;
#416 = EDGE_CURVE ( 'NONE', #42, #982, #592, .T. ) ;
#417 = EDGE_CURVE ( 'NONE', #345, #544, #496, .T. ) ;
#418 = DIRECTION ( 'NONE',  ( -0.000000000000000000, 1.000000000000000000, -0.000000000000000000 ) ) ;
#419 = ORIENTED_EDGE ( 'NONE', *, *, #6, .F. ) ;
#420 = DIRECTION ( 'NONE',  ( -1.224646799147352221E-16, 0.000000000000000000, -1.000000000000000000 ) ) ;
#421 = EDGE_CURVE ( 'NONE', #722, #42, #902, .T. ) ;
#422 = CARTESIAN_POINT ( 'NONE',  ( 9.000000000000001776, 3.500000000000000000, 1.170938346284345183E-15 ) ) ;
#423 = CARTESIAN_POINT ( 'NONE',  ( 11.00000000000000000, 5.500000000000000000, -4.000000000000001776 ) ) ;
#424 = FILL_AREA_STYLE_COLOUR ( '', #533 ) ;
#425 = ADVANCED_FACE ( 'NONE', ( #213, #524 ), #678, .F. ) ;
#426 = CARTESIAN_POINT ( 'NONE',  ( 25.50000000000000355, 0.000000000000000000, -20.29999999999999716 ) ) ;
#427 = ORIENTED_EDGE ( 'NONE', *, *, #64, .T. ) ;
#428 = VECTOR ( 'NONE', #646, 1000.000000000000000 ) ;
#429 = ORIENTED_EDGE ( 'NONE', *, *, #622, .F. ) ;
#430 = EDGE_CURVE ( 'NONE', #574, #580, #611, .T. ) ;
#431 = AXIS2_PLACEMENT_3D ( 'NONE', #305, #601, #904 ) ;
#432 = CARTESIAN_POINT ( 'NONE',  ( 30.50000000000000000, 8.000000000000000000, 1.366863846790264196E-15 ) ) ;
#433 =( GEOMETRIC_REPRESENTATION_CONTEXT ( 3 ) GLOBAL_UNCERTAINTY_ASSIGNED_CONTEXT ( ( #728 ) ) GLOBAL_UNIT_ASSIGNED_CONTEXT ( ( #65, #684, #606 ) ) REPRESENTATION_CONTEXT ( 'NONE', 'WORKASPACE' ) );
#434 = DIRECTION ( 'NONE',  ( 0.000000000000000000, 0.000000000000000000, 1.000000000000000000 ) ) ;
#435 = CARTESIAN_POINT ( 'NONE',  ( 30.49999999999999645, 3.499999999999999556, -20.29999999999999716 ) ) ;
#436 = EDGE_CURVE ( 'NONE', #609, #42, #548, .T. ) ;
#437 = EDGE_LOOP ( 'NONE', ( #160, #510 ) ) ;
#438 = DIRECTION ( 'NONE',  ( -2.168404344971008868E-16, 0.000000000000000000, -1.000000000000000000 ) ) ;
#439 = ORIENTED_EDGE ( 'NONE', *, *, #135, .F. ) ;
#440 = DIRECTION ( 'NONE',  ( -1.301042606982605567E-16, -0.000000000000000000, -1.000000000000000000 ) ) ;
#441 = ORIENTED_EDGE ( 'NONE', *, *, #775, .F. ) ;
#442 = DIRECTION ( 'NONE',  ( -1.301042606982605567E-16, 0.000000000000000000, -1.000000000000000000 ) ) ;
#443 = LINE ( 'NONE', #754, #688 ) ;
#444 = CARTESIAN_POINT ( 'NONE',  ( 3.549999999999935874, 3.500000000000000000, -15.75000000000000000 ) ) ;
#445 = EDGE_LOOP ( 'NONE', ( #773, #59, #582, #129 ) ) ;
#446 = DIRECTION ( 'NONE',  ( 0.000000000000000000, -1.000000000000000000, 0.000000000000000000 ) ) ;
#447 = MECHANICAL_DESIGN_GEOMETRIC_PRESENTATION_REPRESENTATION (  '', ( #300 ), #951 ) ;
#448 = AXIS2_PLACEMENT_3D ( 'NONE', #179, #787, #102 ) ;
#449 = PRODUCT_CONTEXT ( 'NONE', #891, 'mechanical' ) ;
#450 = EDGE_CURVE ( 'NONE', #566, #824, #538, .T. ) ;
#451 = CARTESIAN_POINT ( 'NONE',  ( 4.999999999999999112, 8.000000000000000000, -20.29999999999999361 ) ) ;
#452 = CARTESIAN_POINT ( 'NONE',  ( 33.49999999999999289, 5.500000000000000000, -4.000000000000004441 ) ) ;
#453 = ORIENTED_EDGE ( 'NONE', *, *, #2, .T. ) ;
#454 = CARTESIAN_POINT ( 'NONE',  ( 27.24999999999993250, 8.000000000000000000, -15.75000000000000000 ) ) ;
#455 = EDGE_CURVE ( 'NONE', #331, #340, #890, .T. ) ;
#456 = DIRECTION ( 'NONE',  ( 0.000000000000000000, 0.000000000000000000, 1.000000000000000000 ) ) ;
#457 = DIRECTION ( 'NONE',  ( 2.168404344971008868E-16, 0.000000000000000000, 1.000000000000000000 ) ) ;
#458 = ORIENTED_EDGE ( 'NONE', *, *, #362, .F. ) ;
#459 = DIRECTION ( 'NONE',  ( 0.000000000000000000, 0.000000000000000000, 1.000000000000000000 ) ) ;
#460 = DIRECTION ( 'NONE',  ( -9.619403083625145814E-17, -0.000000000000000000, 1.000000000000000000 ) ) ;
#461 = VERTEX_POINT ( 'NONE', #694 ) ;
#462 = EDGE_CURVE ( 'NONE', #693, #186, #669, .T. ) ;
#463 = DIRECTION ( 'NONE',  ( -1.000000000000000000, -0.000000000000000000, 1.301042606982605567E-16 ) ) ;
#464 = AXIS2_PLACEMENT_3D ( 'NONE', #776, #637, #324 ) ;
#465 = AXIS2_PLACEMENT_3D ( 'NONE', #777, #308, #847 ) ;
#466 = DIRECTION ( 'NONE',  ( -0.000000000000000000, -1.000000000000000000, -0.000000000000000000 ) ) ;
#467 = ORIENTED_EDGE ( 'NONE', *, *, #874, .T. ) ;
#468 = EDGE_CURVE ( 'NONE', #897, #327, #541, .T. ) ;
#469 = CARTESIAN_POINT ( 'NONE',  ( 27.24999999999993250, 3.500000000000000000, -14.75000000000000000 ) ) ;
#470 = EDGE_CURVE ( 'NONE', #376, #635, #689, .T. ) ;
#471 = CARTESIAN_POINT ( 'NONE',  ( 25.50000000000000355, 3.499999999999999556, -20.29999999999999716 ) ) ;
#472 = ORIENTED_EDGE ( 'NONE', *, *, #597, .F. ) ;
#473 = CARTESIAN_POINT ( 'NONE',  ( 34.49999999999999289, 8.000000000000000000, 0.000000000000000000 ) ) ;
#474 = DIRECTION ( 'NONE',  ( 1.000000000000000000, 0.000000000000000000, 0.000000000000000000 ) ) ;
#475 = LINE ( 'NONE', #11, #783 ) ;
#476 = ORIENTED_EDGE ( 'NONE', *, *, #647, .F. ) ;
#477 = CARTESIAN_POINT ( 'NONE',  ( 8.999999999999998224, 8.000000000000000000, -4.000000000000001776 ) ) ;
#478 = LINE ( 'NONE', #401, #299 ) ;
#479 = VECTOR ( 'NONE', #556, 1000.000000000000000 ) ;
#480 = CLOSED_SHELL ( 'NONE', ( #642, #253, #652, #240, #328, #747, #602, #789, #542, #568, #619, #236, #855, #105, #818 ) ) ;
#481 = AXIS2_PLACEMENT_3D ( 'NONE', #965, #442, #56 ) ;
#482 = DIRECTION ( 'NONE',  ( 1.000000000000000000, -0.000000000000000000, 0.000000000000000000 ) ) ;
#483 = AXIS2_PLACEMENT_3D ( 'NONE', #167, #482, #784 ) ;
#484 = ORIENTED_EDGE ( 'NONE', *, *, #749, .T. ) ;
#485 = CARTESIAN_POINT ( 'NONE',  ( 30.49999999999999645, 8.000000000000000000, -18.29999999999999716 ) ) ;
#486 = DIRECTION ( 'NONE',  ( -1.000000000000000000, 0.000000000000000000, -9.619403083625150745E-17 ) ) ;
#487 = ORIENTED_EDGE ( 'NONE', *, *, #455, .F. ) ;
#488 = EDGE_LOOP ( 'NONE', ( #558, #889 ) ) ;
#489 = DIRECTION ( 'NONE',  ( -1.301042606982605567E-16, 0.000000000000000000, -1.000000000000000000 ) ) ;
#490 = DIRECTION ( 'NONE',  ( -0.000000000000000000, -1.000000000000000000, -0.000000000000000000 ) ) ;
#491 = ORIENTED_EDGE ( 'NONE', *, *, #468, .F. ) ;
#492 = CARTESIAN_POINT ( 'NONE',  ( 5.000000000000000000, 8.000000000000000000, 4.809701541812573154E-16 ) ) ;
#493 = EDGE_CURVE ( 'NONE', #635, #376, #57, .T. ) ;
#494 = CARTESIAN_POINT ( 'NONE',  ( 36.50000000000000000, 6.000000000000000000, 3.135512682828079612E-15 ) ) ;
#495 = VERTEX_POINT ( 'NONE', #323 ) ;
#496 = CIRCLE ( 'NONE', #367, 1.000000000000000888 ) ;
#497 = AXIS2_PLACEMENT_3D ( 'NONE', #99, #402, #486 ) ;
#498 = AXIS2_PLACEMENT_3D ( 'NONE', #269, #583, #434 ) ;
#499 = EDGE_CURVE ( 'NONE', #763, #958, #95, .T. ) ;
#500 = DIRECTION ( 'NONE',  ( -1.000000000000000000, 0.000000000000000000, 0.000000000000000000 ) ) ;
#501 = SURFACE_SIDE_STYLE ('',( #653 ) ) ;
#502 = ORIENTED_EDGE ( 'NONE', *, *, #706, .F. ) ;
#503 = DIRECTION ( 'NONE',  ( -0.000000000000000000, 1.000000000000000000, -0.000000000000000000 ) ) ;
#504 = CARTESIAN_POINT ( 'NONE',  ( 7.999999999999996447, 5.500000000000000000, -4.000000000000000888 ) ) ;
#505 = ORIENTED_EDGE ( 'NONE', *, *, #207, .F. ) ;
#506 = ORIENTED_EDGE ( 'NONE', *, *, #674, .F. ) ;
#507 = EDGE_CURVE ( 'NONE', #544, #345, #628, .T. ) ;
#508 = LINE ( 'NONE', #492, #315 ) ;
#509 = CARTESIAN_POINT ( 'NONE',  ( 30.50000000000000000, 3.500000000000000000, -2.500000000000003553 ) ) ;
#510 = ORIENTED_EDGE ( 'NONE', *, *, #430, .F. ) ;
#511 = VECTOR ( 'NONE', #47, 1000.000000000000000 ) ;
#512 = AXIS2_PLACEMENT_3D ( 'NONE', #983, #612, #381 ) ;
#513 = ORIENTED_EDGE ( 'NONE', *, *, #417, .T. ) ;
#514 = AXIS2_PLACEMENT_3D ( 'NONE', #375, #223, #3 ) ;
#515 = FACE_BOUND ( 'NONE', #263, .T. ) ;
#516 = MECHANICAL_DESIGN_GEOMETRIC_PRESENTATION_REPRESENTATION (  '', ( #577 ), #433 ) ;
#517 = CARTESIAN_POINT ( 'NONE',  ( 36.50000000000000000, 6.000000000000000000, -4.000000000000005329 ) ) ;
#518 = CARTESIAN_POINT ( 'NONE',  ( 25.50000000000000355, 8.000000000000000000, -20.29999999999999716 ) ) ;
#519 = ORIENTED_EDGE ( 'NONE', *, *, #362, .T. ) ;
#520 = CYLINDRICAL_SURFACE ( 'NONE', #782, 1.000000000000000888 ) ;
#521 = PLANE ( 'NONE',  #529 ) ;
#522 = CARTESIAN_POINT ( 'NONE',  ( 9.000000000000000000, 5.500000000000000000, 8.657462775262629507E-16 ) ) ;
#523 = VERTEX_POINT ( 'NONE', #311 ) ;
#524 = FACE_OUTER_BOUND ( 'NONE', #921, .T. ) ;
#525 = ADVANCED_FACE ( 'NONE', ( #169 ), #389, .T. ) ;
#526 = CARTESIAN_POINT ( 'NONE',  ( 8.999999999999998224, 5.500000000000000000, 8.673617379884035472E-16 ) ) ;
#527 = CARTESIAN_POINT ( 'NONE',  ( 5.000000000000000000, 8.000000000000000000, 4.809701541812573154E-16 ) ) ;
#528 = ORIENTED_EDGE ( 'NONE', *, *, #390, .T. ) ;
#529 = AXIS2_PLACEMENT_3D ( 'NONE', #274, #291, #214 ) ;
#530 = DIRECTION ( 'NONE',  ( 0.000000000000000000, -0.000000000000000000, 1.000000000000000000 ) ) ;
#531 = EDGE_CURVE ( 'NONE', #495, #609, #623, .T. ) ;
#532 = PRODUCT_DEFINITION_SHAPE ( 'NONE', 'NONE',  #356 ) ;
#533 = COLOUR_RGB ( '',0.7921568627450980005, 0.8196078431372548767, 0.9333333333333333481 ) ;
#534 = APPLICATION_PROTOCOL_DEFINITION ( 'draft international standard', 'automotive_design', 1998, #891 ) ;
#535 = DIRECTION ( 'NONE',  ( -1.000000000000000000, 0.000000000000000000, 1.301042606982605567E-16 ) ) ;
#536 = CARTESIAN_POINT ( 'NONE',  ( 36.50000000000000000, 3.500000000000000000, -4.000000000000005329 ) ) ;
#537 = ORIENTED_EDGE ( 'NONE', *, *, #185, .F. ) ;
#538 = LINE ( 'NONE', #151, #230 ) ;
#539 = CYLINDRICAL_SURFACE ( 'NONE', #988, 1.000000000000000888 ) ;
#540 = EDGE_LOOP ( 'NONE', ( #429, #80, #513, #403 ) ) ;
#541 = LINE ( 'NONE', #394, #125 ) ;
#542 = ADVANCED_FACE ( 'NONE', ( #702 ), #161, .F. ) ;
#543 = DIRECTION ( 'NONE',  ( 0.000000000000000000, 1.000000000000000000, 0.000000000000000000 ) ) ;
#544 = VERTEX_POINT ( 'NONE', #769 ) ;
#545 = DIRECTION ( 'NONE',  ( 0.000000000000000000, 0.000000000000000000, 1.000000000000000000 ) ) ;
#546 = VECTOR ( 'NONE', #295, 1000.000000000000000 ) ;
#547 = EDGE_CURVE ( 'NONE', #693, #635, #551, .T. ) ;
#548 = CIRCLE ( 'NONE', #512, 2.000000000000001776 ) ;
#549 = DIRECTION ( 'NONE',  ( 0.000000000000000000, 0.000000000000000000, 1.000000000000000000 ) ) ;
#550 = VERTEX_POINT ( 'NONE', #632 ) ;
#551 = LINE ( 'NONE', #228, #190 ) ;
#552 = LINE ( 'NONE', #933, #546 ) ;
#553 = FACE_BOUND ( 'NONE', #437, .T. ) ;
#554 = EDGE_LOOP ( 'NONE', ( #491, #940, #968, #662, #227, #917 ) ) ;
#555 = CYLINDRICAL_SURFACE ( 'NONE', #31, 2.000000000000001776 ) ;
#556 = DIRECTION ( 'NONE',  ( -1.000000000000000000, 0.000000000000000000, 1.137523590804463822E-16 ) ) ;
#557 = CARTESIAN_POINT ( 'NONE',  ( 7.999999999999996447, 5.500000000000000000, 7.711677071521519658E-16 ) ) ;
#558 = ORIENTED_EDGE ( 'NONE', *, *, #849, .T. ) ;
#559 = DIRECTION ( 'NONE',  ( -0.000000000000000000, -1.000000000000000000, -0.000000000000000000 ) ) ;
#560 = AXIS2_PLACEMENT_3D ( 'NONE', #918, #915, #850 ) ;
#561 = VECTOR ( 'NONE', #490, 1000.000000000000000 ) ;
#562 = CARTESIAN_POINT ( 'NONE',  ( 36.50000000000000000, 3.500000000000000000, 3.135512682828079612E-15 ) ) ;
#563 = VERTEX_POINT ( 'NONE', #469 ) ;
#564 = ORIENTED_EDGE ( 'NONE', *, *, #342, .F. ) ;
#565 = DIRECTION ( 'NONE',  ( -1.301042606982605567E-16, -0.000000000000000000, -1.000000000000000000 ) ) ;
#566 = VERTEX_POINT ( 'NONE', #241 ) ;
#567 = VERTEX_POINT ( 'NONE', #477 ) ;
#568 = ADVANCED_FACE ( 'NONE', ( #779 ), #555, .T. ) ;
#569 = PLANE ( 'NONE',  #176 ) ;
#570 = VERTEX_POINT ( 'NONE', #85 ) ;
#571 = EDGE_CURVE ( 'NONE', #293, #708, #618, .T. ) ;
#572 = CIRCLE ( 'NONE', #842, 1.000000000000000888 ) ;
#573 = DIRECTION ( 'NONE',  ( 1.541976423090495633E-16, -0.000000000000000000, 1.000000000000000000 ) ) ;
#574 = VERTEX_POINT ( 'NONE', #385 ) ;
#575 = VECTOR ( 'NONE', #573, 1000.000000000000000 ) ;
#576 = VERTEX_POINT ( 'NONE', #518 ) ;
#577 = STYLED_ITEM ( 'NONE', ( #118 ), #990 ) ;
#578 =( LENGTH_UNIT ( ) NAMED_UNIT ( * ) SI_UNIT ( .MILLI., .METRE. ) );
#579 = LINE ( 'NONE', #943, #143 ) ;
#580 = VERTEX_POINT ( 'NONE', #78 ) ;
#581 = ADVANCED_FACE ( 'NONE', ( #292 ), #686, .T. ) ;
#582 = ORIENTED_EDGE ( 'NONE', *, *, #716, .F. ) ;
#583 = DIRECTION ( 'NONE',  ( 0.000000000000000000, 1.000000000000000000, 0.000000000000000000 ) ) ;
#584 = DIRECTION ( 'NONE',  ( -0.000000000000000000, -0.000000000000000000, -1.000000000000000000 ) ) ;
#585 = ORIENTED_EDGE ( 'NONE', *, *, #285, .T. ) ;
#586 = DIRECTION ( 'NONE',  ( 0.000000000000000000, 1.000000000000000000, 0.000000000000000000 ) ) ;
#587 = LINE ( 'NONE', #209, #511 ) ;
#588 = AXIS2_PLACEMENT_3D ( 'NONE', #710, #535, #395 ) ;
#589 = AXIS2_PLACEMENT_3D ( 'NONE', #685, #10, #313 ) ;
#590 = ORIENTED_EDGE ( 'NONE', *, *, #207, .T. ) ;
#591 = AXIS2_PLACEMENT_3D ( 'NONE', #72, #668, #817 ) ;
#592 = LINE ( 'NONE', #147, #613 ) ;
#593 = APPLICATION_PROTOCOL_DEFINITION ( 'draft international standard', 'automotive_design', 1998, #92 ) ;
#594 = CARTESIAN_POINT ( 'NONE',  ( 0.000000000000000000, 3.500000000000000000, -24.99999999999999645 ) ) ;
#595 = FACE_OUTER_BOUND ( 'NONE', #865, .T. ) ;
#596 = ORIENTED_EDGE ( 'NONE', *, *, #742, .F. ) ;
#597 = EDGE_CURVE ( 'NONE', #293, #897, #370, .T. ) ;
#598 = EDGE_CURVE ( 'NONE', #899, #576, #153, .T. ) ;
#599 = DIRECTION ( 'NONE',  ( -0.000000000000000000, -1.000000000000000000, -0.000000000000000000 ) ) ;
#600 = ORIENTED_EDGE ( 'NONE', *, *, #450, .T. ) ;
#601 = DIRECTION ( 'NONE',  ( 0.000000000000000000, 1.000000000000000000, 0.000000000000000000 ) ) ;
#602 = ADVANCED_FACE ( 'NONE', ( #676, #137 ), #834, .F. ) ;
#603 = VERTEX_POINT ( 'NONE', #61 ) ;
#604 = DIRECTION ( 'NONE',  ( 0.000000000000000000, 0.000000000000000000, -1.000000000000000000 ) ) ;
#605 = PRODUCT_DEFINITION_CONTEXT ( 'detailed design', #92, 'design' ) ;
#606 =( NAMED_UNIT ( * ) SI_UNIT ( $, .STERADIAN. ) SOLID_ANGLE_UNIT ( ) );
#607 = CARTESIAN_POINT ( 'NONE',  ( 11.00000000000000000, 6.000000000000000000, -8.529057090219299904E-16 ) ) ;
#608 = DIRECTION ( 'NONE',  ( 1.000000000000000000, 0.000000000000000000, -1.387778780781445922E-16 ) ) ;
#609 = VERTEX_POINT ( 'NONE', #132 ) ;
#610 = AXIS2_PLACEMENT_3D ( 'NONE', #171, #908, #474 ) ;
#611 = CIRCLE ( 'NONE', #157, 1.000000000000000888 ) ;
#612 = DIRECTION ( 'NONE',  ( -1.387778780781445922E-16, 0.000000000000000000, -1.000000000000000000 ) ) ;
#613 = VECTOR ( 'NONE', #134, 1000.000000000000000 ) ;
#614 = CIRCLE ( 'NONE', #969, 2.000000000000000000 ) ;
#615 = PRODUCT_DEFINITION_FORMATION_WITH_SPECIFIED_SOURCE ( 'Symmetric', '', #679, .NOT_KNOWN. ) ;
#616 = DIRECTION ( 'NONE',  ( 1.000000000000000000, -0.000000000000000000, -1.224646799147352221E-16 ) ) ;
#617 = ORIENTED_EDGE ( 'NONE', *, *, #114, .F. ) ;
#618 = LINE ( 'NONE', #697, #831 ) ;
#619 = ADVANCED_FACE ( 'NONE', ( #980, #900 ), #67, .F. ) ;
#620 = DIRECTION ( 'NONE',  ( -0.000000000000000000, -1.000000000000000000, -0.000000000000000000 ) ) ;
#621 = ORIENTED_EDGE ( 'NONE', *, *, #436, .T. ) ;
#622 = EDGE_CURVE ( 'NONE', #244, #260, #398, .T. ) ;
#623 = LINE ( 'NONE', #473, #29 ) ;
#624 = DIRECTION ( 'NONE',  ( -1.000000000000000000, 0.000000000000000000, 0.000000000000000000 ) ) ;
#625 = ORIENTED_EDGE ( 'NONE', *, *, #499, .T. ) ;
#626 = DIRECTION ( 'NONE',  ( -1.000000000000000000, 0.000000000000000000, 0.000000000000000000 ) ) ;
#627 = DIRECTION ( 'NONE',  ( -1.000000000000000000, 0.000000000000000000, 0.000000000000000000 ) ) ;
#628 = CIRCLE ( 'NONE', #332, 1.000000000000000888 ) ;
#629 = VECTOR ( 'NONE', #543, 1000.000000000000000 ) ;
#630 = CARTESIAN_POINT ( 'NONE',  ( 0.000000000000000000, 8.000000000000000000, 0.000000000000000000 ) ) ;
#631 = ORIENTED_EDGE ( 'NONE', *, *, #547, .F. ) ;
#632 = CARTESIAN_POINT ( 'NONE',  ( 9.999999999999998224, 5.500000000000000000, 9.635557688246550300E-16 ) ) ;
#633 = LINE ( 'NONE', #926, #795 ) ;
#634 = FACE_OUTER_BOUND ( 'NONE', #901, .T. ) ;
#635 = VERTEX_POINT ( 'NONE', #452 ) ;
#636 = EDGE_CURVE ( 'NONE', #189, #495, #828, .T. ) ;
#637 = DIRECTION ( 'NONE',  ( -0.000000000000000000, 1.000000000000000000, 0.000000000000000000 ) ) ;
#638 = DIRECTION ( 'NONE',  ( 0.000000000000000000, -1.000000000000000000, 0.000000000000000000 ) ) ;
#639 = ORIENTED_EDGE ( 'NONE', *, *, #310, .F. ) ;
#640 = ORIENTED_EDGE ( 'NONE', *, *, #879, .F. ) ;
#641 = CARTESIAN_POINT ( 'NONE',  ( 11.00000000000000000, 6.000000000000000000, -4.000000000000001776 ) ) ;
#642 = ADVANCED_FACE ( 'NONE', ( #913 ), #539, .F. ) ;
#643 = VECTOR ( 'NONE', #418, 1000.000000000000000 ) ;
#644 = LINE ( 'NONE', #731, #351 ) ;
#645 = ORIENTED_EDGE ( 'NONE', *, *, #814, .T. ) ;
#646 = DIRECTION ( 'NONE',  ( -1.301042606982605567E-16, -0.000000000000000000, -1.000000000000000000 ) ) ;
#647 = EDGE_CURVE ( 'NONE', #897, #743, #268, .T. ) ;
#648 = FACE_OUTER_BOUND ( 'NONE', #280, .T. ) ;
#649 = EDGE_LOOP ( 'NONE', ( #506, #600, #224, #505 ) ) ;
#650 = EDGE_CURVE ( 'NONE', #260, #244, #15, .T. ) ;
#651 = FACE_BOUND ( 'NONE', #239, .T. ) ;
#652 = ADVANCED_FACE ( 'NONE', ( #595 ), #750, .F. ) ;
#653 = SURFACE_STYLE_FILL_AREA ( #886 ) ;
#654 = ORIENTED_EDGE ( 'NONE', *, *, #571, .F. ) ;
#655 = CYLINDRICAL_SURFACE ( 'NONE', #796, 1.000000000000000888 ) ;
#656 = DIRECTION ( 'NONE',  ( -0.000000000000000000, 1.000000000000000000, -0.000000000000000000 ) ) ;
#657 = ORIENTED_EDGE ( 'NONE', *, *, #493, .F. ) ;
#658 = ORIENTED_EDGE ( 'NONE', *, *, #872, .T. ) ;
#659 = CYLINDRICAL_SURFACE ( 'NONE', #843, 1.000000000000000888 ) ;
#660 = LINE ( 'NONE', #259, #561 ) ;
#661 = LINE ( 'NONE', #435, #347 ) ;
#662 = ORIENTED_EDGE ( 'NONE', *, *, #706, .T. ) ;
#663 = ORIENTED_EDGE ( 'NONE', *, *, #152, .T. ) ;
#664 = EDGE_LOOP ( 'NONE', ( #654, #914, #813, #740, #932, #119, #255 ) ) ;
#665 = CARTESIAN_POINT ( 'NONE',  ( 27.24999999999993250, 0.000000000000000000, -15.75000000000000000 ) ) ;
#666 = ORIENTED_EDGE ( 'NONE', *, *, #246, .T. ) ;
#667 = ADVANCED_FACE ( 'NONE', ( #296, #762 ), #215, .F. ) ;
#668 = DIRECTION ( 'NONE',  ( 0.000000000000000000, 1.000000000000000000, 0.000000000000000000 ) ) ;
#669 = CIRCLE ( 'NONE', #560, 1.000000000000000888 ) ;
#670 = ORIENTED_EDGE ( 'NONE', *, *, #716, .T. ) ;
#671 = AXIS2_PLACEMENT_3D ( 'NONE', #857, #173, #699 ) ;
#672 = DIRECTION ( 'NONE',  ( -0.000000000000000000, -1.000000000000000000, 2.891205793294679805E-16 ) ) ;
#673 = PRESENTATION_LAYER_ASSIGNMENT (  '', '', ( #577 ) ) ;
#674 = EDGE_CURVE ( 'NONE', #566, #739, #205, .T. ) ;
#675 = DIRECTION ( 'NONE',  ( 9.619403083625145814E-17, 0.000000000000000000, -1.000000000000000000 ) ) ;
#676 = FACE_BOUND ( 'NONE', #488, .T. ) ;
#677 = ORIENTED_EDGE ( 'NONE', *, *, #64, .F. ) ;
#678 = PLANE ( 'NONE',  #203 ) ;
#679 = PRODUCT ( 'Servo holder - Teeth up 1', 'Servo holder - Teeth up 1', '', ( #449 ) ) ;
#680 = LINE ( 'NONE', #826, #248 ) ;
#681 = DIRECTION ( 'NONE',  ( -1.000000000000000000, 0.000000000000000000, 1.137523590804463822E-16 ) ) ;
#682 = ORIENTED_EDGE ( 'NONE', *, *, #907, .F. ) ;
#683 = CARTESIAN_POINT ( 'NONE',  ( 3.549999999999935874, 8.000000000000000000, -16.75000000000000000 ) ) ;
#684 =( NAMED_UNIT ( * ) PLANE_ANGLE_UNIT ( ) SI_UNIT ( $, .RADIAN. ) );
#685 = CARTESIAN_POINT ( 'NONE',  ( 11.00000000000000000, 3.500000000000000000, -4.000000000000001776 ) ) ;
#686 = CYLINDRICAL_SURFACE ( 'NONE', #79, 2.000000000000000000 ) ;
#687 = ORIENTED_EDGE ( 'NONE', *, *, #416, .T. ) ;
#688 = VECTOR ( 'NONE', #781, 1000.000000000000000 ) ;
#689 = CIRCLE ( 'NONE', #923, 1.000000000000000888 ) ;
#690 = LINE ( 'NONE', #290, #13 ) ;
#691 = VECTOR ( 'NONE', #196, 1000.000000000000000 ) ;
#692 = CARTESIAN_POINT ( 'NONE',  ( 30.50000000000000000, 8.000000000000000000, 1.366863846790264196E-15 ) ) ;
#693 = VERTEX_POINT ( 'NONE', #220 ) ;
#694 = CARTESIAN_POINT ( 'NONE',  ( 9.000000000000000000, 8.000000000000000000, 8.657462775262631479E-16 ) ) ;
#695 = CARTESIAN_POINT ( 'NONE',  ( 30.49999999999999645, 3.500000000000000000, -18.29999999999999005 ) ) ;
#696 = ORIENTED_EDGE ( 'NONE', *, *, #110, .T. ) ;
#697 = CARTESIAN_POINT ( 'NONE',  ( 11.00000000000000000, 3.500000000000000000, -4.000000000000001776 ) ) ;
#698 = PRODUCT_RELATED_PRODUCT_CATEGORY ( 'part', '', ( #679 ) ) ;
#699 = DIRECTION ( 'NONE',  ( 0.000000000000000000, 0.000000000000000000, -1.000000000000000000 ) ) ;
#700 = ORIENTED_EDGE ( 'NONE', *, *, #272, .T. ) ;
#701 = EDGE_CURVE ( 'NONE', #928, #603, #744, .T. ) ;
#702 = FACE_OUTER_BOUND ( 'NONE', #841, .T. ) ;
#703 = CIRCLE ( 'NONE', #718, 2.000000000000001776 ) ;
#704 = LINE ( 'NONE', #930, #479 ) ;
#705 = AXIS2_PLACEMENT_3D ( 'NONE', #947, #336, #127 ) ;
#706 = EDGE_CURVE ( 'NONE', #206, #461, #614, .T. ) ;
#707 = PLANE ( 'NONE',  #483 ) ;
#708 = VERTEX_POINT ( 'NONE', #91 ) ;
#709 = DIRECTION ( 'NONE',  ( -1.301042606982605567E-16, 0.000000000000000000, -1.000000000000000000 ) ) ;
#710 = CARTESIAN_POINT ( 'NONE',  ( 4.999999999999997335, 8.000000000000000000, -19.99999999999999645 ) ) ;
#711 = CARTESIAN_POINT ( 'NONE',  ( 4.999999999999999112, 3.500000000000000000, -4.000000000000000888 ) ) ;
#712 = ORIENTED_EDGE ( 'NONE', *, *, #749, .F. ) ;
#713 = FACE_OUTER_BOUND ( 'NONE', #903, .T. ) ;
#714 = CYLINDRICAL_SURFACE ( 'NONE', #177, 2.000000000000001776 ) ;
#715 = ORIENTED_EDGE ( 'NONE', *, *, #961, .F. ) ;
#716 = EDGE_CURVE ( 'NONE', #824, #331, #284, .T. ) ;
#717 = FACE_OUTER_BOUND ( 'NONE', #868, .T. ) ;
#718 = AXIS2_PLACEMENT_3D ( 'NONE', #963, #748, #270 ) ;
#719 = AXIS2_PLACEMENT_3D ( 'NONE', #307, #765, #844 ) ;
#720 = VECTOR ( 'NONE', #616, 1000.000000000000000 ) ;
#721 = CARTESIAN_POINT ( 'NONE',  ( 3.549999999999935874, 0.000000000000000000, -16.75000000000000000 ) ) ;
#722 = VERTEX_POINT ( 'NONE', #920 ) ;
#723 = LINE ( 'NONE', #182, #936 ) ;
#724 = DIRECTION ( 'NONE',  ( 0.000000000000000000, 1.000000000000000000, 0.000000000000000000 ) ) ;
#725 = ORIENTED_EDGE ( 'NONE', *, *, #973, .T. ) ;
#726 = DIRECTION ( 'NONE',  ( 1.000000000000000000, 0.000000000000000000, 0.000000000000000000 ) ) ;
#727 = LINE ( 'NONE', #353, #156 ) ;
#728 = UNCERTAINTY_MEASURE_WITH_UNIT (LENGTH_MEASURE( 1.000000000000000082E-05 ), #65, 'distance_accuracy_value', 'NONE');
#729 = AXIS2_PLACEMENT_3D ( 'NONE', #732, #357, #279 ) ;
#730 = AXIS2_PLACEMENT_3D ( 'NONE', #242, #559, #861 ) ;
#731 = CARTESIAN_POINT ( 'NONE',  ( 36.50000000000000000, 5.500000000000000000, -8.326672684688676025E-16 ) ) ;
#732 = CARTESIAN_POINT ( 'NONE',  ( 34.49999999999999289, 6.000000000000000000, 8.770051271313237021E-16 ) ) ;
#733 = VECTOR ( 'NONE', #870, 1000.000000000000000 ) ;
#734 = ADVANCED_BREP_SHAPE_REPRESENTATION ( 'Servo holder - Teeth up 1', ( #990, #312, #16 ), #97 ) ;
#735 = AXIS2_PLACEMENT_3D ( 'NONE', #852, #466, #397 ) ;
#736 = ORIENTED_EDGE ( 'NONE', *, *, #598, .T. ) ;
#737 = SURFACE_STYLE_USAGE ( .BOTH. , #257 ) ;
#738 = LINE ( 'NONE', #509, #575 ) ;
#739 = VERTEX_POINT ( 'NONE', #226 ) ;
#740 = ORIENTED_EDGE ( 'NONE', *, *, #37, .T. ) ;
#741 = FACE_OUTER_BOUND ( 'NONE', #793, .T. ) ;
#742 = EDGE_CURVE ( 'NONE', #835, #87, #475, .T. ) ;
#743 = VERTEX_POINT ( 'NONE', #316 ) ;
#744 = LINE ( 'NONE', #536, #350 ) ;
#745 = ORIENTED_EDGE ( 'NONE', *, *, #981, .F. ) ;
#746 = DIRECTION ( 'NONE',  ( -0.000000000000000000, 1.000000000000000000, -0.000000000000000000 ) ) ;
#747 = ADVANCED_FACE ( 'NONE', ( #553, #934 ), #86, .F. ) ;
#748 = DIRECTION ( 'NONE',  ( 1.224646799147352221E-16, -0.000000000000000000, 1.000000000000000000 ) ) ;
#749 = EDGE_CURVE ( 'NONE', #523, #830, #113, .T. ) ;
#750 = PLANE ( 'NONE',  #514 ) ;
#751 = AXIS2_PLACEMENT_3D ( 'NONE', #791, #489, #726 ) ;
#752 = ORIENTED_EDGE ( 'NONE', *, *, #32, .F. ) ;
#753 = CARTESIAN_POINT ( 'NONE',  ( 30.50000000000000000, 3.500000000000000000, 3.968179951296947017E-15 ) ) ;
#754 = CARTESIAN_POINT ( 'NONE',  ( 4.999999999999997335, 3.499999999999999556, -19.99999999999999645 ) ) ;
#755 = CARTESIAN_POINT ( 'NONE',  ( 30.49999999999999645, 3.499999999999999556, -20.29999999999999716 ) ) ;
#756 = ORIENTED_EDGE ( 'NONE', *, *, #892, .T. ) ;
#757 = DIRECTION ( 'NONE',  ( 0.000000000000000000, 0.000000000000000000, 1.000000000000000000 ) ) ;
#758 = CARTESIAN_POINT ( 'NONE',  ( 27.24999999999993250, 8.000000000000000000, -15.75000000000000000 ) ) ;
#759 = CARTESIAN_POINT ( 'NONE',  ( 9.000000000000000000, 6.000000000000000000, -1.431146867680866247E-15 ) ) ;
#760 = ORIENTED_EDGE ( 'NONE', *, *, #531, .F. ) ;
#761 = FACE_OUTER_BOUND ( 'NONE', #53, .T. ) ;
#762 = FACE_OUTER_BOUND ( 'NONE', #554, .T. ) ;
#763 = VERTEX_POINT ( 'NONE', #557 ) ;
#764 = AXIS2_PLACEMENT_3D ( 'NONE', #25, #979, #247 ) ;
#765 = DIRECTION ( 'NONE',  ( 0.000000000000000000, 1.000000000000000000, -0.000000000000000000 ) ) ;
#766 = VECTOR ( 'NONE', #656, 1000.000000000000000 ) ;
#767 = FACE_OUTER_BOUND ( 'NONE', #941, .T. ) ;
#768 = VERTEX_POINT ( 'NONE', #927 ) ;
#769 = CARTESIAN_POINT ( 'NONE',  ( 3.549999999999935874, 8.000000000000000000, -14.75000000000000000 ) ) ;
#770 = EDGE_CURVE ( 'NONE', #708, #959, #840, .T. ) ;
#771 = ADVANCED_FACE ( 'NONE', ( #634 ), #243, .F. ) ;
#772 = DIRECTION ( 'NONE',  ( -1.000000000000000000, 0.000000000000000000, -9.619403083625144582E-17 ) ) ;
#773 = ORIENTED_EDGE ( 'NONE', *, *, #211, .F. ) ;
#774 = DIRECTION ( 'NONE',  ( -1.000000000000000000, 0.000000000000000000, 0.000000000000000000 ) ) ;
#775 = EDGE_CURVE ( 'NONE', #899, #523, #238, .T. ) ;
#776 = CARTESIAN_POINT ( 'NONE',  ( 28.49999999999999645, 8.000000000000000000, -18.29999999999999716 ) ) ;
#777 = CARTESIAN_POINT ( 'NONE',  ( 8.999999999999998224, 5.500000000000000000, 1.999999999999999112 ) ) ;
#778 = EDGE_LOOP ( 'NONE', ( #150, #23, #519, #596, #364, #484, #955 ) ) ;
#779 = FACE_OUTER_BOUND ( 'NONE', #73, .T. ) ;
#780 = CLOSED_SHELL ( 'NONE', ( #278, #289, #181, #393, #667, #58, #425, #386, #945, #234, #887, #525, #346, #581, #771 ) ) ;
#781 = DIRECTION ( 'NONE',  ( -1.301042606982605567E-16, 0.000000000000000000, -1.000000000000000000 ) ) ;
#782 = AXIS2_PLACEMENT_3D ( 'NONE', #665, #746, #459 ) ;
#783 = VECTOR ( 'NONE', #549, 1000.000000000000000 ) ;
#784 = DIRECTION ( 'NONE',  ( 0.000000000000000000, 0.000000000000000000, -1.000000000000000000 ) ) ;
#785 = ORIENTED_EDGE ( 'NONE', *, *, #114, .T. ) ;
#786 = CARTESIAN_POINT ( 'NONE',  ( 25.49999999999999645, 3.500000000000000000, 3.317658647805643568E-15 ) ) ;
#787 = DIRECTION ( 'NONE',  ( 0.000000000000000000, 1.000000000000000000, 0.000000000000000000 ) ) ;
#788 = ORIENTED_EDGE ( 'NONE', *, *, #60, .F. ) ;
#789 = ADVANCED_FACE ( 'NONE', ( #767 ), #707, .F. ) ;
#790 = ORIENTED_EDGE ( 'NONE', *, *, #455, .T. ) ;
#791 = CARTESIAN_POINT ( 'NONE',  ( 8.999999999999998224, 5.500000000000000000, -4.000000000000001776 ) ) ;
#792 = UNCERTAINTY_MEASURE_WITH_UNIT (LENGTH_MEASURE( 1.000000000000000082E-05 ), #578, 'distance_accuracy_value', 'NONE');
#793 = EDGE_LOOP ( 'NONE', ( #318, #123, #700, #28 ) ) ;
#794 = CARTESIAN_POINT ( 'NONE',  ( 3.549999999999935874, 3.500000000000000000, -16.75000000000000000 ) ) ;
#795 = VECTOR ( 'NONE', #237, 1000.000000000000000 ) ;
#796 = AXIS2_PLACEMENT_3D ( 'NONE', #261, #112, #267 ) ;
#797 = VECTOR ( 'NONE', #26, 1000.000000000000000 ) ;
#798 = CARTESIAN_POINT ( 'NONE',  ( 35.50000000000000000, 5.500000000000000000, 1.999999999999995781 ) ) ;
#799 = ORIENTED_EDGE ( 'NONE', *, *, #462, .T. ) ;
#800 = EDGE_CURVE ( 'NONE', #186, #693, #862, .T. ) ;
#801 = FILL_AREA_STYLE_COLOUR ( '', #145 ) ;
#802 = ORIENTED_EDGE ( 'NONE', *, *, #421, .F. ) ;
#803 = PRESENTATION_STYLE_ASSIGNMENT (( #737 ) ) ;
#804 = EDGE_CURVE ( 'NONE', #567, #108, #126, .T. ) ;
#805 = LINE ( 'NONE', #344, #766 ) ;
#806 = CARTESIAN_POINT ( 'NONE',  ( 4.999999999999997335, 8.000000000000000000, -19.99999999999999645 ) ) ;
#807 = ORIENTED_EDGE ( 'NONE', *, *, #622, .T. ) ;
#808 = FACE_OUTER_BOUND ( 'NONE', #384, .T. ) ;
#809 = VECTOR ( 'NONE', #298, 1000.000000000000000 ) ;
#810 = CARTESIAN_POINT ( 'NONE',  ( 34.49999999999999289, 3.500000000000000000, -4.000000000000005329 ) ) ;
#811 = ORIENTED_EDGE ( 'NONE', *, *, #571, .T. ) ;
#812 = AXIS2_PLACEMENT_3D ( 'NONE', #444, #987, #287 ) ;
#813 = ORIENTED_EDGE ( 'NONE', *, *, #468, .T. ) ;
#814 = EDGE_CURVE ( 'NONE', #763, #550, #845, .T. ) ;
#815 = CYLINDRICAL_SURFACE ( 'NONE', #382, 2.000000000000000000 ) ;
#816 = ORIENTED_EDGE ( 'NONE', *, *, #499, .F. ) ;
#817 = DIRECTION ( 'NONE',  ( 0.000000000000000000, -0.000000000000000000, 1.000000000000000000 ) ) ;
#818 = ADVANCED_FACE ( 'NONE', ( #158 ), #249, .F. ) ;
#819 = EDGE_LOOP ( 'NONE', ( #657, #138 ) ) ;
#820 = CARTESIAN_POINT ( 'NONE',  ( 11.00000000000000000, 3.500000000000000000, -1.301042606982600637E-16 ) ) ;
#821 =( NAMED_UNIT ( * ) PLANE_ANGLE_UNIT ( ) SI_UNIT ( $, .RADIAN. ) );
#822 = EDGE_LOOP ( 'NONE', ( #802, #39, #337, #585, #682, #621 ) ) ;
#823 = DIRECTION ( 'NONE',  ( 1.387778780781445922E-16, -0.000000000000000000, 1.000000000000000000 ) ) ;
#824 = VERTEX_POINT ( 'NONE', #387 ) ;
#825 = DIRECTION ( 'NONE',  ( -1.000000000000000000, -0.000000000000000000, -1.301042606982605567E-16 ) ) ;
#826 = CARTESIAN_POINT ( 'NONE',  ( 0.000000000000000000, 8.000000000000000000, 0.000000000000000000 ) ) ;
#827 = VECTOR ( 'NONE', #584, 1000.000000000000000 ) ;
#828 = LINE ( 'NONE', #692, #720 ) ;
#829 = CIRCLE ( 'NONE', #481, 1.000000000000000888 ) ;
#830 = VERTEX_POINT ( 'NONE', #695 ) ;
#831 = VECTOR ( 'NONE', #463, 1000.000000000000000 ) ;
#832 = DIRECTION ( 'NONE',  ( -1.000000000000000000, 0.000000000000000000, 2.168404344971008868E-16 ) ) ;
#833 = FACE_BOUND ( 'NONE', #168, .T. ) ;
#834 = PLANE ( 'NONE',  #591 ) ;
#835 = VERTEX_POINT ( 'NONE', #471 ) ;
#836 = CARTESIAN_POINT ( 'NONE',  ( 0.000000000000000000, 3.500000000000000000, 0.000000000000000000 ) ) ;
#837 = DIRECTION ( 'NONE',  ( 1.000000000000000000, 0.000000000000000000, -2.168404344971008868E-16 ) ) ;
#838 = ORIENTED_EDGE ( 'NONE', *, *, #462, .F. ) ;
#839 = DIRECTION ( 'NONE',  ( 0.000000000000000000, 0.000000000000000000, 1.000000000000000000 ) ) ;
#840 = LINE ( 'NONE', #711, #629 ) ;
#841 = EDGE_LOOP ( 'NONE', ( #180, #306, #27, #725 ) ) ;
#842 = AXIS2_PLACEMENT_3D ( 'NONE', #526, #675, #369 ) ;
#843 = AXIS2_PLACEMENT_3D ( 'NONE', #335, #880, #946 ) ;
#844 = DIRECTION ( 'NONE',  ( 0.000000000000000000, 0.000000000000000000, 1.000000000000000000 ) ) ;
#845 = CIRCLE ( 'NONE', #497, 1.000000000000000888 ) ;
#846 = EDGE_CURVE ( 'NONE', #982, #570, #931, .T. ) ;
#847 = DIRECTION ( 'NONE',  ( -1.000000000000000000, 0.000000000000000000, 0.000000000000000000 ) ) ;
#848 = ORIENTED_EDGE ( 'NONE', *, *, #37, .F. ) ;
#849 = EDGE_CURVE ( 'NONE', #563, #212, #876, .T. ) ;
#850 = DIRECTION ( 'NONE',  ( -1.000000000000000000, 0.000000000000000000, 1.224646799147349509E-16 ) ) ;
#851 = FACE_OUTER_BOUND ( 'NONE', #334, .T. ) ;
#852 = CARTESIAN_POINT ( 'NONE',  ( 28.49999999999999645, 3.499999999999999556, -18.29999999999999716 ) ) ;
#853 = ORIENTED_EDGE ( 'NONE', *, *, #152, .F. ) ;
#854 = CARTESIAN_POINT ( 'NONE',  ( 0.000000000000000000, 8.000000000000000000, 0.000000000000000000 ) ) ;
#855 = ADVANCED_FACE ( 'NONE', ( #406 ), #714, .T. ) ;
#856 = CARTESIAN_POINT ( 'NONE',  ( 35.50000000000000000, 5.500000000000000000, 7.448970580736684977E-16 ) ) ;
#857 = CARTESIAN_POINT ( 'NONE',  ( 1.999999999999998224, 8.000000000000000000, -18.29999999999999361 ) ) ;
#858 = ORIENTED_EDGE ( 'NONE', *, *, #135, .T. ) ;
#859 = CIRCLE ( 'NONE', #985, 1.000000000000000888 ) ;
#860 = AXIS2_PLACEMENT_3D ( 'NONE', #187, #500, #191 ) ;
#861 = DIRECTION ( 'NONE',  ( 0.000000000000000000, 0.000000000000000000, 1.000000000000000000 ) ) ;
#862 = CIRCLE ( 'NONE', #952, 1.000000000000000888 ) ;
#863 = CARTESIAN_POINT ( 'NONE',  ( 34.49999999999999289, 5.500000000000000000, 1.999999999999995781 ) ) ;
#864 = ORIENTED_EDGE ( 'NONE', *, *, #531, .T. ) ;
#865 = EDGE_LOOP ( 'NONE', ( #4, #883, #326, #537 ) ) ;
#866 = FILL_AREA_STYLE ('',( #424 ) ) ;
#867 = LINE ( 'NONE', #721, #643 ) ;
#868 = EDGE_LOOP ( 'NONE', ( #133, #388, #163, #816 ) ) ;
#869 = PLANE ( 'NONE',  #860 ) ;
#870 = DIRECTION ( 'NONE',  ( -1.000000000000000000, -0.000000000000000000, 1.387778780781445922E-16 ) ) ;
#871 = EDGE_LOOP ( 'NONE', ( #752, #715, #905, #745 ) ) ;
#872 = EDGE_CURVE ( 'NONE', #55, #108, #339, .T. ) ;
#873 = DIRECTION ( 'NONE',  ( 0.000000000000000000, 1.000000000000000000, 0.000000000000000000 ) ) ;
#874 = EDGE_CURVE ( 'NONE', #563, #580, #34, .T. ) ;
#875 = AXIS2_PLACEMENT_3D ( 'NONE', #432, #420, #40 ) ;
#876 = CIRCLE ( 'NONE', #448, 1.000000000000000888 ) ;
#877 = FACE_OUTER_BOUND ( 'NONE', #649, .T. ) ;
#878 = ORIENTED_EDGE ( 'NONE', *, *, #814, .F. ) ;
#879 = EDGE_CURVE ( 'NONE', #189, #87, #660, .T. ) ;
#880 = DIRECTION ( 'NONE',  ( -0.000000000000000000, 1.000000000000000000, -0.000000000000000000 ) ) ;
#881 = DIRECTION ( 'NONE',  ( -1.000000000000000000, 6.269303204385536295E-32, 2.168404344971008868E-16 ) ) ;
#882 = EDGE_LOOP ( 'NONE', ( #645, #453 ) ) ;
#883 = ORIENTED_EDGE ( 'NONE', *, *, #884, .F. ) ;
#884 = EDGE_CURVE ( 'NONE', #830, #603, #738, .T. ) ;
#885 = LINE ( 'NONE', #415, #428 ) ;
#886 = FILL_AREA_STYLE ('',( #801 ) ) ;
#887 = ADVANCED_FACE ( 'NONE', ( #648 ), #569, .F. ) ;
#888 = EDGE_LOOP ( 'NONE', ( #354, #256, #971, #631 ) ) ;
#889 = ORIENTED_EDGE ( 'NONE', *, *, #977, .T. ) ;
#890 = LINE ( 'NONE', #854, #175 ) ;
#891 = APPLICATION_CONTEXT ( 'automotive_design' ) ;
#892 = EDGE_CURVE ( 'NONE', #212, #574, #805, .T. ) ;
#893 =( NAMED_UNIT ( * ) SI_UNIT ( $, .STERADIAN. ) SOLID_ANGLE_UNIT ( ) );
#894 = DIRECTION ( 'NONE',  ( 2.168404344971008868E-16, 0.000000000000000000, 1.000000000000000000 ) ) ;
#895 = CIRCLE ( 'NONE', #498, 1.000000000000000888 ) ;
#896 = DIRECTION ( 'NONE',  ( 9.619403083625145814E-17, 0.000000000000000000, -1.000000000000000000 ) ) ;
#897 = VERTEX_POINT ( 'NONE', #422 ) ;
#898 = CARTESIAN_POINT ( 'NONE',  ( 9.000000000000000000, 5.500000000000000000, -1.431146867680866247E-15 ) ) ;
#899 = VERTEX_POINT ( 'NONE', #254 ) ;
#900 = FACE_OUTER_BOUND ( 'NONE', #822, .T. ) ;
#901 = EDGE_LOOP ( 'NONE', ( #639, #878, #625, #297 ) ) ;
#902 = LINE ( 'NONE', #139, #809 ) ;
#903 = EDGE_LOOP ( 'NONE', ( #407, #760, #788, #100 ) ) ;
#904 = DIRECTION ( 'NONE',  ( 0.000000000000000000, 0.000000000000000000, 1.000000000000000000 ) ) ;
#905 = ORIENTED_EDGE ( 'NONE', *, *, #81, .F. ) ;
#906 = FACE_OUTER_BOUND ( 'NONE', #664, .T. ) ;
#907 = EDGE_CURVE ( 'NONE', #609, #768, #193, .T. ) ;
#908 = DIRECTION ( 'NONE',  ( 0.000000000000000000, 0.000000000000000000, 1.000000000000000000 ) ) ;
#909 = CIRCLE ( 'NONE', #764, 2.000000000000001776 ) ;
#910 = DIRECTION ( 'NONE',  ( 1.000000000000000000, -0.000000000000000000, -1.137523590804463822E-16 ) ) ;
#911 = ORIENTED_EDGE ( 'NONE', *, *, #90, .F. ) ;
#912 = DIRECTION ( 'NONE',  ( 0.000000000000000000, 0.000000000000000000, 1.000000000000000000 ) ) ;
#913 = FACE_OUTER_BOUND ( 'NONE', #888, .T. ) ;
#914 = ORIENTED_EDGE ( 'NONE', *, *, #597, .T. ) ;
#915 = DIRECTION ( 'NONE',  ( -1.224646799147352221E-16, 0.000000000000000000, -1.000000000000000000 ) ) ;
#916 = CARTESIAN_POINT ( 'NONE',  ( 28.49999999999999645, 3.499999999999999556, -20.29999999999999716 ) ) ;
#917 = ORIENTED_EDGE ( 'NONE', *, *, #170, .T. ) ;
#918 = CARTESIAN_POINT ( 'NONE',  ( 34.49999999999999289, 5.500000000000000000, 8.673617379884035472E-16 ) ) ;
#919 = EDGE_CURVE ( 'NONE', #186, #376, #953, .T. ) ;
#920 = CARTESIAN_POINT ( 'NONE',  ( 36.50000000000000000, 5.500000000000000000, -4.000000000000005329 ) ) ;
#921 = EDGE_LOOP ( 'NONE', ( #48, #663, #109, #35, #696, #670, #790 ) ) ;
#922 = CIRCLE ( 'NONE', #730, 1.999999999999998224 ) ;
#923 = AXIS2_PLACEMENT_3D ( 'NONE', #235, #164, #774 ) ;
#924 = DIRECTION ( 'NONE',  ( -1.301042606982605567E-16, -0.000000000000000000, -1.000000000000000000 ) ) ;
#925 = AXIS2_PLACEMENT_3D ( 'NONE', #975, #823, #608 ) ;
#926 = CARTESIAN_POINT ( 'NONE',  ( 4.999999999999997335, 0.000000000000000000, -20.29999999999999716 ) ) ;
#927 = CARTESIAN_POINT ( 'NONE',  ( 30.50000000000000000, 8.000000000000000000, -4.000000000000010658 ) ) ;
#928 = VERTEX_POINT ( 'NONE', #810 ) ;
#929 = DIRECTION ( 'NONE',  ( -1.000000000000000000, -0.000000000000000000, -1.301042606982605567E-16 ) ) ;
#930 = CARTESIAN_POINT ( 'NONE',  ( -2.309172889333060982E-15, 8.000000000000000000, -20.29999999999999361 ) ) ;
#931 = LINE ( 'NONE', #562, #368 ) ;
#932 = ORIENTED_EDGE ( 'NONE', *, *, #211, .T. ) ;
#933 = CARTESIAN_POINT ( 'NONE',  ( 30.49999999999999645, 8.000000000000000000, -24.99999999999999645 ) ) ;
#934 = FACE_OUTER_BOUND ( 'NONE', #128, .T. ) ;
#935 = ORIENTED_EDGE ( 'NONE', *, *, #742, .T. ) ;
#936 = VECTOR ( 'NONE', #208, 1000.000000000000000 ) ;
#937 = LINE ( 'NONE', #98, #966 ) ;
#938 = VECTOR ( 'NONE', #724, 1000.000000000000000 ) ;
#939 = DIRECTION ( 'NONE',  ( 0.000000000000000000, 0.000000000000000000, -1.000000000000000000 ) ) ;
#940 = ORIENTED_EDGE ( 'NONE', *, *, #647, .T. ) ;
#941 = EDGE_LOOP ( 'NONE', ( #303, #935, #640, #439 ) ) ;
#942 = CYLINDRICAL_SURFACE ( 'NONE', #265, 1.000000000000000888 ) ;
#943 = CARTESIAN_POINT ( 'NONE',  ( 34.49999999999999289, 3.500000000000000000, 0.000000000000000000 ) ) ;
#944 = ORIENTED_EDGE ( 'NONE', *, *, #636, .T. ) ;
#945 = ADVANCED_FACE ( 'NONE', ( #877 ), #107, .F. ) ;
#946 = DIRECTION ( 'NONE',  ( 0.000000000000000000, 0.000000000000000000, 1.000000000000000000 ) ) ;
#947 = CARTESIAN_POINT ( 'NONE',  ( 30.49999999999999645, 3.499999999999999556, -20.29999999999999716 ) ) ;
#948 = ORIENTED_EDGE ( 'NONE', *, *, #507, .F. ) ;
#949 = EDGE_CURVE ( 'NONE', #244, #345, #867, .T. ) ;
#950 = DIRECTION ( 'NONE',  ( 0.000000000000000000, 0.000000000000000000, 1.000000000000000000 ) ) ;
#951 =( GEOMETRIC_REPRESENTATION_CONTEXT ( 3 ) GLOBAL_UNCERTAINTY_ASSIGNED_CONTEXT ( ( #792 ) ) GLOBAL_UNIT_ASSIGNED_CONTEXT ( ( #578, #956, #117 ) ) REPRESENTATION_CONTEXT ( 'NONE', 'WORKASPACE' ) );
#952 = AXIS2_PLACEMENT_3D ( 'NONE', #18, #22, #7 ) ;
#953 = LINE ( 'NONE', #798, #301 ) ;
#954 = ORIENTED_EDGE ( 'NONE', *, *, #74, .T. ) ;
#955 = ORIENTED_EDGE ( 'NONE', *, *, #884, .T. ) ;
#956 =( NAMED_UNIT ( * ) PLANE_ANGLE_UNIT ( ) SI_UNIT ( $, .RADIAN. ) );
#957 = DIRECTION ( 'NONE',  ( -1.000000000000000000, 0.000000000000000000, 0.000000000000000000 ) ) ;
#958 = VERTEX_POINT ( 'NONE', #504 ) ;
#959 = VERTEX_POINT ( 'NONE', #262 ) ;
#960 = LINE ( 'NONE', #124, #348 ) ;
#961 = EDGE_CURVE ( 'NONE', #928, #392, #579, .T. ) ;
#962 = DIRECTION ( 'NONE',  ( 0.000000000000000000, 0.000000000000000000, 1.000000000000000000 ) ) ;
#963 = CARTESIAN_POINT ( 'NONE',  ( 34.49999999999999289, 5.500000000000000000, 8.770051271313237021E-16 ) ) ;
#964 = VERTEX_POINT ( 'NONE', #188 ) ;
#965 = CARTESIAN_POINT ( 'NONE',  ( 8.999999999999998224, 5.500000000000000000, -4.000000000000000888 ) ) ;
#966 = VECTOR ( 'NONE', #66, 1000.000000000000000 ) ;
#967 = VECTOR ( 'NONE', #825, 1000.000000000000000 ) ;
#968 = ORIENTED_EDGE ( 'NONE', *, *, #360, .F. ) ;
#969 = AXIS2_PLACEMENT_3D ( 'NONE', #363, #391, #772 ) ;
#970 = CARTESIAN_POINT ( 'NONE',  ( -2.309172889333060982E-15, 8.000000000000000000, -20.29999999999999361 ) ) ;
#971 = ORIENTED_EDGE ( 'NONE', *, *, #470, .T. ) ;
#972 = CARTESIAN_POINT ( 'NONE',  ( 0.000000000000000000, 8.000000000000000000, -18.29999999999998650 ) ) ;
#973 = EDGE_CURVE ( 'NONE', #835, #576, #121, .T. ) ;
#974 = FACE_OUTER_BOUND ( 'NONE', #201, .T. ) ;
#975 = CARTESIAN_POINT ( 'NONE',  ( 36.50000000000000000, 3.500000000000000000, -4.000000000000005329 ) ) ;
#976 = ORIENTED_EDGE ( 'NONE', *, *, #849, .F. ) ;
#977 = EDGE_CURVE ( 'NONE', #212, #563, #895, .T. ) ;
#978 = DIRECTION ( 'NONE',  ( -0.000000000000000000, 1.000000000000000000, -0.000000000000000000 ) ) ;
#979 = DIRECTION ( 'NONE',  ( -1.387778780781445922E-16, 0.000000000000000000, -1.000000000000000000 ) ) ;
#980 = FACE_BOUND ( 'NONE', #819, .T. ) ;
#981 = EDGE_CURVE ( 'NONE', #570, #722, #644, .T. ) ;
#982 = VERTEX_POINT ( 'NONE', #494 ) ;
#983 = CARTESIAN_POINT ( 'NONE',  ( 34.49999999999999289, 6.000000000000000000, -4.000000000000005329 ) ) ;
#984 =( LENGTH_UNIT ( ) NAMED_UNIT ( * ) SI_UNIT ( .MILLI., .METRE. ) );
#985 = AXIS2_PLACEMENT_3D ( 'NONE', #320, #89, #627 ) ;
#986 = AXIS2_PLACEMENT_3D ( 'NONE', #377, #978, #282 ) ;
#987 = DIRECTION ( 'NONE',  ( 0.000000000000000000, 1.000000000000000000, 0.000000000000000000 ) ) ;
#988 = AXIS2_PLACEMENT_3D ( 'NONE', #210, #440, #302 ) ;
#989 = ORIENTED_EDGE ( 'NONE', *, *, #170, .F. ) ;
#990 = MANIFOLD_SOLID_BREP ( 'Cut-Extrude14[1]', #780 ) ;
ENDSEC;
END-ISO-10303-21;
