ISO-10303-21;
HEADER;
FILE_DESCRIPTION (( 'STEP AP214' ),
    '1' );
FILE_NAME ('Servo Head PTK7350.STEP',
    '2025-10-21T18:57:06',
    ( 'Windows User' ),
    ( '' ),
    'SwSTEP 2.0',
    'SolidWorks 2023',
    '' );
FILE_SCHEMA (( 'AUTOMOTIVE_DESIGN' ));
ENDSEC;

DATA;
#1 = PRESENTATION_STYLE_ASSIGNMENT (( #394 ) ) ;
#2 = MECHANICAL_DESIGN_GEOMETRIC_PRESENTATION_REPRESENTATION (  '', ( #121 ), #793 ) ;
#3 = CARTESIAN_POINT ( 'NONE',  ( 13.99500224294676620, 1.699999999999999956, 0.000000000000000000 ) ) ;
#4 = DIRECTION ( 'NONE',  ( 0.07056263949930399737, 0.000000000000000000, -0.9975073503021876231 ) ) ;
#5 = ORIENTED_EDGE ( 'NONE', *, *, #946, .T. ) ;
#6 = CARTESIAN_POINT ( 'NONE',  ( 3.673940397442060361E-16, 0.000000000000000000, 3.000000000000000444 ) ) ;
#7 = DIRECTION ( 'NONE',  ( 0.000000000000000000, 0.000000000000000000, -1.000000000000000000 ) ) ;
#8 = ADVANCED_FACE ( 'NONE', ( #617, #897 ), #600, .T. ) ;
#9 = DIRECTION ( 'NONE',  ( 0.000000000000000000, -1.000000000000000000, 0.000000000000000000 ) ) ;
#10 = EDGE_LOOP ( 'NONE', ( #512, #983, #109, #165 ) ) ;
#11 = CARTESIAN_POINT ( 'NONE',  ( 6.500000000000000888, 1.699999999999999956, -5.237222008264700664E-14 ) ) ;
#12 = DIRECTION ( 'NONE',  ( 0.000000000000000000, 0.000000000000000000, -1.000000000000000000 ) ) ;
#13 = DIRECTION ( 'NONE',  ( 0.000000000000000000, 0.000000000000000000, -1.000000000000000000 ) ) ;
#14 = ORIENTED_EDGE ( 'NONE', *, *, #950, .T. ) ;
#15 =( GEOMETRIC_REPRESENTATION_CONTEXT ( 3 ) GLOBAL_UNCERTAINTY_ASSIGNED_CONTEXT ( ( #1029 ) ) GLOBAL_UNIT_ASSIGNED_CONTEXT ( ( #1200, #248, #823 ) ) REPRESENTATION_CONTEXT ( 'NONE', 'WORKASPACE' ) );
#16 = CIRCLE ( 'NONE', #816, 0.5000000000000007772 ) ;
#17 = CARTESIAN_POINT ( 'NONE',  ( 2.449293598294706414E-16, 3.000000000000000000, -2.000000000000000000 ) ) ;
#18 = VECTOR ( 'NONE', #496, 1000.000000000000000 ) ;
#19 = CARTESIAN_POINT ( 'NONE',  ( 9.000000000000001776, 0.000000000000000000, -3.491481338843133355E-14 ) ) ;
#20 = DIRECTION ( 'NONE',  ( 0.000000000000000000, -1.000000000000000000, 0.000000000000000000 ) ) ;
#21 = DIRECTION ( 'NONE',  ( -0.000000000000000000, 1.000000000000000000, -0.000000000000000000 ) ) ;
#22 = FILL_AREA_STYLE ('',( #879 ) ) ;
#23 = DIRECTION ( 'NONE',  ( 0.000000000000000000, 0.000000000000000000, -1.000000000000000000 ) ) ;
#24 = DIRECTION ( 'NONE',  ( 0.000000000000000000, 1.000000000000000000, 0.000000000000000000 ) ) ;
#25 = ORIENTED_EDGE ( 'NONE', *, *, #588, .T. ) ;
#26 = PRESENTATION_STYLE_ASSIGNMENT (( #962 ) ) ;
#27 = CARTESIAN_POINT ( 'NONE',  ( 0.000000000000000000, 0.000000000000000000, 0.000000000000000000 ) ) ;
#28 = ORIENTED_EDGE ( 'NONE', *, *, #227, .F. ) ;
#29 = ORIENTED_EDGE ( 'NONE', *, *, #912, .F. ) ;
#30 = PRESENTATION_LAYER_ASSIGNMENT (  '', '', ( #1132 ) ) ;
#31 = FILL_AREA_STYLE_COLOUR ( '', #501 ) ;
#32 = DIRECTION ( 'NONE',  ( 0.000000000000000000, -1.000000000000000000, 0.000000000000000000 ) ) ;
#33 = STYLED_ITEM ( 'NONE', ( #782 ), #825 ) ;
#34 = EDGE_CURVE ( 'NONE', #442, #1079, #969, .T. ) ;
#35 = DIRECTION ( 'NONE',  ( 0.000000000000000000, 0.000000000000000000, -1.000000000000000000 ) ) ;
#36 = ORIENTED_EDGE ( 'NONE', *, *, #533, .F. ) ;
#37 = DIRECTION ( 'NONE',  ( 0.000000000000000000, 0.000000000000000000, 1.000000000000000000 ) ) ;
#38 = FILL_AREA_STYLE_COLOUR ( '', #544 ) ;
#39 = EDGE_CURVE ( 'NONE', #730, #1250, #547, .T. ) ;
#40 =( LENGTH_UNIT ( ) NAMED_UNIT ( * ) SI_UNIT ( .MILLI., .METRE. ) );
#41 = ORIENTED_EDGE ( 'NONE', *, *, #1020, .T. ) ;
#42 = ORIENTED_EDGE ( 'NONE', *, *, #453, .T. ) ;
#43 =( NAMED_UNIT ( * ) PLANE_ANGLE_UNIT ( ) SI_UNIT ( $, .RADIAN. ) );
#44 = PRESENTATION_STYLE_ASSIGNMENT (( #817 ) ) ;
#45 = DIRECTION ( 'NONE',  ( 0.000000000000000000, 0.000000000000000000, -1.000000000000000000 ) ) ;
#46 =( NAMED_UNIT ( * ) SI_UNIT ( $, .STERADIAN. ) SOLID_ANGLE_UNIT ( ) );
#47 = EDGE_LOOP ( 'NONE', ( #325, #784 ) ) ;
#48 =( GEOMETRIC_REPRESENTATION_CONTEXT ( 3 ) GLOBAL_UNCERTAINTY_ASSIGNED_CONTEXT ( ( #555 ) ) GLOBAL_UNIT_ASSIGNED_CONTEXT ( ( #626, #311, #1090 ) ) REPRESENTATION_CONTEXT ( 'NONE', 'WORKASPACE' ) );
#49 = APPLICATION_PROTOCOL_DEFINITION ( 'draft international standard', 'automotive_design', 1998, #338 ) ;
#50 = PRESENTATION_LAYER_ASSIGNMENT (  '', '', ( #377 ) ) ;
#51 = CARTESIAN_POINT ( 'NONE',  ( 0.4223204503071527061, 1.699999999999999956, 2.970125491835718723 ) ) ;
#52 = CIRCLE ( 'NONE', #421, 0.5000000000000007772 ) ;
#53 = CIRCLE ( 'NONE', #599, 3.000000000000000444 ) ;
#54 = SURFACE_STYLE_FILL_AREA ( #527 ) ;
#55 = CIRCLE ( 'NONE', #1196, 0.5000000000000007772 ) ;
#56 = PRESENTATION_LAYER_ASSIGNMENT (  '', '', ( #33 ) ) ;
#57 = EDGE_LOOP ( 'NONE', ( #128, #318 ) ) ;
#58 = FILL_AREA_STYLE_COLOUR ( '', #597 ) ;
#59 = DIRECTION ( 'NONE',  ( 0.000000000000000000, 1.000000000000000000, 0.000000000000000000 ) ) ;
#60 = ORIENTED_EDGE ( 'NONE', *, *, #211, .F. ) ;
#61 = PRESENTATION_STYLE_ASSIGNMENT (( #746 ) ) ;
#62 = FACE_OUTER_BOUND ( 'NONE', #190, .T. ) ;
#63 = CARTESIAN_POINT ( 'NONE',  ( 4.000000000000000000, 1.699999999999999956, -6.982962677686266711E-14 ) ) ;
#64 = VERTEX_POINT ( 'NONE', #170 ) ;
#65 = CARTESIAN_POINT ( 'NONE',  ( 0.000000000000000000, 3.000000000000000000, 1.250000000000000000 ) ) ;
#66 = CARTESIAN_POINT ( 'NONE',  ( 3.673940397442060361E-16, 5.000000000000000000, 3.000000000000000444 ) ) ;
#67 = AXIS2_PLACEMENT_3D ( 'NONE', #907, #1226, #37 ) ;
#68 = CYLINDRICAL_SURFACE ( 'NONE', #956, 3.000000000000000444 ) ;
#69 = PRESENTATION_STYLE_ASSIGNMENT (( #1234 ) ) ;
#70 = CIRCLE ( 'NONE', #256, 1.250000000000000000 ) ;
#71 = MECHANICAL_DESIGN_GEOMETRIC_PRESENTATION_REPRESENTATION (  '', ( #868 ), #743 ) ;
#72 = ADVANCED_FACE ( 'NONE', ( #748 ), #939, .F. ) ;
#73 = STYLED_ITEM ( 'NONE', ( #346 ), #680 ) ;
#74 = ORIENTED_EDGE ( 'NONE', *, *, #1168, .F. ) ;
#75 = AXIS2_PLACEMENT_3D ( 'NONE', #294, #4, #884 ) ;
#76 = DIRECTION ( 'NONE',  ( 0.000000000000000000, 0.000000000000000000, 1.000000000000000000 ) ) ;
#77 = CARTESIAN_POINT ( 'NONE',  ( 14.00000000000000000, 1.699999999999999956, -0.4999999999999989453 ) ) ;
#78 = ADVANCED_FACE ( 'NONE', ( #651 ), #739, .F. ) ;
#79 = FILL_AREA_STYLE_COLOUR ( '', #484 ) ;
#80 = CARTESIAN_POINT ( 'NONE',  ( 11.50000000000000000, 1.699999999999999956, 0.4999999999999832911 ) ) ;
#81 = DIRECTION ( 'NONE',  ( -0.000000000000000000, -1.000000000000000000, -0.000000000000000000 ) ) ;
#82 = ORIENTED_EDGE ( 'NONE', *, *, #1038, .F. ) ;
#83 = DIRECTION ( 'NONE',  ( 0.000000000000000000, 0.000000000000000000, 1.000000000000000000 ) ) ;
#84 = UNCERTAINTY_MEASURE_WITH_UNIT (LENGTH_MEASURE( 1.000000000000000082E-05 ), #322, 'distance_accuracy_value', 'NONE');
#85 = SURFACE_STYLE_FILL_AREA ( #141 ) ;
#86 = SURFACE_SIDE_STYLE ('',( #205 ) ) ;
#87 = EDGE_CURVE ( 'NONE', #226, #520, #679, .T. ) ;
#88 = ORIENTED_EDGE ( 'NONE', *, *, #227, .T. ) ;
#89 = CARTESIAN_POINT ( 'NONE',  ( 0.000000000000000000, 1.699999999999999956, 0.000000000000000000 ) ) ;
#90 = DIRECTION ( 'NONE',  ( 0.000000000000000000, 0.000000000000000000, -1.000000000000000000 ) ) ;
#91 =( NAMED_UNIT ( * ) SI_UNIT ( $, .STERADIAN. ) SOLID_ANGLE_UNIT ( ) );
#92 = AXIS2_PLACEMENT_3D ( 'NONE', #927, #1219, #1224 ) ;
#93 = VECTOR ( 'NONE', #506, 1000.000000000000114 ) ;
#94 = VECTOR ( 'NONE', #368, 1000.000000000000000 ) ;
#95 = VERTEX_POINT ( 'NONE', #1026 ) ;
#96 =( GEOMETRIC_REPRESENTATION_CONTEXT ( 3 ) GLOBAL_UNCERTAINTY_ASSIGNED_CONTEXT ( ( #656 ) ) GLOBAL_UNIT_ASSIGNED_CONTEXT ( ( #235, #515, #523 ) ) REPRESENTATION_CONTEXT ( 'NONE', 'WORKASPACE' ) );
#97 = MECHANICAL_DESIGN_GEOMETRIC_PRESENTATION_REPRESENTATION (  '', ( #641 ), #813 ) ;
#98 = ADVANCED_FACE ( 'NONE', ( #1036 ), #1131, .F. ) ;
#99 = CARTESIAN_POINT ( 'NONE',  ( 14.13648017687462755, 1.699999999999999956, -2.000000000000000000 ) ) ;
#100 = STYLED_ITEM ( 'NONE', ( #747 ), #733 ) ;
#101 = FILL_AREA_STYLE_COLOUR ( '', #914 ) ;
#102 = CARTESIAN_POINT ( 'NONE',  ( 0.000000000000000000, 2.000000000000000000, 0.000000000000000000 ) ) ;
#103 = ADVANCED_FACE ( 'NONE', ( #183, #469 ), #958, .T. ) ;
#104 = FACE_BOUND ( 'NONE', #998, .T. ) ;
#105 = ORIENTED_EDGE ( 'NONE', *, *, #1205, .T. ) ;
#106 =( NAMED_UNIT ( * ) PLANE_ANGLE_UNIT ( ) SI_UNIT ( $, .RADIAN. ) );
#107 = FACE_OUTER_BOUND ( 'NONE', #1016, .T. ) ;
#108 = DIRECTION ( 'NONE',  ( 0.000000000000000000, 0.000000000000000000, -1.000000000000000000 ) ) ;
#109 = ORIENTED_EDGE ( 'NONE', *, *, #586, .T. ) ;
#110 = LINE ( 'NONE', #985, #443 ) ;
#111 = DIRECTION ( 'NONE',  ( 0.000000000000000000, 0.000000000000000000, -1.000000000000000000 ) ) ;
#112 = DIRECTION ( 'NONE',  ( 0.000000000000000000, -1.000000000000000000, 0.000000000000000000 ) ) ;
#113 = SURFACE_STYLE_FILL_AREA ( #390 ) ;
#114 = FILL_AREA_STYLE ('',( #880 ) ) ;
#115 = ORIENTED_EDGE ( 'NONE', *, *, #822, .T. ) ;
#116 = AXIS2_PLACEMENT_3D ( 'NONE', #500, #314, #396 ) ;
#117 = CARTESIAN_POINT ( 'NONE',  ( 0.000000000000000000, -0.001000000000000132727, 1.250000000000000000 ) ) ;
#118 = MECHANICAL_DESIGN_GEOMETRIC_PRESENTATION_REPRESENTATION (  '', ( #1217 ), #620 ) ;
#119 = LINE ( 'NONE', #775, #179 ) ;
#120 = VECTOR ( 'NONE', #895, 1000.000000000000000 ) ;
#121 = STYLED_ITEM ( 'NONE', ( #1150 ), #715 ) ;
#122 = DIRECTION ( 'NONE',  ( -0.000000000000000000, -1.000000000000000000, -0.000000000000000000 ) ) ;
#123 = DIRECTION ( 'NONE',  ( 0.000000000000000000, -1.000000000000000000, 0.000000000000000000 ) ) ;
#124 = ORIENTED_EDGE ( 'NONE', *, *, #894, .F. ) ;
#125 = ORIENTED_EDGE ( 'NONE', *, *, #87, .F. ) ;
#126 = CARTESIAN_POINT ( 'NONE',  ( 6.500000000000000888, 1.699999999999999956, -0.5000000000000531797 ) ) ;
#127 = SURFACE_SIDE_STYLE ('',( #1095 ) ) ;
#128 = ORIENTED_EDGE ( 'NONE', *, *, #132, .T. ) ;
#129 = ORIENTED_EDGE ( 'NONE', *, *, #614, .F. ) ;
#130 = PRESENTATION_STYLE_ASSIGNMENT (( #1109 ) ) ;
#131 = ORIENTED_EDGE ( 'NONE', *, *, #586, .F. ) ;
#132 = EDGE_CURVE ( 'NONE', #730, #568, #399, .T. ) ;
#133 = STYLED_ITEM ( 'NONE', ( #26 ), #103 ) ;
#134 = VECTOR ( 'NONE', #999, 1000.000000000000114 ) ;
#135 = SURFACE_STYLE_FILL_AREA ( #155 ) ;
#136 = UNCERTAINTY_MEASURE_WITH_UNIT (LENGTH_MEASURE( 1.000000000000000082E-05 ), #864, 'distance_accuracy_value', 'NONE');
#137 = AXIS2_PLACEMENT_3D ( 'NONE', #1213, #1206, #1009 ) ;
#138 =( NAMED_UNIT ( * ) PLANE_ANGLE_UNIT ( ) SI_UNIT ( $, .RADIAN. ) );
#139 = COLOUR_RGB ( '',0.2862745098039215508, 0.6627450980392156632, 0.3294117647058823484 ) ;
#140 = EDGE_CURVE ( 'NONE', #1079, #442, #192, .T. ) ;
#141 = FILL_AREA_STYLE ('',( #1014 ) ) ;
#142 = CIRCLE ( 'NONE', #1235, 0.5000000000000007772 ) ;
#143 = EDGE_LOOP ( 'NONE', ( #1065, #1160, #553, #105 ) ) ;
#144 = ORIENTED_EDGE ( 'NONE', *, *, #723, .F. ) ;
#145 = DIRECTION ( 'NONE',  ( 0.000000000000000000, 0.000000000000000000, -1.000000000000000000 ) ) ;
#146 = SURFACE_STYLE_FILL_AREA ( #231 ) ;
#147 =( NAMED_UNIT ( * ) PLANE_ANGLE_UNIT ( ) SI_UNIT ( $, .RADIAN. ) );
#148 = ORIENTED_EDGE ( 'NONE', *, *, #658, .F. ) ;
#149 = SURFACE_STYLE_FILL_AREA ( #1124 ) ;
#150 = UNCERTAINTY_MEASURE_WITH_UNIT (LENGTH_MEASURE( 1.000000000000000082E-05 ), #1152, 'distance_accuracy_value', 'NONE');
#151 = FACE_BOUND ( 'NONE', #763, .T. ) ;
#152 = FILL_AREA_STYLE ('',( #438 ) ) ;
#153 = FILL_AREA_STYLE ('',( #646 ) ) ;
#154 = EDGE_LOOP ( 'NONE', ( #627, #669, #492, #734 ) ) ;
#155 = FILL_AREA_STYLE ('',( #58 ) ) ;
#156 =( LENGTH_UNIT ( ) NAMED_UNIT ( * ) SI_UNIT ( .MILLI., .METRE. ) );
#157 = AXIS2_PLACEMENT_3D ( 'NONE', #1034, #271, #758 ) ;
#158 = CARTESIAN_POINT ( 'NONE',  ( 0.000000000000000000, -0.001000000000000132727, 0.000000000000000000 ) ) ;
#159 = CIRCLE ( 'NONE', #480, 3.000000000000000444 ) ;
#160 = ORIENTED_EDGE ( 'NONE', *, *, #1243, .T. ) ;
#161 = DIRECTION ( 'NONE',  ( 0.000000000000000000, 0.000000000000000000, -1.000000000000000000 ) ) ;
#162 = UNCERTAINTY_MEASURE_WITH_UNIT (LENGTH_MEASURE( 1.000000000000000082E-05 ), #372, 'distance_accuracy_value', 'NONE');
#163 = CYLINDRICAL_SURFACE ( 'NONE', #953, 2.000000000000000000 ) ;
#164 = SURFACE_SIDE_STYLE ('',( #1126 ) ) ;
#165 = ORIENTED_EDGE ( 'NONE', *, *, #398, .T. ) ;
#166 =( NAMED_UNIT ( * ) SI_UNIT ( $, .STERADIAN. ) SOLID_ANGLE_UNIT ( ) );
#167 = LINE ( 'NONE', #644, #1030 ) ;
#168 = ADVANCED_BREP_SHAPE_REPRESENTATION ( 'Servo Head PTK7350', ( #514, #137 ), #96 ) ;
#169 = EDGE_CURVE ( 'NONE', #1007, #1254, #951, .T. ) ;
#170 = CARTESIAN_POINT ( 'NONE',  ( 0.000000000000000000, 2.000000000000000000, 1.250000000000000000 ) ) ;
#171 =( NAMED_UNIT ( * ) PLANE_ANGLE_UNIT ( ) SI_UNIT ( $, .RADIAN. ) );
#172 = ORIENTED_EDGE ( 'NONE', *, *, #1002, .T. ) ;
#173 = DIRECTION ( 'NONE',  ( 0.000000000000000000, 0.000000000000000000, -1.000000000000000000 ) ) ;
#174 = EDGE_CURVE ( 'NONE', #568, #433, #802, .T. ) ;
#175 = CARTESIAN_POINT ( 'NONE',  ( 14.00000000000000000, 0.000000000000000000, -0.4999999999999989453 ) ) ;
#176 = PRESENTATION_LAYER_ASSIGNMENT (  '', '', ( #133 ) ) ;
#177 = CARTESIAN_POINT ( 'NONE',  ( 0.000000000000000000, 5.000000000000000000, 0.000000000000000000 ) ) ;
#178 = CARTESIAN_POINT ( 'NONE',  ( 9.000000000000001776, 1.699999999999999956, -3.491481338843133355E-14 ) ) ;
#179 = VECTOR ( 'NONE', #992, 1000.000000000000000 ) ;
#180 = ORIENTED_EDGE ( 'NONE', *, *, #887, .T. ) ;
#181 = FACE_OUTER_BOUND ( 'NONE', #247, .T. ) ;
#182 = CARTESIAN_POINT ( 'NONE',  ( 0.000000000000000000, 0.000000000000000000, 0.000000000000000000 ) ) ;
#183 = FACE_BOUND ( 'NONE', #708, .T. ) ;
#184 = CARTESIAN_POINT ( 'NONE',  ( 9.000000000000001776, 1.699999999999999956, -0.5000000000000356382 ) ) ;
#185 = ORIENTED_EDGE ( 'NONE', *, *, #1110, .T. ) ;
#186 = CARTESIAN_POINT ( 'NONE',  ( 9.000000000000001776, 0.000000000000000000, -0.5000000000000356382 ) ) ;
#187 = FILL_AREA_STYLE_COLOUR ( '', #139 ) ;
#188 = EDGE_CURVE ( 'NONE', #794, #361, #52, .T. ) ;
#189 =( NAMED_UNIT ( * ) SI_UNIT ( $, .STERADIAN. ) SOLID_ANGLE_UNIT ( ) );
#190 = EDGE_LOOP ( 'NONE', ( #820, #172, #1039, #695, #82, #115, #1117, #131 ) ) ;
#191 = DIRECTION ( 'NONE',  ( 0.000000000000000000, 0.000000000000000000, 1.000000000000000000 ) ) ;
#192 = CIRCLE ( 'NONE', #910, 0.4999999999999989453 ) ;
#193 = DIRECTION ( 'NONE',  ( 0.000000000000000000, 1.000000000000000000, 0.000000000000000000 ) ) ;
#194 = COLOUR_RGB ( '',0.2862745098039215508, 0.6627450980392156632, 0.3294117647058823484 ) ;
#195 = ORIENTED_EDGE ( 'NONE', *, *, #495, .F. ) ;
#196 = AXIS2_PLACEMENT_3D ( 'NONE', #713, #836, #832 ) ;
#197 = DIRECTION ( 'NONE',  ( 0.000000000000000000, -1.000000000000000000, 0.000000000000000000 ) ) ;
#198 = COLOUR_RGB ( '',0.2862745098039215508, 0.6627450980392156632, 0.3294117647058823484 ) ;
#199 = AXIS2_PLACEMENT_3D ( 'NONE', #3, #499, #90 ) ;
#200 = DIRECTION ( 'NONE',  ( -0.000000000000000000, -1.000000000000000000, -0.000000000000000000 ) ) ;
#201 = SURFACE_STYLE_USAGE ( .BOTH. , #127 ) ;
#202 = ORIENTED_EDGE ( 'NONE', *, *, #1110, .F. ) ;
#203 = CARTESIAN_POINT ( 'NONE',  ( 13.99500224294676620, 1.699999999999999956, 0.000000000000000000 ) ) ;
#204 = DIRECTION ( 'NONE',  ( -0.000000000000000000, -1.000000000000000000, -0.000000000000000000 ) ) ;
#205 = SURFACE_STYLE_FILL_AREA ( #595 ) ;
#206 = ADVANCED_FACE ( 'NONE', ( #702 ), #1091, .F. ) ;
#207 = CARTESIAN_POINT ( 'NONE',  ( 0.000000000000000000, 3.000000000000000000, 0.000000000000000000 ) ) ;
#208 = VERTEX_POINT ( 'NONE', #1105 ) ;
#209 = DIRECTION ( 'NONE',  ( 0.000000000000000000, 1.000000000000000000, 0.000000000000000000 ) ) ;
#210 = DIRECTION ( 'NONE',  ( 0.000000000000000000, 1.000000000000000000, 0.000000000000000000 ) ) ;
#211 = EDGE_CURVE ( 'NONE', #64, #952, #580, .T. ) ;
#212 = COLOUR_RGB ( '',0.2862745098039215508, 0.6627450980392156632, 0.3294117647058823484 ) ;
#213 = SURFACE_STYLE_FILL_AREA ( #114 ) ;
#214 = MECHANICAL_DESIGN_GEOMETRIC_PRESENTATION_REPRESENTATION (  '', ( #133 ), #618 ) ;
#215 = CIRCLE ( 'NONE', #337, 0.4999999999999989453 ) ;
#216 = ORIENTED_EDGE ( 'NONE', *, *, #1020, .F. ) ;
#217 = FILL_AREA_STYLE ('',( #668 ) ) ;
#218 = AXIS2_PLACEMENT_3D ( 'NONE', #158, #1198, #546 ) ;
#219 = DIRECTION ( 'NONE',  ( 0.000000000000000000, 0.000000000000000000, 1.000000000000000000 ) ) ;
#220 = LINE ( 'NONE', #1189, #120 ) ;
#221 = ADVANCED_FACE ( 'NONE', ( #710 ), #436, .F. ) ;
#222 = SURFACE_STYLE_USAGE ( .BOTH. , #722 ) ;
#223 = FACE_BOUND ( 'NONE', #347, .T. ) ;
#224 = UNCERTAINTY_MEASURE_WITH_UNIT (LENGTH_MEASURE( 1.000000000000000082E-05 ), #472, 'distance_accuracy_value', 'NONE');
#225 =( NAMED_UNIT ( * ) SI_UNIT ( $, .STERADIAN. ) SOLID_ANGLE_UNIT ( ) );
#226 = VERTEX_POINT ( 'NONE', #1004 ) ;
#227 = EDGE_CURVE ( 'NONE', #1007, #387, #1010, .T. ) ;
#228 = DIRECTION ( 'NONE',  ( -0.000000000000000000, -1.000000000000000000, -0.000000000000000000 ) ) ;
#229 = CARTESIAN_POINT ( 'NONE',  ( 0.000000000000000000, 2.000000000000000000, 0.000000000000000000 ) ) ;
#230 = EDGE_CURVE ( 'NONE', #940, #1140, #727, .T. ) ;
#231 = FILL_AREA_STYLE ('',( #38 ) ) ;
#232 = FILL_AREA_STYLE_COLOUR ( '', #854 ) ;
#233 = ORIENTED_EDGE ( 'NONE', *, *, #456, .T. ) ;
#234 = COLOUR_RGB ( '',0.2862745098039215508, 0.6627450980392156632, 0.3294117647058823484 ) ;
#235 =( LENGTH_UNIT ( ) NAMED_UNIT ( * ) SI_UNIT ( .MILLI., .METRE. ) );
#236 = AXIS2_PLACEMENT_3D ( 'NONE', #634, #369, #752 ) ;
#237 = AXIS2_PLACEMENT_3D ( 'NONE', #1231, #487, #300 ) ;
#238 = PRODUCT_DEFINITION_CONTEXT ( 'detailed design', #338, 'design' ) ;
#239 = AXIS2_PLACEMENT_3D ( 'NONE', #798, #990, #1068 ) ;
#240 = PLANE ( 'NONE',  #742 ) ;
#241 = PRESENTATION_LAYER_ASSIGNMENT (  '', '', ( #100 ) ) ;
#242 = VERTEX_POINT ( 'NONE', #1221 ) ;
#243 = ORIENTED_EDGE ( 'NONE', *, *, #756, .T. ) ;
#244 = LINE ( 'NONE', #51, #874 ) ;
#245 = SURFACE_STYLE_USAGE ( .BOTH. , #913 ) ;
#246 = DIRECTION ( 'NONE',  ( 0.000000000000000000, 0.000000000000000000, -1.000000000000000000 ) ) ;
#247 = EDGE_LOOP ( 'NONE', ( #661, #834, #477, #559 ) ) ;
#248 =( NAMED_UNIT ( * ) PLANE_ANGLE_UNIT ( ) SI_UNIT ( $, .RADIAN. ) );
#249 = UNCERTAINTY_MEASURE_WITH_UNIT (LENGTH_MEASURE( 1.000000000000000082E-05 ), #290, 'distance_accuracy_value', 'NONE');
#250 = DIRECTION ( 'NONE',  ( 0.000000000000000000, -1.000000000000000000, 0.000000000000000000 ) ) ;
#251 = FILL_AREA_STYLE ('',( #837 ) ) ;
#252 = EDGE_LOOP ( 'NONE', ( #1239, #1220, #471, #1108, #876, #424 ) ) ;
#253 = DIRECTION ( 'NONE',  ( 0.000000000000000000, 0.000000000000000000, 1.000000000000000000 ) ) ;
#254 = AXIS2_PLACEMENT_3D ( 'NONE', #89, #554, #1136 ) ;
#255 = DIRECTION ( 'NONE',  ( 0.000000000000000000, -1.000000000000000000, 0.000000000000000000 ) ) ;
#256 = AXIS2_PLACEMENT_3D ( 'NONE', #303, #200, #1158 ) ;
#257 = PRODUCT_DEFINITION_FORMATION_WITH_SPECIFIED_SOURCE ( 'Symmetric', '', #1163, .NOT_KNOWN. ) ;
#258 =( GEOMETRIC_REPRESENTATION_CONTEXT ( 3 ) GLOBAL_UNCERTAINTY_ASSIGNED_CONTEXT ( ( #162 ) ) GLOBAL_UNIT_ASSIGNED_CONTEXT ( ( #372, #171, #366 ) ) REPRESENTATION_CONTEXT ( 'NONE', 'WORKASPACE' ) );
#259 = DIRECTION ( 'NONE',  ( -0.000000000000000000, -1.000000000000000000, -0.000000000000000000 ) ) ;
#260 = PRESENTATION_LAYER_ASSIGNMENT (  '', '', ( #406 ) ) ;
#261 = VECTOR ( 'NONE', #855, 1000.000000000000000 ) ;
#262 = SURFACE_STYLE_FILL_AREA ( #576 ) ;
#263 = ORIENTED_EDGE ( 'NONE', *, *, #440, .T. ) ;
#264 = ADVANCED_FACE ( 'NONE', ( #1119, #925, #633, #336, #223, #609 ), #937, .F. ) ;
#265 = SURFACE_STYLE_FILL_AREA ( #569 ) ;
#266 =( LENGTH_UNIT ( ) NAMED_UNIT ( * ) SI_UNIT ( .MILLI., .METRE. ) );
#267 = SURFACE_STYLE_USAGE ( .BOTH. , #534 ) ;
#268 = FACE_OUTER_BOUND ( 'NONE', #154, .T. ) ;
#269 = EDGE_CURVE ( 'NONE', #242, #923, #53, .T. ) ;
#270 = ORIENTED_EDGE ( 'NONE', *, *, #39, .F. ) ;
#271 = DIRECTION ( 'NONE',  ( 0.000000000000000000, -1.000000000000000000, 0.000000000000000000 ) ) ;
#272 = CARTESIAN_POINT ( 'NONE',  ( 4.000000000000000000, 1.699999999999999956, -0.5000000000000706102 ) ) ;
#273 = SURFACE_STYLE_FILL_AREA ( #754 ) ;
#274 = ORIENTED_EDGE ( 'NONE', *, *, #498, .T. ) ;
#275 = UNCERTAINTY_MEASURE_WITH_UNIT (LENGTH_MEASURE( 1.000000000000000082E-05 ), #40, 'distance_accuracy_value', 'NONE');
#276 = LINE ( 'NONE', #77, #261 ) ;
#277 = PRESENTATION_LAYER_ASSIGNMENT (  '', '', ( #596 ) ) ;
#278 = AXIS2_PLACEMENT_3D ( 'NONE', #178, #1187, #308 ) ;
#279 = DIRECTION ( 'NONE',  ( 0.000000000000000000, 0.000000000000000000, -1.000000000000000000 ) ) ;
#280 = DIRECTION ( 'NONE',  ( 0.000000000000000000, 0.000000000000000000, -1.000000000000000000 ) ) ;
#281 = AXIS2_PLACEMENT_3D ( 'NONE', #203, #696, #388 ) ;
#282 = AXIS2_PLACEMENT_3D ( 'NONE', #849, #567, #959 ) ;
#283 = ORIENTED_EDGE ( 'NONE', *, *, #570, .T. ) ;
#284 = VECTOR ( 'NONE', #9, 1000.000000000000000 ) ;
#285 = DIRECTION ( 'NONE',  ( 0.000000000000000000, -1.000000000000000000, 0.000000000000000000 ) ) ;
#286 = SURFACE_STYLE_FILL_AREA ( #1139 ) ;
#287 = ORIENTED_EDGE ( 'NONE', *, *, #769, .F. ) ;
#288 = CARTESIAN_POINT ( 'NONE',  ( 0.000000000000000000, 5.000000000000000000, 0.000000000000000000 ) ) ;
#289 = CARTESIAN_POINT ( 'NONE',  ( 4.000000000000000000, 0.000000000000000000, -0.5000000000000706102 ) ) ;
#290 =( LENGTH_UNIT ( ) NAMED_UNIT ( * ) SI_UNIT ( .MILLI., .METRE. ) );
#291 = LINE ( 'NONE', #901, #356 ) ;
#292 = ORIENTED_EDGE ( 'NONE', *, *, #720, .F. ) ;
#293 = DIRECTION ( 'NONE',  ( 0.000000000000000000, 0.000000000000000000, -1.000000000000000000 ) ) ;
#294 = CARTESIAN_POINT ( 'NONE',  ( 0.2111602549687421615, 1.699999999999999956, -2.985062745917859139 ) ) ;
#295 = MECHANICAL_DESIGN_GEOMETRIC_PRESENTATION_REPRESENTATION (  '', ( #596 ), #48 ) ;
#296 = STYLED_ITEM ( 'NONE', ( #847 ), #98 ) ;
#297 = PRESENTATION_LAYER_ASSIGNMENT (  '', '', ( #619 ) ) ;
#298 = PRESENTATION_LAYER_ASSIGNMENT (  '', '', ( #1236 ) ) ;
#299 = ORIENTED_EDGE ( 'NONE', *, *, #306, .F. ) ;
#300 = DIRECTION ( 'NONE',  ( 0.000000000000000000, 0.000000000000000000, 1.000000000000000000 ) ) ;
#301 = EDGE_CURVE ( 'NONE', #1165, #1190, #402, .T. ) ;
#302 = AXIS2_PLACEMENT_3D ( 'NONE', #11, #389, #407 ) ;
#303 = CARTESIAN_POINT ( 'NONE',  ( 0.000000000000000000, 2.000000000000000000, 0.000000000000000000 ) ) ;
#304 = PRESENTATION_STYLE_ASSIGNMENT (( #976 ) ) ;
#305 = VERTEX_POINT ( 'NONE', #363 ) ;
#306 = EDGE_CURVE ( 'NONE', #714, #409, #550, .T. ) ;
#307 = CARTESIAN_POINT ( 'NONE',  ( 14.00000000000000000, 1.699999999999999956, 0.4999999999999989453 ) ) ;
#308 = DIRECTION ( 'NONE',  ( 0.000000000000000000, 0.000000000000000000, -1.000000000000000000 ) ) ;
#309 = FILL_AREA_STYLE_COLOUR ( '', #815 ) ;
#310 = FILL_AREA_STYLE_COLOUR ( '', #380 ) ;
#311 =( NAMED_UNIT ( * ) PLANE_ANGLE_UNIT ( ) SI_UNIT ( $, .RADIAN. ) );
#312 = ORIENTED_EDGE ( 'NONE', *, *, #343, .T. ) ;
#313 = EDGE_CURVE ( 'NONE', #1140, #1165, #654, .T. ) ;
#314 = DIRECTION ( 'NONE',  ( 0.000000000000000000, -1.000000000000000000, 0.000000000000000000 ) ) ;
#315 = FACE_OUTER_BOUND ( 'NONE', #806, .T. ) ;
#316 =( GEOMETRIC_REPRESENTATION_CONTEXT ( 3 ) GLOBAL_UNCERTAINTY_ASSIGNED_CONTEXT ( ( #711 ) ) GLOBAL_UNIT_ASSIGNED_CONTEXT ( ( #349, #842, #46 ) ) REPRESENTATION_CONTEXT ( 'NONE', 'WORKASPACE' ) );
#317 = CARTESIAN_POINT ( 'NONE',  ( 11.50000000000000000, 1.699999999999999956, 0.4999999999999832911 ) ) ;
#318 = ORIENTED_EDGE ( 'NONE', *, *, #658, .T. ) ;
#319 = AXIS2_PLACEMENT_3D ( 'NONE', #878, #966, #587 ) ;
#320 = MECHANICAL_DESIGN_GEOMETRIC_PRESENTATION_REPRESENTATION (  '', ( #522 ), #915 ) ;
#321 = AXIS2_PLACEMENT_3D ( 'NONE', #1248, #575, #753 ) ;
#322 =( LENGTH_UNIT ( ) NAMED_UNIT ( * ) SI_UNIT ( .MILLI., .METRE. ) );
#323 =( GEOMETRIC_REPRESENTATION_CONTEXT ( 3 ) GLOBAL_UNCERTAINTY_ASSIGNED_CONTEXT ( ( #454 ) ) GLOBAL_UNIT_ASSIGNED_CONTEXT ( ( #831, #511, #904 ) ) REPRESENTATION_CONTEXT ( 'NONE', 'WORKASPACE' ) );
#324 = EDGE_CURVE ( 'NONE', #208, #387, #684, .T. ) ;
#325 = ORIENTED_EDGE ( 'NONE', *, *, #324, .F. ) ;
#326 = CARTESIAN_POINT ( 'NONE',  ( 14.00000000000000000, 1.699999999999999956, 0.4999999999999989453 ) ) ;
#327 = CARTESIAN_POINT ( 'NONE',  ( 14.13648017687462755, 0.000000000000000000, -2.000000000000000000 ) ) ;
#328 = CARTESIAN_POINT ( 'NONE',  ( 0.4223204503071527061, 1.700000000000000178, -2.970125491835718723 ) ) ;
#329 = EDGE_LOOP ( 'NONE', ( #144, #590 ) ) ;
#330 = ORIENTED_EDGE ( 'NONE', *, *, #313, .F. ) ;
#331 = DIRECTION ( 'NONE',  ( 0.000000000000000000, 1.000000000000000000, 0.000000000000000000 ) ) ;
#332 = VERTEX_POINT ( 'NONE', #65 ) ;
#333 = EDGE_LOOP ( 'NONE', ( #1102, #342, #968, #292 ) ) ;
#334 = MECHANICAL_DESIGN_GEOMETRIC_PRESENTATION_REPRESENTATION (  '', ( #664 ), #1191 ) ;
#335 = AXIS2_PLACEMENT_3D ( 'NONE', #1074, #204, #111 ) ;
#336 = FACE_BOUND ( 'NONE', #905, .T. ) ;
#337 = AXIS2_PLACEMENT_3D ( 'NONE', #574, #965, #478 ) ;
#338 = APPLICATION_CONTEXT ( 'automotive_design' ) ;
#339 = CIRCLE ( 'NONE', #319, 3.000000000000000444 ) ;
#340 = CARTESIAN_POINT ( 'NONE',  ( 0.000000000000000000, 2.000000000000000000, -2.000000000000000000 ) ) ;
#341 = AXIS2_PLACEMENT_3D ( 'NONE', #102, #693, #219 ) ;
#342 = ORIENTED_EDGE ( 'NONE', *, *, #800, .T. ) ;
#343 = EDGE_CURVE ( 'NONE', #607, #332, #972, .T. ) ;
#344 = DIRECTION ( 'NONE',  ( 0.000000000000000000, 0.000000000000000000, 1.000000000000000000 ) ) ;
#345 = DIRECTION ( 'NONE',  ( 0.000000000000000000, -1.000000000000000000, 0.000000000000000000 ) ) ;
#346 = PRESENTATION_STYLE_ASSIGNMENT (( #245 ) ) ;
#347 = EDGE_LOOP ( 'NONE', ( #1230, #757 ) ) ;
#348 = CARTESIAN_POINT ( 'NONE',  ( 0.2111602549687421615, 1.699999999999999956, -2.985062745917859139 ) ) ;
#349 =( LENGTH_UNIT ( ) NAMED_UNIT ( * ) SI_UNIT ( .MILLI., .METRE. ) );
#350 = EDGE_LOOP ( 'NONE', ( #28, #944, #1212, #420 ) ) ;
#351 = MECHANICAL_DESIGN_GEOMETRIC_PRESENTATION_REPRESENTATION (  '', ( #908 ), #316 ) ;
#352 = DIRECTION ( 'NONE',  ( 0.9975073503021875121, 0.000000000000000000, 0.07056263949930396961 ) ) ;
#353 = PRESENTATION_STYLE_ASSIGNMENT (( #1228 ) ) ;
#354 = CIRCLE ( 'NONE', #971, 0.5000000000000007772 ) ;
#355 = MECHANICAL_DESIGN_GEOMETRIC_PRESENTATION_REPRESENTATION (  '', ( #1253 ), #481 ) ;
#356 = VECTOR ( 'NONE', #20, 1000.000000000000000 ) ;
#357 = EDGE_CURVE ( 'NONE', #520, #226, #811, .T. ) ;
#358 = DIRECTION ( 'NONE',  ( 0.000000000000000000, 0.000000000000000000, 1.000000000000000000 ) ) ;
#359 = CIRCLE ( 'NONE', #852, 2.004997757053233354 ) ;
#360 =( LENGTH_UNIT ( ) NAMED_UNIT ( * ) SI_UNIT ( .MILLI., .METRE. ) );
#361 = VERTEX_POINT ( 'NONE', #186 ) ;
#362 = ADVANCED_FACE ( 'NONE', ( #374 ), #867, .F. ) ;
#363 = CARTESIAN_POINT ( 'NONE',  ( 0.000000000000000000, 2.000000000000000000, -2.000000000000000000 ) ) ;
#364 =( LENGTH_UNIT ( ) NAMED_UNIT ( * ) SI_UNIT ( .MILLI., .METRE. ) );
#365 = CARTESIAN_POINT ( 'NONE',  ( 4.000000000000000000, 0.000000000000000000, -6.982962677686266711E-14 ) ) ;
#366 =( NAMED_UNIT ( * ) SI_UNIT ( $, .STERADIAN. ) SOLID_ANGLE_UNIT ( ) );
#367 = EDGE_LOOP ( 'NONE', ( #458, #741 ) ) ;
#368 = DIRECTION ( 'NONE',  ( -0.000000000000000000, 1.000000000000000000, -0.000000000000000000 ) ) ;
#369 = DIRECTION ( 'NONE',  ( 0.000000000000000000, -1.000000000000000000, 0.000000000000000000 ) ) ;
#370 = DIRECTION ( 'NONE',  ( 0.000000000000000000, 0.000000000000000000, 1.000000000000000000 ) ) ;
#371 = DIRECTION ( 'NONE',  ( 0.000000000000000000, 1.000000000000000000, 0.000000000000000000 ) ) ;
#372 =( LENGTH_UNIT ( ) NAMED_UNIT ( * ) SI_UNIT ( .MILLI., .METRE. ) );
#373 = ORIENTED_EDGE ( 'NONE', *, *, #140, .T. ) ;
#374 = FACE_OUTER_BOUND ( 'NONE', #350, .T. ) ;
#375 = COLOUR_RGB ( '',0.2862745098039215508, 0.6627450980392156632, 0.3294117647058823484 ) ;
#376 = UNCERTAINTY_MEASURE_WITH_UNIT (LENGTH_MEASURE( 1.000000000000000082E-05 ), #419, 'distance_accuracy_value', 'NONE');
#377 = STYLED_ITEM ( 'NONE', ( #44 ), #221 ) ;
#378 = AXIS2_PLACEMENT_3D ( 'NONE', #405, #197, #1066 ) ;
#379 = SURFACE_SIDE_STYLE ('',( #85 ) ) ;
#380 = COLOUR_RGB ( '',0.2862745098039215508, 0.6627450980392156632, 0.3294117647058823484 ) ;
#381 =( GEOMETRIC_REPRESENTATION_CONTEXT ( 3 ) GLOBAL_UNCERTAINTY_ASSIGNED_CONTEXT ( ( #1005 ) ) GLOBAL_UNIT_ASSIGNED_CONTEXT ( ( #1078, #921, #938 ) ) REPRESENTATION_CONTEXT ( 'NONE', 'WORKASPACE' ) );
#382 = EDGE_LOOP ( 'NONE', ( #721, #612 ) ) ;
#383 = CARTESIAN_POINT ( 'NONE',  ( 4.000000000000000000, 1.699999999999999956, 0.4999999999999309441 ) ) ;
#384 = CYLINDRICAL_SURFACE ( 'NONE', #870, 2.000000000000000000 ) ;
#385 =( LENGTH_UNIT ( ) NAMED_UNIT ( * ) SI_UNIT ( .MILLI., .METRE. ) );
#386 =( NAMED_UNIT ( * ) PLANE_ANGLE_UNIT ( ) SI_UNIT ( $, .RADIAN. ) );
#387 = VERTEX_POINT ( 'NONE', #1155 ) ;
#388 = DIRECTION ( 'NONE',  ( 0.000000000000000000, 0.000000000000000000, -1.000000000000000000 ) ) ;
#389 = DIRECTION ( 'NONE',  ( 0.000000000000000000, -1.000000000000000000, 0.000000000000000000 ) ) ;
#390 = FILL_AREA_STYLE ('',( #309 ) ) ;
#391 = CARTESIAN_POINT ( 'NONE',  ( 4.000000000000000000, 1.699999999999999956, 0.4999999999999309441 ) ) ;
#392 = EDGE_LOOP ( 'NONE', ( #148, #549, #1085, #270 ) ) ;
#393 = EDGE_CURVE ( 'NONE', #778, #960, #215, .T. ) ;
#394 = SURFACE_STYLE_USAGE ( .BOTH. , #882 ) ;
#395 = PRESENTATION_STYLE_ASSIGNMENT (( #494 ) ) ;
#396 = DIRECTION ( 'NONE',  ( 0.000000000000000000, 0.000000000000000000, -1.000000000000000000 ) ) ;
#397 = SURFACE_STYLE_USAGE ( .BOTH. , #699 ) ;
#398 = EDGE_CURVE ( 'NONE', #688, #448, #788, .T. ) ;
#399 = CIRCLE ( 'NONE', #1215, 0.5000000000000007772 ) ;
#400 = LINE ( 'NONE', #792, #1238 ) ;
#401 = VECTOR ( 'NONE', #760, 1000.000000000000000 ) ;
#402 = CIRCLE ( 'NONE', #1175, 2.000000000000000000 ) ;
#403 = VERTEX_POINT ( 'NONE', #383 ) ;
#404 = MECHANICAL_DESIGN_GEOMETRIC_PRESENTATION_REPRESENTATION (  '', ( #73 ), #893 ) ;
#405 = CARTESIAN_POINT ( 'NONE',  ( 11.50000000000000000, 0.000000000000000000, -1.745740669421566678E-14 ) ) ;
#406 = STYLED_ITEM ( 'NONE', ( #304 ), #776 ) ;
#407 = DIRECTION ( 'NONE',  ( 0.000000000000000000, 0.000000000000000000, -1.000000000000000000 ) ) ;
#408 = CARTESIAN_POINT ( 'NONE',  ( 14.00000000000000000, 0.000000000000000000, 0.4999999999999989453 ) ) ;
#409 = VERTEX_POINT ( 'NONE', #99 ) ;
#410 = DIRECTION ( 'NONE',  ( 0.000000000000000000, 1.000000000000000000, 0.000000000000000000 ) ) ;
#411 = DIRECTION ( 'NONE',  ( 0.000000000000000000, -1.000000000000000000, 0.000000000000000000 ) ) ;
#412 =( LENGTH_UNIT ( ) NAMED_UNIT ( * ) SI_UNIT ( .MILLI., .METRE. ) );
#413 = DIRECTION ( 'NONE',  ( 0.000000000000000000, -0.000000000000000000, 1.000000000000000000 ) ) ;
#414 = ORIENTED_EDGE ( 'NONE', *, *, #34, .T. ) ;
#415 = ADVANCED_FACE ( 'NONE', ( #1173 ), #785, .T. ) ;
#416 = FILL_AREA_STYLE ('',( #101 ) ) ;
#417 =( NAMED_UNIT ( * ) PLANE_ANGLE_UNIT ( ) SI_UNIT ( $, .RADIAN. ) );
#418 = CARTESIAN_POINT ( 'NONE',  ( 4.000000000000000000, 1.699999999999999956, -6.982962677686266711E-14 ) ) ;
#419 =( LENGTH_UNIT ( ) NAMED_UNIT ( * ) SI_UNIT ( .MILLI., .METRE. ) );
#420 = ORIENTED_EDGE ( 'NONE', *, *, #324, .T. ) ;
#421 = AXIS2_PLACEMENT_3D ( 'NONE', #19, #411, #698 ) ;
#422 = COLOUR_RGB ( '',0.2862745098039215508, 0.6627450980392156632, 0.3294117647058823484 ) ;
#423 = PRESENTATION_LAYER_ASSIGNMENT (  '', '', ( #1217 ) ) ;
#424 = ORIENTED_EDGE ( 'NONE', *, *, #398, .F. ) ;
#425 = AXIS2_PLACEMENT_3D ( 'NONE', #804, #123, #108 ) ;
#426 =( GEOMETRIC_REPRESENTATION_CONTEXT ( 3 ) GLOBAL_UNCERTAINTY_ASSIGNED_CONTEXT ( ( #249 ) ) GLOBAL_UNIT_ASSIGNED_CONTEXT ( ( #290, #138, #1006 ) ) REPRESENTATION_CONTEXT ( 'NONE', 'WORKASPACE' ) );
#427 = DIRECTION ( 'NONE',  ( 0.000000000000000000, 0.000000000000000000, 1.000000000000000000 ) ) ;
#428 = VECTOR ( 'NONE', #665, 1000.000000000000000 ) ;
#429 = LINE ( 'NONE', #1201, #728 ) ;
#430 = ORIENTED_EDGE ( 'NONE', *, *, #440, .F. ) ;
#431 = SURFACE_SIDE_STYLE ('',( #135 ) ) ;
#432 = UNCERTAINTY_MEASURE_WITH_UNIT (LENGTH_MEASURE( 1.000000000000000082E-05 ), #803, 'distance_accuracy_value', 'NONE');
#433 = VERTEX_POINT ( 'NONE', #690 ) ;
#434 = VERTEX_POINT ( 'NONE', #795 ) ;
#435 = EDGE_CURVE ( 'NONE', #1250, #433, #994, .T. ) ;
#436 = CYLINDRICAL_SURFACE ( 'NONE', #787, 2.000000000000000000 ) ;
#437 = DIRECTION ( 'NONE',  ( 0.000000000000000000, -1.000000000000000000, 0.000000000000000000 ) ) ;
#438 = FILL_AREA_STYLE_COLOUR ( '', #1094 ) ;
#439 = SURFACE_SIDE_STYLE ('',( #1138 ) ) ;
#440 = EDGE_CURVE ( 'NONE', #64, #332, #780, .T. ) ;
#441 = VECTOR ( 'NONE', #1229, 1000.000000000000000 ) ;
#442 = VERTEX_POINT ( 'NONE', #307 ) ;
#443 = VECTOR ( 'NONE', #888, 1000.000000000000000 ) ;
#444 = UNCERTAINTY_MEASURE_WITH_UNIT (LENGTH_MEASURE( 1.000000000000000082E-05 ), #889, 'distance_accuracy_value', 'NONE');
#445 = STYLED_ITEM ( 'NONE', ( #885 ), #622 ) ;
#446 = CIRCLE ( 'NONE', #341, 2.000000000000000000 ) ;
#447 = CARTESIAN_POINT ( 'NONE',  ( 11.50000000000000000, 1.699999999999999956, -0.5000000000000182077 ) ) ;
#448 = VERTEX_POINT ( 'NONE', #6 ) ;
#449 = CARTESIAN_POINT ( 'NONE',  ( 2.449293598294706414E-16, 0.000000000000000000, 2.000000000000000000 ) ) ;
#450 = SURFACE_STYLE_USAGE ( .BOTH. , #379 ) ;
#451 = ORIENTED_EDGE ( 'NONE', *, *, #357, .F. ) ;
#452 =( NAMED_UNIT ( * ) SI_UNIT ( $, .STERADIAN. ) SOLID_ANGLE_UNIT ( ) );
#453 = EDGE_CURVE ( 'NONE', #409, #1122, #563, .T. ) ;
#454 = UNCERTAINTY_MEASURE_WITH_UNIT (LENGTH_MEASURE( 1.000000000000000082E-05 ), #831, 'distance_accuracy_value', 'NONE');
#455 = LINE ( 'NONE', #66, #428 ) ;
#456 = EDGE_CURVE ( 'NONE', #940, #1190, #110, .T. ) ;
#457 = CARTESIAN_POINT ( 'NONE',  ( 9.000000000000001776, 1.699999999999999956, 0.4999999999999658606 ) ) ;
#458 = ORIENTED_EDGE ( 'NONE', *, *, #756, .F. ) ;
#459 = PRESENTATION_LAYER_ASSIGNMENT (  '', '', ( #637 ) ) ;
#460 =( NAMED_UNIT ( * ) SI_UNIT ( $, .STERADIAN. ) SOLID_ANGLE_UNIT ( ) );
#461 = AXIS2_PLACEMENT_3D ( 'NONE', #1242, #1141, #76 ) ;
#462 = DIRECTION ( 'NONE',  ( 0.000000000000000000, 0.000000000000000000, -1.000000000000000000 ) ) ;
#463 = AXIS2_PLACEMENT_3D ( 'NONE', #761, #943, #279 ) ;
#464 = SURFACE_STYLE_FILL_AREA ( #470 ) ;
#465 = ORIENTED_EDGE ( 'NONE', *, *, #169, .F. ) ;
#466 = PRESENTATION_STYLE_ASSIGNMENT (( #1148 ) ) ;
#467 = CARTESIAN_POINT ( 'NONE',  ( 9.000000000000001776, 0.000000000000000000, -3.491481338843133355E-14 ) ) ;
#468 = FILL_AREA_STYLE ('',( #79 ) ) ;
#469 = FACE_OUTER_BOUND ( 'NONE', #1203, .T. ) ;
#470 = FILL_AREA_STYLE ('',( #1166 ) ) ;
#471 = ORIENTED_EDGE ( 'NONE', *, *, #1024, .T. ) ;
#472 =( LENGTH_UNIT ( ) NAMED_UNIT ( * ) SI_UNIT ( .MILLI., .METRE. ) );
#473 =( NAMED_UNIT ( * ) PLANE_ANGLE_UNIT ( ) SI_UNIT ( $, .RADIAN. ) );
#474 = SURFACE_SIDE_STYLE ('',( #1035 ) ) ;
#475 =( NAMED_UNIT ( * ) SI_UNIT ( $, .STERADIAN. ) SOLID_ANGLE_UNIT ( ) );
#476 = PRESENTATION_STYLE_ASSIGNMENT (( #1146 ) ) ;
#477 = ORIENTED_EDGE ( 'NONE', *, *, #301, .T. ) ;
#478 = DIRECTION ( 'NONE',  ( 0.000000000000000000, 0.000000000000000000, -1.000000000000000000 ) ) ;
#479 =( NAMED_UNIT ( * ) PLANE_ANGLE_UNIT ( ) SI_UNIT ( $, .RADIAN. ) );
#480 = AXIS2_PLACEMENT_3D ( 'NONE', #1082, #210, #579 ) ;
#481 =( GEOMETRIC_REPRESENTATION_CONTEXT ( 3 ) GLOBAL_UNCERTAINTY_ASSIGNED_CONTEXT ( ( #1041 ) ) GLOBAL_UNIT_ASSIGNED_CONTEXT ( ( #360, #1064, #189 ) ) REPRESENTATION_CONTEXT ( 'NONE', 'WORKASPACE' ) );
#482 = CYLINDRICAL_SURFACE ( 'NONE', #1077, 0.5000000000000007772 ) ;
#483 = CIRCLE ( 'NONE', #425, 0.5000000000000007772 ) ;
#484 = COLOUR_RGB ( '',0.2862745098039215508, 0.6627450980392156632, 0.3294117647058823484 ) ;
#485 = ORIENTED_EDGE ( 'NONE', *, *, #269, .T. ) ;
#486 =( GEOMETRIC_REPRESENTATION_CONTEXT ( 3 ) GLOBAL_UNCERTAINTY_ASSIGNED_CONTEXT ( ( #930 ) ) GLOBAL_UNIT_ASSIGNED_CONTEXT ( ( #364, #473, #460 ) ) REPRESENTATION_CONTEXT ( 'NONE', 'WORKASPACE' ) );
#487 = DIRECTION ( 'NONE',  ( 0.000000000000000000, 1.000000000000000000, 0.000000000000000000 ) ) ;
#488 = CARTESIAN_POINT ( 'NONE',  ( 14.13648017687462755, 1.699999999999999956, 2.000000000000000000 ) ) ;
#489 = SURFACE_SIDE_STYLE ('',( #565 ) ) ;
#490 = EDGE_CURVE ( 'NONE', #923, #242, #954, .T. ) ;
#491 = FACE_OUTER_BOUND ( 'NONE', #1069, .T. ) ;
#492 = ORIENTED_EDGE ( 'NONE', *, *, #750, .T. ) ;
#493 = SURFACE_STYLE_FILL_AREA ( #591 ) ;
#494 = SURFACE_STYLE_USAGE ( .BOTH. , #1162 ) ;
#495 = EDGE_CURVE ( 'NONE', #952, #607, #505, .T. ) ;
#496 = DIRECTION ( 'NONE',  ( -0.000000000000000000, -1.000000000000000000, -0.000000000000000000 ) ) ;
#497 = ORIENTED_EDGE ( 'NONE', *, *, #987, .T. ) ;
#498 = EDGE_CURVE ( 'NONE', #1140, #940, #1092, .T. ) ;
#499 = DIRECTION ( 'NONE',  ( 0.000000000000000000, -1.000000000000000000, 0.000000000000000000 ) ) ;
#500 = CARTESIAN_POINT ( 'NONE',  ( 6.500000000000000888, 1.699999999999999956, -5.237222008264700664E-14 ) ) ;
#501 = COLOUR_RGB ( '',0.2862745098039215508, 0.6627450980392156632, 0.3294117647058823484 ) ;
#502 = FILL_AREA_STYLE ('',( #310 ) ) ;
#503 = VECTOR ( 'NONE', #352, 1000.000000000000114 ) ;
#504 = ORIENTED_EDGE ( 'NONE', *, *, #723, .T. ) ;
#505 = LINE ( 'NONE', #898, #853 ) ;
#506 = DIRECTION ( 'NONE',  ( 0.9975073503021875121, 0.000000000000000000, 0.07056263949930396961 ) ) ;
#507 = SURFACE_STYLE_USAGE ( .BOTH. , #1088 ) ;
#508 = CARTESIAN_POINT ( 'NONE',  ( 11.50000000000000000, 1.699999999999999956, -1.745740669421566678E-14 ) ) ;
#509 = ORIENTED_EDGE ( 'NONE', *, *, #34, .F. ) ;
#510 =( NAMED_UNIT ( * ) PLANE_ANGLE_UNIT ( ) SI_UNIT ( $, .RADIAN. ) );
#511 =( NAMED_UNIT ( * ) PLANE_ANGLE_UNIT ( ) SI_UNIT ( $, .RADIAN. ) );
#512 = ORIENTED_EDGE ( 'NONE', *, *, #1002, .F. ) ;
#513 = ORIENTED_EDGE ( 'NONE', *, *, #720, .T. ) ;
#514 = MANIFOLD_SOLID_BREP ( 'Cut-Extrude3', #724 ) ;
#515 =( NAMED_UNIT ( * ) PLANE_ANGLE_UNIT ( ) SI_UNIT ( $, .RADIAN. ) );
#516 =( LENGTH_UNIT ( ) NAMED_UNIT ( * ) SI_UNIT ( .MILLI., .METRE. ) );
#517 = UNCERTAINTY_MEASURE_WITH_UNIT (LENGTH_MEASURE( 1.000000000000000082E-05 ), #608, 'distance_accuracy_value', 'NONE');
#518 = ORIENTED_EDGE ( 'NONE', *, *, #490, .T. ) ;
#519 = AXIS2_PLACEMENT_3D ( 'NONE', #1011, #437, #1023 ) ;
#520 = VERTEX_POINT ( 'NONE', #457 ) ;
#521 =( GEOMETRIC_REPRESENTATION_CONTEXT ( 3 ) GLOBAL_UNCERTAINTY_ASSIGNED_CONTEXT ( ( #444 ) ) GLOBAL_UNIT_ASSIGNED_CONTEXT ( ( #889, #479, #681 ) ) REPRESENTATION_CONTEXT ( 'NONE', 'WORKASPACE' ) );
#522 = STYLED_ITEM ( 'NONE', ( #1223 ), #676 ) ;
#523 =( NAMED_UNIT ( * ) SI_UNIT ( $, .STERADIAN. ) SOLID_ANGLE_UNIT ( ) );
#524 = AXIS2_PLACEMENT_3D ( 'NONE', #1058, #667, #358 ) ;
#525 = CIRCLE ( 'NONE', #519, 0.5000000000000007772 ) ;
#526 = ADVANCED_FACE ( 'NONE', ( #268 ), #970, .F. ) ;
#527 = FILL_AREA_STYLE ('',( #232 ) ) ;
#528 = ORIENTED_EDGE ( 'NONE', *, *, #769, .T. ) ;
#529 = ORIENTED_EDGE ( 'NONE', *, *, #1038, .T. ) ;
#530 = CARTESIAN_POINT ( 'NONE',  ( 0.000000000000000000, 3.000000000000000000, 0.000000000000000000 ) ) ;
#531 = UNCERTAINTY_MEASURE_WITH_UNIT (LENGTH_MEASURE( 1.000000000000000082E-05 ), #156, 'distance_accuracy_value', 'NONE');
#532 = SURFACE_STYLE_USAGE ( .BOTH. , #1101 ) ;
#533 = EDGE_CURVE ( 'NONE', #226, #361, #875, .T. ) ;
#534 = SURFACE_SIDE_STYLE ('',( #273 ) ) ;
#535 = EDGE_LOOP ( 'NONE', ( #577, #1127 ) ) ;
#536 = PRODUCT_CONTEXT ( 'NONE', #840, 'mechanical' ) ;
#537 = DIRECTION ( 'NONE',  ( -0.000000000000000000, -1.000000000000000000, -0.000000000000000000 ) ) ;
#538 = CARTESIAN_POINT ( 'NONE',  ( 11.50000000000000000, 1.699999999999999956, -1.745740669421566678E-14 ) ) ;
#539 = ADVANCED_FACE ( 'NONE', ( #647 ), #963, .F. ) ;
#540 = DIRECTION ( 'NONE',  ( 0.000000000000000000, -1.000000000000000000, 0.000000000000000000 ) ) ;
#541 = MECHANICAL_DESIGN_GEOMETRIC_PRESENTATION_REPRESENTATION (  '', ( #1051 ), #809 ) ;
#542 = ORIENTED_EDGE ( 'NONE', *, *, #981, .F. ) ;
#543 = AXIS2_PLACEMENT_3D ( 'NONE', #1161, #410, #191 ) ;
#544 = COLOUR_RGB ( '',0.2862745098039215508, 0.6627450980392156632, 0.3294117647058823484 ) ;
#545 = CARTESIAN_POINT ( 'NONE',  ( 14.00000000000000000, 1.699999999999999956, -0.4999999999999989453 ) ) ;
#546 = DIRECTION ( 'NONE',  ( 0.000000000000000000, 0.000000000000000000, 1.000000000000000000 ) ) ;
#547 = LINE ( 'NONE', #447, #441 ) ;
#548 = EDGE_CURVE ( 'NONE', #403, #773, #483, .T. ) ;
#549 = ORIENTED_EDGE ( 'NONE', *, *, #174, .T. ) ;
#550 = LINE ( 'NONE', #348, #503 ) ;
#551 = FACE_OUTER_BOUND ( 'NONE', #1003, .T. ) ;
#552 = SURFACE_STYLE_USAGE ( .BOTH. , #164 ) ;
#553 = ORIENTED_EDGE ( 'NONE', *, *, #1073, .T. ) ;
#554 = DIRECTION ( 'NONE',  ( 0.000000000000000000, -1.000000000000000000, 0.000000000000000000 ) ) ;
#555 = UNCERTAINTY_MEASURE_WITH_UNIT (LENGTH_MEASURE( 1.000000000000000082E-05 ), #626, 'distance_accuracy_value', 'NONE');
#556 = CARTESIAN_POINT ( 'NONE',  ( 4.000000000000000000, 1.699999999999999956, -0.5000000000000706102 ) ) ;
#557 = CARTESIAN_POINT ( 'NONE',  ( 9.000000000000001776, 1.699999999999999956, -3.491481338843133355E-14 ) ) ;
#558 = SURFACE_STYLE_USAGE ( .BOTH. , #572 ) ;
#559 = ORIENTED_EDGE ( 'NONE', *, *, #456, .F. ) ;
#560 = SURFACE_STYLE_FILL_AREA ( #1046 ) ;
#561 = PRESENTATION_LAYER_ASSIGNMENT (  '', '', ( #664 ) ) ;
#562 = SURFACE_SIDE_STYLE ('',( #265 ) ) ;
#563 = CIRCLE ( 'NONE', #281, 2.004997757053233354 ) ;
#564 = PRESENTATION_LAYER_ASSIGNMENT (  '', '', ( #641 ) ) ;
#565 = SURFACE_STYLE_FILL_AREA ( #468 ) ;
#566 = CIRCLE ( 'NONE', #602, 2.000000000000000000 ) ;
#567 = DIRECTION ( 'NONE',  ( -0.000000000000000000, -1.000000000000000000, -0.000000000000000000 ) ) ;
#568 = VERTEX_POINT ( 'NONE', #317 ) ;
#569 = FILL_AREA_STYLE ('',( #1149 ) ) ;
#570 = EDGE_CURVE ( 'NONE', #1098, #1122, #400, .T. ) ;
#571 = SURFACE_STYLE_USAGE ( .BOTH. , #474 ) ;
#572 = SURFACE_SIDE_STYLE ('',( #464 ) ) ;
#573 = VERTEX_POINT ( 'NONE', #1084 ) ;
#574 = CARTESIAN_POINT ( 'NONE',  ( 14.00000000000000000, 0.000000000000000000, 0.000000000000000000 ) ) ;
#575 = DIRECTION ( 'NONE',  ( 0.000000000000000000, 1.000000000000000000, 0.000000000000000000 ) ) ;
#576 = FILL_AREA_STYLE ('',( #1037 ) ) ;
#577 = ORIENTED_EDGE ( 'NONE', *, *, #1205, .F. ) ;
#578 = FILL_AREA_STYLE_COLOUR ( '', #934 ) ;
#579 = DIRECTION ( 'NONE',  ( 0.000000000000000000, 0.000000000000000000, 1.000000000000000000 ) ) ;
#580 = CIRCLE ( 'NONE', #767, 1.250000000000000000 ) ;
#581 = CIRCLE ( 'NONE', #302, 0.5000000000000007772 ) ;
#582 = AXIS2_PLACEMENT_3D ( 'NONE', #288, #1072, #877 ) ;
#583 = MECHANICAL_DESIGN_GEOMETRIC_PRESENTATION_REPRESENTATION (  '', ( #1255 ), #381 ) ;
#584 = CARTESIAN_POINT ( 'NONE',  ( 2.449293598294706414E-16, 2.000000000000000000, 2.000000000000000000 ) ) ;
#585 = ORIENTED_EDGE ( 'NONE', *, *, #570, .F. ) ;
#586 = EDGE_CURVE ( 'NONE', #242, #688, #220, .T. ) ;
#587 = DIRECTION ( 'NONE',  ( 0.000000000000000000, 0.000000000000000000, 1.000000000000000000 ) ) ;
#588 = EDGE_CURVE ( 'NONE', #1122, #573, #291, .T. ) ;
#589 =( NAMED_UNIT ( * ) PLANE_ANGLE_UNIT ( ) SI_UNIT ( $, .RADIAN. ) );
#590 = ORIENTED_EDGE ( 'NONE', *, *, #301, .F. ) ;
#591 = FILL_AREA_STYLE ('',( #578 ) ) ;
#592 =( NAMED_UNIT ( * ) SI_UNIT ( $, .STERADIAN. ) SOLID_ANGLE_UNIT ( ) );
#593 = EDGE_LOOP ( 'NONE', ( #1147, #821 ) ) ;
#594 = CARTESIAN_POINT ( 'NONE',  ( 2.449293598294706414E-16, 5.000000000000000000, -2.000000000000000000 ) ) ;
#595 = FILL_AREA_STYLE ('',( #988 ) ) ;
#596 = STYLED_ITEM ( 'NONE', ( #1115 ), #8 ) ;
#597 = COLOUR_RGB ( '',0.2862745098039215508, 0.6627450980392156632, 0.3294117647058823484 ) ;
#598 = SURFACE_STYLE_USAGE ( .BOTH. , #783 ) ;
#599 = AXIS2_PLACEMENT_3D ( 'NONE', #1247, #744, #253 ) ;
#600 = PLANE ( 'NONE',  #764 ) ;
#601 = ORIENTED_EDGE ( 'NONE', *, *, #39, .T. ) ;
#602 = AXIS2_PLACEMENT_3D ( 'NONE', #182, #59, #1144 ) ;
#603 = SURFACE_STYLE_FILL_AREA ( #217 ) ;
#604 = DIRECTION ( 'NONE',  ( 0.000000000000000000, -1.000000000000000000, -0.000000000000000000 ) ) ;
#605 = DIRECTION ( 'NONE',  ( 0.9975073503021875121, 0.000000000000000000, -0.07056263949930396961 ) ) ;
#606 = ORIENTED_EDGE ( 'NONE', *, *, #822, .F. ) ;
#607 = VERTEX_POINT ( 'NONE', #1000 ) ;
#608 =( LENGTH_UNIT ( ) NAMED_UNIT ( * ) SI_UNIT ( .MILLI., .METRE. ) );
#609 = FACE_OUTER_BOUND ( 'NONE', #1103, .T. ) ;
#610 = DIRECTION ( 'NONE',  ( 0.000000000000000000, 1.000000000000000000, 0.000000000000000000 ) ) ;
#611 = VERTEX_POINT ( 'NONE', #1181 ) ;
#612 = ORIENTED_EDGE ( 'NONE', *, *, #357, .T. ) ;
#613 = CARTESIAN_POINT ( 'NONE',  ( 0.000000000000000000, 2.000000000000000000, 0.000000000000000000 ) ) ;
#614 = EDGE_CURVE ( 'NONE', #332, #607, #835, .T. ) ;
#615 = FACE_BOUND ( 'NONE', #47, .T. ) ;
#616 = CYLINDRICAL_SURFACE ( 'NONE', #463, 0.4999999999999989453 ) ;
#617 = FACE_BOUND ( 'NONE', #329, .T. ) ;
#618 =( GEOMETRIC_REPRESENTATION_CONTEXT ( 3 ) GLOBAL_UNCERTAINTY_ASSIGNED_CONTEXT ( ( #84 ) ) GLOBAL_UNIT_ASSIGNED_CONTEXT ( ( #322, #417, #475 ) ) REPRESENTATION_CONTEXT ( 'NONE', 'WORKASPACE' ) );
#619 = STYLED_ITEM ( 'NONE', ( #353 ), #1087 ) ;
#620 =( GEOMETRIC_REPRESENTATION_CONTEXT ( 3 ) GLOBAL_UNCERTAINTY_ASSIGNED_CONTEXT ( ( #224 ) ) GLOBAL_UNIT_ASSIGNED_CONTEXT ( ( #472, #662, #452 ) ) REPRESENTATION_CONTEXT ( 'NONE', 'WORKASPACE' ) );
#621 = MECHANICAL_DESIGN_GEOMETRIC_PRESENTATION_REPRESENTATION (  '', ( #445 ), #1076 ) ;
#622 = ADVANCED_FACE ( 'NONE', ( #491 ), #1164, .F. ) ;
#623 = DIRECTION ( 'NONE',  ( -0.000000000000000000, 1.000000000000000000, -0.000000000000000000 ) ) ;
#624 = FACE_BOUND ( 'NONE', #593, .T. ) ;
#625 = CYLINDRICAL_SURFACE ( 'NONE', #218, 1.250000000000000000 ) ;
#626 =( LENGTH_UNIT ( ) NAMED_UNIT ( * ) SI_UNIT ( .MILLI., .METRE. ) );
#627 = ORIENTED_EDGE ( 'NONE', *, *, #548, .F. ) ;
#628 = DIRECTION ( 'NONE',  ( 0.000000000000000000, -1.000000000000000000, -0.000000000000000000 ) ) ;
#629 = CARTESIAN_POINT ( 'NONE',  ( 6.500000000000000888, 0.000000000000000000, -5.237222008264700664E-14 ) ) ;
#630 = SURFACE_STYLE_USAGE ( .BOTH. , #1209 ) ;
#631 = VERTEX_POINT ( 'NONE', #996 ) ;
#632 = EDGE_CURVE ( 'NONE', #403, #434, #1184, .T. ) ;
#633 = FACE_BOUND ( 'NONE', #382, .T. ) ;
#634 = CARTESIAN_POINT ( 'NONE',  ( 0.000000000000000000, 1.699999999999999956, 0.000000000000000000 ) ) ;
#635 =( NAMED_UNIT ( * ) SI_UNIT ( $, .STERADIAN. ) SOLID_ANGLE_UNIT ( ) );
#636 =( LENGTH_UNIT ( ) NAMED_UNIT ( * ) SI_UNIT ( .MILLI., .METRE. ) );
#637 = STYLED_ITEM ( 'NONE', ( #69 ), #72 ) ;
#638 = ORIENTED_EDGE ( 'NONE', *, *, #1118, .T. ) ;
#639 = AXIS2_PLACEMENT_3D ( 'NONE', #467, #255, #862 ) ;
#640 = MECHANICAL_DESIGN_GEOMETRIC_PRESENTATION_REPRESENTATION (  '', ( #1236 ), #258 ) ;
#641 = STYLED_ITEM ( 'NONE', ( #476 ), #539 ) ;
#642 = UNCERTAINTY_MEASURE_WITH_UNIT (LENGTH_MEASURE( 1.000000000000000082E-05 ), #516, 'distance_accuracy_value', 'NONE');
#643 = MECHANICAL_DESIGN_GEOMETRIC_PRESENTATION_REPRESENTATION (  '', ( #1116 ), #975 ) ;
#644 = CARTESIAN_POINT ( 'NONE',  ( 2.449293598294706414E-16, 2.000000000000000000, 2.000000000000000000 ) ) ;
#645 = VECTOR ( 'NONE', #604, 1000.000000000000000 ) ;
#646 = FILL_AREA_STYLE_COLOUR ( '', #234 ) ;
#647 = FACE_OUTER_BOUND ( 'NONE', #143, .T. ) ;
#648 = EDGE_LOOP ( 'NONE', ( #1008, #1021, #312, #430 ) ) ;
#649 = DIRECTION ( 'NONE',  ( 0.000000000000000000, 0.000000000000000000, 1.000000000000000000 ) ) ;
#650 = CARTESIAN_POINT ( 'NONE',  ( 11.50000000000000000, 1.699999999999999956, -0.5000000000000182077 ) ) ;
#651 = FACE_OUTER_BOUND ( 'NONE', #979, .T. ) ;
#652 = PRESENTATION_STYLE_ASSIGNMENT (( #1050 ) ) ;
#653 = VERTEX_POINT ( 'NONE', #584 ) ;
#654 = LINE ( 'NONE', #941, #94 ) ;
#655 = PRODUCT_RELATED_PRODUCT_CATEGORY ( 'part', '', ( #1163 ) ) ;
#656 = UNCERTAINTY_MEASURE_WITH_UNIT (LENGTH_MEASURE( 1.000000000000000082E-05 ), #235, 'distance_accuracy_value', 'NONE');
#657 = DIRECTION ( 'NONE',  ( -0.000000000000000000, 1.000000000000000000, -0.000000000000000000 ) ) ;
#658 = EDGE_CURVE ( 'NONE', #568, #730, #55, .T. ) ;
#659 = FACE_OUTER_BOUND ( 'NONE', #1154, .T. ) ;
#660 = SURFACE_SIDE_STYLE ('',( #262 ) ) ;
#661 = ORIENTED_EDGE ( 'NONE', *, *, #498, .F. ) ;
#662 =( NAMED_UNIT ( * ) PLANE_ANGLE_UNIT ( ) SI_UNIT ( $, .RADIAN. ) );
#663 = ADVANCED_FACE ( 'NONE', ( #104, #700 ), #1089, .F. ) ;
#664 = STYLED_ITEM ( 'NONE', ( #1178 ), #206 ) ;
#665 = DIRECTION ( 'NONE',  ( -0.000000000000000000, -1.000000000000000000, -0.000000000000000000 ) ) ;
#666 = VECTOR ( 'NONE', #81, 1000.000000000000000 ) ;
#667 = DIRECTION ( 'NONE',  ( 0.000000000000000000, 1.000000000000000000, 0.000000000000000000 ) ) ;
#668 = FILL_AREA_STYLE_COLOUR ( '', #866 ) ;
#669 = ORIENTED_EDGE ( 'NONE', *, *, #632, .T. ) ;
#670 =( NAMED_UNIT ( * ) PLANE_ANGLE_UNIT ( ) SI_UNIT ( $, .RADIAN. ) );
#671 = UNCERTAINTY_MEASURE_WITH_UNIT (LENGTH_MEASURE( 1.000000000000000082E-05 ), #961, 'distance_accuracy_value', 'NONE');
#672 = DIRECTION ( 'NONE',  ( 0.000000000000000000, 0.000000000000000000, -1.000000000000000000 ) ) ;
#673 = ORIENTED_EDGE ( 'NONE', *, *, #779, .F. ) ;
#674 =( LENGTH_UNIT ( ) NAMED_UNIT ( * ) SI_UNIT ( .MILLI., .METRE. ) );
#675 = SURFACE_STYLE_FILL_AREA ( #1062 ) ;
#676 = ADVANCED_FACE ( 'NONE', ( #826 ), #1202, .F. ) ;
#677 = ORIENTED_EDGE ( 'NONE', *, *, #435, .T. ) ;
#678 =( NAMED_UNIT ( * ) SI_UNIT ( $, .STERADIAN. ) SOLID_ANGLE_UNIT ( ) );
#679 = CIRCLE ( 'NONE', #833, 0.5000000000000007772 ) ;
#680 = ADVANCED_FACE ( 'NONE', ( #933 ), #625, .F. ) ;
#681 =( NAMED_UNIT ( * ) SI_UNIT ( $, .STERADIAN. ) SOLID_ANGLE_UNIT ( ) );
#682 = VECTOR ( 'NONE', #537, 1000.000000000000000 ) ;
#683 = MECHANICAL_DESIGN_GEOMETRIC_PRESENTATION_REPRESENTATION (  '', ( #1033 ), #486 ) ;
#684 = CIRCLE ( 'NONE', #1114, 0.5000000000000007772 ) ;
#685 = LINE ( 'NONE', #967, #936 ) ;
#686 =( GEOMETRIC_REPRESENTATION_CONTEXT ( 3 ) GLOBAL_UNCERTAINTY_ASSIGNED_CONTEXT ( ( #517 ) ) GLOBAL_UNIT_ASSIGNED_CONTEXT ( ( #608, #43, #829 ) ) REPRESENTATION_CONTEXT ( 'NONE', 'WORKASPACE' ) );
#687 = MECHANICAL_DESIGN_GEOMETRIC_PRESENTATION_REPRESENTATION (  '', ( #100 ), #707 ) ;
#688 = VERTEX_POINT ( 'NONE', #1218 ) ;
#689 = COLOUR_RGB ( '',0.2862745098039215508, 0.6627450980392156632, 0.3294117647058823484 ) ;
#690 = CARTESIAN_POINT ( 'NONE',  ( 11.50000000000000000, 0.000000000000000000, 0.4999999999999832911 ) ) ;
#691 =( NAMED_UNIT ( * ) SI_UNIT ( $, .STERADIAN. ) SOLID_ANGLE_UNIT ( ) );
#692 = SURFACE_STYLE_USAGE ( .BOTH. , #1059 ) ;
#693 = DIRECTION ( 'NONE',  ( 0.000000000000000000, 1.000000000000000000, 0.000000000000000000 ) ) ;
#694 = DIRECTION ( 'NONE',  ( -0.000000000000000000, -1.000000000000000000, -0.000000000000000000 ) ) ;
#695 = ORIENTED_EDGE ( 'NONE', *, *, #946, .F. ) ;
#696 = DIRECTION ( 'NONE',  ( 0.000000000000000000, -1.000000000000000000, 0.000000000000000000 ) ) ;
#697 = CYLINDRICAL_SURFACE ( 'NONE', #335, 0.5000000000000007772 ) ;
#698 = DIRECTION ( 'NONE',  ( 0.000000000000000000, 0.000000000000000000, -1.000000000000000000 ) ) ;
#699 = SURFACE_SIDE_STYLE ('',( #789 ) ) ;
#700 = FACE_OUTER_BOUND ( 'NONE', #367, .T. ) ;
#701 = APPLICATION_PROTOCOL_DEFINITION ( 'draft international standard', 'automotive_design', 1998, #840 ) ;
#702 = FACE_OUTER_BOUND ( 'NONE', #648, .T. ) ;
#703 = DIRECTION ( 'NONE',  ( 0.000000000000000000, -1.000000000000000000, 0.000000000000000000 ) ) ;
#704 = PRESENTATION_LAYER_ASSIGNMENT (  '', '', ( #1253 ) ) ;
#705 = PRESENTATION_LAYER_ASSIGNMENT (  '', '', ( #445 ) ) ;
#706 = SURFACE_STYLE_FILL_AREA ( #726 ) ;
#707 =( GEOMETRIC_REPRESENTATION_CONTEXT ( 3 ) GLOBAL_UNCERTAINTY_ASSIGNED_CONTEXT ( ( #671 ) ) GLOBAL_UNIT_ASSIGNED_CONTEXT ( ( #961, #948, #1159 ) ) REPRESENTATION_CONTEXT ( 'NONE', 'WORKASPACE' ) );
#708 = EDGE_LOOP ( 'NONE', ( #129, #1060 ) ) ;
#709 = MECHANICAL_DESIGN_GEOMETRIC_PRESENTATION_REPRESENTATION (  '', ( #619 ), #856 ) ;
#710 = FACE_OUTER_BOUND ( 'NONE', #333, .T. ) ;
#711 = UNCERTAINTY_MEASURE_WITH_UNIT (LENGTH_MEASURE( 1.000000000000000082E-05 ), #349, 'distance_accuracy_value', 'NONE');
#712 = FACE_BOUND ( 'NONE', #991, .T. ) ;
#713 = CARTESIAN_POINT ( 'NONE',  ( 0.000000000000000000, 2.000000000000000000, 0.000000000000000000 ) ) ;
#714 = VERTEX_POINT ( 'NONE', #328 ) ;
#715 = ADVANCED_FACE ( 'NONE', ( #718 ), #616, .F. ) ;
#716 = PRESENTATION_STYLE_ASSIGNMENT (( #222 ) ) ;
#717 = SURFACE_SIDE_STYLE ('',( #149 ) ) ;
#718 = FACE_OUTER_BOUND ( 'NONE', #861, .T. ) ;
#719 = EDGE_LOOP ( 'NONE', ( #202, #125, #886, #41 ) ) ;
#720 = EDGE_CURVE ( 'NONE', #1027, #95, #745, .T. ) ;
#721 = ORIENTED_EDGE ( 'NONE', *, *, #87, .T. ) ;
#722 = SURFACE_SIDE_STYLE ('',( #1186 ) ) ;
#723 = EDGE_CURVE ( 'NONE', #1190, #1165, #1096, .T. ) ;
#724 = CLOSED_SHELL ( 'NONE', ( #819, #1211, #72, #676, #526, #206, #622, #1080, #733, #415, #8, #848, #1246, #103, #221, #663, #680, #1087, #776, #78, #264, #539, #362, #98, #825, #715 ) ) ;
#725 = SURFACE_STYLE_FILL_AREA ( #152 ) ;
#726 = FILL_AREA_STYLE ('',( #1185 ) ) ;
#727 = CIRCLE ( 'NONE', #850, 2.000000000000000000 ) ;
#728 = VECTOR ( 'NONE', #1222, 1000.000000000000000 ) ;
#729 = COLOUR_RGB ( '',0.2862745098039215508, 0.6627450980392156632, 0.3294117647058823484 ) ;
#730 = VERTEX_POINT ( 'NONE', #650 ) ;
#731 = CARTESIAN_POINT ( 'NONE',  ( 0.000000000000000000, 3.000000000000000000, 2.000000000000000000 ) ) ;
#732 = DIRECTION ( 'NONE',  ( 0.000000000000000000, 0.000000000000000000, -1.000000000000000000 ) ) ;
#733 = ADVANCED_FACE ( 'NONE', ( #62 ), #68, .T. ) ;
#734 = ORIENTED_EDGE ( 'NONE', *, *, #1073, .F. ) ;
#735 = LINE ( 'NONE', #1125, #134 ) ;
#736 = CARTESIAN_POINT ( 'NONE',  ( 9.000000000000001776, 1.699999999999999956, -3.491481338843133355E-14 ) ) ;
#737 = ORIENTED_EDGE ( 'NONE', *, *, #435, .F. ) ;
#738 = CARTESIAN_POINT ( 'NONE',  ( 13.99500224294676620, 0.000000000000000000, 0.000000000000000000 ) ) ;
#739 = PLANE ( 'NONE',  #92 ) ;
#740 = MECHANICAL_DESIGN_GEOMETRIC_PRESENTATION_REPRESENTATION (  '', ( #637 ), #1252 ) ;
#741 = ORIENTED_EDGE ( 'NONE', *, *, #800, .F. ) ;
#742 = AXIS2_PLACEMENT_3D ( 'NONE', #27, #610, #1111 ) ;
#743 =( GEOMETRIC_REPRESENTATION_CONTEXT ( 3 ) GLOBAL_UNCERTAINTY_ASSIGNED_CONTEXT ( ( #1142 ) ) GLOBAL_UNIT_ASSIGNED_CONTEXT ( ( #674, #106, #678 ) ) REPRESENTATION_CONTEXT ( 'NONE', 'WORKASPACE' ) );
#744 = DIRECTION ( 'NONE',  ( 0.000000000000000000, 1.000000000000000000, 0.000000000000000000 ) ) ;
#745 = CIRCLE ( 'NONE', #524, 2.000000000000000000 ) ;
#746 = SURFACE_STYLE_USAGE ( .BOTH. , #562 ) ;
#747 = PRESENTATION_STYLE_ASSIGNMENT (( #571 ) ) ;
#748 = FACE_OUTER_BOUND ( 'NONE', #1182, .T. ) ;
#749 = EDGE_LOOP ( 'NONE', ( #528, #513 ) ) ;
#750 = EDGE_CURVE ( 'NONE', #434, #1097, #872, .T. ) ;
#751 = CARTESIAN_POINT ( 'NONE',  ( 6.500000000000000888, 0.000000000000000000, -5.237222008264700664E-14 ) ) ;
#752 = DIRECTION ( 'NONE',  ( 0.000000000000000000, 0.000000000000000000, -1.000000000000000000 ) ) ;
#753 = DIRECTION ( 'NONE',  ( 0.000000000000000000, 0.000000000000000000, 1.000000000000000000 ) ) ;
#754 = FILL_AREA_STYLE ('',( #1244 ) ) ;
#755 = PRESENTATION_STYLE_ASSIGNMENT (( #558 ) ) ;
#756 = EDGE_CURVE ( 'NONE', #305, #653, #772, .T. ) ;
#757 = ORIENTED_EDGE ( 'NONE', *, *, #548, .T. ) ;
#758 = DIRECTION ( 'NONE',  ( 0.000000000000000000, 0.000000000000000000, -1.000000000000000000 ) ) ;
#759 = UNCERTAINTY_MEASURE_WITH_UNIT (LENGTH_MEASURE( 1.000000000000000082E-05 ), #636, 'distance_accuracy_value', 'NONE');
#760 = DIRECTION ( 'NONE',  ( -0.000000000000000000, -1.000000000000000000, -0.000000000000000000 ) ) ;
#761 = CARTESIAN_POINT ( 'NONE',  ( 14.00000000000000000, 1.699999999999999956, 0.000000000000000000 ) ) ;
#762 = DIRECTION ( 'NONE',  ( 0.000000000000000000, -0.000000000000000000, 1.000000000000000000 ) ) ;
#763 = EDGE_LOOP ( 'NONE', ( #737, #935 ) ) ;
#764 = AXIS2_PLACEMENT_3D ( 'NONE', #814, #24, #413 ) ;
#765 = PRESENTATION_LAYER_ASSIGNMENT (  '', '', ( #1051 ) ) ;
#766 = DIRECTION ( 'NONE',  ( -0.000000000000000000, -1.000000000000000000, -0.000000000000000000 ) ) ;
#767 = AXIS2_PLACEMENT_3D ( 'NONE', #229, #1022, #427 ) ;
#768 = FILL_AREA_STYLE ('',( #1042 ) ) ;
#769 = EDGE_CURVE ( 'NONE', #95, #1027, #566, .T. ) ;
#770 = COLOUR_RGB ( '',0.2862745098039215508, 0.6627450980392156632, 0.3294117647058823484 ) ;
#771 =( NAMED_UNIT ( * ) SI_UNIT ( $, .STERADIAN. ) SOLID_ANGLE_UNIT ( ) );
#772 = CIRCLE ( 'NONE', #321, 2.000000000000000000 ) ;
#773 = VERTEX_POINT ( 'NONE', #272 ) ;
#774 = DIRECTION ( 'NONE',  ( 0.000000000000000000, 0.000000000000000000, 1.000000000000000000 ) ) ;
#775 = CARTESIAN_POINT ( 'NONE',  ( 9.000000000000001776, 1.699999999999999956, 0.4999999999999658606 ) ) ;
#776 = ADVANCED_FACE ( 'NONE', ( #659 ), #1048, .T. ) ;
#777 = LINE ( 'NONE', #1067, #284 ) ;
#778 = VERTEX_POINT ( 'NONE', #408 ) ;
#779 = EDGE_CURVE ( 'NONE', #409, #902, #685, .T. ) ;
#780 = LINE ( 'NONE', #117, #1053 ) ;
#781 = LINE ( 'NONE', #1167, #93 ) ;
#782 = PRESENTATION_STYLE_ASSIGNMENT (( #507 ) ) ;
#783 = SURFACE_SIDE_STYLE ('',( #213 ) ) ;
#784 = ORIENTED_EDGE ( 'NONE', *, *, #887, .F. ) ;
#785 = CYLINDRICAL_SURFACE ( 'NONE', #582, 3.000000000000000444 ) ;
#786 = DIRECTION ( 'NONE',  ( -0.000000000000000000, -1.000000000000000000, -0.000000000000000000 ) ) ;
#787 = AXIS2_PLACEMENT_3D ( 'NONE', #613, #628, #145 ) ;
#788 = CIRCLE ( 'NONE', #237, 3.000000000000000444 ) ;
#789 = SURFACE_STYLE_FILL_AREA ( #22 ) ;
#790 = VECTOR ( 'NONE', #228, 1000.000000000000000 ) ;
#791 = PRESENTATION_LAYER_ASSIGNMENT (  '', '', ( #73 ) ) ;
#792 = CARTESIAN_POINT ( 'NONE',  ( 0.2111602549687421615, 1.699999999999999956, 2.985062745917859139 ) ) ;
#793 =( GEOMETRIC_REPRESENTATION_CONTEXT ( 3 ) GLOBAL_UNCERTAINTY_ASSIGNED_CONTEXT ( ( #920 ) ) GLOBAL_UNIT_ASSIGNED_CONTEXT ( ( #266, #858, #771 ) ) REPRESENTATION_CONTEXT ( 'NONE', 'WORKASPACE' ) );
#794 = VERTEX_POINT ( 'NONE', #1188 ) ;
#795 = CARTESIAN_POINT ( 'NONE',  ( 4.000000000000000000, 0.000000000000000000, 0.4999999999999309441 ) ) ;
#796 = DIRECTION ( 'NONE',  ( 0.000000000000000000, -1.000000000000000000, 0.000000000000000000 ) ) ;
#797 = CYLINDRICAL_SURFACE ( 'NONE', #896, 0.4999999999999989453 ) ;
#798 = CARTESIAN_POINT ( 'NONE',  ( 0.000000000000000000, 2.000000000000000000, 0.000000000000000000 ) ) ;
#799 = EDGE_LOOP ( 'NONE', ( #195, #1001, #263, #1052 ) ) ;
#800 = EDGE_CURVE ( 'NONE', #653, #305, #446, .T. ) ;
#801 = SHAPE_DEFINITION_REPRESENTATION ( #984, #168 ) ;
#802 = LINE ( 'NONE', #80, #993 ) ;
#803 =( LENGTH_UNIT ( ) NAMED_UNIT ( * ) SI_UNIT ( .MILLI., .METRE. ) );
#804 = CARTESIAN_POINT ( 'NONE',  ( 4.000000000000000000, 1.699999999999999956, -6.982962677686266711E-14 ) ) ;
#805 = CARTESIAN_POINT ( 'NONE',  ( 14.00000000000000000, 1.699999999999999956, 0.000000000000000000 ) ) ;
#806 = EDGE_LOOP ( 'NONE', ( #509, #881, #1210, #542 ) ) ;
#807 = CARTESIAN_POINT ( 'NONE',  ( 0.000000000000000000, 3.000000000000000000, 0.000000000000000000 ) ) ;
#808 = FACE_BOUND ( 'NONE', #535, .T. ) ;
#809 =( GEOMETRIC_REPRESENTATION_CONTEXT ( 3 ) GLOBAL_UNCERTAINTY_ASSIGNED_CONTEXT ( ( #642 ) ) GLOBAL_UNIT_ASSIGNED_CONTEXT ( ( #516, #670, #166 ) ) REPRESENTATION_CONTEXT ( 'NONE', 'WORKASPACE' ) );
#810 = STYLED_ITEM ( 'NONE', ( #818 ), #848 ) ;
#811 = CIRCLE ( 'NONE', #157, 0.5000000000000007772 ) ;
#812 =( NAMED_UNIT ( * ) PLANE_ANGLE_UNIT ( ) SI_UNIT ( $, .RADIAN. ) );
#813 =( GEOMETRIC_REPRESENTATION_CONTEXT ( 3 ) GLOBAL_UNCERTAINTY_ASSIGNED_CONTEXT ( ( #150 ) ) GLOBAL_UNIT_ASSIGNED_CONTEXT ( ( #1152, #386, #1237 ) ) REPRESENTATION_CONTEXT ( 'NONE', 'WORKASPACE' ) );
#814 = CARTESIAN_POINT ( 'NONE',  ( 0.000000000000000000, 5.000000000000000000, 0.000000000000000000 ) ) ;
#815 = COLOUR_RGB ( '',0.2862745098039215508, 0.6627450980392156632, 0.3294117647058823484 ) ;
#816 = AXIS2_PLACEMENT_3D ( 'NONE', #629, #32, #926 ) ;
#817 = SURFACE_STYLE_USAGE ( .BOTH. , #717 ) ;
#818 = PRESENTATION_STYLE_ASSIGNMENT (( #532 ) ) ;
#819 = ADVANCED_FACE ( 'NONE', ( #315 ), #797, .F. ) ;
#820 = ORIENTED_EDGE ( 'NONE', *, *, #490, .F. ) ;
#821 = ORIENTED_EDGE ( 'NONE', *, *, #393, .F. ) ;
#822 = EDGE_CURVE ( 'NONE', #714, #611, #777, .T. ) ;
#823 =( NAMED_UNIT ( * ) SI_UNIT ( $, .STERADIAN. ) SOLID_ANGLE_UNIT ( ) );
#824 = CARTESIAN_POINT ( 'NONE',  ( 3.673940397442060361E-16, 5.000000000000000000, 3.000000000000000444 ) ) ;
#825 = ADVANCED_FACE ( 'NONE', ( #989 ), #482, .F. ) ;
#826 = FACE_OUTER_BOUND ( 'NONE', #838, .T. ) ;
#827 = ORIENTED_EDGE ( 'NONE', *, *, #1249, .F. ) ;
#828 = EDGE_LOOP ( 'NONE', ( #964, #863, #601, #677 ) ) ;
#829 =( NAMED_UNIT ( * ) SI_UNIT ( $, .STERADIAN. ) SOLID_ANGLE_UNIT ( ) );
#830 = UNCERTAINTY_MEASURE_WITH_UNIT (LENGTH_MEASURE( 1.000000000000000082E-05 ), #1018, 'distance_accuracy_value', 'NONE');
#831 =( LENGTH_UNIT ( ) NAMED_UNIT ( * ) SI_UNIT ( .MILLI., .METRE. ) );
#832 = DIRECTION ( 'NONE',  ( 0.000000000000000000, -0.000000000000000000, 1.000000000000000000 ) ) ;
#833 = AXIS2_PLACEMENT_3D ( 'NONE', #736, #1121, #246 ) ;
#834 = ORIENTED_EDGE ( 'NONE', *, *, #313, .T. ) ;
#835 = CIRCLE ( 'NONE', #995, 1.250000000000000000 ) ;
#836 = DIRECTION ( 'NONE',  ( 0.000000000000000000, 1.000000000000000000, 0.000000000000000000 ) ) ;
#837 = FILL_AREA_STYLE_COLOUR ( '', #212 ) ;
#838 = EDGE_LOOP ( 'NONE', ( #465, #88, #180, #124 ) ) ;
#839 = CARTESIAN_POINT ( 'NONE',  ( 6.500000000000000888, 1.699999999999999956, 0.4999999999999483746 ) ) ;
#840 = APPLICATION_CONTEXT ( 'automotive_design' ) ;
#841 =( NAMED_UNIT ( * ) PLANE_ANGLE_UNIT ( ) SI_UNIT ( $, .RADIAN. ) );
#842 =( NAMED_UNIT ( * ) PLANE_ANGLE_UNIT ( ) SI_UNIT ( $, .RADIAN. ) );
#843 = ORIENTED_EDGE ( 'NONE', *, *, #230, .F. ) ;
#844 = FILL_AREA_STYLE_COLOUR ( '', #729 ) ;
#845 = LINE ( 'NONE', #556, #401 ) ;
#846 = PRODUCT_DEFINITION ( 'General', '', #257, #238 ) ;
#847 = PRESENTATION_STYLE_ASSIGNMENT (( #552 ) ) ;
#848 = ADVANCED_FACE ( 'NONE', ( #624, #151, #712, #615, #808, #931, #1106 ), #240, .F. ) ;
#849 = CARTESIAN_POINT ( 'NONE',  ( 4.000000000000000000, 1.699999999999999956, -6.982962677686266711E-14 ) ) ;
#850 = AXIS2_PLACEMENT_3D ( 'NONE', #929, #331, #344 ) ;
#851 = ORIENTED_EDGE ( 'NONE', *, *, #588, .F. ) ;
#852 = AXIS2_PLACEMENT_3D ( 'NONE', #738, #250, #1057 ) ;
#853 = VECTOR ( 'NONE', #21, 1000.000000000000000 ) ;
#854 = COLOUR_RGB ( '',0.2862745098039215508, 0.6627450980392156632, 0.3294117647058823484 ) ;
#855 = DIRECTION ( 'NONE',  ( -0.000000000000000000, -1.000000000000000000, -0.000000000000000000 ) ) ;
#856 =( GEOMETRIC_REPRESENTATION_CONTEXT ( 3 ) GLOBAL_UNCERTAINTY_ASSIGNED_CONTEXT ( ( #531 ) ) GLOBAL_UNIT_ASSIGNED_CONTEXT ( ( #156, #841, #691 ) ) REPRESENTATION_CONTEXT ( 'NONE', 'WORKASPACE' ) );
#857 = EDGE_CURVE ( 'NONE', #773, #403, #142, .T. ) ;
#858 =( NAMED_UNIT ( * ) PLANE_ANGLE_UNIT ( ) SI_UNIT ( $, .RADIAN. ) );
#859 =( NAMED_UNIT ( * ) SI_UNIT ( $, .STERADIAN. ) SOLID_ANGLE_UNIT ( ) );
#860 = FILL_AREA_STYLE_COLOUR ( '', #1194 ) ;
#861 = EDGE_LOOP ( 'NONE', ( #827, #1135, #918, #160 ) ) ;
#862 = DIRECTION ( 'NONE',  ( 0.000000000000000000, 0.000000000000000000, -1.000000000000000000 ) ) ;
#863 = ORIENTED_EDGE ( 'NONE', *, *, #132, .F. ) ;
#864 =( LENGTH_UNIT ( ) NAMED_UNIT ( * ) SI_UNIT ( .MILLI., .METRE. ) );
#865 = ORIENTED_EDGE ( 'NONE', *, *, #188, .F. ) ;
#866 = COLOUR_RGB ( '',0.2862745098039215508, 0.6627450980392156632, 0.3294117647058823484 ) ;
#867 = CYLINDRICAL_SURFACE ( 'NONE', #911, 0.5000000000000007772 ) ;
#868 = STYLED_ITEM ( 'NONE', ( #1 ), #415 ) ;
#869 = CARTESIAN_POINT ( 'NONE',  ( 14.00000000000000000, 0.000000000000000000, 0.000000000000000000 ) ) ;
#870 = AXIS2_PLACEMENT_3D ( 'NONE', #530, #623, #1099 ) ;
#871 = PRESENTATION_LAYER_ASSIGNMENT (  '', '', ( #522 ) ) ;
#872 = CIRCLE ( 'NONE', #1240, 0.5000000000000007772 ) ;
#873 =( NAMED_UNIT ( * ) PLANE_ANGLE_UNIT ( ) SI_UNIT ( $, .RADIAN. ) );
#874 = VECTOR ( 'NONE', #345, 1000.000000000000000 ) ;
#875 = LINE ( 'NONE', #184, #666 ) ;
#876 = ORIENTED_EDGE ( 'NONE', *, *, #1123, .F. ) ;
#877 = DIRECTION ( 'NONE',  ( 0.000000000000000000, 0.000000000000000000, -1.000000000000000000 ) ) ;
#878 = CARTESIAN_POINT ( 'NONE',  ( 0.000000000000000000, 0.000000000000000000, 0.000000000000000000 ) ) ;
#879 = FILL_AREA_STYLE_COLOUR ( '', #198 ) ;
#880 = FILL_AREA_STYLE_COLOUR ( '', #770 ) ;
#881 = ORIENTED_EDGE ( 'NONE', *, *, #1249, .T. ) ;
#882 = SURFACE_SIDE_STYLE ('',( #493 ) ) ;
#883 = CARTESIAN_POINT ( 'NONE',  ( 0.4223204503071526505, 1.700000000000000178, 2.970125491835718279 ) ) ;
#884 = DIRECTION ( 'NONE',  ( -0.9975073503021875121, 0.000000000000000000, -0.07056263949930398349 ) ) ;
#885 = PRESENTATION_STYLE_ASSIGNMENT (( #201 ) ) ;
#886 = ORIENTED_EDGE ( 'NONE', *, *, #533, .T. ) ;
#887 = EDGE_CURVE ( 'NONE', #387, #208, #16, .T. ) ;
#888 = DIRECTION ( 'NONE',  ( -0.000000000000000000, 1.000000000000000000, -0.000000000000000000 ) ) ;
#889 =( LENGTH_UNIT ( ) NAMED_UNIT ( * ) SI_UNIT ( .MILLI., .METRE. ) );
#890 = DIRECTION ( 'NONE',  ( 0.000000000000000000, 0.000000000000000000, -1.000000000000000000 ) ) ;
#891 = AXIS2_PLACEMENT_3D ( 'NONE', #1086, #209, #774 ) ;
#892 =( NAMED_UNIT ( * ) SI_UNIT ( $, .STERADIAN. ) SOLID_ANGLE_UNIT ( ) );
#893 =( GEOMETRIC_REPRESENTATION_CONTEXT ( 3 ) GLOBAL_UNCERTAINTY_ASSIGNED_CONTEXT ( ( #275 ) ) GLOBAL_UNIT_ASSIGNED_CONTEXT ( ( #40, #812, #635 ) ) REPRESENTATION_CONTEXT ( 'NONE', 'WORKASPACE' ) );
#894 = EDGE_CURVE ( 'NONE', #1254, #208, #429, .T. ) ;
#895 = DIRECTION ( 'NONE',  ( -0.000000000000000000, -1.000000000000000000, -0.000000000000000000 ) ) ;
#896 = AXIS2_PLACEMENT_3D ( 'NONE', #980, #122, #12 ) ;
#897 = FACE_OUTER_BOUND ( 'NONE', #1225, .T. ) ;
#898 = CARTESIAN_POINT ( 'NONE',  ( 1.530808498934191324E-16, -0.001000000000000132727, -1.250000000000000000 ) ) ;
#899 = CARTESIAN_POINT ( 'NONE',  ( 0.000000000000000000, 5.000000000000000000, 2.000000000000000000 ) ) ;
#900 = CARTESIAN_POINT ( 'NONE',  ( 14.00000000000000000, 1.699999999999999956, 0.000000000000000000 ) ) ;
#901 = CARTESIAN_POINT ( 'NONE',  ( 14.13648017687462755, 1.699999999999999956, 2.000000000000000000 ) ) ;
#902 = VERTEX_POINT ( 'NONE', #327 ) ;
#903 =( NAMED_UNIT ( * ) SI_UNIT ( $, .STERADIAN. ) SOLID_ANGLE_UNIT ( ) );
#904 =( NAMED_UNIT ( * ) SI_UNIT ( $, .STERADIAN. ) SOLID_ANGLE_UNIT ( ) );
#905 = EDGE_LOOP ( 'NONE', ( #638, #1204 ) ) ;
#906 = EDGE_CURVE ( 'NONE', #433, #1250, #525, .T. ) ;
#907 = CARTESIAN_POINT ( 'NONE',  ( 0.000000000000000000, -0.001000000000000132727, 0.000000000000000000 ) ) ;
#908 = STYLED_ITEM ( 'NONE', ( #1043 ), #78 ) ;
#909 = DIRECTION ( 'NONE',  ( 0.000000000000000000, 0.000000000000000000, -1.000000000000000000 ) ) ;
#910 = AXIS2_PLACEMENT_3D ( 'NONE', #900, #1193, #280 ) ;
#911 = AXIS2_PLACEMENT_3D ( 'NONE', #1251, #766, #161 ) ;
#912 = EDGE_CURVE ( 'NONE', #305, #95, #1214, .T. ) ;
#913 = SURFACE_SIDE_STYLE ('',( #54 ) ) ;
#914 = COLOUR_RGB ( '',0.2862745098039215508, 0.6627450980392156632, 0.3294117647058823484 ) ;
#915 =( GEOMETRIC_REPRESENTATION_CONTEXT ( 3 ) GLOBAL_UNCERTAINTY_ASSIGNED_CONTEXT ( ( #376 ) ) GLOBAL_UNIT_ASSIGNED_CONTEXT ( ( #419, #1025, #225 ) ) REPRESENTATION_CONTEXT ( 'NONE', 'WORKASPACE' ) );
#916 = ORIENTED_EDGE ( 'NONE', *, *, #188, .T. ) ;
#917 = PRESENTATION_LAYER_ASSIGNMENT (  '', '', ( #121 ) ) ;
#918 = ORIENTED_EDGE ( 'NONE', *, *, #981, .T. ) ;
#919 = CIRCLE ( 'NONE', #639, 0.5000000000000007772 ) ;
#920 = UNCERTAINTY_MEASURE_WITH_UNIT (LENGTH_MEASURE( 1.000000000000000082E-05 ), #266, 'distance_accuracy_value', 'NONE');
#921 =( NAMED_UNIT ( * ) PLANE_ANGLE_UNIT ( ) SI_UNIT ( $, .RADIAN. ) );
#922 = SURFACE_SIDE_STYLE ('',( #706 ) ) ;
#923 = VERTEX_POINT ( 'NONE', #824 ) ;
#924 = CARTESIAN_POINT ( 'NONE',  ( 11.50000000000000000, 0.000000000000000000, -0.5000000000000182077 ) ) ;
#925 = FACE_BOUND ( 'NONE', #57, .T. ) ;
#926 = DIRECTION ( 'NONE',  ( 0.000000000000000000, 0.000000000000000000, -1.000000000000000000 ) ) ;
#927 = CARTESIAN_POINT ( 'NONE',  ( 0.2111602549687421615, 1.699999999999999956, 2.985062745917859139 ) ) ;
#928 = ORIENTED_EDGE ( 'NONE', *, *, #230, .T. ) ;
#929 = CARTESIAN_POINT ( 'NONE',  ( 0.000000000000000000, 3.000000000000000000, 0.000000000000000000 ) ) ;
#930 = UNCERTAINTY_MEASURE_WITH_UNIT (LENGTH_MEASURE( 1.000000000000000082E-05 ), #364, 'distance_accuracy_value', 'NONE');
#931 = FACE_BOUND ( 'NONE', #749, .T. ) ;
#932 = AXIS2_PLACEMENT_3D ( 'NONE', #557, #949, #1145 ) ;
#933 = FACE_OUTER_BOUND ( 'NONE', #799, .T. ) ;
#934 = COLOUR_RGB ( '',0.2862745098039215508, 0.6627450980392156632, 0.3294117647058823484 ) ;
#935 = ORIENTED_EDGE ( 'NONE', *, *, #906, .F. ) ;
#936 = VECTOR ( 'NONE', #703, 1000.000000000000000 ) ;
#937 = PLANE ( 'NONE',  #254 ) ;
#938 =( NAMED_UNIT ( * ) SI_UNIT ( $, .STERADIAN. ) SOLID_ANGLE_UNIT ( ) );
#939 = CYLINDRICAL_SURFACE ( 'NONE', #932, 0.5000000000000007772 ) ;
#940 = VERTEX_POINT ( 'NONE', #731 ) ;
#941 = CARTESIAN_POINT ( 'NONE',  ( 2.449293598294706414E-16, 3.000000000000000000, -2.000000000000000000 ) ) ;
#942 = SURFACE_STYLE_FILL_AREA ( #768 ) ;
#943 = DIRECTION ( 'NONE',  ( -0.000000000000000000, -1.000000000000000000, -0.000000000000000000 ) ) ;
#944 = ORIENTED_EDGE ( 'NONE', *, *, #1118, .F. ) ;
#945 = DIRECTION ( 'NONE',  ( 0.000000000000000000, -1.000000000000000000, 0.000000000000000000 ) ) ;
#946 = EDGE_CURVE ( 'NONE', #1098, #631, #244, .T. ) ;
#947 = DIRECTION ( 'NONE',  ( 0.000000000000000000, -1.000000000000000000, -0.000000000000000000 ) ) ;
#948 =( NAMED_UNIT ( * ) PLANE_ANGLE_UNIT ( ) SI_UNIT ( $, .RADIAN. ) );
#949 = DIRECTION ( 'NONE',  ( -0.000000000000000000, -1.000000000000000000, -0.000000000000000000 ) ) ;
#950 = EDGE_CURVE ( 'NONE', #631, #573, #735, .T. ) ;
#951 = CIRCLE ( 'NONE', #116, 0.5000000000000007772 ) ;
#952 = VERTEX_POINT ( 'NONE', #957 ) ;
#953 = AXIS2_PLACEMENT_3D ( 'NONE', #1143, #657, #649 ) ;
#954 = CIRCLE ( 'NONE', #891, 3.000000000000000444 ) ;
#955 = SURFACE_SIDE_STYLE ('',( #560 ) ) ;
#956 = AXIS2_PLACEMENT_3D ( 'NONE', #177, #259, #462 ) ;
#957 = CARTESIAN_POINT ( 'NONE',  ( 1.530808498934191324E-16, 2.000000000000000000, -1.250000000000000000 ) ) ;
#958 = PLANE ( 'NONE',  #1153 ) ;
#959 = DIRECTION ( 'NONE',  ( 0.000000000000000000, 0.000000000000000000, -1.000000000000000000 ) ) ;
#960 = VERTEX_POINT ( 'NONE', #175 ) ;
#961 =( LENGTH_UNIT ( ) NAMED_UNIT ( * ) SI_UNIT ( .MILLI., .METRE. ) );
#962 = SURFACE_STYLE_USAGE ( .BOTH. , #86 ) ;
#963 = CYLINDRICAL_SURFACE ( 'NONE', #1156, 0.5000000000000007772 ) ;
#964 = ORIENTED_EDGE ( 'NONE', *, *, #174, .F. ) ;
#965 = DIRECTION ( 'NONE',  ( 0.000000000000000000, -1.000000000000000000, 0.000000000000000000 ) ) ;
#966 = DIRECTION ( 'NONE',  ( 0.000000000000000000, 1.000000000000000000, 0.000000000000000000 ) ) ;
#967 = CARTESIAN_POINT ( 'NONE',  ( 14.13648017687462755, 1.699999999999999956, -2.000000000000000000 ) ) ;
#968 = ORIENTED_EDGE ( 'NONE', *, *, #912, .T. ) ;
#969 = CIRCLE ( 'NONE', #1070, 0.4999999999999989453 ) ;
#970 = CYLINDRICAL_SURFACE ( 'NONE', #282, 0.5000000000000007772 ) ;
#971 = AXIS2_PLACEMENT_3D ( 'NONE', #986, #796, #7 ) ;
#972 = CIRCLE ( 'NONE', #461, 1.250000000000000000 ) ;
#973 = DIRECTION ( 'NONE',  ( 0.000000000000000000, -1.000000000000000000, 0.000000000000000000 ) ) ;
#974 = MECHANICAL_DESIGN_GEOMETRIC_PRESENTATION_REPRESENTATION (  '', ( #1075 ), #686 ) ;
#975 =( GEOMETRIC_REPRESENTATION_CONTEXT ( 3 ) GLOBAL_UNCERTAINTY_ASSIGNED_CONTEXT ( ( #1207 ) ) GLOBAL_UNIT_ASSIGNED_CONTEXT ( ( #385, #1180, #91 ) ) REPRESENTATION_CONTEXT ( 'NONE', 'WORKASPACE' ) );
#976 = SURFACE_STYLE_USAGE ( .BOTH. , #489 ) ;
#977 = COLOUR_RGB ( '',0.2862745098039215508, 0.6627450980392156632, 0.3294117647058823484 ) ;
#978 = DIRECTION ( 'NONE',  ( 0.000000000000000000, -1.000000000000000000, 0.000000000000000000 ) ) ;
#979 = EDGE_LOOP ( 'NONE', ( #14, #851, #585, #5 ) ) ;
#980 = CARTESIAN_POINT ( 'NONE',  ( 14.00000000000000000, 1.699999999999999956, 0.000000000000000000 ) ) ;
#981 = EDGE_CURVE ( 'NONE', #1079, #960, #276, .T. ) ;
#982 = DIRECTION ( 'NONE',  ( 0.000000000000000000, 0.000000000000000000, 1.000000000000000000 ) ) ;
#983 = ORIENTED_EDGE ( 'NONE', *, *, #269, .F. ) ;
#984 = PRODUCT_DEFINITION_SHAPE ( 'NONE', 'NONE',  #846 ) ;
#985 = CARTESIAN_POINT ( 'NONE',  ( 0.000000000000000000, 3.000000000000000000, 2.000000000000000000 ) ) ;
#986 = CARTESIAN_POINT ( 'NONE',  ( 4.000000000000000000, 0.000000000000000000, -6.982962677686266711E-14 ) ) ;
#987 = EDGE_CURVE ( 'NONE', #653, #1027, #167, .T. ) ;
#988 = FILL_AREA_STYLE_COLOUR ( '', #1172 ) ;
#989 = FACE_OUTER_BOUND ( 'NONE', #828, .T. ) ;
#990 = DIRECTION ( 'NONE',  ( 0.000000000000000000, -1.000000000000000000, -0.000000000000000000 ) ) ;
#991 = EDGE_LOOP ( 'NONE', ( #216, #865 ) ) ;
#992 = DIRECTION ( 'NONE',  ( -0.000000000000000000, -1.000000000000000000, -0.000000000000000000 ) ) ;
#993 = VECTOR ( 'NONE', #786, 1000.000000000000000 ) ;
#994 = CIRCLE ( 'NONE', #378, 0.5000000000000007772 ) ;
#995 = AXIS2_PLACEMENT_3D ( 'NONE', #207, #193, #982 ) ;
#996 = CARTESIAN_POINT ( 'NONE',  ( 0.4223204503071447680, 0.000000000000000000, 2.970125491835719611 ) ) ;
#997 = SURFACE_STYLE_USAGE ( .BOTH. , #922 ) ;
#998 = EDGE_LOOP ( 'NONE', ( #60, #74 ) ) ;
#999 = DIRECTION ( 'NONE',  ( 0.9975073503021875121, 0.000000000000000000, -0.07056263949930396961 ) ) ;
#1000 = CARTESIAN_POINT ( 'NONE',  ( 1.530808498934191324E-16, 3.000000000000000000, -1.250000000000000000 ) ) ;
#1001 = ORIENTED_EDGE ( 'NONE', *, *, #1168, .T. ) ;
#1002 = EDGE_CURVE ( 'NONE', #923, #448, #455, .T. ) ;
#1003 = EDGE_LOOP ( 'NONE', ( #1245, #673, #42, #25 ) ) ;
#1004 = CARTESIAN_POINT ( 'NONE',  ( 9.000000000000001776, 1.699999999999999956, -0.5000000000000356382 ) ) ;
#1005 = UNCERTAINTY_MEASURE_WITH_UNIT (LENGTH_MEASURE( 1.000000000000000082E-05 ), #1078, 'distance_accuracy_value', 'NONE');
#1006 =( NAMED_UNIT ( * ) SI_UNIT ( $, .STERADIAN. ) SOLID_ANGLE_UNIT ( ) );
#1007 = VERTEX_POINT ( 'NONE', #1128 ) ;
#1008 = ORIENTED_EDGE ( 'NONE', *, *, #211, .T. ) ;
#1009 = DIRECTION ( 'NONE',  ( 1.000000000000000000, 0.000000000000000000, 0.000000000000000000 ) ) ;
#1010 = LINE ( 'NONE', #839, #682 ) ;
#1011 = CARTESIAN_POINT ( 'NONE',  ( 11.50000000000000000, 0.000000000000000000, -1.745740669421566678E-14 ) ) ;
#1012 = MECHANICAL_DESIGN_GEOMETRIC_PRESENTATION_REPRESENTATION (  '', ( #296 ), #1112 ) ;
#1013 = MECHANICAL_DESIGN_GEOMETRIC_PRESENTATION_REPRESENTATION (  '', ( #1132 ), #521 ) ;
#1014 = FILL_AREA_STYLE_COLOUR ( '', #1054 ) ;
#1015 = CIRCLE ( 'NONE', #1216, 0.4999999999999989453 ) ;
#1016 = EDGE_LOOP ( 'NONE', ( #330, #843, #233, #504 ) ) ;
#1017 = ORIENTED_EDGE ( 'NONE', *, *, #306, .T. ) ;
#1018 =( LENGTH_UNIT ( ) NAMED_UNIT ( * ) SI_UNIT ( .MILLI., .METRE. ) );
#1019 = DIRECTION ( 'NONE',  ( 0.000000000000000000, -1.000000000000000000, 0.000000000000000000 ) ) ;
#1020 = EDGE_CURVE ( 'NONE', #361, #794, #919, .T. ) ;
#1021 = ORIENTED_EDGE ( 'NONE', *, *, #495, .T. ) ;
#1022 = DIRECTION ( 'NONE',  ( -0.000000000000000000, -1.000000000000000000, -0.000000000000000000 ) ) ;
#1023 = DIRECTION ( 'NONE',  ( 0.000000000000000000, 0.000000000000000000, -1.000000000000000000 ) ) ;
#1024 = EDGE_CURVE ( 'NONE', #902, #573, #359, .T. ) ;
#1025 =( NAMED_UNIT ( * ) PLANE_ANGLE_UNIT ( ) SI_UNIT ( $, .RADIAN. ) );
#1026 = CARTESIAN_POINT ( 'NONE',  ( 0.000000000000000000, 0.000000000000000000, -2.000000000000000000 ) ) ;
#1027 = VERTEX_POINT ( 'NONE', #449 ) ;
#1028 =( NAMED_UNIT ( * ) SI_UNIT ( $, .STERADIAN. ) SOLID_ANGLE_UNIT ( ) );
#1029 = UNCERTAINTY_MEASURE_WITH_UNIT (LENGTH_MEASURE( 1.000000000000000082E-05 ), #1200, 'distance_accuracy_value', 'NONE');
#1030 = VECTOR ( 'NONE', #947, 1000.000000000000000 ) ;
#1031 = EDGE_LOOP ( 'NONE', ( #373, #414 ) ) ;
#1032 =( GEOMETRIC_REPRESENTATION_CONTEXT ( 3 ) GLOBAL_UNCERTAINTY_ASSIGNED_CONTEXT ( ( #432 ) ) GLOBAL_UNIT_ASSIGNED_CONTEXT ( ( #803, #873, #892 ) ) REPRESENTATION_CONTEXT ( 'NONE', 'WORKASPACE' ) );
#1033 = STYLED_ITEM ( 'NONE', ( #61 ), #1080 ) ;
#1034 = CARTESIAN_POINT ( 'NONE',  ( 9.000000000000001776, 1.699999999999999956, -3.491481338843133355E-14 ) ) ;
#1035 = SURFACE_STYLE_FILL_AREA ( #1063 ) ;
#1036 = FACE_OUTER_BOUND ( 'NONE', #719, .T. ) ;
#1037 = FILL_AREA_STYLE_COLOUR ( '', #1093 ) ;
#1038 = EDGE_CURVE ( 'NONE', #714, #1098, #1174, .T. ) ;
#1039 = ORIENTED_EDGE ( 'NONE', *, *, #1123, .T. ) ;
#1040 = DIRECTION ( 'NONE',  ( 0.000000000000000000, 1.000000000000000000, 0.000000000000000000 ) ) ;
#1041 = UNCERTAINTY_MEASURE_WITH_UNIT (LENGTH_MEASURE( 1.000000000000000082E-05 ), #360, 'distance_accuracy_value', 'NONE');
#1042 = FILL_AREA_STYLE_COLOUR ( '', #977 ) ;
#1043 = PRESENTATION_STYLE_ASSIGNMENT (( #267 ) ) ;
#1044 = SURFACE_SIDE_STYLE ('',( #286 ) ) ;
#1045 = ORIENTED_EDGE ( 'NONE', *, *, #453, .F. ) ;
#1046 = FILL_AREA_STYLE ('',( #844 ) ) ;
#1047 = SURFACE_SIDE_STYLE ('',( #942 ) ) ;
#1048 = PLANE ( 'NONE',  #75 ) ;
#1049 = COLOUR_RGB ( '',0.2862745098039215508, 0.6627450980392156632, 0.3294117647058823484 ) ;
#1050 = SURFACE_STYLE_USAGE ( .BOTH. , #1044 ) ;
#1051 = STYLED_ITEM ( 'NONE', ( #130 ), #264 ) ;
#1052 = ORIENTED_EDGE ( 'NONE', *, *, #614, .T. ) ;
#1053 = VECTOR ( 'NONE', #1081, 1000.000000000000000 ) ;
#1054 = COLOUR_RGB ( '',0.2862745098039215508, 0.6627450980392156632, 0.3294117647058823484 ) ;
#1055 = UNCERTAINTY_MEASURE_WITH_UNIT (LENGTH_MEASURE( 1.000000000000000082E-05 ), #412, 'distance_accuracy_value', 'NONE');
#1056 = MECHANICAL_DESIGN_GEOMETRIC_PRESENTATION_REPRESENTATION (  '', ( #33 ), #426 ) ;
#1057 = DIRECTION ( 'NONE',  ( 0.000000000000000000, 0.000000000000000000, -1.000000000000000000 ) ) ;
#1058 = CARTESIAN_POINT ( 'NONE',  ( 0.000000000000000000, 0.000000000000000000, 0.000000000000000000 ) ) ;
#1059 = SURFACE_SIDE_STYLE ('',( #603 ) ) ;
#1060 = ORIENTED_EDGE ( 'NONE', *, *, #343, .F. ) ;
#1061 = CARTESIAN_POINT ( 'NONE',  ( 0.000000000000000000, 5.000000000000000000, 0.000000000000000000 ) ) ;
#1062 = FILL_AREA_STYLE ('',( #1176 ) ) ;
#1063 = FILL_AREA_STYLE ('',( #187 ) ) ;
#1064 =( NAMED_UNIT ( * ) PLANE_ANGLE_UNIT ( ) SI_UNIT ( $, .RADIAN. ) );
#1065 = ORIENTED_EDGE ( 'NONE', *, *, #632, .F. ) ;
#1066 = DIRECTION ( 'NONE',  ( 0.000000000000000000, 0.000000000000000000, -1.000000000000000000 ) ) ;
#1067 = CARTESIAN_POINT ( 'NONE',  ( 0.4223204503071527061, 1.699999999999999956, -2.970125491835718723 ) ) ;
#1068 = DIRECTION ( 'NONE',  ( 0.000000000000000000, 0.000000000000000000, -1.000000000000000000 ) ) ;
#1069 = EDGE_LOOP ( 'NONE', ( #243, #497, #287, #29 ) ) ;
#1070 = AXIS2_PLACEMENT_3D ( 'NONE', #805, #540, #732 ) ;
#1071 = MECHANICAL_DESIGN_GEOMETRIC_PRESENTATION_REPRESENTATION (  '', ( #377 ), #15 ) ;
#1072 = DIRECTION ( 'NONE',  ( -0.000000000000000000, -1.000000000000000000, -0.000000000000000000 ) ) ;
#1073 = EDGE_CURVE ( 'NONE', #773, #1097, #845, .T. ) ;
#1074 = CARTESIAN_POINT ( 'NONE',  ( 11.50000000000000000, 1.699999999999999956, -1.745740669421566678E-14 ) ) ;
#1075 = STYLED_ITEM ( 'NONE', ( #716 ), #1246 ) ;
#1076 =( GEOMETRIC_REPRESENTATION_CONTEXT ( 3 ) GLOBAL_UNCERTAINTY_ASSIGNED_CONTEXT ( ( #1055 ) ) GLOBAL_UNIT_ASSIGNED_CONTEXT ( ( #412, #589, #592 ) ) REPRESENTATION_CONTEXT ( 'NONE', 'WORKASPACE' ) );
#1077 = AXIS2_PLACEMENT_3D ( 'NONE', #538, #1208, #45 ) ;
#1078 =( LENGTH_UNIT ( ) NAMED_UNIT ( * ) SI_UNIT ( .MILLI., .METRE. ) );
#1079 = VERTEX_POINT ( 'NONE', #545 ) ;
#1080 = ADVANCED_FACE ( 'NONE', ( #181 ), #163, .F. ) ;
#1081 = DIRECTION ( 'NONE',  ( -0.000000000000000000, 1.000000000000000000, -0.000000000000000000 ) ) ;
#1082 = CARTESIAN_POINT ( 'NONE',  ( 0.000000000000000000, 0.000000000000000000, 0.000000000000000000 ) ) ;
#1083 = PRESENTATION_STYLE_ASSIGNMENT (( #397 ) ) ;
#1084 = CARTESIAN_POINT ( 'NONE',  ( 14.13648017687462755, 0.000000000000000000, 2.000000000000000000 ) ) ;
#1085 = ORIENTED_EDGE ( 'NONE', *, *, #906, .T. ) ;
#1086 = CARTESIAN_POINT ( 'NONE',  ( 0.000000000000000000, 5.000000000000000000, 0.000000000000000000 ) ) ;
#1087 = ADVANCED_FACE ( 'NONE', ( #551 ), #1232, .T. ) ;
#1088 = SURFACE_SIDE_STYLE ('',( #113 ) ) ;
#1089 = PLANE ( 'NONE',  #196 ) ;
#1090 =( NAMED_UNIT ( * ) SI_UNIT ( $, .STERADIAN. ) SOLID_ANGLE_UNIT ( ) );
#1091 = CYLINDRICAL_SURFACE ( 'NONE', #67, 1.250000000000000000 ) ;
#1092 = CIRCLE ( 'NONE', #543, 2.000000000000000000 ) ;
#1093 = COLOUR_RGB ( '',0.2862745098039215508, 0.6627450980392156632, 0.3294117647058823484 ) ;
#1094 = COLOUR_RGB ( '',0.2862745098039215508, 0.6627450980392156632, 0.3294117647058823484 ) ;
#1095 = SURFACE_STYLE_FILL_AREA ( #502 ) ;
#1096 = CIRCLE ( 'NONE', #1157, 2.000000000000000000 ) ;
#1097 = VERTEX_POINT ( 'NONE', #289 ) ;
#1098 = VERTEX_POINT ( 'NONE', #883 ) ;
#1099 = DIRECTION ( 'NONE',  ( 0.000000000000000000, 0.000000000000000000, 1.000000000000000000 ) ) ;
#1100 =( NAMED_UNIT ( * ) PLANE_ANGLE_UNIT ( ) SI_UNIT ( $, .RADIAN. ) );
#1101 = SURFACE_SIDE_STYLE ('',( #146 ) ) ;
#1102 = ORIENTED_EDGE ( 'NONE', *, *, #987, .F. ) ;
#1103 = EDGE_LOOP ( 'NONE', ( #1045, #299, #529, #283 ) ) ;
#1104 = LINE ( 'NONE', #326, #790 ) ;
#1105 = CARTESIAN_POINT ( 'NONE',  ( 6.500000000000000888, 0.000000000000000000, -0.5000000000000531797 ) ) ;
#1106 = FACE_OUTER_BOUND ( 'NONE', #252, .T. ) ;
#1107 = CARTESIAN_POINT ( 'NONE',  ( 6.500000000000000888, 1.699999999999999956, -5.237222008264700664E-14 ) ) ;
#1108 = ORIENTED_EDGE ( 'NONE', *, *, #950, .F. ) ;
#1109 = SURFACE_STYLE_USAGE ( .BOTH. , #431 ) ;
#1110 = EDGE_CURVE ( 'NONE', #520, #794, #119, .T. ) ;
#1111 = DIRECTION ( 'NONE',  ( 0.000000000000000000, -0.000000000000000000, 1.000000000000000000 ) ) ;
#1112 =( GEOMETRIC_REPRESENTATION_CONTEXT ( 3 ) GLOBAL_UNCERTAINTY_ASSIGNED_CONTEXT ( ( #136 ) ) GLOBAL_UNIT_ASSIGNED_CONTEXT ( ( #864, #510, #903 ) ) REPRESENTATION_CONTEXT ( 'NONE', 'WORKASPACE' ) );
#1113 = PRESENTATION_LAYER_ASSIGNMENT (  '', '', ( #1033 ) ) ;
#1114 = AXIS2_PLACEMENT_3D ( 'NONE', #751, #945, #173 ) ;
#1115 = PRESENTATION_STYLE_ASSIGNMENT (( #997 ) ) ;
#1116 = STYLED_ITEM ( 'NONE', ( #1083 ), #819 ) ;
#1117 = ORIENTED_EDGE ( 'NONE', *, *, #1227, .T. ) ;
#1118 = EDGE_CURVE ( 'NONE', #1254, #1007, #581, .T. ) ;
#1119 = FACE_BOUND ( 'NONE', #1031, .T. ) ;
#1120 = DIRECTION ( 'NONE',  ( -0.000000000000000000, -1.000000000000000000, -0.000000000000000000 ) ) ;
#1121 = DIRECTION ( 'NONE',  ( 0.000000000000000000, -1.000000000000000000, 0.000000000000000000 ) ) ;
#1122 = VERTEX_POINT ( 'NONE', #488 ) ;
#1123 = EDGE_CURVE ( 'NONE', #448, #631, #159, .T. ) ;
#1124 = FILL_AREA_STYLE ('',( #31 ) ) ;
#1125 = CARTESIAN_POINT ( 'NONE',  ( 0.2111602549687421615, 0.000000000000000000, 2.985062745917859139 ) ) ;
#1126 = SURFACE_STYLE_FILL_AREA ( #153 ) ;
#1127 = ORIENTED_EDGE ( 'NONE', *, *, #750, .F. ) ;
#1128 = CARTESIAN_POINT ( 'NONE',  ( 6.500000000000000888, 1.699999999999999956, 0.4999999999999483746 ) ) ;
#1129 = EDGE_CURVE ( 'NONE', #611, #902, #781, .T. ) ;
#1130 = PRESENTATION_LAYER_ASSIGNMENT (  '', '', ( #296 ) ) ;
#1131 = CYLINDRICAL_SURFACE ( 'NONE', #278, 0.5000000000000007772 ) ;
#1132 = STYLED_ITEM ( 'NONE', ( #395 ), #1211 ) ;
#1133 = PRESENTATION_LAYER_ASSIGNMENT (  '', '', ( #868 ) ) ;
#1134 = PRESENTATION_LAYER_ASSIGNMENT (  '', '', ( #1255 ) ) ;
#1135 = ORIENTED_EDGE ( 'NONE', *, *, #140, .F. ) ;
#1136 = DIRECTION ( 'NONE',  ( 0.000000000000000000, -0.000000000000000000, -1.000000000000000000 ) ) ;
#1137 = CARTESIAN_POINT ( 'NONE',  ( 0.000000000000000000, 5.000000000000000000, 0.000000000000000000 ) ) ;
#1138 = SURFACE_STYLE_FILL_AREA ( #251 ) ;
#1139 = FILL_AREA_STYLE ('',( #860 ) ) ;
#1140 = VERTEX_POINT ( 'NONE', #17 ) ;
#1141 = DIRECTION ( 'NONE',  ( 0.000000000000000000, 1.000000000000000000, 0.000000000000000000 ) ) ;
#1142 = UNCERTAINTY_MEASURE_WITH_UNIT (LENGTH_MEASURE( 1.000000000000000082E-05 ), #674, 'distance_accuracy_value', 'NONE');
#1143 = CARTESIAN_POINT ( 'NONE',  ( 0.000000000000000000, 3.000000000000000000, 0.000000000000000000 ) ) ;
#1144 = DIRECTION ( 'NONE',  ( 0.000000000000000000, 0.000000000000000000, 1.000000000000000000 ) ) ;
#1145 = DIRECTION ( 'NONE',  ( 0.000000000000000000, 0.000000000000000000, -1.000000000000000000 ) ) ;
#1146 = SURFACE_STYLE_USAGE ( .BOTH. , #660 ) ;
#1147 = ORIENTED_EDGE ( 'NONE', *, *, #1243, .F. ) ;
#1148 = SURFACE_STYLE_USAGE ( .BOTH. , #955 ) ;
#1149 = FILL_AREA_STYLE_COLOUR ( '', #689 ) ;
#1150 = PRESENTATION_STYLE_ASSIGNMENT (( #450 ) ) ;
#1151 = CARTESIAN_POINT ( 'NONE',  ( 11.50000000000000000, 1.699999999999999956, -1.745740669421566678E-14 ) ) ;
#1152 =( LENGTH_UNIT ( ) NAMED_UNIT ( * ) SI_UNIT ( .MILLI., .METRE. ) );
#1153 = AXIS2_PLACEMENT_3D ( 'NONE', #807, #371, #762 ) ;
#1154 = EDGE_LOOP ( 'NONE', ( #1199, #606, #1017, #1170 ) ) ;
#1155 = CARTESIAN_POINT ( 'NONE',  ( 6.500000000000000888, 0.000000000000000000, 0.4999999999999483746 ) ) ;
#1156 = AXIS2_PLACEMENT_3D ( 'NONE', #63, #694, #13 ) ;
#1157 = AXIS2_PLACEMENT_3D ( 'NONE', #1137, #1233, #370 ) ;
#1158 = DIRECTION ( 'NONE',  ( 0.000000000000000000, 0.000000000000000000, 1.000000000000000000 ) ) ;
#1159 =( NAMED_UNIT ( * ) SI_UNIT ( $, .STERADIAN. ) SOLID_ANGLE_UNIT ( ) );
#1160 = ORIENTED_EDGE ( 'NONE', *, *, #857, .F. ) ;
#1161 = CARTESIAN_POINT ( 'NONE',  ( 0.000000000000000000, 3.000000000000000000, 0.000000000000000000 ) ) ;
#1162 = SURFACE_SIDE_STYLE ('',( #675 ) ) ;
#1163 = PRODUCT ( 'Servo Head PTK7350', 'Servo Head PTK7350', '', ( #536 ) ) ;
#1164 = CYLINDRICAL_SURFACE ( 'NONE', #239, 2.000000000000000000 ) ;
#1165 = VERTEX_POINT ( 'NONE', #594 ) ;
#1166 = FILL_AREA_STYLE_COLOUR ( '', #194 ) ;
#1167 = CARTESIAN_POINT ( 'NONE',  ( 0.2111602549687421615, 0.000000000000000000, -2.985062745917859139 ) ) ;
#1168 = EDGE_CURVE ( 'NONE', #952, #64, #70, .T. ) ;
#1169 = PRESENTATION_STYLE_ASSIGNMENT (( #598 ) ) ;
#1170 = ORIENTED_EDGE ( 'NONE', *, *, #779, .T. ) ;
#1171 = PRESENTATION_LAYER_ASSIGNMENT (  '', '', ( #908 ) ) ;
#1172 = COLOUR_RGB ( '',0.2862745098039215508, 0.6627450980392156632, 0.3294117647058823484 ) ;
#1173 = FACE_OUTER_BOUND ( 'NONE', #10, .T. ) ;
#1174 = CIRCLE ( 'NONE', #236, 3.000000000000000444 ) ;
#1175 = AXIS2_PLACEMENT_3D ( 'NONE', #1061, #1040, #83 ) ;
#1176 = FILL_AREA_STYLE_COLOUR ( '', #422 ) ;
#1177 = AXIS2_PLACEMENT_3D ( 'NONE', #1107, #1120, #35 ) ;
#1178 = PRESENTATION_STYLE_ASSIGNMENT (( #692 ) ) ;
#1179 = MECHANICAL_DESIGN_GEOMETRIC_PRESENTATION_REPRESENTATION (  '', ( #406 ), #1032 ) ;
#1180 =( NAMED_UNIT ( * ) PLANE_ANGLE_UNIT ( ) SI_UNIT ( $, .RADIAN. ) );
#1181 = CARTESIAN_POINT ( 'NONE',  ( 0.4223204503071527061, 0.000000000000000000, -2.970125491835718723 ) ) ;
#1182 = EDGE_LOOP ( 'NONE', ( #451, #185, #916, #36 ) ) ;
#1183 = FACE_OUTER_BOUND ( 'NONE', #392, .T. ) ;
#1184 = LINE ( 'NONE', #391, #18 ) ;
#1185 = FILL_AREA_STYLE_COLOUR ( '', #1049 ) ;
#1186 = SURFACE_STYLE_FILL_AREA ( #416 ) ;
#1187 = DIRECTION ( 'NONE',  ( -0.000000000000000000, -1.000000000000000000, -0.000000000000000000 ) ) ;
#1188 = CARTESIAN_POINT ( 'NONE',  ( 9.000000000000001776, 0.000000000000000000, 0.4999999999999658606 ) ) ;
#1189 = CARTESIAN_POINT ( 'NONE',  ( 0.000000000000000000, 5.000000000000000000, -3.000000000000000444 ) ) ;
#1190 = VERTEX_POINT ( 'NONE', #899 ) ;
#1191 =( GEOMETRIC_REPRESENTATION_CONTEXT ( 3 ) GLOBAL_UNCERTAINTY_ASSIGNED_CONTEXT ( ( #830 ) ) GLOBAL_UNIT_ASSIGNED_CONTEXT ( ( #1018, #1100, #1028 ) ) REPRESENTATION_CONTEXT ( 'NONE', 'WORKASPACE' ) );
#1192 = MECHANICAL_DESIGN_GEOMETRIC_PRESENTATION_REPRESENTATION (  '', ( #810 ), #323 ) ;
#1193 = DIRECTION ( 'NONE',  ( 0.000000000000000000, -1.000000000000000000, 0.000000000000000000 ) ) ;
#1194 = COLOUR_RGB ( '',0.2862745098039215508, 0.6627450980392156632, 0.3294117647058823484 ) ;
#1195 = PRESENTATION_LAYER_ASSIGNMENT (  '', '', ( #1075 ) ) ;
#1196 = AXIS2_PLACEMENT_3D ( 'NONE', #508, #978, #23 ) ;
#1197 = PRESENTATION_LAYER_ASSIGNMENT (  '', '', ( #1116 ) ) ;
#1198 = DIRECTION ( 'NONE',  ( -0.000000000000000000, 1.000000000000000000, -0.000000000000000000 ) ) ;
#1199 = ORIENTED_EDGE ( 'NONE', *, *, #1129, .F. ) ;
#1200 =( LENGTH_UNIT ( ) NAMED_UNIT ( * ) SI_UNIT ( .MILLI., .METRE. ) );
#1201 = CARTESIAN_POINT ( 'NONE',  ( 6.500000000000000888, 1.699999999999999956, -0.5000000000000531797 ) ) ;
#1202 = CYLINDRICAL_SURFACE ( 'NONE', #1177, 0.5000000000000007772 ) ;
#1203 = EDGE_LOOP ( 'NONE', ( #928, #274 ) ) ;
#1204 = ORIENTED_EDGE ( 'NONE', *, *, #169, .T. ) ;
#1205 = EDGE_CURVE ( 'NONE', #1097, #434, #354, .T. ) ;
#1206 = DIRECTION ( 'NONE',  ( 0.000000000000000000, 0.000000000000000000, 1.000000000000000000 ) ) ;
#1207 = UNCERTAINTY_MEASURE_WITH_UNIT (LENGTH_MEASURE( 1.000000000000000082E-05 ), #385, 'distance_accuracy_value', 'NONE');
#1208 = DIRECTION ( 'NONE',  ( -0.000000000000000000, -1.000000000000000000, -0.000000000000000000 ) ) ;
#1209 = SURFACE_SIDE_STYLE ('',( #725 ) ) ;
#1210 = ORIENTED_EDGE ( 'NONE', *, *, #393, .T. ) ;
#1211 = ADVANCED_FACE ( 'NONE', ( #1183 ), #697, .F. ) ;
#1212 = ORIENTED_EDGE ( 'NONE', *, *, #894, .T. ) ;
#1213 = CARTESIAN_POINT ( 'NONE',  ( 0.000000000000000000, 0.000000000000000000, 0.000000000000000000 ) ) ;
#1214 = LINE ( 'NONE', #340, #645 ) ;
#1215 = AXIS2_PLACEMENT_3D ( 'NONE', #1151, #112, #890 ) ;
#1216 = AXIS2_PLACEMENT_3D ( 'NONE', #869, #973, #293 ) ;
#1217 = STYLED_ITEM ( 'NONE', ( #466 ), #362 ) ;
#1218 = CARTESIAN_POINT ( 'NONE',  ( 0.000000000000000000, 0.000000000000000000, -3.000000000000000444 ) ) ;
#1219 = DIRECTION ( 'NONE',  ( -0.07056263949930399737, 0.000000000000000000, -0.9975073503021876231 ) ) ;
#1220 = ORIENTED_EDGE ( 'NONE', *, *, #1129, .T. ) ;
#1221 = CARTESIAN_POINT ( 'NONE',  ( 0.000000000000000000, 5.000000000000000000, -3.000000000000000444 ) ) ;
#1222 = DIRECTION ( 'NONE',  ( -0.000000000000000000, -1.000000000000000000, -0.000000000000000000 ) ) ;
#1223 = PRESENTATION_STYLE_ASSIGNMENT (( #630 ) ) ;
#1224 = DIRECTION ( 'NONE',  ( -0.9975073503021875121, 0.000000000000000000, 0.07056263949930398349 ) ) ;
#1225 = EDGE_LOOP ( 'NONE', ( #485, #518 ) ) ;
#1226 = DIRECTION ( 'NONE',  ( -0.000000000000000000, 1.000000000000000000, -0.000000000000000000 ) ) ;
#1227 = EDGE_CURVE ( 'NONE', #611, #688, #339, .T. ) ;
#1228 = SURFACE_STYLE_USAGE ( .BOTH. , #1047 ) ;
#1229 = DIRECTION ( 'NONE',  ( -0.000000000000000000, -1.000000000000000000, -0.000000000000000000 ) ) ;
#1230 = ORIENTED_EDGE ( 'NONE', *, *, #857, .T. ) ;
#1231 = CARTESIAN_POINT ( 'NONE',  ( 0.000000000000000000, 0.000000000000000000, 0.000000000000000000 ) ) ;
#1232 = CYLINDRICAL_SURFACE ( 'NONE', #199, 2.004997757053233354 ) ;
#1233 = DIRECTION ( 'NONE',  ( 0.000000000000000000, 1.000000000000000000, 0.000000000000000000 ) ) ;
#1234 = SURFACE_STYLE_USAGE ( .BOTH. , #439 ) ;
#1235 = AXIS2_PLACEMENT_3D ( 'NONE', #418, #1019, #909 ) ;
#1236 = STYLED_ITEM ( 'NONE', ( #652 ), #526 ) ;
#1237 =( NAMED_UNIT ( * ) SI_UNIT ( $, .STERADIAN. ) SOLID_ANGLE_UNIT ( ) );
#1238 = VECTOR ( 'NONE', #605, 1000.000000000000114 ) ;
#1239 = ORIENTED_EDGE ( 'NONE', *, *, #1227, .F. ) ;
#1240 = AXIS2_PLACEMENT_3D ( 'NONE', #365, #285, #672 ) ;
#1241 = PRESENTATION_LAYER_ASSIGNMENT (  '', '', ( #810 ) ) ;
#1242 = CARTESIAN_POINT ( 'NONE',  ( 0.000000000000000000, 3.000000000000000000, 0.000000000000000000 ) ) ;
#1243 = EDGE_CURVE ( 'NONE', #960, #778, #1015, .T. ) ;
#1244 = FILL_AREA_STYLE_COLOUR ( '', #375 ) ;
#1245 = ORIENTED_EDGE ( 'NONE', *, *, #1024, .F. ) ;
#1246 = ADVANCED_FACE ( 'NONE', ( #107 ), #384, .F. ) ;
#1247 = CARTESIAN_POINT ( 'NONE',  ( 0.000000000000000000, 5.000000000000000000, 0.000000000000000000 ) ) ;
#1248 = CARTESIAN_POINT ( 'NONE',  ( 0.000000000000000000, 2.000000000000000000, 0.000000000000000000 ) ) ;
#1249 = EDGE_CURVE ( 'NONE', #442, #778, #1104, .T. ) ;
#1250 = VERTEX_POINT ( 'NONE', #924 ) ;
#1251 = CARTESIAN_POINT ( 'NONE',  ( 6.500000000000000888, 1.699999999999999956, -5.237222008264700664E-14 ) ) ;
#1252 =( GEOMETRIC_REPRESENTATION_CONTEXT ( 3 ) GLOBAL_UNCERTAINTY_ASSIGNED_CONTEXT ( ( #759 ) ) GLOBAL_UNIT_ASSIGNED_CONTEXT ( ( #636, #147, #859 ) ) REPRESENTATION_CONTEXT ( 'NONE', 'WORKASPACE' ) );
#1253 = STYLED_ITEM ( 'NONE', ( #755 ), #514 ) ;
#1254 = VERTEX_POINT ( 'NONE', #126 ) ;
#1255 = STYLED_ITEM ( 'NONE', ( #1169 ), #663 ) ;
ENDSEC;
END-ISO-10303-21;
