ISO-10303-21;
HEADER;
FILE_DESCRIPTION (( 'STEP AP214' ),
    '1' );
FILE_NAME ('Jaw holder - 2.STEP',
    '2025-10-21T18:57:07',
    ( 'Windows User' ),
    ( '' ),
    'SwSTEP 2.0',
    'SolidWorks 2023',
    '' );
FILE_SCHEMA (( 'AUTOMOTIVE_DESIGN' ));
ENDSEC;

DATA;
#1 = CARTESIAN_POINT ( 'NONE',  ( -8.000000000000001776, -1.850000000000000533, 8.500000000000000000 ) ) ;
#2 = DIRECTION ( 'NONE',  ( 0.000000000000000000, 0.000000000000000000, 1.000000000000000000 ) ) ;
#3 = EDGE_LOOP ( 'NONE', ( #602, #100, #801, #516 ) ) ;
#4 = DIRECTION ( 'NONE',  ( -0.000000000000000000, 0.000000000000000000, 1.000000000000000000 ) ) ;
#5 = ADVANCED_FACE ( 'NONE', ( #431 ), #149, .F. ) ;
#6 = SURFACE_STYLE_FILL_AREA ( #215 ) ;
#7 = VERTEX_POINT ( 'NONE', #359 ) ;
#8 = CARTESIAN_POINT ( 'NONE',  ( 5.000000000000000000, -1.008560160451632073E-15, 10.00000000000000000 ) ) ;
#9 = CARTESIAN_POINT ( 'NONE',  ( -8.000000000000001776, -1.850000000000000533, 7.750000000000000000 ) ) ;
#10 = VERTEX_POINT ( 'NONE', #682 ) ;
#11 = FACE_BOUND ( 'NONE', #311, .T. ) ;
#12 = AXIS2_PLACEMENT_3D ( 'NONE', #8, #201, #658 ) ;
#13 = CARTESIAN_POINT ( 'NONE',  ( -5.000000000000000888, 6.149999999999999467, 10.00000000000000000 ) ) ;
#14 = FILL_AREA_STYLE_COLOUR ( '', #587 ) ;
#15 = ORIENTED_EDGE ( 'NONE', *, *, #402, .T. ) ;
#16 = DIRECTION ( 'NONE',  ( 0.000000000000000000, 0.000000000000000000, 1.000000000000000000 ) ) ;
#17 = DIRECTION ( 'NONE',  ( 0.000000000000000000, 0.000000000000000000, 1.000000000000000000 ) ) ;
#18 = LINE ( 'NONE', #280, #597 ) ;
#19 = CARTESIAN_POINT ( 'NONE',  ( -5.000000000000000888, 1.849999999999999645, 10.00000000000000000 ) ) ;
#20 =( NAMED_UNIT ( * ) PLANE_ANGLE_UNIT ( ) SI_UNIT ( $, .RADIAN. ) );
#21 = DIRECTION ( 'NONE',  ( 0.000000000000000000, 0.000000000000000000, 1.000000000000000000 ) ) ;
#22 = ORIENTED_EDGE ( 'NONE', *, *, #404, .T. ) ;
#23 = CIRCLE ( 'NONE', #742, 2.000000000000000000 ) ;
#24 = DIRECTION ( 'NONE',  ( -2.017120320903264195E-16, 1.000000000000000000, 0.000000000000000000 ) ) ;
#25 = AXIS2_PLACEMENT_3D ( 'NONE', #716, #596, #791 ) ;
#26 = EDGE_CURVE ( 'NONE', #489, #205, #542, .T. ) ;
#27 = CARTESIAN_POINT ( 'NONE',  ( 8.000000000000000000, 0.000000000000000000, 8.000000000000000000 ) ) ;
#28 = VERTEX_POINT ( 'NONE', #352 ) ;
#29 = EDGE_CURVE ( 'NONE', #10, #7, #727, .T. ) ;
#30 = ORIENTED_EDGE ( 'NONE', *, *, #543, .T. ) ;
#31 = ORIENTED_EDGE ( 'NONE', *, *, #746, .F. ) ;
#32 = CYLINDRICAL_SURFACE ( 'NONE', #411, 0.7500000000000006661 ) ;
#33 = CARTESIAN_POINT ( 'NONE',  ( -8.000000000000000000, 0.000000000000000000, 8.000000000000000000 ) ) ;
#34 = VECTOR ( 'NONE', #191, 1000.000000000000000 ) ;
#35 = AXIS2_PLACEMENT_3D ( 'NONE', #33, #303, #563 ) ;
#36 = VECTOR ( 'NONE', #767, 1000.000000000000000 ) ;
#37 = CARTESIAN_POINT ( 'NONE',  ( -8.000000000000000000, -1.850000000000000533, 3.000000000000000888 ) ) ;
#38 = ORIENTED_EDGE ( 'NONE', *, *, #694, .F. ) ;
#39 = DIRECTION ( 'NONE',  ( 0.000000000000000000, 1.000000000000000000, 0.000000000000000000 ) ) ;
#40 = CARTESIAN_POINT ( 'NONE',  ( 0.000000000000000000, -1.850000000000000533, 10.00000000000000000 ) ) ;
#41 = VERTEX_POINT ( 'NONE', #415 ) ;
#42 = CYLINDRICAL_SURFACE ( 'NONE', #414, 5.000000000000000888 ) ;
#43 = DIRECTION ( 'NONE',  ( 0.000000000000000000, 1.000000000000000000, -0.000000000000000000 ) ) ;
#44 = DIRECTION ( 'NONE',  ( 1.000000000000000000, 0.000000000000000000, 0.000000000000000000 ) ) ;
#45 = VERTEX_POINT ( 'NONE', #83 ) ;
#46 = LINE ( 'NONE', #573, #537 ) ;
#47 = LINE ( 'NONE', #504, #142 ) ;
#48 = ADVANCED_FACE ( 'NONE', ( #666 ), #80, .T. ) ;
#49 = DIRECTION ( 'NONE',  ( 0.000000000000000000, 0.000000000000000000, 1.000000000000000000 ) ) ;
#50 = ORIENTED_EDGE ( 'NONE', *, *, #402, .F. ) ;
#51 = CARTESIAN_POINT ( 'NONE',  ( 8.000000000000000000, 0.000000000000000000, 2.000000000000000000 ) ) ;
#52 = EDGE_CURVE ( 'NONE', #616, #200, #18, .T. ) ;
#53 = CARTESIAN_POINT ( 'NONE',  ( 8.000000000000000000, -1.850000000000000533, 3.000000000000000444 ) ) ;
#54 = DIRECTION ( 'NONE',  ( 0.000000000000000000, -0.000000000000000000, 1.000000000000000000 ) ) ;
#55 = ORIENTED_EDGE ( 'NONE', *, *, #249, .T. ) ;
#56 = DIRECTION ( 'NONE',  ( -0.000000000000000000, 1.000000000000000000, -0.000000000000000000 ) ) ;
#57 = CARTESIAN_POINT ( 'NONE',  ( 10.00000000000000000, 1.849999999999999645, 8.000000000000000000 ) ) ;
#58 = EDGE_CURVE ( 'NONE', #205, #329, #584, .T. ) ;
#59 =( LENGTH_UNIT ( ) NAMED_UNIT ( * ) SI_UNIT ( .MILLI., .METRE. ) );
#60 = ORIENTED_EDGE ( 'NONE', *, *, #831, .F. ) ;
#61 = CARTESIAN_POINT ( 'NONE',  ( -8.000000000000001776, -1.850000000000000533, 7.750000000000000000 ) ) ;
#62 = AXIS2_PLACEMENT_3D ( 'NONE', #814, #567, #832 ) ;
#63 = CARTESIAN_POINT ( 'NONE',  ( -10.00000000000000000, 0.000000000000000000, 8.000000000000000000 ) ) ;
#64 = AXIS2_PLACEMENT_3D ( 'NONE', #380, #761, #581 ) ;
#65 = VERTEX_POINT ( 'NONE', #484 ) ;
#66 = EDGE_CURVE ( 'NONE', #616, #565, #130, .T. ) ;
#67 = CARTESIAN_POINT ( 'NONE',  ( -8.000000000000000000, 0.000000000000000000, 2.000000000000000000 ) ) ;
#68 = EDGE_CURVE ( 'NONE', #422, #228, #442, .T. ) ;
#69 = ORIENTED_EDGE ( 'NONE', *, *, #202, .F. ) ;
#70 = DIRECTION ( 'NONE',  ( 1.000000000000000000, 0.000000000000000000, 0.000000000000000000 ) ) ;
#71 = SURFACE_STYLE_USAGE ( .BOTH. , #480 ) ;
#72 = ORIENTED_EDGE ( 'NONE', *, *, #455, .F. ) ;
#73 = FACE_OUTER_BOUND ( 'NONE', #458, .T. ) ;
#74 = LINE ( 'NONE', #668, #773 ) ;
#75 = ORIENTED_EDGE ( 'NONE', *, *, #718, .F. ) ;
#76 = VECTOR ( 'NONE', #707, 1000.000000000000000 ) ;
#77 = DIRECTION ( 'NONE',  ( 0.000000000000000000, -1.000000000000000000, 0.000000000000000000 ) ) ;
#78 = AXIS2_PLACEMENT_3D ( 'NONE', #698, #520, #763 ) ;
#79 = LINE ( 'NONE', #726, #622 ) ;
#80 = CYLINDRICAL_SURFACE ( 'NONE', #295, 2.000000000000000000 ) ;
#81 = ORIENTED_EDGE ( 'NONE', *, *, #291, .T. ) ;
#82 = CARTESIAN_POINT ( 'NONE',  ( -5.000000000000000888, 6.149999999999999467, 10.00000000000000000 ) ) ;
#83 = CARTESIAN_POINT ( 'NONE',  ( 8.000000000000000000, 1.849999999999999645, 3.000000000000000444 ) ) ;
#84 = ORIENTED_EDGE ( 'NONE', *, *, #568, .F. ) ;
#85 = DIRECTION ( 'NONE',  ( 1.000000000000000000, 0.000000000000000000, 0.000000000000000000 ) ) ;
#86 = ORIENTED_EDGE ( 'NONE', *, *, #202, .T. ) ;
#87 = ORIENTED_EDGE ( 'NONE', *, *, #281, .F. ) ;
#88 = EDGE_CURVE ( 'NONE', #223, #562, #214, .T. ) ;
#89 = AXIS2_PLACEMENT_3D ( 'NONE', #735, #672, #816 ) ;
#90 = CARTESIAN_POINT ( 'NONE',  ( -8.000000000000000000, 0.000000000000000000, 10.00000000000000000 ) ) ;
#91 = AXIS2_PLACEMENT_3D ( 'NONE', #263, #396, #2 ) ;
#92 = ADVANCED_FACE ( 'NONE', ( #434 ), #112, .F. ) ;
#93 = EDGE_LOOP ( 'NONE', ( #193, #154 ) ) ;
#94 = ORIENTED_EDGE ( 'NONE', *, *, #485, .F. ) ;
#95 = CARTESIAN_POINT ( 'NONE',  ( -10.00000000000000000, 1.849999999999999645, 10.00000000000000000 ) ) ;
#96 = DIRECTION ( 'NONE',  ( 1.000000000000000000, 0.000000000000000000, 0.000000000000000000 ) ) ;
#97 = ORIENTED_EDGE ( 'NONE', *, *, #294, .F. ) ;
#98 = SURFACE_SIDE_STYLE ('',( #433 ) ) ;
#99 = CARTESIAN_POINT ( 'NONE',  ( 0.000000000000000000, 6.149999999999999467, 0.000000000000000000 ) ) ;
#100 = ORIENTED_EDGE ( 'NONE', *, *, #294, .T. ) ;
#101 = FILL_AREA_STYLE_COLOUR ( '', #825 ) ;
#102 = AXIS2_PLACEMENT_3D ( 'NONE', #700, #125, #106 ) ;
#103 =( GEOMETRIC_REPRESENTATION_CONTEXT ( 3 ) GLOBAL_UNCERTAINTY_ASSIGNED_CONTEXT ( ( #381 ) ) GLOBAL_UNIT_ASSIGNED_CONTEXT ( ( #59, #316, #123 ) ) REPRESENTATION_CONTEXT ( 'NONE', 'WORKASPACE' ) );
#104 = CARTESIAN_POINT ( 'NONE',  ( 8.000000000000000000, -1.850000000000000533, 8.000000000000000000 ) ) ;
#105 = ORIENTED_EDGE ( 'NONE', *, *, #291, .F. ) ;
#106 = DIRECTION ( 'NONE',  ( 0.000000000000000000, 0.000000000000000000, 1.000000000000000000 ) ) ;
#107 = DIRECTION ( 'NONE',  ( 0.000000000000000000, 0.000000000000000000, 1.000000000000000000 ) ) ;
#108 = DIRECTION ( 'NONE',  ( -0.000000000000000000, 0.000000000000000000, 1.000000000000000000 ) ) ;
#109 = ORIENTED_EDGE ( 'NONE', *, *, #88, .T. ) ;
#110 = DIRECTION ( 'NONE',  ( 0.000000000000000000, 0.000000000000000000, -1.000000000000000000 ) ) ;
#111 = EDGE_CURVE ( 'NONE', #152, #699, #47, .T. ) ;
#112 = CYLINDRICAL_SURFACE ( 'NONE', #453, 0.7500000000000002220 ) ;
#113 = CARTESIAN_POINT ( 'NONE',  ( -5.000000000000000888, 1.849999999999999645, 10.00000000000000000 ) ) ;
#114 = VERTEX_POINT ( 'NONE', #513 ) ;
#115 = LINE ( 'NONE', #524, #369 ) ;
#116 = EDGE_CURVE ( 'NONE', #253, #200, #811, .T. ) ;
#117 = AXIS2_PLACEMENT_3D ( 'NONE', #551, #159, #224 ) ;
#118 = DIRECTION ( 'NONE',  ( 0.000000000000000000, 1.000000000000000000, 0.000000000000000000 ) ) ;
#119 = DIRECTION ( 'NONE',  ( -0.000000000000000000, 1.000000000000000000, -0.000000000000000000 ) ) ;
#120 = EDGE_LOOP ( 'NONE', ( #804, #796, #571, #302 ) ) ;
#121 = CARTESIAN_POINT ( 'NONE',  ( -8.000000000000000000, 1.849999999999999645, 2.000000000000000000 ) ) ;
#122 = LINE ( 'NONE', #13, #198 ) ;
#123 =( NAMED_UNIT ( * ) SI_UNIT ( $, .STERADIAN. ) SOLID_ANGLE_UNIT ( ) );
#124 = ORIENTED_EDGE ( 'NONE', *, *, #404, .F. ) ;
#125 = DIRECTION ( 'NONE',  ( 0.000000000000000000, 1.000000000000000000, 0.000000000000000000 ) ) ;
#126 = ADVANCED_FACE ( 'NONE', ( #762, #446, #373 ), #631, .T. ) ;
#127 = LINE ( 'NONE', #772, #494 ) ;
#128 = ORIENTED_EDGE ( 'NONE', *, *, #337, .F. ) ;
#129 = DIRECTION ( 'NONE',  ( 0.000000000000000000, 1.000000000000000000, 0.000000000000000000 ) ) ;
#130 = CIRCLE ( 'NONE', #185, 2.649999999999999467 ) ;
#131 = VECTOR ( 'NONE', #532, 1000.000000000000000 ) ;
#132 = ORIENTED_EDGE ( 'NONE', *, *, #213, .T. ) ;
#133 = CARTESIAN_POINT ( 'NONE',  ( -8.000000000000000000, 1.849999999999999645, 2.250000000000000444 ) ) ;
#134 = EDGE_LOOP ( 'NONE', ( #81, #296 ) ) ;
#135 = CYLINDRICAL_SURFACE ( 'NONE', #299, 2.000000000000000000 ) ;
#136 = CARTESIAN_POINT ( 'NONE',  ( 10.00000000000000000, -1.850000000000000533, 10.00000000000000000 ) ) ;
#137 = ADVANCED_FACE ( 'NONE', ( #564 ), #32, .F. ) ;
#138 = VERTEX_POINT ( 'NONE', #308 ) ;
#139 = LINE ( 'NONE', #268, #131 ) ;
#140 = EDGE_CURVE ( 'NONE', #161, #546, #412, .T. ) ;
#141 = CYLINDRICAL_SURFACE ( 'NONE', #560, 2.649999999999999467 ) ;
#142 = VECTOR ( 'NONE', #688, 1000.000000000000000 ) ;
#143 = DIRECTION ( 'NONE',  ( -0.000000000000000000, -1.000000000000000000, -0.000000000000000000 ) ) ;
#144 = CIRCLE ( 'NONE', #399, 0.7500000000000006661 ) ;
#145 = CIRCLE ( 'NONE', #91, 0.7500000000000002220 ) ;
#146 = ORIENTED_EDGE ( 'NONE', *, *, #267, .T. ) ;
#147 = AXIS2_PLACEMENT_3D ( 'NONE', #338, #655, #398 ) ;
#148 = DIRECTION ( 'NONE',  ( 0.000000000000000000, 1.000000000000000000, -0.000000000000000000 ) ) ;
#149 = PLANE ( 'NONE',  #824 ) ;
#150 = ORIENTED_EDGE ( 'NONE', *, *, #309, .T. ) ;
#151 = FILL_AREA_STYLE ('',( #101 ) ) ;
#152 = VERTEX_POINT ( 'NONE', #623 ) ;
#153 = EDGE_CURVE ( 'NONE', #594, #489, #491, .T. ) ;
#154 = ORIENTED_EDGE ( 'NONE', *, *, #455, .T. ) ;
#155 = FACE_OUTER_BOUND ( 'NONE', #481, .T. ) ;
#156 = VERTEX_POINT ( 'NONE', #181 ) ;
#157 = AXIS2_PLACEMENT_3D ( 'NONE', #40, #233, #821 ) ;
#158 = AXIS2_PLACEMENT_3D ( 'NONE', #9, #148, #417 ) ;
#159 = DIRECTION ( 'NONE',  ( -0.000000000000000000, 1.000000000000000000, -0.000000000000000000 ) ) ;
#160 = AXIS2_PLACEMENT_3D ( 'NONE', #473, #724, #464 ) ;
#161 = VERTEX_POINT ( 'NONE', #37 ) ;
#162 = FACE_OUTER_BOUND ( 'NONE', #487, .T. ) ;
#163 = VERTEX_POINT ( 'NONE', #618 ) ;
#164 =( NAMED_UNIT ( * ) PLANE_ANGLE_UNIT ( ) SI_UNIT ( $, .RADIAN. ) );
#165 = APPLICATION_CONTEXT ( 'automotive_design' ) ;
#166 = CARTESIAN_POINT ( 'NONE',  ( -5.000000000000000000, -1.008560160451632073E-15, 0.000000000000000000 ) ) ;
#167 = ORIENTED_EDGE ( 'NONE', *, *, #235, .F. ) ;
#168 = DIRECTION ( 'NONE',  ( 1.000000000000000000, 0.000000000000000000, 0.000000000000000000 ) ) ;
#169 = CIRCLE ( 'NONE', #467, 2.000000000000000000 ) ;
#170 = CIRCLE ( 'NONE', #787, 0.7500000000000002220 ) ;
#171 = CARTESIAN_POINT ( 'NONE',  ( -2.649999999999999467, 6.149999999999999467, 0.000000000000000000 ) ) ;
#172 = DIRECTION ( 'NONE',  ( -0.000000000000000000, -1.000000000000000000, -0.000000000000000000 ) ) ;
#173 = ORIENTED_EDGE ( 'NONE', *, *, #116, .F. ) ;
#174 = ADVANCED_FACE ( 'NONE', ( #293 ), #752, .F. ) ;
#175 = ADVANCED_FACE ( 'NONE', ( #301, #246, #826, #497, #559 ), #628, .F. ) ;
#176 = DIRECTION ( 'NONE',  ( 0.000000000000000000, 1.000000000000000000, -0.000000000000000000 ) ) ;
#177 = DIRECTION ( 'NONE',  ( -0.000000000000000000, 1.000000000000000000, -0.000000000000000000 ) ) ;
#178 = ADVANCED_FACE ( 'NONE', ( #162 ), #686, .F. ) ;
#179 = ORIENTED_EDGE ( 'NONE', *, *, #436, .F. ) ;
#180 = LINE ( 'NONE', #586, #703 ) ;
#181 = CARTESIAN_POINT ( 'NONE',  ( 10.00000000000000000, -1.850000000000000533, 2.000000000000000000 ) ) ;
#182 = DIRECTION ( 'NONE',  ( -0.000000000000000000, 1.000000000000000000, -0.000000000000000000 ) ) ;
#183 = EDGE_LOOP ( 'NONE', ( #710, #432, #499, #229, #419, #744 ) ) ;
#184 = DIRECTION ( 'NONE',  ( 0.000000000000000000, 0.000000000000000000, 1.000000000000000000 ) ) ;
#185 = AXIS2_PLACEMENT_3D ( 'NONE', #553, #287, #225 ) ;
#186 = AXIS2_PLACEMENT_3D ( 'NONE', #274, #323, #17 ) ;
#187 = CARTESIAN_POINT ( 'NONE',  ( 2.649999999999999467, 6.149999999999999467, 0.000000000000000000 ) ) ;
#188 = CIRCLE ( 'NONE', #813, 2.000000000000000000 ) ;
#189 = LINE ( 'NONE', #844, #677 ) ;
#190 = ORIENTED_EDGE ( 'NONE', *, *, #334, .T. ) ;
#191 = DIRECTION ( 'NONE',  ( -0.000000000000000000, -0.000000000000000000, -1.000000000000000000 ) ) ;
#192 = DIRECTION ( 'NONE',  ( -0.000000000000000000, -1.000000000000000000, -0.000000000000000000 ) ) ;
#193 = ORIENTED_EDGE ( 'NONE', *, *, #831, .T. ) ;
#194 = CARTESIAN_POINT ( 'NONE',  ( -8.000000000000000000, -1.850000000000000533, 0.000000000000000000 ) ) ;
#195 = ORIENTED_EDGE ( 'NONE', *, *, #270, .F. ) ;
#196 = CARTESIAN_POINT ( 'NONE',  ( 8.000000000000001776, -1.850000000000000533, 6.999999999999999112 ) ) ;
#197 = VECTOR ( 'NONE', #304, 1000.000000000000000 ) ;
#198 = VECTOR ( 'NONE', #701, 1000.000000000000000 ) ;
#199 = VECTOR ( 'NONE', #192, 1000.000000000000000 ) ;
#200 = VERTEX_POINT ( 'NONE', #171 ) ;
#201 = DIRECTION ( 'NONE',  ( 1.000000000000000000, -2.017120320903264195E-16, 0.000000000000000000 ) ) ;
#202 = EDGE_CURVE ( 'NONE', #389, #810, #240, .T. ) ;
#203 = CARTESIAN_POINT ( 'NONE',  ( 10.00000000000000000, 1.849999999999999645, 2.000000000000000000 ) ) ;
#204 = APPLICATION_PROTOCOL_DEFINITION ( 'draft international standard', 'automotive_design', 1998, #165 ) ;
#205 = VERTEX_POINT ( 'NONE', #792 ) ;
#206 = EDGE_CURVE ( 'NONE', #768, #45, #212, .T. ) ;
#207 = CARTESIAN_POINT ( 'NONE',  ( -2.649999999999999467, 6.149999999999999467, 10.00000000000000000 ) ) ;
#208 = FACE_OUTER_BOUND ( 'NONE', #723, .T. ) ;
#209 = ORIENTED_EDGE ( 'NONE', *, *, #681, .T. ) ;
#210 = ORIENTED_EDGE ( 'NONE', *, *, #116, .T. ) ;
#211 = EDGE_CURVE ( 'NONE', #810, #228, #771, .T. ) ;
#212 = LINE ( 'NONE', #53, #522 ) ;
#213 = EDGE_CURVE ( 'NONE', #614, #389, #23, .T. ) ;
#214 = CIRCLE ( 'NONE', #351, 0.7500000000000006661 ) ;
#215 = FILL_AREA_STYLE ('',( #14 ) ) ;
#216 = ORIENTED_EDGE ( 'NONE', *, *, #462, .F. ) ;
#217 = CIRCLE ( 'NONE', #158, 0.7500000000000006661 ) ;
#218 = CIRCLE ( 'NONE', #599, 0.7500000000000002220 ) ;
#219 = ORIENTED_EDGE ( 'NONE', *, *, #685, .F. ) ;
#220 = DIRECTION ( 'NONE',  ( -0.000000000000000000, -0.000000000000000000, -1.000000000000000000 ) ) ;
#221 = EDGE_CURVE ( 'NONE', #594, #156, #535, .T. ) ;
#222 = ORIENTED_EDGE ( 'NONE', *, *, #206, .F. ) ;
#223 = VERTEX_POINT ( 'NONE', #319 ) ;
#224 = DIRECTION ( 'NONE',  ( 0.000000000000000000, 0.000000000000000000, 1.000000000000000000 ) ) ;
#225 = DIRECTION ( 'NONE',  ( 1.000000000000000000, 0.000000000000000000, 0.000000000000000000 ) ) ;
#226 = ORIENTED_EDGE ( 'NONE', *, *, #68, .T. ) ;
#227 = DIRECTION ( 'NONE',  ( -0.000000000000000000, -1.000000000000000000, -0.000000000000000000 ) ) ;
#228 = VERTEX_POINT ( 'NONE', #645 ) ;
#229 = ORIENTED_EDGE ( 'NONE', *, *, #267, .F. ) ;
#230 = VECTOR ( 'NONE', #788, 1000.000000000000000 ) ;
#231 = CYLINDRICAL_SURFACE ( 'NONE', #117, 0.7500000000000002220 ) ;
#232 = CIRCLE ( 'NONE', #160, 0.7500000000000002220 ) ;
#233 = DIRECTION ( 'NONE',  ( 0.000000000000000000, 1.000000000000000000, 0.000000000000000000 ) ) ;
#234 = VERTEX_POINT ( 'NONE', #282 ) ;
#235 = EDGE_CURVE ( 'NONE', #533, #739, #74, .T. ) ;
#236 = DIRECTION ( 'NONE',  ( 0.000000000000000000, 1.000000000000000000, 0.000000000000000000 ) ) ;
#237 = DIRECTION ( 'NONE',  ( -0.000000000000000000, 1.000000000000000000, -0.000000000000000000 ) ) ;
#238 = EDGE_LOOP ( 'NONE', ( #764, #195, #261, #209 ) ) ;
#239 = DIRECTION ( 'NONE',  ( 1.000000000000000000, 0.000000000000000000, 0.000000000000000000 ) ) ;
#240 = LINE ( 'NONE', #377, #258 ) ;
#241 = EDGE_LOOP ( 'NONE', ( #608, #460, #695, #469 ) ) ;
#242 = CARTESIAN_POINT ( 'NONE',  ( -8.000000000000000000, -1.850000000000000533, 3.000000000000000444 ) ) ;
#243 = AXIS2_PLACEMENT_3D ( 'NONE', #471, #118, #722 ) ;
#244 = VECTOR ( 'NONE', #182, 1000.000000000000000 ) ;
#245 = EDGE_CURVE ( 'NONE', #114, #205, #606, .T. ) ;
#246 = FACE_BOUND ( 'NONE', #815, .T. ) ;
#247 = DIRECTION ( 'NONE',  ( 0.000000000000000000, 1.000000000000000000, 0.000000000000000000 ) ) ;
#248 = ORIENTED_EDGE ( 'NONE', *, *, #820, .T. ) ;
#249 = EDGE_CURVE ( 'NONE', #156, #324, #664, .T. ) ;
#250 = LINE ( 'NONE', #1, #705 ) ;
#251 = DIRECTION ( 'NONE',  ( -0.000000000000000000, -1.000000000000000000, -0.000000000000000000 ) ) ;
#252 = DIRECTION ( 'NONE',  ( 1.000000000000000000, 0.000000000000000000, 0.000000000000000000 ) ) ;
#253 = VERTEX_POINT ( 'NONE', #187 ) ;
#254 = FACE_BOUND ( 'NONE', #290, .T. ) ;
#255 = LINE ( 'NONE', #519, #271 ) ;
#256 = ORIENTED_EDGE ( 'NONE', *, *, #725, .F. ) ;
#257 = CARTESIAN_POINT ( 'NONE',  ( -8.000000000000001776, -1.850000000000000533, 8.500000000000000000 ) ) ;
#258 = VECTOR ( 'NONE', #758, 1000.000000000000000 ) ;
#259 = AXIS2_PLACEMENT_3D ( 'NONE', #328, #378, #569 ) ;
#260 = CARTESIAN_POINT ( 'NONE',  ( 0.000000000000000000, 6.149999999999999467, 0.000000000000000000 ) ) ;
#261 = ORIENTED_EDGE ( 'NONE', *, *, #334, .F. ) ;
#262 = FACE_OUTER_BOUND ( 'NONE', #734, .T. ) ;
#263 = CARTESIAN_POINT ( 'NONE',  ( 8.000000000000000000, 1.849999999999999645, 2.250000000000000444 ) ) ;
#264 = VERTEX_POINT ( 'NONE', #578 ) ;
#265 = CARTESIAN_POINT ( 'NONE',  ( -10.00000000000000000, 1.849999999999999645, 8.000000000000000000 ) ) ;
#266 = ORIENTED_EDGE ( 'NONE', *, *, #718, .T. ) ;
#267 = EDGE_CURVE ( 'NONE', #114, #521, #457, .T. ) ;
#268 = CARTESIAN_POINT ( 'NONE',  ( 0.000000000000000000, -1.850000000000000533, 10.00000000000000000 ) ) ;
#269 = CARTESIAN_POINT ( 'NONE',  ( -8.000000000000000000, 1.849999999999999645, 8.000000000000000000 ) ) ;
#270 = EDGE_CURVE ( 'NONE', #354, #422, #122, .T. ) ;
#271 = VECTOR ( 'NONE', #344, 1000.000000000000000 ) ;
#272 = VERTEX_POINT ( 'NONE', #477 ) ;
#273 = FACE_OUTER_BOUND ( 'NONE', #440, .T. ) ;
#274 = CARTESIAN_POINT ( 'NONE',  ( 8.000000000000000000, 1.849999999999999645, 2.250000000000000444 ) ) ;
#275 = SHAPE_DEFINITION_REPRESENTATION ( #356, #496 ) ;
#276 = CARTESIAN_POINT ( 'NONE',  ( 10.00000000000000000, 0.000000000000000000, 10.00000000000000000 ) ) ;
#277 = DIRECTION ( 'NONE',  ( 0.000000000000000000, 0.000000000000000000, 1.000000000000000000 ) ) ;
#278 = CARTESIAN_POINT ( 'NONE',  ( 0.000000000000000000, 6.149999999999999467, 10.00000000000000000 ) ) ;
#279 =( LENGTH_UNIT ( ) NAMED_UNIT ( * ) SI_UNIT ( .MILLI., .METRE. ) );
#280 = CARTESIAN_POINT ( 'NONE',  ( -2.649999999999999467, 6.149999999999999467, 10.00000000000000000 ) ) ;
#281 = EDGE_CURVE ( 'NONE', #739, #45, #426, .T. ) ;
#282 = CARTESIAN_POINT ( 'NONE',  ( -8.000000000000000000, 1.849999999999999645, 3.000000000000000444 ) ) ;
#283 = CARTESIAN_POINT ( 'NONE',  ( 8.000000000000000000, 0.000000000000000000, 0.000000000000000000 ) ) ;
#284 = VECTOR ( 'NONE', #361, 1000.000000000000000 ) ;
#285 = ORIENTED_EDGE ( 'NONE', *, *, #68, .F. ) ;
#286 = DIRECTION ( 'NONE',  ( 0.000000000000000000, 0.000000000000000000, 1.000000000000000000 ) ) ;
#287 = DIRECTION ( 'NONE',  ( -0.000000000000000000, 0.000000000000000000, 1.000000000000000000 ) ) ;
#288 = ORIENTED_EDGE ( 'NONE', *, *, #552, .F. ) ;
#289 = CARTESIAN_POINT ( 'NONE',  ( -5.000000000000000000, -1.008560160451632073E-15, 10.00000000000000000 ) ) ;
#290 = EDGE_LOOP ( 'NONE', ( #550, #210 ) ) ;
#291 = EDGE_CURVE ( 'NONE', #768, #533, #757, .T. ) ;
#292 =( NAMED_UNIT ( * ) SI_UNIT ( $, .STERADIAN. ) SOLID_ANGLE_UNIT ( ) );
#293 = FACE_OUTER_BOUND ( 'NONE', #444, .T. ) ;
#294 = EDGE_CURVE ( 'NONE', #360, #679, #387, .T. ) ;
#295 = AXIS2_PLACEMENT_3D ( 'NONE', #27, #669, #345 ) ;
#296 = ORIENTED_EDGE ( 'NONE', *, *, #685, .T. ) ;
#297 = CIRCLE ( 'NONE', #385, 5.000000000000000888 ) ;
#298 = CARTESIAN_POINT ( 'NONE',  ( -10.00000000000000000, -1.850000000000000533, 8.000000000000000000 ) ) ;
#299 = AXIS2_PLACEMENT_3D ( 'NONE', #67, #77, #652 ) ;
#300 = PRODUCT_DEFINITION_FORMATION_WITH_SPECIFIED_SOURCE ( 'Symmetric', '', #779, .NOT_KNOWN. ) ;
#301 = FACE_BOUND ( 'NONE', #777, .T. ) ;
#302 = ORIENTED_EDGE ( 'NONE', *, *, #574, .F. ) ;
#303 = DIRECTION ( 'NONE',  ( 0.000000000000000000, 1.000000000000000000, 0.000000000000000000 ) ) ;
#304 = DIRECTION ( 'NONE',  ( 2.017120320903264195E-16, -1.000000000000000000, 0.000000000000000000 ) ) ;
#305 = EDGE_LOOP ( 'NONE', ( #649, #687, #704, #425 ) ) ;
#306 = CARTESIAN_POINT ( 'NONE',  ( 0.000000000000000000, 6.149999999999999467, 10.00000000000000000 ) ) ;
#307 = ADVANCED_FACE ( 'NONE', ( #208 ), #141, .F. ) ;
#308 = CARTESIAN_POINT ( 'NONE',  ( 5.000000000000000888, 6.149999999999999467, 10.00000000000000000 ) ) ;
#309 = EDGE_CURVE ( 'NONE', #370, #679, #79, .T. ) ;
#310 = FACE_BOUND ( 'NONE', #674, .T. ) ;
#311 = EDGE_LOOP ( 'NONE', ( #506, #50 ) ) ;
#312 = AXIS2_PLACEMENT_3D ( 'NONE', #636, #315, #501 ) ;
#313 = DIRECTION ( 'NONE',  ( 0.000000000000000000, 0.000000000000000000, 1.000000000000000000 ) ) ;
#314 = CIRCLE ( 'NONE', #651, 0.7500000000000006661 ) ;
#315 = DIRECTION ( 'NONE',  ( 0.000000000000000000, 1.000000000000000000, 0.000000000000000000 ) ) ;
#316 =( NAMED_UNIT ( * ) PLANE_ANGLE_UNIT ( ) SI_UNIT ( $, .RADIAN. ) );
#317 = ORIENTED_EDGE ( 'NONE', *, *, #140, .T. ) ;
#318 = DIRECTION ( 'NONE',  ( 0.000000000000000000, 1.000000000000000000, 0.000000000000000000 ) ) ;
#319 = CARTESIAN_POINT ( 'NONE',  ( -8.000000000000001776, -1.850000000000000533, 6.999999999999999112 ) ) ;
#320 = CARTESIAN_POINT ( 'NONE',  ( 8.000000000000001776, -1.850000000000000533, 7.750000000000000000 ) ) ;
#321 = EDGE_LOOP ( 'NONE', ( #783, #87 ) ) ;
#322 = DIRECTION ( 'NONE',  ( -0.000000000000000000, 1.000000000000000000, -0.000000000000000000 ) ) ;
#323 = DIRECTION ( 'NONE',  ( 0.000000000000000000, 1.000000000000000000, 0.000000000000000000 ) ) ;
#324 = VERTEX_POINT ( 'NONE', #203 ) ;
#325 = DIRECTION ( 'NONE',  ( 0.000000000000000000, 0.000000000000000000, 1.000000000000000000 ) ) ;
#326 = CIRCLE ( 'NONE', #730, 2.649999999999999467 ) ;
#327 =( GEOMETRIC_REPRESENTATION_CONTEXT ( 3 ) GLOBAL_UNCERTAINTY_ASSIGNED_CONTEXT ( ( #776 ) ) GLOBAL_UNIT_ASSIGNED_CONTEXT ( ( #279, #20, #591 ) ) REPRESENTATION_CONTEXT ( 'NONE', 'WORKASPACE' ) );
#328 = CARTESIAN_POINT ( 'NONE',  ( -10.00000000000000000, 0.000000000000000000, 10.00000000000000000 ) ) ;
#329 = VERTEX_POINT ( 'NONE', #57 ) ;
#330 = CARTESIAN_POINT ( 'NONE',  ( 8.000000000000001776, 1.849999999999999645, 8.500000000000000000 ) ) ;
#331 = EDGE_CURVE ( 'NONE', #354, #810, #255, .T. ) ;
#332 = ORIENTED_EDGE ( 'NONE', *, *, #281, .T. ) ;
#333 = CARTESIAN_POINT ( 'NONE',  ( 0.000000000000000000, 0.000000000000000000, 10.00000000000000000 ) ) ;
#334 = EDGE_CURVE ( 'NONE', #138, #354, #297, .T. ) ;
#335 = PRESENTATION_STYLE_ASSIGNMENT (( #71 ) ) ;
#336 = ORIENTED_EDGE ( 'NONE', *, *, #485, .T. ) ;
#337 = EDGE_CURVE ( 'NONE', #562, #223, #217, .T. ) ;
#338 = CARTESIAN_POINT ( 'NONE',  ( 8.000000000000001776, -1.850000000000000533, 7.750000000000000000 ) ) ;
#339 = DIRECTION ( 'NONE',  ( -0.000000000000000000, -0.000000000000000000, -1.000000000000000000 ) ) ;
#340 = CIRCLE ( 'NONE', #102, 0.7500000000000006661 ) ;
#341 = VECTOR ( 'NONE', #714, 1000.000000000000000 ) ;
#342 = ORIENTED_EDGE ( 'NONE', *, *, #746, .T. ) ;
#343 = DIRECTION ( 'NONE',  ( 0.000000000000000000, 1.000000000000000000, 0.000000000000000000 ) ) ;
#344 = DIRECTION ( 'NONE',  ( 2.017120320903264195E-16, -1.000000000000000000, 0.000000000000000000 ) ) ;
#345 = DIRECTION ( 'NONE',  ( 0.000000000000000000, 0.000000000000000000, -1.000000000000000000 ) ) ;
#346 = ORIENTED_EDGE ( 'NONE', *, *, #659, .F. ) ;
#347 = CARTESIAN_POINT ( 'NONE',  ( 8.000000000000001776, 1.849999999999999645, 7.750000000000000000 ) ) ;
#348 = DIRECTION ( 'NONE',  ( 0.000000000000000000, 0.000000000000000000, 1.000000000000000000 ) ) ;
#349 = DIRECTION ( 'NONE',  ( 0.000000000000000000, 1.000000000000000000, 0.000000000000000000 ) ) ;
#350 = CARTESIAN_POINT ( 'NONE',  ( -5.000000000000000888, 6.149999999999999467, 0.000000000000000000 ) ) ;
#351 = AXIS2_PLACEMENT_3D ( 'NONE', #575, #43, #450 ) ;
#352 = CARTESIAN_POINT ( 'NONE',  ( -8.000000000000001776, 1.849999999999999645, 8.500000000000000000 ) ) ;
#353 = CIRCLE ( 'NONE', #78, 5.000000000000000888 ) ;
#354 = VERTEX_POINT ( 'NONE', #82 ) ;
#355 = FACE_OUTER_BOUND ( 'NONE', #305, .T. ) ;
#356 = PRODUCT_DEFINITION_SHAPE ( 'NONE', 'NONE',  #770 ) ;
#357 = EDGE_CURVE ( 'NONE', #379, #699, #144, .T. ) ;
#358 = ADVANCED_FACE ( 'NONE', ( #355 ), #231, .F. ) ;
#359 = CARTESIAN_POINT ( 'NONE',  ( 8.000000000000000000, -1.850000000000000533, 0.000000000000000000 ) ) ;
#360 = VERTEX_POINT ( 'NONE', #627 ) ;
#361 = DIRECTION ( 'NONE',  ( -2.017120320903264195E-16, -1.000000000000000000, 0.000000000000000000 ) ) ;
#362 = MANIFOLD_SOLID_BREP ( 'Cut-Extrude1', #611 ) ;
#363 = EDGE_CURVE ( 'NONE', #28, #264, #493, .T. ) ;
#364 = CARTESIAN_POINT ( 'NONE',  ( 8.000000000000000000, -1.850000000000000533, 2.250000000000000444 ) ) ;
#365 = VERTEX_POINT ( 'NONE', #684 ) ;
#366 = DIRECTION ( 'NONE',  ( 0.000000000000000000, 0.000000000000000000, 1.000000000000000000 ) ) ;
#367 = ADVANCED_FACE ( 'NONE', ( #155 ), #620, .T. ) ;
#368 = CARTESIAN_POINT ( 'NONE',  ( -8.000000000000001776, -1.850000000000000533, 7.750000000000000000 ) ) ;
#369 = VECTOR ( 'NONE', #630, 1000.000000000000000 ) ;
#370 = VERTEX_POINT ( 'NONE', #298 ) ;
#371 = CIRCLE ( 'NONE', #479, 2.649999999999999467 ) ;
#372 = CARTESIAN_POINT ( 'NONE',  ( -8.000000000000001776, 1.849999999999999645, 7.750000000000000000 ) ) ;
#373 = FACE_OUTER_BOUND ( 'NONE', #846, .T. ) ;
#374 = EDGE_CURVE ( 'NONE', #324, #10, #169, .T. ) ;
#375 = ORIENTED_EDGE ( 'NONE', *, *, #153, .F. ) ;
#376 = CYLINDRICAL_SURFACE ( 'NONE', #548, 0.7500000000000006661 ) ;
#377 = CARTESIAN_POINT ( 'NONE',  ( 0.000000000000000000, 1.849999999999999645, 10.00000000000000000 ) ) ;
#378 = DIRECTION ( 'NONE',  ( -1.000000000000000000, 0.000000000000000000, 0.000000000000000000 ) ) ;
#379 = VERTEX_POINT ( 'NONE', #807 ) ;
#380 = CARTESIAN_POINT ( 'NONE',  ( -8.000000000000000000, -1.850000000000000533, 8.000000000000000000 ) ) ;
#381 = UNCERTAINTY_MEASURE_WITH_UNIT (LENGTH_MEASURE( 1.000000000000000082E-05 ), #59, 'distance_accuracy_value', 'NONE');
#382 = DIRECTION ( 'NONE',  ( -0.000000000000000000, 1.000000000000000000, -0.000000000000000000 ) ) ;
#383 = EDGE_LOOP ( 'NONE', ( #375, #405, #557, #472 ) ) ;
#384 = DIRECTION ( 'NONE',  ( -0.000000000000000000, 1.000000000000000000, -0.000000000000000000 ) ) ;
#385 = AXIS2_PLACEMENT_3D ( 'NONE', #544, #795, #582 ) ;
#386 = PRESENTATION_LAYER_ASSIGNMENT (  '', '', ( #689 ) ) ;
#387 = LINE ( 'NONE', #641, #230 ) ;
#388 = CARTESIAN_POINT ( 'NONE',  ( 8.000000000000000000, -1.850000000000000533, 2.000000000000000000 ) ) ;
#389 = VERTEX_POINT ( 'NONE', #420 ) ;
#390 = CARTESIAN_POINT ( 'NONE',  ( -8.000000000000000000, -1.850000000000000533, 1.499999999999999778 ) ) ;
#391 = EDGE_CURVE ( 'NONE', #679, #639, #525, .T. ) ;
#392 = DIRECTION ( 'NONE',  ( -0.000000000000000000, -0.000000000000000000, -1.000000000000000000 ) ) ;
#393 = LINE ( 'NONE', #759, #199 ) ;
#394 = ORIENTED_EDGE ( 'NONE', *, *, #357, .F. ) ;
#395 = PLANE ( 'NONE',  #478 ) ;
#396 = DIRECTION ( 'NONE',  ( 0.000000000000000000, 1.000000000000000000, 0.000000000000000000 ) ) ;
#397 = ORIENTED_EDGE ( 'NONE', *, *, #221, .T. ) ;
#398 = DIRECTION ( 'NONE',  ( 0.000000000000000000, 0.000000000000000000, 1.000000000000000000 ) ) ;
#399 = AXIS2_PLACEMENT_3D ( 'NONE', #347, #740, #286 ) ;
#400 = VECTOR ( 'NONE', #384, 1000.000000000000000 ) ;
#401 = ORIENTED_EDGE ( 'NONE', *, *, #245, .F. ) ;
#402 = EDGE_CURVE ( 'NONE', #565, #616, #326, .T. ) ;
#403 = DIRECTION ( 'NONE',  ( 1.000000000000000000, 0.000000000000000000, 0.000000000000000000 ) ) ;
#404 = EDGE_CURVE ( 'NONE', #699, #379, #314, .T. ) ;
#405 = ORIENTED_EDGE ( 'NONE', *, *, #806, .F. ) ;
#406 = FACE_OUTER_BOUND ( 'NONE', #822, .T. ) ;
#407 = DIRECTION ( 'NONE',  ( -0.000000000000000000, -0.000000000000000000, -1.000000000000000000 ) ) ;
#408 = ORIENTED_EDGE ( 'NONE', *, *, #66, .T. ) ;
#409 = CARTESIAN_POINT ( 'NONE',  ( 8.000000000000000000, -1.850000000000000533, 2.250000000000000444 ) ) ;
#410 = DIRECTION ( 'NONE',  ( -0.000000000000000000, 1.000000000000000000, -0.000000000000000000 ) ) ;
#411 = AXIS2_PLACEMENT_3D ( 'NONE', #368, #382, #692 ) ;
#412 = CIRCLE ( 'NONE', #62, 0.7500000000000002220 ) ;
#413 = PRESENTATION_LAYER_ASSIGNMENT (  '', '', ( #585 ) ) ;
#414 = AXIS2_PLACEMENT_3D ( 'NONE', #306, #566, #517 ) ;
#415 = CARTESIAN_POINT ( 'NONE',  ( -8.000000000000000000, 1.849999999999999645, 0.000000000000000000 ) ) ;
#416 = ORIENTED_EDGE ( 'NONE', *, *, #429, .T. ) ;
#417 = DIRECTION ( 'NONE',  ( 0.000000000000000000, 0.000000000000000000, -1.000000000000000000 ) ) ;
#418 = DIRECTION ( 'NONE',  ( 0.000000000000000000, 0.000000000000000000, 1.000000000000000000 ) ) ;
#419 = ORIENTED_EDGE ( 'NONE', *, *, #245, .T. ) ;
#420 = CARTESIAN_POINT ( 'NONE',  ( -8.000000000000000000, 1.849999999999999645, 10.00000000000000000 ) ) ;
#421 = EDGE_LOOP ( 'NONE', ( #75, #60, #530, #22 ) ) ;
#422 = VERTEX_POINT ( 'NONE', #350 ) ;
#423 = CARTESIAN_POINT ( 'NONE',  ( 0.000000000000000000, 6.149999999999999467, 10.00000000000000000 ) ) ;
#424 = ADVANCED_FACE ( 'NONE', ( #500 ), #803, .F. ) ;
#425 = ORIENTED_EDGE ( 'NONE', *, *, #659, .T. ) ;
#426 = CIRCLE ( 'NONE', #186, 0.7500000000000002220 ) ;
#427 = MECHANICAL_DESIGN_GEOMETRIC_PRESENTATION_REPRESENTATION (  '', ( #689 ), #327 ) ;
#428 = EDGE_LOOP ( 'NONE', ( #150, #654, #342, #248, #805, #690, #435, #737 ) ) ;
#429 = EDGE_CURVE ( 'NONE', #365, #521, #486, .T. ) ;
#430 = CARTESIAN_POINT ( 'NONE',  ( 8.000000000000001776, 1.849999999999999645, 7.750000000000000000 ) ) ;
#431 = FACE_OUTER_BOUND ( 'NONE', #463, .T. ) ;
#432 = ORIENTED_EDGE ( 'NONE', *, *, #374, .T. ) ;
#433 = SURFACE_STYLE_FILL_AREA ( #151 ) ;
#434 = FACE_OUTER_BOUND ( 'NONE', #760, .T. ) ;
#435 = ORIENTED_EDGE ( 'NONE', *, *, #670, .F. ) ;
#436 = EDGE_CURVE ( 'NONE', #389, #163, #675, .T. ) ;
#437 = PRESENTATION_STYLE_ASSIGNMENT (( #819 ) ) ;
#438 = DIRECTION ( 'NONE',  ( 0.000000000000000000, 0.000000000000000000, 1.000000000000000000 ) ) ;
#439 = AXIS2_PLACEMENT_3D ( 'NONE', #748, #817, #697 ) ;
#440 = EDGE_LOOP ( 'NONE', ( #829, #802, #583, #146 ) ) ;
#441 = DIRECTION ( 'NONE',  ( 0.000000000000000000, 0.000000000000000000, 1.000000000000000000 ) ) ;
#442 = LINE ( 'NONE', #166, #197 ) ;
#443 = FACE_OUTER_BOUND ( 'NONE', #3, .T. ) ;
#444 = EDGE_LOOP ( 'NONE', ( #84, #15, #447, #173 ) ) ;
#445 = CYLINDRICAL_SURFACE ( 'NONE', #812, 2.000000000000000000 ) ;
#446 = FACE_BOUND ( 'NONE', #780, .T. ) ;
#447 = ORIENTED_EDGE ( 'NONE', *, *, #52, .T. ) ;
#448 = FACE_OUTER_BOUND ( 'NONE', #238, .T. ) ;
#449 = EDGE_CURVE ( 'NONE', #614, #360, #490, .T. ) ;
#450 = DIRECTION ( 'NONE',  ( 0.000000000000000000, 0.000000000000000000, -1.000000000000000000 ) ) ;
#451 = CARTESIAN_POINT ( 'NONE',  ( 10.00000000000000000, 1.849999999999999645, 10.00000000000000000 ) ) ;
#452 = ORIENTED_EDGE ( 'NONE', *, *, #694, .T. ) ;
#453 = AXIS2_PLACEMENT_3D ( 'NONE', #364, #177, #438 ) ;
#454 = DIRECTION ( 'NONE',  ( -0.000000000000000000, 0.000000000000000000, 1.000000000000000000 ) ) ;
#455 = EDGE_CURVE ( 'NONE', #65, #152, #785, .T. ) ;
#456 = VECTOR ( 'NONE', #220, 1000.000000000000000 ) ;
#457 = LINE ( 'NONE', #799, #676 ) ;
#458 = EDGE_LOOP ( 'NONE', ( #502, #97, #633, #749 ) ) ;
#459 = FACE_OUTER_BOUND ( 'NONE', #241, .T. ) ;
#460 = ORIENTED_EDGE ( 'NONE', *, *, #29, .F. ) ;
#461 = CARTESIAN_POINT ( 'NONE',  ( 5.000000000000000888, 6.149999999999999467, 10.00000000000000000 ) ) ;
#462 = EDGE_CURVE ( 'NONE', #138, #114, #115, .T. ) ;
#463 = EDGE_LOOP ( 'NONE', ( #397, #55, #256, #617 ) ) ;
#464 = DIRECTION ( 'NONE',  ( 0.000000000000000000, 0.000000000000000000, 1.000000000000000000 ) ) ;
#465 = VECTOR ( 'NONE', #143, 1000.000000000000000 ) ;
#466 = ADVANCED_FACE ( 'NONE', ( #775 ), #769, .F. ) ;
#467 = AXIS2_PLACEMENT_3D ( 'NONE', #555, #483, #680 ) ;
#468 = AXIS2_PLACEMENT_3D ( 'NONE', #388, #172, #49 ) ;
#469 = ORIENTED_EDGE ( 'NONE', *, *, #249, .F. ) ;
#470 = LINE ( 'NONE', #461, #341 ) ;
#471 = CARTESIAN_POINT ( 'NONE',  ( 8.000000000000000000, -1.850000000000000533, 2.250000000000000444 ) ) ;
#472 = ORIENTED_EDGE ( 'NONE', *, *, #26, .F. ) ;
#473 = CARTESIAN_POINT ( 'NONE',  ( -8.000000000000000000, 1.849999999999999645, 2.250000000000000444 ) ) ;
#474 = DIRECTION ( 'NONE',  ( -1.000000000000000000, 0.000000000000000000, 0.000000000000000000 ) ) ;
#475 = DIRECTION ( 'NONE',  ( 0.000000000000000000, 1.000000000000000000, -0.000000000000000000 ) ) ;
#476 = ORIENTED_EDGE ( 'NONE', *, *, #609, .T. ) ;
#477 = CARTESIAN_POINT ( 'NONE',  ( -8.000000000000000000, 1.849999999999999645, 1.499999999999999778 ) ) ;
#478 = AXIS2_PLACEMENT_3D ( 'NONE', #754, #454, #168 ) ;
#479 = AXIS2_PLACEMENT_3D ( 'NONE', #260, #108, #44 ) ;
#480 = SURFACE_SIDE_STYLE ('',( #6 ) ) ;
#481 = EDGE_LOOP ( 'NONE', ( #733, #179, #626, #580 ) ) ;
#482 = ORIENTED_EDGE ( 'NONE', *, *, #363, .T. ) ;
#483 = DIRECTION ( 'NONE',  ( 0.000000000000000000, 1.000000000000000000, 0.000000000000000000 ) ) ;
#484 = CARTESIAN_POINT ( 'NONE',  ( 8.000000000000001776, -1.850000000000000533, 6.999999999999999112 ) ) ;
#485 = EDGE_CURVE ( 'NONE', #41, #228, #180, .T. ) ;
#486 = LINE ( 'NONE', #738, #284 ) ;
#487 = EDGE_LOOP ( 'NONE', ( #167, #105, #683, #527 ) ) ;
#488 = ADVANCED_FACE ( 'NONE', ( #459 ), #445, .T. ) ;
#489 = VERTEX_POINT ( 'NONE', #503 ) ;
#490 = LINE ( 'NONE', #95, #34 ) ;
#491 = CIRCLE ( 'NONE', #784, 2.000000000000000000 ) ;
#492 = EDGE_LOOP ( 'NONE', ( #346, #38 ) ) ;
#493 = CIRCLE ( 'NONE', #505, 0.7500000000000006661 ) ;
#494 = VECTOR ( 'NONE', #252, 1000.000000000000000 ) ;
#495 = EDGE_LOOP ( 'NONE', ( #226, #753, #629, #774 ) ) ;
#496 = ADVANCED_BREP_SHAPE_REPRESENTATION ( 'Jaw holder - 2', ( #362, #653 ), #103 ) ;
#497 = FACE_BOUND ( 'NONE', #134, .T. ) ;
#498 = ADVANCED_FACE ( 'NONE', ( #254, #696 ), #395, .F. ) ;
#499 = ORIENTED_EDGE ( 'NONE', *, *, #609, .F. ) ;
#500 = FACE_OUTER_BOUND ( 'NONE', #495, .T. ) ;
#501 = DIRECTION ( 'NONE',  ( 0.000000000000000000, -0.000000000000000000, 1.000000000000000000 ) ) ;
#502 = ORIENTED_EDGE ( 'NONE', *, *, #391, .F. ) ;
#503 = CARTESIAN_POINT ( 'NONE',  ( 8.000000000000000000, -1.850000000000000533, 10.00000000000000000 ) ) ;
#504 = CARTESIAN_POINT ( 'NONE',  ( 8.000000000000001776, -1.850000000000000533, 8.500000000000000000 ) ) ;
#505 = AXIS2_PLACEMENT_3D ( 'NONE', #372, #39, #366 ) ;
#506 = ORIENTED_EDGE ( 'NONE', *, *, #66, .F. ) ;
#507 = LINE ( 'NONE', #242, #400 ) ;
#508 = DIRECTION ( 'NONE',  ( -0.000000000000000000, 0.000000000000000000, 1.000000000000000000 ) ) ;
#509 = PLANE ( 'NONE',  #259 ) ;
#510 = ORIENTED_EDGE ( 'NONE', *, *, #449, .F. ) ;
#511 = EDGE_CURVE ( 'NONE', #264, #28, #340, .T. ) ;
#512 = DIRECTION ( 'NONE',  ( 0.000000000000000000, 1.000000000000000000, 0.000000000000000000 ) ) ;
#513 = CARTESIAN_POINT ( 'NONE',  ( 5.000000000000000000, 1.849999999999999645, 10.00000000000000000 ) ) ;
#514 = LINE ( 'NONE', #838, #827 ) ;
#515 = ADVANCED_FACE ( 'NONE', ( #823 ), #376, .F. ) ;
#516 = ORIENTED_EDGE ( 'NONE', *, *, #750, .T. ) ;
#517 = DIRECTION ( 'NONE',  ( -1.000000000000000000, 0.000000000000000000, 0.000000000000000000 ) ) ;
#518 = UNCERTAINTY_MEASURE_WITH_UNIT (LENGTH_MEASURE( 1.000000000000000082E-05 ), #747, 'distance_accuracy_value', 'NONE');
#519 = CARTESIAN_POINT ( 'NONE',  ( -5.000000000000000000, -1.008560160451632073E-15, 10.00000000000000000 ) ) ;
#520 = DIRECTION ( 'NONE',  ( -0.000000000000000000, 0.000000000000000000, 1.000000000000000000 ) ) ;
#521 = VERTEX_POINT ( 'NONE', #691 ) ;
#522 = VECTOR ( 'NONE', #410, 1000.000000000000000 ) ;
#523 = VECTOR ( 'NONE', #604, 1000.000000000000000 ) ;
#524 = CARTESIAN_POINT ( 'NONE',  ( 5.000000000000000000, -1.008560160451632073E-15, 10.00000000000000000 ) ) ;
#525 = CIRCLE ( 'NONE', #89, 2.000000000000000000 ) ;
#526 = VECTOR ( 'NONE', #56, 1000.000000000000000 ) ;
#527 = ORIENTED_EDGE ( 'NONE', *, *, #782, .T. ) ;
#528 = FACE_OUTER_BOUND ( 'NONE', #643, .T. ) ;
#529 = ADVANCED_FACE ( 'NONE', ( #448 ), #42, .T. ) ;
#530 = ORIENTED_EDGE ( 'NONE', *, *, #111, .T. ) ;
#531 = EDGE_CURVE ( 'NONE', #161, #234, #507, .T. ) ;
#532 = DIRECTION ( 'NONE',  ( 1.000000000000000000, 0.000000000000000000, 0.000000000000000000 ) ) ;
#533 = VERTEX_POINT ( 'NONE', #836 ) ;
#534 = LINE ( 'NONE', #781, #549 ) ;
#535 = LINE ( 'NONE', #136, #456 ) ;
#536 =( GEOMETRIC_REPRESENTATION_CONTEXT ( 3 ) GLOBAL_UNCERTAINTY_ASSIGNED_CONTEXT ( ( #518 ) ) GLOBAL_UNIT_ASSIGNED_CONTEXT ( ( #747, #164, #292 ) ) REPRESENTATION_CONTEXT ( 'NONE', 'WORKASPACE' ) );
#537 = VECTOR ( 'NONE', #830, 1000.000000000000000 ) ;
#538 = PRODUCT_CONTEXT ( 'NONE', #709, 'mechanical' ) ;
#539 = ORIENTED_EDGE ( 'NONE', *, *, #337, .T. ) ;
#540 = CARTESIAN_POINT ( 'NONE',  ( 10.00000000000000000, -1.850000000000000533, 8.000000000000000000 ) ) ;
#541 = DIRECTION ( 'NONE',  ( -0.000000000000000000, 1.000000000000000000, -0.000000000000000000 ) ) ;
#542 = LINE ( 'NONE', #794, #650 ) ;
#543 = EDGE_CURVE ( 'NONE', #41, #360, #188, .T. ) ;
#544 = CARTESIAN_POINT ( 'NONE',  ( 0.000000000000000000, 6.149999999999999467, 10.00000000000000000 ) ) ;
#545 = DIRECTION ( 'NONE',  ( -0.000000000000000000, -0.000000000000000000, -1.000000000000000000 ) ) ;
#546 = VERTEX_POINT ( 'NONE', #390 ) ;
#547 = CARTESIAN_POINT ( 'NONE',  ( 10.00000000000000000, 0.000000000000000000, 2.000000000000000000 ) ) ;
#548 = AXIS2_PLACEMENT_3D ( 'NONE', #706, #647, #441 ) ;
#549 = VECTOR ( 'NONE', #403, 1000.000000000000000 ) ;
#550 = ORIENTED_EDGE ( 'NONE', *, *, #839, .T. ) ;
#551 = CARTESIAN_POINT ( 'NONE',  ( -8.000000000000000000, -1.850000000000000533, 2.250000000000000444 ) ) ;
#552 = EDGE_CURVE ( 'NONE', #223, #264, #577, .T. ) ;
#553 = CARTESIAN_POINT ( 'NONE',  ( 0.000000000000000000, 6.149999999999999467, 10.00000000000000000 ) ) ;
#554 = EDGE_CURVE ( 'NONE', #163, #370, #845, .T. ) ;
#555 = CARTESIAN_POINT ( 'NONE',  ( 8.000000000000000000, 1.849999999999999645, 2.000000000000000000 ) ) ;
#556 = EDGE_CURVE ( 'NONE', #546, #161, #218, .T. ) ;
#557 = ORIENTED_EDGE ( 'NONE', *, *, #58, .F. ) ;
#558 = DIRECTION ( 'NONE',  ( -0.000000000000000000, 0.000000000000000000, 1.000000000000000000 ) ) ;
#559 = FACE_OUTER_BOUND ( 'NONE', #428, .T. ) ;
#560 = AXIS2_PLACEMENT_3D ( 'NONE', #278, #837, #474 ) ;
#561 = CARTESIAN_POINT ( 'NONE',  ( 8.000000000000000000, -1.850000000000000533, 2.250000000000000444 ) ) ;
#562 = VERTEX_POINT ( 'NONE', #257 ) ;
#563 = DIRECTION ( 'NONE',  ( 0.000000000000000000, 0.000000000000000000, 1.000000000000000000 ) ) ;
#564 = FACE_OUTER_BOUND ( 'NONE', #818, .T. ) ;
#565 = VERTEX_POINT ( 'NONE', #634 ) ;
#566 = DIRECTION ( 'NONE',  ( -0.000000000000000000, -0.000000000000000000, -1.000000000000000000 ) ) ;
#567 = DIRECTION ( 'NONE',  ( 0.000000000000000000, 1.000000000000000000, -0.000000000000000000 ) ) ;
#568 = EDGE_CURVE ( 'NONE', #565, #253, #46, .T. ) ;
#569 = DIRECTION ( 'NONE',  ( 0.000000000000000000, 0.000000000000000000, 1.000000000000000000 ) ) ;
#570 = AXIS2_PLACEMENT_3D ( 'NONE', #289, #610, #24 ) ;
#571 = ORIENTED_EDGE ( 'NONE', *, *, #511, .T. ) ;
#572 = CIRCLE ( 'NONE', #743, 0.7500000000000006661 ) ;
#573 = CARTESIAN_POINT ( 'NONE',  ( 2.649999999999999467, 6.149999999999999467, 10.00000000000000000 ) ) ;
#574 = EDGE_CURVE ( 'NONE', #562, #28, #250, .T. ) ;
#575 = CARTESIAN_POINT ( 'NONE',  ( -8.000000000000001776, -1.850000000000000533, 7.750000000000000000 ) ) ;
#576 = ORIENTED_EDGE ( 'NONE', *, *, #809, .T. ) ;
#577 = LINE ( 'NONE', #644, #526 ) ;
#578 = CARTESIAN_POINT ( 'NONE',  ( -8.000000000000001776, 1.849999999999999645, 6.999999999999999112 ) ) ;
#579 = DIRECTION ( 'NONE',  ( 0.000000000000000000, 0.000000000000000000, 1.000000000000000000 ) ) ;
#580 = ORIENTED_EDGE ( 'NONE', *, *, #750, .F. ) ;
#581 = DIRECTION ( 'NONE',  ( 0.000000000000000000, 0.000000000000000000, 1.000000000000000000 ) ) ;
#582 = DIRECTION ( 'NONE',  ( 1.000000000000000000, 0.000000000000000000, 0.000000000000000000 ) ) ;
#583 = ORIENTED_EDGE ( 'NONE', *, *, #462, .T. ) ;
#584 = CIRCLE ( 'NONE', #842, 2.000000000000000000 ) ;
#585 = STYLED_ITEM ( 'NONE', ( #437 ), #362 ) ;
#586 = CARTESIAN_POINT ( 'NONE',  ( -0.000000000000000000, 1.849999999999999645, 0.000000000000000000 ) ) ;
#587 = COLOUR_RGB ( '',1.000000000000000000, 1.000000000000000000, 0.5019607843137254832 ) ;
#588 = LINE ( 'NONE', #63, #625 ) ;
#589 = ORIENTED_EDGE ( 'NONE', *, *, #574, .T. ) ;
#590 = LINE ( 'NONE', #196, #244 ) ;
#591 =( NAMED_UNIT ( * ) SI_UNIT ( $, .STERADIAN. ) SOLID_ANGLE_UNIT ( ) );
#592 = ORIENTED_EDGE ( 'NONE', *, *, #436, .T. ) ;
#593 = PLANE ( 'NONE',  #12 ) ;
#594 = VERTEX_POINT ( 'NONE', #540 ) ;
#595 = ADVANCED_FACE ( 'NONE', ( #262 ), #662, .F. ) ;
#596 = DIRECTION ( 'NONE',  ( -0.000000000000000000, 1.000000000000000000, -0.000000000000000000 ) ) ;
#597 = VECTOR ( 'NONE', #545, 1000.000000000000000 ) ;
#598 = DIRECTION ( 'NONE',  ( 0.000000000000000000, 0.000000000000000000, 1.000000000000000000 ) ) ;
#599 = AXIS2_PLACEMENT_3D ( 'NONE', #841, #176, #110 ) ;
#600 = ADVANCED_FACE ( 'NONE', ( #528 ), #778, .F. ) ;
#601 = CARTESIAN_POINT ( 'NONE',  ( 0.000000000000000000, 0.000000000000000000, 0.000000000000000000 ) ) ;
#602 = ORIENTED_EDGE ( 'NONE', *, *, #449, .T. ) ;
#603 = CARTESIAN_POINT ( 'NONE',  ( -10.00000000000000000, -1.850000000000000533, 2.000000000000000000 ) ) ;
#604 = DIRECTION ( 'NONE',  ( 1.000000000000000000, 0.000000000000000000, 0.000000000000000000 ) ) ;
#605 = ORIENTED_EDGE ( 'NONE', *, *, #556, .F. ) ;
#606 = LINE ( 'NONE', #731, #523 ) ;
#607 = CARTESIAN_POINT ( 'NONE',  ( 8.000000000000000000, 1.849999999999999645, 8.000000000000000000 ) ) ;
#608 = ORIENTED_EDGE ( 'NONE', *, *, #820, .F. ) ;
#609 = EDGE_CURVE ( 'NONE', #521, #10, #534, .T. ) ;
#610 = DIRECTION ( 'NONE',  ( 1.000000000000000000, 2.017120320903264195E-16, -0.000000000000000000 ) ) ;
#611 = CLOSED_SHELL ( 'NONE', ( #595, #466, #600, #92, #307, #656, #529, #424, #126, #720, #175, #5, #174, #741, #637, #498, #635, #367, #488, #48, #178, #515, #137, #358 ) ) ;
#612 = AXIS2_PLACEMENT_3D ( 'NONE', #640, #512, #325 ) ;
#613 = AXIS2_PLACEMENT_3D ( 'NONE', #133, #343, #277 ) ;
#614 = VERTEX_POINT ( 'NONE', #265 ) ;
#615 = DIRECTION ( 'NONE',  ( 0.000000000000000000, 0.000000000000000000, 1.000000000000000000 ) ) ;
#616 = VERTEX_POINT ( 'NONE', #207 ) ;
#617 = ORIENTED_EDGE ( 'NONE', *, *, #806, .T. ) ;
#618 = CARTESIAN_POINT ( 'NONE',  ( -8.000000000000000000, -1.850000000000000533, 10.00000000000000000 ) ) ;
#619 = ORIENTED_EDGE ( 'NONE', *, *, #235, .T. ) ;
#620 = CYLINDRICAL_SURFACE ( 'NONE', #35, 2.000000000000000000 ) ;
#621 = AXIS2_PLACEMENT_3D ( 'NONE', #561, #237, #107 ) ;
#622 = VECTOR ( 'NONE', #392, 1000.000000000000000 ) ;
#623 = CARTESIAN_POINT ( 'NONE',  ( 8.000000000000001776, -1.850000000000000533, 8.500000000000000000 ) ) ;
#624 = CIRCLE ( 'NONE', #613, 0.7500000000000002220 ) ;
#625 = VECTOR ( 'NONE', #247, 1000.000000000000000 ) ;
#626 = ORIENTED_EDGE ( 'NONE', *, *, #213, .F. ) ;
#627 = CARTESIAN_POINT ( 'NONE',  ( -10.00000000000000000, 1.849999999999999645, 2.000000000000000000 ) ) ;
#628 = PLANE ( 'NONE',  #157 ) ;
#629 = ORIENTED_EDGE ( 'NONE', *, *, #331, .F. ) ;
#630 = DIRECTION ( 'NONE',  ( -2.017120320903264195E-16, -1.000000000000000000, 0.000000000000000000 ) ) ;
#631 = PLANE ( 'NONE',  #312 ) ;
#632 = DIRECTION ( 'NONE',  ( 0.000000000000000000, 1.000000000000000000, -0.000000000000000000 ) ) ;
#633 = ORIENTED_EDGE ( 'NONE', *, *, #543, .F. ) ;
#634 = CARTESIAN_POINT ( 'NONE',  ( 2.649999999999999467, 6.149999999999999467, 10.00000000000000000 ) ) ;
#635 = ADVANCED_FACE ( 'NONE', ( #73 ), #135, .T. ) ;
#636 = CARTESIAN_POINT ( 'NONE',  ( 0.000000000000000000, 1.849999999999999645, 10.00000000000000000 ) ) ;
#637 = ADVANCED_FACE ( 'NONE', ( #11, #406 ), #786, .T. ) ;
#638 = FACE_OUTER_BOUND ( 'NONE', #183, .T. ) ;
#639 = VERTEX_POINT ( 'NONE', #194 ) ;
#640 = CARTESIAN_POINT ( 'NONE',  ( 8.000000000000001776, -1.850000000000000533, 7.750000000000000000 ) ) ;
#641 = CARTESIAN_POINT ( 'NONE',  ( -10.00000000000000000, -1.850000000000000533, 2.000000000000000000 ) ) ;
#642 = CARTESIAN_POINT ( 'NONE',  ( 8.000000000000000000, 1.849999999999999645, 1.499999999999999778 ) ) ;
#643 = EDGE_LOOP ( 'NONE', ( #72, #266, #713, #667 ) ) ;
#644 = CARTESIAN_POINT ( 'NONE',  ( -8.000000000000001776, -1.850000000000000533, 6.999999999999999112 ) ) ;
#645 = CARTESIAN_POINT ( 'NONE',  ( -5.000000000000000888, 1.849999999999999645, 0.000000000000000000 ) ) ;
#646 = ORIENTED_EDGE ( 'NONE', *, *, #531, .F. ) ;
#647 = DIRECTION ( 'NONE',  ( -0.000000000000000000, 1.000000000000000000, -0.000000000000000000 ) ) ;
#648 = CARTESIAN_POINT ( 'NONE',  ( 0.000000000000000000, 1.849999999999999645, 10.00000000000000000 ) ) ;
#649 = ORIENTED_EDGE ( 'NONE', *, *, #809, .F. ) ;
#650 = VECTOR ( 'NONE', #475, 1000.000000000000000 ) ;
#651 = AXIS2_PLACEMENT_3D ( 'NONE', #430, #236, #615 ) ;
#652 = DIRECTION ( 'NONE',  ( 0.000000000000000000, 0.000000000000000000, -1.000000000000000000 ) ) ;
#653 = AXIS2_PLACEMENT_3D ( 'NONE', #601, #348, #793 ) ;
#654 = ORIENTED_EDGE ( 'NONE', *, *, #391, .T. ) ;
#655 = DIRECTION ( 'NONE',  ( -0.000000000000000000, 1.000000000000000000, -0.000000000000000000 ) ) ;
#656 = ADVANCED_FACE ( 'NONE', ( #273 ), #593, .T. ) ;
#657 = ORIENTED_EDGE ( 'NONE', *, *, #670, .T. ) ;
#658 = DIRECTION ( 'NONE',  ( 2.017120320903264195E-16, 1.000000000000000000, 0.000000000000000000 ) ) ;
#659 = EDGE_CURVE ( 'NONE', #234, #272, #232, .T. ) ;
#660 = DIRECTION ( 'NONE',  ( 0.000000000000000000, 1.000000000000000000, 0.000000000000000000 ) ) ;
#661 = ORIENTED_EDGE ( 'NONE', *, *, #556, .T. ) ;
#662 = CYLINDRICAL_SURFACE ( 'NONE', #25, 0.7500000000000002220 ) ;
#663 = AXIS2_PLACEMENT_3D ( 'NONE', #99, #508, #96 ) ;
#664 = LINE ( 'NONE', #547, #76 ) ;
#665 = MECHANICAL_DESIGN_GEOMETRIC_PRESENTATION_REPRESENTATION (  '', ( #585 ), #536 ) ;
#666 = FACE_OUTER_BOUND ( 'NONE', #383, .T. ) ;
#667 = ORIENTED_EDGE ( 'NONE', *, *, #111, .F. ) ;
#668 = CARTESIAN_POINT ( 'NONE',  ( 8.000000000000000000, -1.850000000000000533, 1.500000000000000000 ) ) ;
#669 = DIRECTION ( 'NONE',  ( 0.000000000000000000, -1.000000000000000000, 0.000000000000000000 ) ) ;
#670 = EDGE_CURVE ( 'NONE', #163, #489, #139, .T. ) ;
#671 = ORIENTED_EDGE ( 'NONE', *, *, #211, .T. ) ;
#672 = DIRECTION ( 'NONE',  ( -0.000000000000000000, -1.000000000000000000, -0.000000000000000000 ) ) ;
#673 = DIRECTION ( 'NONE',  ( -1.000000000000000000, 0.000000000000000000, 0.000000000000000000 ) ) ;
#674 = EDGE_LOOP ( 'NONE', ( #124, #394 ) ) ;
#675 = LINE ( 'NONE', #90, #798 ) ;
#676 = VECTOR ( 'NONE', #339, 1000.000000000000000 ) ;
#677 = VECTOR ( 'NONE', #632, 1000.000000000000000 ) ;
#678 = ORIENTED_EDGE ( 'NONE', *, *, #26, .T. ) ;
#679 = VERTEX_POINT ( 'NONE', #603 ) ;
#680 = DIRECTION ( 'NONE',  ( 0.000000000000000000, 0.000000000000000000, 1.000000000000000000 ) ) ;
#681 = EDGE_CURVE ( 'NONE', #138, #365, #470, .T. ) ;
#682 = CARTESIAN_POINT ( 'NONE',  ( 8.000000000000000000, 1.849999999999999645, 0.000000000000000000 ) ) ;
#683 = ORIENTED_EDGE ( 'NONE', *, *, #206, .T. ) ;
#684 = CARTESIAN_POINT ( 'NONE',  ( 5.000000000000000888, 6.149999999999999467, 0.000000000000000000 ) ) ;
#685 = EDGE_CURVE ( 'NONE', #533, #768, #170, .T. ) ;
#686 = CYLINDRICAL_SURFACE ( 'NONE', #621, 0.7500000000000002220 ) ;
#687 = ORIENTED_EDGE ( 'NONE', *, *, #140, .F. ) ;
#688 = DIRECTION ( 'NONE',  ( -0.000000000000000000, 1.000000000000000000, -0.000000000000000000 ) ) ;
#689 = STYLED_ITEM ( 'NONE', ( #335 ), #496 ) ;
#690 = ORIENTED_EDGE ( 'NONE', *, *, #153, .T. ) ;
#691 = CARTESIAN_POINT ( 'NONE',  ( 5.000000000000000000, 1.849999999999999645, 0.000000000000000000 ) ) ;
#692 = DIRECTION ( 'NONE',  ( 0.000000000000000000, 0.000000000000000000, 1.000000000000000000 ) ) ;
#693 = DIRECTION ( 'NONE',  ( 0.000000000000000000, 1.000000000000000000, 0.000000000000000000 ) ) ;
#694 = EDGE_CURVE ( 'NONE', #272, #234, #624, .T. ) ;
#695 = ORIENTED_EDGE ( 'NONE', *, *, #374, .F. ) ;
#696 = FACE_OUTER_BOUND ( 'NONE', #797, .T. ) ;
#697 = DIRECTION ( 'NONE',  ( -1.000000000000000000, 0.000000000000000000, 0.000000000000000000 ) ) ;
#698 = CARTESIAN_POINT ( 'NONE',  ( 0.000000000000000000, 6.149999999999999467, 0.000000000000000000 ) ) ;
#699 = VERTEX_POINT ( 'NONE', #330 ) ;
#700 = CARTESIAN_POINT ( 'NONE',  ( -8.000000000000001776, 1.849999999999999645, 7.750000000000000000 ) ) ;
#701 = DIRECTION ( 'NONE',  ( -0.000000000000000000, -0.000000000000000000, -1.000000000000000000 ) ) ;
#702 = CARTESIAN_POINT ( 'NONE',  ( 8.000000000000000000, -1.850000000000000533, 3.000000000000000444 ) ) ;
#703 = VECTOR ( 'NONE', #239, 1000.000000000000000 ) ;
#704 = ORIENTED_EDGE ( 'NONE', *, *, #531, .T. ) ;
#705 = VECTOR ( 'NONE', #721, 1000.000000000000000 ) ;
#706 = CARTESIAN_POINT ( 'NONE',  ( 8.000000000000001776, -1.850000000000000533, 7.750000000000000000 ) ) ;
#707 = DIRECTION ( 'NONE',  ( 0.000000000000000000, 1.000000000000000000, 0.000000000000000000 ) ) ;
#708 = PLANE ( 'NONE',  #717 ) ;
#709 = APPLICATION_CONTEXT ( 'automotive_design' ) ;
#710 = ORIENTED_EDGE ( 'NONE', *, *, #725, .T. ) ;
#711 = DIRECTION ( 'NONE',  ( 0.000000000000000000, 1.000000000000000000, 0.000000000000000000 ) ) ;
#712 = FACE_BOUND ( 'NONE', #321, .T. ) ;
#713 = ORIENTED_EDGE ( 'NONE', *, *, #357, .T. ) ;
#714 = DIRECTION ( 'NONE',  ( -0.000000000000000000, -0.000000000000000000, -1.000000000000000000 ) ) ;
#715 = ORIENTED_EDGE ( 'NONE', *, *, #331, .T. ) ;
#716 = CARTESIAN_POINT ( 'NONE',  ( -8.000000000000000000, -1.850000000000000533, 2.250000000000000444 ) ) ;
#717 = AXIS2_PLACEMENT_3D ( 'NONE', #648, #828, #54 ) ;
#718 = EDGE_CURVE ( 'NONE', #65, #379, #590, .T. ) ;
#719 = ORIENTED_EDGE ( 'NONE', *, *, #839, .F. ) ;
#720 = ADVANCED_FACE ( 'NONE', ( #443 ), #509, .T. ) ;
#721 = DIRECTION ( 'NONE',  ( -0.000000000000000000, 1.000000000000000000, -0.000000000000000000 ) ) ;
#722 = DIRECTION ( 'NONE',  ( 0.000000000000000000, 0.000000000000000000, 1.000000000000000000 ) ) ;
#723 = EDGE_LOOP ( 'NONE', ( #408, #834, #719, #840 ) ) ;
#724 = DIRECTION ( 'NONE',  ( 0.000000000000000000, 1.000000000000000000, 0.000000000000000000 ) ) ;
#725 = EDGE_CURVE ( 'NONE', #329, #324, #833, .T. ) ;
#726 = CARTESIAN_POINT ( 'NONE',  ( -10.00000000000000000, -1.850000000000000533, 10.00000000000000000 ) ) ;
#727 = LINE ( 'NONE', #283, #465 ) ;
#728 = VECTOR ( 'NONE', #407, 1000.000000000000000 ) ;
#729 = ORIENTED_EDGE ( 'NONE', *, *, #363, .F. ) ;
#730 = AXIS2_PLACEMENT_3D ( 'NONE', #423, #558, #85 ) ;
#731 = CARTESIAN_POINT ( 'NONE',  ( 0.000000000000000000, 1.849999999999999645, 10.00000000000000000 ) ) ;
#732 = CIRCLE ( 'NONE', #468, 2.000000000000000000 ) ;
#733 = ORIENTED_EDGE ( 'NONE', *, *, #554, .F. ) ;
#734 = EDGE_LOOP ( 'NONE', ( #605, #576, #452, #646 ) ) ;
#735 = CARTESIAN_POINT ( 'NONE',  ( -8.000000000000000000, -1.850000000000000533, 2.000000000000000000 ) ) ;
#736 = ORIENTED_EDGE ( 'NONE', *, *, #756, .F. ) ;
#737 = ORIENTED_EDGE ( 'NONE', *, *, #554, .T. ) ;
#738 = CARTESIAN_POINT ( 'NONE',  ( 5.000000000000000000, -1.008560160451632073E-15, 0.000000000000000000 ) ) ;
#739 = VERTEX_POINT ( 'NONE', #642 ) ;
#740 = DIRECTION ( 'NONE',  ( 0.000000000000000000, 1.000000000000000000, 0.000000000000000000 ) ) ;
#741 = ADVANCED_FACE ( 'NONE', ( #310, #712, #638 ), #708, .T. ) ;
#742 = AXIS2_PLACEMENT_3D ( 'NONE', #269, #660, #598 ) ;
#743 = AXIS2_PLACEMENT_3D ( 'NONE', #320, #693, #579 ) ;
#744 = ORIENTED_EDGE ( 'NONE', *, *, #58, .T. ) ;
#745 = ORIENTED_EDGE ( 'NONE', *, *, #835, .T. ) ;
#746 = EDGE_CURVE ( 'NONE', #639, #7, #127, .T. ) ;
#747 =( LENGTH_UNIT ( ) NAMED_UNIT ( * ) SI_UNIT ( .MILLI., .METRE. ) );
#748 = CARTESIAN_POINT ( 'NONE',  ( 0.000000000000000000, 6.149999999999999467, 10.00000000000000000 ) ) ;
#749 = ORIENTED_EDGE ( 'NONE', *, *, #835, .F. ) ;
#750 = EDGE_CURVE ( 'NONE', #370, #614, #588, .T. ) ;
#751 = PRODUCT_RELATED_PRODUCT_CATEGORY ( 'part', '', ( #779 ) ) ;
#752 = CYLINDRICAL_SURFACE ( 'NONE', #439, 2.649999999999999467 ) ;
#753 = ORIENTED_EDGE ( 'NONE', *, *, #211, .F. ) ;
#754 = CARTESIAN_POINT ( 'NONE',  ( 0.000000000000000000, 0.000000000000000000, 0.000000000000000000 ) ) ;
#755 = PRODUCT_DEFINITION_CONTEXT ( 'detailed design', #165, 'design' ) ;
#756 = EDGE_CURVE ( 'NONE', #365, #422, #353, .T. ) ;
#757 = CIRCLE ( 'NONE', #243, 0.7500000000000002220 ) ;
#758 = DIRECTION ( 'NONE',  ( 1.000000000000000000, 0.000000000000000000, 0.000000000000000000 ) ) ;
#759 = CARTESIAN_POINT ( 'NONE',  ( 10.00000000000000000, -1.850000000000000533, 8.000000000000000000 ) ) ;
#760 = EDGE_LOOP ( 'NONE', ( #219, #619, #332, #222 ) ) ;
#761 = DIRECTION ( 'NONE',  ( -0.000000000000000000, -1.000000000000000000, -0.000000000000000000 ) ) ;
#762 = FACE_BOUND ( 'NONE', #492, .T. ) ;
#763 = DIRECTION ( 'NONE',  ( 1.000000000000000000, 0.000000000000000000, 0.000000000000000000 ) ) ;
#764 = ORIENTED_EDGE ( 'NONE', *, *, #756, .T. ) ;
#765 = DIRECTION ( 'NONE',  ( 0.000000000000000000, 0.000000000000000000, 1.000000000000000000 ) ) ;
#766 = DIRECTION ( 'NONE',  ( 0.000000000000000000, 0.000000000000000000, 1.000000000000000000 ) ) ;
#767 = DIRECTION ( 'NONE',  ( -0.000000000000000000, -0.000000000000000000, -1.000000000000000000 ) ) ;
#768 = VERTEX_POINT ( 'NONE', #702 ) ;
#769 = CYLINDRICAL_SURFACE ( 'NONE', #843, 0.7500000000000006661 ) ;
#770 = PRODUCT_DEFINITION ( 'General', '', #300, #755 ) ;
#771 = LINE ( 'NONE', #19, #728 ) ;
#772 = CARTESIAN_POINT ( 'NONE',  ( 0.000000000000000000, -1.850000000000000533, 0.000000000000000000 ) ) ;
#773 = VECTOR ( 'NONE', #541, 1000.000000000000000 ) ;
#774 = ORIENTED_EDGE ( 'NONE', *, *, #270, .T. ) ;
#775 = FACE_OUTER_BOUND ( 'NONE', #120, .T. ) ;
#776 = UNCERTAINTY_MEASURE_WITH_UNIT (LENGTH_MEASURE( 1.000000000000000082E-05 ), #279, 'distance_accuracy_value', 'NONE');
#777 = EDGE_LOOP ( 'NONE', ( #317, #661 ) ) ;
#778 = CYLINDRICAL_SURFACE ( 'NONE', #147, 0.7500000000000006661 ) ;
#779 = PRODUCT ( 'Jaw holder - 2', 'Jaw holder - 2', '', ( #538 ) ) ;
#780 = EDGE_LOOP ( 'NONE', ( #729, #808 ) ) ;
#781 = CARTESIAN_POINT ( 'NONE',  ( -0.000000000000000000, 1.849999999999999645, 0.000000000000000000 ) ) ;
#782 = EDGE_CURVE ( 'NONE', #45, #739, #145, .T. ) ;
#783 = ORIENTED_EDGE ( 'NONE', *, *, #782, .F. ) ;
#784 = AXIS2_PLACEMENT_3D ( 'NONE', #104, #251, #766 ) ;
#785 = CIRCLE ( 'NONE', #612, 0.7500000000000006661 ) ;
#786 = PLANE ( 'NONE',  #800 ) ;
#787 = AXIS2_PLACEMENT_3D ( 'NONE', #409, #129, #16 ) ;
#788 = DIRECTION ( 'NONE',  ( -0.000000000000000000, -1.000000000000000000, -0.000000000000000000 ) ) ;
#789 = APPLICATION_PROTOCOL_DEFINITION ( 'draft international standard', 'automotive_design', 1998, #709 ) ;
#790 = ORIENTED_EDGE ( 'NONE', *, *, #29, .T. ) ;
#791 = DIRECTION ( 'NONE',  ( 0.000000000000000000, 0.000000000000000000, 1.000000000000000000 ) ) ;
#792 = CARTESIAN_POINT ( 'NONE',  ( 8.000000000000000000, 1.849999999999999645, 10.00000000000000000 ) ) ;
#793 = DIRECTION ( 'NONE',  ( 1.000000000000000000, 0.000000000000000000, 0.000000000000000000 ) ) ;
#794 = CARTESIAN_POINT ( 'NONE',  ( 8.000000000000000000, 1.849999999999999645, 10.00000000000000000 ) ) ;
#795 = DIRECTION ( 'NONE',  ( -0.000000000000000000, 0.000000000000000000, 1.000000000000000000 ) ) ;
#796 = ORIENTED_EDGE ( 'NONE', *, *, #552, .T. ) ;
#797 = EDGE_LOOP ( 'NONE', ( #31, #745, #336, #285, #736, #416, #476, #790 ) ) ;
#798 = VECTOR ( 'NONE', #227, 1000.000000000000000 ) ;
#799 = CARTESIAN_POINT ( 'NONE',  ( 5.000000000000000000, 1.849999999999999645, 10.00000000000000000 ) ) ;
#800 = AXIS2_PLACEMENT_3D ( 'NONE', #333, #4, #70 ) ;
#801 = ORIENTED_EDGE ( 'NONE', *, *, #309, .F. ) ;
#802 = ORIENTED_EDGE ( 'NONE', *, *, #681, .F. ) ;
#803 = PLANE ( 'NONE',  #570 ) ;
#804 = ORIENTED_EDGE ( 'NONE', *, *, #88, .F. ) ;
#805 = ORIENTED_EDGE ( 'NONE', *, *, #221, .F. ) ;
#806 = EDGE_CURVE ( 'NONE', #329, #594, #393, .T. ) ;
#807 = CARTESIAN_POINT ( 'NONE',  ( 8.000000000000001776, 1.849999999999999645, 6.999999999999999112 ) ) ;
#808 = ORIENTED_EDGE ( 'NONE', *, *, #511, .F. ) ;
#809 = EDGE_CURVE ( 'NONE', #546, #272, #514, .T. ) ;
#810 = VERTEX_POINT ( 'NONE', #113 ) ;
#811 = CIRCLE ( 'NONE', #663, 2.649999999999999467 ) ;
#812 = AXIS2_PLACEMENT_3D ( 'NONE', #51, #711, #184 ) ;
#813 = AXIS2_PLACEMENT_3D ( 'NONE', #121, #318, #765 ) ;
#814 = CARTESIAN_POINT ( 'NONE',  ( -8.000000000000000000, -1.850000000000000533, 2.250000000000000444 ) ) ;
#815 = EDGE_LOOP ( 'NONE', ( #539, #109 ) ) ;
#816 = DIRECTION ( 'NONE',  ( 0.000000000000000000, 0.000000000000000000, 1.000000000000000000 ) ) ;
#817 = DIRECTION ( 'NONE',  ( -0.000000000000000000, -0.000000000000000000, -1.000000000000000000 ) ) ;
#818 = EDGE_LOOP ( 'NONE', ( #288, #128, #589, #482 ) ) ;
#819 = SURFACE_STYLE_USAGE ( .BOTH. , #98 ) ;
#820 = EDGE_CURVE ( 'NONE', #7, #156, #732, .T. ) ;
#821 = DIRECTION ( 'NONE',  ( 0.000000000000000000, -0.000000000000000000, 1.000000000000000000 ) ) ;
#822 = EDGE_LOOP ( 'NONE', ( #69, #592, #657, #678, #401, #216, #190, #715 ) ) ;
#823 = FACE_OUTER_BOUND ( 'NONE', #421, .T. ) ;
#824 = AXIS2_PLACEMENT_3D ( 'NONE', #276, #673, #418 ) ;
#825 = COLOUR_RGB ( '',0.7921568627450980005, 0.8196078431372548767, 0.9333333333333333481 ) ;
#826 = FACE_BOUND ( 'NONE', #93, .T. ) ;
#827 = VECTOR ( 'NONE', #119, 1000.000000000000000 ) ;
#828 = DIRECTION ( 'NONE',  ( 0.000000000000000000, 1.000000000000000000, 0.000000000000000000 ) ) ;
#829 = ORIENTED_EDGE ( 'NONE', *, *, #429, .F. ) ;
#830 = DIRECTION ( 'NONE',  ( -0.000000000000000000, -0.000000000000000000, -1.000000000000000000 ) ) ;
#831 = EDGE_CURVE ( 'NONE', #152, #65, #572, .T. ) ;
#832 = DIRECTION ( 'NONE',  ( 0.000000000000000000, 0.000000000000000000, -1.000000000000000000 ) ) ;
#833 = LINE ( 'NONE', #451, #36 ) ;
#834 = ORIENTED_EDGE ( 'NONE', *, *, #568, .T. ) ;
#835 = EDGE_CURVE ( 'NONE', #639, #41, #189, .T. ) ;
#836 = CARTESIAN_POINT ( 'NONE',  ( 8.000000000000000000, -1.850000000000000533, 1.499999999999999778 ) ) ;
#837 = DIRECTION ( 'NONE',  ( -0.000000000000000000, -0.000000000000000000, -1.000000000000000000 ) ) ;
#838 = CARTESIAN_POINT ( 'NONE',  ( -8.000000000000000000, -1.850000000000000533, 1.500000000000000000 ) ) ;
#839 = EDGE_CURVE ( 'NONE', #200, #253, #371, .T. ) ;
#840 = ORIENTED_EDGE ( 'NONE', *, *, #52, .F. ) ;
#841 = CARTESIAN_POINT ( 'NONE',  ( -8.000000000000000000, -1.850000000000000533, 2.250000000000000444 ) ) ;
#842 = AXIS2_PLACEMENT_3D ( 'NONE', #607, #349, #21 ) ;
#843 = AXIS2_PLACEMENT_3D ( 'NONE', #61, #322, #313 ) ;
#844 = CARTESIAN_POINT ( 'NONE',  ( -8.000000000000000000, 1.849999999999999645, 0.000000000000000000 ) ) ;
#845 = CIRCLE ( 'NONE', #64, 2.000000000000000000 ) ;
#846 = EDGE_LOOP ( 'NONE', ( #94, #30, #510, #132, #86, #671 ) ) ;
ENDSEC;
END-ISO-10303-21;
