ISO-10303-21;
HEADER;
FILE_DESCRIPTION (( 'STEP AP214' ),
    '1' );
FILE_NAME ('Lip Holder.STEP',
    '2025-10-21T18:57:07',
    ( 'Windows User' ),
    ( '' ),
    'SwSTEP 2.0',
    'SolidWorks 2023',
    '' );
FILE_SCHEMA (( 'AUTOMOTIVE_DESIGN' ));
ENDSEC;

DATA;
#1 = DIRECTION ( 'NONE',  ( -0.9949874371066199652, 0.000000000000000000, 0.1000000000000000472 ) ) ;
#2 = DIRECTION ( 'NONE',  ( 0.000000000000000000, 0.000000000000000000, 1.000000000000000000 ) ) ;
#3 = DIRECTION ( 'NONE',  ( 0.000000000000000000, 0.000000000000000000, 1.000000000000000000 ) ) ;
#4 = APPLICATION_CONTEXT ( 'automotive_design' ) ;
#5 = DIRECTION ( 'NONE',  ( 0.000000000000000000, 1.000000000000000000, 0.000000000000000000 ) ) ;
#6 = CIRCLE ( 'NONE', #77, 1.499999999999999556 ) ;
#7 = ORIENTED_EDGE ( 'NONE', *, *, #129, .F. ) ;
#8 = CARTESIAN_POINT ( 'NONE',  ( 0.000000000000000000, 2.000000000000000000, 0.000000000000000000 ) ) ;
#9 = CARTESIAN_POINT ( 'NONE',  ( -6.994405055138486205E-14, 2.000000000000000000, 20.00000000000000000 ) ) ;
#10 = ORIENTED_EDGE ( 'NONE', *, *, #76, .T. ) ;
#11 = LINE ( 'NONE', #516, #351 ) ;
#12 = VERTEX_POINT ( 'NONE', #239 ) ;
#13 =( LENGTH_UNIT ( ) NAMED_UNIT ( * ) SI_UNIT ( .MILLI., .METRE. ) );
#14 = CARTESIAN_POINT ( 'NONE',  ( -1.999374902313290958, 2.000000000000000000, 19.94999999999999218 ) ) ;
#15 = ORIENTED_EDGE ( 'NONE', *, *, #358, .T. ) ;
#16 = CIRCLE ( 'NONE', #527, 3.000000000000000000 ) ;
#17 = EDGE_CURVE ( 'NONE', #131, #488, #366, .T. ) ;
#18 = ORIENTED_EDGE ( 'NONE', *, *, #227, .T. ) ;
#19 =( NAMED_UNIT ( * ) SI_UNIT ( $, .STERADIAN. ) SOLID_ANGLE_UNIT ( ) );
#20 = ORIENTED_EDGE ( 'NONE', *, *, #157, .T. ) ;
#21 = LINE ( 'NONE', #405, #198 ) ;
#22 = VERTEX_POINT ( 'NONE', #121 ) ;
#23 = CIRCLE ( 'NONE', #384, 0.4999999999999997780 ) ;
#24 = AXIS2_PLACEMENT_3D ( 'NONE', #533, #28, #273 ) ;
#25 = VECTOR ( 'NONE', #391, 1000.000000000000000 ) ;
#26 = PLANE ( 'NONE',  #24 ) ;
#27 = CYLINDRICAL_SURFACE ( 'NONE', #312, 1.999999999999999112 ) ;
#28 = DIRECTION ( 'NONE',  ( 0.000000000000000000, 1.000000000000000000, -0.000000000000000000 ) ) ;
#29 = ORIENTED_EDGE ( 'NONE', *, *, #285, .T. ) ;
#30 = CARTESIAN_POINT ( 'NONE',  ( 0.000000000000000000, 2.000000000000000000, 0.000000000000000000 ) ) ;
#31 = ORIENTED_EDGE ( 'NONE', *, *, #17, .T. ) ;
#32 = VECTOR ( 'NONE', #540, 1000.000000000000000 ) ;
#33 = APPLICATION_CONTEXT ( 'automotive_design' ) ;
#34 = FACE_OUTER_BOUND ( 'NONE', #244, .T. ) ;
#35 = EDGE_CURVE ( 'NONE', #250, #421, #283, .T. ) ;
#36 = ORIENTED_EDGE ( 'NONE', *, *, #195, .F. ) ;
#37 = EDGE_CURVE ( 'NONE', #137, #471, #403, .T. ) ;
#38 = DIRECTION ( 'NONE',  ( -0.000000000000000000, -1.000000000000000000, -0.000000000000000000 ) ) ;
#39 = DIRECTION ( 'NONE',  ( 0.000000000000000000, 1.000000000000000000, 0.000000000000000000 ) ) ;
#40 = CARTESIAN_POINT ( 'NONE',  ( 5.000000000000000000, 2.000000000000000000, 0.000000000000000000 ) ) ;
#41 = ADVANCED_FACE ( 'NONE', ( #119 ), #27, .T. ) ;
#42 = FACE_OUTER_BOUND ( 'NONE', #297, .T. ) ;
#43 = VECTOR ( 'NONE', #365, 1000.000000000000000 ) ;
#44 = PRODUCT_DEFINITION_FORMATION_WITH_SPECIFIED_SOURCE ( 'Symmetric', '', #397, .NOT_KNOWN. ) ;
#45 = LINE ( 'NONE', #290, #188 ) ;
#46 = ADVANCED_FACE ( 'NONE', ( #147 ), #280, .F. ) ;
#47 = DIRECTION ( 'NONE',  ( -0.000000000000000000, -1.000000000000000000, 0.000000000000000000 ) ) ;
#48 = ORIENTED_EDGE ( 'NONE', *, *, #539, .T. ) ;
#49 = DIRECTION ( 'NONE',  ( 0.000000000000000000, 0.000000000000000000, -1.000000000000000000 ) ) ;
#50 = VERTEX_POINT ( 'NONE', #191 ) ;
#51 = DIRECTION ( 'NONE',  ( -0.000000000000000000, -1.000000000000000000, 0.000000000000000000 ) ) ;
#52 = CARTESIAN_POINT ( 'NONE',  ( 1.499531176734914206, 2.000000000000000000, -0.03749999999999472505 ) ) ;
#53 = COLOUR_RGB ( '',1.000000000000000000, 0.9372549019607843146, 0.1372549019607843257 ) ;
#54 = DIRECTION ( 'NONE',  ( 0.000000000000000000, 1.000000000000000000, -0.000000000000000000 ) ) ;
#55 = ORIENTED_EDGE ( 'NONE', *, *, #368, .T. ) ;
#56 = APPLICATION_PROTOCOL_DEFINITION ( 'draft international standard', 'automotive_design', 1998, #33 ) ;
#57 = DIRECTION ( 'NONE',  ( 0.000000000000000000, 1.000000000000000000, -0.000000000000000000 ) ) ;
#58 = ORIENTED_EDGE ( 'NONE', *, *, #210, .T. ) ;
#59 = ORIENTED_EDGE ( 'NONE', *, *, #285, .F. ) ;
#60 = AXIS2_PLACEMENT_3D ( 'NONE', #307, #54, #386 ) ;
#61 = EDGE_CURVE ( 'NONE', #100, #165, #23, .T. ) ;
#62 = CARTESIAN_POINT ( 'NONE',  ( 0.000000000000000000, 0.000000000000000000, 0.000000000000000000 ) ) ;
#63 = ORIENTED_EDGE ( 'NONE', *, *, #76, .F. ) ;
#64 = CARTESIAN_POINT ( 'NONE',  ( 1.999374902313149516, 2.000000000000000000, 19.95000000000000995 ) ) ;
#65 = ORIENTED_EDGE ( 'NONE', *, *, #249, .F. ) ;
#66 = CARTESIAN_POINT ( 'NONE',  ( 0.000000000000000000, 0.000000000000000000, 0.4999999999999998890 ) ) ;
#67 = DIRECTION ( 'NONE',  ( 0.000000000000000000, 0.000000000000000000, 1.000000000000000000 ) ) ;
#68 = VECTOR ( 'NONE', #355, 1000.000000000000000 ) ;
#69 = DIRECTION ( 'NONE',  ( -0.000000000000000000, -1.000000000000000000, -0.000000000000000000 ) ) ;
#70 = ORIENTED_EDGE ( 'NONE', *, *, #232, .F. ) ;
#71 = DIRECTION ( 'NONE',  ( -0.9996874511566101740, 0.000000000000000000, -0.02500000000000350900 ) ) ;
#72 = FACE_OUTER_BOUND ( 'NONE', #200, .T. ) ;
#73 = ADVANCED_FACE ( 'NONE', ( #72 ), #150, .F. ) ;
#74 = CARTESIAN_POINT ( 'NONE',  ( 4.800000000000000711, 2.000000000000000000, -1.989974874213239486 ) ) ;
#75 = ORIENTED_EDGE ( 'NONE', *, *, #489, .F. ) ;
#76 = EDGE_CURVE ( 'NONE', #156, #184, #337, .T. ) ;
#77 = AXIS2_PLACEMENT_3D ( 'NONE', #515, #509, #220 ) ;
#78 = CARTESIAN_POINT ( 'NONE',  ( 1.999374902313149516, 2.000000000000000000, 19.95000000000000995 ) ) ;
#79 = ORIENTED_EDGE ( 'NONE', *, *, #462, .T. ) ;
#80 = PRODUCT_CONTEXT ( 'NONE', #4, 'mechanical' ) ;
#81 = DIRECTION ( 'NONE',  ( -0.000000000000000000, -1.000000000000000000, -0.000000000000000000 ) ) ;
#82 = EDGE_CURVE ( 'NONE', #116, #482, #284, .T. ) ;
#83 = DIRECTION ( 'NONE',  ( 0.000000000000000000, 1.000000000000000000, 0.000000000000000000 ) ) ;
#84 = VERTEX_POINT ( 'NONE', #299 ) ;
#85 = AXIS2_PLACEMENT_3D ( 'NONE', #460, #47, #505 ) ;
#86 = PRESENTATION_LAYER_ASSIGNMENT (  '', '', ( #114 ) ) ;
#87 = DIRECTION ( 'NONE',  ( -0.000000000000000000, -1.000000000000000000, -0.000000000000000000 ) ) ;
#88 = ORIENTED_EDGE ( 'NONE', *, *, #232, .T. ) ;
#89 = LINE ( 'NONE', #125, #498 ) ;
#90 = ORIENTED_EDGE ( 'NONE', *, *, #309, .T. ) ;
#91 = CYLINDRICAL_SURFACE ( 'NONE', #480, 1.499999999999999556 ) ;
#92 = ADVANCED_FACE ( 'NONE', ( #42 ), #419, .F. ) ;
#93 = PLANE ( 'NONE',  #162 ) ;
#94 = EDGE_LOOP ( 'NONE', ( #225, #10, #377, #269 ) ) ;
#95 = ADVANCED_FACE ( 'NONE', ( #544 ), #342, .T. ) ;
#96 = VECTOR ( 'NONE', #203, 1000.000000000000000 ) ;
#97 = DIRECTION ( 'NONE',  ( -0.000000000000000000, -1.000000000000000000, 0.000000000000000000 ) ) ;
#98 = VECTOR ( 'NONE', #388, 1000.000000000000114 ) ;
#99 = AXIS2_PLACEMENT_3D ( 'NONE', #473, #350, #101 ) ;
#100 = VERTEX_POINT ( 'NONE', #287 ) ;
#101 = DIRECTION ( 'NONE',  ( 1.000000000000000000, 0.000000000000000000, 0.000000000000000000 ) ) ;
#102 = DIRECTION ( 'NONE',  ( -0.000000000000000000, 1.000000000000000000, -0.000000000000000000 ) ) ;
#103 = EDGE_LOOP ( 'NONE', ( #302, #31, #109, #65 ) ) ;
#104 = ORIENTED_EDGE ( 'NONE', *, *, #210, .F. ) ;
#105 = DIRECTION ( 'NONE',  ( 0.000000000000000000, 0.000000000000000000, 1.000000000000000000 ) ) ;
#106 = ORIENTED_EDGE ( 'NONE', *, *, #357, .F. ) ;
#107 = CIRCLE ( 'NONE', #420, 0.4999999999999997780 ) ;
#108 = LINE ( 'NONE', #268, #145 ) ;
#109 = ORIENTED_EDGE ( 'NONE', *, *, #207, .F. ) ;
#110 = DIRECTION ( 'NONE',  ( -0.000000000000000000, -1.000000000000000000, -0.000000000000000000 ) ) ;
#111 = EDGE_LOOP ( 'NONE', ( #450, #517, #59, #452 ) ) ;
#112 = CARTESIAN_POINT ( 'NONE',  ( -0.1499999999999999667, 0.000000000000000000, -1.492481155659929337 ) ) ;
#113 = ORIENTED_EDGE ( 'NONE', *, *, #291, .F. ) ;
#114 = STYLED_ITEM ( 'NONE', ( #521 ), #226 ) ;
#115 = DIRECTION ( 'NONE',  ( -0.02499999999999650419, 0.000000000000000000, -0.9996874511566102850 ) ) ;
#116 = VERTEX_POINT ( 'NONE', #292 ) ;
#117 = EDGE_CURVE ( 'NONE', #84, #22, #45, .T. ) ;
#118 = FACE_OUTER_BOUND ( 'NONE', #529, .T. ) ;
#119 = FACE_OUTER_BOUND ( 'NONE', #423, .T. ) ;
#120 = CARTESIAN_POINT ( 'NONE',  ( 4.850438352075068238, 2.000000000000000000, 1.994399988334831564 ) ) ;
#121 = CARTESIAN_POINT ( 'NONE',  ( 1.627033526717839740, 2.000000000000000000, 5.060999970837069206 ) ) ;
#122 = AXIS2_PLACEMENT_3D ( 'NONE', #447, #39, #67 ) ;
#123 = CIRCLE ( 'NONE', #439, 0.4999999999999998890 ) ;
#124 = CARTESIAN_POINT ( 'NONE',  ( -1.499531176734915316, 2.000000000000000000, -0.03750000000000523748 ) ) ;
#125 = CARTESIAN_POINT ( 'NONE',  ( -0.1499999999999999944, 0.000000000000000000, -1.492481155659929115 ) ) ;
#126 = CARTESIAN_POINT ( 'NONE',  ( 6.123233995736764803E-17, 2.000000000000000000, -0.4999999999999998890 ) ) ;
#127 = CIRCLE ( 'NONE', #438, 1.999999999999999112 ) ;
#128 = DIRECTION ( 'NONE',  ( -0.1000000000000000472, 0.000000000000000000, -0.9949874371066199652 ) ) ;
#129 = EDGE_CURVE ( 'NONE', #131, #372, #545, .T. ) ;
#130 = CARTESIAN_POINT ( 'NONE',  ( 4.626095880187671483, 2.000000000000000000, 1.985999970837079687 ) ) ;
#131 = VERTEX_POINT ( 'NONE', #463 ) ;
#132 = CARTESIAN_POINT ( 'NONE',  ( 0.000000000000000000, 0.000000000000000000, 0.000000000000000000 ) ) ;
#133 = EDGE_LOOP ( 'NONE', ( #106, #278 ) ) ;
#134 = ADVANCED_FACE ( 'NONE', ( #161 ), #166, .F. ) ;
#135 = DIRECTION ( 'NONE',  ( 0.02500000000000350206, 0.000000000000000000, -0.9996874511566100630 ) ) ;
#136 = CIRCLE ( 'NONE', #376, 1.999999999999999112 ) ;
#137 = VERTEX_POINT ( 'NONE', #126 ) ;
#138 = CARTESIAN_POINT ( 'NONE',  ( 4.626095880187671483, 2.000000000000000000, 4.985999970837079687 ) ) ;
#139 = CARTESIAN_POINT ( 'NONE',  ( 0.000000000000000000, 2.000000000000000000, 0.000000000000000000 ) ) ;
#140 = ORIENTED_EDGE ( 'NONE', *, *, #468, .T. ) ;
#141 = FILL_AREA_STYLE_COLOUR ( '', #53 ) ;
#142 = VERTEX_POINT ( 'NONE', #466 ) ;
#143 = FACE_OUTER_BOUND ( 'NONE', #201, .T. ) ;
#144 = ORIENTED_EDGE ( 'NONE', *, *, #294, .T. ) ;
#145 = VECTOR ( 'NONE', #102, 1000.000000000000000 ) ;
#146 = LINE ( 'NONE', #328, #234 ) ;
#147 = FACE_OUTER_BOUND ( 'NONE', #418, .T. ) ;
#148 = PRODUCT_RELATED_PRODUCT_CATEGORY ( 'part', '', ( #397 ) ) ;
#149 = DIRECTION ( 'NONE',  ( 0.000000000000000000, 1.000000000000000000, 0.000000000000000000 ) ) ;
#150 = CYLINDRICAL_SURFACE ( 'NONE', #455, 0.4999999999999997780 ) ;
#151 = CARTESIAN_POINT ( 'NONE',  ( 5.000000000000000000, 0.000000000000000000, -0.4999999999999997780 ) ) ;
#152 = CARTESIAN_POINT ( 'NONE',  ( 5.000000000000000000, 2.000000000000000000, 0.000000000000000000 ) ) ;
#153 = VECTOR ( 'NONE', #411, 1000.000000000000000 ) ;
#154 =( GEOMETRIC_REPRESENTATION_CONTEXT ( 3 ) GLOBAL_UNCERTAINTY_ASSIGNED_CONTEXT ( ( #483 ) ) GLOBAL_UNIT_ASSIGNED_CONTEXT ( ( #310, #216, #19 ) ) REPRESENTATION_CONTEXT ( 'NONE', 'WORKASPACE' ) );
#155 = LINE ( 'NONE', #74, #304 ) ;
#156 = VERTEX_POINT ( 'NONE', #459 ) ;
#157 = EDGE_CURVE ( 'NONE', #379, #478, #89, .T. ) ;
#158 = FACE_OUTER_BOUND ( 'NONE', #174, .T. ) ;
#159 = ORIENTED_EDGE ( 'NONE', *, *, #281, .T. ) ;
#160 = FACE_OUTER_BOUND ( 'NONE', #94, .T. ) ;
#161 = FACE_OUTER_BOUND ( 'NONE', #433, .T. ) ;
#162 = AXIS2_PLACEMENT_3D ( 'NONE', #52, #252, #332 ) ;
#163 = AXIS2_PLACEMENT_3D ( 'NONE', #233, #363, #230 ) ;
#164 = LINE ( 'NONE', #440, #98 ) ;
#165 = VERTEX_POINT ( 'NONE', #458 ) ;
#166 = CYLINDRICAL_SURFACE ( 'NONE', #333, 0.4999999999999998890 ) ;
#167 = ORIENTED_EDGE ( 'NONE', *, *, #264, .F. ) ;
#168 = CARTESIAN_POINT ( 'NONE',  ( 4.626095880187671483, 2.000000000000000000, 4.985999970837079687 ) ) ;
#169 = EDGE_CURVE ( 'NONE', #407, #471, #339, .T. ) ;
#170 = APPLICATION_PROTOCOL_DEFINITION ( 'draft international standard', 'automotive_design', 1998, #4 ) ;
#171 = AXIS2_PLACEMENT_3D ( 'NONE', #395, #181, #105 ) ;
#172 = CARTESIAN_POINT ( 'NONE',  ( 5.000000000000000000, 0.000000000000000000, 0.000000000000000000 ) ) ;
#173 = DIRECTION ( 'NONE',  ( 0.000000000000000000, 0.000000000000000000, 1.000000000000000000 ) ) ;
#174 = EDGE_LOOP ( 'NONE', ( #318, #271, #475, #58 ) ) ;
#175 = CARTESIAN_POINT ( 'NONE',  ( 4.626095880187671483, 0.000000000000000000, 4.985999970837079687 ) ) ;
#176 = ORIENTED_EDGE ( 'NONE', *, *, #207, .T. ) ;
#177 = CARTESIAN_POINT ( 'NONE',  ( 5.000000000000000000, 2.000000000000000000, 0.000000000000000000 ) ) ;
#178 = AXIS2_PLACEMENT_3D ( 'NONE', #497, #374, #347 ) ;
#179 = AXIS2_PLACEMENT_3D ( 'NONE', #8, #303, #173 ) ;
#180 = ORIENTED_EDGE ( 'NONE', *, *, #445, .F. ) ;
#181 = DIRECTION ( 'NONE',  ( -0.000000000000000000, -1.000000000000000000, 0.000000000000000000 ) ) ;
#182 = ORIENTED_EDGE ( 'NONE', *, *, #523, .F. ) ;
#183 = FILL_AREA_STYLE ('',( #141 ) ) ;
#184 = VERTEX_POINT ( 'NONE', #254 ) ;
#185 = ADVANCED_FACE ( 'NONE', ( #425 ), #93, .F. ) ;
#186 = DIRECTION ( 'NONE',  ( 0.000000000000000000, 1.000000000000000000, -0.000000000000000000 ) ) ;
#187 = ADVANCED_FACE ( 'NONE', ( #510 ), #380, .T. ) ;
#188 = VECTOR ( 'NONE', #296, 1000.000000000000000 ) ;
#189 = ORIENTED_EDGE ( 'NONE', *, *, #17, .F. ) ;
#190 = CARTESIAN_POINT ( 'NONE',  ( 4.626095880187671483, 2.000000000000000000, 4.985999970837079687 ) ) ;
#191 = CARTESIAN_POINT ( 'NONE',  ( 1.999374902313149516, 0.000000000000000000, 19.95000000000000995 ) ) ;
#192 = CARTESIAN_POINT ( 'NONE',  ( -0.1499999999999999667, 2.000000000000000000, -1.492481155659929337 ) ) ;
#193 = VERTEX_POINT ( 'NONE', #373 ) ;
#194 = FACE_BOUND ( 'NONE', #320, .T. ) ;
#195 = EDGE_CURVE ( 'NONE', #482, #116, #535, .T. ) ;
#196 = DIRECTION ( 'NONE',  ( -0.000000000000000000, 1.000000000000000000, -0.000000000000000000 ) ) ;
#197 = VECTOR ( 'NONE', #81, 1000.000000000000000 ) ;
#198 = VECTOR ( 'NONE', #115, 1000.000000000000114 ) ;
#199 = CARTESIAN_POINT ( 'NONE',  ( 5.000000000000000000, 0.000000000000000000, 0.4999999999999997780 ) ) ;
#200 = EDGE_LOOP ( 'NONE', ( #36, #315, #204, #492 ) ) ;
#201 = EDGE_LOOP ( 'NONE', ( #189, #241, #513, #113 ) ) ;
#202 = FACE_OUTER_BOUND ( 'NONE', #267, .T. ) ;
#203 = DIRECTION ( 'NONE',  ( -0.000000000000000000, 1.000000000000000000, -0.000000000000000000 ) ) ;
#204 = ORIENTED_EDGE ( 'NONE', *, *, #61, .T. ) ;
#205 = AXIS2_PLACEMENT_3D ( 'NONE', #537, #186, #410 ) ;
#206 = DIRECTION ( 'NONE',  ( 0.000000000000000000, 0.000000000000000000, 1.000000000000000000 ) ) ;
#207 = EDGE_CURVE ( 'NONE', #12, #488, #127, .T. ) ;
#208 = DIRECTION ( 'NONE',  ( -0.000000000000000000, 1.000000000000000000, -0.000000000000000000 ) ) ;
#209 = ORIENTED_EDGE ( 'NONE', *, *, #345, .T. ) ;
#210 = EDGE_CURVE ( 'NONE', #402, #311, #500, .T. ) ;
#211 = DIRECTION ( 'NONE',  ( 0.000000000000000000, 0.000000000000000000, -1.000000000000000000 ) ) ;
#212 = EDGE_CURVE ( 'NONE', #50, #84, #164, .T. ) ;
#213 = ORIENTED_EDGE ( 'NONE', *, *, #486, .F. ) ;
#214 = FACE_OUTER_BOUND ( 'NONE', #330, .T. ) ;
#215 = CIRCLE ( 'NONE', #456, 0.4999999999999998890 ) ;
#216 =( NAMED_UNIT ( * ) PLANE_ANGLE_UNIT ( ) SI_UNIT ( $, .RADIAN. ) );
#217 = PLANE ( 'NONE',  #179 ) ;
#218 = DIRECTION ( 'NONE',  ( 0.000000000000000000, 0.000000000000000000, 1.000000000000000000 ) ) ;
#219 = ORIENTED_EDGE ( 'NONE', *, *, #291, .T. ) ;
#220 = DIRECTION ( 'NONE',  ( 0.000000000000000000, 0.000000000000000000, 1.000000000000000000 ) ) ;
#221 = CARTESIAN_POINT ( 'NONE',  ( -0.1499999999999999944, 2.000000000000000000, -1.492481155659929115 ) ) ;
#222 = ORIENTED_EDGE ( 'NONE', *, *, #249, .T. ) ;
#223 = DIRECTION ( 'NONE',  ( 0.000000000000000000, 0.000000000000000000, 1.000000000000000000 ) ) ;
#224 = CIRCLE ( 'NONE', #536, 1.499999999999999556 ) ;
#225 = ORIENTED_EDGE ( 'NONE', *, *, #345, .F. ) ;
#226 = MANIFOLD_SOLID_BREP ( 'Cut-Extrude1', #322 ) ;
#227 = EDGE_CURVE ( 'NONE', #402, #193, #224, .T. ) ;
#228 = DIRECTION ( 'NONE',  ( 0.000000000000000000, 1.000000000000000000, 0.000000000000000000 ) ) ;
#229 = ORIENTED_EDGE ( 'NONE', *, *, #539, .F. ) ;
#230 = DIRECTION ( 'NONE',  ( 0.000000000000000000, 0.000000000000000000, -1.000000000000000000 ) ) ;
#231 = ORIENTED_EDGE ( 'NONE', *, *, #442, .F. ) ;
#232 = EDGE_CURVE ( 'NONE', #193, #502, #519, .T. ) ;
#233 = CARTESIAN_POINT ( 'NONE',  ( -6.994405055138486205E-14, 2.000000000000000000, 20.00000000000000000 ) ) ;
#234 = VECTOR ( 'NONE', #316, 1000.000000000000114 ) ;
#235 = CARTESIAN_POINT ( 'NONE',  ( 0.000000000000000000, 0.000000000000000000, 0.000000000000000000 ) ) ;
#236 = CARTESIAN_POINT ( 'NONE',  ( 4.850438352075068238, 2.000000000000000000, 1.994399988334831120 ) ) ;
#237 = CARTESIAN_POINT ( 'NONE',  ( 5.000000000000000000, 0.000000000000000000, 0.000000000000000000 ) ) ;
#238 = CARTESIAN_POINT ( 'NONE',  ( 5.000000000000000000, 0.000000000000000000, -0.4999999999999997780 ) ) ;
#239 = CARTESIAN_POINT ( 'NONE',  ( 5.000000000000000000, 0.000000000000000000, -1.999999999999999112 ) ) ;
#240 = CARTESIAN_POINT ( 'NONE',  ( 5.000000000000000000, 0.000000000000000000, 0.000000000000000000 ) ) ;
#241 = ORIENTED_EDGE ( 'NONE', *, *, #129, .T. ) ;
#242 = CIRCLE ( 'NONE', #361, 3.000000000000000000 ) ;
#243 = FACE_BOUND ( 'NONE', #133, .T. ) ;
#244 = EDGE_LOOP ( 'NONE', ( #464, #343, #15, #520 ) ) ;
#245 = PRODUCT_DEFINITION ( 'General', '', #44, #398 ) ;
#246 = DIRECTION ( 'NONE',  ( 0.000000000000000000, 0.000000000000000000, 1.000000000000000000 ) ) ;
#247 = DIRECTION ( 'NONE',  ( 0.000000000000000000, 0.000000000000000000, 1.000000000000000000 ) ) ;
#248 = CARTESIAN_POINT ( 'NONE',  ( -0.1499999999999999944, 2.000000000000000000, -1.492481155659929115 ) ) ;
#249 = EDGE_CURVE ( 'NONE', #262, #12, #313, .T. ) ;
#250 = VERTEX_POINT ( 'NONE', #14 ) ;
#251 = EDGE_CURVE ( 'NONE', #142, #137, #108, .T. ) ;
#252 = DIRECTION ( 'NONE',  ( -0.9996874511566102850, 0.000000000000000000, 0.02499999999999650072 ) ) ;
#253 = DIRECTION ( 'NONE',  ( 0.000000000000000000, 0.000000000000000000, -1.000000000000000000 ) ) ;
#254 = CARTESIAN_POINT ( 'NONE',  ( 4.626095880187671483, 0.000000000000000000, 1.985999970837079687 ) ) ;
#255 =( NAMED_UNIT ( * ) SI_UNIT ( $, .STERADIAN. ) SOLID_ANGLE_UNIT ( ) );
#256 = AXIS2_PLACEMENT_3D ( 'NONE', #469, #51, #3 ) ;
#257 = DIRECTION ( 'NONE',  ( -0.000000000000000000, -1.000000000000000000, 0.000000000000000000 ) ) ;
#258 = ORIENTED_EDGE ( 'NONE', *, *, #317, .F. ) ;
#259 = DIRECTION ( 'NONE',  ( 0.000000000000000000, 0.000000000000000000, -1.000000000000000000 ) ) ;
#260 = ADVANCED_BREP_SHAPE_REPRESENTATION ( 'Lip Holder', ( #226, #99 ), #414 ) ;
#261 = DIRECTION ( 'NONE',  ( 0.000000000000000000, 0.000000000000000000, 1.000000000000000000 ) ) ;
#262 = VERTEX_POINT ( 'NONE', #435 ) ;
#263 = EDGE_LOOP ( 'NONE', ( #75, #362 ) ) ;
#264 = EDGE_CURVE ( 'NONE', #262, #131, #136, .T. ) ;
#265 = DIRECTION ( 'NONE',  ( 0.000000000000000000, 1.000000000000000000, -0.000000000000000000 ) ) ;
#266 = AXIS2_PLACEMENT_3D ( 'NONE', #491, #71, #487 ) ;
#267 = EDGE_LOOP ( 'NONE', ( #229, #104, #18, #79 ) ) ;
#268 = CARTESIAN_POINT ( 'NONE',  ( 6.123233995736764803E-17, 0.000000000000000000, -0.4999999999999998890 ) ) ;
#269 = ORIENTED_EDGE ( 'NONE', *, *, #354, .F. ) ;
#270 = DIRECTION ( 'NONE',  ( 0.000000000000000000, 0.000000000000000000, 1.000000000000000000 ) ) ;
#271 = ORIENTED_EDGE ( 'NONE', *, *, #35, .F. ) ;
#272 = ADVANCED_FACE ( 'NONE', ( #143 ), #481, .T. ) ;
#273 = DIRECTION ( 'NONE',  ( 0.000000000000000000, 0.000000000000000000, 1.000000000000000000 ) ) ;
#274 = AXIS2_PLACEMENT_3D ( 'NONE', #248, #128, #1 ) ;
#275 = VECTOR ( 'NONE', #401, 1000.000000000000000 ) ;
#276 = DIRECTION ( 'NONE',  ( -0.000000000000000000, -1.000000000000000000, -0.000000000000000000 ) ) ;
#277 = LINE ( 'NONE', #151, #43 ) ;
#278 = ORIENTED_EDGE ( 'NONE', *, *, #37, .F. ) ;
#279 = LINE ( 'NONE', #120, #275 ) ;
#280 = CYLINDRICAL_SURFACE ( 'NONE', #506, 0.4999999999999998890 ) ;
#281 = EDGE_CURVE ( 'NONE', #522, #184, #295, .T. ) ;
#282 = LINE ( 'NONE', #199, #335 ) ;
#283 = LINE ( 'NONE', #457, #153 ) ;
#284 = CIRCLE ( 'NONE', #430, 0.4999999999999997780 ) ;
#285 = EDGE_CURVE ( 'NONE', #250, #511, #369, .T. ) ;
#286 = AXIS2_PLACEMENT_3D ( 'NONE', #9, #57, #223 ) ;
#287 = CARTESIAN_POINT ( 'NONE',  ( 5.000000000000000000, 2.000000000000000000, -0.4999999999999997780 ) ) ;
#288 = ORIENTED_EDGE ( 'NONE', *, *, #294, .F. ) ;
#289 = UNCERTAINTY_MEASURE_WITH_UNIT (LENGTH_MEASURE( 1.000000000000000082E-05 ), #13, 'distance_accuracy_value', 'NONE');
#290 = CARTESIAN_POINT ( 'NONE',  ( 1.627033526717839518, 2.000000000000000000, 5.060999970837068318 ) ) ;
#291 = EDGE_CURVE ( 'NONE', #488, #522, #448, .T. ) ;
#292 = CARTESIAN_POINT ( 'NONE',  ( 5.000000000000000000, 0.000000000000000000, 0.4999999999999997780 ) ) ;
#293 = AXIS2_PLACEMENT_3D ( 'NONE', #382, #5, #2 ) ;
#294 = EDGE_CURVE ( 'NONE', #184, #84, #16, .T. ) ;
#295 = CIRCLE ( 'NONE', #60, 3.000000000000000000 ) ;
#296 = DIRECTION ( 'NONE',  ( -0.000000000000000000, 1.000000000000000000, -0.000000000000000000 ) ) ;
#297 = EDGE_LOOP ( 'NONE', ( #63, #396, #508, #288 ) ) ;
#298 = CYLINDRICAL_SURFACE ( 'NONE', #314, 3.000000000000000000 ) ;
#299 = CARTESIAN_POINT ( 'NONE',  ( 1.627033526717839740, 0.000000000000000000, 5.060999970837069206 ) ) ;
#300 = DIRECTION ( 'NONE',  ( 0.000000000000000000, 1.000000000000000000, 0.000000000000000000 ) ) ;
#301 = DIRECTION ( 'NONE',  ( 0.000000000000000000, 1.000000000000000000, 0.000000000000000000 ) ) ;
#302 = ORIENTED_EDGE ( 'NONE', *, *, #264, .T. ) ;
#303 = DIRECTION ( 'NONE',  ( 0.000000000000000000, 1.000000000000000000, -0.000000000000000000 ) ) ;
#304 = VECTOR ( 'NONE', #110, 1000.000000000000000 ) ;
#305 = DIRECTION ( 'NONE',  ( 0.000000000000000000, 0.000000000000000000, 1.000000000000000000 ) ) ;
#306 = ORIENTED_EDGE ( 'NONE', *, *, #251, .T. ) ;
#307 = CARTESIAN_POINT ( 'NONE',  ( 4.626095880187671483, 0.000000000000000000, 4.985999970837079687 ) ) ;
#308 = EDGE_LOOP ( 'NONE', ( #413, #525 ) ) ;
#309 = EDGE_CURVE ( 'NONE', #407, #142, #334, .T. ) ;
#310 =( LENGTH_UNIT ( ) NAMED_UNIT ( * ) SI_UNIT ( .MILLI., .METRE. ) );
#311 = VERTEX_POINT ( 'NONE', #344 ) ;
#312 = AXIS2_PLACEMENT_3D ( 'NONE', #152, #276, #326 ) ;
#313 = LINE ( 'NONE', #512, #68 ) ;
#314 = AXIS2_PLACEMENT_3D ( 'NONE', #138, #465, #253 ) ;
#315 = ORIENTED_EDGE ( 'NONE', *, *, #479, .T. ) ;
#316 = DIRECTION ( 'NONE',  ( 0.02500000000000350206, 0.000000000000000000, -0.9996874511566100630 ) ) ;
#317 = EDGE_CURVE ( 'NONE', #142, #407, #215, .T. ) ;
#318 = ORIENTED_EDGE ( 'NONE', *, *, #327, .F. ) ;
#319 = DIRECTION ( 'NONE',  ( -0.000000000000000000, -1.000000000000000000, 0.000000000000000000 ) ) ;
#320 = EDGE_LOOP ( 'NONE', ( #90, #389 ) ) ;
#321 = CARTESIAN_POINT ( 'NONE',  ( 4.800000000000000711, 0.000000000000000000, -1.989974874213239486 ) ) ;
#322 = CLOSED_SHELL ( 'NONE', ( #73, #134, #532, #187, #41, #424, #338, #185, #272, #95, #504, #543, #383, #92, #46, #329 ) ) ;
#323 = CIRCLE ( 'NONE', #341, 1.999999999999999112 ) ;
#324 = ORIENTED_EDGE ( 'NONE', *, *, #427, .T. ) ;
#325 = DIRECTION ( 'NONE',  ( -0.000000000000000000, 1.000000000000000000, -0.000000000000000000 ) ) ;
#326 = DIRECTION ( 'NONE',  ( 0.000000000000000000, 0.000000000000000000, -1.000000000000000000 ) ) ;
#327 = EDGE_CURVE ( 'NONE', #421, #311, #11, .T. ) ;
#328 = CARTESIAN_POINT ( 'NONE',  ( -1.499531176734915761, 2.000000000000000000, -0.03750000000000526523 ) ) ;
#329 = ADVANCED_FACE ( 'NONE', ( #34 ), #412, .F. ) ;
#330 = EDGE_LOOP ( 'NONE', ( #180, #29, #55, #541, #209, #7, #167, #182, #70, #436 ) ) ;
#331 = DIRECTION ( 'NONE',  ( 0.000000000000000000, 0.000000000000000000, 1.000000000000000000 ) ) ;
#332 = DIRECTION ( 'NONE',  ( 0.02499999999999650072, 0.000000000000000000, 0.9996874511566102850 ) ) ;
#333 = AXIS2_PLACEMENT_3D ( 'NONE', #336, #208, #246 ) ;
#334 = CIRCLE ( 'NONE', #507, 0.4999999999999998890 ) ;
#335 = VECTOR ( 'NONE', #371, 1000.000000000000000 ) ;
#336 = CARTESIAN_POINT ( 'NONE',  ( 0.000000000000000000, 0.000000000000000000, 0.000000000000000000 ) ) ;
#337 = LINE ( 'NONE', #130, #526 ) ;
#338 = ADVANCED_FACE ( 'NONE', ( #360 ), #495, .T. ) ;
#339 = LINE ( 'NONE', #422, #96 ) ;
#340 = CARTESIAN_POINT ( 'NONE',  ( 4.850438352075068238, 0.000000000000000000, 1.994399988334831120 ) ) ;
#341 = AXIS2_PLACEMENT_3D ( 'NONE', #240, #416, #385 ) ;
#342 = PLANE ( 'NONE',  #274 ) ;
#343 = ORIENTED_EDGE ( 'NONE', *, *, #82, .F. ) ;
#344 = CARTESIAN_POINT ( 'NONE',  ( -1.499531176734915316, 0.000000000000000000, -0.03750000000000523748 ) ) ;
#345 = EDGE_CURVE ( 'NONE', #156, #372, #242, .T. ) ;
#346 = EDGE_LOOP ( 'NONE', ( #381, #485, #356, #324 ) ) ;
#347 = DIRECTION ( 'NONE',  ( 0.000000000000000000, 0.000000000000000000, 1.000000000000000000 ) ) ;
#348 = SURFACE_STYLE_FILL_AREA ( #183 ) ;
#349 = ORIENTED_EDGE ( 'NONE', *, *, #169, .F. ) ;
#350 = DIRECTION ( 'NONE',  ( 0.000000000000000000, 0.000000000000000000, 1.000000000000000000 ) ) ;
#351 = VECTOR ( 'NONE', #135, 1000.000000000000114 ) ;
#352 = DIRECTION ( 'NONE',  ( -0.000000000000000000, -1.000000000000000000, -0.000000000000000000 ) ) ;
#353 = ORIENTED_EDGE ( 'NONE', *, *, #251, .F. ) ;
#354 = EDGE_CURVE ( 'NONE', #372, #522, #279, .T. ) ;
#355 = DIRECTION ( 'NONE',  ( -0.000000000000000000, -1.000000000000000000, -0.000000000000000000 ) ) ;
#356 = ORIENTED_EDGE ( 'NONE', *, *, #368, .F. ) ;
#357 = EDGE_CURVE ( 'NONE', #471, #137, #123, .T. ) ;
#358 = EDGE_CURVE ( 'NONE', #116, #165, #282, .T. ) ;
#359 = ORIENTED_EDGE ( 'NONE', *, *, #37, .T. ) ;
#360 = FACE_OUTER_BOUND ( 'NONE', #111, .T. ) ;
#361 = AXIS2_PLACEMENT_3D ( 'NONE', #190, #319, #530 ) ;
#362 = ORIENTED_EDGE ( 'NONE', *, *, #61, .F. ) ;
#363 = DIRECTION ( 'NONE',  ( -0.000000000000000000, -1.000000000000000000, -0.000000000000000000 ) ) ;
#364 = DIRECTION ( 'NONE',  ( 0.000000000000000000, 1.000000000000000000, 0.000000000000000000 ) ) ;
#365 = DIRECTION ( 'NONE',  ( -0.000000000000000000, 1.000000000000000000, -0.000000000000000000 ) ) ;
#366 = LINE ( 'NONE', #496, #393 ) ;
#367 = CARTESIAN_POINT ( 'NONE',  ( -1.999374902313290958, 0.000000000000000000, 19.94999999999999218 ) ) ;
#368 = EDGE_CURVE ( 'NONE', #511, #22, #21, .T. ) ;
#369 = CIRCLE ( 'NONE', #286, 1.999999999999998224 ) ;
#370 = DIRECTION ( 'NONE',  ( -0.000000000000000000, -1.000000000000000000, -0.000000000000000000 ) ) ;
#371 = DIRECTION ( 'NONE',  ( -0.000000000000000000, 1.000000000000000000, -0.000000000000000000 ) ) ;
#372 = VERTEX_POINT ( 'NONE', #236 ) ;
#373 = CARTESIAN_POINT ( 'NONE',  ( -0.1499999999999999667, 2.000000000000000000, -1.492481155659929337 ) ) ;
#374 = DIRECTION ( 'NONE',  ( -0.000000000000000000, -1.000000000000000000, 0.000000000000000000 ) ) ;
#375 = CARTESIAN_POINT ( 'NONE',  ( 5.000000000000000000, 2.000000000000000000, 0.000000000000000000 ) ) ;
#376 = AXIS2_PLACEMENT_3D ( 'NONE', #177, #257, #261 ) ;
#377 = ORIENTED_EDGE ( 'NONE', *, *, #281, .F. ) ;
#378 = DIRECTION ( 'NONE',  ( -0.000000000000000000, -1.000000000000000000, -0.000000000000000000 ) ) ;
#379 = VERTEX_POINT ( 'NONE', #112 ) ;
#380 = CYLINDRICAL_SURFACE ( 'NONE', #470, 1.999999999999999112 ) ;
#381 = ORIENTED_EDGE ( 'NONE', *, *, #212, .T. ) ;
#382 = CARTESIAN_POINT ( 'NONE',  ( 5.000000000000000000, 0.000000000000000000, 0.000000000000000000 ) ) ;
#383 = ADVANCED_FACE ( 'NONE', ( #451, #194, #118 ), #26, .F. ) ;
#384 = AXIS2_PLACEMENT_3D ( 'NONE', #454, #364, #531 ) ;
#385 = DIRECTION ( 'NONE',  ( 0.000000000000000000, 0.000000000000000000, 1.000000000000000000 ) ) ;
#386 = DIRECTION ( 'NONE',  ( 0.000000000000000000, 0.000000000000000000, 1.000000000000000000 ) ) ;
#387 = CARTESIAN_POINT ( 'NONE',  ( 4.800000000000000711, 2.000000000000000000, -1.989974874213239486 ) ) ;
#388 = DIRECTION ( 'NONE',  ( -0.02499999999999650419, 0.000000000000000000, -0.9996874511566102850 ) ) ;
#389 = ORIENTED_EDGE ( 'NONE', *, *, #317, .T. ) ;
#390 = SHAPE_DEFINITION_REPRESENTATION ( #514, #260 ) ;
#391 = DIRECTION ( 'NONE',  ( 0.9949874371066199652, 0.000000000000000000, -0.1000000000000000472 ) ) ;
#392 = ORIENTED_EDGE ( 'NONE', *, *, #486, .T. ) ;
#393 = VECTOR ( 'NONE', #370, 1000.000000000000000 ) ;
#394 = MECHANICAL_DESIGN_GEOMETRIC_PRESENTATION_REPRESENTATION (  '', ( #114 ), #154 ) ;
#395 = CARTESIAN_POINT ( 'NONE',  ( 5.000000000000000000, 0.000000000000000000, 0.000000000000000000 ) ) ;
#396 = ORIENTED_EDGE ( 'NONE', *, *, #542, .F. ) ;
#397 = PRODUCT ( 'Lip Holder', 'Lip Holder', '', ( #80 ) ) ;
#398 = PRODUCT_DEFINITION_CONTEXT ( 'detailed design', #33, 'design' ) ;
#399 = DIRECTION ( 'NONE',  ( 0.000000000000000000, 0.000000000000000000, 1.000000000000000000 ) ) ;
#400 = ORIENTED_EDGE ( 'NONE', *, *, #523, .T. ) ;
#401 = DIRECTION ( 'NONE',  ( -0.000000000000000000, -1.000000000000000000, -0.000000000000000000 ) ) ;
#402 = VERTEX_POINT ( 'NONE', #408 ) ;
#403 = CIRCLE ( 'NONE', #122, 0.4999999999999998890 ) ;
#404 = AXIS2_PLACEMENT_3D ( 'NONE', #432, #352, #443 ) ;
#405 = CARTESIAN_POINT ( 'NONE',  ( 1.499531176734914206, 2.000000000000000000, -0.03749999999999472505 ) ) ;
#406 = CIRCLE ( 'NONE', #256, 3.000000000000000000 ) ;
#407 = VERTEX_POINT ( 'NONE', #66 ) ;
#408 = CARTESIAN_POINT ( 'NONE',  ( -1.499531176734915316, 2.000000000000000000, -0.03750000000000523748 ) ) ;
#409 = DIRECTION ( 'NONE',  ( -0.000000000000000000, 1.000000000000000000, -0.000000000000000000 ) ) ;
#410 = DIRECTION ( 'NONE',  ( 0.000000000000000000, 0.000000000000000000, 1.000000000000000000 ) ) ;
#411 = DIRECTION ( 'NONE',  ( -0.000000000000000000, -1.000000000000000000, -0.000000000000000000 ) ) ;
#412 = CYLINDRICAL_SURFACE ( 'NONE', #499, 0.4999999999999997780 ) ;
#413 = ORIENTED_EDGE ( 'NONE', *, *, #82, .T. ) ;
#414 =( GEOMETRIC_REPRESENTATION_CONTEXT ( 3 ) GLOBAL_UNCERTAINTY_ASSIGNED_CONTEXT ( ( #289 ) ) GLOBAL_UNIT_ASSIGNED_CONTEXT ( ( #13, #431, #255 ) ) REPRESENTATION_CONTEXT ( 'NONE', 'WORKASPACE' ) );
#415 = ORIENTED_EDGE ( 'NONE', *, *, #357, .T. ) ;
#416 = DIRECTION ( 'NONE',  ( -0.000000000000000000, -1.000000000000000000, 0.000000000000000000 ) ) ;
#417 = DIRECTION ( 'NONE',  ( 0.9949874371066199652, 0.000000000000000000, -0.1000000000000000472 ) ) ;
#418 = EDGE_LOOP ( 'NONE', ( #353, #534, #444, #415 ) ) ;
#419 = CYLINDRICAL_SURFACE ( 'NONE', #461, 3.000000000000000000 ) ;
#420 = AXIS2_PLACEMENT_3D ( 'NONE', #40, #300, #331 ) ;
#421 = VERTEX_POINT ( 'NONE', #367 ) ;
#422 = CARTESIAN_POINT ( 'NONE',  ( 0.000000000000000000, 0.000000000000000000, 0.4999999999999998890 ) ) ;
#423 = EDGE_LOOP ( 'NONE', ( #400, #222, #213, #426 ) ) ;
#424 = ADVANCED_FACE ( 'NONE', ( #158 ), #453, .T. ) ;
#425 = FACE_OUTER_BOUND ( 'NONE', #346, .T. ) ;
#426 = ORIENTED_EDGE ( 'NONE', *, *, #468, .F. ) ;
#427 = EDGE_CURVE ( 'NONE', #511, #50, #528, .T. ) ;
#428 = FACE_BOUND ( 'NONE', #263, .T. ) ;
#429 = DIRECTION ( 'NONE',  ( -0.000000000000000000, -1.000000000000000000, -0.000000000000000000 ) ) ;
#430 = AXIS2_PLACEMENT_3D ( 'NONE', #503, #83, #206 ) ;
#431 =( NAMED_UNIT ( * ) PLANE_ANGLE_UNIT ( ) SI_UNIT ( $, .RADIAN. ) );
#432 = CARTESIAN_POINT ( 'NONE',  ( 5.000000000000000000, 2.000000000000000000, 0.000000000000000000 ) ) ;
#433 = EDGE_LOOP ( 'NONE', ( #258, #306, #359, #349 ) ) ;
#434 = CARTESIAN_POINT ( 'NONE',  ( 5.000000000000000000, 0.000000000000000000, 1.999999999999999112 ) ) ;
#435 = CARTESIAN_POINT ( 'NONE',  ( 5.000000000000000000, 2.000000000000000000, -1.999999999999999112 ) ) ;
#436 = ORIENTED_EDGE ( 'NONE', *, *, #227, .F. ) ;
#437 = EDGE_LOOP ( 'NONE', ( #441, #467, #88, #140 ) ) ;
#438 = AXIS2_PLACEMENT_3D ( 'NONE', #172, #547, #501 ) ;
#439 = AXIS2_PLACEMENT_3D ( 'NONE', #30, #149, #493 ) ;
#440 = CARTESIAN_POINT ( 'NONE',  ( 1.499531176734914206, 0.000000000000000000, -0.03749999999999472505 ) ) ;
#441 = ORIENTED_EDGE ( 'NONE', *, *, #157, .F. ) ;
#442 = EDGE_CURVE ( 'NONE', #421, #50, #472, .T. ) ;
#443 = DIRECTION ( 'NONE',  ( 0.000000000000000000, 0.000000000000000000, -1.000000000000000000 ) ) ;
#444 = ORIENTED_EDGE ( 'NONE', *, *, #169, .T. ) ;
#445 = EDGE_CURVE ( 'NONE', #250, #402, #146, .T. ) ;
#446 = CARTESIAN_POINT ( 'NONE',  ( 5.000000000000000000, 0.000000000000000000, 0.000000000000000000 ) ) ;
#447 = CARTESIAN_POINT ( 'NONE',  ( 0.000000000000000000, 2.000000000000000000, 0.000000000000000000 ) ) ;
#448 = CIRCLE ( 'NONE', #171, 1.999999999999999112 ) ;
#449 = LINE ( 'NONE', #192, #546 ) ;
#450 = ORIENTED_EDGE ( 'NONE', *, *, #442, .T. ) ;
#451 = FACE_BOUND ( 'NONE', #308, .T. ) ;
#452 = ORIENTED_EDGE ( 'NONE', *, *, #35, .T. ) ;
#453 = PLANE ( 'NONE',  #266 ) ;
#454 = CARTESIAN_POINT ( 'NONE',  ( 5.000000000000000000, 2.000000000000000000, 0.000000000000000000 ) ) ;
#455 = AXIS2_PLACEMENT_3D ( 'NONE', #237, #409, #247 ) ;
#456 = AXIS2_PLACEMENT_3D ( 'NONE', #132, #301, #305 ) ;
#457 = CARTESIAN_POINT ( 'NONE',  ( -1.999374902313290958, 2.000000000000000000, 19.94999999999999218 ) ) ;
#458 = CARTESIAN_POINT ( 'NONE',  ( 5.000000000000000000, 2.000000000000000000, 0.4999999999999997780 ) ) ;
#459 = CARTESIAN_POINT ( 'NONE',  ( 4.626095880187671483, 2.000000000000000000, 1.985999970837079687 ) ) ;
#460 = CARTESIAN_POINT ( 'NONE',  ( 5.000000000000000000, 2.000000000000000000, 0.000000000000000000 ) ) ;
#461 = AXIS2_PLACEMENT_3D ( 'NONE', #168, #378, #49 ) ;
#462 = EDGE_CURVE ( 'NONE', #193, #379, #449, .T. ) ;
#463 = CARTESIAN_POINT ( 'NONE',  ( 5.000000000000000000, 2.000000000000000000, 1.999999999999999112 ) ) ;
#464 = ORIENTED_EDGE ( 'NONE', *, *, #479, .F. ) ;
#465 = DIRECTION ( 'NONE',  ( -0.000000000000000000, -1.000000000000000000, -0.000000000000000000 ) ) ;
#466 = CARTESIAN_POINT ( 'NONE',  ( 6.123233995736764803E-17, 0.000000000000000000, -0.4999999999999998890 ) ) ;
#467 = ORIENTED_EDGE ( 'NONE', *, *, #462, .F. ) ;
#468 = EDGE_CURVE ( 'NONE', #502, #478, #155, .T. ) ;
#469 = CARTESIAN_POINT ( 'NONE',  ( 4.626095880187671483, 2.000000000000000000, 4.985999970837079687 ) ) ;
#470 = AXIS2_PLACEMENT_3D ( 'NONE', #375, #429, #211 ) ;
#471 = VERTEX_POINT ( 'NONE', #484 ) ;
#472 = CIRCLE ( 'NONE', #205, 1.999999999999998224 ) ;
#473 = CARTESIAN_POINT ( 'NONE',  ( 0.000000000000000000, 0.000000000000000000, 0.000000000000000000 ) ) ;
#474 = SURFACE_STYLE_USAGE ( .BOTH. , #476 ) ;
#475 = ORIENTED_EDGE ( 'NONE', *, *, #445, .T. ) ;
#476 = SURFACE_SIDE_STYLE ('',( #348 ) ) ;
#477 = ORIENTED_EDGE ( 'NONE', *, *, #327, .T. ) ;
#478 = VERTEX_POINT ( 'NONE', #321 ) ;
#479 = EDGE_CURVE ( 'NONE', #482, #100, #277, .T. ) ;
#480 = AXIS2_PLACEMENT_3D ( 'NONE', #518, #38, #259 ) ;
#481 = CYLINDRICAL_SURFACE ( 'NONE', #404, 1.999999999999999112 ) ;
#482 = VERTEX_POINT ( 'NONE', #238 ) ;
#483 = UNCERTAINTY_MEASURE_WITH_UNIT (LENGTH_MEASURE( 1.000000000000000082E-05 ), #310, 'distance_accuracy_value', 'NONE');
#484 = CARTESIAN_POINT ( 'NONE',  ( 0.000000000000000000, 2.000000000000000000, 0.4999999999999998890 ) ) ;
#485 = ORIENTED_EDGE ( 'NONE', *, *, #117, .T. ) ;
#486 = EDGE_CURVE ( 'NONE', #478, #12, #323, .T. ) ;
#487 = DIRECTION ( 'NONE',  ( -0.02500000000000350553, 0.000000000000000000, 0.9996874511566100630 ) ) ;
#488 = VERTEX_POINT ( 'NONE', #434 ) ;
#489 = EDGE_CURVE ( 'NONE', #165, #100, #107, .T. ) ;
#490 = CIRCLE ( 'NONE', #178, 1.999999999999999112 ) ;
#491 = CARTESIAN_POINT ( 'NONE',  ( -1.499531176734915761, 2.000000000000000000, -0.03750000000000526523 ) ) ;
#492 = ORIENTED_EDGE ( 'NONE', *, *, #358, .F. ) ;
#493 = DIRECTION ( 'NONE',  ( 0.000000000000000000, 0.000000000000000000, 1.000000000000000000 ) ) ;
#494 = DIRECTION ( 'NONE',  ( 0.000000000000000000, 0.000000000000000000, 1.000000000000000000 ) ) ;
#495 = CYLINDRICAL_SURFACE ( 'NONE', #163, 1.999999999999998224 ) ;
#496 = CARTESIAN_POINT ( 'NONE',  ( 5.000000000000000000, 2.000000000000000000, 1.999999999999999112 ) ) ;
#497 = CARTESIAN_POINT ( 'NONE',  ( 5.000000000000000000, 2.000000000000000000, 0.000000000000000000 ) ) ;
#498 = VECTOR ( 'NONE', #417, 1000.000000000000000 ) ;
#499 = AXIS2_PLACEMENT_3D ( 'NONE', #446, #325, #270 ) ;
#500 = LINE ( 'NONE', #124, #197 ) ;
#501 = DIRECTION ( 'NONE',  ( 0.000000000000000000, 0.000000000000000000, 1.000000000000000000 ) ) ;
#502 = VERTEX_POINT ( 'NONE', #387 ) ;
#503 = CARTESIAN_POINT ( 'NONE',  ( 5.000000000000000000, 0.000000000000000000, 0.000000000000000000 ) ) ;
#504 = ADVANCED_FACE ( 'NONE', ( #202 ), #91, .T. ) ;
#505 = DIRECTION ( 'NONE',  ( 0.000000000000000000, 0.000000000000000000, 1.000000000000000000 ) ) ;
#506 = AXIS2_PLACEMENT_3D ( 'NONE', #235, #196, #494 ) ;
#507 = AXIS2_PLACEMENT_3D ( 'NONE', #62, #228, #399 ) ;
#508 = ORIENTED_EDGE ( 'NONE', *, *, #117, .F. ) ;
#509 = DIRECTION ( 'NONE',  ( -0.000000000000000000, -1.000000000000000000, 0.000000000000000000 ) ) ;
#510 = FACE_OUTER_BOUND ( 'NONE', #103, .T. ) ;
#511 = VERTEX_POINT ( 'NONE', #78 ) ;
#512 = CARTESIAN_POINT ( 'NONE',  ( 5.000000000000000000, 2.000000000000000000, -1.999999999999999112 ) ) ;
#513 = ORIENTED_EDGE ( 'NONE', *, *, #354, .T. ) ;
#514 = PRODUCT_DEFINITION_SHAPE ( 'NONE', 'NONE',  #245 ) ;
#515 = CARTESIAN_POINT ( 'NONE',  ( 0.000000000000000000, 0.000000000000000000, 0.000000000000000000 ) ) ;
#516 = CARTESIAN_POINT ( 'NONE',  ( -1.499531176734915761, 0.000000000000000000, -0.03750000000000526523 ) ) ;
#517 = ORIENTED_EDGE ( 'NONE', *, *, #427, .F. ) ;
#518 = CARTESIAN_POINT ( 'NONE',  ( 0.000000000000000000, 2.000000000000000000, 0.000000000000000000 ) ) ;
#519 = LINE ( 'NONE', #221, #25 ) ;
#520 = ORIENTED_EDGE ( 'NONE', *, *, #489, .T. ) ;
#521 = PRESENTATION_STYLE_ASSIGNMENT (( #474 ) ) ;
#522 = VERTEX_POINT ( 'NONE', #340 ) ;
#523 = EDGE_CURVE ( 'NONE', #502, #262, #490, .T. ) ;
#524 = DIRECTION ( 'NONE',  ( 0.000000000000000000, 0.000000000000000000, 1.000000000000000000 ) ) ;
#525 = ORIENTED_EDGE ( 'NONE', *, *, #195, .T. ) ;
#526 = VECTOR ( 'NONE', #87, 1000.000000000000000 ) ;
#527 = AXIS2_PLACEMENT_3D ( 'NONE', #175, #265, #218 ) ;
#528 = LINE ( 'NONE', #64, #32 ) ;
#529 = EDGE_LOOP ( 'NONE', ( #477, #48, #20, #392, #176, #219, #159, #144, #538, #231 ) ) ;
#530 = DIRECTION ( 'NONE',  ( 0.000000000000000000, 0.000000000000000000, 1.000000000000000000 ) ) ;
#531 = DIRECTION ( 'NONE',  ( 0.000000000000000000, 0.000000000000000000, 1.000000000000000000 ) ) ;
#532 = ADVANCED_FACE ( 'NONE', ( #160 ), #298, .F. ) ;
#533 = CARTESIAN_POINT ( 'NONE',  ( 0.000000000000000000, 0.000000000000000000, 0.000000000000000000 ) ) ;
#534 = ORIENTED_EDGE ( 'NONE', *, *, #309, .F. ) ;
#535 = CIRCLE ( 'NONE', #293, 0.4999999999999997780 ) ;
#536 = AXIS2_PLACEMENT_3D ( 'NONE', #139, #97, #524 ) ;
#537 = CARTESIAN_POINT ( 'NONE',  ( -6.994405055138486205E-14, 0.000000000000000000, 20.00000000000000000 ) ) ;
#538 = ORIENTED_EDGE ( 'NONE', *, *, #212, .F. ) ;
#539 = EDGE_CURVE ( 'NONE', #311, #379, #6, .T. ) ;
#540 = DIRECTION ( 'NONE',  ( -0.000000000000000000, -1.000000000000000000, -0.000000000000000000 ) ) ;
#541 = ORIENTED_EDGE ( 'NONE', *, *, #542, .T. ) ;
#542 = EDGE_CURVE ( 'NONE', #22, #156, #406, .T. ) ;
#543 = ADVANCED_FACE ( 'NONE', ( #428, #243, #214 ), #217, .T. ) ;
#544 = FACE_OUTER_BOUND ( 'NONE', #437, .T. ) ;
#545 = CIRCLE ( 'NONE', #85, 1.999999999999999112 ) ;
#546 = VECTOR ( 'NONE', #69, 1000.000000000000000 ) ;
#547 = DIRECTION ( 'NONE',  ( -0.000000000000000000, -1.000000000000000000, 0.000000000000000000 ) ) ;
ENDSEC;
END-ISO-10303-21;
