ISO-10303-21;
HEADER;
FILE_DESCRIPTION (( 'STEP AP214' ),
    '1' );
FILE_NAME ('MG90 - Holder 3.STEP',
    '2025-10-21T18:57:07',
    ( 'Windows User' ),
    ( '' ),
    'SwSTEP 2.0',
    'SolidWorks 2023',
    '' );
FILE_SCHEMA (( 'AUTOMOTIVE_DESIGN' ));
ENDSEC;

DATA;
#1 = ORIENTED_EDGE ( 'NONE', *, *, #333, .F. ) ;
#2 = FACE_OUTER_BOUND ( 'NONE', #123, .T. ) ;
#3 = ORIENTED_EDGE ( 'NONE', *, *, #374, .T. ) ;
#4 = EDGE_CURVE ( 'NONE', #269, #239, #534, .T. ) ;
#5 = CARTESIAN_POINT ( 'NONE',  ( -5.000000000000004441, 10.00000000000000000, -6.999999999999997335 ) ) ;
#6 = DIRECTION ( 'NONE',  ( -1.000000000000000000, 0.000000000000000000, 2.668805347656626185E-16 ) ) ;
#7 = CARTESIAN_POINT ( 'NONE',  ( 21.50000000000000711, 5.000000000000000000, 0.000000000000000000 ) ) ;
#8 = COLOUR_RGB ( '',0.7529411764705882248, 0.000000000000000000, 0.7529411764705882248 ) ;
#9 = VERTEX_POINT ( 'NONE', #338 ) ;
#10 = CARTESIAN_POINT ( 'NONE',  ( -5.204170427930421283E-15, 0.000000000000000000, -28.00000000000000000 ) ) ;
#11 = CARTESIAN_POINT ( 'NONE',  ( 18.00000000000000355, 10.00000000000000000, -33.00000000000000000 ) ) ;
#12 = DIRECTION ( 'NONE',  ( 1.000000000000000000, 0.000000000000000000, 0.000000000000000000 ) ) ;
#13 = LINE ( 'NONE', #158, #446 ) ;
#14 = ORIENTED_EDGE ( 'NONE', *, *, #40, .F. ) ;
#15 = CARTESIAN_POINT ( 'NONE',  ( 23.50000000000001066, 5.000000000000000000, 0.000000000000000000 ) ) ;
#16 = DIRECTION ( 'NONE',  ( -9.912705577010326536E-16, 0.000000000000000000, 1.000000000000000000 ) ) ;
#17 = ORIENTED_EDGE ( 'NONE', *, *, #214, .T. ) ;
#18 = VECTOR ( 'NONE', #600, 1000.000000000000000 ) ;
#19 = ADVANCED_FACE ( 'NONE', ( #283, #474 ), #529, .F. ) ;
#20 = FACE_OUTER_BOUND ( 'NONE', #37, .T. ) ;
#21 = ORIENTED_EDGE ( 'NONE', *, *, #404, .T. ) ;
#22 = PRODUCT_DEFINITION_SHAPE ( 'NONE', 'NONE',  #204 ) ;
#23 = EDGE_CURVE ( 'NONE', #313, #590, #197, .T. ) ;
#24 = CARTESIAN_POINT ( 'NONE',  ( 23.50000000000001066, 5.000000000000000000, 8.000000000000000000 ) ) ;
#25 = VERTEX_POINT ( 'NONE', #431 ) ;
#26 = DIRECTION ( 'NONE',  ( -1.000000000000000000, 0.000000000000000000, 0.000000000000000000 ) ) ;
#27 = DIRECTION ( 'NONE',  ( 0.000000000000000000, -0.000000000000000000, 1.000000000000000000 ) ) ;
#28 = ORIENTED_EDGE ( 'NONE', *, *, #195, .F. ) ;
#29 = AXIS2_PLACEMENT_3D ( 'NONE', #584, #162, #540 ) ;
#30 = PRESENTATION_LAYER_ASSIGNMENT (  '', '', ( #381 ) ) ;
#31 = VECTOR ( 'NONE', #164, 1000.000000000000000 ) ;
#32 = DIRECTION ( 'NONE',  ( -1.000000000000000000, 0.000000000000000000, 0.000000000000000000 ) ) ;
#33 = ORIENTED_EDGE ( 'NONE', *, *, #263, .T. ) ;
#34 = DIRECTION ( 'NONE',  ( 0.000000000000000000, 0.000000000000000000, -1.000000000000000000 ) ) ;
#35 = ORIENTED_EDGE ( 'NONE', *, *, #4, .F. ) ;
#36 = PLANE ( 'NONE',  #580 ) ;
#37 = EDGE_LOOP ( 'NONE', ( #211, #585, #117, #208 ) ) ;
#38 =( GEOMETRIC_REPRESENTATION_CONTEXT ( 3 ) GLOBAL_UNCERTAINTY_ASSIGNED_CONTEXT ( ( #311 ) ) GLOBAL_UNIT_ASSIGNED_CONTEXT ( ( #255, #310, #356 ) ) REPRESENTATION_CONTEXT ( 'NONE', 'WORKASPACE' ) );
#39 = CARTESIAN_POINT ( 'NONE',  ( -13.00000000000000533, 10.00000000000000000, -6.999999999999994671 ) ) ;
#40 = EDGE_CURVE ( 'NONE', #223, #507, #386, .T. ) ;
#41 = ORIENTED_EDGE ( 'NONE', *, *, #551, .T. ) ;
#42 = CARTESIAN_POINT ( 'NONE',  ( 23.50000000000001066, 5.000000000000000000, -7.000000000000000000 ) ) ;
#43 = VERTEX_POINT ( 'NONE', #102 ) ;
#44 = UNCERTAINTY_MEASURE_WITH_UNIT (LENGTH_MEASURE( 1.000000000000000082E-05 ), #361, 'distance_accuracy_value', 'NONE');
#45 = FACE_OUTER_BOUND ( 'NONE', #234, .T. ) ;
#46 = ADVANCED_FACE ( 'NONE', ( #51, #2 ), #291, .F. ) ;
#47 = CARTESIAN_POINT ( 'NONE',  ( -5.000000000000004441, 0.000000000000000000, -6.999999999999997335 ) ) ;
#48 = ORIENTED_EDGE ( 'NONE', *, *, #288, .F. ) ;
#49 = VECTOR ( 'NONE', #578, 1000.000000000000000 ) ;
#50 = VECTOR ( 'NONE', #443, 1000.000000000000000 ) ;
#51 = FACE_BOUND ( 'NONE', #306, .T. ) ;
#52 = DIRECTION ( 'NONE',  ( -2.668805347656626185E-16, 0.000000000000000000, -1.000000000000000000 ) ) ;
#53 = DIRECTION ( 'NONE',  ( 3.252606517456513302E-16, -0.000000000000000000, 1.000000000000000000 ) ) ;
#54 = CARTESIAN_POINT ( 'NONE',  ( -5.000000000000004441, 10.00000000000000000, -6.999999999999997335 ) ) ;
#55 = DIRECTION ( 'NONE',  ( -0.000000000000000000, -0.000000000000000000, 1.000000000000000000 ) ) ;
#56 = VECTOR ( 'NONE', #365, 1000.000000000000000 ) ;
#57 = CARTESIAN_POINT ( 'NONE',  ( 0.000000000000000000, 0.000000000000000000, 0.000000000000000000 ) ) ;
#58 = CARTESIAN_POINT ( 'NONE',  ( -10.50000000000000000, 5.000000000000000000, 0.000000000000000000 ) ) ;
#59 = ORIENTED_EDGE ( 'NONE', *, *, #606, .F. ) ;
#60 = FACE_OUTER_BOUND ( 'NONE', #254, .T. ) ;
#61 = CARTESIAN_POINT ( 'NONE',  ( 26.00000000000000355, 10.00000000000000000, 0.000000000000000000 ) ) ;
#62 = ORIENTED_EDGE ( 'NONE', *, *, #525, .F. ) ;
#63 = DIRECTION ( 'NONE',  ( 1.000000000000000000, 0.000000000000000000, -0.000000000000000000 ) ) ;
#64 = ORIENTED_EDGE ( 'NONE', *, *, #180, .F. ) ;
#65 = VECTOR ( 'NONE', #553, 1000.000000000000000 ) ;
#66 = DIRECTION ( 'NONE',  ( 0.000000000000000000, 0.000000000000000000, -1.000000000000000000 ) ) ;
#67 = UNCERTAINTY_MEASURE_WITH_UNIT (LENGTH_MEASURE( 1.000000000000000082E-05 ), #499, 'distance_accuracy_value', 'NONE');
#68 = EDGE_CURVE ( 'NONE', #424, #313, #141, .T. ) ;
#69 = LINE ( 'NONE', #253, #256 ) ;
#70 = ORIENTED_EDGE ( 'NONE', *, *, #405, .F. ) ;
#71 =( NAMED_UNIT ( * ) PLANE_ANGLE_UNIT ( ) SI_UNIT ( $, .RADIAN. ) );
#72 = PLANE ( 'NONE',  #187 ) ;
#73 = VERTEX_POINT ( 'NONE', #98 ) ;
#74 = LINE ( 'NONE', #124, #496 ) ;
#75 = ORIENTED_EDGE ( 'NONE', *, *, #245, .T. ) ;
#76 = LINE ( 'NONE', #300, #31 ) ;
#77 = VECTOR ( 'NONE', #352, 1000.000000000000000 ) ;
#78 = CARTESIAN_POINT ( 'NONE',  ( 13.00000000000000178, 10.00000000000000000, 0.000000000000000000 ) ) ;
#79 = ORIENTED_EDGE ( 'NONE', *, *, #195, .T. ) ;
#80 = FACE_OUTER_BOUND ( 'NONE', #502, .T. ) ;
#81 = EDGE_LOOP ( 'NONE', ( #605, #530, #265, #163, #461, #350, #583, #560, #171, #554, #445, #520 ) ) ;
#82 = CARTESIAN_POINT ( 'NONE',  ( 0.000000000000000000, 0.000000000000000000, 0.000000000000000000 ) ) ;
#83 = EDGE_CURVE ( 'NONE', #241, #411, #477, .T. ) ;
#84 = DIRECTION ( 'NONE',  ( -0.000000000000000000, 1.000000000000000000, 0.000000000000000000 ) ) ;
#85 = ORIENTED_EDGE ( 'NONE', *, *, #405, .T. ) ;
#86 = EDGE_CURVE ( 'NONE', #541, #302, #572, .T. ) ;
#87 = VECTOR ( 'NONE', #252, 1000.000000000000000 ) ;
#88 = SURFACE_STYLE_USAGE ( .BOTH. , #514 ) ;
#89 = ORIENTED_EDGE ( 'NONE', *, *, #480, .F. ) ;
#90 = LINE ( 'NONE', #339, #570 ) ;
#91 = DIRECTION ( 'NONE',  ( -1.858632295689436102E-16, 0.000000000000000000, -1.000000000000000000 ) ) ;
#92 = ORIENTED_EDGE ( 'NONE', *, *, #385, .T. ) ;
#93 = EDGE_CURVE ( 'NONE', #166, #168, #567, .T. ) ;
#94 = CARTESIAN_POINT ( 'NONE',  ( -5.204170427930421283E-15, 10.00000000000000000, -28.00000000000000000 ) ) ;
#95 = ORIENTED_EDGE ( 'NONE', *, *, #376, .T. ) ;
#96 = AXIS2_PLACEMENT_3D ( 'NONE', #582, #119, #63 ) ;
#97 = AXIS2_PLACEMENT_3D ( 'NONE', #249, #6, #532 ) ;
#98 = CARTESIAN_POINT ( 'NONE',  ( 18.00000000000001066, 10.00000000000000000, -7.000000000000000000 ) ) ;
#99 = DIRECTION ( 'NONE',  ( -1.000000000000000000, 0.000000000000000000, -0.000000000000000000 ) ) ;
#100 = CARTESIAN_POINT ( 'NONE',  ( 18.00000000000000355, 10.00000000000000000, -33.00000000000000000 ) ) ;
#101 = EDGE_CURVE ( 'NONE', #608, #73, #145, .T. ) ;
#102 = CARTESIAN_POINT ( 'NONE',  ( 12.99999999999999645, 10.00000000000000000, -28.00000000000000000 ) ) ;
#103 = PLANE ( 'NONE',  #556 ) ;
#104 = CIRCLE ( 'NONE', #157, 1.000000000000000888 ) ;
#105 = CARTESIAN_POINT ( 'NONE',  ( -5.204170427930421283E-15, 10.00000000000000000, -28.00000000000000000 ) ) ;
#106 = COLOUR_RGB ( '',0.7921568627450980005, 0.8196078431372548767, 0.9333333333333333481 ) ;
#107 = ORIENTED_EDGE ( 'NONE', *, *, #555, .F. ) ;
#108 = CARTESIAN_POINT ( 'NONE',  ( -9.499999999999998224, 5.000000000000000000, 8.000000000000003553 ) ) ;
#109 = CARTESIAN_POINT ( 'NONE',  ( 0.000000000000000000, 10.00000000000000000, 0.000000000000000000 ) ) ;
#110 = EDGE_LOOP ( 'NONE', ( #33, #48, #550, #543 ) ) ;
#111 = DIRECTION ( 'NONE',  ( -1.000000000000000000, 0.000000000000000000, 0.000000000000000000 ) ) ;
#112 = CARTESIAN_POINT ( 'NONE',  ( -5.000000000000000888, 10.00000000000000000, 0.000000000000000000 ) ) ;
#113 = EDGE_CURVE ( 'NONE', #302, #25, #150, .T. ) ;
#114 = ORIENTED_EDGE ( 'NONE', *, *, #500, .T. ) ;
#115 =( NAMED_UNIT ( * ) PLANE_ANGLE_UNIT ( ) SI_UNIT ( $, .RADIAN. ) );
#116 = CARTESIAN_POINT ( 'NONE',  ( 12.99999999999999645, 0.000000000000000000, -28.00000000000000000 ) ) ;
#117 = ORIENTED_EDGE ( 'NONE', *, *, #586, .T. ) ;
#118 = SURFACE_STYLE_FILL_AREA ( #595 ) ;
#119 = DIRECTION ( 'NONE',  ( 0.000000000000000000, -0.000000000000000000, 1.000000000000000000 ) ) ;
#120 = ORIENTED_EDGE ( 'NONE', *, *, #531, .T. ) ;
#121 =( NAMED_UNIT ( * ) SI_UNIT ( $, .STERADIAN. ) SOLID_ANGLE_UNIT ( ) );
#122 = DIRECTION ( 'NONE',  ( 1.000000000000000000, 0.000000000000000000, 0.000000000000000000 ) ) ;
#123 = EDGE_LOOP ( 'NONE', ( #17, #59, #325, #493 ) ) ;
#124 = CARTESIAN_POINT ( 'NONE',  ( 26.00000000000000355, 10.00000000000000000, 0.000000000000000000 ) ) ;
#125 = ORIENTED_EDGE ( 'NONE', *, *, #151, .T. ) ;
#126 = SHAPE_DEFINITION_REPRESENTATION ( #22, #544 ) ;
#127 = AXIS2_PLACEMENT_3D ( 'NONE', #170, #509, #216 ) ;
#128 = AXIS2_PLACEMENT_3D ( 'NONE', #82, #421, #183 ) ;
#129 = DIRECTION ( 'NONE',  ( 1.000000000000000000, 0.000000000000000000, 0.000000000000000000 ) ) ;
#130 = VERTEX_POINT ( 'NONE', #428 ) ;
#131 = ADVANCED_FACE ( 'NONE', ( #379 ), #382, .F. ) ;
#132 = APPLICATION_PROTOCOL_DEFINITION ( 'draft international standard', 'automotive_design', 1998, #367 ) ;
#133 = CARTESIAN_POINT ( 'NONE',  ( 12.99999999999999645, 10.00000000000000000, -28.00000000000000000 ) ) ;
#134 = ORIENTED_EDGE ( 'NONE', *, *, #83, .T. ) ;
#135 = LINE ( 'NONE', #315, #247 ) ;
#136 = ORIENTED_EDGE ( 'NONE', *, *, #606, .T. ) ;
#137 = PRODUCT_DEFINITION_CONTEXT ( 'detailed design', #367, 'design' ) ;
#138 = CLOSED_SHELL ( 'NONE', ( #217, #193, #489, #609, #131, #46, #287, #351, #546, #260, #229, #19, #336, #510, #464, #314, #599, #478 ) ) ;
#139 = DIRECTION ( 'NONE',  ( 0.000000000000000000, -0.000000000000000000, 1.000000000000000000 ) ) ;
#140 = PRODUCT_DEFINITION_FORMATION_WITH_SPECIFIED_SOURCE ( 'Symmetric', '', #508, .NOT_KNOWN. ) ;
#141 = LINE ( 'NONE', #188, #176 ) ;
#142 = CARTESIAN_POINT ( 'NONE',  ( -13.00000000000001066, 0.000000000000000000, 0.000000000000000000 ) ) ;
#143 = APPLICATION_CONTEXT ( 'automotive_design' ) ;
#144 = ORIENTED_EDGE ( 'NONE', *, *, #323, .F. ) ;
#145 = LINE ( 'NONE', #238, #483 ) ;
#146 = VECTOR ( 'NONE', #192, 1000.000000000000000 ) ;
#147 = CARTESIAN_POINT ( 'NONE',  ( -9.500000000000000000, 5.000000000000000000, 0.000000000000000000 ) ) ;
#148 = EDGE_CURVE ( 'NONE', #25, #313, #340, .T. ) ;
#149 = LINE ( 'NONE', #54, #50 ) ;
#150 = LINE ( 'NONE', #47, #475 ) ;
#151 = EDGE_CURVE ( 'NONE', #299, #9, #384, .T. ) ;
#152 = CARTESIAN_POINT ( 'NONE',  ( 0.000000000000000000, 10.00000000000000000, 0.000000000000000000 ) ) ;
#153 = DIRECTION ( 'NONE',  ( -0.000000000000000000, -1.000000000000000000, -0.000000000000000000 ) ) ;
#154 = ORIENTED_EDGE ( 'NONE', *, *, #23, .T. ) ;
#155 = EDGE_CURVE ( 'NONE', #517, #279, #568, .T. ) ;
#156 = SURFACE_STYLE_FILL_AREA ( #577 ) ;
#157 = AXIS2_PLACEMENT_3D ( 'NONE', #391, #200, #349 ) ;
#158 = CARTESIAN_POINT ( 'NONE',  ( 12.99999999999999645, 0.000000000000000000, -28.00000000000000000 ) ) ;
#159 = MECHANICAL_DESIGN_GEOMETRIC_PRESENTATION_REPRESENTATION (  '', ( #381 ), #221 ) ;
#160 = ORIENTED_EDGE ( 'NONE', *, *, #93, .T. ) ;
#161 = CARTESIAN_POINT ( 'NONE',  ( -5.204170427930421283E-15, 10.00000000000000000, -28.00000000000000000 ) ) ;
#162 = DIRECTION ( 'NONE',  ( -3.002406016113704397E-16, -0.000000000000000000, -1.000000000000000000 ) ) ;
#163 = ORIENTED_EDGE ( 'NONE', *, *, #113, .F. ) ;
#164 = DIRECTION ( 'NONE',  ( -3.002406016113704397E-16, -0.000000000000000000, -1.000000000000000000 ) ) ;
#165 = LINE ( 'NONE', #304, #49 ) ;
#166 = VERTEX_POINT ( 'NONE', #7 ) ;
#167 = LINE ( 'NONE', #308, #294 ) ;
#168 = VERTEX_POINT ( 'NONE', #523 ) ;
#169 = MECHANICAL_DESIGN_GEOMETRIC_PRESENTATION_REPRESENTATION (  '', ( #258 ), #38 ) ;
#170 = CARTESIAN_POINT ( 'NONE',  ( -9.500000000000003553, 5.000000000000000000, -6.999999999999994671 ) ) ;
#171 = ORIENTED_EDGE ( 'NONE', *, *, #83, .F. ) ;
#172 = CARTESIAN_POINT ( 'NONE',  ( 0.000000000000000000, 10.00000000000000000, 0.000000000000000000 ) ) ;
#173 = ORIENTED_EDGE ( 'NONE', *, *, #363, .F. ) ;
#174 = DIRECTION ( 'NONE',  ( 1.000000000000000000, 0.000000000000000000, -0.000000000000000000 ) ) ;
#175 = ORIENTED_EDGE ( 'NONE', *, *, #151, .F. ) ;
#176 = VECTOR ( 'NONE', #482, 1000.000000000000000 ) ;
#177 = AXIS2_PLACEMENT_3D ( 'NONE', #264, #199, #237 ) ;
#178 = CARTESIAN_POINT ( 'NONE',  ( 18.00000000000000355, 0.000000000000000000, -33.00000000000000000 ) ) ;
#179 = VERTEX_POINT ( 'NONE', #243 ) ;
#180 = EDGE_CURVE ( 'NONE', #9, #302, #433, .T. ) ;
#181 = DIRECTION ( 'NONE',  ( -1.858632295689436102E-16, 0.000000000000000000, -1.000000000000000000 ) ) ;
#182 = ORIENTED_EDGE ( 'NONE', *, *, #326, .F. ) ;
#183 = DIRECTION ( 'NONE',  ( 1.000000000000000000, 0.000000000000000000, 0.000000000000000000 ) ) ;
#184 = CARTESIAN_POINT ( 'NONE',  ( 0.000000000000000000, 10.00000000000000000, 0.000000000000000000 ) ) ;
#185 = CARTESIAN_POINT ( 'NONE',  ( -5.000000000000005329, 0.000000000000000000, -33.00000000000000000 ) ) ;
#186 = AXIS2_PLACEMENT_3D ( 'NONE', #289, #526, #99 ) ;
#187 = AXIS2_PLACEMENT_3D ( 'NONE', #273, #228, #417 ) ;
#188 = CARTESIAN_POINT ( 'NONE',  ( -13.00000000000001066, 10.00000000000000000, 0.000000000000000000 ) ) ;
#189 = ORIENTED_EDGE ( 'NONE', *, *, #354, .F. ) ;
#190 = DIRECTION ( 'NONE',  ( -1.000000000000000000, 0.000000000000000000, 3.252606517456513302E-16 ) ) ;
#191 = ORIENTED_EDGE ( 'NONE', *, *, #354, .T. ) ;
#192 = DIRECTION ( 'NONE',  ( 1.000000000000000000, -0.000000000000000000, -0.000000000000000000 ) ) ;
#193 = ADVANCED_FACE ( 'NONE', ( #20 ), #575, .F. ) ;
#194 = FACE_OUTER_BOUND ( 'NONE', #505, .T. ) ;
#195 = EDGE_CURVE ( 'NONE', #424, #513, #542, .T. ) ;
#196 = AXIS2_PLACEMENT_3D ( 'NONE', #439, #34, #32 ) ;
#197 = LINE ( 'NONE', #389, #146 ) ;
#198 = EDGE_LOOP ( 'NONE', ( #95, #286, #107, #392 ) ) ;
#199 = DIRECTION ( 'NONE',  ( -0.000000000000000000, -0.000000000000000000, 1.000000000000000000 ) ) ;
#200 = DIRECTION ( 'NONE',  ( 0.000000000000000000, 0.000000000000000000, -1.000000000000000000 ) ) ;
#201 = CARTESIAN_POINT ( 'NONE',  ( 22.50000000000001066, 5.000000000000000000, -7.000000000000000000 ) ) ;
#202 = CARTESIAN_POINT ( 'NONE',  ( 18.00000000000000355, 0.000000000000000000, 0.000000000000000000 ) ) ;
#203 = VERTEX_POINT ( 'NONE', #11 ) ;
#204 = PRODUCT_DEFINITION ( 'General', '', #140, #137 ) ;
#205 = DIRECTION ( 'NONE',  ( -1.858632295689436102E-16, 0.000000000000000000, -1.000000000000000000 ) ) ;
#206 = DIRECTION ( 'NONE',  ( -0.000000000000000000, -1.000000000000000000, -0.000000000000000000 ) ) ;
#207 = AXIS2_PLACEMENT_3D ( 'NONE', #481, #438, #344 ) ;
#208 = ORIENTED_EDGE ( 'NONE', *, *, #93, .F. ) ;
#209 = SURFACE_STYLE_USAGE ( .BOTH. , #348 ) ;
#210 = DIRECTION ( 'NONE',  ( -1.000000000000000000, 0.000000000000000000, 0.000000000000000000 ) ) ;
#211 = ORIENTED_EDGE ( 'NONE', *, *, #303, .F. ) ;
#212 = FACE_OUTER_BOUND ( 'NONE', #468, .T. ) ;
#213 = ORIENTED_EDGE ( 'NONE', *, *, #266, .T. ) ;
#214 = EDGE_CURVE ( 'NONE', #179, #241, #261, .T. ) ;
#215 = DIRECTION ( 'NONE',  ( -0.000000000000000000, -0.000000000000000000, -1.000000000000000000 ) ) ;
#216 = DIRECTION ( 'NONE',  ( 1.000000000000000000, 0.000000000000000000, 0.000000000000000000 ) ) ;
#217 = ADVANCED_FACE ( 'NONE', ( #402 ), #533, .F. ) ;
#218 = VECTOR ( 'NONE', #331, 1000.000000000000000 ) ;
#219 = VERTEX_POINT ( 'NONE', #444 ) ;
#220 = VECTOR ( 'NONE', #122, 1000.000000000000000 ) ;
#221 =( GEOMETRIC_REPRESENTATION_CONTEXT ( 3 ) GLOBAL_UNCERTAINTY_ASSIGNED_CONTEXT ( ( #67 ) ) GLOBAL_UNIT_ASSIGNED_CONTEXT ( ( #499, #71, #121 ) ) REPRESENTATION_CONTEXT ( 'NONE', 'WORKASPACE' ) );
#222 = CARTESIAN_POINT ( 'NONE',  ( 0.000000000000000000, 0.000000000000000000, 0.000000000000000000 ) ) ;
#223 = VERTEX_POINT ( 'NONE', #105 ) ;
#224 = CARTESIAN_POINT ( 'NONE',  ( 22.50000000000001066, 5.000000000000000000, 8.000000000000000000 ) ) ;
#225 = CARTESIAN_POINT ( 'NONE',  ( -8.500000000000001776, 5.000000000000000000, -6.999999999999994671 ) ) ;
#226 = ORIENTED_EDGE ( 'NONE', *, *, #242, .F. ) ;
#227 = EDGE_CURVE ( 'NONE', #513, #590, #538, .T. ) ;
#228 = DIRECTION ( 'NONE',  ( 1.000000000000000000, -0.000000000000000000, 9.912705577010334424E-16 ) ) ;
#229 = ADVANCED_FACE ( 'NONE', ( #295 ), #394, .F. ) ;
#230 = VERTEX_POINT ( 'NONE', #116 ) ;
#231 = VECTOR ( 'NONE', #342, 1000.000000000000000 ) ;
#232 = AXIS2_PLACEMENT_3D ( 'NONE', #472, #610, #281 ) ;
#233 = CARTESIAN_POINT ( 'NONE',  ( 18.00000000000001066, 0.000000000000000000, -7.000000000000000000 ) ) ;
#234 = EDGE_LOOP ( 'NONE', ( #471, #453, #89, #191 ) ) ;
#235 = CARTESIAN_POINT ( 'NONE',  ( 18.00000000000000355, 10.00000000000000000, -33.00000000000000000 ) ) ;
#236 = ORIENTED_EDGE ( 'NONE', *, *, #500, .F. ) ;
#237 = DIRECTION ( 'NONE',  ( -1.000000000000000000, 0.000000000000000000, 0.000000000000000000 ) ) ;
#238 = CARTESIAN_POINT ( 'NONE',  ( 18.00000000000001066, 10.00000000000000000, -7.000000000000000000 ) ) ;
#239 = VERTEX_POINT ( 'NONE', #441 ) ;
#240 = DIRECTION ( 'NONE',  ( -1.000000000000000000, 0.000000000000000000, 0.000000000000000000 ) ) ;
#241 = VERTEX_POINT ( 'NONE', #298 ) ;
#242 = EDGE_CURVE ( 'NONE', #166, #490, #104, .T. ) ;
#243 = CARTESIAN_POINT ( 'NONE',  ( 13.00000000000000178, 0.000000000000000000, 0.000000000000000000 ) ) ;
#244 = DIRECTION ( 'NONE',  ( -0.000000000000000000, -0.000000000000000000, -1.000000000000000000 ) ) ;
#245 = EDGE_CURVE ( 'NONE', #299, #541, #165, .T. ) ;
#246 = FACE_OUTER_BOUND ( 'NONE', #296, .T. ) ;
#247 = VECTOR ( 'NONE', #506, 1000.000000000000000 ) ;
#248 = CARTESIAN_POINT ( 'NONE',  ( -5.000000000000004441, 0.000000000000000000, -6.999999999999997335 ) ) ;
#249 = CARTESIAN_POINT ( 'NONE',  ( 18.00000000000001066, 10.00000000000000000, -7.000000000000000000 ) ) ;
#250 = DIRECTION ( 'NONE',  ( 1.000000000000000000, 0.000000000000000000, 0.000000000000000000 ) ) ;
#251 = EDGE_LOOP ( 'NONE', ( #458, #226, #160, #579 ) ) ;
#252 = DIRECTION ( 'NONE',  ( -1.000000000000000000, 0.000000000000000000, 0.000000000000000000 ) ) ;
#253 = CARTESIAN_POINT ( 'NONE',  ( -8.499999999999996447, 5.000000000000000000, 8.000000000000003553 ) ) ;
#254 = EDGE_LOOP ( 'NONE', ( #154, #420, #28, #347 ) ) ;
#255 =( LENGTH_UNIT ( ) NAMED_UNIT ( * ) SI_UNIT ( .MILLI., .METRE. ) );
#256 = VECTOR ( 'NONE', #485, 1000.000000000000000 ) ;
#257 = DIRECTION ( 'NONE',  ( -0.000000000000000000, -1.000000000000000000, -0.000000000000000000 ) ) ;
#258 = STYLED_ITEM ( 'NONE', ( #552 ), #573 ) ;
#259 = ORIENTED_EDGE ( 'NONE', *, *, #363, .T. ) ;
#260 = ADVANCED_FACE ( 'NONE', ( #301 ), #492, .F. ) ;
#261 = LINE ( 'NONE', #202, #592 ) ;
#262 = EDGE_LOOP ( 'NONE', ( #522, #320 ) ) ;
#263 = EDGE_CURVE ( 'NONE', #230, #179, #13, .T. ) ;
#264 = CARTESIAN_POINT ( 'NONE',  ( -9.500000000000000000, 5.000000000000000000, 0.000000000000000000 ) ) ;
#265 = ORIENTED_EDGE ( 'NONE', *, *, #148, .F. ) ;
#266 = EDGE_CURVE ( 'NONE', #239, #318, #69, .T. ) ;
#267 = CARTESIAN_POINT ( 'NONE',  ( -13.00000000000000533, 10.00000000000000000, -6.999999999999994671 ) ) ;
#268 = VECTOR ( 'NONE', #559, 1000.000000000000000 ) ;
#269 = VERTEX_POINT ( 'NONE', #58 ) ;
#270 = CARTESIAN_POINT ( 'NONE',  ( 0.000000000000000000, 0.000000000000000000, 0.000000000000000000 ) ) ;
#271 = CARTESIAN_POINT ( 'NONE',  ( -13.00000000000001066, 10.00000000000000000, 0.000000000000000000 ) ) ;
#272 = ORIENTED_EDGE ( 'NONE', *, *, #245, .F. ) ;
#273 = CARTESIAN_POINT ( 'NONE',  ( -13.00000000000001066, 10.00000000000000000, 0.000000000000000000 ) ) ;
#274 = ORIENTED_EDGE ( 'NONE', *, *, #435, .F. ) ;
#275 = CARTESIAN_POINT ( 'NONE',  ( -5.204170427930421283E-15, 0.000000000000000000, -28.00000000000000000 ) ) ;
#276 = ORIENTED_EDGE ( 'NONE', *, *, #586, .F. ) ;
#277 = PRODUCT_CONTEXT ( 'NONE', #143, 'mechanical' ) ;
#278 = CARTESIAN_POINT ( 'NONE',  ( 18.00000000000001066, 0.000000000000000000, -7.000000000000000000 ) ) ;
#279 = VERTEX_POINT ( 'NONE', #346 ) ;
#280 = EDGE_CURVE ( 'NONE', #490, #511, #450, .T. ) ;
#281 = DIRECTION ( 'NONE',  ( -1.000000000000000000, 0.000000000000000000, -0.000000000000000000 ) ) ;
#282 = DIRECTION ( 'NONE',  ( -0.000000000000000000, -1.000000000000000000, -0.000000000000000000 ) ) ;
#283 = FACE_BOUND ( 'NONE', #262, .T. ) ;
#284 = AXIS2_PLACEMENT_3D ( 'NONE', #434, #566, #91 ) ;
#285 = AXIS2_PLACEMENT_3D ( 'NONE', #362, #596, #129 ) ;
#286 = ORIENTED_EDGE ( 'NONE', *, *, #418, .F. ) ;
#287 = ADVANCED_FACE ( 'NONE', ( #212 ), #398, .F. ) ;
#288 = EDGE_CURVE ( 'NONE', #219, #179, #167, .T. ) ;
#289 = CARTESIAN_POINT ( 'NONE',  ( 18.00000000000000355, 10.00000000000000000, 0.000000000000000000 ) ) ;
#290 = DIRECTION ( 'NONE',  ( -3.002406016113704397E-16, -0.000000000000000000, -1.000000000000000000 ) ) ;
#291 = PLANE ( 'NONE',  #186 ) ;
#292 = LINE ( 'NONE', #57, #447 ) ;
#293 = VECTOR ( 'NONE', #257, 1000.000000000000000 ) ;
#294 = VECTOR ( 'NONE', #206, 1000.000000000000000 ) ;
#295 = FACE_OUTER_BOUND ( 'NONE', #322, .T. ) ;
#296 = EDGE_LOOP ( 'NONE', ( #79, #85, #436, #92, #451, #330, #449, #343, #120, #125, #114, #21 ) ) ;
#297 = LINE ( 'NONE', #235, #317 ) ;
#298 = CARTESIAN_POINT ( 'NONE',  ( 26.00000000000000355, 0.000000000000000000, 0.000000000000000000 ) ) ;
#299 = VERTEX_POINT ( 'NONE', #501 ) ;
#300 = CARTESIAN_POINT ( 'NONE',  ( -10.49999999999999822, 5.000000000000000000, 8.000000000000003553 ) ) ;
#301 = FACE_OUTER_BOUND ( 'NONE', #332, .T. ) ;
#302 = VERTEX_POINT ( 'NONE', #248 ) ;
#303 = EDGE_CURVE ( 'NONE', #490, #166, #337, .T. ) ;
#304 = CARTESIAN_POINT ( 'NONE',  ( -5.000000000000005329, 10.00000000000000000, -33.00000000000000000 ) ) ;
#305 = VECTOR ( 'NONE', #12, 1000.000000000000000 ) ;
#306 = EDGE_LOOP ( 'NONE', ( #594, #360 ) ) ;
#307 = FACE_OUTER_BOUND ( 'NONE', #251, .T. ) ;
#308 = CARTESIAN_POINT ( 'NONE',  ( 13.00000000000000178, 10.00000000000000000, 0.000000000000000000 ) ) ;
#309 = VERTEX_POINT ( 'NONE', #557 ) ;
#310 =( NAMED_UNIT ( * ) PLANE_ANGLE_UNIT ( ) SI_UNIT ( $, .RADIAN. ) );
#311 = UNCERTAINTY_MEASURE_WITH_UNIT (LENGTH_MEASURE( 1.000000000000000082E-05 ), #255, 'distance_accuracy_value', 'NONE');
#312 = LINE ( 'NONE', #178, #65 ) ;
#313 = VERTEX_POINT ( 'NONE', #319 ) ;
#314 = ADVANCED_FACE ( 'NONE', ( #452 ), #36, .F. ) ;
#315 = CARTESIAN_POINT ( 'NONE',  ( 12.99999999999999645, 10.00000000000000000, -28.00000000000000000 ) ) ;
#316 = AXIS2_PLACEMENT_3D ( 'NONE', #448, #406, #210 ) ;
#317 = VECTOR ( 'NONE', #425, 1000.000000000000000 ) ;
#318 = VERTEX_POINT ( 'NONE', #225 ) ;
#319 = CARTESIAN_POINT ( 'NONE',  ( -13.00000000000001066, 0.000000000000000000, 0.000000000000000000 ) ) ;
#320 = ORIENTED_EDGE ( 'NONE', *, *, #333, .T. ) ;
#321 = LINE ( 'NONE', #233, #359 ) ;
#322 = EDGE_LOOP ( 'NONE', ( #442, #64, #175, #75 ) ) ;
#323 = EDGE_CURVE ( 'NONE', #309, #608, #74, .T. ) ;
#324 = LINE ( 'NONE', #78, #536 ) ;
#325 = ORIENTED_EDGE ( 'NONE', *, *, #422, .F. ) ;
#326 = EDGE_CURVE ( 'NONE', #130, #318, #516, .T. ) ;
#327 = VECTOR ( 'NONE', #512, 1000.000000000000000 ) ;
#328 = CARTESIAN_POINT ( 'NONE',  ( 18.00000000000001066, 10.00000000000000000, -7.000000000000000000 ) ) ;
#329 = DIRECTION ( 'NONE',  ( -1.000000000000000000, -0.000000000000000000, -0.000000000000000000 ) ) ;
#330 = ORIENTED_EDGE ( 'NONE', *, *, #323, .T. ) ;
#331 = DIRECTION ( 'NONE',  ( -9.912705577010334424E-16, -0.000000000000000000, 1.000000000000000000 ) ) ;
#332 = EDGE_LOOP ( 'NONE', ( #3, #272, #558, #407 ) ) ;
#333 = EDGE_CURVE ( 'NONE', #318, #130, #456, .T. ) ;
#334 = CARTESIAN_POINT ( 'NONE',  ( 18.00000000000001066, 0.000000000000000000, -7.000000000000000000 ) ) ;
#335 = AXIS2_PLACEMENT_3D ( 'NONE', #61, #588, #16 ) ;
#336 = ADVANCED_FACE ( 'NONE', ( #80 ), #72, .F. ) ;
#337 = CIRCLE ( 'NONE', #196, 1.000000000000000888 ) ;
#338 = CARTESIAN_POINT ( 'NONE',  ( -5.000000000000004441, 10.00000000000000000, -6.999999999999997335 ) ) ;
#339 = CARTESIAN_POINT ( 'NONE',  ( 26.00000000000001066, 10.00000000000000000, -7.000000000000000000 ) ) ;
#340 = LINE ( 'NONE', #142, #218 ) ;
#341 = PLANE ( 'NONE',  #232 ) ;
#342 = DIRECTION ( 'NONE',  ( 1.000000000000000000, 0.000000000000000000, 0.000000000000000000 ) ) ;
#343 = ORIENTED_EDGE ( 'NONE', *, *, #480, .T. ) ;
#344 = DIRECTION ( 'NONE',  ( -1.000000000000000000, 0.000000000000000000, 0.000000000000000000 ) ) ;
#345 = AXIS2_PLACEMENT_3D ( 'NONE', #201, #454, #111 ) ;
#346 = CARTESIAN_POINT ( 'NONE',  ( 18.00000000000000355, 0.000000000000000000, -33.00000000000000000 ) ) ;
#347 = ORIENTED_EDGE ( 'NONE', *, *, #68, .T. ) ;
#348 = SURFACE_SIDE_STYLE ('',( #118 ) ) ;
#349 = DIRECTION ( 'NONE',  ( -1.000000000000000000, 0.000000000000000000, 0.000000000000000000 ) ) ;
#350 = ORIENTED_EDGE ( 'NONE', *, *, #374, .F. ) ;
#351 = ADVANCED_FACE ( 'NONE', ( #593, #462 ), #604, .F. ) ;
#352 = DIRECTION ( 'NONE',  ( -0.000000000000000000, -1.000000000000000000, -0.000000000000000000 ) ) ;
#353 = DIRECTION ( 'NONE',  ( 1.858632295689436102E-16, 0.000000000000000000, 1.000000000000000000 ) ) ;
#354 = EDGE_CURVE ( 'NONE', #73, #517, #504, .T. ) ;
#355 = ORIENTED_EDGE ( 'NONE', *, *, #180, .T. ) ;
#356 =( NAMED_UNIT ( * ) SI_UNIT ( $, .STERADIAN. ) SOLID_ANGLE_UNIT ( ) );
#357 = AXIS2_PLACEMENT_3D ( 'NONE', #147, #55, #240 ) ;
#358 = DIRECTION ( 'NONE',  ( -3.336006684570782732E-17, 0.000000000000000000, -1.000000000000000000 ) ) ;
#359 = VECTOR ( 'NONE', #460, 1000.000000000000000 ) ;
#360 = ORIENTED_EDGE ( 'NONE', *, *, #303, .T. ) ;
#361 =( LENGTH_UNIT ( ) NAMED_UNIT ( * ) SI_UNIT ( .MILLI., .METRE. ) );
#362 = CARTESIAN_POINT ( 'NONE',  ( -9.500000000000003553, 5.000000000000000000, -6.999999999999994671 ) ) ;
#363 = EDGE_CURVE ( 'NONE', #416, #25, #412, .T. ) ;
#364 = ORIENTED_EDGE ( 'NONE', *, *, #404, .F. ) ;
#365 = DIRECTION ( 'NONE',  ( -0.000000000000000000, -1.000000000000000000, -0.000000000000000000 ) ) ;
#366 = ORIENTED_EDGE ( 'NONE', *, *, #266, .F. ) ;
#367 = APPLICATION_CONTEXT ( 'automotive_design' ) ;
#368 = CARTESIAN_POINT ( 'NONE',  ( -13.00000000000001066, 10.00000000000000000, 0.000000000000000000 ) ) ;
#369 = VECTOR ( 'NONE', #611, 1000.000000000000000 ) ;
#370 = AXIS2_PLACEMENT_3D ( 'NONE', #108, #290, #393 ) ;
#371 = ORIENTED_EDGE ( 'NONE', *, *, #589, .F. ) ;
#372 = LINE ( 'NONE', #133, #327 ) ;
#373 = ORIENTED_EDGE ( 'NONE', *, *, #525, .T. ) ;
#374 = EDGE_CURVE ( 'NONE', #279, #541, #312, .T. ) ;
#375 = CARTESIAN_POINT ( 'NONE',  ( 26.00000000000001066, 0.000000000000000000, -7.000000000000000000 ) ) ;
#376 = EDGE_CURVE ( 'NONE', #507, #230, #549, .T. ) ;
#377 = ORIENTED_EDGE ( 'NONE', *, *, #68, .F. ) ;
#378 = DIRECTION ( 'NONE',  ( -0.000000000000000000, -1.000000000000000000, -0.000000000000000000 ) ) ;
#379 = FACE_OUTER_BOUND ( 'NONE', #110, .T. ) ;
#380 = AXIS2_PLACEMENT_3D ( 'NONE', #547, #497, #358 ) ;
#381 = STYLED_ITEM ( 'NONE', ( #400 ), #544 ) ;
#382 = PLANE ( 'NONE',  #284 ) ;
#383 = PRODUCT_RELATED_PRODUCT_CATEGORY ( 'part', '', ( #508 ) ) ;
#384 = LINE ( 'NONE', #521, #369 ) ;
#385 = EDGE_CURVE ( 'NONE', #43, #219, #372, .T. ) ;
#386 = LINE ( 'NONE', #94, #437 ) ;
#387 = CARTESIAN_POINT ( 'NONE',  ( -5.000000000000005329, 0.000000000000000000, -33.00000000000000000 ) ) ;
#388 = AXIS2_PLACEMENT_3D ( 'NONE', #414, #66, #598 ) ;
#389 = CARTESIAN_POINT ( 'NONE',  ( -5.000000000000000888, 0.000000000000000000, 0.000000000000000000 ) ) ;
#390 = CYLINDRICAL_SURFACE ( 'NONE', #370, 1.000000000000000888 ) ;
#391 = CARTESIAN_POINT ( 'NONE',  ( 22.50000000000001066, 5.000000000000000000, 0.000000000000000000 ) ) ;
#392 = ORIENTED_EDGE ( 'NONE', *, *, #40, .T. ) ;
#393 = DIRECTION ( 'NONE',  ( -1.000000000000000000, 0.000000000000000000, 0.000000000000000000 ) ) ;
#394 = PLANE ( 'NONE',  #380 ) ;
#395 = ORIENTED_EDGE ( 'NONE', *, *, #101, .F. ) ;
#396 = LINE ( 'NONE', #161, #305 ) ;
#397 = VECTOR ( 'NONE', #181, 1000.000000000000000 ) ;
#398 = PLANE ( 'NONE',  #335 ) ;
#399 = EDGE_LOOP ( 'NONE', ( #597, #189, #395, #373 ) ) ;
#400 = PRESENTATION_STYLE_ASSIGNMENT (( #209 ) ) ;
#401 = EDGE_CURVE ( 'NONE', #411, #517, #321, .T. ) ;
#402 = FACE_OUTER_BOUND ( 'NONE', #576, .T. ) ;
#403 = EDGE_LOOP ( 'NONE', ( #548, #173, #236, #355 ) ) ;
#404 = EDGE_CURVE ( 'NONE', #416, #424, #423, .T. ) ;
#405 = EDGE_CURVE ( 'NONE', #513, #223, #607, .T. ) ;
#406 = DIRECTION ( 'NONE',  ( -0.000000000000000000, -0.000000000000000000, -1.000000000000000000 ) ) ;
#407 = ORIENTED_EDGE ( 'NONE', *, *, #466, .T. ) ;
#408 = LINE ( 'NONE', #494, #77 ) ;
#409 = DIRECTION ( 'NONE',  ( 9.912705577010326536E-16, 0.000000000000000000, -1.000000000000000000 ) ) ;
#410 = AXIS2_PLACEMENT_3D ( 'NONE', #415, #561, #174 ) ;
#411 = VERTEX_POINT ( 'NONE', #375 ) ;
#412 = LINE ( 'NONE', #39, #56 ) ;
#413 = ORIENTED_EDGE ( 'NONE', *, *, #527, .F. ) ;
#414 = CARTESIAN_POINT ( 'NONE',  ( -5.204170427930421283E-15, 10.00000000000000000, -28.00000000000000000 ) ) ;
#415 = CARTESIAN_POINT ( 'NONE',  ( 18.00000000000001066, 10.00000000000000000, -7.000000000000000000 ) ) ;
#416 = VERTEX_POINT ( 'NONE', #267 ) ;
#417 = DIRECTION ( 'NONE',  ( 9.912705577010334424E-16, 0.000000000000000000, -1.000000000000000000 ) ) ;
#418 = EDGE_CURVE ( 'NONE', #43, #230, #135, .T. ) ;
#419 = CIRCLE ( 'NONE', #345, 1.000000000000000888 ) ;
#420 = ORIENTED_EDGE ( 'NONE', *, *, #227, .F. ) ;
#421 = DIRECTION ( 'NONE',  ( 0.000000000000000000, 0.000000000000000000, 1.000000000000000000 ) ) ;
#422 = EDGE_CURVE ( 'NONE', #219, #309, #324, .T. ) ;
#423 = LINE ( 'NONE', #368, #18 ) ;
#424 = VERTEX_POINT ( 'NONE', #271 ) ;
#425 = DIRECTION ( 'NONE',  ( -0.000000000000000000, -1.000000000000000000, -0.000000000000000000 ) ) ;
#426 = CARTESIAN_POINT ( 'NONE',  ( 21.50000000000000711, 5.000000000000000000, 8.000000000000000000 ) ) ;
#427 = PLANE ( 'NONE',  #613 ) ;
#428 = CARTESIAN_POINT ( 'NONE',  ( -10.50000000000000355, 5.000000000000000000, -6.999999999999994671 ) ) ;
#429 = VECTOR ( 'NONE', #244, 1000.000000000000000 ) ;
#430 = AXIS2_PLACEMENT_3D ( 'NONE', #224, #215, #26 ) ;
#431 = CARTESIAN_POINT ( 'NONE',  ( -13.00000000000000533, 0.000000000000000000, -6.999999999999994671 ) ) ;
#432 = EDGE_LOOP ( 'NONE', ( #366, #539, #463, #1 ) ) ;
#433 = LINE ( 'NONE', #5, #564 ) ;
#434 = CARTESIAN_POINT ( 'NONE',  ( 12.99999999999999645, 10.00000000000000000, -28.00000000000000000 ) ) ;
#435 = EDGE_CURVE ( 'NONE', #239, #269, #565, .T. ) ;
#436 = ORIENTED_EDGE ( 'NONE', *, *, #555, .T. ) ;
#437 = VECTOR ( 'NONE', #282, 1000.000000000000000 ) ;
#438 = DIRECTION ( 'NONE',  ( 0.000000000000000000, 0.000000000000000000, -1.000000000000000000 ) ) ;
#439 = CARTESIAN_POINT ( 'NONE',  ( 22.50000000000001066, 5.000000000000000000, 0.000000000000000000 ) ) ;
#440 = DIRECTION ( 'NONE',  ( -0.000000000000000000, 1.000000000000000000, 0.000000000000000000 ) ) ;
#441 = CARTESIAN_POINT ( 'NONE',  ( -8.499999999999998224, 5.000000000000000000, 0.000000000000000000 ) ) ;
#442 = ORIENTED_EDGE ( 'NONE', *, *, #86, .T. ) ;
#443 = DIRECTION ( 'NONE',  ( -1.000000000000000000, 0.000000000000000000, 3.252606517456513302E-16 ) ) ;
#444 = CARTESIAN_POINT ( 'NONE',  ( 13.00000000000000178, 10.00000000000000000, 0.000000000000000000 ) ) ;
#445 = ORIENTED_EDGE ( 'NONE', *, *, #263, .F. ) ;
#446 = VECTOR ( 'NONE', #353, 1000.000000000000000 ) ;
#447 = VECTOR ( 'NONE', #205, 1000.000000000000000 ) ;
#448 = CARTESIAN_POINT ( 'NONE',  ( 22.50000000000001066, 5.000000000000000000, 8.000000000000000000 ) ) ;
#449 = ORIENTED_EDGE ( 'NONE', *, *, #101, .T. ) ;
#450 = LINE ( 'NONE', #24, #602 ) ;
#451 = ORIENTED_EDGE ( 'NONE', *, *, #422, .T. ) ;
#452 = FACE_OUTER_BOUND ( 'NONE', #81, .T. ) ;
#453 = ORIENTED_EDGE ( 'NONE', *, *, #466, .F. ) ;
#454 = DIRECTION ( 'NONE',  ( 0.000000000000000000, 0.000000000000000000, -1.000000000000000000 ) ) ;
#455 = AXIS2_PLACEMENT_3D ( 'NONE', #519, #53, #614 ) ;
#456 = CIRCLE ( 'NONE', #127, 1.000000000000000888 ) ;
#457 = DIRECTION ( 'NONE',  ( 1.000000000000000000, 0.000000000000000000, 0.000000000000000000 ) ) ;
#458 = ORIENTED_EDGE ( 'NONE', *, *, #280, .F. ) ;
#459 = CYLINDRICAL_SURFACE ( 'NONE', #430, 1.000000000000000888 ) ;
#460 = DIRECTION ( 'NONE',  ( -1.000000000000000000, -0.000000000000000000, -0.000000000000000000 ) ) ;
#461 = ORIENTED_EDGE ( 'NONE', *, *, #86, .F. ) ;
#462 = FACE_OUTER_BOUND ( 'NONE', #399, .T. ) ;
#463 = ORIENTED_EDGE ( 'NONE', *, *, #589, .T. ) ;
#464 = ADVANCED_FACE ( 'NONE', ( #246 ), #427, .T. ) ;
#465 = CARTESIAN_POINT ( 'NONE',  ( 18.00000000000001066, 10.00000000000000000, -7.000000000000000000 ) ) ;
#466 = EDGE_CURVE ( 'NONE', #203, #279, #297, .T. ) ;
#467 =( GEOMETRIC_REPRESENTATION_CONTEXT ( 3 ) GLOBAL_UNCERTAINTY_ASSIGNED_CONTEXT ( ( #44 ) ) GLOBAL_UNIT_ASSIGNED_CONTEXT ( ( #361, #115, #587 ) ) REPRESENTATION_CONTEXT ( 'NONE', 'WORKASPACE' ) );
#468 = EDGE_LOOP ( 'NONE', ( #134, #62, #144, #136 ) ) ;
#469 = APPLICATION_PROTOCOL_DEFINITION ( 'draft international standard', 'automotive_design', 1998, #143 ) ;
#470 = DIRECTION ( 'NONE',  ( -1.000000000000000000, 0.000000000000000000, 1.858632295689436102E-16 ) ) ;
#471 = ORIENTED_EDGE ( 'NONE', *, *, #155, .T. ) ;
#472 = CARTESIAN_POINT ( 'NONE',  ( -5.000000000000000888, 10.00000000000000000, 0.000000000000000000 ) ) ;
#473 = DIRECTION ( 'NONE',  ( 3.336006684570782732E-17, 0.000000000000000000, 1.000000000000000000 ) ) ;
#474 = FACE_OUTER_BOUND ( 'NONE', #403, .T. ) ;
#475 = VECTOR ( 'NONE', #190, 1000.000000000000000 ) ;
#476 = CIRCLE ( 'NONE', #207, 1.000000000000000888 ) ;
#477 = LINE ( 'NONE', #569, #515 ) ;
#478 = ADVANCED_FACE ( 'NONE', ( #563 ), #390, .F. ) ;
#479 = DIRECTION ( 'NONE',  ( 9.912705577010326536E-16, 0.000000000000000000, -1.000000000000000000 ) ) ;
#480 = EDGE_CURVE ( 'NONE', #73, #203, #487, .T. ) ;
#481 = CARTESIAN_POINT ( 'NONE',  ( 22.50000000000001066, 5.000000000000000000, -7.000000000000000000 ) ) ;
#482 = DIRECTION ( 'NONE',  ( -0.000000000000000000, -1.000000000000000000, -0.000000000000000000 ) ) ;
#483 = VECTOR ( 'NONE', #329, 1000.000000000000000 ) ;
#484 = PLANE ( 'NONE',  #97 ) ;
#485 = DIRECTION ( 'NONE',  ( -3.002406016113704397E-16, -0.000000000000000000, -1.000000000000000000 ) ) ;
#486 = ORIENTED_EDGE ( 'NONE', *, *, #4, .T. ) ;
#487 = LINE ( 'NONE', #328, #524 ) ;
#488 = DIRECTION ( 'NONE',  ( -0.000000000000000000, -0.000000000000000000, -1.000000000000000000 ) ) ;
#489 = ADVANCED_FACE ( 'NONE', ( #194 ), #103, .F. ) ;
#490 = VERTEX_POINT ( 'NONE', #15 ) ;
#491 = CARTESIAN_POINT ( 'NONE',  ( 26.00000000000001066, 10.00000000000000000, -7.000000000000000000 ) ) ;
#492 = PLANE ( 'NONE',  #96 ) ;
#493 = ORIENTED_EDGE ( 'NONE', *, *, #288, .T. ) ;
#494 = CARTESIAN_POINT ( 'NONE',  ( 26.00000000000000355, 10.00000000000000000, 0.000000000000000000 ) ) ;
#495 = VECTOR ( 'NONE', #473, 1000.000000000000000 ) ;
#496 = VECTOR ( 'NONE', #409, 1000.000000000000000 ) ;
#497 = DIRECTION ( 'NONE',  ( 1.000000000000000000, 0.000000000000000000, -3.336006684570782732E-17 ) ) ;
#498 = ORIENTED_EDGE ( 'NONE', *, *, #148, .T. ) ;
#499 =( LENGTH_UNIT ( ) NAMED_UNIT ( * ) SI_UNIT ( .MILLI., .METRE. ) );
#500 = EDGE_CURVE ( 'NONE', #9, #416, #149, .T. ) ;
#501 = CARTESIAN_POINT ( 'NONE',  ( -5.000000000000005329, 10.00000000000000000, -33.00000000000000000 ) ) ;
#502 = EDGE_LOOP ( 'NONE', ( #498, #377, #364, #259 ) ) ;
#503 = PLANE ( 'NONE',  #388 ) ;
#504 = LINE ( 'NONE', #465, #268 ) ;
#505 = EDGE_LOOP ( 'NONE', ( #41, #14, #70, #535 ) ) ;
#506 = DIRECTION ( 'NONE',  ( -0.000000000000000000, -1.000000000000000000, -0.000000000000000000 ) ) ;
#507 = VERTEX_POINT ( 'NONE', #10 ) ;
#508 = PRODUCT ( 'MG90 - Holder 3', 'MG90 - Holder 3', '', ( #277 ) ) ;
#509 = DIRECTION ( 'NONE',  ( 3.002406016113704397E-16, -0.000000000000000000, 1.000000000000000000 ) ) ;
#510 = ADVANCED_FACE ( 'NONE', ( #528, #60 ), #341, .F. ) ;
#511 = VERTEX_POINT ( 'NONE', #42 ) ;
#512 = DIRECTION ( 'NONE',  ( 1.858632295689436102E-16, 0.000000000000000000, 1.000000000000000000 ) ) ;
#513 = VERTEX_POINT ( 'NONE', #152 ) ;
#514 = SURFACE_SIDE_STYLE ('',( #156 ) ) ;
#515 = VECTOR ( 'NONE', #479, 1000.000000000000000 ) ;
#516 = CIRCLE ( 'NONE', #285, 1.000000000000000888 ) ;
#517 = VERTEX_POINT ( 'NONE', #278 ) ;
#518 = DIRECTION ( 'NONE',  ( 1.858632295689436102E-16, 0.000000000000000000, 1.000000000000000000 ) ) ;
#519 = CARTESIAN_POINT ( 'NONE',  ( -5.000000000000004441, 10.00000000000000000, -6.999999999999997335 ) ) ;
#520 = ORIENTED_EDGE ( 'NONE', *, *, #376, .F. ) ;
#521 = CARTESIAN_POINT ( 'NONE',  ( -5.000000000000005329, 10.00000000000000000, -33.00000000000000000 ) ) ;
#522 = ORIENTED_EDGE ( 'NONE', *, *, #326, .T. ) ;
#523 = CARTESIAN_POINT ( 'NONE',  ( 21.50000000000000711, 5.000000000000000000, -7.000000000000000000 ) ) ;
#524 = VECTOR ( 'NONE', #574, 1000.000000000000000 ) ;
#525 = EDGE_CURVE ( 'NONE', #608, #411, #90, .T. ) ;
#526 = DIRECTION ( 'NONE',  ( 0.000000000000000000, 0.000000000000000000, -1.000000000000000000 ) ) ;
#527 = EDGE_CURVE ( 'NONE', #168, #511, #476, .T. ) ;
#528 = FACE_BOUND ( 'NONE', #601, .T. ) ;
#529 = PLANE ( 'NONE',  #455 ) ;
#530 = ORIENTED_EDGE ( 'NONE', *, *, #23, .F. ) ;
#531 = EDGE_CURVE ( 'NONE', #203, #299, #537, .T. ) ;
#532 = DIRECTION ( 'NONE',  ( 2.668805347656626185E-16, 0.000000000000000000, 1.000000000000000000 ) ) ;
#533 = CYLINDRICAL_SURFACE ( 'NONE', #29, 1.000000000000000888 ) ;
#534 = CIRCLE ( 'NONE', #357, 1.000000000000000888 ) ;
#535 = ORIENTED_EDGE ( 'NONE', *, *, #227, .T. ) ;
#536 = VECTOR ( 'NONE', #457, 1000.000000000000000 ) ;
#537 = LINE ( 'NONE', #100, #87 ) ;
#538 = LINE ( 'NONE', #109, #293 ) ;
#539 = ORIENTED_EDGE ( 'NONE', *, *, #435, .T. ) ;
#540 = DIRECTION ( 'NONE',  ( -1.000000000000000000, 0.000000000000000000, 0.000000000000000000 ) ) ;
#541 = VERTEX_POINT ( 'NONE', #387 ) ;
#542 = LINE ( 'NONE', #112, #231 ) ;
#543 = ORIENTED_EDGE ( 'NONE', *, *, #418, .T. ) ;
#544 = ADVANCED_BREP_SHAPE_REPRESENTATION ( 'MG90 - Holder 3', ( #573, #128 ), #467 ) ;
#545 = FILL_AREA_STYLE_COLOUR ( '', #8 ) ;
#546 = ADVANCED_FACE ( 'NONE', ( #45 ), #484, .F. ) ;
#547 = CARTESIAN_POINT ( 'NONE',  ( -5.000000000000005329, 10.00000000000000000, -33.00000000000000000 ) ) ;
#548 = ORIENTED_EDGE ( 'NONE', *, *, #113, .T. ) ;
#549 = LINE ( 'NONE', #275, #220 ) ;
#550 = ORIENTED_EDGE ( 'NONE', *, *, #385, .F. ) ;
#551 = EDGE_CURVE ( 'NONE', #590, #507, #292, .T. ) ;
#552 = PRESENTATION_STYLE_ASSIGNMENT (( #88 ) ) ;
#553 = DIRECTION ( 'NONE',  ( -1.000000000000000000, 0.000000000000000000, 0.000000000000000000 ) ) ;
#554 = ORIENTED_EDGE ( 'NONE', *, *, #214, .F. ) ;
#555 = EDGE_CURVE ( 'NONE', #223, #43, #396, .T. ) ;
#556 = AXIS2_PLACEMENT_3D ( 'NONE', #571, #470, #518 ) ;
#557 = CARTESIAN_POINT ( 'NONE',  ( 26.00000000000000355, 10.00000000000000000, 0.000000000000000000 ) ) ;
#558 = ORIENTED_EDGE ( 'NONE', *, *, #531, .F. ) ;
#559 = DIRECTION ( 'NONE',  ( -0.000000000000000000, -1.000000000000000000, -0.000000000000000000 ) ) ;
#560 = ORIENTED_EDGE ( 'NONE', *, *, #401, .F. ) ;
#561 = DIRECTION ( 'NONE',  ( 0.000000000000000000, 0.000000000000000000, 1.000000000000000000 ) ) ;
#562 = EDGE_LOOP ( 'NONE', ( #413, #276 ) ) ;
#563 = FACE_OUTER_BOUND ( 'NONE', #432, .T. ) ;
#564 = VECTOR ( 'NONE', #153, 1000.000000000000000 ) ;
#565 = CIRCLE ( 'NONE', #177, 1.000000000000000888 ) ;
#566 = DIRECTION ( 'NONE',  ( 1.000000000000000000, 0.000000000000000000, -1.858632295689436102E-16 ) ) ;
#567 = LINE ( 'NONE', #426, #429 ) ;
#568 = LINE ( 'NONE', #334, #612 ) ;
#569 = CARTESIAN_POINT ( 'NONE',  ( 26.00000000000000355, 0.000000000000000000, 0.000000000000000000 ) ) ;
#570 = VECTOR ( 'NONE', #378, 1000.000000000000000 ) ;
#571 = CARTESIAN_POINT ( 'NONE',  ( 0.000000000000000000, 10.00000000000000000, 0.000000000000000000 ) ) ;
#572 = LINE ( 'NONE', #185, #495 ) ;
#573 = MANIFOLD_SOLID_BREP ( 'Mirror1', #138 ) ;
#574 = DIRECTION ( 'NONE',  ( -2.668805347656626185E-16, 0.000000000000000000, -1.000000000000000000 ) ) ;
#575 = CYLINDRICAL_SURFACE ( 'NONE', #316, 1.000000000000000888 ) ;
#576 = EDGE_LOOP ( 'NONE', ( #486, #213, #182, #371 ) ) ;
#577 = FILL_AREA_STYLE ('',( #581 ) ) ;
#578 = DIRECTION ( 'NONE',  ( -0.000000000000000000, -1.000000000000000000, -0.000000000000000000 ) ) ;
#579 = ORIENTED_EDGE ( 'NONE', *, *, #527, .T. ) ;
#580 = AXIS2_PLACEMENT_3D ( 'NONE', #222, #84, #27 ) ;
#581 = FILL_AREA_STYLE_COLOUR ( '', #106 ) ;
#582 = CARTESIAN_POINT ( 'NONE',  ( 18.00000000000000355, 10.00000000000000000, -33.00000000000000000 ) ) ;
#583 = ORIENTED_EDGE ( 'NONE', *, *, #155, .F. ) ;
#584 = CARTESIAN_POINT ( 'NONE',  ( -9.499999999999998224, 5.000000000000000000, 8.000000000000003553 ) ) ;
#585 = ORIENTED_EDGE ( 'NONE', *, *, #280, .T. ) ;
#586 = EDGE_CURVE ( 'NONE', #511, #168, #419, .T. ) ;
#587 =( NAMED_UNIT ( * ) SI_UNIT ( $, .STERADIAN. ) SOLID_ANGLE_UNIT ( ) );
#588 = DIRECTION ( 'NONE',  ( -1.000000000000000000, 0.000000000000000000, -9.912705577010326536E-16 ) ) ;
#589 = EDGE_CURVE ( 'NONE', #269, #130, #76, .T. ) ;
#590 = VERTEX_POINT ( 'NONE', #270 ) ;
#591 = FACE_OUTER_BOUND ( 'NONE', #198, .T. ) ;
#592 = VECTOR ( 'NONE', #250, 1000.000000000000000 ) ;
#593 = FACE_BOUND ( 'NONE', #562, .T. ) ;
#594 = ORIENTED_EDGE ( 'NONE', *, *, #242, .T. ) ;
#595 = FILL_AREA_STYLE ('',( #545 ) ) ;
#596 = DIRECTION ( 'NONE',  ( 3.002406016113704397E-16, -0.000000000000000000, 1.000000000000000000 ) ) ;
#597 = ORIENTED_EDGE ( 'NONE', *, *, #401, .T. ) ;
#598 = DIRECTION ( 'NONE',  ( -1.000000000000000000, 0.000000000000000000, -0.000000000000000000 ) ) ;
#599 = ADVANCED_FACE ( 'NONE', ( #307 ), #459, .F. ) ;
#600 = DIRECTION ( 'NONE',  ( -9.912705577010334424E-16, -0.000000000000000000, 1.000000000000000000 ) ) ;
#601 = EDGE_LOOP ( 'NONE', ( #35, #274 ) ) ;
#602 = VECTOR ( 'NONE', #488, 1000.000000000000000 ) ;
#603 = PRESENTATION_LAYER_ASSIGNMENT (  '', '', ( #258 ) ) ;
#604 = PLANE ( 'NONE',  #410 ) ;
#605 = ORIENTED_EDGE ( 'NONE', *, *, #551, .F. ) ;
#606 = EDGE_CURVE ( 'NONE', #309, #241, #408, .T. ) ;
#607 = LINE ( 'NONE', #172, #397 ) ;
#608 = VERTEX_POINT ( 'NONE', #491 ) ;
#609 = ADVANCED_FACE ( 'NONE', ( #591 ), #503, .F. ) ;
#610 = DIRECTION ( 'NONE',  ( 0.000000000000000000, 0.000000000000000000, -1.000000000000000000 ) ) ;
#611 = DIRECTION ( 'NONE',  ( 3.336006684570782732E-17, 0.000000000000000000, 1.000000000000000000 ) ) ;
#612 = VECTOR ( 'NONE', #52, 1000.000000000000000 ) ;
#613 = AXIS2_PLACEMENT_3D ( 'NONE', #184, #440, #139 ) ;
#614 = DIRECTION ( 'NONE',  ( 1.000000000000000000, 0.000000000000000000, -3.252606517456513302E-16 ) ) ;
ENDSEC;
END-ISO-10303-21;
