ISO-10303-21;
HEADER;
FILE_DESCRIPTION (( 'STEP AP214' ),
    '1' );
FILE_NAME ('Rod new lip RR.STEP',
    '2025-10-21T18:57:08',
    ( 'Windows User' ),
    ( '' ),
    'SwSTEP 2.0',
    'SolidWorks 2023',
    '' );
FILE_SCHEMA (( 'AUTOMOTIVE_DESIGN' ));
ENDSEC;

DATA;
#1 = DIRECTION ( 'NONE',  ( 0.000000000000000000, 1.000000000000000000, -0.000000000000000000 ) ) ;
#2 = ORIENTED_EDGE ( 'NONE', *, *, #43, .F. ) ;
#3 = CARTESIAN_POINT ( 'NONE',  ( 1.451385308233929128E-14, 3.000000000000000000, 2.000000000000000000 ) ) ;
#4 = ORIENTED_EDGE ( 'NONE', *, *, #403, .F. ) ;
#5 = DIRECTION ( 'NONE',  ( 7.256926541169644063E-15, -0.000000000000000000, 1.000000000000000000 ) ) ;
#6 =( LENGTH_UNIT ( ) NAMED_UNIT ( * ) SI_UNIT ( .MILLI., .METRE. ) );
#7 = AXIS2_PLACEMENT_3D ( 'NONE', #392, #359, #184 ) ;
#8 = ORIENTED_EDGE ( 'NONE', *, *, #286, .T. ) ;
#9 = AXIS2_PLACEMENT_3D ( 'NONE', #116, #285, #296 ) ;
#10 = PRODUCT_DEFINITION_FORMATION_WITH_SPECIFIED_SOURCE ( 'Symmetric', '', #188, .NOT_KNOWN. ) ;
#11 = SURFACE_STYLE_FILL_AREA ( #69 ) ;
#12 = ORIENTED_EDGE ( 'NONE', *, *, #306, .T. ) ;
#13 = CARTESIAN_POINT ( 'NONE',  ( -1.451385308233929128E-14, 0.000000000000000000, -2.000000000000000000 ) ) ;
#14 = VERTEX_POINT ( 'NONE', #237 ) ;
#15 = EDGE_LOOP ( 'NONE', ( #274, #105, #318, #200 ) ) ;
#16 = AXIS2_PLACEMENT_3D ( 'NONE', #410, #371, #283 ) ;
#17 = VECTOR ( 'NONE', #291, 1000.000000000000000 ) ;
#18 = EDGE_CURVE ( 'NONE', #544, #280, #374, .T. ) ;
#19 = DIRECTION ( 'NONE',  ( 0.000000000000000000, 0.000000000000000000, 1.000000000000000000 ) ) ;
#20 = ORIENTED_EDGE ( 'NONE', *, *, #94, .F. ) ;
#21 = DIRECTION ( 'NONE',  ( -0.000000000000000000, 1.000000000000000000, -0.000000000000000000 ) ) ;
#22 = CARTESIAN_POINT ( 'NONE',  ( -15.00000000000000000, 0.000000000000000000, 1.084183805627360551E-13 ) ) ;
#23 = CARTESIAN_POINT ( 'NONE',  ( 2.000000000000001776, -5.000000000000000000, 2.000000000000000000 ) ) ;
#24 = LINE ( 'NONE', #202, #84 ) ;
#25 = FACE_OUTER_BOUND ( 'NONE', #53, .T. ) ;
#26 = DIRECTION ( 'NONE',  ( -1.000000000000000000, 0.000000000000000000, 0.000000000000000000 ) ) ;
#27 = CARTESIAN_POINT ( 'NONE',  ( 5.000000000000000888, 0.000000000000000000, 1.000000000000001554 ) ) ;
#28 = MECHANICAL_DESIGN_GEOMETRIC_PRESENTATION_REPRESENTATION (  '', ( #288 ), #585 ) ;
#29 = STYLED_ITEM ( 'NONE', ( #199 ), #348 ) ;
#30 = COLOUR_RGB ( '',0.9686274509803921573, 0.2588235294117646745, 0.2588235294117646745 ) ;
#31 = SURFACE_STYLE_USAGE ( .BOTH. , #115 ) ;
#32 = CARTESIAN_POINT ( 'NONE',  ( -1.451385308233929128E-14, 3.000000000000000000, -2.000000000000000000 ) ) ;
#33 = SURFACE_STYLE_FILL_AREA ( #430 ) ;
#34 = FILL_AREA_STYLE_COLOUR ( '', #391 ) ;
#35 = DIRECTION ( 'NONE',  ( -1.000000000000000000, 0.000000000000000000, 7.256926541169644063E-15 ) ) ;
#36 = CARTESIAN_POINT ( 'NONE',  ( -15.00000000000000000, 0.000000000000000000, 1.084183805627360551E-13 ) ) ;
#37 = EDGE_CURVE ( 'NONE', #267, #72, #308, .T. ) ;
#38 = FACE_OUTER_BOUND ( 'NONE', #15, .T. ) ;
#39 =( LENGTH_UNIT ( ) NAMED_UNIT ( * ) SI_UNIT ( .MILLI., .METRE. ) );
#40 = FILL_AREA_STYLE_COLOUR ( '', #546 ) ;
#41 = UNCERTAINTY_MEASURE_WITH_UNIT (LENGTH_MEASURE( 1.000000000000000082E-05 ), #139, 'distance_accuracy_value', 'NONE');
#42 =( NAMED_UNIT ( * ) PLANE_ANGLE_UNIT ( ) SI_UNIT ( $, .RADIAN. ) );
#43 = EDGE_CURVE ( 'NONE', #280, #397, #414, .T. ) ;
#44 = FILL_AREA_STYLE_COLOUR ( '', #132 ) ;
#45 = ORIENTED_EDGE ( 'NONE', *, *, #141, .F. ) ;
#46 = VECTOR ( 'NONE', #260, 1000.000000000000000 ) ;
#47 =( GEOMETRIC_REPRESENTATION_CONTEXT ( 3 ) GLOBAL_UNCERTAINTY_ASSIGNED_CONTEXT ( ( #555 ) ) GLOBAL_UNIT_ASSIGNED_CONTEXT ( ( #401, #443, #502 ) ) REPRESENTATION_CONTEXT ( 'NONE', 'WORKASPACE' ) );
#48 = PRESENTATION_LAYER_ASSIGNMENT (  '', '', ( #300 ) ) ;
#49 =( GEOMETRIC_REPRESENTATION_CONTEXT ( 3 ) GLOBAL_UNCERTAINTY_ASSIGNED_CONTEXT ( ( #325 ) ) GLOBAL_UNIT_ASSIGNED_CONTEXT ( ( #350, #258, #117 ) ) REPRESENTATION_CONTEXT ( 'NONE', 'WORKASPACE' ) );
#50 = ORIENTED_EDGE ( 'NONE', *, *, #81, .F. ) ;
#51 = DIRECTION ( 'NONE',  ( -0.000000000000000000, -1.000000000000000000, -0.000000000000000000 ) ) ;
#52 = CARTESIAN_POINT ( 'NONE',  ( 5.000000000000000888, 3.000000000000000000, 2.000000000000000000 ) ) ;
#53 = EDGE_LOOP ( 'NONE', ( #313, #8, #400, #551 ) ) ;
#54 = CYLINDRICAL_SURFACE ( 'NONE', #316, 1.000000000000001554 ) ;
#55 = PLANE ( 'NONE',  #531 ) ;
#56 = AXIS2_PLACEMENT_3D ( 'NONE', #196, #559, #279 ) ;
#57 = ORIENTED_EDGE ( 'NONE', *, *, #94, .T. ) ;
#58 = DIRECTION ( 'NONE',  ( -0.000000000000000000, 1.000000000000000000, -0.000000000000000000 ) ) ;
#59 = ORIENTED_EDGE ( 'NONE', *, *, #501, .T. ) ;
#60 =( LENGTH_UNIT ( ) NAMED_UNIT ( * ) SI_UNIT ( .MILLI., .METRE. ) );
#61 = SURFACE_STYLE_USAGE ( .BOTH. , #515 ) ;
#62 = LINE ( 'NONE', #322, #567 ) ;
#63 =( NAMED_UNIT ( * ) PLANE_ANGLE_UNIT ( ) SI_UNIT ( $, .RADIAN. ) );
#64 = ORIENTED_EDGE ( 'NONE', *, *, #527, .T. ) ;
#65 = COLOUR_RGB ( '',0.9686274509803921573, 0.2588235294117646745, 0.2588235294117646745 ) ;
#66 = PRESENTATION_STYLE_ASSIGNMENT (( #195 ) ) ;
#67 = COLOUR_RGB ( '',0.9686274509803921573, 0.2588235294117646745, 0.2588235294117646745 ) ;
#68 = EDGE_CURVE ( 'NONE', #397, #503, #140, .T. ) ;
#69 = FILL_AREA_STYLE ('',( #241 ) ) ;
#70 = VERTEX_POINT ( 'NONE', #419 ) ;
#71 = PLANE ( 'NONE',  #510 ) ;
#72 = VERTEX_POINT ( 'NONE', #560 ) ;
#73 = DIRECTION ( 'NONE',  ( 0.000000000000000000, 0.000000000000000000, 1.000000000000000000 ) ) ;
#74 = DIRECTION ( 'NONE',  ( 0.000000000000000000, 1.000000000000000000, 0.000000000000000000 ) ) ;
#75 = DIRECTION ( 'NONE',  ( 0.000000000000000000, -1.000000000000000000, 0.000000000000000000 ) ) ;
#76 = CYLINDRICAL_SURFACE ( 'NONE', #225, 1.000000000000001554 ) ;
#77 =( GEOMETRIC_REPRESENTATION_CONTEXT ( 3 ) GLOBAL_UNCERTAINTY_ASSIGNED_CONTEXT ( ( #540 ) ) GLOBAL_UNIT_ASSIGNED_CONTEXT ( ( #275, #366, #442 ) ) REPRESENTATION_CONTEXT ( 'NONE', 'WORKASPACE' ) );
#78 = CARTESIAN_POINT ( 'NONE',  ( 0.000000000000000000, 0.000000000000000000, 0.000000000000000000 ) ) ;
#79 = CARTESIAN_POINT ( 'NONE',  ( -15.00000000000001421, 3.000000000000000000, -1.999999999999891198 ) ) ;
#80 = PRESENTATION_STYLE_ASSIGNMENT (( #119 ) ) ;
#81 = EDGE_CURVE ( 'NONE', #227, #472, #62, .T. ) ;
#82 = CYLINDRICAL_SURFACE ( 'NONE', #315, 1.000000000000001554 ) ;
#83 = FILL_AREA_STYLE_COLOUR ( '', #102 ) ;
#84 = VECTOR ( 'NONE', #379, 1000.000000000000000 ) ;
#85 = FILL_AREA_STYLE ('',( #40 ) ) ;
#86 =( NAMED_UNIT ( * ) PLANE_ANGLE_UNIT ( ) SI_UNIT ( $, .RADIAN. ) );
#87 = ORIENTED_EDGE ( 'NONE', *, *, #327, .T. ) ;
#88 = APPLICATION_PROTOCOL_DEFINITION ( 'draft international standard', 'automotive_design', 1998, #424 ) ;
#89 = EDGE_LOOP ( 'NONE', ( #516, #91 ) ) ;
#90 = AXIS2_PLACEMENT_3D ( 'NONE', #432, #294, #526 ) ;
#91 = ORIENTED_EDGE ( 'NONE', *, *, #295, .F. ) ;
#92 = CARTESIAN_POINT ( 'NONE',  ( -15.00000000000001421, 3.000000000000000000, -1.999999999999891198 ) ) ;
#93 = ORIENTED_EDGE ( 'NONE', *, *, #214, .F. ) ;
#94 = EDGE_CURVE ( 'NONE', #365, #111, #324, .T. ) ;
#95 = PRESENTATION_STYLE_ASSIGNMENT (( #539 ) ) ;
#96 = ORIENTED_EDGE ( 'NONE', *, *, #403, .T. ) ;
#97 = FILL_AREA_STYLE ('',( #364 ) ) ;
#98 = CYLINDRICAL_SURFACE ( 'NONE', #352, 1.000000000000001554 ) ;
#99 = CIRCLE ( 'NONE', #145, 2.000000000000000000 ) ;
#100 = AXIS2_PLACEMENT_3D ( 'NONE', #406, #5, #538 ) ;
#101 = EDGE_LOOP ( 'NONE', ( #138, #422 ) ) ;
#102 = COLOUR_RGB ( '',0.9686274509803921573, 0.2588235294117646745, 0.2588235294117646745 ) ;
#103 = SURFACE_STYLE_FILL_AREA ( #97 ) ;
#104 = SURFACE_SIDE_STYLE ('',( #11 ) ) ;
#105 = ORIENTED_EDGE ( 'NONE', *, *, #18, .T. ) ;
#106 = FILL_AREA_STYLE_COLOUR ( '', #65 ) ;
#107 = EDGE_CURVE ( 'NONE', #452, #512, #455, .T. ) ;
#108 = ORIENTED_EDGE ( 'NONE', *, *, #201, .F. ) ;
#109 = SURFACE_STYLE_FILL_AREA ( #434 ) ;
#110 =( LENGTH_UNIT ( ) NAMED_UNIT ( * ) SI_UNIT ( .MILLI., .METRE. ) );
#111 = VERTEX_POINT ( 'NONE', #154 ) ;
#112 = CARTESIAN_POINT ( 'NONE',  ( -15.00000000000000000, 0.000000000000000000, 1.084183805627360551E-13 ) ) ;
#113 = STYLED_ITEM ( 'NONE', ( #66 ), #561 ) ;
#114 = ORIENTED_EDGE ( 'NONE', *, *, #357, .F. ) ;
#115 = SURFACE_SIDE_STYLE ('',( #33 ) ) ;
#116 = CARTESIAN_POINT ( 'NONE',  ( 5.000000000000000888, 3.000000000000000000, 0.000000000000000000 ) ) ;
#117 =( NAMED_UNIT ( * ) SI_UNIT ( $, .STERADIAN. ) SOLID_ANGLE_UNIT ( ) );
#118 =( GEOMETRIC_REPRESENTATION_CONTEXT ( 3 ) GLOBAL_UNCERTAINTY_ASSIGNED_CONTEXT ( ( #571 ) ) GLOBAL_UNIT_ASSIGNED_CONTEXT ( ( #110, #506, #421 ) ) REPRESENTATION_CONTEXT ( 'NONE', 'WORKASPACE' ) );
#119 = SURFACE_STYLE_USAGE ( .BOTH. , #532 ) ;
#120 = DIRECTION ( 'NONE',  ( -0.000000000000000000, 1.000000000000000000, -0.000000000000000000 ) ) ;
#121 = EDGE_CURVE ( 'NONE', #157, #452, #215, .T. ) ;
#122 = FILL_AREA_STYLE_COLOUR ( '', #183 ) ;
#123 = PLANE ( 'NONE',  #298 ) ;
#124 = CLOSED_SHELL ( 'NONE', ( #149, #561, #375, #450, #464, #251, #337, #272, #348, #474, #165, #377 ) ) ;
#125 = PRESENTATION_LAYER_ASSIGNMENT (  '', '', ( #224 ) ) ;
#126 = SURFACE_STYLE_FILL_AREA ( #226 ) ;
#127 = FACE_OUTER_BOUND ( 'NONE', #292, .T. ) ;
#128 = ORIENTED_EDGE ( 'NONE', *, *, #203, .F. ) ;
#129 = LINE ( 'NONE', #545, #182 ) ;
#130 = ORIENTED_EDGE ( 'NONE', *, *, #390, .T. ) ;
#131 = VECTOR ( 'NONE', #326, 1000.000000000000000 ) ;
#132 = COLOUR_RGB ( '',0.9686274509803921573, 0.2588235294117646745, 0.2588235294117646745 ) ;
#133 = AXIS2_PLACEMENT_3D ( 'NONE', #36, #74, #212 ) ;
#134 = DIRECTION ( 'NONE',  ( 0.000000000000000000, 0.000000000000000000, -1.000000000000000000 ) ) ;
#135 = EDGE_CURVE ( 'NONE', #550, #227, #204, .T. ) ;
#136 = DIRECTION ( 'NONE',  ( -0.000000000000000000, -1.000000000000000000, -0.000000000000000000 ) ) ;
#137 = SURFACE_SIDE_STYLE ('',( #126 ) ) ;
#138 = ORIENTED_EDGE ( 'NONE', *, *, #230, .F. ) ;
#139 =( LENGTH_UNIT ( ) NAMED_UNIT ( * ) SI_UNIT ( .MILLI., .METRE. ) );
#140 = LINE ( 'NONE', #194, #490 ) ;
#141 = EDGE_CURVE ( 'NONE', #372, #512, #213, .T. ) ;
#142 = CARTESIAN_POINT ( 'NONE',  ( 5.000000000000000888, 3.000000000000000000, -1.000000000000001554 ) ) ;
#143 = MECHANICAL_DESIGN_GEOMETRIC_PRESENTATION_REPRESENTATION (  '', ( #278 ), #171 ) ;
#144 = FACE_OUTER_BOUND ( 'NONE', #448, .T. ) ;
#145 = AXIS2_PLACEMENT_3D ( 'NONE', #22, #511, #19 ) ;
#146 = AXIS2_PLACEMENT_3D ( 'NONE', #489, #136, #453 ) ;
#147 = DIRECTION ( 'NONE',  ( -0.000000000000000000, 1.000000000000000000, -0.000000000000000000 ) ) ;
#148 = SURFACE_STYLE_USAGE ( .BOTH. , #553 ) ;
#149 = ADVANCED_FACE ( 'NONE', ( #262 ), #82, .F. ) ;
#150 = CYLINDRICAL_SURFACE ( 'NONE', #56, 2.000000000000000000 ) ;
#151 = DIRECTION ( 'NONE',  ( 0.000000000000000000, 0.000000000000000000, 1.000000000000000000 ) ) ;
#152 =( NAMED_UNIT ( * ) PLANE_ANGLE_UNIT ( ) SI_UNIT ( $, .RADIAN. ) );
#153 = FILL_AREA_STYLE ('',( #106 ) ) ;
#154 = CARTESIAN_POINT ( 'NONE',  ( 5.000000000000000888, -5.000000000000000000, -2.000000000000000000 ) ) ;
#155 = DIRECTION ( 'NONE',  ( 0.000000000000000000, 1.000000000000000000, -0.000000000000000000 ) ) ;
#156 = DIRECTION ( 'NONE',  ( 0.000000000000000000, 0.000000000000000000, -1.000000000000000000 ) ) ;
#157 = VERTEX_POINT ( 'NONE', #344 ) ;
#158 = AXIS2_PLACEMENT_3D ( 'NONE', #463, #471, #156 ) ;
#159 = PRESENTATION_STYLE_ASSIGNMENT (( #31 ) ) ;
#160 = FILL_AREA_STYLE ('',( #572 ) ) ;
#161 = FILL_AREA_STYLE_COLOUR ( '', #395 ) ;
#162 =( LENGTH_UNIT ( ) NAMED_UNIT ( * ) SI_UNIT ( .MILLI., .METRE. ) );
#163 = STYLED_ITEM ( 'NONE', ( #492 ), #149 ) ;
#164 = FILL_AREA_STYLE ('',( #161 ) ) ;
#165 = ADVANCED_FACE ( 'NONE', ( #38, #580 ), #123, .T. ) ;
#166 = PRODUCT_DEFINITION_CONTEXT ( 'detailed design', #207, 'design' ) ;
#167 =( NAMED_UNIT ( * ) SI_UNIT ( $, .STERADIAN. ) SOLID_ANGLE_UNIT ( ) );
#168 = SURFACE_STYLE_FILL_AREA ( #238 ) ;
#169 = DIRECTION ( 'NONE',  ( 0.000000000000000000, 0.000000000000000000, 1.000000000000000000 ) ) ;
#170 = DIRECTION ( 'NONE',  ( 1.000000000000000000, 0.000000000000000000, 0.000000000000000000 ) ) ;
#171 =( GEOMETRIC_REPRESENTATION_CONTEXT ( 3 ) GLOBAL_UNCERTAINTY_ASSIGNED_CONTEXT ( ( #524 ) ) GLOBAL_UNIT_ASSIGNED_CONTEXT ( ( #256, #530, #167 ) ) REPRESENTATION_CONTEXT ( 'NONE', 'WORKASPACE' ) );
#172 = UNCERTAINTY_MEASURE_WITH_UNIT (LENGTH_MEASURE( 1.000000000000000082E-05 ), #441, 'distance_accuracy_value', 'NONE');
#173 = VECTOR ( 'NONE', #367, 1000.000000000000000 ) ;
#174 = STYLED_ITEM ( 'NONE', ( #494 ), #464 ) ;
#175 = AXIS2_PLACEMENT_3D ( 'NONE', #376, #155, #331 ) ;
#176 = ORIENTED_EDGE ( 'NONE', *, *, #390, .F. ) ;
#177 = DIRECTION ( 'NONE',  ( 0.000000000000000000, 0.000000000000000000, 1.000000000000000000 ) ) ;
#178 = DIRECTION ( 'NONE',  ( 7.256926541169644063E-15, -0.000000000000000000, 1.000000000000000000 ) ) ;
#179 = EDGE_CURVE ( 'NONE', #267, #495, #483, .T. ) ;
#180 = ORIENTED_EDGE ( 'NONE', *, *, #518, .T. ) ;
#181 = FACE_OUTER_BOUND ( 'NONE', #522, .T. ) ;
#182 = VECTOR ( 'NONE', #356, 1000.000000000000000 ) ;
#183 = COLOUR_RGB ( '',0.9686274509803921573, 0.2588235294117646745, 0.2588235294117646745 ) ;
#184 = DIRECTION ( 'NONE',  ( 0.000000000000000000, 0.000000000000000000, -1.000000000000000000 ) ) ;
#185 = EDGE_LOOP ( 'NONE', ( #87, #565, #355, #221 ) ) ;
#186 = CYLINDRICAL_SURFACE ( 'NONE', #146, 2.000000000000000000 ) ;
#187 = EDGE_LOOP ( 'NONE', ( #330, #426, #64, #244 ) ) ;
#188 = PRODUCT ( 'Rod new lip RR', 'Rod new lip RR', '', ( #488 ) ) ;
#189 = CARTESIAN_POINT ( 'NONE',  ( 1.451385308233929128E-14, 0.000000000000000000, 2.000000000000000000 ) ) ;
#190 = DIRECTION ( 'NONE',  ( 0.000000000000000000, 1.000000000000000000, -0.000000000000000000 ) ) ;
#191 = DIRECTION ( 'NONE',  ( -1.000000000000000000, 0.000000000000000000, 7.256926541169644063E-15 ) ) ;
#192 =( GEOMETRIC_REPRESENTATION_CONTEXT ( 3 ) GLOBAL_UNCERTAINTY_ASSIGNED_CONTEXT ( ( #380 ) ) GLOBAL_UNIT_ASSIGNED_CONTEXT ( ( #6, #86, #266 ) ) REPRESENTATION_CONTEXT ( 'NONE', 'WORKASPACE' ) );
#193 = VECTOR ( 'NONE', #566, 1000.000000000000000 ) ;
#194 = CARTESIAN_POINT ( 'NONE',  ( 2.000000000000001776, 0.000000000000000000, 2.000000000000000000 ) ) ;
#195 = SURFACE_STYLE_USAGE ( .BOTH. , #473 ) ;
#196 = CARTESIAN_POINT ( 'NONE',  ( 5.000000000000000888, 3.000000000000000000, 0.000000000000000000 ) ) ;
#197 = ORIENTED_EDGE ( 'NONE', *, *, #578, .F. ) ;
#198 = DIRECTION ( 'NONE',  ( 0.000000000000000000, 0.000000000000000000, 1.000000000000000000 ) ) ;
#199 = PRESENTATION_STYLE_ASSIGNMENT (( #61 ) ) ;
#200 = ORIENTED_EDGE ( 'NONE', *, *, #581, .T. ) ;
#201 = EDGE_CURVE ( 'NONE', #404, #72, #577, .T. ) ;
#202 = CARTESIAN_POINT ( 'NONE',  ( 2.000000000000001776, -5.000000000000000000, -2.000000000000000000 ) ) ;
#203 = EDGE_CURVE ( 'NONE', #111, #544, #439, .T. ) ;
#204 = CIRCLE ( 'NONE', #90, 1.000000000000001554 ) ;
#205 = ORIENTED_EDGE ( 'NONE', *, *, #179, .F. ) ;
#206 = STYLED_ITEM ( 'NONE', ( #95 ), #251 ) ;
#207 = APPLICATION_CONTEXT ( 'automotive_design' ) ;
#208 = AXIS2_PLACEMENT_3D ( 'NONE', #252, #210, #341 ) ;
#209 = UNCERTAINTY_MEASURE_WITH_UNIT (LENGTH_MEASURE( 1.000000000000000082E-05 ), #162, 'distance_accuracy_value', 'NONE');
#210 = DIRECTION ( 'NONE',  ( 0.000000000000000000, 1.000000000000000000, 0.000000000000000000 ) ) ;
#211 = CARTESIAN_POINT ( 'NONE',  ( -15.00000000000000000, 0.000000000000000000, 1.084183805627360551E-13 ) ) ;
#212 = DIRECTION ( 'NONE',  ( 0.000000000000000000, 0.000000000000000000, 1.000000000000000000 ) ) ;
#213 = LINE ( 'NONE', #386, #415 ) ;
#214 = EDGE_CURVE ( 'NONE', #360, #503, #129, .T. ) ;
#215 = LINE ( 'NONE', #435, #46 ) ;
#216 = VECTOR ( 'NONE', #35, 1000.000000000000000 ) ;
#217 = STYLED_ITEM ( 'NONE', ( #80 ), #428 ) ;
#218 = SURFACE_STYLE_USAGE ( .BOTH. , #235 ) ;
#219 = SURFACE_STYLE_FILL_AREA ( #85 ) ;
#220 =( NAMED_UNIT ( * ) SI_UNIT ( $, .STERADIAN. ) SOLID_ANGLE_UNIT ( ) );
#221 = ORIENTED_EDGE ( 'NONE', *, *, #179, .T. ) ;
#222 = APPLICATION_PROTOCOL_DEFINITION ( 'draft international standard', 'automotive_design', 1998, #207 ) ;
#223 = VECTOR ( 'NONE', #51, 1000.000000000000000 ) ;
#224 = STYLED_ITEM ( 'NONE', ( #159 ), #377 ) ;
#225 = AXIS2_PLACEMENT_3D ( 'NONE', #420, #21, #198 ) ;
#226 = FILL_AREA_STYLE ('',( #264 ) ) ;
#227 = VERTEX_POINT ( 'NONE', #320 ) ;
#228 = EDGE_CURVE ( 'NONE', #280, #360, #394, .T. ) ;
#229 = FACE_OUTER_BOUND ( 'NONE', #265, .T. ) ;
#230 = EDGE_CURVE ( 'NONE', #70, #472, #519, .T. ) ;
#231 = ORIENTED_EDGE ( 'NONE', *, *, #43, .T. ) ;
#232 = MECHANICAL_DESIGN_GEOMETRIC_PRESENTATION_REPRESENTATION (  '', ( #509 ), #299 ) ;
#233 = CARTESIAN_POINT ( 'NONE',  ( 5.000000000000000888, 3.000000000000000000, -2.000000000000000000 ) ) ;
#234 = EDGE_LOOP ( 'NONE', ( #4, #444, #449, #290 ) ) ;
#235 = SURFACE_SIDE_STYLE ('',( #440 ) ) ;
#236 = DIRECTION ( 'NONE',  ( 0.000000000000000000, 0.000000000000000000, 1.000000000000000000 ) ) ;
#237 = CARTESIAN_POINT ( 'NONE',  ( -14.99999999999998579, 0.000000000000000000, 2.000000000000108802 ) ) ;
#238 = FILL_AREA_STYLE ('',( #582 ) ) ;
#239 = CARTESIAN_POINT ( 'NONE',  ( 5.000000000000000888, 3.000000000000000000, -2.000000000000000000 ) ) ;
#240 = MECHANICAL_DESIGN_GEOMETRIC_PRESENTATION_REPRESENTATION (  '', ( #163 ), #574 ) ;
#241 = FILL_AREA_STYLE_COLOUR ( '', #491 ) ;
#242 = COLOUR_RGB ( '',0.9686274509803921573, 0.2588235294117646745, 0.2588235294117646745 ) ;
#243 =( GEOMETRIC_REPRESENTATION_CONTEXT ( 3 ) GLOBAL_UNCERTAINTY_ASSIGNED_CONTEXT ( ( #346 ) ) GLOBAL_UNIT_ASSIGNED_CONTEXT ( ( #247, #63, #562 ) ) REPRESENTATION_CONTEXT ( 'NONE', 'WORKASPACE' ) );
#244 = ORIENTED_EDGE ( 'NONE', *, *, #505, .F. ) ;
#245 = EDGE_CURVE ( 'NONE', #404, #544, #317, .T. ) ;
#246 = ORIENTED_EDGE ( 'NONE', *, *, #107, .T. ) ;
#247 =( LENGTH_UNIT ( ) NAMED_UNIT ( * ) SI_UNIT ( .MILLI., .METRE. ) );
#248 = UNCERTAINTY_MEASURE_WITH_UNIT (LENGTH_MEASURE( 1.000000000000000082E-05 ), #579, 'distance_accuracy_value', 'NONE');
#249 = ORIENTED_EDGE ( 'NONE', *, *, #505, .T. ) ;
#250 = CARTESIAN_POINT ( 'NONE',  ( 2.000000000000001776, 0.000000000000000000, -2.000000000000000000 ) ) ;
#251 = ADVANCED_FACE ( 'NONE', ( #229 ), #270, .T. ) ;
#252 = CARTESIAN_POINT ( 'NONE',  ( -15.00000000000000000, 0.000000000000000000, 1.084183805627360551E-13 ) ) ;
#253 = DIRECTION ( 'NONE',  ( 0.000000000000000000, -0.000000000000000000, -1.000000000000000000 ) ) ;
#254 = PRESENTATION_LAYER_ASSIGNMENT (  '', '', ( #261 ) ) ;
#255 = CARTESIAN_POINT ( 'NONE',  ( -15.00000000000001421, 0.000000000000000000, -1.999999999999891198 ) ) ;
#256 =( LENGTH_UNIT ( ) NAMED_UNIT ( * ) SI_UNIT ( .MILLI., .METRE. ) );
#257 = DIRECTION ( 'NONE',  ( -0.000000000000000000, -1.000000000000000000, -0.000000000000000000 ) ) ;
#258 =( NAMED_UNIT ( * ) PLANE_ANGLE_UNIT ( ) SI_UNIT ( $, .RADIAN. ) );
#259 = DIRECTION ( 'NONE',  ( 1.000000000000000000, 0.000000000000000000, 0.000000000000000000 ) ) ;
#260 = DIRECTION ( 'NONE',  ( -0.000000000000000000, 1.000000000000000000, -0.000000000000000000 ) ) ;
#261 = STYLED_ITEM ( 'NONE', ( #462 ), #450 ) ;
#262 = FACE_OUTER_BOUND ( 'NONE', #234, .T. ) ;
#263 = UNCERTAINTY_MEASURE_WITH_UNIT (LENGTH_MEASURE( 1.000000000000000082E-05 ), #60, 'distance_accuracy_value', 'NONE');
#264 = FILL_AREA_STYLE_COLOUR ( '', #242 ) ;
#265 = EDGE_LOOP ( 'NONE', ( #548, #2, #476, #271, #321, #59 ) ) ;
#266 =( NAMED_UNIT ( * ) SI_UNIT ( $, .STERADIAN. ) SOLID_ANGLE_UNIT ( ) );
#267 = VERTEX_POINT ( 'NONE', #92 ) ;
#268 = PRESENTATION_LAYER_ASSIGNMENT (  '', '', ( #509 ) ) ;
#269 = COLOUR_RGB ( '',0.9686274509803921573, 0.2588235294117646745, 0.2588235294117646745 ) ;
#270 = PLANE ( 'NONE',  #469 ) ;
#271 = ORIENTED_EDGE ( 'NONE', *, *, #245, .F. ) ;
#272 = ADVANCED_FACE ( 'NONE', ( #273, #541, #127 ), #55, .T. ) ;
#273 = FACE_BOUND ( 'NONE', #496, .T. ) ;
#274 = ORIENTED_EDGE ( 'NONE', *, *, #203, .T. ) ;
#275 =( LENGTH_UNIT ( ) NAMED_UNIT ( * ) SI_UNIT ( .MILLI., .METRE. ) );
#276 = ORIENTED_EDGE ( 'NONE', *, *, #518, .F. ) ;
#277 = PRESENTATION_LAYER_ASSIGNMENT (  '', '', ( #278 ) ) ;
#278 = STYLED_ITEM ( 'NONE', ( #534 ), #165 ) ;
#279 = DIRECTION ( 'NONE',  ( 0.000000000000000000, 0.000000000000000000, -1.000000000000000000 ) ) ;
#280 = VERTEX_POINT ( 'NONE', #329 ) ;
#281 = SURFACE_SIDE_STYLE ('',( #103 ) ) ;
#282 = DIRECTION ( 'NONE',  ( -0.000000000000000000, 1.000000000000000000, -0.000000000000000000 ) ) ;
#283 = DIRECTION ( 'NONE',  ( 0.000000000000000000, 0.000000000000000000, 1.000000000000000000 ) ) ;
#284 = DIRECTION ( 'NONE',  ( 0.000000000000000000, 1.000000000000000000, -0.000000000000000000 ) ) ;
#285 = DIRECTION ( 'NONE',  ( 0.000000000000000000, 1.000000000000000000, -0.000000000000000000 ) ) ;
#286 = EDGE_CURVE ( 'NONE', #397, #14, #332, .T. ) ;
#287 = LINE ( 'NONE', #13, #173 ) ;
#288 = STYLED_ITEM ( 'NONE', ( #529 ), #375 ) ;
#289 =( GEOMETRIC_REPRESENTATION_CONTEXT ( 3 ) GLOBAL_UNCERTAINTY_ASSIGNED_CONTEXT ( ( #305 ) ) GLOBAL_UNIT_ASSIGNED_CONTEXT ( ( #39, #42, #220 ) ) REPRESENTATION_CONTEXT ( 'NONE', 'WORKASPACE' ) );
#290 = ORIENTED_EDGE ( 'NONE', *, *, #121, .F. ) ;
#291 = DIRECTION ( 'NONE',  ( -1.000000000000000000, 0.000000000000000000, 7.256926541169644063E-15 ) ) ;
#292 = EDGE_LOOP ( 'NONE', ( #180, #508, #108, #454 ) ) ;
#293 = LINE ( 'NONE', #570, #193 ) ;
#294 = DIRECTION ( 'NONE',  ( 0.000000000000000000, -1.000000000000000000, 0.000000000000000000 ) ) ;
#295 = EDGE_CURVE ( 'NONE', #227, #550, #429, .T. ) ;
#296 = DIRECTION ( 'NONE',  ( 0.000000000000000000, 0.000000000000000000, 1.000000000000000000 ) ) ;
#297 = SURFACE_STYLE_FILL_AREA ( #304 ) ;
#298 = AXIS2_PLACEMENT_3D ( 'NONE', #338, #75, #253 ) ;
#299 =( GEOMETRIC_REPRESENTATION_CONTEXT ( 3 ) GLOBAL_UNCERTAINTY_ASSIGNED_CONTEXT ( ( #41 ) ) GLOBAL_UNIT_ASSIGNED_CONTEXT ( ( #139, #467, #475 ) ) REPRESENTATION_CONTEXT ( 'NONE', 'WORKASPACE' ) );
#300 = STYLED_ITEM ( 'NONE', ( #517 ), #474 ) ;
#301 = CIRCLE ( 'NONE', #175, 2.000000000000000000 ) ;
#302 = SURFACE_STYLE_USAGE ( .BOTH. , #478 ) ;
#303 = DIRECTION ( 'NONE',  ( -0.000000000000000000, 1.000000000000000000, -0.000000000000000000 ) ) ;
#304 = FILL_AREA_STYLE ('',( #34 ) ) ;
#305 = UNCERTAINTY_MEASURE_WITH_UNIT (LENGTH_MEASURE( 1.000000000000000082E-05 ), #39, 'distance_accuracy_value', 'NONE');
#306 = EDGE_CURVE ( 'NONE', #503, #495, #287, .T. ) ;
#307 = DIRECTION ( 'NONE',  ( 0.000000000000000000, 1.000000000000000000, -0.000000000000000000 ) ) ;
#308 = CIRCLE ( 'NONE', #405, 2.000000000000000000 ) ;
#309 = PRODUCT_RELATED_PRODUCT_CATEGORY ( 'part', '', ( #188 ) ) ;
#310 = PRESENTATION_LAYER_ASSIGNMENT (  '', '', ( #29 ) ) ;
#311 = PRESENTATION_STYLE_ASSIGNMENT (( #354 ) ) ;
#312 = ORIENTED_EDGE ( 'NONE', *, *, #230, .T. ) ;
#313 = ORIENTED_EDGE ( 'NONE', *, *, #68, .F. ) ;
#314 = ORIENTED_EDGE ( 'NONE', *, *, #245, .T. ) ;
#315 = AXIS2_PLACEMENT_3D ( 'NONE', #211, #303, #485 ) ;
#316 = AXIS2_PLACEMENT_3D ( 'NONE', #112, #384, #73 ) ;
#317 = LINE ( 'NONE', #52, #223 ) ;
#318 = ORIENTED_EDGE ( 'NONE', *, *, #228, .T. ) ;
#319 =( NAMED_UNIT ( * ) PLANE_ANGLE_UNIT ( ) SI_UNIT ( $, .RADIAN. ) );
#320 = CARTESIAN_POINT ( 'NONE',  ( 5.000000000000000888, -5.000000000000000000, -1.000000000000001554 ) ) ;
#321 = ORIENTED_EDGE ( 'NONE', *, *, #201, .T. ) ;
#322 = CARTESIAN_POINT ( 'NONE',  ( 5.000000000000000888, 0.000000000000000000, -1.000000000000001554 ) ) ;
#323 = AXIS2_PLACEMENT_3D ( 'NONE', #78, #307, #576 ) ;
#324 = LINE ( 'NONE', #239, #131 ) ;
#325 = UNCERTAINTY_MEASURE_WITH_UNIT (LENGTH_MEASURE( 1.000000000000000082E-05 ), #350, 'distance_accuracy_value', 'NONE');
#326 = DIRECTION ( 'NONE',  ( -0.000000000000000000, -1.000000000000000000, -0.000000000000000000 ) ) ;
#327 = EDGE_CURVE ( 'NONE', #495, #14, #99, .T. ) ;
#328 =( NAMED_UNIT ( * ) SI_UNIT ( $, .STERADIAN. ) SOLID_ANGLE_UNIT ( ) );
#329 = CARTESIAN_POINT ( 'NONE',  ( 2.000000000000001776, -5.000000000000000000, 2.000000000000000000 ) ) ;
#330 = ORIENTED_EDGE ( 'NONE', *, *, #135, .T. ) ;
#331 = DIRECTION ( 'NONE',  ( 0.000000000000000000, 0.000000000000000000, 1.000000000000000000 ) ) ;
#332 = LINE ( 'NONE', #189, #333 ) ;
#333 = VECTOR ( 'NONE', #191, 1000.000000000000000 ) ;
#334 = PRESENTATION_LAYER_ASSIGNMENT (  '', '', ( #113 ) ) ;
#335 = DIRECTION ( 'NONE',  ( 0.000000000000000000, 0.000000000000000000, -1.000000000000000000 ) ) ;
#336 =( NAMED_UNIT ( * ) PLANE_ANGLE_UNIT ( ) SI_UNIT ( $, .RADIAN. ) );
#337 = ADVANCED_FACE ( 'NONE', ( #373 ), #150, .T. ) ;
#338 = CARTESIAN_POINT ( 'NONE',  ( 5.000000000000000888, -5.000000000000000000, 0.000000000000000000 ) ) ;
#339 = DIRECTION ( 'NONE',  ( -0.000000000000000000, 1.000000000000000000, -0.000000000000000000 ) ) ;
#340 = UNCERTAINTY_MEASURE_WITH_UNIT (LENGTH_MEASURE( 1.000000000000000082E-05 ), #513, 'distance_accuracy_value', 'NONE');
#341 = DIRECTION ( 'NONE',  ( 0.000000000000000000, 0.000000000000000000, 1.000000000000000000 ) ) ;
#342 = SURFACE_STYLE_FILL_AREA ( #160 ) ;
#343 = VECTOR ( 'NONE', #26, 1000.000000000000000 ) ;
#344 = CARTESIAN_POINT ( 'NONE',  ( -15.00000000000000000, 0.000000000000000000, 1.000000000000109912 ) ) ;
#345 = CIRCLE ( 'NONE', #9, 1.000000000000001554 ) ;
#346 = UNCERTAINTY_MEASURE_WITH_UNIT (LENGTH_MEASURE( 1.000000000000000082E-05 ), #247, 'distance_accuracy_value', 'NONE');
#347 = SURFACE_STYLE_USAGE ( .BOTH. , #349 ) ;
#348 = ADVANCED_FACE ( 'NONE', ( #144 ), #98, .F. ) ;
#349 = SURFACE_SIDE_STYLE ('',( #487 ) ) ;
#350 =( LENGTH_UNIT ( ) NAMED_UNIT ( * ) SI_UNIT ( .MILLI., .METRE. ) );
#351 = CARTESIAN_POINT ( 'NONE',  ( 2.000000000000001776, -5.000000000000000000, 2.000000000000000000 ) ) ;
#352 = AXIS2_PLACEMENT_3D ( 'NONE', #460, #58, #236 ) ;
#353 = PRESENTATION_LAYER_ASSIGNMENT (  '', '', ( #217 ) ) ;
#354 = SURFACE_STYLE_USAGE ( .BOTH. , #445 ) ;
#355 = ORIENTED_EDGE ( 'NONE', *, *, #37, .F. ) ;
#356 = DIRECTION ( 'NONE',  ( -0.000000000000000000, 1.000000000000000000, -0.000000000000000000 ) ) ;
#357 = EDGE_CURVE ( 'NONE', #512, #452, #457, .T. ) ;
#358 = ORIENTED_EDGE ( 'NONE', *, *, #228, .F. ) ;
#359 = DIRECTION ( 'NONE',  ( 0.000000000000000000, -1.000000000000000000, 0.000000000000000000 ) ) ;
#360 = VERTEX_POINT ( 'NONE', #563 ) ;
#361 =( NAMED_UNIT ( * ) SI_UNIT ( $, .STERADIAN. ) SOLID_ANGLE_UNIT ( ) );
#362 = PRESENTATION_LAYER_ASSIGNMENT (  '', '', ( #382 ) ) ;
#363 = CARTESIAN_POINT ( 'NONE',  ( 5.000000000000000888, 3.000000000000000000, 0.000000000000000000 ) ) ;
#364 = FILL_AREA_STYLE_COLOUR ( '', #482 ) ;
#365 = VERTEX_POINT ( 'NONE', #233 ) ;
#366 =( NAMED_UNIT ( * ) PLANE_ANGLE_UNIT ( ) SI_UNIT ( $, .RADIAN. ) );
#367 = DIRECTION ( 'NONE',  ( -1.000000000000000000, 0.000000000000000000, 7.256926541169644063E-15 ) ) ;
#368 = ORIENTED_EDGE ( 'NONE', *, *, #295, .T. ) ;
#369 = CARTESIAN_POINT ( 'NONE',  ( -15.00000000000000000, 3.000000000000000000, 1.000000000000109912 ) ) ;
#370 = MECHANICAL_DESIGN_GEOMETRIC_PRESENTATION_REPRESENTATION (  '', ( #300 ), #243 ) ;
#371 = DIRECTION ( 'NONE',  ( 0.000000000000000000, 1.000000000000000000, -0.000000000000000000 ) ) ;
#372 = VERTEX_POINT ( 'NONE', #525 ) ;
#373 = FACE_OUTER_BOUND ( 'NONE', #499, .T. ) ;
#374 = LINE ( 'NONE', #411, #343 ) ;
#375 = ADVANCED_FACE ( 'NONE', ( #425, #25 ), #381, .F. ) ;
#376 = CARTESIAN_POINT ( 'NONE',  ( 5.000000000000000888, 3.000000000000000000, 0.000000000000000000 ) ) ;
#377 = ADVANCED_FACE ( 'NONE', ( #573 ), #71, .F. ) ;
#378 = ORIENTED_EDGE ( 'NONE', *, *, #581, .F. ) ;
#379 = DIRECTION ( 'NONE',  ( 1.000000000000000000, 0.000000000000000000, 0.000000000000000000 ) ) ;
#380 = UNCERTAINTY_MEASURE_WITH_UNIT (LENGTH_MEASURE( 1.000000000000000082E-05 ), #6, 'distance_accuracy_value', 'NONE');
#381 = PLANE ( 'NONE',  #323 ) ;
#382 = STYLED_ITEM ( 'NONE', ( #311 ), #272 ) ;
#383 = CARTESIAN_POINT ( 'NONE',  ( -15.00000000000000000, 3.000000000000000000, 1.084183805627360551E-13 ) ) ;
#384 = DIRECTION ( 'NONE',  ( -0.000000000000000000, 1.000000000000000000, -0.000000000000000000 ) ) ;
#385 = CARTESIAN_POINT ( 'NONE',  ( 5.000000000000000888, 3.000000000000000000, 2.000000000000000000 ) ) ;
#386 = CARTESIAN_POINT ( 'NONE',  ( -15.00000000000000000, 0.000000000000000000, -0.9999999999998930855 ) ) ;
#387 = CARTESIAN_POINT ( 'NONE',  ( 5.000000000000000888, -5.000000000000000000, 2.000000000000000000 ) ) ;
#388 = PLANE ( 'NONE',  #100 ) ;
#389 =( NAMED_UNIT ( * ) PLANE_ANGLE_UNIT ( ) SI_UNIT ( $, .RADIAN. ) );
#390 = EDGE_CURVE ( 'NONE', #157, #372, #458, .T. ) ;
#391 = COLOUR_RGB ( '',0.9686274509803921573, 0.2588235294117646745, 0.2588235294117646745 ) ;
#392 = CARTESIAN_POINT ( 'NONE',  ( 5.000000000000000888, -5.000000000000000000, 0.000000000000000000 ) ) ;
#393 = CARTESIAN_POINT ( 'NONE',  ( 2.000000000000001776, 0.000000000000000000, 1.999999999999985789 ) ) ;
#394 = LINE ( 'NONE', #351, #480 ) ;
#395 = COLOUR_RGB ( '',0.9686274509803921573, 0.2588235294117646745, 0.2588235294117646745 ) ;
#396 = MECHANICAL_DESIGN_GEOMETRIC_PRESENTATION_REPRESENTATION (  '', ( #29 ), #118 ) ;
#397 = VERTEX_POINT ( 'NONE', #393 ) ;
#398 =( GEOMETRIC_REPRESENTATION_CONTEXT ( 3 ) GLOBAL_UNCERTAINTY_ASSIGNED_CONTEXT ( ( #263 ) ) GLOBAL_UNIT_ASSIGNED_CONTEXT ( ( #60, #319, #361 ) ) REPRESENTATION_CONTEXT ( 'NONE', 'WORKASPACE' ) );
#399 = CARTESIAN_POINT ( 'NONE',  ( 0.000000000000000000, 3.000000000000000000, 0.000000000000000000 ) ) ;
#400 = ORIENTED_EDGE ( 'NONE', *, *, #327, .F. ) ;
#401 =( LENGTH_UNIT ( ) NAMED_UNIT ( * ) SI_UNIT ( .MILLI., .METRE. ) );
#402 = EDGE_LOOP ( 'NONE', ( #45, #176, #557, #246 ) ) ;
#403 = EDGE_CURVE ( 'NONE', #372, #157, #417, .T. ) ;
#404 = VERTEX_POINT ( 'NONE', #385 ) ;
#405 = AXIS2_PLACEMENT_3D ( 'NONE', #383, #190, #151 ) ;
#406 = CARTESIAN_POINT ( 'NONE',  ( -1.451385308233929128E-14, 3.000000000000000000, -2.000000000000000000 ) ) ;
#407 = MECHANICAL_DESIGN_GEOMETRIC_PRESENTATION_REPRESENTATION (  '', ( #113 ), #433 ) ;
#408 = EDGE_LOOP ( 'NONE', ( #130, #96 ) ) ;
#409 = FILL_AREA_STYLE ('',( #83 ) ) ;
#410 = CARTESIAN_POINT ( 'NONE',  ( -15.00000000000000000, 3.000000000000000000, 1.084183805627360551E-13 ) ) ;
#411 = CARTESIAN_POINT ( 'NONE',  ( 5.000000000000000888, -5.000000000000000000, 2.000000000000000000 ) ) ;
#412 = PRODUCT_DEFINITION_SHAPE ( 'NONE', 'NONE',  #564 ) ;
#413 = FACE_OUTER_BOUND ( 'NONE', #402, .T. ) ;
#414 = LINE ( 'NONE', #23, #584 ) ;
#415 = VECTOR ( 'NONE', #120, 1000.000000000000000 ) ;
#416 = MECHANICAL_DESIGN_GEOMETRIC_PRESENTATION_REPRESENTATION (  '', ( #206 ), #47 ) ;
#417 = CIRCLE ( 'NONE', #208, 1.000000000000001554 ) ;
#418 = ADVANCED_BREP_SHAPE_REPRESENTATION ( 'Rod new lip RR', ( #428, #459 ), #49 ) ;
#419 = CARTESIAN_POINT ( 'NONE',  ( 5.000000000000000888, 3.000000000000000000, 1.000000000000001554 ) ) ;
#420 = CARTESIAN_POINT ( 'NONE',  ( 5.000000000000000888, 0.000000000000000000, 0.000000000000000000 ) ) ;
#421 =( NAMED_UNIT ( * ) SI_UNIT ( $, .STERADIAN. ) SOLID_ANGLE_UNIT ( ) );
#422 = ORIENTED_EDGE ( 'NONE', *, *, #527, .F. ) ;
#423 = CARTESIAN_POINT ( 'NONE',  ( 5.000000000000000888, -5.000000000000000000, 1.000000000000001554 ) ) ;
#424 = APPLICATION_CONTEXT ( 'automotive_design' ) ;
#425 = FACE_BOUND ( 'NONE', #408, .T. ) ;
#426 = ORIENTED_EDGE ( 'NONE', *, *, #81, .T. ) ;
#427 = LINE ( 'NONE', #27, #533 ) ;
#428 = MANIFOLD_SOLID_BREP ( 'Boss-Extrude2', #124 ) ;
#429 = CIRCLE ( 'NONE', #158, 1.000000000000001554 ) ;
#430 = FILL_AREA_STYLE ('',( #122 ) ) ;
#431 = PRESENTATION_LAYER_ASSIGNMENT (  '', '', ( #174 ) ) ;
#432 = CARTESIAN_POINT ( 'NONE',  ( 5.000000000000000888, -5.000000000000000000, 0.000000000000000000 ) ) ;
#433 =( GEOMETRIC_REPRESENTATION_CONTEXT ( 3 ) GLOBAL_UNCERTAINTY_ASSIGNED_CONTEXT ( ( #340 ) ) GLOBAL_UNIT_ASSIGNED_CONTEXT ( ( #513, #152, #328 ) ) REPRESENTATION_CONTEXT ( 'NONE', 'WORKASPACE' ) );
#434 = FILL_AREA_STYLE ('',( #558 ) ) ;
#435 = CARTESIAN_POINT ( 'NONE',  ( -15.00000000000000000, 0.000000000000000000, 1.000000000000109912 ) ) ;
#436 = CARTESIAN_POINT ( 'NONE',  ( 1.451385308233929128E-14, 3.000000000000000000, 2.000000000000000000 ) ) ;
#437 = DIRECTION ( 'NONE',  ( 0.000000000000000000, 0.000000000000000000, 1.000000000000000000 ) ) ;
#438 = DIRECTION ( 'NONE',  ( 0.000000000000000000, 0.000000000000000000, -1.000000000000000000 ) ) ;
#439 = CIRCLE ( 'NONE', #7, 2.000000000000000000 ) ;
#440 = SURFACE_STYLE_FILL_AREA ( #409 ) ;
#441 =( LENGTH_UNIT ( ) NAMED_UNIT ( * ) SI_UNIT ( .MILLI., .METRE. ) );
#442 =( NAMED_UNIT ( * ) SI_UNIT ( $, .STERADIAN. ) SOLID_ANGLE_UNIT ( ) );
#443 =( NAMED_UNIT ( * ) PLANE_ANGLE_UNIT ( ) SI_UNIT ( $, .RADIAN. ) );
#444 = ORIENTED_EDGE ( 'NONE', *, *, #141, .T. ) ;
#445 = SURFACE_SIDE_STYLE ('',( #543 ) ) ;
#446 = AXIS2_PLACEMENT_3D ( 'NONE', #514, #284, #468 ) ;
#447 = PRESENTATION_LAYER_ASSIGNMENT (  '', '', ( #288 ) ) ;
#448 = EDGE_LOOP ( 'NONE', ( #50, #368, #249, #312 ) ) ;
#449 = ORIENTED_EDGE ( 'NONE', *, *, #357, .T. ) ;
#450 = ADVANCED_FACE ( 'NONE', ( #181 ), #388, .F. ) ;
#451 = FILL_AREA_STYLE ('',( #44 ) ) ;
#452 = VERTEX_POINT ( 'NONE', #369 ) ;
#453 = DIRECTION ( 'NONE',  ( 0.000000000000000000, 0.000000000000000000, -1.000000000000000000 ) ) ;
#454 = ORIENTED_EDGE ( 'NONE', *, *, #578, .T. ) ;
#455 = CIRCLE ( 'NONE', #446, 1.000000000000001554 ) ;
#456 = FACE_OUTER_BOUND ( 'NONE', #185, .T. ) ;
#457 = CIRCLE ( 'NONE', #16, 1.000000000000001554 ) ;
#458 = CIRCLE ( 'NONE', #133, 1.000000000000001554 ) ;
#459 = AXIS2_PLACEMENT_3D ( 'NONE', #537, #437, #170 ) ;
#460 = CARTESIAN_POINT ( 'NONE',  ( 5.000000000000000888, 0.000000000000000000, 0.000000000000000000 ) ) ;
#461 = ORIENTED_EDGE ( 'NONE', *, *, #107, .F. ) ;
#462 = PRESENTATION_STYLE_ASSIGNMENT (( #218 ) ) ;
#463 = CARTESIAN_POINT ( 'NONE',  ( 5.000000000000000888, -5.000000000000000000, 0.000000000000000000 ) ) ;
#464 = ADVANCED_FACE ( 'NONE', ( #456 ), #186, .T. ) ;
#465 = EDGE_LOOP ( 'NONE', ( #542, #93, #358, #231 ) ) ;
#466 = FACE_OUTER_BOUND ( 'NONE', #187, .T. ) ;
#467 =( NAMED_UNIT ( * ) PLANE_ANGLE_UNIT ( ) SI_UNIT ( $, .RADIAN. ) );
#468 = DIRECTION ( 'NONE',  ( 0.000000000000000000, 0.000000000000000000, 1.000000000000000000 ) ) ;
#469 = AXIS2_PLACEMENT_3D ( 'NONE', #3, #178, #504 ) ;
#470 = MECHANICAL_DESIGN_GEOMETRIC_PRESENTATION_REPRESENTATION (  '', ( #261 ), #289 ) ;
#471 = DIRECTION ( 'NONE',  ( 0.000000000000000000, -1.000000000000000000, 0.000000000000000000 ) ) ;
#472 = VERTEX_POINT ( 'NONE', #142 ) ;
#473 = SURFACE_SIDE_STYLE ('',( #109 ) ) ;
#474 = ADVANCED_FACE ( 'NONE', ( #413 ), #54, .F. ) ;
#475 =( NAMED_UNIT ( * ) SI_UNIT ( $, .STERADIAN. ) SOLID_ANGLE_UNIT ( ) );
#476 = ORIENTED_EDGE ( 'NONE', *, *, #18, .F. ) ;
#477 = SURFACE_STYLE_USAGE ( .BOTH. , #281 ) ;
#478 = SURFACE_SIDE_STYLE ('',( #297 ) ) ;
#479 = SURFACE_SIDE_STYLE ('',( #219 ) ) ;
#480 = VECTOR ( 'NONE', #134, 1000.000000000000000 ) ;
#481 =( NAMED_UNIT ( * ) SI_UNIT ( $, .STERADIAN. ) SOLID_ANGLE_UNIT ( ) );
#482 = COLOUR_RGB ( '',0.9686274509803921573, 0.2588235294117646745, 0.2588235294117646745 ) ;
#483 = LINE ( 'NONE', #79, #507 ) ;
#484 = CARTESIAN_POINT ( 'NONE',  ( 2.000000000000001776, -5.000000000000000000, 2.000000000000000000 ) ) ;
#485 = DIRECTION ( 'NONE',  ( 0.000000000000000000, 0.000000000000000000, 1.000000000000000000 ) ) ;
#486 =( NAMED_UNIT ( * ) PLANE_ANGLE_UNIT ( ) SI_UNIT ( $, .RADIAN. ) );
#487 = SURFACE_STYLE_FILL_AREA ( #164 ) ;
#488 = PRODUCT_CONTEXT ( 'NONE', #424, 'mechanical' ) ;
#489 = CARTESIAN_POINT ( 'NONE',  ( -15.00000000000000000, 3.000000000000000000, 1.084183805627360551E-13 ) ) ;
#490 = VECTOR ( 'NONE', #335, 1000.000000000000000 ) ;
#491 = COLOUR_RGB ( '',0.9686274509803921573, 0.2588235294117646745, 0.2588235294117646745 ) ;
#492 = PRESENTATION_STYLE_ASSIGNMENT (( #347 ) ) ;
#493 = SHAPE_DEFINITION_REPRESENTATION ( #412, #418 ) ;
#494 = PRESENTATION_STYLE_ASSIGNMENT (( #148 ) ) ;
#495 = VERTEX_POINT ( 'NONE', #255 ) ;
#496 = EDGE_LOOP ( 'NONE', ( #461, #114 ) ) ;
#497 = PRESENTATION_LAYER_ASSIGNMENT (  '', '', ( #163 ) ) ;
#498 = MECHANICAL_DESIGN_GEOMETRIC_PRESENTATION_REPRESENTATION (  '', ( #382 ), #192 ) ;
#499 = EDGE_LOOP ( 'NONE', ( #314, #128, #20, #197 ) ) ;
#500 = MECHANICAL_DESIGN_GEOMETRIC_PRESENTATION_REPRESENTATION (  '', ( #174 ), #77 ) ;
#501 = EDGE_CURVE ( 'NONE', #72, #14, #293, .T. ) ;
#502 =( NAMED_UNIT ( * ) SI_UNIT ( $, .STERADIAN. ) SOLID_ANGLE_UNIT ( ) );
#503 = VERTEX_POINT ( 'NONE', #250 ) ;
#504 = DIRECTION ( 'NONE',  ( 1.000000000000000000, 0.000000000000000000, -7.256926541169644063E-15 ) ) ;
#505 = EDGE_CURVE ( 'NONE', #550, #70, #427, .T. ) ;
#506 =( NAMED_UNIT ( * ) PLANE_ANGLE_UNIT ( ) SI_UNIT ( $, .RADIAN. ) );
#507 = VECTOR ( 'NONE', #257, 1000.000000000000000 ) ;
#508 = ORIENTED_EDGE ( 'NONE', *, *, #37, .T. ) ;
#509 = STYLED_ITEM ( 'NONE', ( #556 ), #337 ) ;
#510 = AXIS2_PLACEMENT_3D ( 'NONE', #484, #259, #438 ) ;
#511 = DIRECTION ( 'NONE',  ( 0.000000000000000000, 1.000000000000000000, -0.000000000000000000 ) ) ;
#512 = VERTEX_POINT ( 'NONE', #528 ) ;
#513 =( LENGTH_UNIT ( ) NAMED_UNIT ( * ) SI_UNIT ( .MILLI., .METRE. ) );
#514 = CARTESIAN_POINT ( 'NONE',  ( -15.00000000000000000, 3.000000000000000000, 1.084183805627360551E-13 ) ) ;
#515 = SURFACE_SIDE_STYLE ('',( #549 ) ) ;
#516 = ORIENTED_EDGE ( 'NONE', *, *, #135, .F. ) ;
#517 = PRESENTATION_STYLE_ASSIGNMENT (( #477 ) ) ;
#518 = EDGE_CURVE ( 'NONE', #365, #267, #523, .T. ) ;
#519 = CIRCLE ( 'NONE', #575, 1.000000000000001554 ) ;
#520 = MECHANICAL_DESIGN_GEOMETRIC_PRESENTATION_REPRESENTATION (  '', ( #224 ), #568 ) ;
#521 = SURFACE_STYLE_USAGE ( .BOTH. , #104 ) ;
#522 = EDGE_LOOP ( 'NONE', ( #57, #378, #547, #12, #205, #276 ) ) ;
#523 = LINE ( 'NONE', #32, #17 ) ;
#524 = UNCERTAINTY_MEASURE_WITH_UNIT (LENGTH_MEASURE( 1.000000000000000082E-05 ), #256, 'distance_accuracy_value', 'NONE');
#525 = CARTESIAN_POINT ( 'NONE',  ( -15.00000000000000000, 0.000000000000000000, -0.9999999999998930855 ) ) ;
#526 = DIRECTION ( 'NONE',  ( 0.000000000000000000, 0.000000000000000000, -1.000000000000000000 ) ) ;
#527 = EDGE_CURVE ( 'NONE', #472, #70, #345, .T. ) ;
#528 = CARTESIAN_POINT ( 'NONE',  ( -15.00000000000000000, 3.000000000000000000, -0.9999999999998930855 ) ) ;
#529 = PRESENTATION_STYLE_ASSIGNMENT (( #302 ) ) ;
#530 =( NAMED_UNIT ( * ) PLANE_ANGLE_UNIT ( ) SI_UNIT ( $, .RADIAN. ) );
#531 = AXIS2_PLACEMENT_3D ( 'NONE', #399, #1, #177 ) ;
#532 = SURFACE_SIDE_STYLE ('',( #342 ) ) ;
#533 = VECTOR ( 'NONE', #339, 1000.000000000000000 ) ;
#534 = PRESENTATION_STYLE_ASSIGNMENT (( #569 ) ) ;
#535 =( NAMED_UNIT ( * ) SI_UNIT ( $, .STERADIAN. ) SOLID_ANGLE_UNIT ( ) );
#536 =( NAMED_UNIT ( * ) SI_UNIT ( $, .STERADIAN. ) SOLID_ANGLE_UNIT ( ) );
#537 = CARTESIAN_POINT ( 'NONE',  ( 0.000000000000000000, 0.000000000000000000, 0.000000000000000000 ) ) ;
#538 = DIRECTION ( 'NONE',  ( 1.000000000000000000, 0.000000000000000000, -7.256926541169644063E-15 ) ) ;
#539 = SURFACE_STYLE_USAGE ( .BOTH. , #137 ) ;
#540 = UNCERTAINTY_MEASURE_WITH_UNIT (LENGTH_MEASURE( 1.000000000000000082E-05 ), #275, 'distance_accuracy_value', 'NONE');
#541 = FACE_BOUND ( 'NONE', #101, .T. ) ;
#542 = ORIENTED_EDGE ( 'NONE', *, *, #68, .T. ) ;
#543 = SURFACE_STYLE_FILL_AREA ( #451 ) ;
#544 = VERTEX_POINT ( 'NONE', #387 ) ;
#545 = CARTESIAN_POINT ( 'NONE',  ( 2.000000000000001776, -5.000000000000000000, -2.000000000000000000 ) ) ;
#546 = COLOUR_RGB ( '',0.9686274509803921573, 0.2588235294117646745, 0.2588235294117646745 ) ;
#547 = ORIENTED_EDGE ( 'NONE', *, *, #214, .T. ) ;
#548 = ORIENTED_EDGE ( 'NONE', *, *, #286, .F. ) ;
#549 = SURFACE_STYLE_FILL_AREA ( #153 ) ;
#550 = VERTEX_POINT ( 'NONE', #423 ) ;
#551 = ORIENTED_EDGE ( 'NONE', *, *, #306, .F. ) ;
#552 = PRESENTATION_LAYER_ASSIGNMENT (  '', '', ( #206 ) ) ;
#553 = SURFACE_SIDE_STYLE ('',( #168 ) ) ;
#554 = MECHANICAL_DESIGN_GEOMETRIC_PRESENTATION_REPRESENTATION (  '', ( #217 ), #398 ) ;
#555 = UNCERTAINTY_MEASURE_WITH_UNIT (LENGTH_MEASURE( 1.000000000000000082E-05 ), #401, 'distance_accuracy_value', 'NONE');
#556 = PRESENTATION_STYLE_ASSIGNMENT (( #521 ) ) ;
#557 = ORIENTED_EDGE ( 'NONE', *, *, #121, .T. ) ;
#558 = FILL_AREA_STYLE_COLOUR ( '', #67 ) ;
#559 = DIRECTION ( 'NONE',  ( -0.000000000000000000, -1.000000000000000000, -0.000000000000000000 ) ) ;
#560 = CARTESIAN_POINT ( 'NONE',  ( -14.99999999999998579, 3.000000000000000000, 2.000000000000108802 ) ) ;
#561 = ADVANCED_FACE ( 'NONE', ( #466 ), #76, .F. ) ;
#562 =( NAMED_UNIT ( * ) SI_UNIT ( $, .STERADIAN. ) SOLID_ANGLE_UNIT ( ) );
#563 = CARTESIAN_POINT ( 'NONE',  ( 2.000000000000001776, -5.000000000000000000, -2.000000000000000000 ) ) ;
#564 = PRODUCT_DEFINITION ( 'General', '', #10, #166 ) ;
#565 = ORIENTED_EDGE ( 'NONE', *, *, #501, .F. ) ;
#566 = DIRECTION ( 'NONE',  ( -0.000000000000000000, -1.000000000000000000, -0.000000000000000000 ) ) ;
#567 = VECTOR ( 'NONE', #147, 1000.000000000000000 ) ;
#568 =( GEOMETRIC_REPRESENTATION_CONTEXT ( 3 ) GLOBAL_UNCERTAINTY_ASSIGNED_CONTEXT ( ( #209 ) ) GLOBAL_UNIT_ASSIGNED_CONTEXT ( ( #162, #486, #535 ) ) REPRESENTATION_CONTEXT ( 'NONE', 'WORKASPACE' ) );
#569 = SURFACE_STYLE_USAGE ( .BOTH. , #479 ) ;
#570 = CARTESIAN_POINT ( 'NONE',  ( -14.99999999999998579, 3.000000000000000000, 2.000000000000108802 ) ) ;
#571 = UNCERTAINTY_MEASURE_WITH_UNIT (LENGTH_MEASURE( 1.000000000000000082E-05 ), #110, 'distance_accuracy_value', 'NONE');
#572 = FILL_AREA_STYLE_COLOUR ( '', #30 ) ;
#573 = FACE_OUTER_BOUND ( 'NONE', #465, .T. ) ;
#574 =( GEOMETRIC_REPRESENTATION_CONTEXT ( 3 ) GLOBAL_UNCERTAINTY_ASSIGNED_CONTEXT ( ( #172 ) ) GLOBAL_UNIT_ASSIGNED_CONTEXT ( ( #441, #389, #536 ) ) REPRESENTATION_CONTEXT ( 'NONE', 'WORKASPACE' ) );
#575 = AXIS2_PLACEMENT_3D ( 'NONE', #363, #583, #169 ) ;
#576 = DIRECTION ( 'NONE',  ( 0.000000000000000000, 0.000000000000000000, 1.000000000000000000 ) ) ;
#577 = LINE ( 'NONE', #436, #216 ) ;
#578 = EDGE_CURVE ( 'NONE', #404, #365, #301, .T. ) ;
#579 =( LENGTH_UNIT ( ) NAMED_UNIT ( * ) SI_UNIT ( .MILLI., .METRE. ) );
#580 = FACE_BOUND ( 'NONE', #89, .T. ) ;
#581 = EDGE_CURVE ( 'NONE', #360, #111, #24, .T. ) ;
#582 = FILL_AREA_STYLE_COLOUR ( '', #269 ) ;
#583 = DIRECTION ( 'NONE',  ( 0.000000000000000000, 1.000000000000000000, -0.000000000000000000 ) ) ;
#584 = VECTOR ( 'NONE', #282, 1000.000000000000000 ) ;
#585 =( GEOMETRIC_REPRESENTATION_CONTEXT ( 3 ) GLOBAL_UNCERTAINTY_ASSIGNED_CONTEXT ( ( #248 ) ) GLOBAL_UNIT_ASSIGNED_CONTEXT ( ( #579, #336, #481 ) ) REPRESENTATION_CONTEXT ( 'NONE', 'WORKASPACE' ) );
ENDSEC;
END-ISO-10303-21;
