ISO-10303-21;
HEADER;
FILE_DESCRIPTION (( 'STEP AP214' ),
    '1' );
FILE_NAME ('Rod betweem jaw back.STEP',
    '2025-10-21T18:57:18',
    ( 'Windows User' ),
    ( '' ),
    'SwSTEP 2.0',
    'SolidWorks 2023',
    '' );
FILE_SCHEMA (( 'AUTOMOTIVE_DESIGN' ));
ENDSEC;

DATA;
#1 = ORIENTED_EDGE ( 'NONE', *, *, #298, .T. ) ;
#2 = UNCERTAINTY_MEASURE_WITH_UNIT (LENGTH_MEASURE( 1.000000000000000082E-05 ), #548, 'distance_accuracy_value', 'NONE');
#3 = DIRECTION ( 'NONE',  ( 0.000000000000000000, 0.000000000000000000, 1.000000000000000000 ) ) ;
#4 = VERTEX_POINT ( 'NONE', #169 ) ;
#5 = ADVANCED_FACE ( 'NONE', ( #83 ), #249, .F. ) ;
#6 = DIRECTION ( 'NONE',  ( -0.000000000000000000, -0.000000000000000000, -1.000000000000000000 ) ) ;
#7 = PRODUCT ( 'Rod betweem jaw back', 'Rod betweem jaw back', '', ( #114 ) ) ;
#8 = ORIENTED_EDGE ( 'NONE', *, *, #396, .F. ) ;
#9 = MANIFOLD_SOLID_BREP ( 'Cut-Extrude3', #334 ) ;
#10 = CARTESIAN_POINT ( 'NONE',  ( 0.000000000000000000, 0.000000000000000000, 0.000000000000000000 ) ) ;
#11 = FACE_OUTER_BOUND ( 'NONE', #511, .T. ) ;
#12 = AXIS2_PLACEMENT_3D ( 'NONE', #29, #170, #292 ) ;
#13 = LINE ( 'NONE', #525, #66 ) ;
#14 = PLANE ( 'NONE',  #478 ) ;
#15 = CARTESIAN_POINT ( 'NONE',  ( -1.999999999999992673, 1.500000000000020428, 33.00000000000000000 ) ) ;
#16 = PLANE ( 'NONE',  #346 ) ;
#17 = ORIENTED_EDGE ( 'NONE', *, *, #557, .T. ) ;
#18 = CARTESIAN_POINT ( 'NONE',  ( -1.250000000000000000, 1.530808498934191324E-16, -1.200000000000000030E-05 ) ) ;
#19 = DIRECTION ( 'NONE',  ( 1.000000000000000000, -0.000000000000000000, -0.000000000000000000 ) ) ;
#20 = ORIENTED_EDGE ( 'NONE', *, *, #560, .F. ) ;
#21 = AXIS2_PLACEMENT_3D ( 'NONE', #271, #488, #58 ) ;
#22 = EDGE_CURVE ( 'NONE', #304, #416, #442, .T. ) ;
#23 = CARTESIAN_POINT ( 'NONE',  ( 1.250000000000000000, 0.000000000000000000, 8.000000000000000000 ) ) ;
#24 = ORIENTED_EDGE ( 'NONE', *, *, #97, .T. ) ;
#25 = CARTESIAN_POINT ( 'NONE',  ( 0.000000000000000000, 0.000000000000000000, 0.000000000000000000 ) ) ;
#26 = EDGE_CURVE ( 'NONE', #132, #272, #133, .T. ) ;
#27 = LINE ( 'NONE', #102, #50 ) ;
#28 = ORIENTED_EDGE ( 'NONE', *, *, #456, .F. ) ;
#29 = CARTESIAN_POINT ( 'NONE',  ( 0.000000000000000000, 0.000000000000000000, 68.00000000000000000 ) ) ;
#30 = VERTEX_POINT ( 'NONE', #56 ) ;
#31 = AXIS2_PLACEMENT_3D ( 'NONE', #565, #184, #386 ) ;
#32 = VECTOR ( 'NONE', #409, 1000.000000000000000 ) ;
#33 = CIRCLE ( 'NONE', #317, 2.500000000000000444 ) ;
#34 = DIRECTION ( 'NONE',  ( 0.000000000000000000, 0.000000000000000000, 1.000000000000000000 ) ) ;
#35 = ORIENTED_EDGE ( 'NONE', *, *, #22, .F. ) ;
#36 = FACE_OUTER_BOUND ( 'NONE', #530, .T. ) ;
#37 = DIRECTION ( 'NONE',  ( 0.000000000000000000, 0.000000000000000000, 1.000000000000000000 ) ) ;
#38 = DIRECTION ( 'NONE',  ( 0.000000000000000000, 0.000000000000000000, 1.000000000000000000 ) ) ;
#39 = VECTOR ( 'NONE', #440, 1000.000000000000000 ) ;
#40 = DIRECTION ( 'NONE',  ( 0.000000000000000000, 0.000000000000000000, -1.000000000000000000 ) ) ;
#41 = EDGE_CURVE ( 'NONE', #240, #30, #432, .T. ) ;
#42 = ORIENTED_EDGE ( 'NONE', *, *, #481, .F. ) ;
#43 = CARTESIAN_POINT ( 'NONE',  ( 0.000000000000000000, 0.000000000000000000, 76.00000000000000000 ) ) ;
#44 = SURFACE_SIDE_STYLE ('',( #465 ) ) ;
#45 = UNCERTAINTY_MEASURE_WITH_UNIT (LENGTH_MEASURE( 1.000000000000000082E-05 ), #87, 'distance_accuracy_value', 'NONE');
#46 = DIRECTION ( 'NONE',  ( 0.000000000000000000, 0.000000000000000000, 1.000000000000000000 ) ) ;
#47 = ADVANCED_FACE ( 'NONE', ( #48 ), #257, .F. ) ;
#48 = FACE_OUTER_BOUND ( 'NONE', #375, .T. ) ;
#49 = ORIENTED_EDGE ( 'NONE', *, *, #421, .T. ) ;
#50 = VECTOR ( 'NONE', #283, 1000.000000000000000 ) ;
#51 = DIRECTION ( 'NONE',  ( -1.000000000000000000, -0.000000000000000000, 1.734723475976807341E-16 ) ) ;
#52 = DIRECTION ( 'NONE',  ( -0.000000000000000000, 1.000000000000000000, -0.000000000000000000 ) ) ;
#53 = DIRECTION ( 'NONE',  ( 0.000000000000000000, 0.000000000000000000, -1.000000000000000000 ) ) ;
#54 = VERTEX_POINT ( 'NONE', #89 ) ;
#55 = CYLINDRICAL_SURFACE ( 'NONE', #363, 1.249999999999994227 ) ;
#56 = CARTESIAN_POINT ( 'NONE',  ( -2.500000000000000444, 0.000000000000000000, 76.00000000000000000 ) ) ;
#57 = CIRCLE ( 'NONE', #546, 1.250000000000000000 ) ;
#58 = DIRECTION ( 'NONE',  ( -1.000000000000000000, 0.000000000000000000, 0.000000000000000000 ) ) ;
#59 = ORIENTED_EDGE ( 'NONE', *, *, #504, .F. ) ;
#60 = DIRECTION ( 'NONE',  ( -0.000000000000000000, 1.000000000000000000, -0.000000000000000000 ) ) ;
#61 = DIRECTION ( 'NONE',  ( 1.000000000000000000, 0.000000000000000000, 0.000000000000000000 ) ) ;
#62 = EDGE_LOOP ( 'NONE', ( #533, #426 ) ) ;
#63 = DIRECTION ( 'NONE',  ( 1.000000000000000000, 0.000000000000000000, 0.000000000000000000 ) ) ;
#64 = EDGE_LOOP ( 'NONE', ( #515, #178, #552 ) ) ;
#65 = EDGE_CURVE ( 'NONE', #80, #194, #389, .T. ) ;
#66 = VECTOR ( 'NONE', #427, 1000.000000000000000 ) ;
#67 = DIRECTION ( 'NONE',  ( 1.000000000000000000, 0.000000000000000000, 0.000000000000000000 ) ) ;
#68 = AXIS2_PLACEMENT_3D ( 'NONE', #25, #538, #67 ) ;
#69 = ADVANCED_FACE ( 'NONE', ( #11 ), #130, .F. ) ;
#70 = CARTESIAN_POINT ( 'NONE',  ( -1.250000000000000000, 1.530808498934191324E-16, 0.000000000000000000 ) ) ;
#71 = ORIENTED_EDGE ( 'NONE', *, *, #350, .T. ) ;
#72 = DIRECTION ( 'NONE',  ( -0.000000000000000000, -0.000000000000000000, -1.000000000000000000 ) ) ;
#73 = VERTEX_POINT ( 'NONE', #348 ) ;
#74 = CARTESIAN_POINT ( 'NONE',  ( 0.000000000000000000, 0.000000000000000000, 48.00000000000000000 ) ) ;
#75 = EDGE_LOOP ( 'NONE', ( #116, #214, #408, #141 ) ) ;
#76 = CIRCLE ( 'NONE', #406, 2.500000000000000444 ) ;
#77 = CARTESIAN_POINT ( 'NONE',  ( 0.000000000000000000, 0.000000000000000000, 0.000000000000000000 ) ) ;
#78 = SURFACE_STYLE_USAGE ( .BOTH. , #44 ) ;
#79 = DIRECTION ( 'NONE',  ( -0.000000000000000000, -0.000000000000000000, -1.000000000000000000 ) ) ;
#80 = VERTEX_POINT ( 'NONE', #355 ) ;
#81 = ADVANCED_FACE ( 'NONE', ( #258 ), #305, .F. ) ;
#82 = CARTESIAN_POINT ( 'NONE',  ( 2.500000000000002220, -2.500000000000000444, 48.00000000000000000 ) ) ;
#83 = FACE_OUTER_BOUND ( 'NONE', #75, .T. ) ;
#84 = EDGE_CURVE ( 'NONE', #4, #304, #179, .T. ) ;
#85 = AXIS2_PLACEMENT_3D ( 'NONE', #186, #443, #474 ) ;
#86 = CARTESIAN_POINT ( 'NONE',  ( 2.500000000000000444, 3.061616997868383634E-16, 76.00000000000000000 ) ) ;
#87 =( LENGTH_UNIT ( ) NAMED_UNIT ( * ) SI_UNIT ( .MILLI., .METRE. ) );
#88 = CARTESIAN_POINT ( 'NONE',  ( -2.500000000000000444, 0.000000000000000000, 40.00000000000000000 ) ) ;
#89 = CARTESIAN_POINT ( 'NONE',  ( -1.250000000000000000, 0.000000000000000000, 76.00000000000000000 ) ) ;
#90 = ORIENTED_EDGE ( 'NONE', *, *, #557, .F. ) ;
#91 = AXIS2_PLACEMENT_3D ( 'NONE', #522, #308, #434 ) ;
#92 = AXIS2_PLACEMENT_3D ( 'NONE', #403, #273, #229 ) ;
#93 = FACE_OUTER_BOUND ( 'NONE', #64, .T. ) ;
#94 = PLANE ( 'NONE',  #174 ) ;
#95 = ORIENTED_EDGE ( 'NONE', *, *, #109, .T. ) ;
#96 = FACE_OUTER_BOUND ( 'NONE', #213, .T. ) ;
#97 = EDGE_CURVE ( 'NONE', #225, #429, #345, .T. ) ;
#98 = DIRECTION ( 'NONE',  ( 0.000000000000000000, 0.000000000000000000, 1.000000000000000000 ) ) ;
#99 = ADVANCED_FACE ( 'NONE', ( #301 ), #475, .T. ) ;
#100 = DIRECTION ( 'NONE',  ( 0.000000000000000000, 0.000000000000000000, 1.000000000000000000 ) ) ;
#101 = AXIS2_PLACEMENT_3D ( 'NONE', #177, #428, #352 ) ;
#102 = CARTESIAN_POINT ( 'NONE',  ( -1.999999999999985345, 1.500000000000020428, 76.00000000000000000 ) ) ;
#103 = CIRCLE ( 'NONE', #327, 1.249999999999994227 ) ;
#104 = ORIENTED_EDGE ( 'NONE', *, *, #238, .T. ) ;
#105 = APPLICATION_CONTEXT ( 'automotive_design' ) ;
#106 = FACE_OUTER_BOUND ( 'NONE', #324, .T. ) ;
#107 = VERTEX_POINT ( 'NONE', #218 ) ;
#108 = DIRECTION ( 'NONE',  ( 0.000000000000000000, 0.000000000000000000, -1.000000000000000000 ) ) ;
#109 = EDGE_CURVE ( 'NONE', #4, #315, #176, .T. ) ;
#110 = EDGE_LOOP ( 'NONE', ( #190, #144, #544, #1, #277, #331, #404, #333, #59, #120, #321, #497 ) ) ;
#111 = DIRECTION ( 'NONE',  ( -0.000000000000000000, 1.000000000000000000, -0.000000000000000000 ) ) ;
#112 = ORIENTED_EDGE ( 'NONE', *, *, #384, .F. ) ;
#113 = VECTOR ( 'NONE', #72, 1000.000000000000000 ) ;
#114 = PRODUCT_CONTEXT ( 'NONE', #105, 'mechanical' ) ;
#115 = DIRECTION ( 'NONE',  ( 0.000000000000000000, 0.000000000000000000, 1.000000000000000000 ) ) ;
#116 = ORIENTED_EDGE ( 'NONE', *, *, #507, .F. ) ;
#117 = DIRECTION ( 'NONE',  ( 1.000000000000000000, 0.000000000000000000, 0.000000000000000000 ) ) ;
#118 = EDGE_LOOP ( 'NONE', ( #412, #71, #17, #49 ) ) ;
#119 = DIRECTION ( 'NONE',  ( 0.000000000000000000, 0.000000000000000000, 1.000000000000000000 ) ) ;
#120 = ORIENTED_EDGE ( 'NONE', *, *, #381, .T. ) ;
#121 = CARTESIAN_POINT ( 'NONE',  ( -1.250000000000000000, 1.530808498934191324E-16, 8.000000000000000000 ) ) ;
#122 = ORIENTED_EDGE ( 'NONE', *, *, #84, .F. ) ;
#123 = EDGE_CURVE ( 'NONE', #455, #107, #336, .T. ) ;
#124 = DIRECTION ( 'NONE',  ( -1.000000000000000000, -0.000000000000000000, 1.734723475976807341E-16 ) ) ;
#125 = PRODUCT_DEFINITION_SHAPE ( 'NONE', 'NONE',  #561 ) ;
#126 = FACE_BOUND ( 'NONE', #127, .T. ) ;
#127 = EDGE_LOOP ( 'NONE', ( #540, #274 ) ) ;
#128 = PRESENTATION_LAYER_ASSIGNMENT (  '', '', ( #164 ) ) ;
#129 = VECTOR ( 'NONE', #100, 1000.000000000000000 ) ;
#130 = PLANE ( 'NONE',  #31 ) ;
#131 = DIRECTION ( 'NONE',  ( 1.000000000000000000, 0.000000000000000000, 0.000000000000000000 ) ) ;
#132 = VERTEX_POINT ( 'NONE', #521 ) ;
#133 = LINE ( 'NONE', #395, #397 ) ;
#134 = ORIENTED_EDGE ( 'NONE', *, *, #366, .F. ) ;
#135 = CIRCLE ( 'NONE', #21, 2.500000000000000444 ) ;
#136 = CARTESIAN_POINT ( 'NONE',  ( 2.000000000000000888, 0.000000000000000000, 38.75000000000000711 ) ) ;
#137 = ORIENTED_EDGE ( 'NONE', *, *, #26, .F. ) ;
#138 = EDGE_CURVE ( 'NONE', #272, #420, #269, .T. ) ;
#139 = DIRECTION ( 'NONE',  ( 1.000000000000000000, 0.000000000000000000, 0.000000000000000000 ) ) ;
#140 = ADVANCED_FACE ( 'NONE', ( #93 ), #484, .F. ) ;
#141 = ORIENTED_EDGE ( 'NONE', *, *, #138, .T. ) ;
#142 = DIRECTION ( 'NONE',  ( -0.000000000000000000, -0.000000000000000000, -1.000000000000000000 ) ) ;
#143 = DIRECTION ( 'NONE',  ( -0.000000000000000000, -0.000000000000000000, -1.000000000000000000 ) ) ;
#144 = ORIENTED_EDGE ( 'NONE', *, *, #543, .F. ) ;
#145 = EDGE_CURVE ( 'NONE', #254, #73, #441, .T. ) ;
#146 = LINE ( 'NONE', #402, #261 ) ;
#147 = AXIS2_PLACEMENT_3D ( 'NONE', #320, #143, #148 ) ;
#148 = DIRECTION ( 'NONE',  ( 1.000000000000000000, 0.000000000000000000, 0.000000000000000000 ) ) ;
#149 = CIRCLE ( 'NONE', #564, 1.250000000000000000 ) ;
#150 = ORIENTED_EDGE ( 'NONE', *, *, #298, .F. ) ;
#151 = DIRECTION ( 'NONE',  ( 1.000000000000000000, 0.000000000000000000, 0.000000000000000000 ) ) ;
#152 = LINE ( 'NONE', #189, #463 ) ;
#153 = ORIENTED_EDGE ( 'NONE', *, *, #322, .F. ) ;
#154 = DIRECTION ( 'NONE',  ( -0.000000000000000000, 0.000000000000000000, 1.000000000000000000 ) ) ;
#155 = VERTEX_POINT ( 'NONE', #136 ) ;
#156 = CARTESIAN_POINT ( 'NONE',  ( 2.500000000000000444, 3.061616997868383634E-16, 0.000000000000000000 ) ) ;
#157 = ORIENTED_EDGE ( 'NONE', *, *, #341, .F. ) ;
#158 = DIRECTION ( 'NONE',  ( 1.000000000000000000, 0.000000000000000000, 0.000000000000000000 ) ) ;
#159 = ORIENTED_EDGE ( 'NONE', *, *, #481, .T. ) ;
#160 = DIRECTION ( 'NONE',  ( -0.000000000000000000, -0.000000000000000000, -1.000000000000000000 ) ) ;
#161 = DIRECTION ( 'NONE',  ( 1.000000000000000000, 0.000000000000000000, 0.000000000000000000 ) ) ;
#162 = DIRECTION ( 'NONE',  ( -0.000000000000000000, -0.000000000000000000, 1.000000000000000000 ) ) ;
#163 = ORIENTED_EDGE ( 'NONE', *, *, #65, .T. ) ;
#164 = STYLED_ITEM ( 'NONE', ( #556 ), #9 ) ;
#165 = AXIS2_PLACEMENT_3D ( 'NONE', #77, #119, #205 ) ;
#166 = PRODUCT_DEFINITION_FORMATION_WITH_SPECIFIED_SOURCE ( 'Symmetric', '', #7, .NOT_KNOWN. ) ;
#167 = ADVANCED_FACE ( 'NONE', ( #480 ), #94, .T. ) ;
#168 = LINE ( 'NONE', #512, #508 ) ;
#169 = CARTESIAN_POINT ( 'NONE',  ( -1.999999999999985345, -1.500000000000020428, 48.00000000000000000 ) ) ;
#170 = DIRECTION ( 'NONE',  ( 0.000000000000000000, 0.000000000000000000, 1.000000000000000000 ) ) ;
#171 = CARTESIAN_POINT ( 'NONE',  ( 0.000000000000000000, 0.000000000000000000, 33.00000000000000000 ) ) ;
#172 = LINE ( 'NONE', #86, #39 ) ;
#173 = DIRECTION ( 'NONE',  ( 0.000000000000000000, 0.000000000000000000, 1.000000000000000000 ) ) ;
#174 = AXIS2_PLACEMENT_3D ( 'NONE', #264, #173, #344 ) ;
#175 = CIRCLE ( 'NONE', #244, 1.249999999999994227 ) ;
#176 = LINE ( 'NONE', #303, #563 ) ;
#177 = CARTESIAN_POINT ( 'NONE',  ( 0.000000000000000000, 0.000000000000000000, 76.00000000000000000 ) ) ;
#178 = ORIENTED_EDGE ( 'NONE', *, *, #381, .F. ) ;
#179 = LINE ( 'NONE', #223, #471 ) ;
#180 = EDGE_CURVE ( 'NONE', #196, #54, #489, .T. ) ;
#181 = DIRECTION ( 'NONE',  ( 1.156482317317871478E-16, 0.000000000000000000, 1.000000000000000000 ) ) ;
#182 = EDGE_CURVE ( 'NONE', #473, #315, #27, .T. ) ;
#183 = CIRCLE ( 'NONE', #433, 1.250000000000000000 ) ;
#184 = DIRECTION ( 'NONE',  ( 0.000000000000000000, 0.000000000000000000, -1.000000000000000000 ) ) ;
#185 = ORIENTED_EDGE ( 'NONE', *, *, #199, .F. ) ;
#186 = CARTESIAN_POINT ( 'NONE',  ( 0.000000000000000000, 0.000000000000000000, 48.00000000000000000 ) ) ;
#187 = CARTESIAN_POINT ( 'NONE',  ( 1.250000000000000000, 1.530808498934191324E-16, 76.00000000000000000 ) ) ;
#188 = FACE_BOUND ( 'NONE', #458, .T. ) ;
#189 = CARTESIAN_POINT ( 'NONE',  ( 1.250000000000000000, 1.530808498934191324E-16, 76.00001199999999812 ) ) ;
#190 = ORIENTED_EDGE ( 'NONE', *, *, #263, .F. ) ;
#191 = DIRECTION ( 'NONE',  ( -1.000000000000000000, 0.000000000000000000, 0.000000000000000000 ) ) ;
#192 = LINE ( 'NONE', #197, #382 ) ;
#193 = AXIS2_PLACEMENT_3D ( 'NONE', #253, #470, #191 ) ;
#194 = VERTEX_POINT ( 'NONE', #239 ) ;
#195 = FACE_BOUND ( 'NONE', #62, .T. ) ;
#196 = VERTEX_POINT ( 'NONE', #187 ) ;
#197 = CARTESIAN_POINT ( 'NONE',  ( -2.500000000000000444, 1.530808498934187873E-16, 41.24999999999999289 ) ) ;
#198 = EDGE_LOOP ( 'NONE', ( #8, #495, #410, #137 ) ) ;
#199 = EDGE_CURVE ( 'NONE', #304, #473, #400, .T. ) ;
#200 = CARTESIAN_POINT ( 'NONE',  ( -2.500000000000000444, 0.000000000000000000, 76.00000000000000000 ) ) ;
#201 = EDGE_CURVE ( 'NONE', #73, #449, #135, .T. ) ;
#202 = AXIS2_PLACEMENT_3D ( 'NONE', #171, #251, #343 ) ;
#203 = ORIENTED_EDGE ( 'NONE', *, *, #486, .F. ) ;
#204 = APPLICATION_PROTOCOL_DEFINITION ( 'draft international standard', 'automotive_design', 1998, #105 ) ;
#205 = DIRECTION ( 'NONE',  ( 1.000000000000000000, 0.000000000000000000, -0.000000000000000000 ) ) ;
#206 = EDGE_LOOP ( 'NONE', ( #520, #237 ) ) ;
#207 = DIRECTION ( 'NONE',  ( 0.000000000000000000, 0.000000000000000000, 1.000000000000000000 ) ) ;
#208 = DIRECTION ( 'NONE',  ( 1.000000000000000000, 0.000000000000000000, 0.000000000000000000 ) ) ;
#209 = ADVANCED_FACE ( 'NONE', ( #195, #276 ), #445, .F. ) ;
#210 = FILL_AREA_STYLE ('',( #506 ) ) ;
#211 = AXIS2_PLACEMENT_3D ( 'NONE', #250, #34, #243 ) ;
#212 = LINE ( 'NONE', #200, #491 ) ;
#213 = EDGE_LOOP ( 'NONE', ( #28, #365, #281, #42 ) ) ;
#214 = ORIENTED_EDGE ( 'NONE', *, *, #448, .F. ) ;
#215 = CARTESIAN_POINT ( 'NONE',  ( 2.000000000000002220, 1.499999999999994449, 48.00000000000000000 ) ) ;
#216 = DIRECTION ( 'NONE',  ( 1.000000000000000000, -0.000000000000000000, -0.000000000000000000 ) ) ;
#217 = EDGE_LOOP ( 'NONE', ( #501, #104, #286, #134 ) ) ;
#218 = CARTESIAN_POINT ( 'NONE',  ( 2.500000000000000444, 3.061616997868383634E-16, 48.00000000000000000 ) ) ;
#219 = ORIENTED_EDGE ( 'NONE', *, *, #467, .F. ) ;
#220 = EDGE_CURVE ( 'NONE', #194, #550, #192, .T. ) ;
#221 = CARTESIAN_POINT ( 'NONE',  ( -1.999999999999991340, 0.000000000000000000, 40.00000000000000000 ) ) ;
#222 = VERTEX_POINT ( 'NONE', #156 ) ;
#223 = CARTESIAN_POINT ( 'NONE',  ( -1.999999999999985345, -1.500000000000020428, 76.00000000000000000 ) ) ;
#224 = ADVANCED_FACE ( 'NONE', ( #399 ), #16, .T. ) ;
#225 = VERTEX_POINT ( 'NONE', #542 ) ;
#226 = DIRECTION ( 'NONE',  ( -1.000000000000000000, 0.000000000000000000, 1.156482317317871478E-16 ) ) ;
#227 = AXIS2_PLACEMENT_3D ( 'NONE', #10, #425, #151 ) ;
#228 = DIRECTION ( 'NONE',  ( -1.000000000000000000, 0.000000000000000000, 0.000000000000000000 ) ) ;
#229 = DIRECTION ( 'NONE',  ( -1.734723475976807341E-16, 0.000000000000000000, -1.000000000000000000 ) ) ;
#230 = ORIENTED_EDGE ( 'NONE', *, *, #41, .F. ) ;
#231 = DIRECTION ( 'NONE',  ( 0.000000000000000000, 0.000000000000000000, -1.000000000000000000 ) ) ;
#232 = CARTESIAN_POINT ( 'NONE',  ( -1.999999999999992673, -2.500000000000000444, 33.00000000000000000 ) ) ;
#233 = EDGE_LOOP ( 'NONE', ( #446, #150, #157 ) ) ;
#234 = AXIS2_PLACEMENT_3D ( 'NONE', #88, #216, #349 ) ;
#235 = DIRECTION ( 'NONE',  ( 0.000000000000000000, 0.000000000000000000, -1.000000000000000000 ) ) ;
#236 = AXIS2_PLACEMENT_3D ( 'NONE', #246, #207, #158 ) ;
#237 = ORIENTED_EDGE ( 'NONE', *, *, #358, .F. ) ;
#238 = EDGE_CURVE ( 'NONE', #196, #429, #152, .T. ) ;
#239 = CARTESIAN_POINT ( 'NONE',  ( -1.999999999999991340, 1.530808498934191324E-16, 41.24999999999999289 ) ) ;
#240 = VERTEX_POINT ( 'NONE', #494 ) ;
#241 = CYLINDRICAL_SURFACE ( 'NONE', #236, 1.250000000000000000 ) ;
#242 = ORIENTED_EDGE ( 'NONE', *, *, #41, .T. ) ;
#243 = DIRECTION ( 'NONE',  ( 1.000000000000000000, 0.000000000000000000, 0.000000000000000000 ) ) ;
#244 = AXIS2_PLACEMENT_3D ( 'NONE', #460, #248, #288 ) ;
#245 = EDGE_LOOP ( 'NONE', ( #424, #490 ) ) ;
#246 = CARTESIAN_POINT ( 'NONE',  ( 0.000000000000000000, 0.000000000000000000, -1.200000000000000030E-05 ) ) ;
#247 = EDGE_CURVE ( 'NONE', #254, #455, #314, .T. ) ;
#248 = DIRECTION ( 'NONE',  ( 1.000000000000000000, -0.000000000000000000, -1.156482317317871478E-16 ) ) ;
#249 = CYLINDRICAL_SURFACE ( 'NONE', #405, 1.250000000000000000 ) ;
#250 = CARTESIAN_POINT ( 'NONE',  ( 0.000000000000000000, 0.000000000000000000, 0.000000000000000000 ) ) ;
#251 = DIRECTION ( 'NONE',  ( 0.000000000000000000, 0.000000000000000000, -1.000000000000000000 ) ) ;
#252 = CIRCLE ( 'NONE', #85, 2.500000000000000444 ) ;
#253 = CARTESIAN_POINT ( 'NONE',  ( 0.000000000000000000, 0.000000000000000000, 76.00001199999999812 ) ) ;
#254 = VERTEX_POINT ( 'NONE', #371 ) ;
#255 = ADVANCED_FACE ( 'NONE', ( #532, #106 ), #326, .T. ) ;
#256 = FACE_OUTER_BOUND ( 'NONE', #351, .T. ) ;
#257 = CYLINDRICAL_SURFACE ( 'NONE', #234, 1.249999999999994227 ) ;
#258 = FACE_OUTER_BOUND ( 'NONE', #217, .T. ) ;
#259 = ORIENTED_EDGE ( 'NONE', *, *, #560, .T. ) ;
#260 = AXIS2_PLACEMENT_3D ( 'NONE', #221, #51, #388 ) ;
#261 = VECTOR ( 'NONE', #300, 1000.000000000000000 ) ;
#262 = DIRECTION ( 'NONE',  ( 1.000000000000000000, 0.000000000000000000, 0.000000000000000000 ) ) ;
#263 = EDGE_CURVE ( 'NONE', #240, #107, #450, .T. ) ;
#264 = CARTESIAN_POINT ( 'NONE',  ( 0.000000000000000000, 0.000000000000000000, 68.00000000000000000 ) ) ;
#265 = ORIENTED_EDGE ( 'NONE', *, *, #278, .F. ) ;
#266 = PLANE ( 'NONE',  #307 ) ;
#267 = DIRECTION ( 'NONE',  ( -0.000000000000000000, -0.000000000000000000, 1.000000000000000000 ) ) ;
#268 = CARTESIAN_POINT ( 'NONE',  ( 2.000000000000000888, 1.530808498934191324E-16, 41.24999999999999289 ) ) ;
#269 = CIRCLE ( 'NONE', #413, 1.250000000000000000 ) ;
#270 = VECTOR ( 'NONE', #529, 1000.000000000000000 ) ;
#271 = CARTESIAN_POINT ( 'NONE',  ( 0.000000000000000000, 0.000000000000000000, 33.00000000000000000 ) ) ;
#272 = VERTEX_POINT ( 'NONE', #23 ) ;
#273 = DIRECTION ( 'NONE',  ( 1.000000000000000000, 0.000000000000000000, -1.734723475976807341E-16 ) ) ;
#274 = ORIENTED_EDGE ( 'NONE', *, *, #396, .T. ) ;
#275 = SHAPE_DEFINITION_REPRESENTATION ( #125, #430 ) ;
#276 = FACE_OUTER_BOUND ( 'NONE', #493, .T. ) ;
#277 = ORIENTED_EDGE ( 'NONE', *, *, #84, .T. ) ;
#278 = EDGE_CURVE ( 'NONE', #361, #222, #33, .T. ) ;
#279 = CARTESIAN_POINT ( 'NONE',  ( 0.000000000000000000, 0.000000000000000000, 0.000000000000000000 ) ) ;
#280 = AXIS2_PLACEMENT_3D ( 'NONE', #43, #46, #353 ) ;
#281 = ORIENTED_EDGE ( 'NONE', *, *, #145, .T. ) ;
#282 = PRODUCT_RELATED_PRODUCT_CATEGORY ( 'part', '', ( #7 ) ) ;
#283 = DIRECTION ( 'NONE',  ( 0.000000000000000000, 0.000000000000000000, 1.000000000000000000 ) ) ;
#284 = ORIENTED_EDGE ( 'NONE', *, *, #263, .T. ) ;
#285 = DIRECTION ( 'NONE',  ( 1.000000000000000000, 0.000000000000000000, 0.000000000000000000 ) ) ;
#286 = ORIENTED_EDGE ( 'NONE', *, *, #97, .F. ) ;
#287 = ADVANCED_FACE ( 'NONE', ( #496 ), #454, .T. ) ;
#288 = DIRECTION ( 'NONE',  ( 0.000000000000000000, 0.000000000000000000, 1.000000000000000000 ) ) ;
#289 = AXIS2_PLACEMENT_3D ( 'NONE', #431, #3, #262 ) ;
#290 = VECTOR ( 'NONE', #417, 1000.000000000000000 ) ;
#291 = VERTEX_POINT ( 'NONE', #70 ) ;
#292 = DIRECTION ( 'NONE',  ( 1.000000000000000000, 0.000000000000000000, 0.000000000000000000 ) ) ;
#293 = ORIENTED_EDGE ( 'NONE', *, *, #369, .T. ) ;
#294 = DIRECTION ( 'NONE',  ( 0.000000000000000000, 0.000000000000000000, 1.000000000000000000 ) ) ;
#295 = ADVANCED_FACE ( 'NONE', ( #323 ), #14, .F. ) ;
#296 = CARTESIAN_POINT ( 'NONE',  ( 0.000000000000000000, 0.000000000000000000, 8.000000000000000000 ) ) ;
#297 = ORIENTED_EDGE ( 'NONE', *, *, #330, .F. ) ;
#298 = EDGE_CURVE ( 'NONE', #319, #4, #76, .T. ) ;
#299 = CIRCLE ( 'NONE', #337, 1.249999999999994227 ) ;
#300 = DIRECTION ( 'NONE',  ( -0.000000000000000000, -0.000000000000000000, -1.000000000000000000 ) ) ;
#301 = FACE_OUTER_BOUND ( 'NONE', #110, .T. ) ;
#302 = ORIENTED_EDGE ( 'NONE', *, *, #543, .T. ) ;
#303 = CARTESIAN_POINT ( 'NONE',  ( -1.999999999999990008, -2.500000000000000444, 48.00000000000000000 ) ) ;
#304 = VERTEX_POINT ( 'NONE', #376 ) ;
#305 = CYLINDRICAL_SURFACE ( 'NONE', #545, 1.250000000000000000 ) ;
#306 =( GEOMETRIC_REPRESENTATION_CONTEXT ( 3 ) GLOBAL_UNCERTAINTY_ASSIGNED_CONTEXT ( ( #2 ) ) GLOBAL_UNIT_ASSIGNED_CONTEXT ( ( #548, #418, #379 ) ) REPRESENTATION_CONTEXT ( 'NONE', 'WORKASPACE' ) );
#307 = AXIS2_PLACEMENT_3D ( 'NONE', #528, #226, #181 ) ;
#308 = DIRECTION ( 'NONE',  ( -0.000000000000000000, 0.000000000000000000, -1.000000000000000000 ) ) ;
#309 = ORIENTED_EDGE ( 'NONE', *, *, #201, .T. ) ;
#310 = CARTESIAN_POINT ( 'NONE',  ( 0.000000000000000000, 0.000000000000000000, 76.00000000000000000 ) ) ;
#311 = DIRECTION ( 'NONE',  ( 1.000000000000000000, 0.000000000000000000, 0.000000000000000000 ) ) ;
#312 = EDGE_LOOP ( 'NONE', ( #230, #284, #259, #159, #309, #513, #461, #153, #338, #527, #537, #297 ) ) ;
#313 =( NAMED_UNIT ( * ) PLANE_ANGLE_UNIT ( ) SI_UNIT ( $, .RADIAN. ) );
#314 = LINE ( 'NONE', #360, #32 ) ;
#315 = VERTEX_POINT ( 'NONE', #502 ) ;
#316 =( NAMED_UNIT ( * ) SI_UNIT ( $, .STERADIAN. ) SOLID_ANGLE_UNIT ( ) );
#317 = AXIS2_PLACEMENT_3D ( 'NONE', #279, #115, #63 ) ;
#318 = DIRECTION ( 'NONE',  ( 0.000000000000000000, 0.000000000000000000, 1.000000000000000000 ) ) ;
#319 = VERTEX_POINT ( 'NONE', #335 ) ;
#320 = CARTESIAN_POINT ( 'NONE',  ( 0.000000000000000000, 0.000000000000000000, 76.00000000000000000 ) ) ;
#321 = ORIENTED_EDGE ( 'NONE', *, *, #247, .T. ) ;
#322 = EDGE_CURVE ( 'NONE', #416, #361, #212, .T. ) ;
#323 = FACE_OUTER_BOUND ( 'NONE', #233, .T. ) ;
#324 = EDGE_LOOP ( 'NONE', ( #302, #242 ) ) ;
#325 = MECHANICAL_DESIGN_GEOMETRIC_PRESENTATION_REPRESENTATION (  '', ( #164 ), #306 ) ;
#326 = PLANE ( 'NONE',  #453 ) ;
#327 = AXIS2_PLACEMENT_3D ( 'NONE', #469, #124, #385 ) ;
#328 = ORIENTED_EDGE ( 'NONE', *, *, #421, .F. ) ;
#329 = LINE ( 'NONE', #378, #290 ) ;
#330 = EDGE_CURVE ( 'NONE', #30, #319, #551, .T. ) ;
#331 = ORIENTED_EDGE ( 'NONE', *, *, #22, .T. ) ;
#332 = CARTESIAN_POINT ( 'NONE',  ( 1.250000000000000000, 1.530808498934191324E-16, 68.00000000000000000 ) ) ;
#333 = ORIENTED_EDGE ( 'NONE', *, *, #278, .T. ) ;
#334 = CLOSED_SHELL ( 'NONE', ( #47, #439, #81, #287, #99, #255, #436, #479, #167, #5, #224, #69, #295, #209, #370, #140, #541, #459 ) ) ;
#335 = CARTESIAN_POINT ( 'NONE',  ( -2.500000000000000444, 0.000000000000000000, 48.00000000000000000 ) ) ;
#336 = CIRCLE ( 'NONE', #289, 2.500000000000000444 ) ;
#337 = AXIS2_PLACEMENT_3D ( 'NONE', #359, #483, #362 ) ;
#338 = ORIENTED_EDGE ( 'NONE', *, *, #384, .T. ) ;
#339 = DIRECTION ( 'NONE',  ( -1.000000000000000000, 0.000000000000000000, 0.000000000000000000 ) ) ;
#340 = EDGE_LOOP ( 'NONE', ( #451, #559, #20 ) ) ;
#341 = EDGE_CURVE ( 'NONE', #315, #319, #423, .T. ) ;
#342 = FACE_OUTER_BOUND ( 'NONE', #340, .T. ) ;
#343 = DIRECTION ( 'NONE',  ( -1.000000000000000000, 0.000000000000000000, 0.000000000000000000 ) ) ;
#344 = DIRECTION ( 'NONE',  ( 1.000000000000000000, 0.000000000000000000, -0.000000000000000000 ) ) ;
#345 = CIRCLE ( 'NONE', #516, 1.250000000000000000 ) ;
#346 = AXIS2_PLACEMENT_3D ( 'NONE', #364, #108, #536 ) ;
#347 = CIRCLE ( 'NONE', #12, 1.250000000000000000 ) ;
#348 = CARTESIAN_POINT ( 'NONE',  ( 2.000000000000000444, 1.500000000000000444, 33.00000000000000000 ) ) ;
#349 = DIRECTION ( 'NONE',  ( 0.000000000000000000, 0.000000000000000000, -1.000000000000000000 ) ) ;
#350 = EDGE_CURVE ( 'NONE', #194, #80, #103, .T. ) ;
#351 = EDGE_LOOP ( 'NONE', ( #368, #219, #438, #401 ) ) ;
#352 = DIRECTION ( 'NONE',  ( -1.000000000000000000, 0.000000000000000000, 0.000000000000000000 ) ) ;
#353 = DIRECTION ( 'NONE',  ( 1.000000000000000000, 0.000000000000000000, 0.000000000000000000 ) ) ;
#354 = AXIS2_PLACEMENT_3D ( 'NONE', #74, #373, #285 ) ;
#355 = CARTESIAN_POINT ( 'NONE',  ( -1.999999999999991340, 0.000000000000000000, 38.75000000000000711 ) ) ;
#356 = DIRECTION ( 'NONE',  ( 1.000000000000000000, 0.000000000000000000, 0.000000000000000000 ) ) ;
#357 = CARTESIAN_POINT ( 'NONE',  ( 2.500000000000000444, 3.061616997868383634E-16, 76.00000000000000000 ) ) ;
#358 = EDGE_CURVE ( 'NONE', #420, #272, #183, .T. ) ;
#359 = CARTESIAN_POINT ( 'NONE',  ( 2.000000000000000888, 0.000000000000000000, 40.00000000000000000 ) ) ;
#360 = CARTESIAN_POINT ( 'NONE',  ( 2.000000000000005329, -1.499999999999994005, 76.00000000000000000 ) ) ;
#361 = VERTEX_POINT ( 'NONE', #466 ) ;
#362 = DIRECTION ( 'NONE',  ( 0.000000000000000000, 0.000000000000000000, 1.000000000000000000 ) ) ;
#363 = AXIS2_PLACEMENT_3D ( 'NONE', #535, #487, #231 ) ;
#364 = CARTESIAN_POINT ( 'NONE',  ( 0.000000000000000000, 0.000000000000000000, 8.000000000000000000 ) ) ;
#365 = ORIENTED_EDGE ( 'NONE', *, *, #247, .F. ) ;
#366 = EDGE_CURVE ( 'NONE', #54, #225, #329, .T. ) ;
#367 = CARTESIAN_POINT ( 'NONE',  ( -2.499999999999990230, -2.500000000000000444, 48.00000000000000000 ) ) ;
#368 = ORIENTED_EDGE ( 'NONE', *, *, #238, .F. ) ;
#369 = EDGE_CURVE ( 'NONE', #429, #225, #347, .T. ) ;
#370 = ADVANCED_FACE ( 'NONE', ( #342 ), #547, .F. ) ;
#371 = CARTESIAN_POINT ( 'NONE',  ( 2.000000000000000444, -1.500000000000000444, 33.00000000000000000 ) ) ;
#372 = ORIENTED_EDGE ( 'NONE', *, *, #486, .T. ) ;
#373 = DIRECTION ( 'NONE',  ( -0.000000000000000000, 0.000000000000000000, 1.000000000000000000 ) ) ;
#374 = CIRCLE ( 'NONE', #524, 2.500000000000000444 ) ;
#375 = EDGE_LOOP ( 'NONE', ( #163, #435, #372, #90 ) ) ;
#376 = CARTESIAN_POINT ( 'NONE',  ( -1.999999999999992673, -1.500000000000020428, 33.00000000000000000 ) ) ;
#377 = CARTESIAN_POINT ( 'NONE',  ( 0.000000000000000000, 0.000000000000000000, -1.200000000000000030E-05 ) ) ;
#378 = CARTESIAN_POINT ( 'NONE',  ( -1.250000000000000000, 0.000000000000000000, 76.00001199999999812 ) ) ;
#379 =( NAMED_UNIT ( * ) SI_UNIT ( $, .STERADIAN. ) SOLID_ANGLE_UNIT ( ) );
#380 = CARTESIAN_POINT ( 'NONE',  ( 2.500000000000000444, 3.061616997868383634E-16, 33.00000000000000000 ) ) ;
#381 = EDGE_CURVE ( 'NONE', #449, #254, #414, .T. ) ;
#382 = VECTOR ( 'NONE', #19, 1000.000000000000000 ) ;
#383 =( GEOMETRIC_REPRESENTATION_CONTEXT ( 3 ) GLOBAL_UNCERTAINTY_ASSIGNED_CONTEXT ( ( #45 ) ) GLOBAL_UNIT_ASSIGNED_CONTEXT ( ( #87, #313, #316 ) ) REPRESENTATION_CONTEXT ( 'NONE', 'WORKASPACE' ) );
#384 = EDGE_CURVE ( 'NONE', #416, #473, #374, .T. ) ;
#385 = DIRECTION ( 'NONE',  ( 0.000000000000000000, 0.000000000000000000, -1.000000000000000000 ) ) ;
#386 = DIRECTION ( 'NONE',  ( -1.000000000000000000, 0.000000000000000000, -0.000000000000000000 ) ) ;
#387 = LINE ( 'NONE', #18, #129 ) ;
#388 = DIRECTION ( 'NONE',  ( 0.000000000000000000, 0.000000000000000000, -1.000000000000000000 ) ) ;
#389 = CIRCLE ( 'NONE', #260, 1.249999999999994227 ) ;
#390 = AXIS2_PLACEMENT_3D ( 'NONE', #514, #79, #339 ) ;
#391 = DIRECTION ( 'NONE',  ( -0.000000000000000000, 1.000000000000000000, -0.000000000000000000 ) ) ;
#392 = PRODUCT_DEFINITION_CONTEXT ( 'detailed design', #510, 'design' ) ;
#393 = CARTESIAN_POINT ( 'NONE',  ( 0.000000000000000000, 0.000000000000000000, 76.00000000000000000 ) ) ;
#394 = ORIENTED_EDGE ( 'NONE', *, *, #182, .F. ) ;
#395 = CARTESIAN_POINT ( 'NONE',  ( 1.250000000000000000, 0.000000000000000000, -1.200000000000000030E-05 ) ) ;
#396 = EDGE_CURVE ( 'NONE', #291, #132, #472, .T. ) ;
#397 = VECTOR ( 'NONE', #476, 1000.000000000000000 ) ;
#398 = CYLINDRICAL_SURFACE ( 'NONE', #193, 1.250000000000000000 ) ;
#399 = FACE_OUTER_BOUND ( 'NONE', #206, .T. ) ;
#400 = LINE ( 'NONE', #232, #517 ) ;
#401 = ORIENTED_EDGE ( 'NONE', *, *, #369, .F. ) ;
#402 = CARTESIAN_POINT ( 'NONE',  ( 2.000000000000005329, 1.499999999999994005, 76.00000000000000000 ) ) ;
#403 = CARTESIAN_POINT ( 'NONE',  ( -1.999999999999992673, -2.500000000000000444, 33.00000000000000000 ) ) ;
#404 = ORIENTED_EDGE ( 'NONE', *, *, #322, .T. ) ;
#405 = AXIS2_PLACEMENT_3D ( 'NONE', #377, #38, #161 ) ;
#406 = AXIS2_PLACEMENT_3D ( 'NONE', #539, #154, #117 ) ;
#407 = CARTESIAN_POINT ( 'NONE',  ( 0.000000000000000000, 0.000000000000000000, 76.00000000000000000 ) ) ;
#408 = ORIENTED_EDGE ( 'NONE', *, *, #26, .T. ) ;
#409 = DIRECTION ( 'NONE',  ( 0.000000000000000000, 0.000000000000000000, 1.000000000000000000 ) ) ;
#410 = ORIENTED_EDGE ( 'NONE', *, *, #358, .T. ) ;
#411 = DIRECTION ( 'NONE',  ( 1.000000000000000000, 0.000000000000000000, 0.000000000000000000 ) ) ;
#412 = ORIENTED_EDGE ( 'NONE', *, *, #220, .F. ) ;
#413 = AXIS2_PLACEMENT_3D ( 'NONE', #477, #267, #311 ) ;
#414 = CIRCLE ( 'NONE', #390, 2.500000000000000444 ) ;
#415 = PLANE ( 'NONE',  #165 ) ;
#416 = VERTEX_POINT ( 'NONE', #558 ) ;
#417 = DIRECTION ( 'NONE',  ( 0.000000000000000000, 0.000000000000000000, -1.000000000000000000 ) ) ;
#418 =( NAMED_UNIT ( * ) PLANE_ANGLE_UNIT ( ) SI_UNIT ( $, .RADIAN. ) );
#419 = CARTESIAN_POINT ( 'NONE',  ( 0.000000000000000000, 0.000000000000000000, 0.000000000000000000 ) ) ;
#420 = VERTEX_POINT ( 'NONE', #121 ) ;
#421 = EDGE_CURVE ( 'NONE', #155, #550, #175, .T. ) ;
#422 = CARTESIAN_POINT ( 'NONE',  ( 0.000000000000000000, 0.000000000000000000, 33.00000000000000000 ) ) ;
#423 = CIRCLE ( 'NONE', #354, 2.500000000000000444 ) ;
#424 = ORIENTED_EDGE ( 'NONE', *, *, #467, .T. ) ;
#425 = DIRECTION ( 'NONE',  ( 0.000000000000000000, 0.000000000000000000, 1.000000000000000000 ) ) ;
#426 = ORIENTED_EDGE ( 'NONE', *, *, #350, .F. ) ;
#427 = DIRECTION ( 'NONE',  ( 1.000000000000000000, -0.000000000000000000, -0.000000000000000000 ) ) ;
#428 = DIRECTION ( 'NONE',  ( -0.000000000000000000, -0.000000000000000000, -1.000000000000000000 ) ) ;
#429 = VERTEX_POINT ( 'NONE', #332 ) ;
#430 = ADVANCED_BREP_SHAPE_REPRESENTATION ( 'Rod betweem jaw back', ( #9, #68 ), #383 ) ;
#431 = CARTESIAN_POINT ( 'NONE',  ( 0.000000000000000000, 0.000000000000000000, 48.00000000000000000 ) ) ;
#432 = CIRCLE ( 'NONE', #452, 2.500000000000000444 ) ;
#433 = AXIS2_PLACEMENT_3D ( 'NONE', #296, #162, #411 ) ;
#434 = DIRECTION ( 'NONE',  ( -1.000000000000000000, 0.000000000000000000, 0.000000000000000000 ) ) ;
#435 = ORIENTED_EDGE ( 'NONE', *, *, #220, .T. ) ;
#436 = ADVANCED_FACE ( 'NONE', ( #126, #36 ), #415, .F. ) ;
#437 = DIRECTION ( 'NONE',  ( 0.000000000000000000, 0.000000000000000000, 1.000000000000000000 ) ) ;
#438 = ORIENTED_EDGE ( 'NONE', *, *, #366, .T. ) ;
#439 = ADVANCED_FACE ( 'NONE', ( #505 ), #241, .F. ) ;
#440 = DIRECTION ( 'NONE',  ( -0.000000000000000000, -0.000000000000000000, -1.000000000000000000 ) ) ;
#441 = LINE ( 'NONE', #562, #523 ) ;
#442 = CIRCLE ( 'NONE', #202, 2.500000000000000444 ) ;
#443 = DIRECTION ( 'NONE',  ( 0.000000000000000000, 0.000000000000000000, 1.000000000000000000 ) ) ;
#444 = CIRCLE ( 'NONE', #280, 2.500000000000000444 ) ;
#445 = PLANE ( 'NONE',  #92 ) ;
#446 = ORIENTED_EDGE ( 'NONE', *, *, #109, .F. ) ;
#447 = DIRECTION ( 'NONE',  ( -0.000000000000000000, 0.000000000000000000, 1.000000000000000000 ) ) ;
#448 = EDGE_CURVE ( 'NONE', #132, #291, #149, .T. ) ;
#449 = VERTEX_POINT ( 'NONE', #380 ) ;
#450 = LINE ( 'NONE', #357, #270 ) ;
#451 = ORIENTED_EDGE ( 'NONE', *, *, #123, .F. ) ;
#452 = AXIS2_PLACEMENT_3D ( 'NONE', #393, #98, #131 ) ;
#453 = AXIS2_PLACEMENT_3D ( 'NONE', #500, #318, #492 ) ;
#454 = CYLINDRICAL_SURFACE ( 'NONE', #534, 2.500000000000000444 ) ;
#455 = VERTEX_POINT ( 'NONE', #555 ) ;
#456 = EDGE_CURVE ( 'NONE', #455, #503, #168, .T. ) ;
#457 = DIRECTION ( 'NONE',  ( -0.000000000000000000, -0.000000000000000000, -1.000000000000000000 ) ) ;
#458 = EDGE_LOOP ( 'NONE', ( #328, #203 ) ) ;
#459 = ADVANCED_FACE ( 'NONE', ( #531 ), #55, .F. ) ;
#460 = CARTESIAN_POINT ( 'NONE',  ( 2.000000000000000888, 0.000000000000000000, 40.00000000000000000 ) ) ;
#461 = ORIENTED_EDGE ( 'NONE', *, *, #498, .T. ) ;
#462 = APPLICATION_PROTOCOL_DEFINITION ( 'draft international standard', 'automotive_design', 1998, #510 ) ;
#463 = VECTOR ( 'NONE', #235, 1000.000000000000000 ) ;
#464 = DIRECTION ( 'NONE',  ( -1.000000000000000000, 0.000000000000000000, 0.000000000000000000 ) ) ;
#465 = SURFACE_STYLE_FILL_AREA ( #210 ) ;
#466 = CARTESIAN_POINT ( 'NONE',  ( -2.500000000000000444, 0.000000000000000000, 0.000000000000000000 ) ) ;
#467 = EDGE_CURVE ( 'NONE', #54, #196, #57, .T. ) ;
#468 = ORIENTED_EDGE ( 'NONE', *, *, #498, .F. ) ;
#469 = CARTESIAN_POINT ( 'NONE',  ( -1.999999999999991340, 0.000000000000000000, 40.00000000000000000 ) ) ;
#470 = DIRECTION ( 'NONE',  ( 0.000000000000000000, 0.000000000000000000, -1.000000000000000000 ) ) ;
#471 = VECTOR ( 'NONE', #6, 1000.000000000000000 ) ;
#472 = CIRCLE ( 'NONE', #211, 1.250000000000000000 ) ;
#473 = VERTEX_POINT ( 'NONE', #15 ) ;
#474 = DIRECTION ( 'NONE',  ( 1.000000000000000000, 0.000000000000000000, 0.000000000000000000 ) ) ;
#475 = CYLINDRICAL_SURFACE ( 'NONE', #101, 2.500000000000000444 ) ;
#476 = DIRECTION ( 'NONE',  ( 0.000000000000000000, 0.000000000000000000, 1.000000000000000000 ) ) ;
#477 = CARTESIAN_POINT ( 'NONE',  ( 0.000000000000000000, 0.000000000000000000, 8.000000000000000000 ) ) ;
#478 = AXIS2_PLACEMENT_3D ( 'NONE', #367, #447, #61 ) ;
#479 = ADVANCED_FACE ( 'NONE', ( #256 ), #398, .F. ) ;
#480 = FACE_OUTER_BOUND ( 'NONE', #485, .T. ) ;
#481 = EDGE_CURVE ( 'NONE', #503, #73, #146, .T. ) ;
#482 = ORIENTED_EDGE ( 'NONE', *, *, #199, .T. ) ;
#483 = DIRECTION ( 'NONE',  ( 1.000000000000000000, -0.000000000000000000, -1.156482317317871478E-16 ) ) ;
#484 = PLANE ( 'NONE',  #91 ) ;
#485 = EDGE_LOOP ( 'NONE', ( #24, #293 ) ) ;
#486 = EDGE_CURVE ( 'NONE', #550, #155, #299, .T. ) ;
#487 = DIRECTION ( 'NONE',  ( 1.000000000000000000, -0.000000000000000000, -0.000000000000000000 ) ) ;
#488 = DIRECTION ( 'NONE',  ( -0.000000000000000000, -0.000000000000000000, -1.000000000000000000 ) ) ;
#489 = CIRCLE ( 'NONE', #147, 1.250000000000000000 ) ;
#490 = ORIENTED_EDGE ( 'NONE', *, *, #180, .T. ) ;
#491 = VECTOR ( 'NONE', #160, 1000.000000000000000 ) ;
#492 = DIRECTION ( 'NONE',  ( 1.000000000000000000, 0.000000000000000000, -0.000000000000000000 ) ) ;
#493 = EDGE_LOOP ( 'NONE', ( #95, #394, #185, #122 ) ) ;
#494 = CARTESIAN_POINT ( 'NONE',  ( 2.500000000000000444, 3.061616997868383634E-16, 76.00000000000000000 ) ) ;
#495 = ORIENTED_EDGE ( 'NONE', *, *, #507, .T. ) ;
#496 = FACE_OUTER_BOUND ( 'NONE', #312, .T. ) ;
#497 = ORIENTED_EDGE ( 'NONE', *, *, #123, .T. ) ;
#498 = EDGE_CURVE ( 'NONE', #222, #361, #554, .T. ) ;
#499 = AXIS2_PLACEMENT_3D ( 'NONE', #82, #294, #509 ) ;
#500 = CARTESIAN_POINT ( 'NONE',  ( 0.000000000000000000, 0.000000000000000000, 76.00000000000000000 ) ) ;
#501 = ORIENTED_EDGE ( 'NONE', *, *, #180, .F. ) ;
#502 = CARTESIAN_POINT ( 'NONE',  ( -1.999999999999990008, 1.500000000000014433, 48.00000000000000000 ) ) ;
#503 = VERTEX_POINT ( 'NONE', #215 ) ;
#504 = EDGE_CURVE ( 'NONE', #449, #222, #172, .T. ) ;
#505 = FACE_OUTER_BOUND ( 'NONE', #198, .T. ) ;
#506 = FILL_AREA_STYLE_COLOUR ( '', #553 ) ;
#507 = EDGE_CURVE ( 'NONE', #291, #420, #387, .T. ) ;
#508 = VECTOR ( 'NONE', #60, 1000.000000000000000 ) ;
#509 = DIRECTION ( 'NONE',  ( 1.000000000000000000, 0.000000000000000000, -0.000000000000000000 ) ) ;
#510 = APPLICATION_CONTEXT ( 'automotive_design' ) ;
#511 = EDGE_LOOP ( 'NONE', ( #35, #482, #112 ) ) ;
#512 = CARTESIAN_POINT ( 'NONE',  ( 2.000000000000002220, -2.500000000000000444, 48.00000000000000000 ) ) ;
#513 = ORIENTED_EDGE ( 'NONE', *, *, #504, .T. ) ;
#514 = CARTESIAN_POINT ( 'NONE',  ( 0.000000000000000000, 0.000000000000000000, 33.00000000000000000 ) ) ;
#515 = ORIENTED_EDGE ( 'NONE', *, *, #145, .F. ) ;
#516 = AXIS2_PLACEMENT_3D ( 'NONE', #526, #437, #139 ) ;
#517 = VECTOR ( 'NONE', #111, 1000.000000000000000 ) ;
#518 = CARTESIAN_POINT ( 'NONE',  ( 0.000000000000000000, 0.000000000000000000, 76.00001199999999812 ) ) ;
#519 = DIRECTION ( 'NONE',  ( -1.000000000000000000, 0.000000000000000000, 0.000000000000000000 ) ) ;
#520 = ORIENTED_EDGE ( 'NONE', *, *, #138, .F. ) ;
#521 = CARTESIAN_POINT ( 'NONE',  ( 1.250000000000000000, 0.000000000000000000, 0.000000000000000000 ) ) ;
#522 = CARTESIAN_POINT ( 'NONE',  ( 2.500000000000000444, -2.500000000000000444, 33.00000000000000000 ) ) ;
#523 = VECTOR ( 'NONE', #52, 1000.000000000000000 ) ;
#524 = AXIS2_PLACEMENT_3D ( 'NONE', #422, #40, #464 ) ;
#525 = CARTESIAN_POINT ( 'NONE',  ( -2.500000000000000444, 0.000000000000000000, 38.75000000000000711 ) ) ;
#526 = CARTESIAN_POINT ( 'NONE',  ( 0.000000000000000000, 0.000000000000000000, 68.00000000000000000 ) ) ;
#527 = ORIENTED_EDGE ( 'NONE', *, *, #182, .T. ) ;
#528 = CARTESIAN_POINT ( 'NONE',  ( 2.000000000000000444, -2.500000000000000444, 33.00000000000000000 ) ) ;
#529 = DIRECTION ( 'NONE',  ( -0.000000000000000000, -0.000000000000000000, -1.000000000000000000 ) ) ;
#530 = EDGE_LOOP ( 'NONE', ( #265, #468 ) ) ;
#531 = FACE_OUTER_BOUND ( 'NONE', #118, .T. ) ;
#532 = FACE_BOUND ( 'NONE', #245, .T. ) ;
#533 = ORIENTED_EDGE ( 'NONE', *, *, #65, .F. ) ;
#534 = AXIS2_PLACEMENT_3D ( 'NONE', #407, #457, #228 ) ;
#535 = CARTESIAN_POINT ( 'NONE',  ( -2.500000000000000444, 0.000000000000000000, 40.00000000000000000 ) ) ;
#536 = DIRECTION ( 'NONE',  ( 1.000000000000000000, 0.000000000000000000, 0.000000000000000000 ) ) ;
#537 = ORIENTED_EDGE ( 'NONE', *, *, #341, .T. ) ;
#538 = DIRECTION ( 'NONE',  ( 0.000000000000000000, 0.000000000000000000, 1.000000000000000000 ) ) ;
#539 = CARTESIAN_POINT ( 'NONE',  ( 0.000000000000000000, 0.000000000000000000, 48.00000000000000000 ) ) ;
#540 = ORIENTED_EDGE ( 'NONE', *, *, #448, .T. ) ;
#541 = ADVANCED_FACE ( 'NONE', ( #188, #96 ), #266, .F. ) ;
#542 = CARTESIAN_POINT ( 'NONE',  ( -1.250000000000000000, 0.000000000000000000, 68.00000000000000000 ) ) ;
#543 = EDGE_CURVE ( 'NONE', #30, #240, #444, .T. ) ;
#544 = ORIENTED_EDGE ( 'NONE', *, *, #330, .T. ) ;
#545 = AXIS2_PLACEMENT_3D ( 'NONE', #518, #53, #519 ) ;
#546 = AXIS2_PLACEMENT_3D ( 'NONE', #310, #142, #356 ) ;
#547 = PLANE ( 'NONE',  #499 ) ;
#548 =( LENGTH_UNIT ( ) NAMED_UNIT ( * ) SI_UNIT ( .MILLI., .METRE. ) );
#549 = CARTESIAN_POINT ( 'NONE',  ( -2.500000000000000444, 0.000000000000000000, 76.00000000000000000 ) ) ;
#550 = VERTEX_POINT ( 'NONE', #268 ) ;
#551 = LINE ( 'NONE', #549, #113 ) ;
#552 = ORIENTED_EDGE ( 'NONE', *, *, #201, .F. ) ;
#553 = COLOUR_RGB ( '',0.7921568627450980005, 0.8196078431372548767, 0.9333333333333333481 ) ;
#554 = CIRCLE ( 'NONE', #227, 2.500000000000000444 ) ;
#555 = CARTESIAN_POINT ( 'NONE',  ( 2.000000000000002220, -1.499999999999994005, 48.00000000000000000 ) ) ;
#556 = PRESENTATION_STYLE_ASSIGNMENT (( #78 ) ) ;
#557 = EDGE_CURVE ( 'NONE', #80, #155, #13, .T. ) ;
#558 = CARTESIAN_POINT ( 'NONE',  ( -2.500000000000000444, 0.000000000000000000, 33.00000000000000000 ) ) ;
#559 = ORIENTED_EDGE ( 'NONE', *, *, #456, .T. ) ;
#560 = EDGE_CURVE ( 'NONE', #107, #503, #252, .T. ) ;
#561 = PRODUCT_DEFINITION ( 'General', '', #166, #392 ) ;
#562 = CARTESIAN_POINT ( 'NONE',  ( 2.000000000000000444, -2.500000000000000444, 33.00000000000000000 ) ) ;
#563 = VECTOR ( 'NONE', #391, 1000.000000000000000 ) ;
#564 = AXIS2_PLACEMENT_3D ( 'NONE', #419, #37, #208 ) ;
#565 = CARTESIAN_POINT ( 'NONE',  ( -2.499999999999992895, -2.500000000000000444, 33.00000000000000000 ) ) ;
ENDSEC;
END-ISO-10303-21;
