ISO-10303-21;
HEADER;
FILE_DESCRIPTION (( 'STEP AP214' ),
    '1' );
FILE_NAME ('Rod new lip side.STEP',
    '2025-10-21T18:57:17',
    ( 'Windows User' ),
    ( '' ),
    'SwSTEP 2.0',
    'SolidWorks 2023',
    '' );
FILE_SCHEMA (( 'AUTOMOTIVE_DESIGN' ));
ENDSEC;

DATA;
#1 = ORIENTED_EDGE ( 'NONE', *, *, #150, .F. ) ;
#2 = UNCERTAINTY_MEASURE_WITH_UNIT (LENGTH_MEASURE( 1.000000000000000082E-05 ), #392, 'distance_accuracy_value', 'NONE');
#3 = FILL_AREA_STYLE ('',( #506 ) ) ;
#4 = ORIENTED_EDGE ( 'NONE', *, *, #258, .F. ) ;
#5 = VERTEX_POINT ( 'NONE', #515 ) ;
#6 = CARTESIAN_POINT ( 'NONE',  ( 21.00000000000000000, 0.000000000000000000, 2.000000000000000000 ) ) ;
#7 =( NAMED_UNIT ( * ) SI_UNIT ( $, .STERADIAN. ) SOLID_ANGLE_UNIT ( ) );
#8 = MECHANICAL_DESIGN_GEOMETRIC_PRESENTATION_REPRESENTATION (  '', ( #328 ), #273 ) ;
#9 = ORIENTED_EDGE ( 'NONE', *, *, #133, .T. ) ;
#10 = MECHANICAL_DESIGN_GEOMETRIC_PRESENTATION_REPRESENTATION (  '', ( #130 ), #374 ) ;
#11 =( LENGTH_UNIT ( ) NAMED_UNIT ( * ) SI_UNIT ( .MILLI., .METRE. ) );
#12 = FILL_AREA_STYLE_COLOUR ( '', #535 ) ;
#13 = ORIENTED_EDGE ( 'NONE', *, *, #219, .F. ) ;
#14 = CARTESIAN_POINT ( 'NONE',  ( 5.000000000000000888, 3.000000000000000000, 0.000000000000000000 ) ) ;
#15 = CARTESIAN_POINT ( 'NONE',  ( 21.00000000000000000, 3.000000000000000000, 2.000000000000000000 ) ) ;
#16 = EDGE_LOOP ( 'NONE', ( #282, #385, #70, #102 ) ) ;
#17 = CARTESIAN_POINT ( 'NONE',  ( 5.000000000000000888, 3.000000000000000000, 1.000000000000001554 ) ) ;
#18 = COLOUR_RGB ( '',0.9686274509803921573, 0.2588235294117646745, 0.2588235294117646745 ) ;
#19 = EDGE_CURVE ( 'NONE', #423, #210, #501, .T. ) ;
#20 = CARTESIAN_POINT ( 'NONE',  ( 21.00000000000000000, 3.000000000000000000, -2.000000000000000000 ) ) ;
#21 = ORIENTED_EDGE ( 'NONE', *, *, #235, .F. ) ;
#22 = DIRECTION ( 'NONE',  ( 0.000000000000000000, 1.000000000000000000, 0.000000000000000000 ) ) ;
#23 = DIRECTION ( 'NONE',  ( 0.000000000000000000, 0.000000000000000000, 1.000000000000000000 ) ) ;
#24 = ORIENTED_EDGE ( 'NONE', *, *, #368, .F. ) ;
#25 = PRESENTATION_STYLE_ASSIGNMENT (( #486 ) ) ;
#26 = SURFACE_STYLE_USAGE ( .BOTH. , #411 ) ;
#27 = ORIENTED_EDGE ( 'NONE', *, *, #505, .T. ) ;
#28 = CIRCLE ( 'NONE', #137, 1.000000000000001554 ) ;
#29 = DIRECTION ( 'NONE',  ( 0.000000000000000000, 1.000000000000000000, -0.000000000000000000 ) ) ;
#30 = AXIS2_PLACEMENT_3D ( 'NONE', #60, #414, #178 ) ;
#31 = CIRCLE ( 'NONE', #372, 2.000000000000000000 ) ;
#32 = FACE_OUTER_BOUND ( 'NONE', #442, .T. ) ;
#33 = DIRECTION ( 'NONE',  ( -0.000000000000000000, -1.000000000000000000, -0.000000000000000000 ) ) ;
#34 = DIRECTION ( 'NONE',  ( -0.000000000000000000, 1.000000000000000000, -0.000000000000000000 ) ) ;
#35 =( NAMED_UNIT ( * ) SI_UNIT ( $, .STERADIAN. ) SOLID_ANGLE_UNIT ( ) );
#36 = DIRECTION ( 'NONE',  ( 0.000000000000000000, 0.000000000000000000, 1.000000000000000000 ) ) ;
#37 = SURFACE_STYLE_USAGE ( .BOTH. , #360 ) ;
#38 = DIRECTION ( 'NONE',  ( 0.000000000000000000, 1.000000000000000000, -0.000000000000000000 ) ) ;
#39 = PRESENTATION_LAYER_ASSIGNMENT (  '', '', ( #302 ) ) ;
#40 =( NAMED_UNIT ( * ) PLANE_ANGLE_UNIT ( ) SI_UNIT ( $, .RADIAN. ) );
#41 = ADVANCED_FACE ( 'NONE', ( #307 ), #296, .F. ) ;
#42 = FILL_AREA_STYLE ('',( #485 ) ) ;
#43 = ADVANCED_FACE ( 'NONE', ( #534 ), #314, .T. ) ;
#44 = PRODUCT_CONTEXT ( 'NONE', #212, 'mechanical' ) ;
#45 = CARTESIAN_POINT ( 'NONE',  ( -20.00000000000000000, 0.000000000000000000, 1.445578407503147401E-13 ) ) ;
#46 = EDGE_CURVE ( 'NONE', #193, #58, #28, .T. ) ;
#47 = DIRECTION ( 'NONE',  ( 0.000000000000000000, 0.000000000000000000, 1.000000000000000000 ) ) ;
#48 = AXIS2_PLACEMENT_3D ( 'NONE', #316, #135, #226 ) ;
#49 = PRESENTATION_LAYER_ASSIGNMENT (  '', '', ( #487 ) ) ;
#50 = CIRCLE ( 'NONE', #181, 1.000000000000001554 ) ;
#51 = DIRECTION ( 'NONE',  ( -0.000000000000000000, 1.000000000000000000, -0.000000000000000000 ) ) ;
#52 = ORIENTED_EDGE ( 'NONE', *, *, #512, .T. ) ;
#53 = ADVANCED_BREP_SHAPE_REPRESENTATION ( 'Rod new lip side', ( #195, #356 ), #214 ) ;
#54 = UNCERTAINTY_MEASURE_WITH_UNIT (LENGTH_MEASURE( 1.000000000000000082E-05 ), #179, 'distance_accuracy_value', 'NONE');
#55 = SURFACE_SIDE_STYLE ('',( #141 ) ) ;
#56 = EDGE_LOOP ( 'NONE', ( #439, #151 ) ) ;
#57 =( NAMED_UNIT ( * ) PLANE_ANGLE_UNIT ( ) SI_UNIT ( $, .RADIAN. ) );
#58 = VERTEX_POINT ( 'NONE', #367 ) ;
#59 = DIRECTION ( 'NONE',  ( 0.000000000000000000, 0.000000000000000000, 1.000000000000000000 ) ) ;
#60 = CARTESIAN_POINT ( 'NONE',  ( 21.00000000000000000, 3.000000000000000000, 0.000000000000000000 ) ) ;
#61 = VECTOR ( 'NONE', #351, 1000.000000000000000 ) ;
#62 = ORIENTED_EDGE ( 'NONE', *, *, #394, .T. ) ;
#63 =( GEOMETRIC_REPRESENTATION_CONTEXT ( 3 ) GLOBAL_UNCERTAINTY_ASSIGNED_CONTEXT ( ( #246 ) ) GLOBAL_UNIT_ASSIGNED_CONTEXT ( ( #167, #400, #126 ) ) REPRESENTATION_CONTEXT ( 'NONE', 'WORKASPACE' ) );
#64 = DIRECTION ( 'NONE',  ( -0.000000000000000000, 1.000000000000000000, -0.000000000000000000 ) ) ;
#65 = SURFACE_STYLE_FILL_AREA ( #559 ) ;
#66 = FILL_AREA_STYLE_COLOUR ( '', #574 ) ;
#67 = ORIENTED_EDGE ( 'NONE', *, *, #46, .T. ) ;
#68 = CYLINDRICAL_SURFACE ( 'NONE', #257, 1.999999999999999556 ) ;
#69 = CARTESIAN_POINT ( 'NONE',  ( -20.00000000000000000, 0.000000000000000000, 1.445578407503147401E-13 ) ) ;
#70 = ORIENTED_EDGE ( 'NONE', *, *, #300, .T. ) ;
#71 = AXIS2_PLACEMENT_3D ( 'NONE', #187, #290, #547 ) ;
#72 = EDGE_CURVE ( 'NONE', #479, #260, #209, .T. ) ;
#73 = CARTESIAN_POINT ( 'NONE',  ( -20.00000000000000000, 0.000000000000000000, 1.445578407503147401E-13 ) ) ;
#74 = ORIENTED_EDGE ( 'NONE', *, *, #357, .F. ) ;
#75 = CARTESIAN_POINT ( 'NONE',  ( -20.00000000000001066, 3.000000000000000000, -1.999999999999855227 ) ) ;
#76 = CARTESIAN_POINT ( 'NONE',  ( -19.99999999999998579, 3.000000000000000000, 2.000000000000143885 ) ) ;
#77 = SURFACE_STYLE_USAGE ( .BOTH. , #355 ) ;
#78 = FILL_AREA_STYLE ('',( #572 ) ) ;
#79 = FILL_AREA_STYLE ('',( #87 ) ) ;
#80 = SURFACE_SIDE_STYLE ('',( #213 ) ) ;
#81 = AXIS2_PLACEMENT_3D ( 'NONE', #69, #570, #514 ) ;
#82 = VECTOR ( 'NONE', #397, 1000.000000000000000 ) ;
#83 = DIRECTION ( 'NONE',  ( -0.000000000000000000, 1.000000000000000000, -0.000000000000000000 ) ) ;
#84 = SURFACE_STYLE_USAGE ( .BOTH. , #452 ) ;
#85 = PRESENTATION_STYLE_ASSIGNMENT (( #128 ) ) ;
#86 = ADVANCED_FACE ( 'NONE', ( #321 ), #358, .F. ) ;
#87 = FILL_AREA_STYLE_COLOUR ( '', #552 ) ;
#88 = DIRECTION ( 'NONE',  ( 0.000000000000000000, 0.000000000000000000, 1.000000000000000000 ) ) ;
#89 = CIRCLE ( 'NONE', #373, 1.000000000000001554 ) ;
#90 =( NAMED_UNIT ( * ) PLANE_ANGLE_UNIT ( ) SI_UNIT ( $, .RADIAN. ) );
#91 = PRESENTATION_STYLE_ASSIGNMENT (( #375 ) ) ;
#92 = ORIENTED_EDGE ( 'NONE', *, *, #349, .T. ) ;
#93 = APPLICATION_PROTOCOL_DEFINITION ( 'draft international standard', 'automotive_design', 1998, #339 ) ;
#94 = PRODUCT_DEFINITION ( 'General', '', #410, #186 ) ;
#95 = ORIENTED_EDGE ( 'NONE', *, *, #568, .T. ) ;
#96 =( GEOMETRIC_REPRESENTATION_CONTEXT ( 3 ) GLOBAL_UNCERTAINTY_ASSIGNED_CONTEXT ( ( #176 ) ) GLOBAL_UNIT_ASSIGNED_CONTEXT ( ( #471, #116, #387 ) ) REPRESENTATION_CONTEXT ( 'NONE', 'WORKASPACE' ) );
#97 = PRODUCT ( 'Rod new lip side', 'Rod new lip side', '', ( #44 ) ) ;
#98 = PRESENTATION_LAYER_ASSIGNMENT (  '', '', ( #365 ) ) ;
#99 = SURFACE_STYLE_FILL_AREA ( #546 ) ;
#100 = VERTEX_POINT ( 'NONE', #217 ) ;
#101 = PRESENTATION_STYLE_ASSIGNMENT (( #279 ) ) ;
#102 = ORIENTED_EDGE ( 'NONE', *, *, #368, .T. ) ;
#103 = ADVANCED_FACE ( 'NONE', ( #404, #364, #537, #132 ), #220, .F. ) ;
#104 = FACE_OUTER_BOUND ( 'NONE', #377, .T. ) ;
#105 = ORIENTED_EDGE ( 'NONE', *, *, #357, .T. ) ;
#106 = CARTESIAN_POINT ( 'NONE',  ( 5.000000000000000888, 0.000000000000000000, 1.000000000000001554 ) ) ;
#107 = STYLED_ITEM ( 'NONE', ( #370 ), #86 ) ;
#108 = AXIS2_PLACEMENT_3D ( 'NONE', #457, #51, #324 ) ;
#109 = PRESENTATION_LAYER_ASSIGNMENT (  '', '', ( #140 ) ) ;
#110 = FILL_AREA_STYLE_COLOUR ( '', #353 ) ;
#111 = AXIS2_PLACEMENT_3D ( 'NONE', #323, #561, #249 ) ;
#112 = FILL_AREA_STYLE ('',( #66 ) ) ;
#113 = DIRECTION ( 'NONE',  ( 0.000000000000000000, 1.000000000000000000, -0.000000000000000000 ) ) ;
#114 = FILL_AREA_STYLE ('',( #110 ) ) ;
#115 = FACE_BOUND ( 'NONE', #553, .T. ) ;
#116 =( NAMED_UNIT ( * ) PLANE_ANGLE_UNIT ( ) SI_UNIT ( $, .RADIAN. ) );
#117 = PRESENTATION_STYLE_ASSIGNMENT (( #77 ) ) ;
#118 = CARTESIAN_POINT ( 'NONE',  ( 5.000000000000000888, 0.000000000000000000, -1.000000000000001554 ) ) ;
#119 = COLOUR_RGB ( '',0.9686274509803921573, 0.2588235294117646745, 0.2588235294117646745 ) ;
#120 = ORIENTED_EDGE ( 'NONE', *, *, #505, .F. ) ;
#121 = MECHANICAL_DESIGN_GEOMETRIC_PRESENTATION_REPRESENTATION (  '', ( #302 ), #303 ) ;
#122 = DIRECTION ( 'NONE',  ( -0.000000000000000000, -1.000000000000000000, -0.000000000000000000 ) ) ;
#123 = PRESENTATION_LAYER_ASSIGNMENT (  '', '', ( #130 ) ) ;
#124 = CARTESIAN_POINT ( 'NONE',  ( -20.00000000000000000, 0.000000000000000000, 1.000000000000146105 ) ) ;
#125 = ORIENTED_EDGE ( 'NONE', *, *, #480, .T. ) ;
#126 =( NAMED_UNIT ( * ) SI_UNIT ( $, .STERADIAN. ) SOLID_ANGLE_UNIT ( ) );
#127 = CARTESIAN_POINT ( 'NONE',  ( -20.00000000000000000, 3.000000000000000000, 1.445578407503147401E-13 ) ) ;
#128 = SURFACE_STYLE_USAGE ( .BOTH. , #490 ) ;
#129 = CIRCLE ( 'NONE', #71, 1.000000000000001554 ) ;
#130 = STYLED_ITEM ( 'NONE', ( #493 ), #483 ) ;
#131 = CARTESIAN_POINT ( 'NONE',  ( -20.00000000000000000, 3.000000000000000000, 1.445578407503147401E-13 ) ) ;
#132 = FACE_OUTER_BOUND ( 'NONE', #430, .T. ) ;
#133 = EDGE_CURVE ( 'NONE', #479, #58, #334, .T. ) ;
#134 = SURFACE_STYLE_FILL_AREA ( #79 ) ;
#135 = DIRECTION ( 'NONE',  ( 7.242470512203171197E-15, -0.000000000000000000, 1.000000000000000000 ) ) ;
#136 = CYLINDRICAL_SURFACE ( 'NONE', #592, 1.000000000000001554 ) ;
#137 = AXIS2_PLACEMENT_3D ( 'NONE', #171, #38, #318 ) ;
#138 = AXIS2_PLACEMENT_3D ( 'NONE', #347, #344, #204 ) ;
#139 =( NAMED_UNIT ( * ) PLANE_ANGLE_UNIT ( ) SI_UNIT ( $, .RADIAN. ) );
#140 = STYLED_ITEM ( 'NONE', ( #208 ), #422 ) ;
#141 = SURFACE_STYLE_FILL_AREA ( #3 ) ;
#142 = EDGE_LOOP ( 'NONE', ( #92, #456, #1, #428 ) ) ;
#143 = ORIENTED_EDGE ( 'NONE', *, *, #188, .T. ) ;
#144 = PRESENTATION_LAYER_ASSIGNMENT (  '', '', ( #502 ) ) ;
#145 = VECTOR ( 'NONE', #320, 1000.000000000000000 ) ;
#146 = AXIS2_PLACEMENT_3D ( 'NONE', #555, #64, #196 ) ;
#147 = CYLINDRICAL_SURFACE ( 'NONE', #108, 1.000000000000001554 ) ;
#148 = EDGE_CURVE ( 'NONE', #393, #467, #129, .T. ) ;
#149 = SURFACE_STYLE_USAGE ( .BOTH. , #380 ) ;
#150 = EDGE_CURVE ( 'NONE', #5, #476, #182, .T. ) ;
#151 = ORIENTED_EDGE ( 'NONE', *, *, #264, .T. ) ;
#152 = SURFACE_STYLE_USAGE ( .BOTH. , #497 ) ;
#153 = PRESENTATION_STYLE_ASSIGNMENT (( #198 ) ) ;
#154 = VERTEX_POINT ( 'NONE', #510 ) ;
#155 = ADVANCED_FACE ( 'NONE', ( #104 ), #147, .F. ) ;
#156 =( NAMED_UNIT ( * ) SI_UNIT ( $, .STERADIAN. ) SOLID_ANGLE_UNIT ( ) );
#157 =( GEOMETRIC_REPRESENTATION_CONTEXT ( 3 ) GLOBAL_UNCERTAINTY_ASSIGNED_CONTEXT ( ( #558 ) ) GLOBAL_UNIT_ASSIGNED_CONTEXT ( ( #575, #90, #451 ) ) REPRESENTATION_CONTEXT ( 'NONE', 'WORKASPACE' ) );
#158 = VECTOR ( 'NONE', #247, 1000.000000000000000 ) ;
#159 =( LENGTH_UNIT ( ) NAMED_UNIT ( * ) SI_UNIT ( .MILLI., .METRE. ) );
#160 = FACE_OUTER_BOUND ( 'NONE', #507, .T. ) ;
#161 = CARTESIAN_POINT ( 'NONE',  ( 21.00000000000000000, 0.000000000000000000, 0.000000000000000000 ) ) ;
#162 = EDGE_LOOP ( 'NONE', ( #398, #62, #205, #21 ) ) ;
#163 = DIRECTION ( 'NONE',  ( 0.000000000000000000, 0.000000000000000000, 1.000000000000000000 ) ) ;
#164 = DIRECTION ( 'NONE',  ( 0.000000000000000000, 1.000000000000000000, 0.000000000000000000 ) ) ;
#165 = COLOUR_RGB ( '',0.9686274509803921573, 0.2588235294117646745, 0.2588235294117646745 ) ;
#166 = CIRCLE ( 'NONE', #446, 1.999999999999999556 ) ;
#167 =( LENGTH_UNIT ( ) NAMED_UNIT ( * ) SI_UNIT ( .MILLI., .METRE. ) );
#168 = DIRECTION ( 'NONE',  ( 0.000000000000000000, 0.000000000000000000, 1.000000000000000000 ) ) ;
#169 = CARTESIAN_POINT ( 'NONE',  ( 21.00000000000000000, 3.000000000000000000, 0.000000000000000000 ) ) ;
#170 = LINE ( 'NONE', #222, #564 ) ;
#171 = CARTESIAN_POINT ( 'NONE',  ( 21.00000000000000000, 3.000000000000000000, 0.000000000000000000 ) ) ;
#172 = COLOUR_RGB ( '',0.9686274509803921573, 0.2588235294117646745, 0.2588235294117646745 ) ;
#173 = VECTOR ( 'NONE', #261, 1000.000000000000000 ) ;
#174 = CARTESIAN_POINT ( 'NONE',  ( -20.00000000000000000, 3.000000000000000000, 1.000000000000146105 ) ) ;
#175 = SURFACE_STYLE_FILL_AREA ( #42 ) ;
#176 = UNCERTAINTY_MEASURE_WITH_UNIT (LENGTH_MEASURE( 1.000000000000000082E-05 ), #471, 'distance_accuracy_value', 'NONE');
#177 = LINE ( 'NONE', #369, #409 ) ;
#178 = DIRECTION ( 'NONE',  ( 0.000000000000000000, 0.000000000000000000, 1.000000000000000000 ) ) ;
#179 =( LENGTH_UNIT ( ) NAMED_UNIT ( * ) SI_UNIT ( .MILLI., .METRE. ) );
#180 = PRESENTATION_LAYER_ASSIGNMENT (  '', '', ( #107 ) ) ;
#181 = AXIS2_PLACEMENT_3D ( 'NONE', #346, #519, #443 ) ;
#182 = LINE ( 'NONE', #378, #444 ) ;
#183 = ORIENTED_EDGE ( 'NONE', *, *, #264, .F. ) ;
#184 = SURFACE_STYLE_FILL_AREA ( #236 ) ;
#185 = ORIENTED_EDGE ( 'NONE', *, *, #395, .T. ) ;
#186 = PRODUCT_DEFINITION_CONTEXT ( 'detailed design', #339, 'design' ) ;
#187 = CARTESIAN_POINT ( 'NONE',  ( -20.00000000000000000, 3.000000000000000000, 1.445578407503147401E-13 ) ) ;
#188 = EDGE_CURVE ( 'NONE', #58, #193, #266, .T. ) ;
#189 = EDGE_LOOP ( 'NONE', ( #27, #24, #332, #567 ) ) ;
#190 = FILL_AREA_STYLE ('',( #431 ) ) ;
#191 = PRESENTATION_LAYER_ASSIGNMENT (  '', '', ( #313 ) ) ;
#192 = DIRECTION ( 'NONE',  ( -1.000000000000000000, 0.000000000000000000, 7.242470512203171197E-15 ) ) ;
#193 = VERTEX_POINT ( 'NONE', #593 ) ;
#194 = UNCERTAINTY_MEASURE_WITH_UNIT (LENGTH_MEASURE( 1.000000000000000082E-05 ), #308, 'distance_accuracy_value', 'NONE');
#195 = MANIFOLD_SOLID_BREP ( 'Cut-Extrude2', #362 ) ;
#196 = DIRECTION ( 'NONE',  ( 0.000000000000000000, 0.000000000000000000, 1.000000000000000000 ) ) ;
#197 =( NAMED_UNIT ( * ) PLANE_ANGLE_UNIT ( ) SI_UNIT ( $, .RADIAN. ) );
#198 = SURFACE_STYLE_USAGE ( .BOTH. , #253 ) ;
#199 = CIRCLE ( 'NONE', #536, 1.000000000000001554 ) ;
#200 = ORIENTED_EDGE ( 'NONE', *, *, #46, .F. ) ;
#201 =( GEOMETRIC_REPRESENTATION_CONTEXT ( 3 ) GLOBAL_UNCERTAINTY_ASSIGNED_CONTEXT ( ( #194 ) ) GLOBAL_UNIT_ASSIGNED_CONTEXT ( ( #308, #399, #482 ) ) REPRESENTATION_CONTEXT ( 'NONE', 'WORKASPACE' ) );
#202 = ORIENTED_EDGE ( 'NONE', *, *, #148, .F. ) ;
#203 = CARTESIAN_POINT ( 'NONE',  ( 1.439820485060749888E-14, 0.000000000000000000, 2.000000000000000000 ) ) ;
#204 = DIRECTION ( 'NONE',  ( 0.000000000000000000, 0.000000000000000000, 1.000000000000000000 ) ) ;
#205 = ORIENTED_EDGE ( 'NONE', *, *, #258, .T. ) ;
#206 = EDGE_CURVE ( 'NONE', #5, #500, #326, .T. ) ;
#207 = SURFACE_STYLE_FILL_AREA ( #78 ) ;
#208 = PRESENTATION_STYLE_ASSIGNMENT (( #26 ) ) ;
#209 = CIRCLE ( 'NONE', #543, 1.000000000000001554 ) ;
#210 = VERTEX_POINT ( 'NONE', #118 ) ;
#211 = CIRCLE ( 'NONE', #81, 1.000000000000001554 ) ;
#212 = APPLICATION_CONTEXT ( 'automotive_design' ) ;
#213 = SURFACE_STYLE_FILL_AREA ( #522 ) ;
#214 =( GEOMETRIC_REPRESENTATION_CONTEXT ( 3 ) GLOBAL_UNCERTAINTY_ASSIGNED_CONTEXT ( ( #54 ) ) GLOBAL_UNIT_ASSIGNED_CONTEXT ( ( #179, #542, #361 ) ) REPRESENTATION_CONTEXT ( 'NONE', 'WORKASPACE' ) );
#215 = CARTESIAN_POINT ( 'NONE',  ( -20.00000000000000000, 0.000000000000000000, 1.445578407503147401E-13 ) ) ;
#216 =( LENGTH_UNIT ( ) NAMED_UNIT ( * ) SI_UNIT ( .MILLI., .METRE. ) );
#217 = CARTESIAN_POINT ( 'NONE',  ( -20.00000000000001066, 0.000000000000000000, -1.999999999999855227 ) ) ;
#218 = DIRECTION ( 'NONE',  ( 0.000000000000000000, 0.000000000000000000, 1.000000000000000000 ) ) ;
#219 = EDGE_CURVE ( 'NONE', #240, #5, #342, .T. ) ;
#220 = PLANE ( 'NONE',  #544 ) ;
#221 = PRESENTATION_LAYER_ASSIGNMENT (  '', '', ( #328 ) ) ;
#222 = CARTESIAN_POINT ( 'NONE',  ( 21.00000000000000000, 3.000000000000000000, 2.000000000000000000 ) ) ;
#223 = VECTOR ( 'NONE', #262, 1000.000000000000000 ) ;
#224 =( GEOMETRIC_REPRESENTATION_CONTEXT ( 3 ) GLOBAL_UNCERTAINTY_ASSIGNED_CONTEXT ( ( #509 ) ) GLOBAL_UNIT_ASSIGNED_CONTEXT ( ( #350, #533, #402 ) ) REPRESENTATION_CONTEXT ( 'NONE', 'WORKASPACE' ) );
#225 = SURFACE_STYLE_FILL_AREA ( #270 ) ;
#226 = DIRECTION ( 'NONE',  ( 1.000000000000000000, 0.000000000000000000, -7.242470512203171197E-15 ) ) ;
#227 = DIRECTION ( 'NONE',  ( 0.000000000000000000, 0.000000000000000000, 1.000000000000000000 ) ) ;
#228 = DIRECTION ( 'NONE',  ( 0.000000000000000000, 1.000000000000000000, -0.000000000000000000 ) ) ;
#229 =( LENGTH_UNIT ( ) NAMED_UNIT ( * ) SI_UNIT ( .MILLI., .METRE. ) );
#230 = ORIENTED_EDGE ( 'NONE', *, *, #133, .F. ) ;
#231 = MECHANICAL_DESIGN_GEOMETRIC_PRESENTATION_REPRESENTATION (  '', ( #487 ), #96 ) ;
#232 = MECHANICAL_DESIGN_GEOMETRIC_PRESENTATION_REPRESENTATION (  '', ( #488 ), #224 ) ;
#233 = SURFACE_STYLE_USAGE ( .BOTH. , #499 ) ;
#234 = EDGE_LOOP ( 'NONE', ( #524, #504, #9, #143 ) ) ;
#235 = EDGE_CURVE ( 'NONE', #423, #548, #478, .T. ) ;
#236 = FILL_AREA_STYLE ('',( #408 ) ) ;
#237 = ORIENTED_EDGE ( 'NONE', *, *, #300, .F. ) ;
#238 = CARTESIAN_POINT ( 'NONE',  ( 21.00000000000000000, 0.000000000000000000, 1.000000000000001554 ) ) ;
#239 = EDGE_CURVE ( 'NONE', #263, #291, #89, .T. ) ;
#240 = VERTEX_POINT ( 'NONE', #15 ) ;
#241 = STYLED_ITEM ( 'NONE', ( #101 ), #155 ) ;
#242 = VECTOR ( 'NONE', #34, 1000.000000000000000 ) ;
#243 = CARTESIAN_POINT ( 'NONE',  ( -19.99999999999998579, 0.000000000000000000, 2.000000000000143885 ) ) ;
#244 = ORIENTED_EDGE ( 'NONE', *, *, #235, .T. ) ;
#245 = LINE ( 'NONE', #416, #294 ) ;
#246 = UNCERTAINTY_MEASURE_WITH_UNIT (LENGTH_MEASURE( 1.000000000000000082E-05 ), #167, 'distance_accuracy_value', 'NONE');
#247 = DIRECTION ( 'NONE',  ( -1.000000000000000000, 0.000000000000000000, 7.199102425303749442E-15 ) ) ;
#248 =( NAMED_UNIT ( * ) PLANE_ANGLE_UNIT ( ) SI_UNIT ( $, .RADIAN. ) );
#249 = DIRECTION ( 'NONE',  ( 0.000000000000000000, 0.000000000000000000, 1.000000000000000000 ) ) ;
#250 = CARTESIAN_POINT ( 'NONE',  ( 1.439820485060749888E-14, 3.000000000000000000, 2.000000000000000000 ) ) ;
#251 = FACE_OUTER_BOUND ( 'NONE', #189, .T. ) ;
#252 = AXIS2_PLACEMENT_3D ( 'NONE', #169, #33, #401 ) ;
#253 = SURFACE_SIDE_STYLE ('',( #65 ) ) ;
#254 = AXIS2_PLACEMENT_3D ( 'NONE', #403, #484, #168 ) ;
#255 = AXIS2_PLACEMENT_3D ( 'NONE', #215, #363, #218 ) ;
#256 = ORIENTED_EDGE ( 'NONE', *, *, #188, .F. ) ;
#257 = AXIS2_PLACEMENT_3D ( 'NONE', #525, #122, #305 ) ;
#258 = EDGE_CURVE ( 'NONE', #518, #548, #470, .T. ) ;
#259 = DIRECTION ( 'NONE',  ( -0.000000000000000000, 1.000000000000000000, -0.000000000000000000 ) ) ;
#260 = VERTEX_POINT ( 'NONE', #298 ) ;
#261 = DIRECTION ( 'NONE',  ( -1.000000000000000000, 0.000000000000000000, 7.199102425303749442E-15 ) ) ;
#262 = DIRECTION ( 'NONE',  ( -0.000000000000000000, -1.000000000000000000, -0.000000000000000000 ) ) ;
#263 = VERTEX_POINT ( 'NONE', #124 ) ;
#264 = EDGE_CURVE ( 'NONE', #291, #263, #211, .T. ) ;
#265 = CYLINDRICAL_SURFACE ( 'NONE', #255, 1.000000000000001554 ) ;
#266 = CIRCLE ( 'NONE', #30, 1.000000000000001554 ) ;
#267 = CARTESIAN_POINT ( 'NONE',  ( 21.00000000000000000, 0.000000000000000000, 0.000000000000000000 ) ) ;
#268 = FACE_BOUND ( 'NONE', #498, .T. ) ;
#269 = CARTESIAN_POINT ( 'NONE',  ( 5.000000000000000888, 0.000000000000000000, 0.000000000000000000 ) ) ;
#270 = FILL_AREA_STYLE ('',( #491 ) ) ;
#271 = FILL_AREA_STYLE ('',( #587 ) ) ;
#272 = DIRECTION ( 'NONE',  ( 1.000000000000000000, 0.000000000000000000, 0.000000000000000000 ) ) ;
#273 =( GEOMETRIC_REPRESENTATION_CONTEXT ( 3 ) GLOBAL_UNCERTAINTY_ASSIGNED_CONTEXT ( ( #277 ) ) GLOBAL_UNIT_ASSIGNED_CONTEXT ( ( #229, #57, #371 ) ) REPRESENTATION_CONTEXT ( 'NONE', 'WORKASPACE' ) );
#274 = VECTOR ( 'NONE', #577, 1000.000000000000000 ) ;
#275 = MECHANICAL_DESIGN_GEOMETRIC_PRESENTATION_REPRESENTATION (  '', ( #365 ), #201 ) ;
#276 =( NAMED_UNIT ( * ) SI_UNIT ( $, .STERADIAN. ) SOLID_ANGLE_UNIT ( ) );
#277 = UNCERTAINTY_MEASURE_WITH_UNIT (LENGTH_MEASURE( 1.000000000000000082E-05 ), #229, 'distance_accuracy_value', 'NONE');
#278 = SURFACE_STYLE_FILL_AREA ( #190 ) ;
#279 = SURFACE_STYLE_USAGE ( .BOTH. , #55 ) ;
#280 = ORIENTED_EDGE ( 'NONE', *, *, #19, .F. ) ;
#281 = DIRECTION ( 'NONE',  ( -0.000000000000000000, 1.000000000000000000, -0.000000000000000000 ) ) ;
#282 = ORIENTED_EDGE ( 'NONE', *, *, #526, .F. ) ;
#283 = MECHANICAL_DESIGN_GEOMETRIC_PRESENTATION_REPRESENTATION (  '', ( #502 ), #292 ) ;
#284 = COLOUR_RGB ( '',0.9686274509803921573, 0.2588235294117646745, 0.2588235294117646745 ) ;
#285 = PRESENTATION_STYLE_ASSIGNMENT (( #233 ) ) ;
#286 = EDGE_CURVE ( 'NONE', #461, #500, #31, .T. ) ;
#287 = ORIENTED_EDGE ( 'NONE', *, *, #530, .T. ) ;
#288 = CARTESIAN_POINT ( 'NONE',  ( 0.000000000000000000, 0.000000000000000000, 0.000000000000000000 ) ) ;
#289 = ORIENTED_EDGE ( 'NONE', *, *, #286, .F. ) ;
#290 = DIRECTION ( 'NONE',  ( 0.000000000000000000, 1.000000000000000000, -0.000000000000000000 ) ) ;
#291 = VERTEX_POINT ( 'NONE', #435 ) ;
#292 =( GEOMETRIC_REPRESENTATION_CONTEXT ( 3 ) GLOBAL_UNCERTAINTY_ASSIGNED_CONTEXT ( ( #517 ) ) GLOBAL_UNIT_ASSIGNED_CONTEXT ( ( #159, #248, #562 ) ) REPRESENTATION_CONTEXT ( 'NONE', 'WORKASPACE' ) );
#293 = COLOUR_RGB ( '',0.9686274509803921573, 0.2588235294117646745, 0.2588235294117646745 ) ;
#294 = VECTOR ( 'NONE', #508, 1000.000000000000000 ) ;
#295 = CARTESIAN_POINT ( 'NONE',  ( 1.439820485060749888E-14, 3.000000000000000000, 2.000000000000000000 ) ) ;
#296 = PLANE ( 'NONE',  #48 ) ;
#297 = PRESENTATION_STYLE_ASSIGNMENT (( #566 ) ) ;
#298 = CARTESIAN_POINT ( 'NONE',  ( 21.00000000000000000, 0.000000000000000000, -1.000000000000001554 ) ) ;
#299 = CARTESIAN_POINT ( 'NONE',  ( 0.000000000000000000, 3.000000000000000000, 0.000000000000000000 ) ) ;
#300 = EDGE_CURVE ( 'NONE', #240, #154, #306, .T. ) ;
#301 = CARTESIAN_POINT ( 'NONE',  ( 5.000000000000000888, 0.000000000000000000, 1.000000000000001554 ) ) ;
#302 = STYLED_ITEM ( 'NONE', ( #441 ), #376 ) ;
#303 =( GEOMETRIC_REPRESENTATION_CONTEXT ( 3 ) GLOBAL_UNCERTAINTY_ASSIGNED_CONTEXT ( ( #582 ) ) GLOBAL_UNIT_ASSIGNED_CONTEXT ( ( #216, #40, #35 ) ) REPRESENTATION_CONTEXT ( 'NONE', 'WORKASPACE' ) );
#304 = VERTEX_POINT ( 'NONE', #243 ) ;
#305 = DIRECTION ( 'NONE',  ( 0.000000000000000000, 0.000000000000000000, -1.000000000000000000 ) ) ;
#306 = LINE ( 'NONE', #295, #158 ) ;
#307 = FACE_OUTER_BOUND ( 'NONE', #142, .T. ) ;
#308 =( LENGTH_UNIT ( ) NAMED_UNIT ( * ) SI_UNIT ( .MILLI., .METRE. ) );
#309 = DIRECTION ( 'NONE',  ( -0.000000000000000000, 1.000000000000000000, -0.000000000000000000 ) ) ;
#310 = ADVANCED_FACE ( 'NONE', ( #389 ), #427, .T. ) ;
#311 = DIRECTION ( 'NONE',  ( 0.000000000000000000, 0.000000000000000000, 1.000000000000000000 ) ) ;
#312 = PRESENTATION_LAYER_ASSIGNMENT (  '', '', ( #424 ) ) ;
#313 = STYLED_ITEM ( 'NONE', ( #285 ), #195 ) ;
#314 = CYLINDRICAL_SURFACE ( 'NONE', #252, 2.000000000000000000 ) ;
#315 = PRESENTATION_LAYER_ASSIGNMENT (  '', '', ( #488 ) ) ;
#316 = CARTESIAN_POINT ( 'NONE',  ( -1.448494102440634239E-14, 3.000000000000000000, -2.000000000000000000 ) ) ;
#317 = DIRECTION ( 'NONE',  ( 0.000000000000000000, 0.000000000000000000, 1.000000000000000000 ) ) ;
#318 = DIRECTION ( 'NONE',  ( 0.000000000000000000, 0.000000000000000000, 1.000000000000000000 ) ) ;
#319 = EDGE_CURVE ( 'NONE', #548, #518, #503, .T. ) ;
#320 = DIRECTION ( 'NONE',  ( -1.000000000000000000, 0.000000000000000000, 7.242470512203171197E-15 ) ) ;
#321 = FACE_OUTER_BOUND ( 'NONE', #481, .T. ) ;
#322 = MECHANICAL_DESIGN_GEOMETRIC_PRESENTATION_REPRESENTATION (  '', ( #313 ), #591 ) ;
#323 = CARTESIAN_POINT ( 'NONE',  ( 21.00000000000000000, 0.000000000000000000, 0.000000000000000000 ) ) ;
#324 = DIRECTION ( 'NONE',  ( 0.000000000000000000, 0.000000000000000000, 1.000000000000000000 ) ) ;
#325 = EDGE_LOOP ( 'NONE', ( #352, #287 ) ) ;
#326 = LINE ( 'NONE', #20, #61 ) ;
#327 = ORIENTED_EDGE ( 'NONE', *, *, #239, .F. ) ;
#328 = STYLED_ITEM ( 'NONE', ( #91 ), #103 ) ;
#329 = PRESENTATION_LAYER_ASSIGNMENT (  '', '', ( #241 ) ) ;
#330 = AXIS2_PLACEMENT_3D ( 'NONE', #127, #366, #317 ) ;
#331 = SURFACE_SIDE_STYLE ('',( #184 ) ) ;
#332 = ORIENTED_EDGE ( 'NONE', *, *, #406, .F. ) ;
#333 = SURFACE_STYLE_FILL_AREA ( #112 ) ;
#334 = LINE ( 'NONE', #238, #418 ) ;
#335 = EDGE_LOOP ( 'NONE', ( #390, #4 ) ) ;
#336 = CYLINDRICAL_SURFACE ( 'NONE', #146, 1.000000000000001554 ) ;
#337 = UNCERTAINTY_MEASURE_WITH_UNIT (LENGTH_MEASURE( 1.000000000000000082E-05 ), #557, 'distance_accuracy_value', 'NONE');
#338 = DIRECTION ( 'NONE',  ( 0.000000000000000000, 0.000000000000000000, 1.000000000000000000 ) ) ;
#339 = APPLICATION_CONTEXT ( 'automotive_design' ) ;
#340 = ORIENTED_EDGE ( 'NONE', *, *, #588, .T. ) ;
#341 = CARTESIAN_POINT ( 'NONE',  ( -20.00000000000000000, 0.000000000000000000, -0.9999999999998568923 ) ) ;
#342 = CIRCLE ( 'NONE', #138, 2.000000000000000000 ) ;
#343 = MECHANICAL_DESIGN_GEOMETRIC_PRESENTATION_REPRESENTATION (  '', ( #554 ), #516 ) ;
#344 = DIRECTION ( 'NONE',  ( 0.000000000000000000, 1.000000000000000000, -0.000000000000000000 ) ) ;
#345 = ORIENTED_EDGE ( 'NONE', *, *, #512, .F. ) ;
#346 = CARTESIAN_POINT ( 'NONE',  ( 5.000000000000000888, 0.000000000000000000, 0.000000000000000000 ) ) ;
#347 = CARTESIAN_POINT ( 'NONE',  ( 21.00000000000000000, 3.000000000000000000, 0.000000000000000000 ) ) ;
#348 = ORIENTED_EDGE ( 'NONE', *, *, #394, .F. ) ;
#349 = EDGE_CURVE ( 'NONE', #500, #100, #584, .T. ) ;
#350 =( LENGTH_UNIT ( ) NAMED_UNIT ( * ) SI_UNIT ( .MILLI., .METRE. ) );
#351 = DIRECTION ( 'NONE',  ( -0.000000000000000000, -1.000000000000000000, -0.000000000000000000 ) ) ;
#352 = ORIENTED_EDGE ( 'NONE', *, *, #19, .T. ) ;
#353 = COLOUR_RGB ( '',0.9686274509803921573, 0.2588235294117646745, 0.2588235294117646745 ) ;
#354 = COLOUR_RGB ( '',0.9686274509803921573, 0.2588235294117646745, 0.2588235294117646745 ) ;
#355 = SURFACE_SIDE_STYLE ('',( #520 ) ) ;
#356 = AXIS2_PLACEMENT_3D ( 'NONE', #590, #227, #272 ) ;
#357 = EDGE_CURVE ( 'NONE', #467, #393, #583, .T. ) ;
#358 = CYLINDRICAL_SURFACE ( 'NONE', #581, 1.000000000000001554 ) ;
#359 = SURFACE_SIDE_STYLE ('',( #207 ) ) ;
#360 = SURFACE_SIDE_STYLE ('',( #134 ) ) ;
#361 =( NAMED_UNIT ( * ) SI_UNIT ( $, .STERADIAN. ) SOLID_ANGLE_UNIT ( ) );
#362 = CLOSED_SHELL ( 'NONE', ( #376, #483, #462, #41, #586, #310, #43, #550, #103, #86, #422, #155 ) ) ;
#363 = DIRECTION ( 'NONE',  ( -0.000000000000000000, 1.000000000000000000, -0.000000000000000000 ) ) ;
#364 = FACE_BOUND ( 'NONE', #458, .T. ) ;
#365 = STYLED_ITEM ( 'NONE', ( #25 ), #586 ) ;
#366 = DIRECTION ( 'NONE',  ( 0.000000000000000000, 1.000000000000000000, -0.000000000000000000 ) ) ;
#367 = CARTESIAN_POINT ( 'NONE',  ( 21.00000000000000000, 3.000000000000000000, 1.000000000000001554 ) ) ;
#368 = EDGE_CURVE ( 'NONE', #154, #304, #445, .T. ) ;
#369 = CARTESIAN_POINT ( 'NONE',  ( 5.000000000000000888, 0.000000000000000000, -1.000000000000001554 ) ) ;
#370 = PRESENTATION_STYLE_ASSIGNMENT (( #84 ) ) ;
#371 =( NAMED_UNIT ( * ) SI_UNIT ( $, .STERADIAN. ) SOLID_ANGLE_UNIT ( ) );
#372 = AXIS2_PLACEMENT_3D ( 'NONE', #161, #113, #163 ) ;
#373 = AXIS2_PLACEMENT_3D ( 'NONE', #73, #438, #23 ) ;
#374 =( GEOMETRIC_REPRESENTATION_CONTEXT ( 3 ) GLOBAL_UNCERTAINTY_ASSIGNED_CONTEXT ( ( #549 ) ) GLOBAL_UNIT_ASSIGNED_CONTEXT ( ( #11, #139, #469 ) ) REPRESENTATION_CONTEXT ( 'NONE', 'WORKASPACE' ) );
#375 = SURFACE_STYLE_USAGE ( .BOTH. , #331 ) ;
#376 = ADVANCED_FACE ( 'NONE', ( #32 ), #265, .F. ) ;
#377 = EDGE_LOOP ( 'NONE', ( #345, #327, #125, #464 ) ) ;
#378 = CARTESIAN_POINT ( 'NONE',  ( -1.448494102440634239E-14, 3.000000000000000000, -2.000000000000000000 ) ) ;
#379 = ORIENTED_EDGE ( 'NONE', *, *, #319, .T. ) ;
#380 = SURFACE_SIDE_STYLE ('',( #278 ) ) ;
#381 = CIRCLE ( 'NONE', #330, 1.999999999999999556 ) ;
#382 = EDGE_LOOP ( 'NONE', ( #436, #421, #237, #565 ) ) ;
#383 = DIRECTION ( 'NONE',  ( 0.000000000000000000, 0.000000000000000000, 1.000000000000000000 ) ) ;
#384 = DIRECTION ( 'NONE',  ( 0.000000000000000000, 1.000000000000000000, -0.000000000000000000 ) ) ;
#385 = ORIENTED_EDGE ( 'NONE', *, *, #588, .F. ) ;
#386 = DIRECTION ( 'NONE',  ( -0.000000000000000000, 1.000000000000000000, -0.000000000000000000 ) ) ;
#387 =( NAMED_UNIT ( * ) SI_UNIT ( $, .STERADIAN. ) SOLID_ANGLE_UNIT ( ) );
#388 = DIRECTION ( 'NONE',  ( 0.000000000000000000, 0.000000000000000000, 1.000000000000000000 ) ) ;
#389 = FACE_OUTER_BOUND ( 'NONE', #16, .T. ) ;
#390 = ORIENTED_EDGE ( 'NONE', *, *, #319, .F. ) ;
#391 = LINE ( 'NONE', #203, #173 ) ;
#392 =( LENGTH_UNIT ( ) NAMED_UNIT ( * ) SI_UNIT ( .MILLI., .METRE. ) );
#393 = VERTEX_POINT ( 'NONE', #174 ) ;
#394 = EDGE_CURVE ( 'NONE', #210, #518, #177, .T. ) ;
#395 = EDGE_CURVE ( 'NONE', #260, #193, #541, .T. ) ;
#396 = EDGE_LOOP ( 'NONE', ( #560, #433, #13, #340 ) ) ;
#397 = DIRECTION ( 'NONE',  ( -0.000000000000000000, -1.000000000000000000, -0.000000000000000000 ) ) ;
#398 = ORIENTED_EDGE ( 'NONE', *, *, #530, .F. ) ;
#399 =( NAMED_UNIT ( * ) PLANE_ANGLE_UNIT ( ) SI_UNIT ( $, .RADIAN. ) );
#400 =( NAMED_UNIT ( * ) PLANE_ANGLE_UNIT ( ) SI_UNIT ( $, .RADIAN. ) );
#401 = DIRECTION ( 'NONE',  ( 0.000000000000000000, 0.000000000000000000, -1.000000000000000000 ) ) ;
#402 =( NAMED_UNIT ( * ) SI_UNIT ( $, .STERADIAN. ) SOLID_ANGLE_UNIT ( ) );
#403 = CARTESIAN_POINT ( 'NONE',  ( 5.000000000000000888, 3.000000000000000000, 0.000000000000000000 ) ) ;
#404 = FACE_BOUND ( 'NONE', #56, .T. ) ;
#405 = DIRECTION ( 'NONE',  ( 0.000000000000000000, 1.000000000000000000, -0.000000000000000000 ) ) ;
#406 = EDGE_CURVE ( 'NONE', #476, #154, #381, .T. ) ;
#407 = AXIS2_PLACEMENT_3D ( 'NONE', #14, #384, #338 ) ;
#408 = FILL_AREA_STYLE_COLOUR ( '', #172 ) ;
#409 = VECTOR ( 'NONE', #83, 1000.000000000000000 ) ;
#410 = PRODUCT_DEFINITION_FORMATION_WITH_SPECIFIED_SOURCE ( 'Symmetric', '', #97, .NOT_KNOWN. ) ;
#411 = SURFACE_SIDE_STYLE ('',( #225 ) ) ;
#412 =( LENGTH_UNIT ( ) NAMED_UNIT ( * ) SI_UNIT ( .MILLI., .METRE. ) );
#413 = CYLINDRICAL_SURFACE ( 'NONE', #111, 1.000000000000001554 ) ;
#414 = DIRECTION ( 'NONE',  ( 0.000000000000000000, 1.000000000000000000, -0.000000000000000000 ) ) ;
#415 = SHAPE_DEFINITION_REPRESENTATION ( #521, #53 ) ;
#416 = CARTESIAN_POINT ( 'NONE',  ( -20.00000000000000000, 0.000000000000000000, 1.000000000000146105 ) ) ;
#417 = MECHANICAL_DESIGN_GEOMETRIC_PRESENTATION_REPRESENTATION (  '', ( #107 ), #157 ) ;
#418 = VECTOR ( 'NONE', #281, 1000.000000000000000 ) ;
#419 = ORIENTED_EDGE ( 'NONE', *, *, #480, .F. ) ;
#420 = COLOUR_RGB ( '',0.9686274509803921573, 0.2588235294117646745, 0.2588235294117646745 ) ;
#421 = ORIENTED_EDGE ( 'NONE', *, *, #406, .T. ) ;
#422 = ADVANCED_FACE ( 'NONE', ( #489 ), #136, .F. ) ;
#423 = VERTEX_POINT ( 'NONE', #106 ) ;
#424 = STYLED_ITEM ( 'NONE', ( #85 ), #43 ) ;
#425 =( NAMED_UNIT ( * ) PLANE_ANGLE_UNIT ( ) SI_UNIT ( $, .RADIAN. ) );
#426 = PRODUCT_RELATED_PRODUCT_CATEGORY ( 'part', '', ( #97 ) ) ;
#427 = PLANE ( 'NONE',  #434 ) ;
#428 = ORIENTED_EDGE ( 'NONE', *, *, #206, .T. ) ;
#429 = CARTESIAN_POINT ( 'NONE',  ( -20.00000000000000000, 3.000000000000000000, -0.9999999999998568923 ) ) ;
#430 = EDGE_LOOP ( 'NONE', ( #556, #289, #529, #120 ) ) ;
#431 = FILL_AREA_STYLE_COLOUR ( '', #18 ) ;
#432 = DIRECTION ( 'NONE',  ( 7.199102425303749442E-15, -0.000000000000000000, 1.000000000000000000 ) ) ;
#433 = ORIENTED_EDGE ( 'NONE', *, *, #206, .F. ) ;
#434 = AXIS2_PLACEMENT_3D ( 'NONE', #250, #432, #475 ) ;
#435 = CARTESIAN_POINT ( 'NONE',  ( -20.00000000000000000, 0.000000000000000000, -0.9999999999998568923 ) ) ;
#436 = ORIENTED_EDGE ( 'NONE', *, *, #150, .T. ) ;
#437 = DIRECTION ( 'NONE',  ( 0.000000000000000000, 0.000000000000000000, 1.000000000000000000 ) ) ;
#438 = DIRECTION ( 'NONE',  ( 0.000000000000000000, 1.000000000000000000, 0.000000000000000000 ) ) ;
#439 = ORIENTED_EDGE ( 'NONE', *, *, #239, .T. ) ;
#440 = FACE_BOUND ( 'NONE', #335, .T. ) ;
#441 = PRESENTATION_STYLE_ASSIGNMENT (( #37 ) ) ;
#442 = EDGE_LOOP ( 'NONE', ( #183, #52, #105, #419 ) ) ;
#443 = DIRECTION ( 'NONE',  ( 0.000000000000000000, 0.000000000000000000, 1.000000000000000000 ) ) ;
#444 = VECTOR ( 'NONE', #192, 1000.000000000000000 ) ;
#445 = LINE ( 'NONE', #76, #223 ) ;
#446 = AXIS2_PLACEMENT_3D ( 'NONE', #45, #228, #383 ) ;
#447 = LINE ( 'NONE', #75, #82 ) ;
#448 = CARTESIAN_POINT ( 'NONE',  ( -1.448494102440634239E-14, 0.000000000000000000, -2.000000000000000000 ) ) ;
#449 = UNCERTAINTY_MEASURE_WITH_UNIT (LENGTH_MEASURE( 1.000000000000000082E-05 ), #463, 'distance_accuracy_value', 'NONE');
#450 = CARTESIAN_POINT ( 'NONE',  ( 21.00000000000000000, 0.000000000000000000, -1.000000000000001554 ) ) ;
#451 =( NAMED_UNIT ( * ) SI_UNIT ( $, .STERADIAN. ) SOLID_ANGLE_UNIT ( ) );
#452 = SURFACE_SIDE_STYLE ('',( #539 ) ) ;
#453 = MECHANICAL_DESIGN_GEOMETRIC_PRESENTATION_REPRESENTATION (  '', ( #140 ), #63 ) ;
#454 = CARTESIAN_POINT ( 'NONE',  ( 21.00000000000000000, 0.000000000000000000, 1.000000000000001554 ) ) ;
#455 = CARTESIAN_POINT ( 'NONE',  ( 21.00000000000000000, 0.000000000000000000, -2.000000000000000000 ) ) ;
#456 = ORIENTED_EDGE ( 'NONE', *, *, #532, .F. ) ;
#457 = CARTESIAN_POINT ( 'NONE',  ( -20.00000000000000000, 0.000000000000000000, 1.445578407503147401E-13 ) ) ;
#458 = EDGE_LOOP ( 'NONE', ( #511, #95 ) ) ;
#459 = AXIS2_PLACEMENT_3D ( 'NONE', #299, #29, #311 ) ;
#460 = DIRECTION ( 'NONE',  ( 0.000000000000000000, 1.000000000000000000, -0.000000000000000000 ) ) ;
#461 = VERTEX_POINT ( 'NONE', #6 ) ;
#462 = ADVANCED_FACE ( 'NONE', ( #472 ), #336, .F. ) ;
#463 =( LENGTH_UNIT ( ) NAMED_UNIT ( * ) SI_UNIT ( .MILLI., .METRE. ) );
#464 = ORIENTED_EDGE ( 'NONE', *, *, #148, .T. ) ;
#465 = LINE ( 'NONE', #341, #242 ) ;
#466 =( NAMED_UNIT ( * ) PLANE_ANGLE_UNIT ( ) SI_UNIT ( $, .RADIAN. ) );
#467 = VERTEX_POINT ( 'NONE', #429 ) ;
#468 = AXIS2_PLACEMENT_3D ( 'NONE', #571, #164, #388 ) ;
#469 =( NAMED_UNIT ( * ) SI_UNIT ( $, .STERADIAN. ) SOLID_ANGLE_UNIT ( ) );
#470 = CIRCLE ( 'NONE', #407, 1.000000000000001554 ) ;
#471 =( LENGTH_UNIT ( ) NAMED_UNIT ( * ) SI_UNIT ( .MILLI., .METRE. ) );
#472 = FACE_OUTER_BOUND ( 'NONE', #162, .T. ) ;
#473 = ORIENTED_EDGE ( 'NONE', *, *, #568, .F. ) ;
#474 = PLANE ( 'NONE',  #459 ) ;
#475 = DIRECTION ( 'NONE',  ( 1.000000000000000000, 0.000000000000000000, -7.199102425303749442E-15 ) ) ;
#476 = VERTEX_POINT ( 'NONE', #563 ) ;
#477 = AXIS2_PLACEMENT_3D ( 'NONE', #131, #405, #580 ) ;
#478 = LINE ( 'NONE', #301, #527 ) ;
#479 = VERTEX_POINT ( 'NONE', #454 ) ;
#480 = EDGE_CURVE ( 'NONE', #263, #393, #245, .T. ) ;
#481 = EDGE_LOOP ( 'NONE', ( #348, #280, #244, #379 ) ) ;
#482 =( NAMED_UNIT ( * ) SI_UNIT ( $, .STERADIAN. ) SOLID_ANGLE_UNIT ( ) );
#483 = ADVANCED_FACE ( 'NONE', ( #160 ), #413, .F. ) ;
#484 = DIRECTION ( 'NONE',  ( 0.000000000000000000, 1.000000000000000000, -0.000000000000000000 ) ) ;
#485 = FILL_AREA_STYLE_COLOUR ( '', #119 ) ;
#486 = SURFACE_STYLE_USAGE ( .BOTH. , #80 ) ;
#487 = STYLED_ITEM ( 'NONE', ( #153 ), #310 ) ;
#488 = STYLED_ITEM ( 'NONE', ( #297 ), #550 ) ;
#489 = FACE_OUTER_BOUND ( 'NONE', #234, .T. ) ;
#490 = SURFACE_SIDE_STYLE ('',( #175 ) ) ;
#491 = FILL_AREA_STYLE_COLOUR ( '', #528 ) ;
#492 = DIRECTION ( 'NONE',  ( 0.000000000000000000, 1.000000000000000000, 0.000000000000000000 ) ) ;
#493 = PRESENTATION_STYLE_ASSIGNMENT (( #149 ) ) ;
#494 =( GEOMETRIC_REPRESENTATION_CONTEXT ( 3 ) GLOBAL_UNCERTAINTY_ASSIGNED_CONTEXT ( ( #496 ) ) GLOBAL_UNIT_ASSIGNED_CONTEXT ( ( #412, #578, #276 ) ) REPRESENTATION_CONTEXT ( 'NONE', 'WORKASPACE' ) );
#495 = MECHANICAL_DESIGN_GEOMETRIC_PRESENTATION_REPRESENTATION (  '', ( #241 ), #573 ) ;
#496 = UNCERTAINTY_MEASURE_WITH_UNIT (LENGTH_MEASURE( 1.000000000000000082E-05 ), #412, 'distance_accuracy_value', 'NONE');
#497 = SURFACE_SIDE_STYLE ('',( #333 ) ) ;
#498 = EDGE_LOOP ( 'NONE', ( #256, #200 ) ) ;
#499 = SURFACE_SIDE_STYLE ('',( #99 ) ) ;
#500 = VERTEX_POINT ( 'NONE', #455 ) ;
#501 = CIRCLE ( 'NONE', #468, 1.000000000000001554 ) ;
#502 = STYLED_ITEM ( 'NONE', ( #117 ), #41 ) ;
#503 = CIRCLE ( 'NONE', #254, 1.000000000000001554 ) ;
#504 = ORIENTED_EDGE ( 'NONE', *, *, #72, .F. ) ;
#505 = EDGE_CURVE ( 'NONE', #100, #304, #166, .T. ) ;
#506 = FILL_AREA_STYLE_COLOUR ( '', #165 ) ;
#507 = EDGE_LOOP ( 'NONE', ( #473, #185, #67, #230 ) ) ;
#508 = DIRECTION ( 'NONE',  ( -0.000000000000000000, 1.000000000000000000, -0.000000000000000000 ) ) ;
#509 = UNCERTAINTY_MEASURE_WITH_UNIT (LENGTH_MEASURE( 1.000000000000000082E-05 ), #350, 'distance_accuracy_value', 'NONE');
#510 = CARTESIAN_POINT ( 'NONE',  ( -19.99999999999998579, 3.000000000000000000, 2.000000000000143885 ) ) ;
#511 = ORIENTED_EDGE ( 'NONE', *, *, #72, .T. ) ;
#512 = EDGE_CURVE ( 'NONE', #291, #467, #465, .T. ) ;
#513 = PRESENTATION_STYLE_ASSIGNMENT (( #152 ) ) ;
#514 = DIRECTION ( 'NONE',  ( 0.000000000000000000, 0.000000000000000000, 1.000000000000000000 ) ) ;
#515 = CARTESIAN_POINT ( 'NONE',  ( 21.00000000000000000, 3.000000000000000000, -2.000000000000000000 ) ) ;
#516 =( GEOMETRIC_REPRESENTATION_CONTEXT ( 3 ) GLOBAL_UNCERTAINTY_ASSIGNED_CONTEXT ( ( #337 ) ) GLOBAL_UNIT_ASSIGNED_CONTEXT ( ( #557, #425, #156 ) ) REPRESENTATION_CONTEXT ( 'NONE', 'WORKASPACE' ) );
#517 = UNCERTAINTY_MEASURE_WITH_UNIT (LENGTH_MEASURE( 1.000000000000000082E-05 ), #159, 'distance_accuracy_value', 'NONE');
#518 = VERTEX_POINT ( 'NONE', #579 ) ;
#519 = DIRECTION ( 'NONE',  ( 0.000000000000000000, 1.000000000000000000, 0.000000000000000000 ) ) ;
#520 = SURFACE_STYLE_FILL_AREA ( #114 ) ;
#521 = PRODUCT_DEFINITION_SHAPE ( 'NONE', 'NONE',  #94 ) ;
#522 = FILL_AREA_STYLE ('',( #569 ) ) ;
#523 =( NAMED_UNIT ( * ) SI_UNIT ( $, .STERADIAN. ) SOLID_ANGLE_UNIT ( ) );
#524 = ORIENTED_EDGE ( 'NONE', *, *, #395, .F. ) ;
#525 = CARTESIAN_POINT ( 'NONE',  ( -20.00000000000000000, 3.000000000000000000, 1.445578407503147401E-13 ) ) ;
#526 = EDGE_CURVE ( 'NONE', #461, #304, #391, .T. ) ;
#527 = VECTOR ( 'NONE', #259, 1000.000000000000000 ) ;
#528 = COLOUR_RGB ( '',0.9686274509803921573, 0.2588235294117646745, 0.2588235294117646745 ) ;
#529 = ORIENTED_EDGE ( 'NONE', *, *, #526, .T. ) ;
#530 = EDGE_CURVE ( 'NONE', #210, #423, #50, .T. ) ;
#531 = CARTESIAN_POINT ( 'NONE',  ( 21.00000000000000000, 0.000000000000000000, 0.000000000000000000 ) ) ;
#532 = EDGE_CURVE ( 'NONE', #476, #100, #447, .T. ) ;
#533 =( NAMED_UNIT ( * ) PLANE_ANGLE_UNIT ( ) SI_UNIT ( $, .RADIAN. ) );
#534 = FACE_OUTER_BOUND ( 'NONE', #396, .T. ) ;
#535 = COLOUR_RGB ( '',0.9686274509803921573, 0.2588235294117646745, 0.2588235294117646745 ) ;
#536 = AXIS2_PLACEMENT_3D ( 'NONE', #531, #22, #437 ) ;
#537 = FACE_BOUND ( 'NONE', #325, .T. ) ;
#538 = DIRECTION ( 'NONE',  ( -0.000000000000000000, -1.000000000000000000, -0.000000000000000000 ) ) ;
#539 = SURFACE_STYLE_FILL_AREA ( #271 ) ;
#540 = APPLICATION_PROTOCOL_DEFINITION ( 'draft international standard', 'automotive_design', 1998, #212 ) ;
#541 = LINE ( 'NONE', #450, #274 ) ;
#542 =( NAMED_UNIT ( * ) PLANE_ANGLE_UNIT ( ) SI_UNIT ( $, .RADIAN. ) );
#543 = AXIS2_PLACEMENT_3D ( 'NONE', #267, #492, #88 ) ;
#544 = AXIS2_PLACEMENT_3D ( 'NONE', #288, #460, #47 ) ;
#545 = FILL_AREA_STYLE_COLOUR ( '', #354 ) ;
#546 = FILL_AREA_STYLE ('',( #545 ) ) ;
#547 = DIRECTION ( 'NONE',  ( 0.000000000000000000, 0.000000000000000000, 1.000000000000000000 ) ) ;
#548 = VERTEX_POINT ( 'NONE', #17 ) ;
#549 = UNCERTAINTY_MEASURE_WITH_UNIT (LENGTH_MEASURE( 1.000000000000000082E-05 ), #11, 'distance_accuracy_value', 'NONE');
#550 = ADVANCED_FACE ( 'NONE', ( #115, #268, #440, #576 ), #474, .T. ) ;
#551 = MECHANICAL_DESIGN_GEOMETRIC_PRESENTATION_REPRESENTATION (  '', ( #424 ), #494 ) ;
#552 = COLOUR_RGB ( '',0.9686274509803921573, 0.2588235294117646745, 0.2588235294117646745 ) ;
#553 = EDGE_LOOP ( 'NONE', ( #202, #74 ) ) ;
#554 = STYLED_ITEM ( 'NONE', ( #513 ), #462 ) ;
#555 = CARTESIAN_POINT ( 'NONE',  ( 5.000000000000000888, 0.000000000000000000, 0.000000000000000000 ) ) ;
#556 = ORIENTED_EDGE ( 'NONE', *, *, #349, .F. ) ;
#557 =( LENGTH_UNIT ( ) NAMED_UNIT ( * ) SI_UNIT ( .MILLI., .METRE. ) );
#558 = UNCERTAINTY_MEASURE_WITH_UNIT (LENGTH_MEASURE( 1.000000000000000082E-05 ), #575, 'distance_accuracy_value', 'NONE');
#559 = FILL_AREA_STYLE ('',( #12 ) ) ;
#560 = ORIENTED_EDGE ( 'NONE', *, *, #286, .T. ) ;
#561 = DIRECTION ( 'NONE',  ( -0.000000000000000000, 1.000000000000000000, -0.000000000000000000 ) ) ;
#562 =( NAMED_UNIT ( * ) SI_UNIT ( $, .STERADIAN. ) SOLID_ANGLE_UNIT ( ) );
#563 = CARTESIAN_POINT ( 'NONE',  ( -20.00000000000001066, 3.000000000000000000, -1.999999999999855227 ) ) ;
#564 = VECTOR ( 'NONE', #538, 1000.000000000000000 ) ;
#565 = ORIENTED_EDGE ( 'NONE', *, *, #219, .T. ) ;
#566 = SURFACE_STYLE_USAGE ( .BOTH. , #359 ) ;
#567 = ORIENTED_EDGE ( 'NONE', *, *, #532, .T. ) ;
#568 = EDGE_CURVE ( 'NONE', #260, #479, #199, .T. ) ;
#569 = FILL_AREA_STYLE_COLOUR ( '', #284 ) ;
#570 = DIRECTION ( 'NONE',  ( 0.000000000000000000, 1.000000000000000000, 0.000000000000000000 ) ) ;
#571 = CARTESIAN_POINT ( 'NONE',  ( 5.000000000000000888, 0.000000000000000000, 0.000000000000000000 ) ) ;
#572 = FILL_AREA_STYLE_COLOUR ( '', #420 ) ;
#573 =( GEOMETRIC_REPRESENTATION_CONTEXT ( 3 ) GLOBAL_UNCERTAINTY_ASSIGNED_CONTEXT ( ( #449 ) ) GLOBAL_UNIT_ASSIGNED_CONTEXT ( ( #463, #466, #7 ) ) REPRESENTATION_CONTEXT ( 'NONE', 'WORKASPACE' ) );
#574 = COLOUR_RGB ( '',0.9686274509803921573, 0.2588235294117646745, 0.2588235294117646745 ) ;
#575 =( LENGTH_UNIT ( ) NAMED_UNIT ( * ) SI_UNIT ( .MILLI., .METRE. ) );
#576 = FACE_OUTER_BOUND ( 'NONE', #382, .T. ) ;
#577 = DIRECTION ( 'NONE',  ( -0.000000000000000000, 1.000000000000000000, -0.000000000000000000 ) ) ;
#578 =( NAMED_UNIT ( * ) PLANE_ANGLE_UNIT ( ) SI_UNIT ( $, .RADIAN. ) );
#579 = CARTESIAN_POINT ( 'NONE',  ( 5.000000000000000888, 3.000000000000000000, -1.000000000000001554 ) ) ;
#580 = DIRECTION ( 'NONE',  ( 0.000000000000000000, 0.000000000000000000, 1.000000000000000000 ) ) ;
#581 = AXIS2_PLACEMENT_3D ( 'NONE', #269, #309, #36 ) ;
#582 = UNCERTAINTY_MEASURE_WITH_UNIT (LENGTH_MEASURE( 1.000000000000000082E-05 ), #216, 'distance_accuracy_value', 'NONE');
#583 = CIRCLE ( 'NONE', #477, 1.000000000000001554 ) ;
#584 = LINE ( 'NONE', #448, #145 ) ;
#585 = PRESENTATION_LAYER_ASSIGNMENT (  '', '', ( #554 ) ) ;
#586 = ADVANCED_FACE ( 'NONE', ( #251 ), #68, .T. ) ;
#587 = FILL_AREA_STYLE_COLOUR ( '', #293 ) ;
#588 = EDGE_CURVE ( 'NONE', #240, #461, #170, .T. ) ;
#589 = CARTESIAN_POINT ( 'NONE',  ( 21.00000000000000000, 0.000000000000000000, 0.000000000000000000 ) ) ;
#590 = CARTESIAN_POINT ( 'NONE',  ( 0.000000000000000000, 0.000000000000000000, 0.000000000000000000 ) ) ;
#591 =( GEOMETRIC_REPRESENTATION_CONTEXT ( 3 ) GLOBAL_UNCERTAINTY_ASSIGNED_CONTEXT ( ( #2 ) ) GLOBAL_UNIT_ASSIGNED_CONTEXT ( ( #392, #197, #523 ) ) REPRESENTATION_CONTEXT ( 'NONE', 'WORKASPACE' ) );
#592 = AXIS2_PLACEMENT_3D ( 'NONE', #589, #386, #59 ) ;
#593 = CARTESIAN_POINT ( 'NONE',  ( 21.00000000000000000, 3.000000000000000000, -1.000000000000001554 ) ) ;
ENDSEC;
END-ISO-10303-21;
