ISO-10303-21;
HEADER;
FILE_DESCRIPTION (( 'STEP AP214' ),
    '1' );
FILE_NAME ('Rod jaw right left.STEP',
    '2025-10-21T18:57:17',
    ( 'Windows User' ),
    ( '' ),
    'SwSTEP 2.0',
    'SolidWorks 2023',
    '' );
FILE_SCHEMA (( 'AUTOMOTIVE_DESIGN' ));
ENDSEC;

DATA;
#1 = CYLINDRICAL_SURFACE ( 'NONE', #401, 1.099999999999999645 ) ;
#2 = ORIENTED_EDGE ( 'NONE', *, *, #54, .T. ) ;
#3 = MANIFOLD_SOLID_BREP ( 'Cut-Extrude5', #313 ) ;
#4 = EDGE_CURVE ( 'NONE', #88, #183, #324, .T. ) ;
#5 = CARTESIAN_POINT ( 'NONE',  ( 2.499999999999999112, 0.000000000000000000, -1.399999999999999467 ) ) ;
#6 = ORIENTED_EDGE ( 'NONE', *, *, #259, .F. ) ;
#7 = DIRECTION ( 'NONE',  ( -0.000000000000000000, 1.000000000000000000, -0.000000000000000000 ) ) ;
#8 = CIRCLE ( 'NONE', #316, 0.7500000000000006661 ) ;
#9 = ORIENTED_EDGE ( 'NONE', *, *, #408, .T. ) ;
#10 = PLANE ( 'NONE',  #377 ) ;
#11 = ORIENTED_EDGE ( 'NONE', *, *, #199, .F. ) ;
#12 = CARTESIAN_POINT ( 'NONE',  ( 2.499999999999998668, 3.000000000000000000, -13.00000000000000000 ) ) ;
#13 = ORIENTED_EDGE ( 'NONE', *, *, #63, .T. ) ;
#14 = CARTESIAN_POINT ( 'NONE',  ( 0.000000000000000000, 3.000000000000000000, 0.000000000000000000 ) ) ;
#15 = ORIENTED_EDGE ( 'NONE', *, *, #54, .F. ) ;
#16 = CIRCLE ( 'NONE', #301, 0.7500000000000006661 ) ;
#17 = EDGE_CURVE ( 'NONE', #288, #179, #93, .T. ) ;
#18 = DIRECTION ( 'NONE',  ( 0.09053574604251829472, 0.000000000000000000, 0.9958932064677038509 ) ) ;
#19 = ORIENTED_EDGE ( 'NONE', *, *, #145, .T. ) ;
#20 = DIRECTION ( 'NONE',  ( 0.000000000000000000, 0.000000000000000000, 1.000000000000000000 ) ) ;
#21 = EDGE_LOOP ( 'NONE', ( #327, #394, #50, #115 ) ) ;
#22 = ORIENTED_EDGE ( 'NONE', *, *, #257, .T. ) ;
#23 = VECTOR ( 'NONE', #383, 1000.000000000000000 ) ;
#24 = VECTOR ( 'NONE', #51, 1000.000000000000000 ) ;
#25 = CARTESIAN_POINT ( 'NONE',  ( 5.184426229508195760, 0.000000000000000000, -0.4713114754098348125 ) ) ;
#26 = DIRECTION ( 'NONE',  ( 1.239088197126290570E-16, 0.000000000000000000, 1.000000000000000000 ) ) ;
#27 = CARTESIAN_POINT ( 'NONE',  ( 0.000000000000000000, 0.000000000000000000, 0.000000000000000000 ) ) ;
#28 =( LENGTH_UNIT ( ) NAMED_UNIT ( * ) SI_UNIT ( .MILLI., .METRE. ) );
#29 = DIRECTION ( 'NONE',  ( 1.239088197126290570E-16, 0.000000000000000000, 1.000000000000000000 ) ) ;
#30 = AXIS2_PLACEMENT_3D ( 'NONE', #125, #258, #136 ) ;
#31 = SURFACE_STYLE_USAGE ( .BOTH. , #97 ) ;
#32 = EDGE_CURVE ( 'NONE', #209, #75, #442, .T. ) ;
#33 = LINE ( 'NONE', #272, #420 ) ;
#34 = DIRECTION ( 'NONE',  ( 1.239088197126290570E-16, 0.000000000000000000, 1.000000000000000000 ) ) ;
#35 = EDGE_CURVE ( 'NONE', #72, #288, #367, .T. ) ;
#36 = CARTESIAN_POINT ( 'NONE',  ( 4.500000000000000000, 0.000000000000000000, -13.00000000000000000 ) ) ;
#37 = AXIS2_PLACEMENT_3D ( 'NONE', #225, #166, #62 ) ;
#38 = CIRCLE ( 'NONE', #30, 2.500000000000000000 ) ;
#39 = DIRECTION ( 'NONE',  ( -0.000000000000000000, 1.000000000000000000, -0.000000000000000000 ) ) ;
#40 = ORIENTED_EDGE ( 'NONE', *, *, #17, .F. ) ;
#41 = DIRECTION ( 'NONE',  ( 0.000000000000000000, 0.000000000000000000, 1.000000000000000000 ) ) ;
#42 = ORIENTED_EDGE ( 'NONE', *, *, #112, .F. ) ;
#43 = PLANE ( 'NONE',  #219 ) ;
#44 = EDGE_LOOP ( 'NONE', ( #15, #190, #107, #91 ) ) ;
#45 = DIRECTION ( 'NONE',  ( -0.09053574604251829472, 0.000000000000000000, 0.9958932064677038509 ) ) ;
#46 = ORIENTED_EDGE ( 'NONE', *, *, #323, .T. ) ;
#47 = DIRECTION ( 'NONE',  ( 0.000000000000000000, 1.000000000000000000, -0.000000000000000000 ) ) ;
#48 = EDGE_LOOP ( 'NONE', ( #293, #436, #299, #198 ) ) ;
#49 = DIRECTION ( 'NONE',  ( -0.000000000000000000, -1.000000000000000000, 0.000000000000000000 ) ) ;
#50 = ORIENTED_EDGE ( 'NONE', *, *, #63, .F. ) ;
#51 = DIRECTION ( 'NONE',  ( -0.09053574604251829472, 0.000000000000000000, 0.9958932064677038509 ) ) ;
#52 = ORIENTED_EDGE ( 'NONE', *, *, #397, .T. ) ;
#53 = AXIS2_PLACEMENT_3D ( 'NONE', #102, #208, #395 ) ;
#54 = EDGE_CURVE ( 'NONE', #361, #434, #305, .T. ) ;
#55 = CARTESIAN_POINT ( 'NONE',  ( 5.000000000000000888, 0.000000000000000000, -2.499999999999990230 ) ) ;
#56 = ORIENTED_EDGE ( 'NONE', *, *, #112, .T. ) ;
#57 = VERTEX_POINT ( 'NONE', #92 ) ;
#58 = LINE ( 'NONE', #265, #119 ) ;
#59 = FILL_AREA_STYLE_COLOUR ( '', #128 ) ;
#60 = PLANE ( 'NONE',  #133 ) ;
#61 =( NAMED_UNIT ( * ) PLANE_ANGLE_UNIT ( ) SI_UNIT ( $, .RADIAN. ) );
#62 = DIRECTION ( 'NONE',  ( 0.000000000000000000, 0.000000000000000000, 1.000000000000000000 ) ) ;
#63 = EDGE_CURVE ( 'NONE', #221, #373, #238, .T. ) ;
#64 = CARTESIAN_POINT ( 'NONE',  ( 4.500000000000000000, 3.000000000000000000, -13.00000000000000000 ) ) ;
#65 = CARTESIAN_POINT ( 'NONE',  ( 2.499999999999999112, 3.000000000000000000, -2.499999999999999112 ) ) ;
#66 = CYLINDRICAL_SURFACE ( 'NONE', #53, 0.7500000000000006661 ) ;
#67 = VERTEX_POINT ( 'NONE', #232 ) ;
#68 = DIRECTION ( 'NONE',  ( -0.000000000000000000, 1.000000000000000000, -0.000000000000000000 ) ) ;
#69 = ORIENTED_EDGE ( 'NONE', *, *, #17, .T. ) ;
#70 = AXIS2_PLACEMENT_3D ( 'NONE', #372, #151, #86 ) ;
#71 = DIRECTION ( 'NONE',  ( 0.000000000000000000, 0.000000000000000000, -1.000000000000000000 ) ) ;
#72 = VERTEX_POINT ( 'NONE', #419 ) ;
#73 = UNCERTAINTY_MEASURE_WITH_UNIT (LENGTH_MEASURE( 1.000000000000000082E-05 ), #130, 'distance_accuracy_value', 'NONE');
#74 = CARTESIAN_POINT ( 'NONE',  ( 2.499999999999999112, 0.000000000000000000, -2.499999999999999112 ) ) ;
#75 = VERTEX_POINT ( 'NONE', #447 ) ;
#76 = EDGE_CURVE ( 'NONE', #142, #215, #443, .T. ) ;
#77 = FACE_OUTER_BOUND ( 'NONE', #319, .T. ) ;
#78 = VERTEX_POINT ( 'NONE', #137 ) ;
#79 = AXIS2_PLACEMENT_3D ( 'NONE', #181, #217, #41 ) ;
#80 = CYLINDRICAL_SURFACE ( 'NONE', #109, 2.500000000000000000 ) ;
#81 = ORIENTED_EDGE ( 'NONE', *, *, #199, .T. ) ;
#82 = DIRECTION ( 'NONE',  ( -0.000000000000000000, 1.000000000000000000, -0.000000000000000000 ) ) ;
#83 = ORIENTED_EDGE ( 'NONE', *, *, #296, .F. ) ;
#84 = CARTESIAN_POINT ( 'NONE',  ( 4.500000000000001776, 0.000000000000000000, -5.575896887068308799E-16 ) ) ;
#85 = ORIENTED_EDGE ( 'NONE', *, *, #180, .F. ) ;
#86 = DIRECTION ( 'NONE',  ( 0.000000000000000000, 0.000000000000000000, 1.000000000000000000 ) ) ;
#87 = STYLED_ITEM ( 'NONE', ( #438 ), #3 ) ;
#88 = VERTEX_POINT ( 'NONE', #205 ) ;
#89 = VECTOR ( 'NONE', #113, 1000.000000000000000 ) ;
#90 = DIRECTION ( 'NONE',  ( 0.000000000000000000, 1.000000000000000000, -0.000000000000000000 ) ) ;
#91 = ORIENTED_EDGE ( 'NONE', *, *, #180, .T. ) ;
#92 = CARTESIAN_POINT ( 'NONE',  ( 2.499999999999999112, 3.000000000000000000, -1.399999999999999467 ) ) ;
#93 = LINE ( 'NONE', #309, #211 ) ;
#94 = FACE_OUTER_BOUND ( 'NONE', #48, .T. ) ;
#95 = CARTESIAN_POINT ( 'NONE',  ( 0.4999999999999988343, 0.000000000000000000, -6.195440985631438061E-17 ) ) ;
#96 = EDGE_CURVE ( 'NONE', #209, #423, #376, .T. ) ;
#97 = SURFACE_SIDE_STYLE ('',( #100 ) ) ;
#98 = EDGE_CURVE ( 'NONE', #117, #146, #132, .T. ) ;
#99 = DIRECTION ( 'NONE',  ( 0.000000000000000000, 1.000000000000000000, -0.000000000000000000 ) ) ;
#100 = SURFACE_STYLE_FILL_AREA ( #417 ) ;
#101 = DIRECTION ( 'NONE',  ( -0.000000000000000000, 1.000000000000000000, -0.000000000000000000 ) ) ;
#102 = CARTESIAN_POINT ( 'NONE',  ( 2.499999999999998668, 0.000000000000000000, -13.00000000000000000 ) ) ;
#103 = CARTESIAN_POINT ( 'NONE',  ( 2.499999999999999112, 0.000000000000000000, 8.673617379884035472E-16 ) ) ;
#104 = EDGE_LOOP ( 'NONE', ( #431, #244 ) ) ;
#105 = DIRECTION ( 'NONE',  ( 0.000000000000000000, 0.000000000000000000, 1.000000000000000000 ) ) ;
#106 = APPLICATION_CONTEXT ( 'automotive_design' ) ;
#107 = ORIENTED_EDGE ( 'NONE', *, *, #98, .T. ) ;
#108 = AXIS2_PLACEMENT_3D ( 'NONE', #354, #348, #350 ) ;
#109 = AXIS2_PLACEMENT_3D ( 'NONE', #227, #292, #287 ) ;
#110 = CARTESIAN_POINT ( 'NONE',  ( 5.000000000000000888, 0.000000000000000000, -2.499999999999990230 ) ) ;
#111 = ORIENTED_EDGE ( 'NONE', *, *, #397, .F. ) ;
#112 = EDGE_CURVE ( 'NONE', #57, #179, #235, .T. ) ;
#113 = DIRECTION ( 'NONE',  ( -0.000000000000000000, 1.000000000000000000, -0.000000000000000000 ) ) ;
#114 = EDGE_CURVE ( 'NONE', #396, #410, #58, .T. ) ;
#115 = ORIENTED_EDGE ( 'NONE', *, *, #371, .T. ) ;
#116 = FACE_OUTER_BOUND ( 'NONE', #357, .T. ) ;
#117 = VERTEX_POINT ( 'NONE', #416 ) ;
#118 = ADVANCED_FACE ( 'NONE', ( #135 ), #266, .T. ) ;
#119 = VECTOR ( 'NONE', #378, 1000.000000000000000 ) ;
#120 = DIRECTION ( 'NONE',  ( 0.000000000000000000, 0.000000000000000000, 1.000000000000000000 ) ) ;
#121 = VECTOR ( 'NONE', #82, 1000.000000000000000 ) ;
#122 = ORIENTED_EDGE ( 'NONE', *, *, #114, .T. ) ;
#123 = DIRECTION ( 'NONE',  ( 0.000000000000000000, 0.000000000000000000, 1.000000000000000000 ) ) ;
#124 = EDGE_LOOP ( 'NONE', ( #83, #46, #188, #351 ) ) ;
#125 = CARTESIAN_POINT ( 'NONE',  ( 2.499999999999999112, 3.000000000000000000, -2.499999999999999112 ) ) ;
#126 = FACE_OUTER_BOUND ( 'NONE', #124, .T. ) ;
#127 = EDGE_LOOP ( 'NONE', ( #302, #262 ) ) ;
#128 = COLOUR_RGB ( '',0.000000000000000000, 0.000000000000000000, 1.000000000000000000 ) ;
#129 = DIRECTION ( 'NONE',  ( 0.000000000000000000, 0.000000000000000000, 1.000000000000000000 ) ) ;
#130 =( LENGTH_UNIT ( ) NAMED_UNIT ( * ) SI_UNIT ( .MILLI., .METRE. ) );
#131 = CARTESIAN_POINT ( 'NONE',  ( 0.4999999999999988343, 0.000000000000000000, -6.195440985631438061E-17 ) ) ;
#132 = LINE ( 'NONE', #131, #358 ) ;
#133 = AXIS2_PLACEMENT_3D ( 'NONE', #27, #164, #71 ) ;
#134 = VECTOR ( 'NONE', #18, 1000.000000000000000 ) ;
#135 = FACE_OUTER_BOUND ( 'NONE', #44, .T. ) ;
#136 = DIRECTION ( 'NONE',  ( 0.000000000000000000, 0.000000000000000000, 1.000000000000000000 ) ) ;
#137 = CARTESIAN_POINT ( 'NONE',  ( 2.499999999999999112, 0.000000000000000000, 8.673617379884035472E-16 ) ) ;
#138 = LINE ( 'NONE', #5, #338 ) ;
#139 = MECHANICAL_DESIGN_GEOMETRIC_PRESENTATION_REPRESENTATION (  '', ( #87 ), #274 ) ;
#140 = AXIS2_PLACEMENT_3D ( 'NONE', #409, #47, #120 ) ;
#141 = LINE ( 'NONE', #273, #269 ) ;
#142 = VERTEX_POINT ( 'NONE', #64 ) ;
#143 = DIRECTION ( 'NONE',  ( 0.000000000000000000, 1.000000000000000000, -0.000000000000000000 ) ) ;
#144 = PLANE ( 'NONE',  #191 ) ;
#145 = EDGE_CURVE ( 'NONE', #117, #361, #33, .T. ) ;
#146 = VERTEX_POINT ( 'NONE', #311 ) ;
#147 = CARTESIAN_POINT ( 'NONE',  ( 2.499999999999999112, 0.000000000000000000, -2.499999999999999112 ) ) ;
#148 = ORIENTED_EDGE ( 'NONE', *, *, #323, .F. ) ;
#149 = DIRECTION ( 'NONE',  ( 1.239088197126290570E-16, 0.000000000000000000, 1.000000000000000000 ) ) ;
#150 = ORIENTED_EDGE ( 'NONE', *, *, #259, .T. ) ;
#151 = DIRECTION ( 'NONE',  ( -0.000000000000000000, 1.000000000000000000, -0.000000000000000000 ) ) ;
#152 = EDGE_LOOP ( 'NONE', ( #148, #400, #429, #286 ) ) ;
#153 = ADVANCED_FACE ( 'NONE', ( #341, #304, #236 ), #60, .T. ) ;
#154 = DIRECTION ( 'NONE',  ( 0.000000000000000000, 0.000000000000000000, 1.000000000000000000 ) ) ;
#155 = ORIENTED_EDGE ( 'NONE', *, *, #439, .F. ) ;
#156 = CARTESIAN_POINT ( 'NONE',  ( 2.499999999999998668, 3.000000000000000000, -12.24999999999999822 ) ) ;
#157 = SURFACE_STYLE_FILL_AREA ( #334 ) ;
#158 = DIRECTION ( 'NONE',  ( 0.000000000000000000, 0.000000000000000000, 1.000000000000000000 ) ) ;
#159 =( LENGTH_UNIT ( ) NAMED_UNIT ( * ) SI_UNIT ( .MILLI., .METRE. ) );
#160 = ADVANCED_FACE ( 'NONE', ( #453 ), #43, .T. ) ;
#161 = AXIS2_PLACEMENT_3D ( 'NONE', #95, #418, #201 ) ;
#162 = ORIENTED_EDGE ( 'NONE', *, *, #233, .T. ) ;
#163 = DIRECTION ( 'NONE',  ( 0.09053574604251829472, 0.000000000000000000, 0.9958932064677038509 ) ) ;
#164 = DIRECTION ( 'NONE',  ( 0.000000000000000000, -1.000000000000000000, 0.000000000000000000 ) ) ;
#165 = ADVANCED_FACE ( 'NONE', ( #277 ), #314, .T. ) ;
#166 = DIRECTION ( 'NONE',  ( -0.000000000000000000, -1.000000000000000000, 0.000000000000000000 ) ) ;
#167 = CIRCLE ( 'NONE', #79, 2.000000000000000000 ) ;
#168 = AXIS2_PLACEMENT_3D ( 'NONE', #360, #185, #158 ) ;
#169 = CARTESIAN_POINT ( 'NONE',  ( 4.500000000000001776, 0.000000000000000000, -5.575896887068308799E-16 ) ) ;
#170 = DIRECTION ( 'NONE',  ( -0.000000000000000000, 1.000000000000000000, -0.000000000000000000 ) ) ;
#171 = CARTESIAN_POINT ( 'NONE',  ( 2.499999999999998668, 0.000000000000000000, -13.00000000000000000 ) ) ;
#172 = DIRECTION ( 'NONE',  ( -0.9958932064677038509, 0.000000000000000000, -0.09053574604251829472 ) ) ;
#173 = ORIENTED_EDGE ( 'NONE', *, *, #98, .F. ) ;
#174 = PRESENTATION_LAYER_ASSIGNMENT (  '', '', ( #284 ) ) ;
#175 = DIRECTION ( 'NONE',  ( 0.000000000000000000, 0.000000000000000000, 1.000000000000000000 ) ) ;
#176 = ORIENTED_EDGE ( 'NONE', *, *, #353, .F. ) ;
#177 = ADVANCED_FACE ( 'NONE', ( #422 ), #144, .F. ) ;
#178 = CARTESIAN_POINT ( 'NONE',  ( -0.2254098360655741040, 0.000000000000000000, -0.02049180327868850224 ) ) ;
#179 = VERTEX_POINT ( 'NONE', #248 ) ;
#180 = EDGE_CURVE ( 'NONE', #146, #434, #210, .T. ) ;
#181 = CARTESIAN_POINT ( 'NONE',  ( 2.499999999999998668, 0.000000000000000000, -13.00000000000000000 ) ) ;
#182 = EDGE_CURVE ( 'NONE', #67, #142, #426, .T. ) ;
#183 = VERTEX_POINT ( 'NONE', #214 ) ;
#184 = AXIS2_PLACEMENT_3D ( 'NONE', #346, #242, #175 ) ;
#185 = DIRECTION ( 'NONE',  ( -0.000000000000000000, 1.000000000000000000, -0.000000000000000000 ) ) ;
#186 = ORIENTED_EDGE ( 'NONE', *, *, #257, .F. ) ;
#187 = LINE ( 'NONE', #253, #134 ) ;
#188 = ORIENTED_EDGE ( 'NONE', *, *, #353, .T. ) ;
#189 = DIRECTION ( 'NONE',  ( 0.000000000000000000, 0.000000000000000000, 1.000000000000000000 ) ) ;
#190 = ORIENTED_EDGE ( 'NONE', *, *, #145, .F. ) ;
#191 = AXIS2_PLACEMENT_3D ( 'NONE', #245, #387, #283 ) ;
#192 = LINE ( 'NONE', #84, #200 ) ;
#193 = AXIS2_PLACEMENT_3D ( 'NONE', #335, #230, #123 ) ;
#194 = FILL_AREA_STYLE_COLOUR ( '', #267 ) ;
#195 = ADVANCED_FACE ( 'NONE', ( #77 ), #455, .F. ) ;
#196 = DIRECTION ( 'NONE',  ( 0.000000000000000000, 0.000000000000000000, -1.000000000000000000 ) ) ;
#197 = ORIENTED_EDGE ( 'NONE', *, *, #307, .T. ) ;
#198 = ORIENTED_EDGE ( 'NONE', *, *, #182, .T. ) ;
#199 = EDGE_CURVE ( 'NONE', #117, #67, #167, .T. ) ;
#200 = VECTOR ( 'NONE', #149, 1000.000000000000000 ) ;
#201 = DIRECTION ( 'NONE',  ( 1.239088197126290570E-16, 0.000000000000000000, 1.000000000000000000 ) ) ;
#202 = PRODUCT ( 'Rod jaw right left', 'Rod jaw right left', '', ( #444 ) ) ;
#203 = DIRECTION ( 'NONE',  ( 1.000000000000000000, 0.000000000000000000, 0.000000000000000000 ) ) ;
#204 = CARTESIAN_POINT ( 'NONE',  ( 0.4999999999999988343, 3.000000000000000000, -6.195440985631438061E-17 ) ) ;
#205 = CARTESIAN_POINT ( 'NONE',  ( 5.000000000000000888, 3.000000000000000000, -2.499999999999990230 ) ) ;
#206 = DIRECTION ( 'NONE',  ( 1.239088197126290570E-16, 0.000000000000000000, 1.000000000000000000 ) ) ;
#207 = AXIS2_PLACEMENT_3D ( 'NONE', #340, #306, #203 ) ;
#208 = DIRECTION ( 'NONE',  ( -0.000000000000000000, 1.000000000000000000, -0.000000000000000000 ) ) ;
#209 = VERTEX_POINT ( 'NONE', #312 ) ;
#210 = LINE ( 'NONE', #212, #448 ) ;
#211 = VECTOR ( 'NONE', #101, 1000.000000000000000 ) ;
#212 = CARTESIAN_POINT ( 'NONE',  ( 0.4999999999999978351, 0.000000000000000000, -8.000000000000000000 ) ) ;
#213 = EDGE_LOOP ( 'NONE', ( #246, #85, #22, #122 ) ) ;
#214 = CARTESIAN_POINT ( 'NONE',  ( 2.499999999999999112, 3.000000000000000000, 8.673617379884035472E-16 ) ) ;
#215 = VERTEX_POINT ( 'NONE', #322 ) ;
#216 = UNCERTAINTY_MEASURE_WITH_UNIT (LENGTH_MEASURE( 1.000000000000000082E-05 ), #159, 'distance_accuracy_value', 'NONE');
#217 = DIRECTION ( 'NONE',  ( -0.000000000000000000, -1.000000000000000000, 0.000000000000000000 ) ) ;
#218 = AXIS2_PLACEMENT_3D ( 'NONE', #171, #99, #270 ) ;
#219 = AXIS2_PLACEMENT_3D ( 'NONE', #178, #172, #393 ) ;
#220 = CYLINDRICAL_SURFACE ( 'NONE', #168, 0.7500000000000006661 ) ;
#221 = VERTEX_POINT ( 'NONE', #320 ) ;
#222 = CARTESIAN_POINT ( 'NONE',  ( 2.499999999999999112, 0.000000000000000000, -2.499999999999999112 ) ) ;
#223 = ORIENTED_EDGE ( 'NONE', *, *, #4, .T. ) ;
#224 = CARTESIAN_POINT ( 'NONE',  ( -0.2254098360655741040, 3.000000000000000000, -0.02049180327868850224 ) ) ;
#225 = CARTESIAN_POINT ( 'NONE',  ( 2.499999999999999112, 3.000000000000000000, -2.499999999999999112 ) ) ;
#226 = EDGE_CURVE ( 'NONE', #72, #57, #138, .T. ) ;
#227 = CARTESIAN_POINT ( 'NONE',  ( 2.499999999999999112, 0.000000000000000000, -2.499999999999999112 ) ) ;
#228 = AXIS2_PLACEMENT_3D ( 'NONE', #325, #329, #154 ) ;
#229 = ORIENTED_EDGE ( 'NONE', *, *, #451, .T. ) ;
#230 = DIRECTION ( 'NONE',  ( -0.000000000000000000, -1.000000000000000000, 0.000000000000000000 ) ) ;
#231 = ORIENTED_EDGE ( 'NONE', *, *, #281, .F. ) ;
#232 = CARTESIAN_POINT ( 'NONE',  ( 4.500000000000000000, 0.000000000000000000, -13.00000000000000000 ) ) ;
#233 = EDGE_CURVE ( 'NONE', #373, #88, #243, .T. ) ;
#234 =( NAMED_UNIT ( * ) SI_UNIT ( $, .STERADIAN. ) SOLID_ANGLE_UNIT ( ) );
#235 = CIRCLE ( 'NONE', #349, 1.099999999999999645 ) ;
#236 = FACE_BOUND ( 'NONE', #104, .T. ) ;
#237 = PRESENTATION_STYLE_ASSIGNMENT (( #31 ) ) ;
#238 = LINE ( 'NONE', #25, #381 ) ;
#239 = ADVANCED_FACE ( 'NONE', ( #356 ), #1, .F. ) ;
#240 = VECTOR ( 'NONE', #206, 1000.000000000000000 ) ;
#241 = PRODUCT_DEFINITION ( 'General', '', #261, #352 ) ;
#242 = DIRECTION ( 'NONE',  ( 0.000000000000000000, 1.000000000000000000, -0.000000000000000000 ) ) ;
#243 = LINE ( 'NONE', #110, #399 ) ;
#244 = ORIENTED_EDGE ( 'NONE', *, *, #271, .T. ) ;
#245 = CARTESIAN_POINT ( 'NONE',  ( 5.184426229508195760, 0.000000000000000000, -0.4713114754098348125 ) ) ;
#246 = ORIENTED_EDGE ( 'NONE', *, *, #408, .F. ) ;
#247 = VECTOR ( 'NONE', #289, 1000.000000000000000 ) ;
#248 = CARTESIAN_POINT ( 'NONE',  ( 2.499999999999999112, 3.000000000000000000, -3.599999999999999201 ) ) ;
#249 = ORIENTED_EDGE ( 'NONE', *, *, #271, .F. ) ;
#250 = FACE_OUTER_BOUND ( 'NONE', #152, .T. ) ;
#251 = FACE_OUTER_BOUND ( 'NONE', #252, .T. ) ;
#252 = EDGE_LOOP ( 'NONE', ( #52, #384, #11, #19 ) ) ;
#253 = CARTESIAN_POINT ( 'NONE',  ( 5.184426229508195760, 3.000000000000000000, -0.4713114754098348125 ) ) ;
#254 = EDGE_LOOP ( 'NONE', ( #278, #150, #229, #407 ) ) ;
#255 = CARTESIAN_POINT ( 'NONE',  ( 2.499999999999999112, 0.000000000000000000, -3.599999999999999201 ) ) ;
#256 = ORIENTED_EDGE ( 'NONE', *, *, #4, .F. ) ;
#257 = EDGE_CURVE ( 'NONE', #146, #396, #141, .T. ) ;
#258 = DIRECTION ( 'NONE',  ( -0.000000000000000000, -1.000000000000000000, 0.000000000000000000 ) ) ;
#259 = EDGE_CURVE ( 'NONE', #78, #183, #421, .T. ) ;
#260 = DIRECTION ( 'NONE',  ( 0.000000000000000000, 0.000000000000000000, 1.000000000000000000 ) ) ;
#261 = PRODUCT_DEFINITION_FORMATION_WITH_SPECIFIED_SOURCE ( 'Symmetric', '', #202, .NOT_KNOWN. ) ;
#262 = ORIENTED_EDGE ( 'NONE', *, *, #296, .T. ) ;
#263 = SHAPE_DEFINITION_REPRESENTATION ( #374, #347 ) ;
#264 = ADVANCED_FACE ( 'NONE', ( #250 ), #66, .F. ) ;
#265 = CARTESIAN_POINT ( 'NONE',  ( 1.355252715606880543E-17, 0.000000000000000000, -2.500000000000010214 ) ) ;
#266 = PLANE ( 'NONE',  #161 ) ;
#267 = COLOUR_RGB ( '',0.7921568627450980005, 0.8196078431372548767, 0.9333333333333333481 ) ;
#268 = PRESENTATION_LAYER_ASSIGNMENT (  '', '', ( #87 ) ) ;
#269 = VECTOR ( 'NONE', #45, 1000.000000000000000 ) ;
#270 = DIRECTION ( 'NONE',  ( 0.000000000000000000, 0.000000000000000000, 1.000000000000000000 ) ) ;
#271 = EDGE_CURVE ( 'NONE', #288, #72, #389, .T. ) ;
#272 = CARTESIAN_POINT ( 'NONE',  ( 0.4999999999999970579, 0.000000000000000000, -13.00000000000000000 ) ) ;
#273 = CARTESIAN_POINT ( 'NONE',  ( -0.2254098360655741040, 0.000000000000000000, -0.02049180327868850224 ) ) ;
#274 =( GEOMETRIC_REPRESENTATION_CONTEXT ( 3 ) GLOBAL_UNCERTAINTY_ASSIGNED_CONTEXT ( ( #216 ) ) GLOBAL_UNIT_ASSIGNED_CONTEXT ( ( #159, #414, #379 ) ) REPRESENTATION_CONTEXT ( 'NONE', 'WORKASPACE' ) );
#275 = AXIS2_PLACEMENT_3D ( 'NONE', #424, #433, #260 ) ;
#276 = AXIS2_PLACEMENT_3D ( 'NONE', #222, #49, #189 ) ;
#277 = FACE_OUTER_BOUND ( 'NONE', #254, .T. ) ;
#278 = ORIENTED_EDGE ( 'NONE', *, *, #310, .F. ) ;
#279 = EDGE_CURVE ( 'NONE', #423, #441, #16, .T. ) ;
#280 = DIRECTION ( 'NONE',  ( 0.000000000000000000, 0.000000000000000000, 1.000000000000000000 ) ) ;
#281 = EDGE_CURVE ( 'NONE', #179, #57, #308, .T. ) ;
#282 = EDGE_LOOP ( 'NONE', ( #42, #231 ) ) ;
#283 = DIRECTION ( 'NONE',  ( 0.09053574604251829472, 0.000000000000000000, 0.9958932064677038509 ) ) ;
#284 = STYLED_ITEM ( 'NONE', ( #237 ), #347 ) ;
#285 = DIRECTION ( 'NONE',  ( -0.000000000000000000, 1.000000000000000000, -0.000000000000000000 ) ) ;
#286 = ORIENTED_EDGE ( 'NONE', *, *, #279, .T. ) ;
#287 = DIRECTION ( 'NONE',  ( 0.000000000000000000, 0.000000000000000000, 1.000000000000000000 ) ) ;
#288 = VERTEX_POINT ( 'NONE', #255 ) ;
#289 = DIRECTION ( 'NONE',  ( -0.000000000000000000, 1.000000000000000000, -0.000000000000000000 ) ) ;
#290 = ORIENTED_EDGE ( 'NONE', *, *, #226, .F. ) ;
#291 =( GEOMETRIC_REPRESENTATION_CONTEXT ( 3 ) GLOBAL_UNCERTAINTY_ASSIGNED_CONTEXT ( ( #328 ) ) GLOBAL_UNIT_ASSIGNED_CONTEXT ( ( #28, #303, #343 ) ) REPRESENTATION_CONTEXT ( 'NONE', 'WORKASPACE' ) );
#292 = DIRECTION ( 'NONE',  ( -0.000000000000000000, 1.000000000000000000, -0.000000000000000000 ) ) ;
#293 = ORIENTED_EDGE ( 'NONE', *, *, #76, .T. ) ;
#294 = CARTESIAN_POINT ( 'NONE',  ( 2.499999999999998668, 3.000000000000000000, -13.75000000000000000 ) ) ;
#295 = SURFACE_SIDE_STYLE ('',( #157 ) ) ;
#296 = EDGE_CURVE ( 'NONE', #75, #209, #339, .T. ) ;
#297 = ADVANCED_FACE ( 'NONE', ( #251 ), #406, .T. ) ;
#298 = LINE ( 'NONE', #369, #121 ) ;
#299 = ORIENTED_EDGE ( 'NONE', *, *, #307, .F. ) ;
#300 = APPLICATION_PROTOCOL_DEFINITION ( 'draft international standard', 'automotive_design', 1998, #392 ) ;
#301 = AXIS2_PLACEMENT_3D ( 'NONE', #318, #143, #280 ) ;
#302 = ORIENTED_EDGE ( 'NONE', *, *, #32, .T. ) ;
#303 =( NAMED_UNIT ( * ) PLANE_ANGLE_UNIT ( ) SI_UNIT ( $, .RADIAN. ) );
#304 = FACE_OUTER_BOUND ( 'NONE', #370, .T. ) ;
#305 = LINE ( 'NONE', #204, #331 ) ;
#306 = DIRECTION ( 'NONE',  ( 0.000000000000000000, 0.000000000000000000, 1.000000000000000000 ) ) ;
#307 = EDGE_CURVE ( 'NONE', #67, #221, #192, .T. ) ;
#308 = CIRCLE ( 'NONE', #275, 1.099999999999999645 ) ;
#309 = CARTESIAN_POINT ( 'NONE',  ( 2.499999999999999112, 0.000000000000000000, -3.599999999999999201 ) ) ;
#310 = EDGE_CURVE ( 'NONE', #78, #396, #359, .T. ) ;
#311 = CARTESIAN_POINT ( 'NONE',  ( 0.4999999999999978351, 0.000000000000000000, -8.000000000000000000 ) ) ;
#312 = CARTESIAN_POINT ( 'NONE',  ( 2.499999999999998668, 0.000000000000000000, -12.24999999999999822 ) ) ;
#313 = CLOSED_SHELL ( 'NONE', ( #412, #239, #165, #391, #153, #363, #118, #160, #297, #177, #452, #195, #264 ) ) ;
#314 = CYLINDRICAL_SURFACE ( 'NONE', #388, 2.500000000000000000 ) ;
#315 = VECTOR ( 'NONE', #450, 1000.000000000000000 ) ;
#316 = AXIS2_PLACEMENT_3D ( 'NONE', #12, #90, #20 ) ;
#317 = EDGE_LOOP ( 'NONE', ( #249, #69, #366, #290 ) ) ;
#318 = CARTESIAN_POINT ( 'NONE',  ( 2.499999999999998668, 3.000000000000000000, -13.00000000000000000 ) ) ;
#319 = EDGE_LOOP ( 'NONE', ( #40, #425, #330, #56 ) ) ;
#320 = CARTESIAN_POINT ( 'NONE',  ( 4.500000000000000888, 0.000000000000000000, -8.000000000000000000 ) ) ;
#321 = ORIENTED_EDGE ( 'NONE', *, *, #76, .F. ) ;
#322 = CARTESIAN_POINT ( 'NONE',  ( 4.500000000000000888, 3.000000000000000000, -8.000000000000000000 ) ) ;
#323 = EDGE_CURVE ( 'NONE', #75, #441, #398, .T. ) ;
#324 = CIRCLE ( 'NONE', #37, 2.500000000000000000 ) ;
#325 = CARTESIAN_POINT ( 'NONE',  ( 2.499999999999999112, 0.000000000000000000, -2.499999999999999112 ) ) ;
#326 = CARTESIAN_POINT ( 'NONE',  ( 0.4999999999999970579, 3.000000000000000000, -13.00000000000000000 ) ) ;
#327 = ORIENTED_EDGE ( 'NONE', *, *, #415, .T. ) ;
#328 = UNCERTAINTY_MEASURE_WITH_UNIT (LENGTH_MEASURE( 1.000000000000000082E-05 ), #28, 'distance_accuracy_value', 'NONE');
#329 = DIRECTION ( 'NONE',  ( -0.000000000000000000, -1.000000000000000000, 0.000000000000000000 ) ) ;
#330 = ORIENTED_EDGE ( 'NONE', *, *, #226, .T. ) ;
#331 = VECTOR ( 'NONE', #34, 1000.000000000000000 ) ;
#332 = CIRCLE ( 'NONE', #193, 2.000000000000000000 ) ;
#333 = CARTESIAN_POINT ( 'NONE',  ( 1.355252715606880543E-17, 3.000000000000000000, -2.500000000000010214 ) ) ;
#334 = FILL_AREA_STYLE ('',( #194 ) ) ;
#335 = CARTESIAN_POINT ( 'NONE',  ( 2.499999999999998668, 3.000000000000000000, -13.00000000000000000 ) ) ;
#336 = SURFACE_STYLE_USAGE ( .BOTH. , #295 ) ;
#337 = ORIENTED_EDGE ( 'NONE', *, *, #310, .T. ) ;
#338 = VECTOR ( 'NONE', #7, 1000.000000000000000 ) ;
#339 = CIRCLE ( 'NONE', #140, 0.7500000000000006661 ) ;
#340 = CARTESIAN_POINT ( 'NONE',  ( 0.000000000000000000, 0.000000000000000000, 0.000000000000000000 ) ) ;
#341 = FACE_BOUND ( 'NONE', #127, .T. ) ;
#342 = CARTESIAN_POINT ( 'NONE',  ( 2.499999999999999112, 0.000000000000000000, -2.499999999999999112 ) ) ;
#343 =( NAMED_UNIT ( * ) SI_UNIT ( $, .STERADIAN. ) SOLID_ANGLE_UNIT ( ) );
#344 = MECHANICAL_DESIGN_GEOMETRIC_PRESENTATION_REPRESENTATION (  '', ( #284 ), #291 ) ;
#345 = DIRECTION ( 'NONE',  ( 0.000000000000000000, 0.000000000000000000, 1.000000000000000000 ) ) ;
#346 = CARTESIAN_POINT ( 'NONE',  ( 2.499999999999999112, 0.000000000000000000, -2.499999999999999112 ) ) ;
#347 = ADVANCED_BREP_SHAPE_REPRESENTATION ( 'Rod jaw right left', ( #3, #207 ), #428 ) ;
#348 = DIRECTION ( 'NONE',  ( -0.000000000000000000, 1.000000000000000000, -0.000000000000000000 ) ) ;
#349 = AXIS2_PLACEMENT_3D ( 'NONE', #65, #380, #129 ) ;
#350 = DIRECTION ( 'NONE',  ( 0.000000000000000000, 0.000000000000000000, 1.000000000000000000 ) ) ;
#351 = ORIENTED_EDGE ( 'NONE', *, *, #96, .F. ) ;
#352 = PRODUCT_DEFINITION_CONTEXT ( 'detailed design', #392, 'design' ) ;
#353 = EDGE_CURVE ( 'NONE', #441, #423, #8, .T. ) ;
#354 = CARTESIAN_POINT ( 'NONE',  ( 2.499999999999999112, 0.000000000000000000, -2.499999999999999112 ) ) ;
#355 = ORIENTED_EDGE ( 'NONE', *, *, #451, .F. ) ;
#356 = FACE_OUTER_BOUND ( 'NONE', #317, .T. ) ;
#357 = EDGE_LOOP ( 'NONE', ( #256, #403, #321, #111, #2, #9, #355 ) ) ;
#358 = VECTOR ( 'NONE', #29, 1000.000000000000000 ) ;
#359 = CIRCLE ( 'NONE', #228, 2.500000000000000000 ) ;
#360 = CARTESIAN_POINT ( 'NONE',  ( 2.499999999999998668, 0.000000000000000000, -13.00000000000000000 ) ) ;
#361 = VERTEX_POINT ( 'NONE', #326 ) ;
#362 = FACE_OUTER_BOUND ( 'NONE', #364, .T. ) ;
#363 = ADVANCED_FACE ( 'NONE', ( #362 ), #80, .T. ) ;
#364 = EDGE_LOOP ( 'NONE', ( #6, #155, #162, #223 ) ) ;
#365 = FACE_BOUND ( 'NONE', #386, .T. ) ;
#366 = ORIENTED_EDGE ( 'NONE', *, *, #281, .T. ) ;
#367 = CIRCLE ( 'NONE', #427, 1.099999999999999645 ) ;
#368 = CIRCLE ( 'NONE', #276, 2.500000000000000000 ) ;
#369 = CARTESIAN_POINT ( 'NONE',  ( 4.500000000000000888, 0.000000000000000000, -8.000000000000000000 ) ) ;
#370 = EDGE_LOOP ( 'NONE', ( #13, #390, #337, #186, #173, #81, #197 ) ) ;
#371 = EDGE_CURVE ( 'NONE', #221, #215, #298, .T. ) ;
#372 = CARTESIAN_POINT ( 'NONE',  ( 2.499999999999998668, 0.000000000000000000, -13.00000000000000000 ) ) ;
#373 = VERTEX_POINT ( 'NONE', #55 ) ;
#374 = PRODUCT_DEFINITION_SHAPE ( 'NONE', 'NONE',  #241 ) ;
#375 = DIRECTION ( 'NONE',  ( -1.000000000000000000, 0.000000000000000000, 1.239088197126290570E-16 ) ) ;
#376 = LINE ( 'NONE', #382, #315 ) ;
#377 = AXIS2_PLACEMENT_3D ( 'NONE', #14, #435, #196 ) ;
#378 = DIRECTION ( 'NONE',  ( -0.000000000000000000, 1.000000000000000000, -0.000000000000000000 ) ) ;
#379 =( NAMED_UNIT ( * ) SI_UNIT ( $, .STERADIAN. ) SOLID_ANGLE_UNIT ( ) );
#380 = DIRECTION ( 'NONE',  ( 0.000000000000000000, 1.000000000000000000, -0.000000000000000000 ) ) ;
#381 = VECTOR ( 'NONE', #163, 1000.000000000000000 ) ;
#382 = CARTESIAN_POINT ( 'NONE',  ( 2.499999999999998668, 0.000000000000000000, -12.24999999999999822 ) ) ;
#383 = DIRECTION ( 'NONE',  ( -0.000000000000000000, 1.000000000000000000, -0.000000000000000000 ) ) ;
#384 = ORIENTED_EDGE ( 'NONE', *, *, #182, .F. ) ;
#385 = DIRECTION ( 'NONE',  ( -0.000000000000000000, 1.000000000000000000, -0.000000000000000000 ) ) ;
#386 = EDGE_LOOP ( 'NONE', ( #405, #176 ) ) ;
#387 = DIRECTION ( 'NONE',  ( -0.9958932064677038509, 0.000000000000000000, 0.09053574604251829472 ) ) ;
#388 = AXIS2_PLACEMENT_3D ( 'NONE', #74, #385, #105 ) ;
#389 = CIRCLE ( 'NONE', #184, 1.099999999999999645 ) ;
#390 = ORIENTED_EDGE ( 'NONE', *, *, #439, .T. ) ;
#391 = ADVANCED_FACE ( 'NONE', ( #365, #432, #116 ), #10, .F. ) ;
#392 = APPLICATION_CONTEXT ( 'automotive_design' ) ;
#393 = DIRECTION ( 'NONE',  ( -0.09053574604251829472, 0.000000000000000000, 0.9958932064677038509 ) ) ;
#394 = ORIENTED_EDGE ( 'NONE', *, *, #233, .F. ) ;
#395 = DIRECTION ( 'NONE',  ( 0.000000000000000000, 0.000000000000000000, 1.000000000000000000 ) ) ;
#396 = VERTEX_POINT ( 'NONE', #440 ) ;
#397 = EDGE_CURVE ( 'NONE', #361, #142, #332, .T. ) ;
#398 = LINE ( 'NONE', #437, #247 ) ;
#399 = VECTOR ( 'NONE', #39, 1000.000000000000000 ) ;
#400 = ORIENTED_EDGE ( 'NONE', *, *, #32, .F. ) ;
#401 = AXIS2_PLACEMENT_3D ( 'NONE', #147, #285, #430 ) ;
#402 = CARTESIAN_POINT ( 'NONE',  ( 0.4999999999999978351, 3.000000000000000000, -8.000000000000000000 ) ) ;
#403 = ORIENTED_EDGE ( 'NONE', *, *, #415, .F. ) ;
#404 = LINE ( 'NONE', #224, #24 ) ;
#405 = ORIENTED_EDGE ( 'NONE', *, *, #279, .F. ) ;
#406 = CYLINDRICAL_SURFACE ( 'NONE', #70, 2.000000000000000000 ) ;
#407 = ORIENTED_EDGE ( 'NONE', *, *, #114, .F. ) ;
#408 = EDGE_CURVE ( 'NONE', #434, #410, #404, .T. ) ;
#409 = CARTESIAN_POINT ( 'NONE',  ( 2.499999999999998668, 0.000000000000000000, -13.00000000000000000 ) ) ;
#410 = VERTEX_POINT ( 'NONE', #333 ) ;
#411 = DIRECTION ( 'NONE',  ( 0.000000000000000000, 1.000000000000000000, -0.000000000000000000 ) ) ;
#412 = ADVANCED_FACE ( 'NONE', ( #126 ), #220, .F. ) ;
#413 = APPLICATION_PROTOCOL_DEFINITION ( 'draft international standard', 'automotive_design', 1998, #106 ) ;
#414 =( NAMED_UNIT ( * ) PLANE_ANGLE_UNIT ( ) SI_UNIT ( $, .RADIAN. ) );
#415 = EDGE_CURVE ( 'NONE', #215, #88, #187, .T. ) ;
#416 = CARTESIAN_POINT ( 'NONE',  ( 0.4999999999999970579, 0.000000000000000000, -13.00000000000000000 ) ) ;
#417 = FILL_AREA_STYLE ('',( #59 ) ) ;
#418 = DIRECTION ( 'NONE',  ( -1.000000000000000000, 0.000000000000000000, 1.239088197126290570E-16 ) ) ;
#419 = CARTESIAN_POINT ( 'NONE',  ( 2.499999999999999112, 0.000000000000000000, -1.399999999999999467 ) ) ;
#420 = VECTOR ( 'NONE', #170, 1000.000000000000000 ) ;
#421 = LINE ( 'NONE', #103, #89 ) ;
#422 = FACE_OUTER_BOUND ( 'NONE', #21, .T. ) ;
#423 = VERTEX_POINT ( 'NONE', #156 ) ;
#424 = CARTESIAN_POINT ( 'NONE',  ( 2.499999999999999112, 3.000000000000000000, -2.499999999999999112 ) ) ;
#425 = ORIENTED_EDGE ( 'NONE', *, *, #35, .F. ) ;
#426 = LINE ( 'NONE', #36, #23 ) ;
#427 = AXIS2_PLACEMENT_3D ( 'NONE', #342, #411, #345 ) ;
#428 =( GEOMETRIC_REPRESENTATION_CONTEXT ( 3 ) GLOBAL_UNCERTAINTY_ASSIGNED_CONTEXT ( ( #73 ) ) GLOBAL_UNIT_ASSIGNED_CONTEXT ( ( #130, #61, #234 ) ) REPRESENTATION_CONTEXT ( 'NONE', 'WORKASPACE' ) );
#429 = ORIENTED_EDGE ( 'NONE', *, *, #96, .T. ) ;
#430 = DIRECTION ( 'NONE',  ( 0.000000000000000000, 0.000000000000000000, 1.000000000000000000 ) ) ;
#431 = ORIENTED_EDGE ( 'NONE', *, *, #35, .T. ) ;
#432 = FACE_BOUND ( 'NONE', #282, .T. ) ;
#433 = DIRECTION ( 'NONE',  ( 0.000000000000000000, 1.000000000000000000, -0.000000000000000000 ) ) ;
#434 = VERTEX_POINT ( 'NONE', #402 ) ;
#435 = DIRECTION ( 'NONE',  ( 0.000000000000000000, -1.000000000000000000, 0.000000000000000000 ) ) ;
#436 = ORIENTED_EDGE ( 'NONE', *, *, #371, .F. ) ;
#437 = CARTESIAN_POINT ( 'NONE',  ( 2.499999999999998668, 0.000000000000000000, -13.75000000000000000 ) ) ;
#438 = PRESENTATION_STYLE_ASSIGNMENT (( #336 ) ) ;
#439 = EDGE_CURVE ( 'NONE', #373, #78, #368, .T. ) ;
#440 = CARTESIAN_POINT ( 'NONE',  ( 1.355252715606880543E-17, 0.000000000000000000, -2.500000000000010214 ) ) ;
#441 = VERTEX_POINT ( 'NONE', #294 ) ;
#442 = CIRCLE ( 'NONE', #218, 0.7500000000000006661 ) ;
#443 = LINE ( 'NONE', #445, #240 ) ;
#444 = PRODUCT_CONTEXT ( 'NONE', #106, 'mechanical' ) ;
#445 = CARTESIAN_POINT ( 'NONE',  ( 4.500000000000001776, 3.000000000000000000, -5.575896887068308799E-16 ) ) ;
#446 = PRODUCT_RELATED_PRODUCT_CATEGORY ( 'part', '', ( #202 ) ) ;
#447 = CARTESIAN_POINT ( 'NONE',  ( 2.499999999999998668, 0.000000000000000000, -13.75000000000000000 ) ) ;
#448 = VECTOR ( 'NONE', #68, 1000.000000000000000 ) ;
#449 = PLANE ( 'NONE',  #454 ) ;
#450 = DIRECTION ( 'NONE',  ( -0.000000000000000000, 1.000000000000000000, -0.000000000000000000 ) ) ;
#451 = EDGE_CURVE ( 'NONE', #183, #410, #38, .T. ) ;
#452 = ADVANCED_FACE ( 'NONE', ( #94 ), #449, .F. ) ;
#453 = FACE_OUTER_BOUND ( 'NONE', #213, .T. ) ;
#454 = AXIS2_PLACEMENT_3D ( 'NONE', #169, #375, #26 ) ;
#455 = CYLINDRICAL_SURFACE ( 'NONE', #108, 1.099999999999999645 ) ;
ENDSEC;
END-ISO-10303-21;
