ISO-10303-21;
HEADER;
FILE_DESCRIPTION (( 'STEP AP214' ),
    '1' );
FILE_NAME ('Rod new lip middle.STEP',
    '2025-10-21T18:57:18',
    ( 'Windows User' ),
    ( '' ),
    'SwSTEP 2.0',
    'SolidWorks 2023',
    '' );
FILE_SCHEMA (( 'AUTOMOTIVE_DESIGN' ));
ENDSEC;

DATA;
#1 = EDGE_LOOP ( 'NONE', ( #312, #155, #552, #458 ) ) ;
#2 =( LENGTH_UNIT ( ) NAMED_UNIT ( * ) SI_UNIT ( .MILLI., .METRE. ) );
#3 = ORIENTED_EDGE ( 'NONE', *, *, #178, .T. ) ;
#4 = CARTESIAN_POINT ( 'NONE',  ( 16.00000000000000000, -7.000000000000000000, 0.000000000000000000 ) ) ;
#5 = ORIENTED_EDGE ( 'NONE', *, *, #292, .T. ) ;
#6 = DIRECTION ( 'NONE',  ( -0.000000000000000000, 1.000000000000000000, -0.000000000000000000 ) ) ;
#7 = MANIFOLD_SOLID_BREP ( 'Boss-Extrude2', #321 ) ;
#8 = DIRECTION ( 'NONE',  ( -0.000000000000000000, -1.000000000000000000, -0.000000000000000000 ) ) ;
#9 = VECTOR ( 'NONE', #87, 1000.000000000000000 ) ;
#10 = ORIENTED_EDGE ( 'NONE', *, *, #21, .T. ) ;
#11 = PRESENTATION_STYLE_ASSIGNMENT (( #52 ) ) ;
#12 = FILL_AREA_STYLE ('',( #289 ) ) ;
#13 = VERTEX_POINT ( 'NONE', #426 ) ;
#14 =( LENGTH_UNIT ( ) NAMED_UNIT ( * ) SI_UNIT ( .MILLI., .METRE. ) );
#15 =( LENGTH_UNIT ( ) NAMED_UNIT ( * ) SI_UNIT ( .MILLI., .METRE. ) );
#16 = ORIENTED_EDGE ( 'NONE', *, *, #21, .F. ) ;
#17 = ORIENTED_EDGE ( 'NONE', *, *, #207, .T. ) ;
#18 = VECTOR ( 'NONE', #318, 1000.000000000000000 ) ;
#19 = DIRECTION ( 'NONE',  ( 0.000000000000000000, 0.000000000000000000, 1.000000000000000000 ) ) ;
#20 = CIRCLE ( 'NONE', #326, 1.000000000000001554 ) ;
#21 = EDGE_CURVE ( 'NONE', #144, #214, #290, .T. ) ;
#22 = DIRECTION ( 'NONE',  ( -0.000000000000000000, 1.000000000000000000, -0.000000000000000000 ) ) ;
#23 = VERTEX_POINT ( 'NONE', #199 ) ;
#24 = DIRECTION ( 'NONE',  ( 0.000000000000000000, 0.000000000000000000, 1.000000000000000000 ) ) ;
#25 = EDGE_LOOP ( 'NONE', ( #512, #101 ) ) ;
#26 = DIRECTION ( 'NONE',  ( 0.000000000000000000, -1.000000000000000000, 0.000000000000000000 ) ) ;
#27 =( LENGTH_UNIT ( ) NAMED_UNIT ( * ) SI_UNIT ( .MILLI., .METRE. ) );
#28 = CIRCLE ( 'NONE', #99, 1.000000000000001554 ) ;
#29 = CARTESIAN_POINT ( 'NONE',  ( 1.451385308233929128E-14, 3.000000000000000000, 2.000000000000000000 ) ) ;
#30 =( GEOMETRIC_REPRESENTATION_CONTEXT ( 3 ) GLOBAL_UNCERTAINTY_ASSIGNED_CONTEXT ( ( #256 ) ) GLOBAL_UNIT_ASSIGNED_CONTEXT ( ( #27, #297, #39 ) ) REPRESENTATION_CONTEXT ( 'NONE', 'WORKASPACE' ) );
#31 = COLOUR_RGB ( '',0.9686274509803921573, 0.2588235294117646745, 0.2588235294117646745 ) ;
#32 = AXIS2_PLACEMENT_3D ( 'NONE', #129, #6, #490 ) ;
#33 = DIRECTION ( 'NONE',  ( -0.000000000000000000, 1.000000000000000000, -0.000000000000000000 ) ) ;
#34 = FILL_AREA_STYLE ('',( #564 ) ) ;
#35 = SURFACE_STYLE_USAGE ( .BOTH. , #577 ) ;
#36 = CARTESIAN_POINT ( 'NONE',  ( 16.00000000000000000, 3.000000000000000000, 1.000000000000001554 ) ) ;
#37 = CARTESIAN_POINT ( 'NONE',  ( 16.00000000000000000, -7.000000000000000000, 1.000000000000001554 ) ) ;
#38 = COLOUR_RGB ( '',0.9686274509803921573, 0.2588235294117646745, 0.2588235294117646745 ) ;
#39 =( NAMED_UNIT ( * ) SI_UNIT ( $, .STERADIAN. ) SOLID_ANGLE_UNIT ( ) );
#40 = PRESENTATION_LAYER_ASSIGNMENT (  '', '', ( #296 ) ) ;
#41 = EDGE_CURVE ( 'NONE', #356, #360, #371, .T. ) ;
#42 = FACE_OUTER_BOUND ( 'NONE', #45, .T. ) ;
#43 = EDGE_CURVE ( 'NONE', #63, #429, #245, .T. ) ;
#44 = FILL_AREA_STYLE ('',( #410 ) ) ;
#45 = EDGE_LOOP ( 'NONE', ( #229, #142, #151, #3 ) ) ;
#46 = MECHANICAL_DESIGN_GEOMETRIC_PRESENTATION_REPRESENTATION (  '', ( #576 ), #459 ) ;
#47 = CARTESIAN_POINT ( 'NONE',  ( 13.00000000000000178, -7.000000000000000000, -2.000000000000000000 ) ) ;
#48 = ADVANCED_BREP_SHAPE_REPRESENTATION ( 'Rod new lip middle', ( #7, #286 ), #451 ) ;
#49 = DIRECTION ( 'NONE',  ( 0.000000000000000000, 0.000000000000000000, 1.000000000000000000 ) ) ;
#50 = ORIENTED_EDGE ( 'NONE', *, *, #62, .T. ) ;
#51 = ORIENTED_EDGE ( 'NONE', *, *, #223, .F. ) ;
#52 = SURFACE_STYLE_USAGE ( .BOTH. , #272 ) ;
#53 = SURFACE_STYLE_FILL_AREA ( #44 ) ;
#54 = VECTOR ( 'NONE', #192, 1000.000000000000000 ) ;
#55 = EDGE_LOOP ( 'NONE', ( #362, #16, #17, #5, #540, #518 ) ) ;
#56 =( NAMED_UNIT ( * ) PLANE_ANGLE_UNIT ( ) SI_UNIT ( $, .RADIAN. ) );
#57 = EDGE_LOOP ( 'NONE', ( #368, #542, #112, #555 ) ) ;
#58 = PRESENTATION_STYLE_ASSIGNMENT (( #374 ) ) ;
#59 = VERTEX_POINT ( 'NONE', #205 ) ;
#60 = ORIENTED_EDGE ( 'NONE', *, *, #120, .T. ) ;
#61 = STYLED_ITEM ( 'NONE', ( #165 ), #359 ) ;
#62 = EDGE_CURVE ( 'NONE', #494, #449, #76, .T. ) ;
#63 = VERTEX_POINT ( 'NONE', #204 ) ;
#64 = SURFACE_STYLE_FILL_AREA ( #302 ) ;
#65 = SURFACE_STYLE_FILL_AREA ( #383 ) ;
#66 = PRESENTATION_STYLE_ASSIGNMENT (( #384 ) ) ;
#67 = FILL_AREA_STYLE ('',( #389 ) ) ;
#68 = DIRECTION ( 'NONE',  ( -0.000000000000000000, -1.000000000000000000, -0.000000000000000000 ) ) ;
#69 = DIRECTION ( 'NONE',  ( -0.000000000000000000, 1.000000000000000000, -0.000000000000000000 ) ) ;
#70 = PRESENTATION_LAYER_ASSIGNMENT (  '', '', ( #325 ) ) ;
#71 = CARTESIAN_POINT ( 'NONE',  ( -15.00000000000000000, 0.000000000000000000, -0.9999999999998930855 ) ) ;
#72 = FILL_AREA_STYLE_COLOUR ( '', #344 ) ;
#73 = CARTESIAN_POINT ( 'NONE',  ( 13.00000000000000178, 0.000000000000000000, 1.999999999999905409 ) ) ;
#74 = SURFACE_SIDE_STYLE ('',( #394 ) ) ;
#75 = ADVANCED_FACE ( 'NONE', ( #126, #295 ), #211, .F. ) ;
#76 = LINE ( 'NONE', #435, #209 ) ;
#77 = UNCERTAINTY_MEASURE_WITH_UNIT (LENGTH_MEASURE( 1.000000000000000082E-05 ), #14, 'distance_accuracy_value', 'NONE');
#78 = MECHANICAL_DESIGN_GEOMETRIC_PRESENTATION_REPRESENTATION (  '', ( #189 ), #148 ) ;
#79 =( NAMED_UNIT ( * ) SI_UNIT ( $, .STERADIAN. ) SOLID_ANGLE_UNIT ( ) );
#80 =( GEOMETRIC_REPRESENTATION_CONTEXT ( 3 ) GLOBAL_UNCERTAINTY_ASSIGNED_CONTEXT ( ( #446 ) ) GLOBAL_UNIT_ASSIGNED_CONTEXT ( ( #349, #150, #269 ) ) REPRESENTATION_CONTEXT ( 'NONE', 'WORKASPACE' ) );
#81 = LINE ( 'NONE', #496, #9 ) ;
#82 = ORIENTED_EDGE ( 'NONE', *, *, #248, .T. ) ;
#83 = DIRECTION ( 'NONE',  ( 0.000000000000000000, -1.000000000000000000, 0.000000000000000000 ) ) ;
#84 = STYLED_ITEM ( 'NONE', ( #375 ), #7 ) ;
#85 = STYLED_ITEM ( 'NONE', ( #361 ), #197 ) ;
#86 = AXIS2_PLACEMENT_3D ( 'NONE', #570, #157, #19 ) ;
#87 = DIRECTION ( 'NONE',  ( 0.000000000000000000, 0.000000000000000000, -1.000000000000000000 ) ) ;
#88 = VERTEX_POINT ( 'NONE', #37 ) ;
#89 = PRODUCT ( 'Rod new lip middle', 'Rod new lip middle', '', ( #260 ) ) ;
#90 = UNCERTAINTY_MEASURE_WITH_UNIT (LENGTH_MEASURE( 1.000000000000000082E-05 ), #532, 'distance_accuracy_value', 'NONE');
#91 = LINE ( 'NONE', #365, #18 ) ;
#92 = ORIENTED_EDGE ( 'NONE', *, *, #219, .T. ) ;
#93 = CARTESIAN_POINT ( 'NONE',  ( 13.00000000000000178, -7.000000000000000000, 2.000000000000000000 ) ) ;
#94 = ADVANCED_FACE ( 'NONE', ( #166, #117 ), #252, .T. ) ;
#95 = CARTESIAN_POINT ( 'NONE',  ( 13.00000000000000178, -7.000000000000000000, -2.000000000000000000 ) ) ;
#96 = VERTEX_POINT ( 'NONE', #36 ) ;
#97 =( NAMED_UNIT ( * ) PLANE_ANGLE_UNIT ( ) SI_UNIT ( $, .RADIAN. ) );
#98 = UNCERTAINTY_MEASURE_WITH_UNIT (LENGTH_MEASURE( 1.000000000000000082E-05 ), #15, 'distance_accuracy_value', 'NONE');
#99 = AXIS2_PLACEMENT_3D ( 'NONE', #213, #501, #493 ) ;
#100 = FILL_AREA_STYLE_COLOUR ( '', #536 ) ;
#101 = ORIENTED_EDGE ( 'NONE', *, *, #287, .F. ) ;
#102 =( GEOMETRIC_REPRESENTATION_CONTEXT ( 3 ) GLOBAL_UNCERTAINTY_ASSIGNED_CONTEXT ( ( #346 ) ) GLOBAL_UNIT_ASSIGNED_CONTEXT ( ( #183, #97, #418 ) ) REPRESENTATION_CONTEXT ( 'NONE', 'WORKASPACE' ) );
#103 = SURFACE_STYLE_USAGE ( .BOTH. , #464 ) ;
#104 = CARTESIAN_POINT ( 'NONE',  ( 16.00000000000000000, 3.000000000000000000, -2.000000000000000000 ) ) ;
#105 = VERTEX_POINT ( 'NONE', #251 ) ;
#106 = LINE ( 'NONE', #104, #54 ) ;
#107 = ORIENTED_EDGE ( 'NONE', *, *, #454, .T. ) ;
#108 = FACE_BOUND ( 'NONE', #25, .T. ) ;
#109 = AXIS2_PLACEMENT_3D ( 'NONE', #541, #543, #491 ) ;
#110 = LINE ( 'NONE', #516, #450 ) ;
#111 = PLANE ( 'NONE',  #584 ) ;
#112 = ORIENTED_EDGE ( 'NONE', *, *, #187, .F. ) ;
#113 = LINE ( 'NONE', #476, #557 ) ;
#114 =( NAMED_UNIT ( * ) SI_UNIT ( $, .STERADIAN. ) SOLID_ANGLE_UNIT ( ) );
#115 = DIRECTION ( 'NONE',  ( 0.000000000000000000, 0.000000000000000000, -1.000000000000000000 ) ) ;
#116 = LINE ( 'NONE', #71, #568 ) ;
#117 = FACE_BOUND ( 'NONE', #278, .T. ) ;
#118 =( GEOMETRIC_REPRESENTATION_CONTEXT ( 3 ) GLOBAL_UNCERTAINTY_ASSIGNED_CONTEXT ( ( #98 ) ) GLOBAL_UNIT_ASSIGNED_CONTEXT ( ( #15, #280, #370 ) ) REPRESENTATION_CONTEXT ( 'NONE', 'WORKASPACE' ) );
#119 = MECHANICAL_DESIGN_GEOMETRIC_PRESENTATION_REPRESENTATION (  '', ( #164 ), #364 ) ;
#120 = EDGE_CURVE ( 'NONE', #467, #549, #158, .T. ) ;
#121 = DIRECTION ( 'NONE',  ( 1.000000000000000000, 0.000000000000000000, 0.000000000000000000 ) ) ;
#122 = CYLINDRICAL_SURFACE ( 'NONE', #265, 2.000000000000000000 ) ;
#123 = DIRECTION ( 'NONE',  ( 0.000000000000000000, -1.000000000000000000, 0.000000000000000000 ) ) ;
#124 = CARTESIAN_POINT ( 'NONE',  ( 0.000000000000000000, 0.000000000000000000, 0.000000000000000000 ) ) ;
#125 = FILL_AREA_STYLE_COLOUR ( '', #433 ) ;
#126 = FACE_BOUND ( 'NONE', #174, .T. ) ;
#127 = COLOUR_RGB ( '',0.9686274509803921573, 0.2588235294117646745, 0.2588235294117646745 ) ;
#128 = CIRCLE ( 'NONE', #235, 1.000000000000001554 ) ;
#129 = CARTESIAN_POINT ( 'NONE',  ( 16.00000000000000000, 0.000000000000000000, 0.000000000000000000 ) ) ;
#130 = MECHANICAL_DESIGN_GEOMETRIC_PRESENTATION_REPRESENTATION (  '', ( #585 ), #80 ) ;
#131 = CARTESIAN_POINT ( 'NONE',  ( 16.00000000000000000, -7.000000000000000000, -1.000000000000001554 ) ) ;
#132 = ORIENTED_EDGE ( 'NONE', *, *, #219, .F. ) ;
#133 = ORIENTED_EDGE ( 'NONE', *, *, #381, .F. ) ;
#134 =( GEOMETRIC_REPRESENTATION_CONTEXT ( 3 ) GLOBAL_UNCERTAINTY_ASSIGNED_CONTEXT ( ( #141 ) ) GLOBAL_UNIT_ASSIGNED_CONTEXT ( ( #530, #249, #443 ) ) REPRESENTATION_CONTEXT ( 'NONE', 'WORKASPACE' ) );
#135 = MECHANICAL_DESIGN_GEOMETRIC_PRESENTATION_REPRESENTATION (  '', ( #61 ), #30 ) ;
#136 = PRESENTATION_LAYER_ASSIGNMENT (  '', '', ( #164 ) ) ;
#137 = SURFACE_SIDE_STYLE ('',( #53 ) ) ;
#138 = ORIENTED_EDGE ( 'NONE', *, *, #347, .F. ) ;
#139 = EDGE_CURVE ( 'NONE', #549, #494, #208, .T. ) ;
#140 = SURFACE_STYLE_FILL_AREA ( #143 ) ;
#141 = UNCERTAINTY_MEASURE_WITH_UNIT (LENGTH_MEASURE( 1.000000000000000082E-05 ), #530, 'distance_accuracy_value', 'NONE');
#142 = ORIENTED_EDGE ( 'NONE', *, *, #396, .F. ) ;
#143 = FILL_AREA_STYLE ('',( #324 ) ) ;
#144 = VERTEX_POINT ( 'NONE', #47 ) ;
#145 = EDGE_CURVE ( 'NONE', #227, #88, #28, .T. ) ;
#146 = AXIS2_PLACEMENT_3D ( 'NONE', #445, #177, #350 ) ;
#147 = CARTESIAN_POINT ( 'NONE',  ( -15.00000000000000000, 3.000000000000000000, 1.084183805627360551E-13 ) ) ;
#148 =( GEOMETRIC_REPRESENTATION_CONTEXT ( 3 ) GLOBAL_UNCERTAINTY_ASSIGNED_CONTEXT ( ( #550 ) ) GLOBAL_UNIT_ASSIGNED_CONTEXT ( ( #153, #284, #230 ) ) REPRESENTATION_CONTEXT ( 'NONE', 'WORKASPACE' ) );
#149 = ORIENTED_EDGE ( 'NONE', *, *, #237, .F. ) ;
#150 =( NAMED_UNIT ( * ) PLANE_ANGLE_UNIT ( ) SI_UNIT ( $, .RADIAN. ) );
#151 = ORIENTED_EDGE ( 'NONE', *, *, #43, .T. ) ;
#152 = FACE_OUTER_BOUND ( 'NONE', #522, .T. ) ;
#153 =( LENGTH_UNIT ( ) NAMED_UNIT ( * ) SI_UNIT ( .MILLI., .METRE. ) );
#154 = CARTESIAN_POINT ( 'NONE',  ( -15.00000000000000000, 0.000000000000000000, 1.084183805627360551E-13 ) ) ;
#155 = ORIENTED_EDGE ( 'NONE', *, *, #331, .T. ) ;
#156 = MECHANICAL_DESIGN_GEOMETRIC_PRESENTATION_REPRESENTATION (  '', ( #85 ), #393 ) ;
#157 = DIRECTION ( 'NONE',  ( 0.000000000000000000, 1.000000000000000000, -0.000000000000000000 ) ) ;
#158 = LINE ( 'NONE', #291, #471 ) ;
#159 = SURFACE_STYLE_FILL_AREA ( #481 ) ;
#160 = LINE ( 'NONE', #483, #275 ) ;
#161 = SURFACE_STYLE_USAGE ( .BOTH. , #74 ) ;
#162 = VECTOR ( 'NONE', #33, 1000.000000000000000 ) ;
#163 = CIRCLE ( 'NONE', #497, 2.000000000000000000 ) ;
#164 = STYLED_ITEM ( 'NONE', ( #66 ), #563 ) ;
#165 = PRESENTATION_STYLE_ASSIGNMENT (( #569 ) ) ;
#166 = FACE_OUTER_BOUND ( 'NONE', #268, .T. ) ;
#167 = UNCERTAINTY_MEASURE_WITH_UNIT (LENGTH_MEASURE( 1.000000000000000082E-05 ), #560, 'distance_accuracy_value', 'NONE');
#168 = CARTESIAN_POINT ( 'NONE',  ( 1.451385308233929128E-14, 3.000000000000000000, 2.000000000000000000 ) ) ;
#169 = DIRECTION ( 'NONE',  ( -0.000000000000000000, 1.000000000000000000, -0.000000000000000000 ) ) ;
#170 = FILL_AREA_STYLE_COLOUR ( '', #202 ) ;
#171 = DIRECTION ( 'NONE',  ( 0.000000000000000000, 0.000000000000000000, 1.000000000000000000 ) ) ;
#172 = CIRCLE ( 'NONE', #179, 2.000000000000000000 ) ;
#173 = PRODUCT_DEFINITION_CONTEXT ( 'detailed design', #200, 'design' ) ;
#174 = EDGE_LOOP ( 'NONE', ( #182, #502 ) ) ;
#175 =( NAMED_UNIT ( * ) SI_UNIT ( $, .STERADIAN. ) SOLID_ANGLE_UNIT ( ) );
#176 = ORIENTED_EDGE ( 'NONE', *, *, #43, .F. ) ;
#177 = DIRECTION ( 'NONE',  ( 0.000000000000000000, 1.000000000000000000, -0.000000000000000000 ) ) ;
#178 = EDGE_CURVE ( 'NONE', #429, #105, #430, .T. ) ;
#179 = AXIS2_PLACEMENT_3D ( 'NONE', #4, #83, #262 ) ;
#180 = MECHANICAL_DESIGN_GEOMETRIC_PRESENTATION_REPRESENTATION (  '', ( #499 ), #521 ) ;
#181 = DIRECTION ( 'NONE',  ( -1.000000000000000000, 0.000000000000000000, 0.000000000000000000 ) ) ;
#182 = ORIENTED_EDGE ( 'NONE', *, *, #396, .T. ) ;
#183 =( LENGTH_UNIT ( ) NAMED_UNIT ( * ) SI_UNIT ( .MILLI., .METRE. ) );
#184 = DIRECTION ( 'NONE',  ( 0.000000000000000000, 0.000000000000000000, 1.000000000000000000 ) ) ;
#185 = ORIENTED_EDGE ( 'NONE', *, *, #145, .F. ) ;
#186 = SURFACE_STYLE_USAGE ( .BOTH. , #562 ) ;
#187 = EDGE_CURVE ( 'NONE', #360, #59, #402, .T. ) ;
#188 = DIRECTION ( 'NONE',  ( -1.000000000000000000, 0.000000000000000000, 7.256926541169644063E-15 ) ) ;
#189 = STYLED_ITEM ( 'NONE', ( #58 ), #338 ) ;
#190 = EDGE_LOOP ( 'NONE', ( #456, #417, #271, #508 ) ) ;
#191 = PRESENTATION_STYLE_ASSIGNMENT (( #573 ) ) ;
#192 = DIRECTION ( 'NONE',  ( -0.000000000000000000, -1.000000000000000000, -0.000000000000000000 ) ) ;
#193 = ORIENTED_EDGE ( 'NONE', *, *, #525, .T. ) ;
#194 = DIRECTION ( 'NONE',  ( -0.000000000000000000, 1.000000000000000000, -0.000000000000000000 ) ) ;
#195 = SURFACE_STYLE_FILL_AREA ( #220 ) ;
#196 = DIRECTION ( 'NONE',  ( 1.000000000000000000, 0.000000000000000000, 0.000000000000000000 ) ) ;
#197 = ADVANCED_FACE ( 'NONE', ( #548 ), #355, .T. ) ;
#198 = AXIS2_PLACEMENT_3D ( 'NONE', #398, #345, #342 ) ;
#199 = CARTESIAN_POINT ( 'NONE',  ( 16.00000000000000000, 3.000000000000000000, -1.000000000000001554 ) ) ;
#200 = APPLICATION_CONTEXT ( 'automotive_design' ) ;
#201 = CARTESIAN_POINT ( 'NONE',  ( 16.00000000000000000, -7.000000000000000000, 2.000000000000000000 ) ) ;
#202 = COLOUR_RGB ( '',0.9686274509803921573, 0.2588235294117646745, 0.2588235294117646745 ) ;
#203 = CARTESIAN_POINT ( 'NONE',  ( -1.451385308233929128E-14, 3.000000000000000000, -2.000000000000000000 ) ) ;
#204 = CARTESIAN_POINT ( 'NONE',  ( -15.00000000000000000, 0.000000000000000000, 1.000000000000109912 ) ) ;
#205 = CARTESIAN_POINT ( 'NONE',  ( -14.99999999999998579, 0.000000000000000000, 2.000000000000108802 ) ) ;
#206 = EDGE_CURVE ( 'NONE', #467, #13, #163, .T. ) ;
#207 = EDGE_CURVE ( 'NONE', #144, #404, #537, .T. ) ;
#208 = LINE ( 'NONE', #217, #274 ) ;
#209 = VECTOR ( 'NONE', #169, 1000.000000000000000 ) ;
#210 = PRESENTATION_LAYER_ASSIGNMENT (  '', '', ( #585 ) ) ;
#211 = PLANE ( 'NONE',  #198 ) ;
#212 = CARTESIAN_POINT ( 'NONE',  ( 16.00000000000000000, -7.000000000000000000, 0.000000000000000000 ) ) ;
#213 = CARTESIAN_POINT ( 'NONE',  ( 16.00000000000000000, -7.000000000000000000, 0.000000000000000000 ) ) ;
#214 = VERTEX_POINT ( 'NONE', #306 ) ;
#215 = CIRCLE ( 'NONE', #109, 1.000000000000001554 ) ;
#216 = PRESENTATION_LAYER_ASSIGNMENT (  '', '', ( #578 ) ) ;
#217 = CARTESIAN_POINT ( 'NONE',  ( 16.00000000000000000, -7.000000000000000000, 2.000000000000000000 ) ) ;
#218 = EDGE_LOOP ( 'NONE', ( #407, #51 ) ) ;
#219 = EDGE_CURVE ( 'NONE', #214, #549, #172, .T. ) ;
#220 = FILL_AREA_STYLE ('',( #258 ) ) ;
#221 = EDGE_LOOP ( 'NONE', ( #307, #378, #193, #82 ) ) ;
#222 =( NAMED_UNIT ( * ) PLANE_ANGLE_UNIT ( ) SI_UNIT ( $, .RADIAN. ) );
#223 = EDGE_CURVE ( 'NONE', #23, #96, #215, .T. ) ;
#224 = ORIENTED_EDGE ( 'NONE', *, *, #379, .T. ) ;
#225 = DIRECTION ( 'NONE',  ( 1.000000000000000000, 0.000000000000000000, 0.000000000000000000 ) ) ;
#226 = SURFACE_STYLE_FILL_AREA ( #12 ) ;
#227 = VERTEX_POINT ( 'NONE', #131 ) ;
#228 = UNCERTAINTY_MEASURE_WITH_UNIT (LENGTH_MEASURE( 1.000000000000000082E-05 ), #243, 'distance_accuracy_value', 'NONE');
#229 = ORIENTED_EDGE ( 'NONE', *, *, #411, .F. ) ;
#230 =( NAMED_UNIT ( * ) SI_UNIT ( $, .STERADIAN. ) SOLID_ANGLE_UNIT ( ) );
#231 = CARTESIAN_POINT ( 'NONE',  ( 13.00000000000000178, -7.000000000000000000, -2.000000000000000000 ) ) ;
#232 = FILL_AREA_STYLE_COLOUR ( '', #395 ) ;
#233 = MECHANICAL_DESIGN_GEOMETRIC_PRESENTATION_REPRESENTATION (  '', ( #84 ), #351 ) ;
#234 = DIRECTION ( 'NONE',  ( -0.000000000000000000, 1.000000000000000000, -0.000000000000000000 ) ) ;
#235 = AXIS2_PLACEMENT_3D ( 'NONE', #147, #462, #238 ) ;
#236 =( NAMED_UNIT ( * ) PLANE_ANGLE_UNIT ( ) SI_UNIT ( $, .RADIAN. ) );
#237 = EDGE_CURVE ( 'NONE', #494, #144, #81, .T. ) ;
#238 = DIRECTION ( 'NONE',  ( 0.000000000000000000, 0.000000000000000000, 1.000000000000000000 ) ) ;
#239 = ORIENTED_EDGE ( 'NONE', *, *, #300, .T. ) ;
#240 = DIRECTION ( 'NONE',  ( 1.000000000000000000, 0.000000000000000000, -7.256926541169644063E-15 ) ) ;
#241 = DIRECTION ( 'NONE',  ( 0.000000000000000000, 1.000000000000000000, -0.000000000000000000 ) ) ;
#242 = VERTEX_POINT ( 'NONE', #408 ) ;
#243 =( LENGTH_UNIT ( ) NAMED_UNIT ( * ) SI_UNIT ( .MILLI., .METRE. ) );
#244 = EDGE_CURVE ( 'NONE', #242, #59, #91, .T. ) ;
#245 = LINE ( 'NONE', #440, #162 ) ;
#246 = AXIS2_PLACEMENT_3D ( 'NONE', #432, #571, #439 ) ;
#247 = PLANE ( 'NONE',  #86 ) ;
#248 = EDGE_CURVE ( 'NONE', #96, #23, #294, .T. ) ;
#249 =( NAMED_UNIT ( * ) PLANE_ANGLE_UNIT ( ) SI_UNIT ( $, .RADIAN. ) );
#250 = LINE ( 'NONE', #168, #489 ) ;
#251 = CARTESIAN_POINT ( 'NONE',  ( -15.00000000000000000, 3.000000000000000000, -0.9999999999998930855 ) ) ;
#252 = PLANE ( 'NONE',  #263 ) ;
#253 = AXIS2_PLACEMENT_3D ( 'NONE', #29, #333, #240 ) ;
#254 = FILL_AREA_STYLE_COLOUR ( '', #127 ) ;
#255 =( LENGTH_UNIT ( ) NAMED_UNIT ( * ) SI_UNIT ( .MILLI., .METRE. ) );
#256 = UNCERTAINTY_MEASURE_WITH_UNIT (LENGTH_MEASURE( 1.000000000000000082E-05 ), #27, 'distance_accuracy_value', 'NONE');
#257 = DIRECTION ( 'NONE',  ( 0.000000000000000000, 0.000000000000000000, -1.000000000000000000 ) ) ;
#258 = FILL_AREA_STYLE_COLOUR ( '', #448 ) ;
#259 = ORIENTED_EDGE ( 'NONE', *, *, #237, .T. ) ;
#260 = PRODUCT_CONTEXT ( 'NONE', #322, 'mechanical' ) ;
#261 = PRODUCT_DEFINITION_SHAPE ( 'NONE', 'NONE',  #310 ) ;
#262 = DIRECTION ( 'NONE',  ( 0.000000000000000000, 0.000000000000000000, -1.000000000000000000 ) ) ;
#263 = AXIS2_PLACEMENT_3D ( 'NONE', #212, #123, #437 ) ;
#264 = COLOUR_RGB ( '',0.9686274509803921573, 0.2588235294117646745, 0.2588235294117646745 ) ;
#265 = AXIS2_PLACEMENT_3D ( 'NONE', #391, #486, #293 ) ;
#266 = CARTESIAN_POINT ( 'NONE',  ( 16.00000000000000000, 3.000000000000000000, 0.000000000000000000 ) ) ;
#267 = ORIENTED_EDGE ( 'NONE', *, *, #206, .T. ) ;
#268 = EDGE_LOOP ( 'NONE', ( #92, #281, #259, #10 ) ) ;
#269 =( NAMED_UNIT ( * ) SI_UNIT ( $, .STERADIAN. ) SOLID_ANGLE_UNIT ( ) );
#270 = CARTESIAN_POINT ( 'NONE',  ( -15.00000000000000000, 0.000000000000000000, -0.9999999999998930855 ) ) ;
#271 = ORIENTED_EDGE ( 'NONE', *, *, #379, .F. ) ;
#272 = SURFACE_SIDE_STYLE ('',( #369 ) ) ;
#273 = MECHANICAL_DESIGN_GEOMETRIC_PRESENTATION_REPRESENTATION (  '', ( #567 ), #134 ) ;
#274 = VECTOR ( 'NONE', #181, 1000.000000000000000 ) ;
#275 = VECTOR ( 'NONE', #479, 1000.000000000000000 ) ;
#276 = VERTEX_POINT ( 'NONE', #270 ) ;
#277 = SURFACE_SIDE_STYLE ('',( #425 ) ) ;
#278 = EDGE_LOOP ( 'NONE', ( #319, #185 ) ) ;
#279 = CARTESIAN_POINT ( 'NONE',  ( -15.00000000000000000, 0.000000000000000000, 1.084183805627360551E-13 ) ) ;
#280 =( NAMED_UNIT ( * ) PLANE_ANGLE_UNIT ( ) SI_UNIT ( $, .RADIAN. ) );
#281 = ORIENTED_EDGE ( 'NONE', *, *, #139, .T. ) ;
#282 = SURFACE_SIDE_STYLE ('',( #159 ) ) ;
#283 = ADVANCED_FACE ( 'NONE', ( #457 ), #400, .F. ) ;
#284 =( NAMED_UNIT ( * ) PLANE_ANGLE_UNIT ( ) SI_UNIT ( $, .RADIAN. ) );
#285 = VECTOR ( 'NONE', #188, 1000.000000000000000 ) ;
#286 = AXIS2_PLACEMENT_3D ( 'NONE', #124, #531, #121 ) ;
#287 = EDGE_CURVE ( 'NONE', #105, #429, #128, .T. ) ;
#288 =( NAMED_UNIT ( * ) PLANE_ANGLE_UNIT ( ) SI_UNIT ( $, .RADIAN. ) );
#289 = FILL_AREA_STYLE_COLOUR ( '', #38 ) ;
#290 = LINE ( 'NONE', #231, #423 ) ;
#291 = CARTESIAN_POINT ( 'NONE',  ( 16.00000000000000000, 3.000000000000000000, 2.000000000000000000 ) ) ;
#292 = EDGE_CURVE ( 'NONE', #404, #360, #554, .T. ) ;
#293 = DIRECTION ( 'NONE',  ( 0.000000000000000000, 0.000000000000000000, -1.000000000000000000 ) ) ;
#294 = CIRCLE ( 'NONE', #472, 1.000000000000001554 ) ;
#295 = FACE_OUTER_BOUND ( 'NONE', #57, .T. ) ;
#296 = STYLED_ITEM ( 'NONE', ( #317 ), #466 ) ;
#297 =( NAMED_UNIT ( * ) PLANE_ANGLE_UNIT ( ) SI_UNIT ( $, .RADIAN. ) );
#298 =( NAMED_UNIT ( * ) SI_UNIT ( $, .STERADIAN. ) SOLID_ANGLE_UNIT ( ) );
#299 = DIRECTION ( 'NONE',  ( 7.256926541169644063E-15, -0.000000000000000000, 1.000000000000000000 ) ) ;
#300 = EDGE_CURVE ( 'NONE', #449, #404, #565, .T. ) ;
#301 = UNCERTAINTY_MEASURE_WITH_UNIT (LENGTH_MEASURE( 1.000000000000000082E-05 ), #515, 'distance_accuracy_value', 'NONE');
#302 = FILL_AREA_STYLE ('',( #125 ) ) ;
#303 = PRESENTATION_LAYER_ASSIGNMENT (  '', '', ( #567 ) ) ;
#304 =( NAMED_UNIT ( * ) PLANE_ANGLE_UNIT ( ) SI_UNIT ( $, .RADIAN. ) );
#305 = VECTOR ( 'NONE', #327, 1000.000000000000000 ) ;
#306 = CARTESIAN_POINT ( 'NONE',  ( 16.00000000000000000, -7.000000000000000000, -2.000000000000000000 ) ) ;
#307 = ORIENTED_EDGE ( 'NONE', *, *, #331, .F. ) ;
#308 = UNCERTAINTY_MEASURE_WITH_UNIT (LENGTH_MEASURE( 1.000000000000000082E-05 ), #572, 'distance_accuracy_value', 'NONE');
#309 = DIRECTION ( 'NONE',  ( -0.000000000000000000, 1.000000000000000000, -0.000000000000000000 ) ) ;
#310 = PRODUCT_DEFINITION ( 'General', '', #315, #173 ) ;
#311 = DIRECTION ( 'NONE',  ( 0.000000000000000000, 0.000000000000000000, 1.000000000000000000 ) ) ;
#312 = ORIENTED_EDGE ( 'NONE', *, *, #581, .T. ) ;
#313 = AXIS2_PLACEMENT_3D ( 'NONE', #154, #416, #514 ) ;
#314 = CIRCLE ( 'NONE', #246, 1.000000000000001554 ) ;
#315 = PRODUCT_DEFINITION_FORMATION_WITH_SPECIFIED_SOURCE ( 'Symmetric', '', #89, .NOT_KNOWN. ) ;
#316 = ORIENTED_EDGE ( 'NONE', *, *, #454, .F. ) ;
#317 = PRESENTATION_STYLE_ASSIGNMENT (( #103 ) ) ;
#318 = DIRECTION ( 'NONE',  ( -0.000000000000000000, -1.000000000000000000, -0.000000000000000000 ) ) ;
#319 = ORIENTED_EDGE ( 'NONE', *, *, #581, .F. ) ;
#320 = PRESENTATION_STYLE_ASSIGNMENT (( #553 ) ) ;
#321 = CLOSED_SHELL ( 'NONE', ( #338, #477, #75, #359, #392, #579, #197, #563, #283, #500, #94, #466 ) ) ;
#322 = APPLICATION_CONTEXT ( 'automotive_design' ) ;
#323 = EDGE_LOOP ( 'NONE', ( #239, #366, #149, #50 ) ) ;
#324 = FILL_AREA_STYLE_COLOUR ( '', #354 ) ;
#325 = STYLED_ITEM ( 'NONE', ( #524 ), #392 ) ;
#326 = AXIS2_PLACEMENT_3D ( 'NONE', #279, #523, #24 ) ;
#327 = DIRECTION ( 'NONE',  ( 0.000000000000000000, 0.000000000000000000, -1.000000000000000000 ) ) ;
#328 = ORIENTED_EDGE ( 'NONE', *, *, #287, .T. ) ;
#329 =( NAMED_UNIT ( * ) SI_UNIT ( $, .STERADIAN. ) SOLID_ANGLE_UNIT ( ) );
#330 = EDGE_LOOP ( 'NONE', ( #419, #505, #328, #176 ) ) ;
#331 = EDGE_CURVE ( 'NONE', #227, #23, #517, .T. ) ;
#332 =( NAMED_UNIT ( * ) SI_UNIT ( $, .STERADIAN. ) SOLID_ANGLE_UNIT ( ) );
#333 = DIRECTION ( 'NONE',  ( 7.256926541169644063E-15, -0.000000000000000000, 1.000000000000000000 ) ) ;
#334 = PRESENTATION_LAYER_ASSIGNMENT (  '', '', ( #84 ) ) ;
#335 = FACE_OUTER_BOUND ( 'NONE', #55, .T. ) ;
#336 = STYLED_ITEM ( 'NONE', ( #382 ), #283 ) ;
#337 = CARTESIAN_POINT ( 'NONE',  ( -15.00000000000000000, 3.000000000000000000, 1.084183805627360551E-13 ) ) ;
#338 = ADVANCED_FACE ( 'NONE', ( #420 ), #474, .F. ) ;
#339 = SURFACE_STYLE_FILL_AREA ( #533 ) ;
#340 = FACE_OUTER_BOUND ( 'NONE', #498, .T. ) ;
#341 = DIRECTION ( 'NONE',  ( 1.000000000000000000, 0.000000000000000000, -7.256926541169644063E-15 ) ) ;
#342 = DIRECTION ( 'NONE',  ( 0.000000000000000000, 0.000000000000000000, 1.000000000000000000 ) ) ;
#343 =( NAMED_UNIT ( * ) SI_UNIT ( $, .STERADIAN. ) SOLID_ANGLE_UNIT ( ) );
#344 = COLOUR_RGB ( '',0.9686274509803921573, 0.2588235294117646745, 0.2588235294117646745 ) ;
#345 = DIRECTION ( 'NONE',  ( 0.000000000000000000, 1.000000000000000000, -0.000000000000000000 ) ) ;
#346 = UNCERTAINTY_MEASURE_WITH_UNIT (LENGTH_MEASURE( 1.000000000000000082E-05 ), #183, 'distance_accuracy_value', 'NONE');
#347 = EDGE_CURVE ( 'NONE', #13, #214, #106, .T. ) ;
#348 = FACE_OUTER_BOUND ( 'NONE', #323, .T. ) ;
#349 =( LENGTH_UNIT ( ) NAMED_UNIT ( * ) SI_UNIT ( .MILLI., .METRE. ) );
#350 = DIRECTION ( 'NONE',  ( 0.000000000000000000, 0.000000000000000000, 1.000000000000000000 ) ) ;
#351 =( GEOMETRIC_REPRESENTATION_CONTEXT ( 3 ) GLOBAL_UNCERTAINTY_ASSIGNED_CONTEXT ( ( #301 ) ) GLOBAL_UNIT_ASSIGNED_CONTEXT ( ( #515, #236, #332 ) ) REPRESENTATION_CONTEXT ( 'NONE', 'WORKASPACE' ) );
#352 = MECHANICAL_DESIGN_GEOMETRIC_PRESENTATION_REPRESENTATION (  '', ( #336 ), #118 ) ;
#353 = AXIS2_PLACEMENT_3D ( 'NONE', #561, #22, #184 ) ;
#354 = COLOUR_RGB ( '',0.9686274509803921573, 0.2588235294117646745, 0.2588235294117646745 ) ;
#355 = CYLINDRICAL_SURFACE ( 'NONE', #488, 2.000000000000000000 ) ;
#356 = VERTEX_POINT ( 'NONE', #469 ) ;
#357 = PRODUCT_RELATED_PRODUCT_CATEGORY ( 'part', '', ( #89 ) ) ;
#358 = DIRECTION ( 'NONE',  ( 0.000000000000000000, 1.000000000000000000, -0.000000000000000000 ) ) ;
#359 = ADVANCED_FACE ( 'NONE', ( #335 ), #111, .F. ) ;
#360 = VERTEX_POINT ( 'NONE', #387 ) ;
#361 = PRESENTATION_STYLE_ASSIGNMENT (( #401 ) ) ;
#362 = ORIENTED_EDGE ( 'NONE', *, *, #347, .T. ) ;
#363 = AXIS2_PLACEMENT_3D ( 'NONE', #337, #241, #574 ) ;
#364 =( GEOMETRIC_REPRESENTATION_CONTEXT ( 3 ) GLOBAL_UNCERTAINTY_ASSIGNED_CONTEXT ( ( #228 ) ) GLOBAL_UNIT_ASSIGNED_CONTEXT ( ( #243, #468, #422 ) ) REPRESENTATION_CONTEXT ( 'NONE', 'WORKASPACE' ) );
#365 = CARTESIAN_POINT ( 'NONE',  ( -14.99999999999998579, 3.000000000000000000, 2.000000000000108802 ) ) ;
#366 = ORIENTED_EDGE ( 'NONE', *, *, #207, .F. ) ;
#367 = SURFACE_SIDE_STYLE ('',( #226 ) ) ;
#368 = ORIENTED_EDGE ( 'NONE', *, *, #300, .F. ) ;
#369 = SURFACE_STYLE_FILL_AREA ( #414 ) ;
#370 =( NAMED_UNIT ( * ) SI_UNIT ( $, .STERADIAN. ) SOLID_ANGLE_UNIT ( ) );
#371 = LINE ( 'NONE', #386, #413 ) ;
#372 = CYLINDRICAL_SURFACE ( 'NONE', #415, 1.000000000000001554 ) ;
#373 =( GEOMETRIC_REPRESENTATION_CONTEXT ( 3 ) GLOBAL_UNCERTAINTY_ASSIGNED_CONTEXT ( ( #77 ) ) GLOBAL_UNIT_ASSIGNED_CONTEXT ( ( #14, #56, #79 ) ) REPRESENTATION_CONTEXT ( 'NONE', 'WORKASPACE' ) );
#374 = SURFACE_STYLE_USAGE ( .BOTH. , #277 ) ;
#375 = PRESENTATION_STYLE_ASSIGNMENT (( #186 ) ) ;
#376 = FACE_BOUND ( 'NONE', #218, .T. ) ;
#377 = SURFACE_STYLE_USAGE ( .BOTH. , #551 ) ;
#378 = ORIENTED_EDGE ( 'NONE', *, *, #145, .T. ) ;
#379 = EDGE_CURVE ( 'NONE', #356, #242, #545, .T. ) ;
#380 = PLANE ( 'NONE',  #253 ) ;
#381 = EDGE_CURVE ( 'NONE', #449, #59, #160, .T. ) ;
#382 = PRESENTATION_STYLE_ASSIGNMENT (( #377 ) ) ;
#383 = FILL_AREA_STYLE ('',( #421 ) ) ;
#384 = SURFACE_STYLE_USAGE ( .BOTH. , #282 ) ;
#385 = PRESENTATION_LAYER_ASSIGNMENT (  '', '', ( #61 ) ) ;
#386 = CARTESIAN_POINT ( 'NONE',  ( -15.00000000000001421, 3.000000000000000000, -1.999999999999891198 ) ) ;
#387 = CARTESIAN_POINT ( 'NONE',  ( -15.00000000000001421, 0.000000000000000000, -1.999999999999891198 ) ) ;
#388 = PRESENTATION_STYLE_ASSIGNMENT (( #161 ) ) ;
#389 = FILL_AREA_STYLE_COLOUR ( '', #31 ) ;
#390 =( NAMED_UNIT ( * ) PLANE_ANGLE_UNIT ( ) SI_UNIT ( $, .RADIAN. ) );
#391 = CARTESIAN_POINT ( 'NONE',  ( -15.00000000000000000, 3.000000000000000000, 1.084183805627360551E-13 ) ) ;
#392 = ADVANCED_FACE ( 'NONE', ( #436 ), #122, .T. ) ;
#393 =( GEOMETRIC_REPRESENTATION_CONTEXT ( 3 ) GLOBAL_UNCERTAINTY_ASSIGNED_CONTEXT ( ( #461 ) ) GLOBAL_UNIT_ASSIGNED_CONTEXT ( ( #2, #222, #175 ) ) REPRESENTATION_CONTEXT ( 'NONE', 'WORKASPACE' ) );
#394 = SURFACE_STYLE_FILL_AREA ( #527 ) ;
#395 = COLOUR_RGB ( '',0.9686274509803921573, 0.2588235294117646745, 0.2588235294117646745 ) ;
#396 = EDGE_CURVE ( 'NONE', #63, #276, #314, .T. ) ;
#397 = CARTESIAN_POINT ( 'NONE',  ( 13.00000000000000178, 0.000000000000000000, -2.000000000000000000 ) ) ;
#398 = CARTESIAN_POINT ( 'NONE',  ( 0.000000000000000000, 0.000000000000000000, 0.000000000000000000 ) ) ;
#399 = CARTESIAN_POINT ( 'NONE',  ( 16.00000000000000000, 3.000000000000000000, 2.000000000000000000 ) ) ;
#400 = CYLINDRICAL_SURFACE ( 'NONE', #353, 1.000000000000001554 ) ;
#401 = SURFACE_STYLE_USAGE ( .BOTH. , #137 ) ;
#402 = CIRCLE ( 'NONE', #146, 2.000000000000000000 ) ;
#403 = MECHANICAL_DESIGN_GEOMETRIC_PRESENTATION_REPRESENTATION (  '', ( #325 ), #484 ) ;
#404 = VERTEX_POINT ( 'NONE', #397 ) ;
#405 = AXIS2_PLACEMENT_3D ( 'NONE', #478, #26, #115 ) ;
#406 = DIRECTION ( 'NONE',  ( 0.000000000000000000, 1.000000000000000000, -0.000000000000000000 ) ) ;
#407 = ORIENTED_EDGE ( 'NONE', *, *, #248, .F. ) ;
#408 = CARTESIAN_POINT ( 'NONE',  ( -14.99999999999998579, 3.000000000000000000, 2.000000000000108802 ) ) ;
#409 = ORIENTED_EDGE ( 'NONE', *, *, #244, .T. ) ;
#410 = FILL_AREA_STYLE_COLOUR ( '', #264 ) ;
#411 = EDGE_CURVE ( 'NONE', #276, #105, #116, .T. ) ;
#412 = EDGE_LOOP ( 'NONE', ( #60, #132, #138, #463 ) ) ;
#413 = VECTOR ( 'NONE', #68, 1000.000000000000000 ) ;
#414 = FILL_AREA_STYLE ('',( #170 ) ) ;
#415 = AXIS2_PLACEMENT_3D ( 'NONE', #556, #194, #513 ) ;
#416 = DIRECTION ( 'NONE',  ( -0.000000000000000000, 1.000000000000000000, -0.000000000000000000 ) ) ;
#417 = ORIENTED_EDGE ( 'NONE', *, *, #244, .F. ) ;
#418 =( NAMED_UNIT ( * ) SI_UNIT ( $, .STERADIAN. ) SOLID_ANGLE_UNIT ( ) );
#419 = ORIENTED_EDGE ( 'NONE', *, *, #506, .F. ) ;
#420 = FACE_OUTER_BOUND ( 'NONE', #330, .T. ) ;
#421 = FILL_AREA_STYLE_COLOUR ( '', #495 ) ;
#422 =( NAMED_UNIT ( * ) SI_UNIT ( $, .STERADIAN. ) SOLID_ANGLE_UNIT ( ) );
#423 = VECTOR ( 'NONE', #196, 1000.000000000000000 ) ;
#424 = COLOUR_RGB ( '',0.9686274509803921573, 0.2588235294117646745, 0.2588235294117646745 ) ;
#425 = SURFACE_STYLE_FILL_AREA ( #558 ) ;
#426 = CARTESIAN_POINT ( 'NONE',  ( 16.00000000000000000, 3.000000000000000000, -2.000000000000000000 ) ) ;
#427 = DIRECTION ( 'NONE',  ( -1.000000000000000000, 0.000000000000000000, 7.256926541169644063E-15 ) ) ;
#428 = SURFACE_STYLE_FILL_AREA ( #67 ) ;
#429 = VERTEX_POINT ( 'NONE', #580 ) ;
#430 = CIRCLE ( 'NONE', #583, 1.000000000000001554 ) ;
#431 = PRESENTATION_LAYER_ASSIGNMENT (  '', '', ( #85 ) ) ;
#432 = CARTESIAN_POINT ( 'NONE',  ( -15.00000000000000000, 0.000000000000000000, 1.084183805627360551E-13 ) ) ;
#433 = COLOUR_RGB ( '',0.9686274509803921573, 0.2588235294117646745, 0.2588235294117646745 ) ;
#434 = MECHANICAL_DESIGN_GEOMETRIC_PRESENTATION_REPRESENTATION (  '', ( #578 ), #102 ) ;
#435 = CARTESIAN_POINT ( 'NONE',  ( 13.00000000000000178, -7.000000000000000000, 2.000000000000000000 ) ) ;
#436 = FACE_OUTER_BOUND ( 'NONE', #190, .T. ) ;
#437 = DIRECTION ( 'NONE',  ( 0.000000000000000000, -0.000000000000000000, -1.000000000000000000 ) ) ;
#438 = DIRECTION ( 'NONE',  ( -1.000000000000000000, 0.000000000000000000, 7.256926541169644063E-15 ) ) ;
#439 = DIRECTION ( 'NONE',  ( 0.000000000000000000, 0.000000000000000000, 1.000000000000000000 ) ) ;
#440 = CARTESIAN_POINT ( 'NONE',  ( -15.00000000000000000, 0.000000000000000000, 1.000000000000109912 ) ) ;
#441 = UNCERTAINTY_MEASURE_WITH_UNIT (LENGTH_MEASURE( 1.000000000000000082E-05 ), #255, 'distance_accuracy_value', 'NONE');
#442 = CYLINDRICAL_SURFACE ( 'NONE', #32, 1.000000000000001554 ) ;
#443 =( NAMED_UNIT ( * ) SI_UNIT ( $, .STERADIAN. ) SOLID_ANGLE_UNIT ( ) );
#444 = SHAPE_DEFINITION_REPRESENTATION ( #261, #48 ) ;
#445 = CARTESIAN_POINT ( 'NONE',  ( -15.00000000000000000, 0.000000000000000000, 1.084183805627360551E-13 ) ) ;
#446 = UNCERTAINTY_MEASURE_WITH_UNIT (LENGTH_MEASURE( 1.000000000000000082E-05 ), #349, 'distance_accuracy_value', 'NONE');
#447 = CARTESIAN_POINT ( 'NONE',  ( 16.00000000000000000, 3.000000000000000000, 0.000000000000000000 ) ) ;
#448 = COLOUR_RGB ( '',0.9686274509803921573, 0.2588235294117646745, 0.2588235294117646745 ) ;
#449 = VERTEX_POINT ( 'NONE', #73 ) ;
#450 = VECTOR ( 'NONE', #69, 1000.000000000000000 ) ;
#451 =( GEOMETRIC_REPRESENTATION_CONTEXT ( 3 ) GLOBAL_UNCERTAINTY_ASSIGNED_CONTEXT ( ( #441 ) ) GLOBAL_UNIT_ASSIGNED_CONTEXT ( ( #255, #304, #343 ) ) REPRESENTATION_CONTEXT ( 'NONE', 'WORKASPACE' ) );
#452 = CARTESIAN_POINT ( 'NONE',  ( -15.00000000000000000, 3.000000000000000000, 1.084183805627360551E-13 ) ) ;
#453 = ORIENTED_EDGE ( 'NONE', *, *, #120, .F. ) ;
#454 = EDGE_CURVE ( 'NONE', #467, #242, #250, .T. ) ;
#455 = DIRECTION ( 'NONE',  ( 0.000000000000000000, 0.000000000000000000, -1.000000000000000000 ) ) ;
#456 = ORIENTED_EDGE ( 'NONE', *, *, #187, .T. ) ;
#457 = FACE_OUTER_BOUND ( 'NONE', #221, .T. ) ;
#458 = ORIENTED_EDGE ( 'NONE', *, *, #525, .F. ) ;
#459 =( GEOMETRIC_REPRESENTATION_CONTEXT ( 3 ) GLOBAL_UNCERTAINTY_ASSIGNED_CONTEXT ( ( #308 ) ) GLOBAL_UNIT_ASSIGNED_CONTEXT ( ( #572, #390, #298 ) ) REPRESENTATION_CONTEXT ( 'NONE', 'WORKASPACE' ) );
#460 = VECTOR ( 'NONE', #234, 1000.000000000000000 ) ;
#461 = UNCERTAINTY_MEASURE_WITH_UNIT (LENGTH_MEASURE( 1.000000000000000082E-05 ), #2, 'distance_accuracy_value', 'NONE');
#462 = DIRECTION ( 'NONE',  ( 0.000000000000000000, 1.000000000000000000, -0.000000000000000000 ) ) ;
#463 = ORIENTED_EDGE ( 'NONE', *, *, #206, .F. ) ;
#464 = SURFACE_SIDE_STYLE ('',( #64 ) ) ;
#465 = CARTESIAN_POINT ( 'NONE',  ( 13.00000000000000178, 0.000000000000000000, 2.000000000000000000 ) ) ;
#466 = ADVANCED_FACE ( 'NONE', ( #348 ), #534, .F. ) ;
#467 = VERTEX_POINT ( 'NONE', #399 ) ;
#468 =( NAMED_UNIT ( * ) PLANE_ANGLE_UNIT ( ) SI_UNIT ( $, .RADIAN. ) );
#469 = CARTESIAN_POINT ( 'NONE',  ( -15.00000000000001421, 3.000000000000000000, -1.999999999999891198 ) ) ;
#470 = SURFACE_STYLE_FILL_AREA ( #34 ) ;
#471 = VECTOR ( 'NONE', #480, 1000.000000000000000 ) ;
#472 = AXIS2_PLACEMENT_3D ( 'NONE', #447, #504, #49 ) ;
#473 = AXIS2_PLACEMENT_3D ( 'NONE', #93, #225, #257 ) ;
#474 = CYLINDRICAL_SURFACE ( 'NONE', #313, 1.000000000000001554 ) ;
#475 = ORIENTED_EDGE ( 'NONE', *, *, #62, .F. ) ;
#476 = CARTESIAN_POINT ( 'NONE',  ( -1.451385308233929128E-14, 3.000000000000000000, -2.000000000000000000 ) ) ;
#477 = ADVANCED_FACE ( 'NONE', ( #582 ), #442, .F. ) ;
#478 = CARTESIAN_POINT ( 'NONE',  ( 16.00000000000000000, -7.000000000000000000, 0.000000000000000000 ) ) ;
#479 = DIRECTION ( 'NONE',  ( -1.000000000000000000, 0.000000000000000000, 7.256926541169644063E-15 ) ) ;
#480 = DIRECTION ( 'NONE',  ( -0.000000000000000000, -1.000000000000000000, -0.000000000000000000 ) ) ;
#481 = FILL_AREA_STYLE ('',( #232 ) ) ;
#482 = VECTOR ( 'NONE', #309, 1000.000000000000000 ) ;
#483 = CARTESIAN_POINT ( 'NONE',  ( 1.451385308233929128E-14, 0.000000000000000000, 2.000000000000000000 ) ) ;
#484 =( GEOMETRIC_REPRESENTATION_CONTEXT ( 3 ) GLOBAL_UNCERTAINTY_ASSIGNED_CONTEXT ( ( #90 ) ) GLOBAL_UNIT_ASSIGNED_CONTEXT ( ( #532, #526, #114 ) ) REPRESENTATION_CONTEXT ( 'NONE', 'WORKASPACE' ) );
#485 = DIRECTION ( 'NONE',  ( -0.000000000000000000, 1.000000000000000000, -0.000000000000000000 ) ) ;
#486 = DIRECTION ( 'NONE',  ( -0.000000000000000000, -1.000000000000000000, -0.000000000000000000 ) ) ;
#487 = SURFACE_SIDE_STYLE ('',( #339 ) ) ;
#488 = AXIS2_PLACEMENT_3D ( 'NONE', #266, #8, #455 ) ;
#489 = VECTOR ( 'NONE', #438, 1000.000000000000000 ) ;
#490 = DIRECTION ( 'NONE',  ( 0.000000000000000000, 0.000000000000000000, 1.000000000000000000 ) ) ;
#491 = DIRECTION ( 'NONE',  ( 0.000000000000000000, 0.000000000000000000, 1.000000000000000000 ) ) ;
#492 = ORIENTED_EDGE ( 'NONE', *, *, #139, .F. ) ;
#493 = DIRECTION ( 'NONE',  ( 0.000000000000000000, 0.000000000000000000, -1.000000000000000000 ) ) ;
#494 = VERTEX_POINT ( 'NONE', #547 ) ;
#495 = COLOUR_RGB ( '',0.9686274509803921573, 0.2588235294117646745, 0.2588235294117646745 ) ;
#496 = CARTESIAN_POINT ( 'NONE',  ( 13.00000000000000178, -7.000000000000000000, 2.000000000000000000 ) ) ;
#497 = AXIS2_PLACEMENT_3D ( 'NONE', #539, #358, #171 ) ;
#498 = EDGE_LOOP ( 'NONE', ( #559, #224, #316, #267 ) ) ;
#499 = STYLED_ITEM ( 'NONE', ( #191 ), #579 ) ;
#500 = ADVANCED_FACE ( 'NONE', ( #42 ), #372, .F. ) ;
#501 = DIRECTION ( 'NONE',  ( 0.000000000000000000, -1.000000000000000000, 0.000000000000000000 ) ) ;
#502 = ORIENTED_EDGE ( 'NONE', *, *, #506, .T. ) ;
#503 = SURFACE_SIDE_STYLE ('',( #140 ) ) ;
#504 = DIRECTION ( 'NONE',  ( 0.000000000000000000, 1.000000000000000000, -0.000000000000000000 ) ) ;
#505 = ORIENTED_EDGE ( 'NONE', *, *, #411, .T. ) ;
#506 = EDGE_CURVE ( 'NONE', #276, #63, #20, .T. ) ;
#507 = CARTESIAN_POINT ( 'NONE',  ( -1.451385308233929128E-14, 0.000000000000000000, -2.000000000000000000 ) ) ;
#508 = ORIENTED_EDGE ( 'NONE', *, *, #41, .T. ) ;
#509 = MECHANICAL_DESIGN_GEOMETRIC_PRESENTATION_REPRESENTATION (  '', ( #296 ), #373 ) ;
#510 = CIRCLE ( 'NONE', #405, 1.000000000000001554 ) ;
#511 = CARTESIAN_POINT ( 'NONE',  ( 16.00000000000000000, 0.000000000000000000, -1.000000000000001554 ) ) ;
#512 = ORIENTED_EDGE ( 'NONE', *, *, #178, .F. ) ;
#513 = DIRECTION ( 'NONE',  ( 0.000000000000000000, 0.000000000000000000, 1.000000000000000000 ) ) ;
#514 = DIRECTION ( 'NONE',  ( 0.000000000000000000, 0.000000000000000000, 1.000000000000000000 ) ) ;
#515 =( LENGTH_UNIT ( ) NAMED_UNIT ( * ) SI_UNIT ( .MILLI., .METRE. ) );
#516 = CARTESIAN_POINT ( 'NONE',  ( 16.00000000000000000, 0.000000000000000000, 1.000000000000001554 ) ) ;
#517 = LINE ( 'NONE', #511, #460 ) ;
#518 = ORIENTED_EDGE ( 'NONE', *, *, #519, .F. ) ;
#519 = EDGE_CURVE ( 'NONE', #13, #356, #113, .T. ) ;
#520 = PRESENTATION_LAYER_ASSIGNMENT (  '', '', ( #336 ) ) ;
#521 =( GEOMETRIC_REPRESENTATION_CONTEXT ( 3 ) GLOBAL_UNCERTAINTY_ASSIGNED_CONTEXT ( ( #167 ) ) GLOBAL_UNIT_ASSIGNED_CONTEXT ( ( #560, #288, #329 ) ) REPRESENTATION_CONTEXT ( 'NONE', 'WORKASPACE' ) );
#522 = EDGE_LOOP ( 'NONE', ( #133, #475, #492, #453, #107, #409 ) ) ;
#523 = DIRECTION ( 'NONE',  ( 0.000000000000000000, 1.000000000000000000, 0.000000000000000000 ) ) ;
#524 = PRESENTATION_STYLE_ASSIGNMENT (( #35 ) ) ;
#525 = EDGE_CURVE ( 'NONE', #88, #96, #110, .T. ) ;
#526 =( NAMED_UNIT ( * ) PLANE_ANGLE_UNIT ( ) SI_UNIT ( $, .RADIAN. ) );
#527 = FILL_AREA_STYLE ('',( #254 ) ) ;
#528 = APPLICATION_PROTOCOL_DEFINITION ( 'draft international standard', 'automotive_design', 1998, #322 ) ;
#529 = PRESENTATION_LAYER_ASSIGNMENT (  '', '', ( #189 ) ) ;
#530 =( LENGTH_UNIT ( ) NAMED_UNIT ( * ) SI_UNIT ( .MILLI., .METRE. ) );
#531 = DIRECTION ( 'NONE',  ( 0.000000000000000000, 0.000000000000000000, 1.000000000000000000 ) ) ;
#532 =( LENGTH_UNIT ( ) NAMED_UNIT ( * ) SI_UNIT ( .MILLI., .METRE. ) );
#533 = FILL_AREA_STYLE ('',( #72 ) ) ;
#534 = PLANE ( 'NONE',  #473 ) ;
#535 = SURFACE_STYLE_USAGE ( .BOTH. , #487 ) ;
#536 = COLOUR_RGB ( '',0.9686274509803921573, 0.2588235294117646745, 0.2588235294117646745 ) ;
#537 = LINE ( 'NONE', #95, #482 ) ;
#538 = APPLICATION_PROTOCOL_DEFINITION ( 'draft international standard', 'automotive_design', 1998, #200 ) ;
#539 = CARTESIAN_POINT ( 'NONE',  ( 16.00000000000000000, 3.000000000000000000, 0.000000000000000000 ) ) ;
#540 = ORIENTED_EDGE ( 'NONE', *, *, #41, .F. ) ;
#541 = CARTESIAN_POINT ( 'NONE',  ( 16.00000000000000000, 3.000000000000000000, 0.000000000000000000 ) ) ;
#542 = ORIENTED_EDGE ( 'NONE', *, *, #381, .T. ) ;
#543 = DIRECTION ( 'NONE',  ( 0.000000000000000000, 1.000000000000000000, -0.000000000000000000 ) ) ;
#544 = PRESENTATION_LAYER_ASSIGNMENT (  '', '', ( #576 ) ) ;
#545 = CIRCLE ( 'NONE', #363, 2.000000000000000000 ) ;
#546 = PRESENTATION_LAYER_ASSIGNMENT (  '', '', ( #499 ) ) ;
#547 = CARTESIAN_POINT ( 'NONE',  ( 13.00000000000000178, -7.000000000000000000, 2.000000000000000000 ) ) ;
#548 = FACE_OUTER_BOUND ( 'NONE', #412, .T. ) ;
#549 = VERTEX_POINT ( 'NONE', #201 ) ;
#550 = UNCERTAINTY_MEASURE_WITH_UNIT (LENGTH_MEASURE( 1.000000000000000082E-05 ), #153, 'distance_accuracy_value', 'NONE');
#551 = SURFACE_SIDE_STYLE ('',( #195 ) ) ;
#552 = ORIENTED_EDGE ( 'NONE', *, *, #223, .T. ) ;
#553 = SURFACE_STYLE_USAGE ( .BOTH. , #503 ) ;
#554 = LINE ( 'NONE', #507, #285 ) ;
#555 = ORIENTED_EDGE ( 'NONE', *, *, #292, .F. ) ;
#556 = CARTESIAN_POINT ( 'NONE',  ( -15.00000000000000000, 0.000000000000000000, 1.084183805627360551E-13 ) ) ;
#557 = VECTOR ( 'NONE', #427, 1000.000000000000000 ) ;
#558 = FILL_AREA_STYLE ('',( #100 ) ) ;
#559 = ORIENTED_EDGE ( 'NONE', *, *, #519, .T. ) ;
#560 =( LENGTH_UNIT ( ) NAMED_UNIT ( * ) SI_UNIT ( .MILLI., .METRE. ) );
#561 = CARTESIAN_POINT ( 'NONE',  ( 16.00000000000000000, 0.000000000000000000, 0.000000000000000000 ) ) ;
#562 = SURFACE_SIDE_STYLE ('',( #65 ) ) ;
#563 = ADVANCED_FACE ( 'NONE', ( #108, #376, #340 ), #247, .T. ) ;
#564 = FILL_AREA_STYLE_COLOUR ( '', #424 ) ;
#565 = LINE ( 'NONE', #465, #305 ) ;
#566 = SURFACE_SIDE_STYLE ('',( #470 ) ) ;
#567 = STYLED_ITEM ( 'NONE', ( #575 ), #94 ) ;
#568 = VECTOR ( 'NONE', #485, 1000.000000000000000 ) ;
#569 = SURFACE_STYLE_USAGE ( .BOTH. , #367 ) ;
#570 = CARTESIAN_POINT ( 'NONE',  ( 0.000000000000000000, 3.000000000000000000, 0.000000000000000000 ) ) ;
#571 = DIRECTION ( 'NONE',  ( 0.000000000000000000, 1.000000000000000000, 0.000000000000000000 ) ) ;
#572 =( LENGTH_UNIT ( ) NAMED_UNIT ( * ) SI_UNIT ( .MILLI., .METRE. ) );
#573 = SURFACE_STYLE_USAGE ( .BOTH. , #566 ) ;
#574 = DIRECTION ( 'NONE',  ( 0.000000000000000000, 0.000000000000000000, 1.000000000000000000 ) ) ;
#575 = PRESENTATION_STYLE_ASSIGNMENT (( #535 ) ) ;
#576 = STYLED_ITEM ( 'NONE', ( #388 ), #75 ) ;
#577 = SURFACE_SIDE_STYLE ('',( #428 ) ) ;
#578 = STYLED_ITEM ( 'NONE', ( #320 ), #500 ) ;
#579 = ADVANCED_FACE ( 'NONE', ( #152 ), #380, .T. ) ;
#580 = CARTESIAN_POINT ( 'NONE',  ( -15.00000000000000000, 3.000000000000000000, 1.000000000000109912 ) ) ;
#581 = EDGE_CURVE ( 'NONE', #88, #227, #510, .T. ) ;
#582 = FACE_OUTER_BOUND ( 'NONE', #1, .T. ) ;
#583 = AXIS2_PLACEMENT_3D ( 'NONE', #452, #406, #311 ) ;
#584 = AXIS2_PLACEMENT_3D ( 'NONE', #203, #299, #341 ) ;
#585 = STYLED_ITEM ( 'NONE', ( #11 ), #477 ) ;
ENDSEC;
END-ISO-10303-21;
