ISO-10303-21;
HEADER;
FILE_DESCRIPTION (( 'STEP AP214' ),
    '1' );
FILE_NAME ('Servo Head MG90.STEP',
    '2025-10-21T18:57:18',
    ( 'Windows User' ),
    ( '' ),
    'SwSTEP 2.0',
    'SolidWorks 2023',
    '' );
FILE_SCHEMA (( 'AUTOMOTIVE_DESIGN' ));
ENDSEC;

DATA;
#1 = DIRECTION ( 'NONE',  ( 0.000000000000000000, -1.000000000000000000, 0.000000000000000000 ) ) ;
#2 = AXIS2_PLACEMENT_3D ( 'NONE', #898, #1009, #1072 ) ;
#3 = STYLED_ITEM ( 'NONE', ( #805 ), #1001 ) ;
#4 = SHAPE_DEFINITION_REPRESENTATION ( #1082, #196 ) ;
#5 = ORIENTED_EDGE ( 'NONE', *, *, #291, .F. ) ;
#6 = FACE_OUTER_BOUND ( 'NONE', #14, .T. ) ;
#7 = ADVANCED_FACE ( 'NONE', ( #43 ), #305, .F. ) ;
#8 = DIRECTION ( 'NONE',  ( 0.000000000000000000, -1.000000000000000000, 0.000000000000000000 ) ) ;
#9 = DIRECTION ( 'NONE',  ( 6.891711539634153764E-16, 0.000000000000000000, -1.000000000000000000 ) ) ;
#10 = ORIENTED_EDGE ( 'NONE', *, *, #1121, .T. ) ;
#11 = DIRECTION ( 'NONE',  ( 0.000000000000000000, 0.000000000000000000, -1.000000000000000000 ) ) ;
#12 = SURFACE_SIDE_STYLE ('',( #904 ) ) ;
#13 = DIRECTION ( 'NONE',  ( -0.000000000000000000, 1.000000000000000000, -0.000000000000000000 ) ) ;
#14 = EDGE_LOOP ( 'NONE', ( #775, #512, #517, #503 ) ) ;
#15 = AXIS2_PLACEMENT_3D ( 'NONE', #187, #1088, #1012 ) ;
#16 = DIRECTION ( 'NONE',  ( -0.000000000000000000, -1.000000000000000000, -0.000000000000000000 ) ) ;
#17 = AXIS2_PLACEMENT_3D ( 'NONE', #720, #367, #265 ) ;
#18 = DIRECTION ( 'NONE',  ( 6.891711539634153764E-16, 0.000000000000000000, -1.000000000000000000 ) ) ;
#19 = COLOUR_RGB ( '',1.000000000000000000, 0.000000000000000000, 1.000000000000000000 ) ;
#20 = CARTESIAN_POINT ( 'NONE',  ( 12.10000000000000320, 0.000000000000000000, -2.793185071074506684E-14 ) ) ;
#21 = CARTESIAN_POINT ( 'NONE',  ( 1.836970198721030181E-16, 1.000000000000000000, -1.500000000000000222 ) ) ;
#22 = ORIENTED_EDGE ( 'NONE', *, *, #462, .T. ) ;
#23 = CARTESIAN_POINT ( 'NONE',  ( 0.000000000000000000, 1.000000000000000000, 0.000000000000000000 ) ) ;
#24 = CARTESIAN_POINT ( 'NONE',  ( 3.245314017740485962E-16, 1.000000000000000000, 2.649999999999999911 ) ) ;
#25 = DIRECTION ( 'NONE',  ( -0.000000000000000000, 1.000000000000000000, -0.000000000000000000 ) ) ;
#26 = ORIENTED_EDGE ( 'NONE', *, *, #614, .F. ) ;
#27 = DIRECTION ( 'NONE',  ( 0.000000000000000000, 1.000000000000000000, 0.000000000000000000 ) ) ;
#28 = FACE_OUTER_BOUND ( 'NONE', #1074, .T. ) ;
#29 = CARTESIAN_POINT ( 'NONE',  ( 0.000000000000000000, 4.299999999999999822, 2.250000000000000000 ) ) ;
#30 = VERTEX_POINT ( 'NONE', #763 ) ;
#31 = PRESENTATION_LAYER_ASSIGNMENT (  '', '', ( #999 ) ) ;
#32 = CARTESIAN_POINT ( 'NONE',  ( 10.10000000000000320, 1.699999999999999956, -0.5000000000000426326 ) ) ;
#33 = MECHANICAL_DESIGN_GEOMETRIC_PRESENTATION_REPRESENTATION (  '', ( #219 ), #436 ) ;
#34 = CIRCLE ( 'NONE', #487, 0.5000000000000007772 ) ;
#35 = EDGE_CURVE ( 'NONE', #682, #366, #414, .T. ) ;
#36 = AXIS2_PLACEMENT_3D ( 'NONE', #407, #849, #322 ) ;
#37 = PRESENTATION_STYLE_ASSIGNMENT (( #384 ) ) ;
#38 = ORIENTED_EDGE ( 'NONE', *, *, #940, .T. ) ;
#39 = SURFACE_STYLE_FILL_AREA ( #1109 ) ;
#40 = DIRECTION ( 'NONE',  ( 0.000000000000000000, 0.000000000000000000, -1.000000000000000000 ) ) ;
#41 = EDGE_CURVE ( 'NONE', #677, #980, #1075, .T. ) ;
#42 = SURFACE_SIDE_STYLE ('',( #509 ) ) ;
#43 = FACE_OUTER_BOUND ( 'NONE', #808, .T. ) ;
#44 = ORIENTED_EDGE ( 'NONE', *, *, #871, .T. ) ;
#45 = FILL_AREA_STYLE ('',( #1117 ) ) ;
#46 = LINE ( 'NONE', #412, #786 ) ;
#47 = SURFACE_STYLE_FILL_AREA ( #590 ) ;
#48 = CARTESIAN_POINT ( 'NONE',  ( 6.100000000000003197, 1.699999999999999956, -6.982962677686266711E-14 ) ) ;
#49 = EDGE_LOOP ( 'NONE', ( #727, #831 ) ) ;
#50 = AXIS2_PLACEMENT_3D ( 'NONE', #302, #753, #746 ) ;
#51 = AXIS2_PLACEMENT_3D ( 'NONE', #304, #678, #1020 ) ;
#52 = AXIS2_PLACEMENT_3D ( 'NONE', #703, #65, #780 ) ;
#53 =( GEOMETRIC_REPRESENTATION_CONTEXT ( 3 ) GLOBAL_UNCERTAINTY_ASSIGNED_CONTEXT ( ( #281 ) ) GLOBAL_UNIT_ASSIGNED_CONTEXT ( ( #619, #783, #350 ) ) REPRESENTATION_CONTEXT ( 'NONE', 'WORKASPACE' ) );
#54 = DIRECTION ( 'NONE',  ( 0.000000000000000000, 1.000000000000000000, 0.000000000000000000 ) ) ;
#55 = ORIENTED_EDGE ( 'NONE', *, *, #126, .T. ) ;
#56 = DIRECTION ( 'NONE',  ( 0.000000000000000000, 1.000000000000000000, 0.000000000000000000 ) ) ;
#57 = SURFACE_STYLE_USAGE ( .BOTH. , #354 ) ;
#58 = DIRECTION ( 'NONE',  ( 0.000000000000000000, -1.000000000000000000, 0.000000000000000000 ) ) ;
#59 = DIRECTION ( 'NONE',  ( 0.000000000000000000, 1.000000000000000000, 0.000000000000000000 ) ) ;
#60 = ORIENTED_EDGE ( 'NONE', *, *, #490, .T. ) ;
#61 = DIRECTION ( 'NONE',  ( 0.000000000000000000, 0.000000000000000000, -1.000000000000000000 ) ) ;
#62 =( NAMED_UNIT ( * ) SI_UNIT ( $, .STERADIAN. ) SOLID_ANGLE_UNIT ( ) );
#63 = DIRECTION ( 'NONE',  ( 0.000000000000000000, 0.000000000000000000, 1.000000000000000000 ) ) ;
#64 = EDGE_LOOP ( 'NONE', ( #415, #1064 ) ) ;
#65 = DIRECTION ( 'NONE',  ( 0.000000000000000000, 1.000000000000000000, 0.000000000000000000 ) ) ;
#66 = DIRECTION ( 'NONE',  ( 0.000000000000000000, 1.000000000000000000, 0.000000000000000000 ) ) ;
#67 = UNCERTAINTY_MEASURE_WITH_UNIT (LENGTH_MEASURE( 1.000000000000000082E-05 ), #603, 'distance_accuracy_value', 'NONE');
#68 = STYLED_ITEM ( 'NONE', ( #494 ), #391 ) ;
#69 = LINE ( 'NONE', #521, #991 ) ;
#70 = AXIS2_PLACEMENT_3D ( 'NONE', #175, #16, #827 ) ;
#71 = ADVANCED_FACE ( 'NONE', ( #584, #941 ), #668, .T. ) ;
#72 = ORIENTED_EDGE ( 'NONE', *, *, #245, .F. ) ;
#73 = AXIS2_PLACEMENT_3D ( 'NONE', #978, #76, #61 ) ;
#74 =( NAMED_UNIT ( * ) SI_UNIT ( $, .STERADIAN. ) SOLID_ANGLE_UNIT ( ) );
#75 = EDGE_CURVE ( 'NONE', #361, #164, #629, .T. ) ;
#76 = DIRECTION ( 'NONE',  ( -0.000000000000000000, -1.000000000000000000, -0.000000000000000000 ) ) ;
#77 = CARTESIAN_POINT ( 'NONE',  ( 8.100000000000003197, 1.699999999999999956, 0.4999999999999449329 ) ) ;
#78 = DIRECTION ( 'NONE',  ( 0.000000000000000000, 1.000000000000000000, 0.000000000000000000 ) ) ;
#79 = ORIENTED_EDGE ( 'NONE', *, *, #82, .T. ) ;
#80 = DIRECTION ( 'NONE',  ( 0.000000000000000000, 0.000000000000000000, 1.000000000000000000 ) ) ;
#81 = SURFACE_STYLE_USAGE ( .BOTH. , #738 ) ;
#82 = EDGE_CURVE ( 'NONE', #215, #980, #150, .T. ) ;
#83 = PRESENTATION_STYLE_ASSIGNMENT (( #527 ) ) ;
#84 = VERTEX_POINT ( 'NONE', #699 ) ;
#85 = FILL_AREA_STYLE_COLOUR ( '', #994 ) ;
#86 = CYLINDRICAL_SURFACE ( 'NONE', #279, 0.5000000000000007772 ) ;
#87 = PRESENTATION_LAYER_ASSIGNMENT (  '', '', ( #819 ) ) ;
#88 = MECHANICAL_DESIGN_GEOMETRIC_PRESENTATION_REPRESENTATION (  '', ( #874 ), #973 ) ;
#89 = CIRCLE ( 'NONE', #485, 2.649999999999999911 ) ;
#90 = ORIENTED_EDGE ( 'NONE', *, *, #245, .T. ) ;
#91 = COLOUR_RGB ( '',1.000000000000000000, 0.000000000000000000, 1.000000000000000000 ) ;
#92 = EDGE_CURVE ( 'NONE', #330, #736, #931, .T. ) ;
#93 = CARTESIAN_POINT ( 'NONE',  ( 2.165640782770770656, 1.699999999999999956, -3.000000000000001332 ) ) ;
#94 = COLOUR_RGB ( '',1.000000000000000000, 0.000000000000000000, 1.000000000000000000 ) ;
#95 = CARTESIAN_POINT ( 'NONE',  ( 12.12902319910714333, 1.700000000000000178, 2.249706126706885634 ) ) ;
#96 = EDGE_LOOP ( 'NONE', ( #769, #38, #1071, #947 ) ) ;
#97 = SURFACE_STYLE_USAGE ( .BOTH. , #269 ) ;
#98 = CARTESIAN_POINT ( 'NONE',  ( 0.000000000000000000, 1.599999999999999867, 1.500000000000000222 ) ) ;
#99 = CARTESIAN_POINT ( 'NONE',  ( 11.00000000000000000, 0.000000000000000000, 0.000000000000000000 ) ) ;
#100 = EDGE_LOOP ( 'NONE', ( #611, #875, #306, #641 ) ) ;
#101 = DIRECTION ( 'NONE',  ( 1.000000000000000000, 0.000000000000000000, 0.000000000000000000 ) ) ;
#102 = FILL_AREA_STYLE_COLOUR ( '', #312 ) ;
#103 = UNCERTAINTY_MEASURE_WITH_UNIT (LENGTH_MEASURE( 1.000000000000000082E-05 ), #395, 'distance_accuracy_value', 'NONE');
#104 = CARTESIAN_POINT ( 'NONE',  ( 0.000000000000000000, 1.599999999999999867, 0.000000000000000000 ) ) ;
#105 = DIRECTION ( 'NONE',  ( 0.000000000000000000, 0.000000000000000000, -1.000000000000000000 ) ) ;
#106 = ORIENTED_EDGE ( 'NONE', *, *, #924, .F. ) ;
#107 = CARTESIAN_POINT ( 'NONE',  ( 6.100000000000003197, 0.000000000000000000, -6.982962677686266711E-14 ) ) ;
#108 = COLOUR_RGB ( '',1.000000000000000000, 0.000000000000000000, 1.000000000000000000 ) ;
#109 = CARTESIAN_POINT ( 'NONE',  ( 8.100000000000003197, 0.000000000000000000, -5.586370142149013368E-14 ) ) ;
#110 = CIRCLE ( 'NONE', #878, 1.500000000000000222 ) ;
#111 =( NAMED_UNIT ( * ) SI_UNIT ( $, .STERADIAN. ) SOLID_ANGLE_UNIT ( ) );
#112 = SURFACE_STYLE_USAGE ( .BOTH. , #283 ) ;
#113 = CARTESIAN_POINT ( 'NONE',  ( 6.100000000000003197, 1.699999999999999956, -6.982962677686266711E-14 ) ) ;
#114 = EDGE_LOOP ( 'NONE', ( #929, #371, #532, #5 ) ) ;
#115 = FACE_OUTER_BOUND ( 'NONE', #100, .T. ) ;
#116 = UNCERTAINTY_MEASURE_WITH_UNIT (LENGTH_MEASURE( 1.000000000000000082E-05 ), #194, 'distance_accuracy_value', 'NONE');
#117 =( NAMED_UNIT ( * ) SI_UNIT ( $, .STERADIAN. ) SOLID_ANGLE_UNIT ( ) );
#118 = SURFACE_STYLE_USAGE ( .BOTH. , #564 ) ;
#119 = FILL_AREA_STYLE ('',( #469 ) ) ;
#120 = VERTEX_POINT ( 'NONE', #1124 ) ;
#121 = PRODUCT_DEFINITION ( 'General', '', #750, #158 ) ;
#122 = SURFACE_SIDE_STYLE ('',( #582 ) ) ;
#123 = DIRECTION ( 'NONE',  ( 0.000000000000000000, 0.000000000000000000, 1.000000000000000000 ) ) ;
#124 = SURFACE_STYLE_USAGE ( .BOTH. , #565 ) ;
#125 = ORIENTED_EDGE ( 'NONE', *, *, #495, .F. ) ;
#126 = EDGE_CURVE ( 'NONE', #1045, #694, #1010, .T. ) ;
#127 = AXIS2_PLACEMENT_3D ( 'NONE', #799, #166, #1049 ) ;
#128 = COLOUR_RGB ( '',1.000000000000000000, 0.000000000000000000, 1.000000000000000000 ) ;
#129 = COLOUR_RGB ( '',1.000000000000000000, 0.000000000000000000, 1.000000000000000000 ) ;
#130 =( NAMED_UNIT ( * ) PLANE_ANGLE_UNIT ( ) SI_UNIT ( $, .RADIAN. ) );
#131 = EDGE_CURVE ( 'NONE', #682, #198, #69, .T. ) ;
#132 = FILL_AREA_STYLE_COLOUR ( '', #987 ) ;
#133 = ORIENTED_EDGE ( 'NONE', *, *, #782, .F. ) ;
#134 = DIRECTION ( 'NONE',  ( -0.000000000000000000, -1.000000000000000000, -0.000000000000000000 ) ) ;
#135 = CARTESIAN_POINT ( 'NONE',  ( 10.10000000000000320, 1.699999999999999956, -4.189777606611760026E-14 ) ) ;
#136 = FILL_AREA_STYLE_COLOUR ( '', #237 ) ;
#137 = CARTESIAN_POINT ( 'NONE',  ( 4.531193156845205215E-16, 0.000000000000000000, 3.700000000000000178 ) ) ;
#138 = ORIENTED_EDGE ( 'NONE', *, *, #1142, .T. ) ;
#139 = DIRECTION ( 'NONE',  ( -0.9971765710067931332, 0.000000000000000000, 0.07509251783722514784 ) ) ;
#140 = ORIENTED_EDGE ( 'NONE', *, *, #75, .T. ) ;
#141 = CARTESIAN_POINT ( 'NONE',  ( 0.000000000000000000, 4.299999999999999822, -3.700000000000000178 ) ) ;
#142 = SURFACE_STYLE_USAGE ( .BOTH. , #1145 ) ;
#143 = CIRCLE ( 'NONE', #315, 2.517115619248472935 ) ;
#144 =( GEOMETRIC_REPRESENTATION_CONTEXT ( 3 ) GLOBAL_UNCERTAINTY_ASSIGNED_CONTEXT ( ( #170 ) ) GLOBAL_UNIT_ASSIGNED_CONTEXT ( ( #767, #1114, #500 ) ) REPRESENTATION_CONTEXT ( 'NONE', 'WORKASPACE' ) );
#145 = PRESENTATION_STYLE_ASSIGNMENT (( #774 ) ) ;
#146 = MECHANICAL_DESIGN_GEOMETRIC_PRESENTATION_REPRESENTATION (  '', ( #162 ), #655 ) ;
#147 = ORIENTED_EDGE ( 'NONE', *, *, #190, .F. ) ;
#148 =( NAMED_UNIT ( * ) SI_UNIT ( $, .STERADIAN. ) SOLID_ANGLE_UNIT ( ) );
#149 = SURFACE_SIDE_STYLE ('',( #357 ) ) ;
#150 = LINE ( 'NONE', #501, #592 ) ;
#151 = EDGE_LOOP ( 'NONE', ( #22, #405 ) ) ;
#152 = CARTESIAN_POINT ( 'NONE',  ( 8.100000000000003197, 1.699999999999999956, -0.5000000000000566214 ) ) ;
#153 = EDGE_CURVE ( 'NONE', #465, #215, #802, .T. ) ;
#154 = LINE ( 'NONE', #344, #954 ) ;
#155 = EDGE_LOOP ( 'NONE', ( #10, #339, #523, #654 ) ) ;
#156 = EDGE_CURVE ( 'NONE', #719, #1052, #214, .T. ) ;
#157 = FACE_OUTER_BOUND ( 'NONE', #430, .T. ) ;
#158 = PRODUCT_DEFINITION_CONTEXT ( 'detailed design', #658, 'design' ) ;
#159 = CIRCLE ( 'NONE', #355, 2.517115619248472935 ) ;
#160 = FACE_BOUND ( 'NONE', #303, .T. ) ;
#161 = PRESENTATION_STYLE_ASSIGNMENT (( #970 ) ) ;
#162 = STYLED_ITEM ( 'NONE', ( #1097 ), #1035 ) ;
#163 = CIRCLE ( 'NONE', #1042, 0.4999999999999953371 ) ;
#164 = VERTEX_POINT ( 'NONE', #137 ) ;
#165 = MECHANICAL_DESIGN_GEOMETRIC_PRESENTATION_REPRESENTATION (  '', ( #735 ), #560 ) ;
#166 = DIRECTION ( 'NONE',  ( -0.000000000000000000, -1.000000000000000000, -0.000000000000000000 ) ) ;
#167 = PRESENTATION_STYLE_ASSIGNMENT (( #422 ) ) ;
#168 = ORIENTED_EDGE ( 'NONE', *, *, #581, .T. ) ;
#169 = PRESENTATION_STYLE_ASSIGNMENT (( #798 ) ) ;
#170 = UNCERTAINTY_MEASURE_WITH_UNIT (LENGTH_MEASURE( 1.000000000000000082E-05 ), #767, 'distance_accuracy_value', 'NONE');
#171 = CARTESIAN_POINT ( 'NONE',  ( 0.000000000000000000, 1.000000000000000000, 1.500000000000000222 ) ) ;
#172 = ADVANCED_FACE ( 'NONE', ( #227 ), #791, .F. ) ;
#173 = CARTESIAN_POINT ( 'NONE',  ( 6.100000000000003197, 1.699999999999999956, -0.5000000000000651701 ) ) ;
#174 = ORIENTED_EDGE ( 'NONE', *, *, #572, .T. ) ;
#175 = CARTESIAN_POINT ( 'NONE',  ( 10.10000000000000320, 1.699999999999999956, -4.189777606611760026E-14 ) ) ;
#176 = DIRECTION ( 'NONE',  ( 0.000000000000000000, 0.000000000000000000, -1.000000000000000000 ) ) ;
#177 = MECHANICAL_DESIGN_GEOMETRIC_PRESENTATION_REPRESENTATION (  '', ( #932 ), #484 ) ;
#178 = LINE ( 'NONE', #900, #334 ) ;
#179 = AXIS2_PLACEMENT_3D ( 'NONE', #894, #537, #457 ) ;
#180 = ORIENTED_EDGE ( 'NONE', *, *, #92, .T. ) ;
#181 = DIRECTION ( 'NONE',  ( -0.000000000000000000, 1.000000000000000000, -0.000000000000000000 ) ) ;
#182 = STYLED_ITEM ( 'NONE', ( #633 ), #823 ) ;
#183 = UNCERTAINTY_MEASURE_WITH_UNIT (LENGTH_MEASURE( 1.000000000000000082E-05 ), #906, 'distance_accuracy_value', 'NONE');
#184 = DIRECTION ( 'NONE',  ( 0.000000000000000000, -1.000000000000000000, 0.000000000000000000 ) ) ;
#185 = ORIENTED_EDGE ( 'NONE', *, *, #905, .F. ) ;
#186 = DIRECTION ( 'NONE',  ( 0.000000000000000000, -1.000000000000000000, 0.000000000000000000 ) ) ;
#187 = CARTESIAN_POINT ( 'NONE',  ( 0.000000000000000000, -0.0009999999999999158867, 0.000000000000000000 ) ) ;
#188 = ADVANCED_FACE ( 'NONE', ( #851 ), #609, .F. ) ;
#189 = ORIENTED_EDGE ( 'NONE', *, *, #320, .F. ) ;
#190 = EDGE_CURVE ( 'NONE', #284, #423, #1112, .T. ) ;
#191 = DIRECTION ( 'NONE',  ( 0.000000000000000000, 0.000000000000000000, -1.000000000000000000 ) ) ;
#192 = LINE ( 'NONE', #458, #508 ) ;
#193 = CYLINDRICAL_SURFACE ( 'NONE', #1028, 2.250000000000000000 ) ;
#194 =( LENGTH_UNIT ( ) NAMED_UNIT ( * ) SI_UNIT ( .MILLI., .METRE. ) );
#195 = AXIS2_PLACEMENT_3D ( 'NONE', #553, #27, #642 ) ;
#196 = ADVANCED_BREP_SHAPE_REPRESENTATION ( 'Servo Head MG90', ( #811, #993 ), #755 ) ;
#197 = MECHANICAL_DESIGN_GEOMETRIC_PRESENTATION_REPRESENTATION (  '', ( #356 ), #731 ) ;
#198 = VERTEX_POINT ( 'NONE', #910 ) ;
#199 = AXIS2_PLACEMENT_3D ( 'NONE', #541, #546, #203 ) ;
#200 = DIRECTION ( 'NONE',  ( 0.000000000000000000, -1.000000000000000000, 0.000000000000000000 ) ) ;
#201 = PRESENTATION_LAYER_ASSIGNMENT (  '', '', ( #182 ) ) ;
#202 = SURFACE_STYLE_USAGE ( .BOTH. , #12 ) ;
#203 = DIRECTION ( 'NONE',  ( 0.000000000000000000, 0.000000000000000000, -1.000000000000000000 ) ) ;
#204 = SURFACE_STYLE_FILL_AREA ( #119 ) ;
#205 = VERTEX_POINT ( 'NONE', #549 ) ;
#206 = LINE ( 'NONE', #589, #433 ) ;
#207 = CARTESIAN_POINT ( 'NONE',  ( 0.2368533003357828071, 1.699999999999999956, -3.145247604727347657 ) ) ;
#208 = CARTESIAN_POINT ( 'NONE',  ( 0.000000000000000000, 4.299999999999999822, 0.000000000000000000 ) ) ;
#209 = EDGE_CURVE ( 'NONE', #1052, #719, #1026, .T. ) ;
#210 = ORIENTED_EDGE ( 'NONE', *, *, #760, .T. ) ;
#211 = SURFACE_SIDE_STYLE ('',( #39 ) ) ;
#212 = CARTESIAN_POINT ( 'NONE',  ( 6.100000000000003197, 1.699999999999999956, -0.5000000000000651701 ) ) ;
#213 = SURFACE_STYLE_USAGE ( .BOTH. , #569 ) ;
#214 = CIRCLE ( 'NONE', #1127, 0.4999999999999953371 ) ;
#215 = VERTEX_POINT ( 'NONE', #374 ) ;
#216 = MECHANICAL_DESIGN_GEOMETRIC_PRESENTATION_REPRESENTATION (  '', ( #68 ), #711 ) ;
#217 = LINE ( 'NONE', #141, #630 ) ;
#218 = STYLED_ITEM ( 'NONE', ( #169 ), #428 ) ;
#219 = STYLED_ITEM ( 'NONE', ( #574 ), #725 ) ;
#220 = DIRECTION ( 'NONE',  ( 0.000000000000000000, -1.000000000000000000, 0.000000000000000000 ) ) ;
#221 = AXIS2_PLACEMENT_3D ( 'NONE', #1085, #8, #388 ) ;
#222 = DIRECTION ( 'NONE',  ( -0.000000000000000000, -1.000000000000000000, -0.000000000000000000 ) ) ;
#223 = ORIENTED_EDGE ( 'NONE', *, *, #504, .F. ) ;
#224 = DIRECTION ( 'NONE',  ( 0.9971765710067931332, 0.000000000000000000, -0.07509251783722514784 ) ) ;
#225 = DIRECTION ( 'NONE',  ( 0.000000000000000000, 0.000000000000000000, -1.000000000000000000 ) ) ;
#226 =( NAMED_UNIT ( * ) SI_UNIT ( $, .STERADIAN. ) SOLID_ANGLE_UNIT ( ) );
#227 = FACE_OUTER_BOUND ( 'NONE', #559, .T. ) ;
#228 = EDGE_LOOP ( 'NONE', ( #493, #925, #259, #1130 ) ) ;
#229 = CARTESIAN_POINT ( 'NONE',  ( 8.100000000000003197, 1.699999999999999956, -0.5000000000000566214 ) ) ;
#230 =( NAMED_UNIT ( * ) PLANE_ANGLE_UNIT ( ) SI_UNIT ( $, .RADIAN. ) );
#231 = PLANE ( 'NONE',  #1131 ) ;
#232 = DIRECTION ( 'NONE',  ( 0.000000000000000000, -1.000000000000000000, -0.000000000000000000 ) ) ;
#233 = ORIENTED_EDGE ( 'NONE', *, *, #871, .F. ) ;
#234 = DIRECTION ( 'NONE',  ( 0.000000000000000000, -1.000000000000000000, -0.000000000000000000 ) ) ;
#235 =( GEOMETRIC_REPRESENTATION_CONTEXT ( 3 ) GLOBAL_UNCERTAINTY_ASSIGNED_CONTEXT ( ( #443 ) ) GLOBAL_UNIT_ASSIGNED_CONTEXT ( ( #697, #1054, #252 ) ) REPRESENTATION_CONTEXT ( 'NONE', 'WORKASPACE' ) );
#236 = COLOUR_RGB ( '',1.000000000000000000, 0.000000000000000000, 1.000000000000000000 ) ;
#237 = COLOUR_RGB ( '',1.000000000000000000, 0.000000000000000000, 1.000000000000000000 ) ;
#238 =( GEOMETRIC_REPRESENTATION_CONTEXT ( 3 ) GLOBAL_UNCERTAINTY_ASSIGNED_CONTEXT ( ( #473 ) ) GLOBAL_UNIT_ASSIGNED_CONTEXT ( ( #403, #394, #301 ) ) REPRESENTATION_CONTEXT ( 'NONE', 'WORKASPACE' ) );
#239 = VERTEX_POINT ( 'NONE', #472 ) ;
#240 = EDGE_CURVE ( 'NONE', #1034, #1150, #914, .T. ) ;
#241 = DIRECTION ( 'NONE',  ( 0.000000000000000000, 0.000000000000000000, 1.000000000000000000 ) ) ;
#242 = CYLINDRICAL_SURFACE ( 'NONE', #127, 0.5000000000000007772 ) ;
#243 = CARTESIAN_POINT ( 'NONE',  ( 12.12902319910714333, 0.000000000000000000, 2.249706126706885634 ) ) ;
#244 = CARTESIAN_POINT ( 'NONE',  ( 0.000000000000000000, 4.299999999999999822, 0.000000000000000000 ) ) ;
#245 = EDGE_CURVE ( 'NONE', #937, #754, #1148, .T. ) ;
#246 = EDGE_LOOP ( 'NONE', ( #1091, #579 ) ) ;
#247 =( LENGTH_UNIT ( ) NAMED_UNIT ( * ) SI_UNIT ( .MILLI., .METRE. ) );
#248 = DIRECTION ( 'NONE',  ( 0.000000000000000000, 0.000000000000000000, 1.000000000000000000 ) ) ;
#249 = FILL_AREA_STYLE ('',( #1057 ) ) ;
#250 = EDGE_LOOP ( 'NONE', ( #594, #79, #652, #628 ) ) ;
#251 = CARTESIAN_POINT ( 'NONE',  ( 0.000000000000000000, 1.599999999999999867, 2.250000000000000000 ) ) ;
#252 =( NAMED_UNIT ( * ) SI_UNIT ( $, .STERADIAN. ) SOLID_ANGLE_UNIT ( ) );
#253 = PRESENTATION_LAYER_ASSIGNMENT (  '', '', ( #554 ) ) ;
#254 = UNCERTAINTY_MEASURE_WITH_UNIT (LENGTH_MEASURE( 1.000000000000000082E-05 ), #434, 'distance_accuracy_value', 'NONE');
#255 = SURFACE_STYLE_FILL_AREA ( #608 ) ;
#256 = SURFACE_STYLE_FILL_AREA ( #1094 ) ;
#257 =( LENGTH_UNIT ( ) NAMED_UNIT ( * ) SI_UNIT ( .MILLI., .METRE. ) );
#258 = AXIS2_PLACEMENT_3D ( 'NONE', #516, #868, #63 ) ;
#259 = ORIENTED_EDGE ( 'NONE', *, *, #131, .F. ) ;
#260 = CIRCLE ( 'NONE', #634, 2.250000000000000000 ) ;
#261 =( NAMED_UNIT ( * ) SI_UNIT ( $, .STERADIAN. ) SOLID_ANGLE_UNIT ( ) );
#262 =( LENGTH_UNIT ( ) NAMED_UNIT ( * ) SI_UNIT ( .MILLI., .METRE. ) );
#263 = CARTESIAN_POINT ( 'NONE',  ( 0.000000000000000000, 4.299999999999999822, 0.000000000000000000 ) ) ;
#264 = EDGE_LOOP ( 'NONE', ( #223, #844, #686, #140 ) ) ;
#265 = DIRECTION ( 'NONE',  ( 0.000000000000000000, 0.000000000000000000, -1.000000000000000000 ) ) ;
#266 = DIRECTION ( 'NONE',  ( 0.000000000000000000, 0.000000000000000000, 1.000000000000000000 ) ) ;
#267 = SURFACE_STYLE_FILL_AREA ( #627 ) ;
#268 = EDGE_LOOP ( 'NONE', ( #379, #920, #587, #180 ) ) ;
#269 = SURFACE_SIDE_STYLE ('',( #737 ) ) ;
#270 = FACE_OUTER_BOUND ( 'NONE', #833, .T. ) ;
#271 = AXIS2_PLACEMENT_3D ( 'NONE', #208, #741, #1087 ) ;
#272 = AXIS2_PLACEMENT_3D ( 'NONE', #1080, #349, #191 ) ;
#273 = CARTESIAN_POINT ( 'NONE',  ( 6.100000000000003197, 1.699999999999999956, 0.4999999999999255040 ) ) ;
#274 = VECTOR ( 'NONE', #425, 1000.000000000000000 ) ;
#275 = STYLED_ITEM ( 'NONE', ( #981 ), #466 ) ;
#276 = ORIENTED_EDGE ( 'NONE', *, *, #834, .T. ) ;
#277 = CARTESIAN_POINT ( 'NONE',  ( 4.531193156845205215E-16, 4.299999999999999822, 3.700000000000000178 ) ) ;
#278 = EDGE_CURVE ( 'NONE', #736, #330, #1076, .T. ) ;
#279 = AXIS2_PLACEMENT_3D ( 'NONE', #837, #568, #225 ) ;
#280 = CARTESIAN_POINT ( 'NONE',  ( 3.245314017740485962E-16, 0.000000000000000000, 2.649999999999999911 ) ) ;
#281 = UNCERTAINTY_MEASURE_WITH_UNIT (LENGTH_MEASURE( 1.000000000000000082E-05 ), #619, 'distance_accuracy_value', 'NONE');
#282 = DIRECTION ( 'NONE',  ( -0.000000000000000000, -1.000000000000000000, -0.000000000000000000 ) ) ;
#283 = SURFACE_SIDE_STYLE ('',( #370 ) ) ;
#284 = VERTEX_POINT ( 'NONE', #280 ) ;
#285 = ADVANCED_FACE ( 'NONE', ( #1060 ), #561, .F. ) ;
#286 =( NAMED_UNIT ( * ) SI_UNIT ( $, .STERADIAN. ) SOLID_ANGLE_UNIT ( ) );
#287 = LINE ( 'NONE', #816, #362 ) ;
#288 = FACE_OUTER_BOUND ( 'NONE', #250, .T. ) ;
#289 = DIRECTION ( 'NONE',  ( 0.000000000000000000, 1.000000000000000000, 0.000000000000000000 ) ) ;
#290 = ORIENTED_EDGE ( 'NONE', *, *, #909, .F. ) ;
#291 = EDGE_CURVE ( 'NONE', #911, #198, #159, .T. ) ;
#292 =( NAMED_UNIT ( * ) SI_UNIT ( $, .STERADIAN. ) SOLID_ANGLE_UNIT ( ) );
#293 = COLOUR_RGB ( '',1.000000000000000000, 0.000000000000000000, 1.000000000000000000 ) ;
#294 = PRESENTATION_STYLE_ASSIGNMENT (( #118 ) ) ;
#295 = PRESENTATION_LAYER_ASSIGNMENT (  '', '', ( #874 ) ) ;
#296 = VERTEX_POINT ( 'NONE', #77 ) ;
#297 = VECTOR ( 'NONE', #58, 1000.000000000000000 ) ;
#298 = SURFACE_SIDE_STYLE ('',( #256 ) ) ;
#299 = SURFACE_SIDE_STYLE ('',( #661 ) ) ;
#300 = ADVANCED_FACE ( 'NONE', ( #115 ), #392, .F. ) ;
#301 =( NAMED_UNIT ( * ) SI_UNIT ( $, .STERADIAN. ) SOLID_ANGLE_UNIT ( ) );
#302 = CARTESIAN_POINT ( 'NONE',  ( 0.000000000000000000, 1.699999999999999956, 0.000000000000000000 ) ) ;
#303 = EDGE_LOOP ( 'NONE', ( #602, #90 ) ) ;
#304 = CARTESIAN_POINT ( 'NONE',  ( 12.10000000000000320, 1.699999999999999956, -2.793185071074506684E-14 ) ) ;
#305 = CYLINDRICAL_SURFACE ( 'NONE', #431, 0.4999999999999953371 ) ;
#306 = ORIENTED_EDGE ( 'NONE', *, *, #530, .T. ) ;
#307 = CARTESIAN_POINT ( 'NONE',  ( 0.000000000000000000, 1.599999999999999867, 0.000000000000000000 ) ) ;
#308 = FILL_AREA_STYLE_COLOUR ( '', #94 ) ;
#309 = PRESENTATION_STYLE_ASSIGNMENT (( #213 ) ) ;
#310 = CARTESIAN_POINT ( 'NONE',  ( 0.000000000000000000, 4.299999999999999822, 0.000000000000000000 ) ) ;
#311 = ORIENTED_EDGE ( 'NONE', *, *, #209, .F. ) ;
#312 = COLOUR_RGB ( '',1.000000000000000000, 0.000000000000000000, 1.000000000000000000 ) ;
#313 = SURFACE_STYLE_USAGE ( .BOTH. , #211 ) ;
#314 = PRESENTATION_LAYER_ASSIGNMENT (  '', '', ( #713 ) ) ;
#315 = AXIS2_PLACEMENT_3D ( 'NONE', #99, #25, #9 ) ;
#316 = DIRECTION ( 'NONE',  ( 0.000000000000000000, -1.000000000000000000, 0.000000000000000000 ) ) ;
#317 = VECTOR ( 'NONE', #998, 1000.000000000000000 ) ;
#318 = SURFACE_SIDE_STYLE ('',( #927 ) ) ;
#319 = ORIENTED_EDGE ( 'NONE', *, *, #834, .F. ) ;
#320 = EDGE_CURVE ( 'NONE', #84, #935, #648, .T. ) ;
#321 = PLANE ( 'NONE',  #709 ) ;
#322 = DIRECTION ( 'NONE',  ( 0.000000000000000000, 0.000000000000000000, -1.000000000000000000 ) ) ;
#323 = CARTESIAN_POINT ( 'NONE',  ( 0.2368533003357828071, 1.699999999999999956, 3.145247604727347657 ) ) ;
#324 = DIRECTION ( 'NONE',  ( 0.000000000000000000, -1.000000000000000000, 0.000000000000000000 ) ) ;
#325 = ORIENTED_EDGE ( 'NONE', *, *, #424, .F. ) ;
#326 = APPLICATION_CONTEXT ( 'automotive_design' ) ;
#327 = PLANE ( 'NONE',  #52 ) ;
#328 = FILL_AREA_STYLE_COLOUR ( '', #788 ) ;
#329 = CARTESIAN_POINT ( 'NONE',  ( 0.000000000000000000, 1.000000000000000000, 0.000000000000000000 ) ) ;
#330 = VERTEX_POINT ( 'NONE', #673 ) ;
#331 =( GEOMETRIC_REPRESENTATION_CONTEXT ( 3 ) GLOBAL_UNCERTAINTY_ASSIGNED_CONTEXT ( ( #116 ) ) GLOBAL_UNIT_ASSIGNED_CONTEXT ( ( #194, #404, #409 ) ) REPRESENTATION_CONTEXT ( 'NONE', 'WORKASPACE' ) );
#332 =( GEOMETRIC_REPRESENTATION_CONTEXT ( 3 ) GLOBAL_UNCERTAINTY_ASSIGNED_CONTEXT ( ( #789 ) ) GLOBAL_UNIT_ASSIGNED_CONTEXT ( ( #247, #230, #684 ) ) REPRESENTATION_CONTEXT ( 'NONE', 'WORKASPACE' ) );
#333 = AXIS2_PLACEMENT_3D ( 'NONE', #870, #793, #889 ) ;
#334 = VECTOR ( 'NONE', #745, 1000.000000000000000 ) ;
#335 = EDGE_CURVE ( 'NONE', #754, #1034, #938, .T. ) ;
#336 = COLOUR_RGB ( '',1.000000000000000000, 0.000000000000000000, 1.000000000000000000 ) ;
#337 = CARTESIAN_POINT ( 'NONE',  ( 0.000000000000000000, 1.599999999999999867, 0.000000000000000000 ) ) ;
#338 = PRESENTATION_STYLE_ASSIGNMENT (( #718 ) ) ;
#339 = ORIENTED_EDGE ( 'NONE', *, *, #945, .F. ) ;
#340 = DIRECTION ( 'NONE',  ( -0.000000000000000000, -1.000000000000000000, -0.000000000000000000 ) ) ;
#341 = UNCERTAINTY_MEASURE_WITH_UNIT (LENGTH_MEASURE( 1.000000000000000082E-05 ), #768, 'distance_accuracy_value', 'NONE');
#342 = LINE ( 'NONE', #599, #400 ) ;
#343 = FILL_AREA_STYLE_COLOUR ( '', #853 ) ;
#344 = CARTESIAN_POINT ( 'NONE',  ( 0.2368533003357828071, 1.699999999999999956, 3.145247604727347657 ) ) ;
#345 = ORIENTED_EDGE ( 'NONE', *, *, #905, .T. ) ;
#346 = FACE_BOUND ( 'NONE', #151, .T. ) ;
#347 =( NAMED_UNIT ( * ) PLANE_ANGLE_UNIT ( ) SI_UNIT ( $, .RADIAN. ) );
#348 = FACE_BOUND ( 'NONE', #49, .T. ) ;
#349 = DIRECTION ( 'NONE',  ( 0.000000000000000000, -1.000000000000000000, 0.000000000000000000 ) ) ;
#350 =( NAMED_UNIT ( * ) SI_UNIT ( $, .STERADIAN. ) SOLID_ANGLE_UNIT ( ) );
#351 = VERTEX_POINT ( 'NONE', #229 ) ;
#352 = FACE_BOUND ( 'NONE', #486, .T. ) ;
#353 =( GEOMETRIC_REPRESENTATION_CONTEXT ( 3 ) GLOBAL_UNCERTAINTY_ASSIGNED_CONTEXT ( ( #103 ) ) GLOBAL_UNIT_ASSIGNED_CONTEXT ( ( #395, #825, #830 ) ) REPRESENTATION_CONTEXT ( 'NONE', 'WORKASPACE' ) );
#354 = SURFACE_SIDE_STYLE ('',( #861 ) ) ;
#355 = AXIS2_PLACEMENT_3D ( 'NONE', #1002, #832, #18 ) ;
#356 = STYLED_ITEM ( 'NONE', ( #406 ), #411 ) ;
#357 = SURFACE_STYLE_FILL_AREA ( #520 ) ;
#358 = VECTOR ( 'NONE', #448, 1000.000000000000000 ) ;
#359 = CYLINDRICAL_SURFACE ( 'NONE', #916, 3.700000000000000178 ) ;
#360 =( GEOMETRIC_REPRESENTATION_CONTEXT ( 3 ) GLOBAL_UNCERTAINTY_ASSIGNED_CONTEXT ( ( #890 ) ) GLOBAL_UNIT_ASSIGNED_CONTEXT ( ( #257, #807, #601 ) ) REPRESENTATION_CONTEXT ( 'NONE', 'WORKASPACE' ) );
#361 = VERTEX_POINT ( 'NONE', #488 ) ;
#362 = VECTOR ( 'NONE', #282, 1000.000000000000000 ) ;
#363 = DIRECTION ( 'NONE',  ( 0.000000000000000000, 0.000000000000000000, 1.000000000000000000 ) ) ;
#364 = APPLICATION_PROTOCOL_DEFINITION ( 'draft international standard', 'automotive_design', 1998, #658 ) ;
#365 = DIRECTION ( 'NONE',  ( -0.000000000000000000, -1.000000000000000000, -0.000000000000000000 ) ) ;
#366 = VERTEX_POINT ( 'NONE', #481 ) ;
#367 = DIRECTION ( 'NONE',  ( 0.000000000000000000, -1.000000000000000000, 0.000000000000000000 ) ) ;
#368 = UNCERTAINTY_MEASURE_WITH_UNIT (LENGTH_MEASURE( 1.000000000000000082E-05 ), #885, 'distance_accuracy_value', 'NONE');
#369 = LINE ( 'NONE', #625, #317 ) ;
#370 = SURFACE_STYLE_FILL_AREA ( #1070 ) ;
#371 = ORIENTED_EDGE ( 'NONE', *, *, #714, .T. ) ;
#372 = EDGE_CURVE ( 'NONE', #671, #779, #206, .T. ) ;
#373 = APPLICATION_PROTOCOL_DEFINITION ( 'draft international standard', 'automotive_design', 1998, #326 ) ;
#374 = CARTESIAN_POINT ( 'NONE',  ( 2.755455298081543792E-16, 1.599999999999999867, -2.250000000000000000 ) ) ;
#375 = EDGE_CURVE ( 'NONE', #694, #361, #217, .T. ) ;
#376 = DIRECTION ( 'NONE',  ( 0.000000000000000000, 0.000000000000000000, 1.000000000000000000 ) ) ;
#377 = STYLED_ITEM ( 'NONE', ( #712 ), #1133 ) ;
#378 = AXIS2_PLACEMENT_3D ( 'NONE', #23, #385, #363 ) ;
#379 = ORIENTED_EDGE ( 'NONE', *, *, #818, .F. ) ;
#380 =( GEOMETRIC_REPRESENTATION_CONTEXT ( 3 ) GLOBAL_UNCERTAINTY_ASSIGNED_CONTEXT ( ( #1055 ) ) GLOBAL_UNIT_ASSIGNED_CONTEXT ( ( #989, #467, #464 ) ) REPRESENTATION_CONTEXT ( 'NONE', 'WORKASPACE' ) );
#381 = PRESENTATION_STYLE_ASSIGNMENT (( #97 ) ) ;
#382 = CARTESIAN_POINT ( 'NONE',  ( 0.000000000000000000, 4.299999999999999822, 0.000000000000000000 ) ) ;
#383 = FILL_AREA_STYLE_COLOUR ( '', #1014 ) ;
#384 = SURFACE_STYLE_USAGE ( .BOTH. , #492 ) ;
#385 = DIRECTION ( 'NONE',  ( -0.000000000000000000, -1.000000000000000000, -0.000000000000000000 ) ) ;
#386 = DIRECTION ( 'NONE',  ( 0.000000000000000000, 0.000000000000000000, 1.000000000000000000 ) ) ;
#387 = CARTESIAN_POINT ( 'NONE',  ( 8.100000000000003197, 1.699999999999999956, -5.586370142149013368E-14 ) ) ;
#388 = DIRECTION ( 'NONE',  ( 0.000000000000000000, -0.000000000000000000, -1.000000000000000000 ) ) ;
#389 = SURFACE_STYLE_FILL_AREA ( #928 ) ;
#390 = EDGE_LOOP ( 'NONE', ( #133, #189, #707, #1143 ) ) ;
#391 = ADVANCED_FACE ( 'NONE', ( #567, #571 ), #321, .F. ) ;
#392 = CYLINDRICAL_SURFACE ( 'NONE', #803, 2.250000000000000000 ) ;
#393 =( NAMED_UNIT ( * ) PLANE_ANGLE_UNIT ( ) SI_UNIT ( $, .RADIAN. ) );
#394 =( NAMED_UNIT ( * ) PLANE_ANGLE_UNIT ( ) SI_UNIT ( $, .RADIAN. ) );
#395 =( LENGTH_UNIT ( ) NAMED_UNIT ( * ) SI_UNIT ( .MILLI., .METRE. ) );
#396 = PRESENTATION_LAYER_ASSIGNMENT (  '', '', ( #1040 ) ) ;
#397 = CIRCLE ( 'NONE', #577, 0.5000000000000007772 ) ;
#398 = ORIENTED_EDGE ( 'NONE', *, *, #607, .T. ) ;
#399 = PRESENTATION_LAYER_ASSIGNMENT (  '', '', ( #1096 ) ) ;
#400 = VECTOR ( 'NONE', #794, 1000.000000000000000 ) ;
#401 = AXIS2_PLACEMENT_3D ( 'NONE', #939, #419, #123 ) ;
#402 = DIRECTION ( 'NONE',  ( -0.000000000000000000, -1.000000000000000000, -0.000000000000000000 ) ) ;
#403 =( LENGTH_UNIT ( ) NAMED_UNIT ( * ) SI_UNIT ( .MILLI., .METRE. ) );
#404 =( NAMED_UNIT ( * ) PLANE_ANGLE_UNIT ( ) SI_UNIT ( $, .RADIAN. ) );
#405 = ORIENTED_EDGE ( 'NONE', *, *, #190, .T. ) ;
#406 = PRESENTATION_STYLE_ASSIGNMENT (( #313 ) ) ;
#407 = CARTESIAN_POINT ( 'NONE',  ( 8.100000000000003197, 1.699999999999999956, -5.586370142149013368E-14 ) ) ;
#408 = FACE_OUTER_BOUND ( 'NONE', #390, .T. ) ;
#409 =( NAMED_UNIT ( * ) SI_UNIT ( $, .STERADIAN. ) SOLID_ANGLE_UNIT ( ) );
#410 = VERTEX_POINT ( 'NONE', #1023 ) ;
#411 = ADVANCED_FACE ( 'NONE', ( #1104 ), #776, .T. ) ;
#412 = CARTESIAN_POINT ( 'NONE',  ( 0.000000000000000000, -0.0009999999999999158867, 1.500000000000000222 ) ) ;
#413 = EDGE_CURVE ( 'NONE', #215, #465, #595, .T. ) ;
#414 = CIRCLE ( 'NONE', #50, 3.700000000000000178 ) ;
#415 = ORIENTED_EDGE ( 'NONE', *, *, #664, .F. ) ;
#416 = PRESENTATION_LAYER_ASSIGNMENT (  '', '', ( #68 ) ) ;
#417 = VECTOR ( 'NONE', #340, 1000.000000000000000 ) ;
#418 = PRESENTATION_LAYER_ASSIGNMENT (  '', '', ( #841 ) ) ;
#419 = DIRECTION ( 'NONE',  ( 0.000000000000000000, 1.000000000000000000, 0.000000000000000000 ) ) ;
#420 = SURFACE_STYLE_FILL_AREA ( #439 ) ;
#421 = EDGE_LOOP ( 'NONE', ( #536, #863, #815, #1125, #476, #1067 ) ) ;
#422 = SURFACE_STYLE_USAGE ( .BOTH. , #437 ) ;
#423 = VERTEX_POINT ( 'NONE', #432 ) ;
#424 = EDGE_CURVE ( 'NONE', #935, #84, #505, .T. ) ;
#425 = DIRECTION ( 'NONE',  ( -0.000000000000000000, -1.000000000000000000, -0.000000000000000000 ) ) ;
#426 = CARTESIAN_POINT ( 'NONE',  ( 2.165640782770770656, 1.699999999999999956, 3.000000000000001332 ) ) ;
#427 =( NAMED_UNIT ( * ) SI_UNIT ( $, .STERADIAN. ) SOLID_ANGLE_UNIT ( ) );
#428 = ADVANCED_FACE ( 'NONE', ( #346, #1126, #877, #352, #533, #1048 ), #327, .F. ) ;
#429 = DIRECTION ( 'NONE',  ( 0.000000000000000000, 0.000000000000000000, 1.000000000000000000 ) ) ;
#430 = EDGE_LOOP ( 'NONE', ( #1108, #276, #480, #974 ) ) ;
#431 = AXIS2_PLACEMENT_3D ( 'NONE', #113, #222, #575 ) ;
#432 = CARTESIAN_POINT ( 'NONE',  ( 0.000000000000000000, 0.000000000000000000, -2.649999999999999911 ) ) ;
#433 = VECTOR ( 'NONE', #224, 1000.000000000000114 ) ;
#434 =( LENGTH_UNIT ( ) NAMED_UNIT ( * ) SI_UNIT ( .MILLI., .METRE. ) );
#435 = AXIS2_PLACEMENT_3D ( 'NONE', #529, #804, #968 ) ;
#436 =( GEOMETRIC_REPRESENTATION_CONTEXT ( 3 ) GLOBAL_UNCERTAINTY_ASSIGNED_CONTEXT ( ( #562 ) ) GLOBAL_UNIT_ASSIGNED_CONTEXT ( ( #762, #662, #226 ) ) REPRESENTATION_CONTEXT ( 'NONE', 'WORKASPACE' ) );
#437 = SURFACE_SIDE_STYLE ('',( #255 ) ) ;
#438 =( GEOMETRIC_REPRESENTATION_CONTEXT ( 3 ) GLOBAL_UNCERTAINTY_ASSIGNED_CONTEXT ( ( #631 ) ) GLOBAL_UNIT_ASSIGNED_CONTEXT ( ( #639, #550, #111 ) ) REPRESENTATION_CONTEXT ( 'NONE', 'WORKASPACE' ) );
#439 = FILL_AREA_STYLE ('',( #872 ) ) ;
#440 = SURFACE_SIDE_STYLE ('',( #972 ) ) ;
#441 = ORIENTED_EDGE ( 'NONE', *, *, #1039, .F. ) ;
#442 = DIRECTION ( 'NONE',  ( 0.000000000000000000, 0.000000000000000000, 1.000000000000000000 ) ) ;
#443 = UNCERTAINTY_MEASURE_WITH_UNIT (LENGTH_MEASURE( 1.000000000000000082E-05 ), #697, 'distance_accuracy_value', 'NONE');
#444 = LINE ( 'NONE', #426, #297 ) ;
#445 = DIRECTION ( 'NONE',  ( 0.000000000000000000, 0.000000000000000000, 1.000000000000000000 ) ) ;
#446 = EDGE_LOOP ( 'NONE', ( #942, #106 ) ) ;
#447 = CARTESIAN_POINT ( 'NONE',  ( 10.10000000000000320, 0.000000000000000000, -4.189777606611760026E-14 ) ) ;
#448 = DIRECTION ( 'NONE',  ( -0.000000000000000000, -1.000000000000000000, -0.000000000000000000 ) ) ;
#449 = EDGE_LOOP ( 'NONE', ( #801, #901 ) ) ;
#450 = FILL_AREA_STYLE ('',( #85 ) ) ;
#451 = CIRCLE ( 'NONE', #456, 2.649999999999999911 ) ;
#452 = VECTOR ( 'NONE', #1, 1000.000000000000000 ) ;
#453 = PRESENTATION_LAYER_ASSIGNMENT (  '', '', ( #715 ) ) ;
#454 = FILL_AREA_STYLE_COLOUR ( '', #770 ) ;
#455 = EDGE_LOOP ( 'NONE', ( #497, #566 ) ) ;
#456 = AXIS2_PLACEMENT_3D ( 'NONE', #1122, #66, #513 ) ;
#457 = DIRECTION ( 'NONE',  ( 0.000000000000000000, 0.000000000000000000, -1.000000000000000000 ) ) ;
#458 = CARTESIAN_POINT ( 'NONE',  ( 0.2368533003357828071, 0.000000000000000000, -3.145247604727347657 ) ) ;
#459 = EDGE_CURVE ( 'NONE', #351, #330, #956, .T. ) ;
#460 = EDGE_LOOP ( 'NONE', ( #72, #547, #646, #528 ) ) ;
#461 = LINE ( 'NONE', #624, #933 ) ;
#462 = EDGE_CURVE ( 'NONE', #423, #284, #89, .T. ) ;
#463 = LINE ( 'NONE', #744, #690 ) ;
#464 =( NAMED_UNIT ( * ) SI_UNIT ( $, .STERADIAN. ) SOLID_ANGLE_UNIT ( ) );
#465 = VERTEX_POINT ( 'NONE', #251 ) ;
#466 = ADVANCED_FACE ( 'NONE', ( #696 ), #1053, .F. ) ;
#467 =( NAMED_UNIT ( * ) PLANE_ANGLE_UNIT ( ) SI_UNIT ( $, .RADIAN. ) );
#468 = CIRCLE ( 'NONE', #670, 3.700000000000000178 ) ;
#469 = FILL_AREA_STYLE_COLOUR ( '', #971 ) ;
#470 = FILL_AREA_STYLE_COLOUR ( '', #236 ) ;
#471 = STYLED_ITEM ( 'NONE', ( #309 ), #756 ) ;
#472 = CARTESIAN_POINT ( 'NONE',  ( 6.100000000000003197, 0.000000000000000000, -0.5000000000000651701 ) ) ;
#473 = UNCERTAINTY_MEASURE_WITH_UNIT (LENGTH_MEASURE( 1.000000000000000082E-05 ), #403, 'distance_accuracy_value', 'NONE');
#474 = FILL_AREA_STYLE ('',( #722 ) ) ;
#475 = DIRECTION ( 'NONE',  ( 0.000000000000000000, 1.000000000000000000, 0.000000000000000000 ) ) ;
#476 = ORIENTED_EDGE ( 'NONE', *, *, #75, .F. ) ;
#477 =( NAMED_UNIT ( * ) PLANE_ANGLE_UNIT ( ) SI_UNIT ( $, .RADIAN. ) );
#478 =( LENGTH_UNIT ( ) NAMED_UNIT ( * ) SI_UNIT ( .MILLI., .METRE. ) );
#479 = FILL_AREA_STYLE_COLOUR ( '', #129 ) ;
#480 = ORIENTED_EDGE ( 'NONE', *, *, #462, .F. ) ;
#481 = CARTESIAN_POINT ( 'NONE',  ( 2.165640782770770656, 1.700000000000000178, 3.000000000000001332 ) ) ;
#482 = AXIS2_PLACEMENT_3D ( 'NONE', #337, #54, #248 ) ;
#483 = FILL_AREA_STYLE ('',( #1017 ) ) ;
#484 =( GEOMETRIC_REPRESENTATION_CONTEXT ( 3 ) GLOBAL_UNCERTAINTY_ASSIGNED_CONTEXT ( ( #820 ) ) GLOBAL_UNIT_ASSIGNED_CONTEXT ( ( #795, #886, #772 ) ) REPRESENTATION_CONTEXT ( 'NONE', 'WORKASPACE' ) );
#485 = AXIS2_PLACEMENT_3D ( 'NONE', #1065, #621, #442 ) ;
#486 = EDGE_LOOP ( 'NONE', ( #869, #990 ) ) ;
#487 = AXIS2_PLACEMENT_3D ( 'NONE', #20, #184, #176 ) ;
#488 = CARTESIAN_POINT ( 'NONE',  ( 0.000000000000000000, 0.000000000000000000, -3.700000000000000178 ) ) ;
#489 = CYLINDRICAL_SURFACE ( 'NONE', #1132, 0.4999999999999953371 ) ;
#490 = EDGE_CURVE ( 'NONE', #682, #620, #548, .T. ) ;
#491 = DIRECTION ( 'NONE',  ( -0.07509251783722516171, 0.000000000000000000, -0.9971765710067932442 ) ) ;
#492 = SURFACE_SIDE_STYLE ('',( #389 ) ) ;
#493 = ORIENTED_EDGE ( 'NONE', *, *, #643, .T. ) ;
#494 = PRESENTATION_STYLE_ASSIGNMENT (( #835 ) ) ;
#495 = EDGE_CURVE ( 'NONE', #1150, #1034, #578, .T. ) ;
#496 = SURFACE_STYLE_USAGE ( .BOTH. , #951 ) ;
#497 = ORIENTED_EDGE ( 'NONE', *, *, #572, .F. ) ;
#498 =( NAMED_UNIT ( * ) PLANE_ANGLE_UNIT ( ) SI_UNIT ( $, .RADIAN. ) );
#499 = CARTESIAN_POINT ( 'NONE',  ( 6.100000000000003197, 1.699999999999999956, -6.982962677686266711E-14 ) ) ;
#500 =( NAMED_UNIT ( * ) SI_UNIT ( $, .STERADIAN. ) SOLID_ANGLE_UNIT ( ) );
#501 = CARTESIAN_POINT ( 'NONE',  ( 2.755455298081543792E-16, 1.599999999999999867, -2.250000000000000000 ) ) ;
#502 = AXIS2_PLACEMENT_3D ( 'NONE', #387, #743, #921 ) ;
#503 = ORIENTED_EDGE ( 'NONE', *, *, #240, .T. ) ;
#504 = EDGE_CURVE ( 'NONE', #1045, #164, #908, .T. ) ;
#505 = CIRCLE ( 'NONE', #435, 0.5000000000000007772 ) ;
#506 = MECHANICAL_DESIGN_GEOMETRIC_PRESENTATION_REPRESENTATION (  '', ( #3 ), #845 ) ;
#507 = FILL_AREA_STYLE ('',( #604 ) ) ;
#508 = VECTOR ( 'NONE', #647, 1000.000000000000114 ) ;
#509 = SURFACE_STYLE_FILL_AREA ( #483 ) ;
#510 = PRESENTATION_STYLE_ASSIGNMENT (( #496 ) ) ;
#511 = EDGE_CURVE ( 'NONE', #410, #239, #163, .T. ) ;
#512 = ORIENTED_EDGE ( 'NONE', *, *, #1025, .F. ) ;
#513 = DIRECTION ( 'NONE',  ( 0.000000000000000000, 0.000000000000000000, 1.000000000000000000 ) ) ;
#514 = FACE_OUTER_BOUND ( 'NONE', #460, .T. ) ;
#515 =( NAMED_UNIT ( * ) PLANE_ANGLE_UNIT ( ) SI_UNIT ( $, .RADIAN. ) );
#516 = CARTESIAN_POINT ( 'NONE',  ( 0.000000000000000000, 1.000000000000000000, 0.000000000000000000 ) ) ;
#517 = ORIENTED_EDGE ( 'NONE', *, *, #335, .T. ) ;
#518 = CYLINDRICAL_SURFACE ( 'NONE', #636, 2.649999999999999911 ) ;
#519 = UNCERTAINTY_MEASURE_WITH_UNIT (LENGTH_MEASURE( 1.000000000000000082E-05 ), #586, 'distance_accuracy_value', 'NONE');
#520 = FILL_AREA_STYLE ('',( #866 ) ) ;
#521 = CARTESIAN_POINT ( 'NONE',  ( 0.2368533003357828071, 1.699999999999999956, -3.145247604727347657 ) ) ;
#522 = DIRECTION ( 'NONE',  ( 0.9971765710067931332, 0.000000000000000000, -0.07509251783722514784 ) ) ;
#523 = ORIENTED_EDGE ( 'NONE', *, *, #490, .F. ) ;
#524 = CIRCLE ( 'NONE', #17, 0.5000000000000007772 ) ;
#525 = PRESENTATION_LAYER_ASSIGNMENT (  '', '', ( #219 ) ) ;
#526 = COLOUR_RGB ( '',1.000000000000000000, 0.000000000000000000, 1.000000000000000000 ) ;
#527 = SURFACE_STYLE_USAGE ( .BOTH. , #1043 ) ;
#528 = ORIENTED_EDGE ( 'NONE', *, *, #335, .F. ) ;
#529 = CARTESIAN_POINT ( 'NONE',  ( 12.10000000000000320, 1.699999999999999956, -2.793185071074506684E-14 ) ) ;
#530 = EDGE_CURVE ( 'NONE', #465, #677, #461, .T. ) ;
#531 = SURFACE_STYLE_FILL_AREA ( #828 ) ;
#532 = ORIENTED_EDGE ( 'NONE', *, *, #1121, .F. ) ;
#533 = FACE_BOUND ( 'NONE', #246, .T. ) ;
#534 = FILL_AREA_STYLE_COLOUR ( '', #336 ) ;
#535 = PLANE ( 'NONE',  #689 ) ;
#536 = ORIENTED_EDGE ( 'NONE', *, *, #945, .T. ) ;
#537 = DIRECTION ( 'NONE',  ( 0.000000000000000000, -1.000000000000000000, 0.000000000000000000 ) ) ;
#538 = MECHANICAL_DESIGN_GEOMETRIC_PRESENTATION_REPRESENTATION (  '', ( #819 ), #949 ) ;
#539 = MECHANICAL_DESIGN_GEOMETRIC_PRESENTATION_REPRESENTATION (  '', ( #377 ), #235 ) ;
#540 = PRESENTATION_LAYER_ASSIGNMENT (  '', '', ( #897 ) ) ;
#541 = CARTESIAN_POINT ( 'NONE',  ( 6.100000000000003197, 0.000000000000000000, -6.982962677686266711E-14 ) ) ;
#542 = EDGE_LOOP ( 'NONE', ( #174, #919, #44, #1100 ) ) ;
#543 = ADVANCED_FACE ( 'NONE', ( #6 ), #728, .F. ) ;
#544 =( NAMED_UNIT ( * ) PLANE_ANGLE_UNIT ( ) SI_UNIT ( $, .RADIAN. ) );
#545 = FILL_AREA_STYLE ('',( #1015 ) ) ;
#546 = DIRECTION ( 'NONE',  ( 0.000000000000000000, -1.000000000000000000, 0.000000000000000000 ) ) ;
#547 = ORIENTED_EDGE ( 'NONE', *, *, #960, .T. ) ;
#548 = LINE ( 'NONE', #93, #452 ) ;
#549 = CARTESIAN_POINT ( 'NONE',  ( 12.10000000000000320, 0.000000000000000000, -0.5000000000000287548 ) ) ;
#550 =( NAMED_UNIT ( * ) PLANE_ANGLE_UNIT ( ) SI_UNIT ( $, .RADIAN. ) );
#551 = ORIENTED_EDGE ( 'NONE', *, *, #375, .F. ) ;
#552 = DIRECTION ( 'NONE',  ( -0.000000000000000000, 1.000000000000000000, -0.000000000000000000 ) ) ;
#553 = CARTESIAN_POINT ( 'NONE',  ( 0.000000000000000000, 0.000000000000000000, 0.000000000000000000 ) ) ;
#554 = STYLED_ITEM ( 'NONE', ( #37 ), #7 ) ;
#555 = CARTESIAN_POINT ( 'NONE',  ( 10.10000000000000320, 1.699999999999999956, 0.4999999999999589217 ) ) ;
#556 = PRESENTATION_LAYER_ASSIGNMENT (  '', '', ( #1061 ) ) ;
#557 = CARTESIAN_POINT ( 'NONE',  ( 0.000000000000000000, 1.599999999999999867, 0.000000000000000000 ) ) ;
#558 = AXIS2_PLACEMENT_3D ( 'NONE', #912, #552, #637 ) ;
#559 = EDGE_LOOP ( 'NONE', ( #319, #138, #1037, #147 ) ) ;
#560 =( GEOMETRIC_REPRESENTATION_CONTEXT ( 3 ) GLOBAL_UNCERTAINTY_ASSIGNED_CONTEXT ( ( #368 ) ) GLOBAL_UNIT_ASSIGNED_CONTEXT ( ( #885, #1041, #1146 ) ) REPRESENTATION_CONTEXT ( 'NONE', 'WORKASPACE' ) );
#561 = CYLINDRICAL_SURFACE ( 'NONE', #502, 0.5000000000000007772 ) ;
#562 = UNCERTAINTY_MEASURE_WITH_UNIT (LENGTH_MEASURE( 1.000000000000000082E-05 ), #762, 'distance_accuracy_value', 'NONE');
#563 = LINE ( 'NONE', #1021, #1077 ) ;
#564 = SURFACE_SIDE_STYLE ('',( #267 ) ) ;
#565 = SURFACE_SIDE_STYLE ('',( #204 ) ) ;
#566 = ORIENTED_EDGE ( 'NONE', *, *, #940, .F. ) ;
#567 = FACE_BOUND ( 'NONE', #455, .T. ) ;
#568 = DIRECTION ( 'NONE',  ( -0.000000000000000000, -1.000000000000000000, -0.000000000000000000 ) ) ;
#569 = SURFACE_SIDE_STYLE ('',( #47 ) ) ;
#570 = CARTESIAN_POINT ( 'NONE',  ( 0.000000000000000000, 0.000000000000000000, 0.000000000000000000 ) ) ;
#571 = FACE_OUTER_BOUND ( 'NONE', #64, .T. ) ;
#572 = EDGE_CURVE ( 'NONE', #792, #665, #839, .T. ) ;
#573 = DIRECTION ( 'NONE',  ( 0.000000000000000000, 0.000000000000000000, -1.000000000000000000 ) ) ;
#574 = PRESENTATION_STYLE_ASSIGNMENT (( #934 ) ) ;
#575 = DIRECTION ( 'NONE',  ( 0.000000000000000000, 0.000000000000000000, -1.000000000000000000 ) ) ;
#576 = COLOUR_RGB ( '',1.000000000000000000, 0.000000000000000000, 1.000000000000000000 ) ;
#577 = AXIS2_PLACEMENT_3D ( 'NONE', #773, #316, #573 ) ;
#578 = CIRCLE ( 'NONE', #179, 0.5000000000000007772 ) ;
#579 = ORIENTED_EDGE ( 'NONE', *, *, #278, .F. ) ;
#580 = PRESENTATION_LAYER_ASSIGNMENT (  '', '', ( #1079 ) ) ;
#581 = EDGE_CURVE ( 'NONE', #351, #296, #524, .T. ) ;
#582 = SURFACE_STYLE_FILL_AREA ( #45 ) ;
#583 =( NAMED_UNIT ( * ) SI_UNIT ( $, .STERADIAN. ) SOLID_ANGLE_UNIT ( ) );
#584 = FACE_BOUND ( 'NONE', #446, .T. ) ;
#585 = ORIENTED_EDGE ( 'NONE', *, *, #695, .T. ) ;
#586 =( LENGTH_UNIT ( ) NAMED_UNIT ( * ) SI_UNIT ( .MILLI., .METRE. ) );
#587 = ORIENTED_EDGE ( 'NONE', *, *, #459, .T. ) ;
#588 = EDGE_CURVE ( 'NONE', #620, #361, #468, .T. ) ;
#589 = CARTESIAN_POINT ( 'NONE',  ( 0.2368533003357828071, 0.000000000000000000, 3.145247604727347657 ) ) ;
#590 = FILL_AREA_STYLE ('',( #854 ) ) ;
#591 = FILL_AREA_STYLE ('',( #343 ) ) ;
#592 = VECTOR ( 'NONE', #867, 1000.000000000000000 ) ;
#593 = AXIS2_PLACEMENT_3D ( 'NONE', #447, #729, #1008 ) ;
#594 = ORIENTED_EDGE ( 'NONE', *, *, #413, .F. ) ;
#595 = CIRCLE ( 'NONE', #953, 2.250000000000000000 ) ;
#596 = VECTOR ( 'NONE', #1003, 1000.000000000000000 ) ;
#597 = PRESENTATION_STYLE_ASSIGNMENT (( #57 ) ) ;
#598 = UNCERTAINTY_MEASURE_WITH_UNIT (LENGTH_MEASURE( 1.000000000000000082E-05 ), #638, 'distance_accuracy_value', 'NONE');
#599 = CARTESIAN_POINT ( 'NONE',  ( 12.10000000000000320, 1.699999999999999956, 0.4999999999999727995 ) ) ;
#600 = SURFACE_STYLE_FILL_AREA ( #591 ) ;
#601 =( NAMED_UNIT ( * ) SI_UNIT ( $, .STERADIAN. ) SOLID_ANGLE_UNIT ( ) );
#602 = ORIENTED_EDGE ( 'NONE', *, *, #1025, .T. ) ;
#603 =( LENGTH_UNIT ( ) NAMED_UNIT ( * ) SI_UNIT ( .MILLI., .METRE. ) );
#604 = FILL_AREA_STYLE_COLOUR ( '', #952 ) ;
#605 = ORIENTED_EDGE ( 'NONE', *, *, #35, .F. ) ;
#606 = FILL_AREA_STYLE ('',( #613 ) ) ;
#607 = EDGE_CURVE ( 'NONE', #694, #1045, #821, .T. ) ;
#608 = FILL_AREA_STYLE ('',( #534 ) ) ;
#609 = CYLINDRICAL_SURFACE ( 'NONE', #15, 1.500000000000000222 ) ;
#610 = SURFACE_STYLE_FILL_AREA ( #249 ) ;
#611 = ORIENTED_EDGE ( 'NONE', *, *, #82, .F. ) ;
#612 = AXIS2_PLACEMENT_3D ( 'NONE', #570, #289, #645 ) ;
#613 = FILL_AREA_STYLE_COLOUR ( '', #128 ) ;
#614 = EDGE_CURVE ( 'NONE', #1052, #239, #873, .T. ) ;
#615 = AXIS2_PLACEMENT_3D ( 'NONE', #109, #200, #979 ) ;
#616 = FACE_OUTER_BOUND ( 'NONE', #858, .T. ) ;
#617 = FACE_OUTER_BOUND ( 'NONE', #228, .T. ) ;
#618 = AXIS2_PLACEMENT_3D ( 'NONE', #692, #1066, #778 ) ;
#619 =( LENGTH_UNIT ( ) NAMED_UNIT ( * ) SI_UNIT ( .MILLI., .METRE. ) );
#620 = VERTEX_POINT ( 'NONE', #796 ) ;
#621 = DIRECTION ( 'NONE',  ( 0.000000000000000000, 1.000000000000000000, 0.000000000000000000 ) ) ;
#622 = UNCERTAINTY_MEASURE_WITH_UNIT (LENGTH_MEASURE( 1.000000000000000082E-05 ), #674, 'distance_accuracy_value', 'NONE');
#623 = ORIENTED_EDGE ( 'NONE', *, *, #782, .T. ) ;
#624 = CARTESIAN_POINT ( 'NONE',  ( 0.000000000000000000, 1.599999999999999867, 2.250000000000000000 ) ) ;
#625 = CARTESIAN_POINT ( 'NONE',  ( 6.100000000000003197, 1.699999999999999956, 0.4999999999999255040 ) ) ;
#626 = ADVANCED_FACE ( 'NONE', ( #1062, #1141 ), #535, .T. ) ;
#627 = FILL_AREA_STYLE ('',( #479 ) ) ;
#628 = ORIENTED_EDGE ( 'NONE', *, *, #530, .F. ) ;
#629 = CIRCLE ( 'NONE', #612, 3.700000000000000178 ) ;
#630 = VECTOR ( 'NONE', #134, 1000.000000000000000 ) ;
#631 = UNCERTAINTY_MEASURE_WITH_UNIT (LENGTH_MEASURE( 1.000000000000000082E-05 ), #639, 'distance_accuracy_value', 'NONE');
#632 = MECHANICAL_DESIGN_GEOMETRIC_PRESENTATION_REPRESENTATION (  '', ( #218 ), #688 ) ;
#633 = PRESENTATION_STYLE_ASSIGNMENT (( #1069 ) ) ;
#634 = AXIS2_PLACEMENT_3D ( 'NONE', #382, #739, #829 ) ;
#635 = EDGE_LOOP ( 'NONE', ( #398, #55 ) ) ;
#636 = AXIS2_PLACEMENT_3D ( 'NONE', #879, #234, #777 ) ;
#637 = DIRECTION ( 'NONE',  ( 0.000000000000000000, 0.000000000000000000, 1.000000000000000000 ) ) ;
#638 =( LENGTH_UNIT ( ) NAMED_UNIT ( * ) SI_UNIT ( .MILLI., .METRE. ) );
#639 =( LENGTH_UNIT ( ) NAMED_UNIT ( * ) SI_UNIT ( .MILLI., .METRE. ) );
#640 = PRESENTATION_STYLE_ASSIGNMENT (( #112 ) ) ;
#641 = ORIENTED_EDGE ( 'NONE', *, *, #41, .T. ) ;
#642 = DIRECTION ( 'NONE',  ( 0.000000000000000000, 0.000000000000000000, 1.000000000000000000 ) ) ;
#643 = EDGE_CURVE ( 'NONE', #366, #911, #154, .T. ) ;
#644 = CARTESIAN_POINT ( 'NONE',  ( 12.10000000000000320, 1.699999999999999956, 0.4999999999999727995 ) ) ;
#645 = DIRECTION ( 'NONE',  ( 0.000000000000000000, 0.000000000000000000, 1.000000000000000000 ) ) ;
#646 = ORIENTED_EDGE ( 'NONE', *, *, #495, .T. ) ;
#647 = DIRECTION ( 'NONE',  ( 0.9971765710067931332, 0.000000000000000000, 0.07509251783722514784 ) ) ;
#648 = CIRCLE ( 'NONE', #51, 0.5000000000000007772 ) ;
#649 = PRESENTATION_LAYER_ASSIGNMENT (  '', '', ( #275 ) ) ;
#650 = PLANE ( 'NONE',  #752 ) ;
#651 =( GEOMETRIC_REPRESENTATION_CONTEXT ( 3 ) GLOBAL_UNCERTAINTY_ASSIGNED_CONTEXT ( ( #183 ) ) GLOBAL_UNIT_ASSIGNED_CONTEXT ( ( #906, #1004, #740 ) ) REPRESENTATION_CONTEXT ( 'NONE', 'WORKASPACE' ) );
#652 = ORIENTED_EDGE ( 'NONE', *, *, #924, .T. ) ;
#653 = COLOUR_RGB ( '',1.000000000000000000, 0.000000000000000000, 1.000000000000000000 ) ;
#654 = ORIENTED_EDGE ( 'NONE', *, *, #131, .T. ) ;
#655 =( GEOMETRIC_REPRESENTATION_CONTEXT ( 3 ) GLOBAL_UNCERTAINTY_ASSIGNED_CONTEXT ( ( #622 ) ) GLOBAL_UNIT_ASSIGNED_CONTEXT ( ( #674, #130, #117 ) ) REPRESENTATION_CONTEXT ( 'NONE', 'WORKASPACE' ) );
#656 = DIRECTION ( 'NONE',  ( -0.000000000000000000, 1.000000000000000000, -0.000000000000000000 ) ) ;
#657 = DIRECTION ( 'NONE',  ( 0.000000000000000000, -1.000000000000000000, -0.000000000000000000 ) ) ;
#658 = APPLICATION_CONTEXT ( 'automotive_design' ) ;
#659 = EDGE_LOOP ( 'NONE', ( #168, #797 ) ) ;
#660 = ADVANCED_FACE ( 'NONE', ( #891 ), #359, .T. ) ;
#661 = SURFACE_STYLE_FILL_AREA ( #667 ) ;
#662 =( NAMED_UNIT ( * ) PLANE_ANGLE_UNIT ( ) SI_UNIT ( $, .RADIAN. ) );
#663 = VERTEX_POINT ( 'NONE', #700 ) ;
#664 = EDGE_CURVE ( 'NONE', #30, #1120, #976, .T. ) ;
#665 = VERTEX_POINT ( 'NONE', #21 ) ;
#666 = CARTESIAN_POINT ( 'NONE',  ( 0.000000000000000000, 1.000000000000000000, 0.000000000000000000 ) ) ;
#667 = FILL_AREA_STYLE ('',( #308 ) ) ;
#668 = PLANE ( 'NONE',  #271 ) ;
#669 = CIRCLE ( 'NONE', #401, 1.500000000000000222 ) ;
#670 = AXIS2_PLACEMENT_3D ( 'NONE', #983, #78, #429 ) ;
#671 = VERTEX_POINT ( 'NONE', #734 ) ;
#672 = CIRCLE ( 'NONE', #1018, 3.700000000000000178 ) ;
#673 = CARTESIAN_POINT ( 'NONE',  ( 8.100000000000003197, 0.000000000000000000, -0.5000000000000566214 ) ) ;
#674 =( LENGTH_UNIT ( ) NAMED_UNIT ( * ) SI_UNIT ( .MILLI., .METRE. ) );
#675 = DIRECTION ( 'NONE',  ( 0.000000000000000000, -1.000000000000000000, 0.000000000000000000 ) ) ;
#676 = EDGE_CURVE ( 'NONE', #911, #779, #178, .T. ) ;
#677 = VERTEX_POINT ( 'NONE', #29 ) ;
#678 = DIRECTION ( 'NONE',  ( 0.000000000000000000, -1.000000000000000000, 0.000000000000000000 ) ) ;
#679 = DIRECTION ( 'NONE',  ( -0.000000000000000000, 1.000000000000000000, -0.000000000000000000 ) ) ;
#680 = CARTESIAN_POINT ( 'NONE',  ( 8.100000000000003197, 0.000000000000000000, 0.4999999999999449329 ) ) ;
#681 = DIRECTION ( 'NONE',  ( 0.000000000000000000, 0.000000000000000000, -1.000000000000000000 ) ) ;
#682 = VERTEX_POINT ( 'NONE', #1083 ) ;
#683 = SURFACE_SIDE_STYLE ('',( #1038 ) ) ;
#684 =( NAMED_UNIT ( * ) SI_UNIT ( $, .STERADIAN. ) SOLID_ANGLE_UNIT ( ) );
#685 = SURFACE_STYLE_USAGE ( .BOTH. , #149 ) ;
#686 = ORIENTED_EDGE ( 'NONE', *, *, #375, .T. ) ;
#687 = AXIS2_PLACEMENT_3D ( 'NONE', #135, #220, #944 ) ;
#688 =( GEOMETRIC_REPRESENTATION_CONTEXT ( 3 ) GLOBAL_UNCERTAINTY_ASSIGNED_CONTEXT ( ( #67 ) ) GLOBAL_UNIT_ASSIGNED_CONTEXT ( ( #603, #1139, #261 ) ) REPRESENTATION_CONTEXT ( 'NONE', 'WORKASPACE' ) );
#689 = AXIS2_PLACEMENT_3D ( 'NONE', #1051, #887, #966 ) ;
#690 = VECTOR ( 'NONE', #1089, 1000.000000000000000 ) ;
#691 = UNCERTAINTY_MEASURE_WITH_UNIT (LENGTH_MEASURE( 1.000000000000000082E-05 ), #864, 'distance_accuracy_value', 'NONE');
#692 = CARTESIAN_POINT ( 'NONE',  ( 10.10000000000000320, 1.699999999999999956, -4.189777606611760026E-14 ) ) ;
#693 =( NAMED_UNIT ( * ) PLANE_ANGLE_UNIT ( ) SI_UNIT ( $, .RADIAN. ) );
#694 = VERTEX_POINT ( 'NONE', #1090 ) ;
#695 = EDGE_CURVE ( 'NONE', #239, #410, #1151, .T. ) ;
#696 = FACE_OUTER_BOUND ( 'NONE', #96, .T. ) ;
#697 =( LENGTH_UNIT ( ) NAMED_UNIT ( * ) SI_UNIT ( .MILLI., .METRE. ) );
#698 = DIRECTION ( 'NONE',  ( -0.000000000000000000, -1.000000000000000000, -0.000000000000000000 ) ) ;
#699 = CARTESIAN_POINT ( 'NONE',  ( 12.10000000000000320, 1.699999999999999956, -0.5000000000000287548 ) ) ;
#700 = CARTESIAN_POINT ( 'NONE',  ( 12.10000000000000320, 0.000000000000000000, 0.4999999999999727995 ) ) ;
#701 = ADVANCED_FACE ( 'NONE', ( #723 ), #814, .T. ) ;
#702 = ORIENTED_EDGE ( 'NONE', *, *, #995, .T. ) ;
#703 = CARTESIAN_POINT ( 'NONE',  ( 0.000000000000000000, 0.000000000000000000, 0.000000000000000000 ) ) ;
#704 = PRESENTATION_STYLE_ASSIGNMENT (( #685 ) ) ;
#705 = PRESENTATION_STYLE_ASSIGNMENT (( #81 ) ) ;
#706 = FILL_AREA_STYLE ('',( #454 ) ) ;
#707 = ORIENTED_EDGE ( 'NONE', *, *, #909, .T. ) ;
#708 = MECHANICAL_DESIGN_GEOMETRIC_PRESENTATION_REPRESENTATION (  '', ( #1061 ), #353 ) ;
#709 = AXIS2_PLACEMENT_3D ( 'NONE', #666, #56, #860 ) ;
#710 = DIRECTION ( 'NONE',  ( 0.000000000000000000, 1.000000000000000000, 0.000000000000000000 ) ) ;
#711 =( GEOMETRIC_REPRESENTATION_CONTEXT ( 3 ) GLOBAL_UNCERTAINTY_ASSIGNED_CONTEXT ( ( #519 ) ) GLOBAL_UNIT_ASSIGNED_CONTEXT ( ( #586, #948, #765 ) ) REPRESENTATION_CONTEXT ( 'NONE', 'WORKASPACE' ) );
#712 = PRESENTATION_STYLE_ASSIGNMENT (( #142 ) ) ;
#713 = STYLED_ITEM ( 'NONE', ( #381 ), #543 ) ;
#714 = EDGE_CURVE ( 'NONE', #779, #1022, #143, .T. ) ;
#715 = STYLED_ITEM ( 'NONE', ( #294 ), #721 ) ;
#716 = DIRECTION ( 'NONE',  ( 0.000000000000000000, 1.000000000000000000, 0.000000000000000000 ) ) ;
#717 = VECTOR ( 'NONE', #698, 1000.000000000000000 ) ;
#718 = SURFACE_STYLE_USAGE ( .BOTH. , #440 ) ;
#719 = VERTEX_POINT ( 'NONE', #273 ) ;
#720 = CARTESIAN_POINT ( 'NONE',  ( 8.100000000000003197, 1.699999999999999956, -5.586370142149013368E-14 ) ) ;
#721 = ADVANCED_FACE ( 'NONE', ( #288 ), #193, .F. ) ;
#722 = FILL_AREA_STYLE_COLOUR ( '', #771 ) ;
#723 = FACE_OUTER_BOUND ( 'NONE', #1099, .T. ) ;
#724 = ORIENTED_EDGE ( 'NONE', *, *, #761, .F. ) ;
#725 = ADVANCED_FACE ( 'NONE', ( #917 ), #650, .F. ) ;
#726 = FILL_AREA_STYLE ('',( #470 ) ) ;
#727 = ORIENTED_EDGE ( 'NONE', *, *, #209, .T. ) ;
#728 = CYLINDRICAL_SURFACE ( 'NONE', #70, 0.5000000000000007772 ) ;
#729 = DIRECTION ( 'NONE',  ( 0.000000000000000000, -1.000000000000000000, 0.000000000000000000 ) ) ;
#730 =( GEOMETRIC_REPRESENTATION_CONTEXT ( 3 ) GLOBAL_UNCERTAINTY_ASSIGNED_CONTEXT ( ( #341 ) ) GLOBAL_UNIT_ASSIGNED_CONTEXT ( ( #768, #693, #427 ) ) REPRESENTATION_CONTEXT ( 'NONE', 'WORKASPACE' ) );
#731 =( GEOMETRIC_REPRESENTATION_CONTEXT ( 3 ) GLOBAL_UNCERTAINTY_ASSIGNED_CONTEXT ( ( #812 ) ) GLOBAL_UNIT_ASSIGNED_CONTEXT ( ( #943, #498, #148 ) ) REPRESENTATION_CONTEXT ( 'NONE', 'WORKASPACE' ) );
#732 = SURFACE_SIDE_STYLE ('',( #1081 ) ) ;
#733 = MECHANICAL_DESIGN_GEOMETRIC_PRESENTATION_REPRESENTATION (  '', ( #1079 ), #238 ) ;
#734 = CARTESIAN_POINT ( 'NONE',  ( 2.165640782770770656, 0.000000000000000000, 3.000000000000001332 ) ) ;
#735 = STYLED_ITEM ( 'NONE', ( #167 ), #790 ) ;
#736 = VERTEX_POINT ( 'NONE', #680 ) ;
#737 = SURFACE_STYLE_FILL_AREA ( #726 ) ;
#738 = SURFACE_SIDE_STYLE ('',( #531 ) ) ;
#739 = DIRECTION ( 'NONE',  ( 0.000000000000000000, 1.000000000000000000, 0.000000000000000000 ) ) ;
#740 =( NAMED_UNIT ( * ) SI_UNIT ( $, .STERADIAN. ) SOLID_ANGLE_UNIT ( ) );
#741 = DIRECTION ( 'NONE',  ( 0.000000000000000000, 1.000000000000000000, 0.000000000000000000 ) ) ;
#742 = ADVANCED_FACE ( 'NONE', ( #757 ), #231, .T. ) ;
#743 = DIRECTION ( 'NONE',  ( -0.000000000000000000, -1.000000000000000000, -0.000000000000000000 ) ) ;
#744 = CARTESIAN_POINT ( 'NONE',  ( 10.10000000000000320, 1.699999999999999956, 0.4999999999999589217 ) ) ;
#745 = DIRECTION ( 'NONE',  ( -0.000000000000000000, -1.000000000000000000, -0.000000000000000000 ) ) ;
#746 = DIRECTION ( 'NONE',  ( 0.000000000000000000, 0.000000000000000000, -1.000000000000000000 ) ) ;
#747 = EDGE_LOOP ( 'NONE', ( #961, #1005 ) ) ;
#748 = FILL_AREA_STYLE_COLOUR ( '', #838 ) ;
#749 = CARTESIAN_POINT ( 'NONE',  ( 12.12902319910714333, 0.000000000000000000, -2.249706126706885634 ) ) ;
#750 = PRODUCT_DEFINITION_FORMATION_WITH_SPECIFIED_SOURCE ( 'Symmetric', '', #826, .NOT_KNOWN. ) ;
#751 = VECTOR ( 'NONE', #1068, 1000.000000000000000 ) ;
#752 = AXIS2_PLACEMENT_3D ( 'NONE', #323, #491, #139 ) ;
#753 = DIRECTION ( 'NONE',  ( 0.000000000000000000, -1.000000000000000000, 0.000000000000000000 ) ) ;
#754 = VERTEX_POINT ( 'NONE', #1106 ) ;
#755 =( GEOMETRIC_REPRESENTATION_CONTEXT ( 3 ) GLOBAL_UNCERTAINTY_ASSIGNED_CONTEXT ( ( #254 ) ) GLOBAL_UNIT_ASSIGNED_CONTEXT ( ( #434, #347, #74 ) ) REPRESENTATION_CONTEXT ( 'NONE', 'WORKASPACE' ) );
#756 = ADVANCED_FACE ( 'NONE', ( #408 ), #950, .F. ) ;
#757 = FACE_OUTER_BOUND ( 'NONE', #155, .T. ) ;
#758 = PRESENTATION_STYLE_ASSIGNMENT (( #124 ) ) ;
#759 = EDGE_LOOP ( 'NONE', ( #1116, #233 ) ) ;
#760 = EDGE_CURVE ( 'NONE', #164, #671, #672, .T. ) ;
#761 = EDGE_CURVE ( 'NONE', #366, #671, #444, .T. ) ;
#762 =( LENGTH_UNIT ( ) NAMED_UNIT ( * ) SI_UNIT ( .MILLI., .METRE. ) );
#763 = CARTESIAN_POINT ( 'NONE',  ( 0.000000000000000000, 1.000000000000000000, -2.649999999999999911 ) ) ;
#764 = ORIENTED_EDGE ( 'NONE', *, *, #459, .F. ) ;
#765 =( NAMED_UNIT ( * ) SI_UNIT ( $, .STERADIAN. ) SOLID_ANGLE_UNIT ( ) );
#766 = LINE ( 'NONE', #1036, #274 ) ;
#767 =( LENGTH_UNIT ( ) NAMED_UNIT ( * ) SI_UNIT ( .MILLI., .METRE. ) );
#768 =( LENGTH_UNIT ( ) NAMED_UNIT ( * ) SI_UNIT ( .MILLI., .METRE. ) );
#769 = ORIENTED_EDGE ( 'NONE', *, *, #1073, .F. ) ;
#770 = COLOUR_RGB ( '',1.000000000000000000, 0.000000000000000000, 1.000000000000000000 ) ;
#771 = COLOUR_RGB ( '',1.000000000000000000, 0.000000000000000000, 1.000000000000000000 ) ;
#772 =( NAMED_UNIT ( * ) SI_UNIT ( $, .STERADIAN. ) SOLID_ANGLE_UNIT ( ) );
#773 = CARTESIAN_POINT ( 'NONE',  ( 12.10000000000000320, 0.000000000000000000, -2.793185071074506684E-14 ) ) ;
#774 = SURFACE_STYLE_USAGE ( .BOTH. , #1050 ) ;
#775 = ORIENTED_EDGE ( 'NONE', *, *, #960, .F. ) ;
#776 = CYLINDRICAL_SURFACE ( 'NONE', #333, 2.517115619248472935 ) ;
#777 = DIRECTION ( 'NONE',  ( 0.000000000000000000, 0.000000000000000000, -1.000000000000000000 ) ) ;
#778 = DIRECTION ( 'NONE',  ( 0.000000000000000000, 0.000000000000000000, -1.000000000000000000 ) ) ;
#779 = VERTEX_POINT ( 'NONE', #243 ) ;
#780 = DIRECTION ( 'NONE',  ( 0.000000000000000000, -0.000000000000000000, 1.000000000000000000 ) ) ;
#781 = CARTESIAN_POINT ( 'NONE',  ( 8.100000000000003197, 1.699999999999999956, 0.4999999999999449329 ) ) ;
#782 = EDGE_CURVE ( 'NONE', #935, #663, #342, .T. ) ;
#783 =( NAMED_UNIT ( * ) PLANE_ANGLE_UNIT ( ) SI_UNIT ( $, .RADIAN. ) );
#784 = AXIS2_PLACEMENT_3D ( 'NONE', #329, #232, #1135 ) ;
#785 = ORIENTED_EDGE ( 'NONE', *, *, #643, .F. ) ;
#786 = VECTOR ( 'NONE', #679, 1000.000000000000000 ) ;
#787 = MECHANICAL_DESIGN_GEOMETRIC_PRESENTATION_REPRESENTATION (  '', ( #715 ), #380 ) ;
#788 = COLOUR_RGB ( '',1.000000000000000000, 0.000000000000000000, 1.000000000000000000 ) ;
#789 = UNCERTAINTY_MEASURE_WITH_UNIT (LENGTH_MEASURE( 1.000000000000000082E-05 ), #247, 'distance_accuracy_value', 'NONE');
#790 = ADVANCED_FACE ( 'NONE', ( #514 ), #982, .F. ) ;
#791 = CYLINDRICAL_SURFACE ( 'NONE', #784, 2.649999999999999911 ) ;
#792 = VERTEX_POINT ( 'NONE', #171 ) ;
#793 = DIRECTION ( 'NONE',  ( -0.000000000000000000, -1.000000000000000000, -0.000000000000000000 ) ) ;
#794 = DIRECTION ( 'NONE',  ( -0.000000000000000000, -1.000000000000000000, -0.000000000000000000 ) ) ;
#795 =( LENGTH_UNIT ( ) NAMED_UNIT ( * ) SI_UNIT ( .MILLI., .METRE. ) );
#796 = CARTESIAN_POINT ( 'NONE',  ( 2.165640782770770656, 0.000000000000000000, -3.000000000000001332 ) ) ;
#797 = ORIENTED_EDGE ( 'NONE', *, *, #1103, .T. ) ;
#798 = SURFACE_STYLE_USAGE ( .BOTH. , #962 ) ;
#799 = CARTESIAN_POINT ( 'NONE',  ( 12.10000000000000320, 1.699999999999999956, -2.793185071074506684E-14 ) ) ;
#800 = CLOSED_SHELL ( 'NONE', ( #1001, #7, #1133, #790, #188, #1138, #721, #701, #428, #823, #660, #71, #300, #626, #172, #391, #466, #742, #725, #543, #756, #1035, #285, #411 ) ) ;
#801 = ORIENTED_EDGE ( 'NONE', *, *, #320, .T. ) ;
#802 = CIRCLE ( 'NONE', #482, 2.250000000000000000 ) ;
#803 = AXIS2_PLACEMENT_3D ( 'NONE', #307, #656, #852 ) ;
#804 = DIRECTION ( 'NONE',  ( 0.000000000000000000, -1.000000000000000000, 0.000000000000000000 ) ) ;
#805 = PRESENTATION_STYLE_ASSIGNMENT (( #202 ) ) ;
#806 = CIRCLE ( 'NONE', #36, 0.5000000000000007772 ) ;
#807 =( NAMED_UNIT ( * ) PLANE_ANGLE_UNIT ( ) SI_UNIT ( $, .RADIAN. ) );
#808 = EDGE_LOOP ( 'NONE', ( #984, #702, #967, #26 ) ) ;
#809 = DIRECTION ( 'NONE',  ( 0.000000000000000000, 0.000000000000000000, -1.000000000000000000 ) ) ;
#810 = CARTESIAN_POINT ( 'NONE',  ( 0.000000000000000000, 0.000000000000000000, 0.000000000000000000 ) ) ;
#811 = MANIFOLD_SOLID_BREP ( 'Cut-Extrude5', #800 ) ;
#812 = UNCERTAINTY_MEASURE_WITH_UNIT (LENGTH_MEASURE( 1.000000000000000082E-05 ), #943, 'distance_accuracy_value', 'NONE');
#813 = LINE ( 'NONE', #24, #596 ) ;
#814 = CYLINDRICAL_SURFACE ( 'NONE', #996, 3.700000000000000178 ) ;
#815 = ORIENTED_EDGE ( 'NONE', *, *, #372, .F. ) ;
#816 = CARTESIAN_POINT ( 'NONE',  ( 12.10000000000000320, 1.699999999999999956, -0.5000000000000287548 ) ) ;
#817 = ORIENTED_EDGE ( 'NONE', *, *, #676, .F. ) ;
#818 = EDGE_CURVE ( 'NONE', #296, #736, #1134, .T. ) ;
#819 = STYLED_ITEM ( 'NONE', ( #145 ), #172 ) ;
#820 = UNCERTAINTY_MEASURE_WITH_UNIT (LENGTH_MEASURE( 1.000000000000000082E-05 ), #795, 'distance_accuracy_value', 'NONE');
#821 = CIRCLE ( 'NONE', #1113, 3.700000000000000178 ) ;
#822 = DIRECTION ( 'NONE',  ( 0.000000000000000000, 1.000000000000000000, 0.000000000000000000 ) ) ;
#823 = ADVANCED_FACE ( 'NONE', ( #160, #880, #348, #1059, #617 ), #915, .F. ) ;
#824 = PRESENTATION_LAYER_ASSIGNMENT (  '', '', ( #1046 ) ) ;
#825 =( NAMED_UNIT ( * ) PLANE_ANGLE_UNIT ( ) SI_UNIT ( $, .RADIAN. ) );
#826 = PRODUCT ( 'Servo Head MG90', 'Servo Head MG90', '', ( #986 ) ) ;
#827 = DIRECTION ( 'NONE',  ( 0.000000000000000000, 0.000000000000000000, -1.000000000000000000 ) ) ;
#828 = FILL_AREA_STYLE ('',( #102 ) ) ;
#829 = DIRECTION ( 'NONE',  ( 0.000000000000000000, 0.000000000000000000, 1.000000000000000000 ) ) ;
#830 =( NAMED_UNIT ( * ) SI_UNIT ( $, .STERADIAN. ) SOLID_ANGLE_UNIT ( ) );
#831 = ORIENTED_EDGE ( 'NONE', *, *, #156, .T. ) ;
#832 = DIRECTION ( 'NONE',  ( -0.000000000000000000, 1.000000000000000000, -0.000000000000000000 ) ) ;
#833 = EDGE_LOOP ( 'NONE', ( #1137, #848, #955, #764 ) ) ;
#834 = EDGE_CURVE ( 'NONE', #1120, #284, #813, .T. ) ;
#835 = SURFACE_STYLE_USAGE ( .BOTH. , #122 ) ;
#836 = AXIS2_PLACEMENT_3D ( 'NONE', #1033, #675, #946 ) ;
#837 = CARTESIAN_POINT ( 'NONE',  ( 8.100000000000003197, 1.699999999999999956, -5.586370142149013368E-14 ) ) ;
#838 = COLOUR_RGB ( '',1.000000000000000000, 0.000000000000000000, 1.000000000000000000 ) ;
#839 = CIRCLE ( 'NONE', #378, 1.500000000000000222 ) ;
#840 = SURFACE_STYLE_USAGE ( .BOTH. , #318 ) ;
#841 = STYLED_ITEM ( 'NONE', ( #640 ), #701 ) ;
#842 = DIRECTION ( 'NONE',  ( 0.000000000000000000, 0.000000000000000000, 1.000000000000000000 ) ) ;
#843 = MECHANICAL_DESIGN_GEOMETRIC_PRESENTATION_REPRESENTATION (  '', ( #1046 ), #997 ) ;
#844 = ORIENTED_EDGE ( 'NONE', *, *, #607, .F. ) ;
#845 =( GEOMETRIC_REPRESENTATION_CONTEXT ( 3 ) GLOBAL_UNCERTAINTY_ASSIGNED_CONTEXT ( ( #1140 ) ) GLOBAL_UNIT_ASSIGNED_CONTEXT ( ( #478, #393, #583 ) ) REPRESENTATION_CONTEXT ( 'NONE', 'WORKASPACE' ) );
#846 = SURFACE_STYLE_USAGE ( .BOTH. , #299 ) ;
#847 = PRESENTATION_STYLE_ASSIGNMENT (( #840 ) ) ;
#848 = ORIENTED_EDGE ( 'NONE', *, *, #818, .T. ) ;
#849 = DIRECTION ( 'NONE',  ( 0.000000000000000000, -1.000000000000000000, 0.000000000000000000 ) ) ;
#850 = DIRECTION ( 'NONE',  ( 0.07509251783722516171, 0.000000000000000000, -0.9971765710067932442 ) ) ;
#851 = FACE_OUTER_BOUND ( 'NONE', #542, .T. ) ;
#852 = DIRECTION ( 'NONE',  ( 0.000000000000000000, 0.000000000000000000, 1.000000000000000000 ) ) ;
#853 = COLOUR_RGB ( '',1.000000000000000000, 0.000000000000000000, 1.000000000000000000 ) ;
#854 = FILL_AREA_STYLE_COLOUR ( '', #526 ) ;
#855 = DIRECTION ( 'NONE',  ( 0.9971765710067931332, 0.000000000000000000, 0.07509251783722514784 ) ) ;
#856 = COLOUR_RGB ( '',1.000000000000000000, 0.000000000000000000, 1.000000000000000000 ) ;
#857 = PRESENTATION_LAYER_ASSIGNMENT (  '', '', ( #356 ) ) ;
#858 = EDGE_LOOP ( 'NONE', ( #325, #623, #345, #290 ) ) ;
#859 = MECHANICAL_DESIGN_GEOMETRIC_PRESENTATION_REPRESENTATION (  '', ( #182 ), #438 ) ;
#860 = DIRECTION ( 'NONE',  ( 0.000000000000000000, -0.000000000000000000, 1.000000000000000000 ) ) ;
#861 = SURFACE_STYLE_FILL_AREA ( #507 ) ;
#862 =( LENGTH_UNIT ( ) NAMED_UNIT ( * ) SI_UNIT ( .MILLI., .METRE. ) );
#863 = ORIENTED_EDGE ( 'NONE', *, *, #714, .F. ) ;
#864 =( LENGTH_UNIT ( ) NAMED_UNIT ( * ) SI_UNIT ( .MILLI., .METRE. ) );
#865 = PRODUCT_RELATED_PRODUCT_CATEGORY ( 'part', '', ( #826 ) ) ;
#866 = FILL_AREA_STYLE_COLOUR ( '', #19 ) ;
#867 = DIRECTION ( 'NONE',  ( -0.000000000000000000, 1.000000000000000000, -0.000000000000000000 ) ) ;
#868 = DIRECTION ( 'NONE',  ( 0.000000000000000000, 1.000000000000000000, 0.000000000000000000 ) ) ;
#869 = ORIENTED_EDGE ( 'NONE', *, *, #695, .F. ) ;
#870 = CARTESIAN_POINT ( 'NONE',  ( 11.00000000000000000, 10.00000000000000000, 0.000000000000000000 ) ) ;
#871 = EDGE_CURVE ( 'NONE', #120, #1000, #110, .T. ) ;
#872 = FILL_AREA_STYLE_COLOUR ( '', #293 ) ;
#873 = LINE ( 'NONE', #173, #358 ) ;
#874 = STYLED_ITEM ( 'NONE', ( #705 ), #285 ) ;
#875 = ORIENTED_EDGE ( 'NONE', *, *, #153, .F. ) ;
#876 =( GEOMETRIC_REPRESENTATION_CONTEXT ( 3 ) GLOBAL_UNCERTAINTY_ASSIGNED_CONTEXT ( ( #903 ) ) GLOBAL_UNIT_ASSIGNED_CONTEXT ( ( #985, #544, #902 ) ) REPRESENTATION_CONTEXT ( 'NONE', 'WORKASPACE' ) );
#877 = FACE_BOUND ( 'NONE', #1019, .T. ) ;
#878 = AXIS2_PLACEMENT_3D ( 'NONE', #104, #822, #266 ) ;
#879 = CARTESIAN_POINT ( 'NONE',  ( 0.000000000000000000, 1.000000000000000000, 0.000000000000000000 ) ) ;
#880 = FACE_BOUND ( 'NONE', #449, .T. ) ;
#881 = DIRECTION ( 'NONE',  ( 0.000000000000000000, -1.000000000000000000, 0.000000000000000000 ) ) ;
#882 = ORIENTED_EDGE ( 'NONE', *, *, #372, .T. ) ;
#883 = SURFACE_STYLE_FILL_AREA ( #450 ) ;
#884 = CARTESIAN_POINT ( 'NONE',  ( 10.10000000000000320, 0.000000000000000000, 0.4999999999999589217 ) ) ;
#885 =( LENGTH_UNIT ( ) NAMED_UNIT ( * ) SI_UNIT ( .MILLI., .METRE. ) );
#886 =( NAMED_UNIT ( * ) PLANE_ANGLE_UNIT ( ) SI_UNIT ( $, .RADIAN. ) );
#887 = DIRECTION ( 'NONE',  ( 0.000000000000000000, 1.000000000000000000, 0.000000000000000000 ) ) ;
#888 = EDGE_LOOP ( 'NONE', ( #1011, #125 ) ) ;
#889 = DIRECTION ( 'NONE',  ( 0.000000000000000000, 0.000000000000000000, -1.000000000000000000 ) ) ;
#890 = UNCERTAINTY_MEASURE_WITH_UNIT (LENGTH_MEASURE( 1.000000000000000082E-05 ), #257, 'distance_accuracy_value', 'NONE');
#891 = FACE_OUTER_BOUND ( 'NONE', #264, .T. ) ;
#892 = ORIENTED_EDGE ( 'NONE', *, *, #995, .F. ) ;
#893 = MECHANICAL_DESIGN_GEOMETRIC_PRESENTATION_REPRESENTATION (  '', ( #554 ), #331 ) ;
#894 = CARTESIAN_POINT ( 'NONE',  ( 10.10000000000000320, 0.000000000000000000, -4.189777606611760026E-14 ) ) ;
#895 = CIRCLE ( 'NONE', #687, 0.5000000000000007772 ) ;
#896 = MECHANICAL_DESIGN_GEOMETRIC_PRESENTATION_REPRESENTATION (  '', ( #713 ), #876 ) ;
#897 = STYLED_ITEM ( 'NONE', ( #338 ), #626 ) ;
#898 = CARTESIAN_POINT ( 'NONE',  ( 0.000000000000000000, 1.000000000000000000, 0.000000000000000000 ) ) ;
#899 = MECHANICAL_DESIGN_GEOMETRIC_PRESENTATION_REPRESENTATION (  '', ( #999 ), #332 ) ;
#900 = CARTESIAN_POINT ( 'NONE',  ( 12.12902319910714333, 10.00000000000000000, 2.249706126706885634 ) ) ;
#901 = ORIENTED_EDGE ( 'NONE', *, *, #424, .T. ) ;
#902 =( NAMED_UNIT ( * ) SI_UNIT ( $, .STERADIAN. ) SOLID_ANGLE_UNIT ( ) );
#903 = UNCERTAINTY_MEASURE_WITH_UNIT (LENGTH_MEASURE( 1.000000000000000082E-05 ), #985, 'distance_accuracy_value', 'NONE');
#904 = SURFACE_STYLE_FILL_AREA ( #545 ) ;
#905 = EDGE_CURVE ( 'NONE', #663, #205, #34, .T. ) ;
#906 =( LENGTH_UNIT ( ) NAMED_UNIT ( * ) SI_UNIT ( .MILLI., .METRE. ) );
#907 = ORIENTED_EDGE ( 'NONE', *, *, #588, .T. ) ;
#908 = LINE ( 'NONE', #277, #751 ) ;
#909 = EDGE_CURVE ( 'NONE', #84, #205, #287, .T. ) ;
#910 = CARTESIAN_POINT ( 'NONE',  ( 12.12902319910714333, 1.700000000000000178, -2.249706126706885634 ) ) ;
#911 = VERTEX_POINT ( 'NONE', #95 ) ;
#912 = CARTESIAN_POINT ( 'NONE',  ( 0.000000000000000000, -0.0009999999999999158867, 0.000000000000000000 ) ) ;
#913 = CARTESIAN_POINT ( 'NONE',  ( 6.100000000000003197, 1.699999999999999956, -6.982962677686266711E-14 ) ) ;
#914 = CIRCLE ( 'NONE', #593, 0.5000000000000007772 ) ;
#915 = PLANE ( 'NONE',  #221 ) ;
#916 = AXIS2_PLACEMENT_3D ( 'NONE', #263, #365, #959 ) ;
#917 = FACE_OUTER_BOUND ( 'NONE', #1102, .T. ) ;
#918 = PRESENTATION_LAYER_ASSIGNMENT (  '', '', ( #735 ) ) ;
#919 = ORIENTED_EDGE ( 'NONE', *, *, #1073, .T. ) ;
#920 = ORIENTED_EDGE ( 'NONE', *, *, #581, .F. ) ;
#921 = DIRECTION ( 'NONE',  ( 0.000000000000000000, 0.000000000000000000, -1.000000000000000000 ) ) ;
#922 = CARTESIAN_POINT ( 'NONE',  ( 1.836970198721030181E-16, -0.0009999999999999158867, -1.500000000000000222 ) ) ;
#923 = DIRECTION ( 'NONE',  ( -0.000000000000000000, -1.000000000000000000, -0.000000000000000000 ) ) ;
#924 = EDGE_CURVE ( 'NONE', #980, #677, #260, .T. ) ;
#925 = ORIENTED_EDGE ( 'NONE', *, *, #291, .T. ) ;
#926 = CARTESIAN_POINT ( 'NONE',  ( 4.531193156845205215E-16, 4.299999999999999822, 3.700000000000000178 ) ) ;
#927 = SURFACE_STYLE_FILL_AREA ( #1024 ) ;
#928 = FILL_AREA_STYLE ('',( #132 ) ) ;
#929 = ORIENTED_EDGE ( 'NONE', *, *, #676, .T. ) ;
#930 = FILL_AREA_STYLE_COLOUR ( '', #856 ) ;
#931 = CIRCLE ( 'NONE', #836, 0.5000000000000007772 ) ;
#932 = STYLED_ITEM ( 'NONE', ( #161 ), #300 ) ;
#933 = VECTOR ( 'NONE', #181, 1000.000000000000000 ) ;
#934 = SURFACE_STYLE_USAGE ( .BOTH. , #42 ) ;
#935 = VERTEX_POINT ( 'NONE', #644 ) ;
#936 = PRESENTATION_LAYER_ASSIGNMENT (  '', '', ( #471 ) ) ;
#937 = VERTEX_POINT ( 'NONE', #555 ) ;
#938 = LINE ( 'NONE', #32, #1128 ) ;
#939 = CARTESIAN_POINT ( 'NONE',  ( 0.000000000000000000, 1.599999999999999867, 0.000000000000000000 ) ) ;
#940 = EDGE_CURVE ( 'NONE', #665, #792, #1029, .T. ) ;
#941 = FACE_OUTER_BOUND ( 'NONE', #635, .T. ) ;
#942 = ORIENTED_EDGE ( 'NONE', *, *, #41, .F. ) ;
#943 =( LENGTH_UNIT ( ) NAMED_UNIT ( * ) SI_UNIT ( .MILLI., .METRE. ) );
#944 = DIRECTION ( 'NONE',  ( 0.000000000000000000, 0.000000000000000000, -1.000000000000000000 ) ) ;
#945 = EDGE_CURVE ( 'NONE', #620, #1022, #192, .T. ) ;
#946 = DIRECTION ( 'NONE',  ( 0.000000000000000000, 0.000000000000000000, -1.000000000000000000 ) ) ;
#947 = ORIENTED_EDGE ( 'NONE', *, *, #1007, .T. ) ;
#948 =( NAMED_UNIT ( * ) PLANE_ANGLE_UNIT ( ) SI_UNIT ( $, .RADIAN. ) );
#949 =( GEOMETRIC_REPRESENTATION_CONTEXT ( 3 ) GLOBAL_UNCERTAINTY_ASSIGNED_CONTEXT ( ( #963 ) ) GLOBAL_UNIT_ASSIGNED_CONTEXT ( ( #862, #515, #62 ) ) REPRESENTATION_CONTEXT ( 'NONE', 'WORKASPACE' ) );
#950 = CYLINDRICAL_SURFACE ( 'NONE', #73, 0.5000000000000007772 ) ;
#951 = SURFACE_SIDE_STYLE ('',( #600 ) ) ;
#952 = COLOUR_RGB ( '',1.000000000000000000, 0.000000000000000000, 1.000000000000000000 ) ;
#953 = AXIS2_PLACEMENT_3D ( 'NONE', #1144, #710, #241 ) ;
#954 = VECTOR ( 'NONE', #522, 1000.000000000000114 ) ;
#955 = ORIENTED_EDGE ( 'NONE', *, *, #278, .T. ) ;
#956 = LINE ( 'NONE', #152, #417 ) ;
#957 = FILL_AREA_STYLE ('',( #328 ) ) ;
#958 =( NAMED_UNIT ( * ) SI_UNIT ( $, .STERADIAN. ) SOLID_ANGLE_UNIT ( ) );
#959 = DIRECTION ( 'NONE',  ( 0.000000000000000000, 0.000000000000000000, -1.000000000000000000 ) ) ;
#960 = EDGE_CURVE ( 'NONE', #937, #1150, #463, .T. ) ;
#961 = ORIENTED_EDGE ( 'NONE', *, *, #153, .T. ) ;
#962 = SURFACE_SIDE_STYLE ('',( #883 ) ) ;
#963 = UNCERTAINTY_MEASURE_WITH_UNIT (LENGTH_MEASURE( 1.000000000000000082E-05 ), #862, 'distance_accuracy_value', 'NONE');
#964 =( NAMED_UNIT ( * ) PLANE_ANGLE_UNIT ( ) SI_UNIT ( $, .RADIAN. ) );
#965 = DIRECTION ( 'NONE',  ( 0.000000000000000000, 0.000000000000000000, 1.000000000000000000 ) ) ;
#966 = DIRECTION ( 'NONE',  ( 0.000000000000000000, -0.000000000000000000, 1.000000000000000000 ) ) ;
#967 = ORIENTED_EDGE ( 'NONE', *, *, #511, .T. ) ;
#968 = DIRECTION ( 'NONE',  ( 0.000000000000000000, 0.000000000000000000, -1.000000000000000000 ) ) ;
#969 = SURFACE_STYLE_FILL_AREA ( #957 ) ;
#970 = SURFACE_STYLE_USAGE ( .BOTH. , #298 ) ;
#971 = COLOUR_RGB ( '',1.000000000000000000, 0.000000000000000000, 1.000000000000000000 ) ;
#972 = SURFACE_STYLE_FILL_AREA ( #706 ) ;
#973 =( GEOMETRIC_REPRESENTATION_CONTEXT ( 3 ) GLOBAL_UNCERTAINTY_ASSIGNED_CONTEXT ( ( #598 ) ) GLOBAL_UNIT_ASSIGNED_CONTEXT ( ( #638, #477, #292 ) ) REPRESENTATION_CONTEXT ( 'NONE', 'WORKASPACE' ) );
#974 = ORIENTED_EDGE ( 'NONE', *, *, #1031, .F. ) ;
#975 = SURFACE_STYLE_USAGE ( .BOTH. , #683 ) ;
#976 = CIRCLE ( 'NONE', #258, 2.649999999999999911 ) ;
#977 = PRESENTATION_LAYER_ASSIGNMENT (  '', '', ( #3 ) ) ;
#978 = CARTESIAN_POINT ( 'NONE',  ( 12.10000000000000320, 1.699999999999999956, -2.793185071074506684E-14 ) ) ;
#979 = DIRECTION ( 'NONE',  ( 0.000000000000000000, 0.000000000000000000, -1.000000000000000000 ) ) ;
#980 = VERTEX_POINT ( 'NONE', #988 ) ;
#981 = PRESENTATION_STYLE_ASSIGNMENT (( #975 ) ) ;
#982 = CYLINDRICAL_SURFACE ( 'NONE', #618, 0.5000000000000007772 ) ;
#983 = CARTESIAN_POINT ( 'NONE',  ( 0.000000000000000000, 0.000000000000000000, 0.000000000000000000 ) ) ;
#984 = ORIENTED_EDGE ( 'NONE', *, *, #156, .F. ) ;
#985 =( LENGTH_UNIT ( ) NAMED_UNIT ( * ) SI_UNIT ( .MILLI., .METRE. ) );
#986 = PRODUCT_CONTEXT ( 'NONE', #326, 'mechanical' ) ;
#987 = COLOUR_RGB ( '',1.000000000000000000, 0.000000000000000000, 1.000000000000000000 ) ;
#988 = CARTESIAN_POINT ( 'NONE',  ( 2.755455298081543792E-16, 4.299999999999999822, -2.250000000000000000 ) ) ;
#989 =( LENGTH_UNIT ( ) NAMED_UNIT ( * ) SI_UNIT ( .MILLI., .METRE. ) );
#990 = ORIENTED_EDGE ( 'NONE', *, *, #511, .F. ) ;
#991 = VECTOR ( 'NONE', #855, 1000.000000000000114 ) ;
#992 = PRESENTATION_LAYER_ASSIGNMENT (  '', '', ( #932 ) ) ;
#993 = AXIS2_PLACEMENT_3D ( 'NONE', #810, #386, #101 ) ;
#994 = COLOUR_RGB ( '',1.000000000000000000, 0.000000000000000000, 1.000000000000000000 ) ;
#995 = EDGE_CURVE ( 'NONE', #719, #410, #369, .T. ) ;
#996 = AXIS2_PLACEMENT_3D ( 'NONE', #1086, #923, #105 ) ;
#997 =( GEOMETRIC_REPRESENTATION_CONTEXT ( 3 ) GLOBAL_UNCERTAINTY_ASSIGNED_CONTEXT ( ( #1013 ) ) GLOBAL_UNIT_ASSIGNED_CONTEXT ( ( #262, #964, #958 ) ) REPRESENTATION_CONTEXT ( 'NONE', 'WORKASPACE' ) );
#998 = DIRECTION ( 'NONE',  ( -0.000000000000000000, -1.000000000000000000, -0.000000000000000000 ) ) ;
#999 = STYLED_ITEM ( 'NONE', ( #597 ), #1138 ) ;
#1000 = VERTEX_POINT ( 'NONE', #98 ) ;
#1001 = ADVANCED_FACE ( 'NONE', ( #270 ), #86, .F. ) ;
#1002 = CARTESIAN_POINT ( 'NONE',  ( 11.00000000000000000, 1.700000000000000178, 0.000000000000000000 ) ) ;
#1003 = DIRECTION ( 'NONE',  ( 0.000000000000000000, -1.000000000000000000, -0.000000000000000000 ) ) ;
#1004 =( NAMED_UNIT ( * ) PLANE_ANGLE_UNIT ( ) SI_UNIT ( $, .RADIAN. ) );
#1005 = ORIENTED_EDGE ( 'NONE', *, *, #413, .T. ) ;
#1006 =( NAMED_UNIT ( * ) PLANE_ANGLE_UNIT ( ) SI_UNIT ( $, .RADIAN. ) );
#1007 = EDGE_CURVE ( 'NONE', #1000, #120, #669, .T. ) ;
#1008 = DIRECTION ( 'NONE',  ( 0.000000000000000000, 0.000000000000000000, -1.000000000000000000 ) ) ;
#1009 = DIRECTION ( 'NONE',  ( -0.000000000000000000, -1.000000000000000000, -0.000000000000000000 ) ) ;
#1010 = CIRCLE ( 'NONE', #1147, 3.700000000000000178 ) ;
#1011 = ORIENTED_EDGE ( 'NONE', *, *, #240, .F. ) ;
#1012 = DIRECTION ( 'NONE',  ( 0.000000000000000000, 0.000000000000000000, 1.000000000000000000 ) ) ;
#1013 = UNCERTAINTY_MEASURE_WITH_UNIT (LENGTH_MEASURE( 1.000000000000000082E-05 ), #262, 'distance_accuracy_value', 'NONE');
#1014 = COLOUR_RGB ( '',1.000000000000000000, 0.000000000000000000, 1.000000000000000000 ) ;
#1015 = FILL_AREA_STYLE_COLOUR ( '', #653 ) ;
#1016 = MECHANICAL_DESIGN_GEOMETRIC_PRESENTATION_REPRESENTATION (  '', ( #1096 ), #360 ) ;
#1017 = FILL_AREA_STYLE_COLOUR ( '', #91 ) ;
#1018 = AXIS2_PLACEMENT_3D ( 'NONE', #1123, #716, #80 ) ;
#1019 = EDGE_LOOP ( 'NONE', ( #441, #185 ) ) ;
#1020 = DIRECTION ( 'NONE',  ( 0.000000000000000000, 0.000000000000000000, -1.000000000000000000 ) ) ;
#1021 = CARTESIAN_POINT ( 'NONE',  ( 0.000000000000000000, 1.000000000000000000, -2.649999999999999911 ) ) ;
#1022 = VERTEX_POINT ( 'NONE', #749 ) ;
#1023 = CARTESIAN_POINT ( 'NONE',  ( 6.100000000000003197, 0.000000000000000000, 0.4999999999999255040 ) ) ;
#1024 = FILL_AREA_STYLE ('',( #136 ) ) ;
#1025 = EDGE_CURVE ( 'NONE', #754, #937, #895, .T. ) ;
#1026 = CIRCLE ( 'NONE', #1093, 0.4999999999999953371 ) ;
#1027 = PRESENTATION_LAYER_ASSIGNMENT (  '', '', ( #377 ) ) ;
#1028 = AXIS2_PLACEMENT_3D ( 'NONE', #557, #13, #376 ) ;
#1029 = CIRCLE ( 'NONE', #2, 1.500000000000000222 ) ;
#1030 = ORIENTED_EDGE ( 'NONE', *, *, #761, .T. ) ;
#1031 = EDGE_CURVE ( 'NONE', #30, #423, #563, .T. ) ;
#1032 = DIRECTION ( 'NONE',  ( -0.000000000000000000, -1.000000000000000000, -0.000000000000000000 ) ) ;
#1033 = CARTESIAN_POINT ( 'NONE',  ( 8.100000000000003197, 0.000000000000000000, -5.586370142149013368E-14 ) ) ;
#1034 = VERTEX_POINT ( 'NONE', #1105 ) ;
#1035 = ADVANCED_FACE ( 'NONE', ( #28 ), #489, .F. ) ;
#1036 = CARTESIAN_POINT ( 'NONE',  ( 12.12902319910714333, 10.00000000000000000, -2.249706126706885634 ) ) ;
#1037 = ORIENTED_EDGE ( 'NONE', *, *, #1031, .T. ) ;
#1038 = SURFACE_STYLE_FILL_AREA ( #606 ) ;
#1039 = EDGE_CURVE ( 'NONE', #205, #663, #397, .T. ) ;
#1040 = STYLED_ITEM ( 'NONE', ( #510 ), #188 ) ;
#1041 =( NAMED_UNIT ( * ) PLANE_ANGLE_UNIT ( ) SI_UNIT ( $, .RADIAN. ) );
#1042 = AXIS2_PLACEMENT_3D ( 'NONE', #107, #186, #809 ) ;
#1043 = SURFACE_SIDE_STYLE ('',( #610 ) ) ;
#1044 = MECHANICAL_DESIGN_GEOMETRIC_PRESENTATION_REPRESENTATION (  '', ( #841 ), #651 ) ;
#1045 = VERTEX_POINT ( 'NONE', #926 ) ;
#1046 = STYLED_ITEM ( 'NONE', ( #704 ), #811 ) ;
#1047 = PRESENTATION_LAYER_ASSIGNMENT (  '', '', ( #162 ) ) ;
#1048 = FACE_OUTER_BOUND ( 'NONE', #421, .T. ) ;
#1049 = DIRECTION ( 'NONE',  ( 0.000000000000000000, 0.000000000000000000, -1.000000000000000000 ) ) ;
#1050 = SURFACE_SIDE_STYLE ('',( #420 ) ) ;
#1051 = CARTESIAN_POINT ( 'NONE',  ( 0.000000000000000000, 1.599999999999999867, 0.000000000000000000 ) ) ;
#1052 = VERTEX_POINT ( 'NONE', #212 ) ;
#1053 = CYLINDRICAL_SURFACE ( 'NONE', #558, 1.500000000000000222 ) ;
#1054 =( NAMED_UNIT ( * ) PLANE_ANGLE_UNIT ( ) SI_UNIT ( $, .RADIAN. ) );
#1055 = UNCERTAINTY_MEASURE_WITH_UNIT (LENGTH_MEASURE( 1.000000000000000082E-05 ), #989, 'distance_accuracy_value', 'NONE');
#1056 = CARTESIAN_POINT ( 'NONE',  ( 0.000000000000000000, 4.299999999999999822, 0.000000000000000000 ) ) ;
#1057 = FILL_AREA_STYLE_COLOUR ( '', #108 ) ;
#1058 = ORIENTED_EDGE ( 'NONE', *, *, #614, .T. ) ;
#1059 = FACE_BOUND ( 'NONE', #659, .T. ) ;
#1060 = FACE_OUTER_BOUND ( 'NONE', #268, .T. ) ;
#1061 = STYLED_ITEM ( 'NONE', ( #758 ), #71 ) ;
#1062 = FACE_BOUND ( 'NONE', #759, .T. ) ;
#1063 = MECHANICAL_DESIGN_GEOMETRIC_PRESENTATION_REPRESENTATION (  '', ( #1040 ), #730 ) ;
#1064 = ORIENTED_EDGE ( 'NONE', *, *, #1142, .F. ) ;
#1065 = CARTESIAN_POINT ( 'NONE',  ( 0.000000000000000000, 0.000000000000000000, 0.000000000000000000 ) ) ;
#1066 = DIRECTION ( 'NONE',  ( -0.000000000000000000, -1.000000000000000000, -0.000000000000000000 ) ) ;
#1067 = ORIENTED_EDGE ( 'NONE', *, *, #588, .F. ) ;
#1068 = DIRECTION ( 'NONE',  ( -0.000000000000000000, -1.000000000000000000, -0.000000000000000000 ) ) ;
#1069 = SURFACE_STYLE_USAGE ( .BOTH. , #732 ) ;
#1070 = FILL_AREA_STYLE ('',( #383 ) ) ;
#1071 = ORIENTED_EDGE ( 'NONE', *, *, #1107, .T. ) ;
#1072 = DIRECTION ( 'NONE',  ( 0.000000000000000000, 0.000000000000000000, 1.000000000000000000 ) ) ;
#1073 = EDGE_CURVE ( 'NONE', #665, #120, #1101, .T. ) ;
#1074 = EDGE_LOOP ( 'NONE', ( #892, #311, #1058, #585 ) ) ;
#1075 = CIRCLE ( 'NONE', #1110, 2.250000000000000000 ) ;
#1076 = CIRCLE ( 'NONE', #615, 0.5000000000000007772 ) ;
#1077 = VECTOR ( 'NONE', #657, 1000.000000000000000 ) ;
#1078 =( GEOMETRIC_REPRESENTATION_CONTEXT ( 3 ) GLOBAL_UNCERTAINTY_ASSIGNED_CONTEXT ( ( #691 ) ) GLOBAL_UNIT_ASSIGNED_CONTEXT ( ( #864, #1006, #286 ) ) REPRESENTATION_CONTEXT ( 'NONE', 'WORKASPACE' ) );
#1079 = STYLED_ITEM ( 'NONE', ( #847 ), #742 ) ;
#1080 = CARTESIAN_POINT ( 'NONE',  ( 10.10000000000000320, 1.699999999999999956, -4.189777606611760026E-14 ) ) ;
#1081 = SURFACE_STYLE_FILL_AREA ( #474 ) ;
#1082 = PRODUCT_DEFINITION_SHAPE ( 'NONE', 'NONE',  #121 ) ;
#1083 = CARTESIAN_POINT ( 'NONE',  ( 2.165640782770770656, 1.700000000000000178, -3.000000000000001332 ) ) ;
#1084 = ORIENTED_EDGE ( 'NONE', *, *, #504, .T. ) ;
#1085 = CARTESIAN_POINT ( 'NONE',  ( 0.000000000000000000, 1.699999999999999956, 0.000000000000000000 ) ) ;
#1086 = CARTESIAN_POINT ( 'NONE',  ( 0.000000000000000000, 4.299999999999999822, 0.000000000000000000 ) ) ;
#1087 = DIRECTION ( 'NONE',  ( 0.000000000000000000, -0.000000000000000000, 1.000000000000000000 ) ) ;
#1088 = DIRECTION ( 'NONE',  ( -0.000000000000000000, 1.000000000000000000, -0.000000000000000000 ) ) ;
#1089 = DIRECTION ( 'NONE',  ( -0.000000000000000000, -1.000000000000000000, -0.000000000000000000 ) ) ;
#1090 = CARTESIAN_POINT ( 'NONE',  ( 0.000000000000000000, 4.299999999999999822, -3.700000000000000178 ) ) ;
#1091 = ORIENTED_EDGE ( 'NONE', *, *, #92, .F. ) ;
#1092 = ORIENTED_EDGE ( 'NONE', *, *, #126, .F. ) ;
#1093 = AXIS2_PLACEMENT_3D ( 'NONE', #913, #881, #11 ) ;
#1094 = FILL_AREA_STYLE ('',( #748 ) ) ;
#1095 = MECHANICAL_DESIGN_GEOMETRIC_PRESENTATION_REPRESENTATION (  '', ( #275 ), #1078 ) ;
#1096 = STYLED_ITEM ( 'NONE', ( #83 ), #660 ) ;
#1097 = PRESENTATION_STYLE_ASSIGNMENT (( #846 ) ) ;
#1098 = VECTOR ( 'NONE', #1118, 1000.000000000000000 ) ;
#1099 = EDGE_LOOP ( 'NONE', ( #1092, #1084, #210, #724, #605, #60, #907, #551 ) ) ;
#1100 = ORIENTED_EDGE ( 'NONE', *, *, #1107, .F. ) ;
#1101 = LINE ( 'NONE', #922, #1098 ) ;
#1102 = EDGE_LOOP ( 'NONE', ( #882, #817, #785, #1030 ) ) ;
#1103 = EDGE_CURVE ( 'NONE', #296, #351, #806, .T. ) ;
#1104 = FACE_OUTER_BOUND ( 'NONE', #114, .T. ) ;
#1105 = CARTESIAN_POINT ( 'NONE',  ( 10.10000000000000320, 0.000000000000000000, -0.5000000000000426326 ) ) ;
#1106 = CARTESIAN_POINT ( 'NONE',  ( 10.10000000000000320, 1.699999999999999956, -0.5000000000000426326 ) ) ;
#1107 = EDGE_CURVE ( 'NONE', #792, #1000, #46, .T. ) ;
#1108 = ORIENTED_EDGE ( 'NONE', *, *, #664, .T. ) ;
#1109 = FILL_AREA_STYLE ('',( #930 ) ) ;
#1110 = AXIS2_PLACEMENT_3D ( 'NONE', #310, #475, #842 ) ;
#1111 = CARTESIAN_POINT ( 'NONE',  ( 3.245314017740485962E-16, 1.000000000000000000, 2.649999999999999911 ) ) ;
#1112 = CIRCLE ( 'NONE', #195, 2.649999999999999911 ) ;
#1113 = AXIS2_PLACEMENT_3D ( 'NONE', #244, #1136, #445 ) ;
#1114 =( NAMED_UNIT ( * ) PLANE_ANGLE_UNIT ( ) SI_UNIT ( $, .RADIAN. ) );
#1115 = MECHANICAL_DESIGN_GEOMETRIC_PRESENTATION_REPRESENTATION (  '', ( #471 ), #144 ) ;
#1116 = ORIENTED_EDGE ( 'NONE', *, *, #1007, .F. ) ;
#1117 = FILL_AREA_STYLE_COLOUR ( '', #576 ) ;
#1118 = DIRECTION ( 'NONE',  ( -0.000000000000000000, 1.000000000000000000, -0.000000000000000000 ) ) ;
#1119 = DIRECTION ( 'NONE',  ( -0.9971765710067931332, 0.000000000000000000, -0.07509251783722514784 ) ) ;
#1120 = VERTEX_POINT ( 'NONE', #1111 ) ;
#1121 = EDGE_CURVE ( 'NONE', #198, #1022, #766, .T. ) ;
#1122 = CARTESIAN_POINT ( 'NONE',  ( 0.000000000000000000, 1.000000000000000000, 0.000000000000000000 ) ) ;
#1123 = CARTESIAN_POINT ( 'NONE',  ( 0.000000000000000000, 0.000000000000000000, 0.000000000000000000 ) ) ;
#1124 = CARTESIAN_POINT ( 'NONE',  ( 1.836970198721030181E-16, 1.599999999999999867, -1.500000000000000222 ) ) ;
#1125 = ORIENTED_EDGE ( 'NONE', *, *, #760, .F. ) ;
#1126 = FACE_BOUND ( 'NONE', #888, .T. ) ;
#1127 = AXIS2_PLACEMENT_3D ( 'NONE', #48, #324, #681 ) ;
#1128 = VECTOR ( 'NONE', #1032, 1000.000000000000000 ) ;
#1129 = MECHANICAL_DESIGN_GEOMETRIC_PRESENTATION_REPRESENTATION (  '', ( #897 ), #53 ) ;
#1130 = ORIENTED_EDGE ( 'NONE', *, *, #35, .T. ) ;
#1131 = AXIS2_PLACEMENT_3D ( 'NONE', #207, #850, #1119 ) ;
#1132 = AXIS2_PLACEMENT_3D ( 'NONE', #499, #402, #40 ) ;
#1133 = ADVANCED_FACE ( 'NONE', ( #616 ), #242, .F. ) ;
#1134 = LINE ( 'NONE', #781, #717 ) ;
#1135 = DIRECTION ( 'NONE',  ( 0.000000000000000000, 0.000000000000000000, -1.000000000000000000 ) ) ;
#1136 = DIRECTION ( 'NONE',  ( 0.000000000000000000, 1.000000000000000000, 0.000000000000000000 ) ) ;
#1137 = ORIENTED_EDGE ( 'NONE', *, *, #1103, .F. ) ;
#1138 = ADVANCED_FACE ( 'NONE', ( #157 ), #518, .F. ) ;
#1139 =( NAMED_UNIT ( * ) PLANE_ANGLE_UNIT ( ) SI_UNIT ( $, .RADIAN. ) );
#1140 = UNCERTAINTY_MEASURE_WITH_UNIT (LENGTH_MEASURE( 1.000000000000000082E-05 ), #478, 'distance_accuracy_value', 'NONE');
#1141 = FACE_OUTER_BOUND ( 'NONE', #747, .T. ) ;
#1142 = EDGE_CURVE ( 'NONE', #1120, #30, #451, .T. ) ;
#1143 = ORIENTED_EDGE ( 'NONE', *, *, #1039, .T. ) ;
#1144 = CARTESIAN_POINT ( 'NONE',  ( 0.000000000000000000, 1.599999999999999867, 0.000000000000000000 ) ) ;
#1145 = SURFACE_SIDE_STYLE ('',( #969 ) ) ;
#1146 =( NAMED_UNIT ( * ) SI_UNIT ( $, .STERADIAN. ) SOLID_ANGLE_UNIT ( ) );
#1147 = AXIS2_PLACEMENT_3D ( 'NONE', #1056, #59, #965 ) ;
#1148 = CIRCLE ( 'NONE', #272, 0.5000000000000007772 ) ;
#1149 = PRESENTATION_LAYER_ASSIGNMENT (  '', '', ( #218 ) ) ;
#1150 = VERTEX_POINT ( 'NONE', #884 ) ;
#1151 = CIRCLE ( 'NONE', #199, 0.4999999999999953371 ) ;
ENDSEC;
END-ISO-10303-21;
