ISO-10303-21;
HEADER;
FILE_DESCRIPTION (( 'STEP AP214' ),
    '1' );
FILE_NAME ('Servo holder - Mouth 3.STEP',
    '2025-10-21T18:57:06',
    ( 'Windows User' ),
    ( '' ),
    'SwSTEP 2.0',
    'SolidWorks 2023',
    '' );
FILE_SCHEMA (( 'AUTOMOTIVE_DESIGN' ));
ENDSEC;

DATA;
#1 = CARTESIAN_POINT ( 'NONE',  ( 2.000000000000000000, 0.000000000000000000, 8.000000000000000000 ) ) ;
#2 = PRODUCT_DEFINITION ( 'General', '', #307, #115 ) ;
#3 = ORIENTED_EDGE ( 'NONE', *, *, #628, .F. ) ;
#4 = ADVANCED_FACE ( 'NONE', ( #386 ), #139, .F. ) ;
#5 =( BOUNDED_CURVE ( )  B_SPLINE_CURVE ( 3, ( #441, #82, #300, #252 ),
 .UNSPECIFIED., .F., .F. ) 
 B_SPLINE_CURVE_WITH_KNOTS ( ( 4, 4 ),
 ( 4.994407020229180816, 5.427290165287504742 ),
 .UNSPECIFIED. ) 
 CURVE ( )  GEOMETRIC_REPRESENTATION_ITEM ( )  RATIONAL_B_SPLINE_CURVE ( ( 1.000000000000000000, 0.9844452155860774489, 0.9844452155860774489, 1.000000000000000000 ) ) 
 REPRESENTATION_ITEM ( '' )  );
#6 = ORIENTED_EDGE ( 'NONE', *, *, #193, .F. ) ;
#7 = CARTESIAN_POINT ( 'NONE',  ( 0.000000000000000000, 4.000000000000000000, 0.000000000000000000 ) ) ;
#8 = CARTESIAN_POINT ( 'NONE',  ( 15.03426276388396232, 0.000000000000000000, 1.439182841188072937 ) ) ;
#9 = EDGE_LOOP ( 'NONE', ( #546, #607, #6, #324 ) ) ;
#10 = VECTOR ( 'NONE', #733, 1000.000000000000000 ) ;
#11 = CIRCLE ( 'NONE', #422, 1.750000000000002220 ) ;
#12 = LINE ( 'NONE', #665, #141 ) ;
#13 = CARTESIAN_POINT ( 'NONE',  ( 2.000000000000000000, 4.000000000000000000, 0.000000000000000000 ) ) ;
#14 = CARTESIAN_POINT ( 'NONE',  ( 11.98557481894751575, 2.466392983102047243, 3.837497423423538834 ) ) ;
#15 = FACE_OUTER_BOUND ( 'NONE', #390, .T. ) ;
#16 = DIRECTION ( 'NONE',  ( 0.000000000000000000, 0.000000000000000000, -1.000000000000000000 ) ) ;
#17 = ORIENTED_EDGE ( 'NONE', *, *, #193, .T. ) ;
#18 = ORIENTED_EDGE ( 'NONE', *, *, #60, .F. ) ;
#19 = DIRECTION ( 'NONE',  ( -0.5742292462298662636, 0.000000000000000000, 0.8186945540152807954 ) ) ;
#20 = ORIENTED_EDGE ( 'NONE', *, *, #418, .T. ) ;
#21 = ORIENTED_EDGE ( 'NONE', *, *, #499, .T. ) ;
#22 = VECTOR ( 'NONE', #356, 1000.000000000000114 ) ;
#23 = DIRECTION ( 'NONE',  ( -0.000000000000000000, 1.000000000000000000, -0.000000000000000000 ) ) ;
#24 = AXIS2_PLACEMENT_3D ( 'NONE', #661, #197, #668 ) ;
#25 = ADVANCED_FACE ( 'NONE', ( #151 ), #625, .F. ) ;
#26 = DIRECTION ( 'NONE',  ( 0.7455767157236693476, 0.4130910679394485530, 0.5229446725604466328 ) ) ;
#27 = ORIENTED_EDGE ( 'NONE', *, *, #363, .T. ) ;
#28 = FACE_OUTER_BOUND ( 'NONE', #34, .T. ) ;
#29 = EDGE_CURVE ( 'NONE', #130, #249, #507, .T. ) ;
#30 = FACE_OUTER_BOUND ( 'NONE', #402, .T. ) ;
#31 = ORIENTED_EDGE ( 'NONE', *, *, #114, .T. ) ;
#32 = DIRECTION ( 'NONE',  ( 0.7455767157236693476, 0.4130910679394486640, 0.5229446725604465218 ) ) ;
#33 = CARTESIAN_POINT ( 'NONE',  ( 11.51547293773008285, 4.000000000000000000, 8.076908918695147932 ) ) ;
#34 = EDGE_LOOP ( 'NONE', ( #491, #613, #248, #462, #569, #237 ) ) ;
#35 = AXIS2_PLACEMENT_3D ( 'NONE', #577, #46, #289 ) ;
#36 = LINE ( 'NONE', #211, #720 ) ;
#37 = CIRCLE ( 'NONE', #165, 1.149999999999999245 ) ;
#38 = CIRCLE ( 'NONE', #243, 2.000000000000000000 ) ;
#39 = AXIS2_PLACEMENT_3D ( 'NONE', #297, #774, #654 ) ;
#40 = DIRECTION ( 'NONE',  ( -0.5742292462298662636, 0.000000000000000000, 0.8186945540152807954 ) ) ;
#41 = VERTEX_POINT ( 'NONE', #271 ) ;
#42 = CARTESIAN_POINT ( 'NONE',  ( 8.035698833932773510, 0.000000000000000000, 0.000000000000000000 ) ) ;
#43 = FACE_OUTER_BOUND ( 'NONE', #634, .T. ) ;
#44 = EDGE_LOOP ( 'NONE', ( #163, #3, #76, #105, #73, #67, #213, #597, #311 ) ) ;
#45 = CARTESIAN_POINT ( 'NONE',  ( -0.05203461089043660837, -4.203113762401960329, -4.605636044856940003 ) ) ;
#46 = DIRECTION ( 'NONE',  ( 0.7455767157236693476, 0.4130910679394485530, 0.5229446725604466328 ) ) ;
#47 = ORIENTED_EDGE ( 'NONE', *, *, #136, .T. ) ;
#48 = LINE ( 'NONE', #594, #409 ) ;
#49 = VECTOR ( 'NONE', #712, 1000.000000000000227 ) ;
#50 = DIRECTION ( 'NONE',  ( 0.000000000000000000, 0.000000000000000000, 1.000000000000000000 ) ) ;
#51 = COLOUR_RGB ( '',0.7921568627450980005, 0.8196078431372548767, 0.9333333333333333481 ) ;
#52 = ADVANCED_FACE ( 'NONE', ( #327, #384, #30 ), #736, .T. ) ;
#53 = DIRECTION ( 'NONE',  ( -0.5742292462298662636, 0.000000000000000000, 0.8186945540152807954 ) ) ;
#54 = ORIENTED_EDGE ( 'NONE', *, *, #253, .T. ) ;
#55 = CARTESIAN_POINT ( 'NONE',  ( 16.03399340007767648, -6.500000000000000447E-06, 0.000000000000000000 ) ) ;
#56 = LINE ( 'NONE', #380, #560 ) ;
#57 = ORIENTED_EDGE ( 'NONE', *, *, #230, .T. ) ;
#58 = LINE ( 'NONE', #479, #526 ) ;
#59 = DIRECTION ( 'NONE',  ( 0.7455767157236693476, 0.4130910679394485530, 0.5229446725604466328 ) ) ;
#60 = EDGE_CURVE ( 'NONE', #41, #470, #455, .T. ) ;
#61 = ORIENTED_EDGE ( 'NONE', *, *, #616, .T. ) ;
#62 = DIRECTION ( 'NONE',  ( 0.7455767157236693476, 0.4130910679394486640, 0.5229446725604465218 ) ) ;
#63 = AXIS2_PLACEMENT_3D ( 'NONE', #146, #550, #337 ) ;
#64 = CIRCLE ( 'NONE', #674, 1.750000000000002220 ) ;
#65 = PRODUCT_CONTEXT ( 'NONE', #618, 'mechanical' ) ;
#66 = MECHANICAL_DESIGN_GEOMETRIC_PRESENTATION_REPRESENTATION (  '', ( #471 ), #218 ) ;
#67 = ORIENTED_EDGE ( 'NONE', *, *, #150, .F. ) ;
#68 = ADVANCED_FACE ( 'NONE', ( #204 ), #212, .F. ) ;
#69 = DIRECTION ( 'NONE',  ( 0.000000000000000000, 0.000000000000000000, -1.000000000000000000 ) ) ;
#70 = EDGE_CURVE ( 'NONE', #771, #168, #678, .T. ) ;
#71 = ORIENTED_EDGE ( 'NONE', *, *, #686, .F. ) ;
#72 = CARTESIAN_POINT ( 'NONE',  ( 14.75862900392339760, 2.319389566840296624, -2.168404344971008868E-16 ) ) ;
#73 = ORIENTED_EDGE ( 'NONE', *, *, #92, .T. ) ;
#74 = FILL_AREA_STYLE ('',( #129 ) ) ;
#75 = DIRECTION ( 'NONE',  ( 0.5742292462298670408, 0.000000000000000000, -0.8186945540152804623 ) ) ;
#76 = ORIENTED_EDGE ( 'NONE', *, *, #506, .F. ) ;
#77 = VECTOR ( 'NONE', #183, 1000.000000000000000 ) ;
#78 = CARTESIAN_POINT ( 'NONE',  ( 0.5398073524697354353, -5.796820775740748388, -4.190520342864410885 ) ) ;
#79 = DIRECTION ( 'NONE',  ( -0.000000000000000000, 1.000000000000000000, -0.000000000000000000 ) ) ;
#80 = ORIENTED_EDGE ( 'NONE', *, *, #561, .F. ) ;
#81 = VERTEX_POINT ( 'NONE', #688 ) ;
#82 = CARTESIAN_POINT ( 'NONE',  ( 13.92342238343364436, 2.186475830308566071, 0.000000000000000000 ) ) ;
#83 = DIRECTION ( 'NONE',  ( -1.000000000000000000, 0.000000000000000000, 0.000000000000000000 ) ) ;
#84 = ORIENTED_EDGE ( 'NONE', *, *, #418, .F. ) ;
#85 = PRODUCT_RELATED_PRODUCT_CATEGORY ( 'part', '', ( #676 ) ) ;
#86 = CARTESIAN_POINT ( 'NONE',  ( 16.03751265246174640, 0.000000000000000000, 0.004211985505221739999 ) ) ;
#87 = FACE_OUTER_BOUND ( 'NONE', #278, .T. ) ;
#88 = EDGE_LOOP ( 'NONE', ( #378, #128 ) ) ;
#89 = EDGE_CURVE ( 'NONE', #470, #41, #672, .T. ) ;
#90 = VECTOR ( 'NONE', #522, 1000.000000000000114 ) ;
#91 = DIRECTION ( 'NONE',  ( -0.000000000000000000, -1.000000000000000000, -0.000000000000000000 ) ) ;
#92 = EDGE_CURVE ( 'NONE', #246, #621, #726, .T. ) ;
#93 = CARTESIAN_POINT ( 'NONE',  ( 2.000000000000000000, -8.673617379884035472E-16, 6.000000000000000000 ) ) ;
#94 = ORIENTED_EDGE ( 'NONE', *, *, #628, .T. ) ;
#95 =( BOUNDED_CURVE ( )  B_SPLINE_CURVE ( 3, ( #460, #754, #411, #162 ),
 .UNSPECIFIED., .F., .F. ) 
 B_SPLINE_CURVE_WITH_KNOTS ( ( 4, 4 ),
 ( 0.8558951418920819343, 0.8592501051012446656 ),
 .UNSPECIFIED. ) 
 CURVE ( )  GEOMETRIC_REPRESENTATION_ITEM ( )  RATIONAL_B_SPLINE_CURVE ( ( 1.000000000000000000, 0.9999990620187086954, 0.9999990620187086954, 1.000000000000000000 ) ) 
 REPRESENTATION_ITEM ( '' )  );
#96 = LINE ( 'NONE', #173, #598 ) ;
#97 = CYLINDRICAL_SURFACE ( 'NONE', #659, 1.750000000000001998 ) ;
#98 = ORIENTED_EDGE ( 'NONE', *, *, #201, .F. ) ;
#99 = CARTESIAN_POINT ( 'NONE',  ( 0.000000000000000000, 0.000000000000000000, 0.000000000000000000 ) ) ;
#100 = CARTESIAN_POINT ( 'NONE',  ( 2.000000000000000444, 4.000000000000000000, 3.149999999999999023 ) ) ;
#101 = ORIENTED_EDGE ( 'NONE', *, *, #310, .F. ) ;
#102 = FACE_BOUND ( 'NONE', #485, .T. ) ;
#103 = AXIS2_PLACEMENT_3D ( 'NONE', #99, #682, #505 ) ;
#104 = AXIS2_PLACEMENT_3D ( 'NONE', #106, #123, #366 ) ;
#105 = ORIENTED_EDGE ( 'NONE', *, *, #583, .T. ) ;
#106 = CARTESIAN_POINT ( 'NONE',  ( 2.000000000000000000, 4.000000000000000000, 2.000000000000000000 ) ) ;
#107 = CARTESIAN_POINT ( 'NONE',  ( 10.75346285042301453, 0.000000000000000000, 7.542437941811474644 ) ) ;
#108 = VERTEX_POINT ( 'NONE', #389 ) ;
#109 = CARTESIAN_POINT ( 'NONE',  ( 16.03926884368780037, -7.589415207398531038E-16, 0.006317814389555182972 ) ) ;
#110 = ADVANCED_FACE ( 'NONE', ( #450 ), #199, .F. ) ;
#111 = DIRECTION ( 'NONE',  ( -0.5742292462298661526, 0.000000000000000000, 0.8186945540152809064 ) ) ;
#112 = EDGE_LOOP ( 'NONE', ( #426, #420, #424 ) ) ;
#113 = DIRECTION ( 'NONE',  ( 0.7455767157236693476, 0.4130910679394485530, 0.5229446725604466328 ) ) ;
#114 = EDGE_CURVE ( 'NONE', #240, #542, #571, .T. ) ;
#115 = PRODUCT_DEFINITION_CONTEXT ( 'detailed design', #184, 'design' ) ;
#116 = CIRCLE ( 'NONE', #407, 1.000000000000000222 ) ;
#117 = LINE ( 'NONE', #260, #332 ) ;
#118 = CARTESIAN_POINT ( 'NONE',  ( 0.000000000000000000, 0.000000000000000000, 0.000000000000000000 ) ) ;
#119 = VERTEX_POINT ( 'NONE', #620 ) ;
#120 = DIRECTION ( 'NONE',  ( 0.5742292462298664857, 0.000000000000000000, -0.8186945540152806844 ) ) ;
#121 = DIRECTION ( 'NONE',  ( 0.7455767157236693476, 0.4130910679394485530, 0.5229446725604466328 ) ) ;
#122 = ORIENTED_EDGE ( 'NONE', *, *, #396, .F. ) ;
#123 = DIRECTION ( 'NONE',  ( 0.000000000000000000, -1.000000000000000000, 0.000000000000000000 ) ) ;
#124 = ADVANCED_FACE ( 'NONE', ( #87 ), #562, .F. ) ;
#125 = EDGE_LOOP ( 'NONE', ( #84, #80, #706, #544 ) ) ;
#126 = AXIS2_PLACEMENT_3D ( 'NONE', #443, #215, #393 ) ;
#127 = AXIS2_PLACEMENT_3D ( 'NONE', #614, #670, #364 ) ;
#128 = ORIENTED_EDGE ( 'NONE', *, *, #669, .T. ) ;
#129 = FILL_AREA_STYLE_COLOUR ( '', #51 ) ;
#130 = VERTEX_POINT ( 'NONE', #345 ) ;
#131 = DIRECTION ( 'NONE',  ( 0.000000000000000000, 0.000000000000000000, -1.000000000000000000 ) ) ;
#132 = CARTESIAN_POINT ( 'NONE',  ( 2.000000000000000000, 4.000000000000000000, 7.150000000000000355 ) ) ;
#133 = EDGE_CURVE ( 'NONE', #714, #258, #401, .T. ) ;
#134 = ORIENTED_EDGE ( 'NONE', *, *, #147, .T. ) ;
#135 = PLANE ( 'NONE',  #24 ) ;
#136 = EDGE_CURVE ( 'NONE', #269, #81, #382, .T. ) ;
#137 = DIRECTION ( 'NONE',  ( 0.000000000000000000, -1.000000000000000000, 0.000000000000000000 ) ) ;
#138 = VECTOR ( 'NONE', #159, 1000.000000000000114 ) ;
#139 = CYLINDRICAL_SURFACE ( 'NONE', #369, 1.750000000000001998 ) ;
#140 = AXIS2_PLACEMENT_3D ( 'NONE', #329, #559, #149 ) ;
#141 = VECTOR ( 'NONE', #496, 1000.000000000000000 ) ;
#142 = PLANE ( 'NONE',  #687 ) ;
#143 = DIRECTION ( 'NONE',  ( -0.000000000000000000, -1.000000000000000000, -0.000000000000000000 ) ) ;
#144 = VERTEX_POINT ( 'NONE', #100 ) ;
#145 = LINE ( 'NONE', #513, #773 ) ;
#146 = CARTESIAN_POINT ( 'NONE',  ( 16.73827555653632615, 1.905413639611885035, 2.285196590756061852 ) ) ;
#147 = EDGE_CURVE ( 'NONE', #148, #119, #284, .T. ) ;
#148 = VERTEX_POINT ( 'NONE', #281 ) ;
#149 = DIRECTION ( 'NONE',  ( 0.000000000000000000, -0.000000000000000000, -1.000000000000000000 ) ) ;
#150 = EDGE_CURVE ( 'NONE', #554, #621, #95, .T. ) ;
#151 = FACE_OUTER_BOUND ( 'NONE', #703, .T. ) ;
#152 = ORIENTED_EDGE ( 'NONE', *, *, #764, .T. ) ;
#153 = CIRCLE ( 'NONE', #295, 1.149999999999999245 ) ;
#154 = LINE ( 'NONE', #397, #178 ) ;
#155 = CIRCLE ( 'NONE', #244, 1.149999999999999911 ) ;
#156 = CARTESIAN_POINT ( 'NONE',  ( 0.000000000000000000, 0.000000000000000000, 0.000000000000000000 ) ) ;
#157 = VERTEX_POINT ( 'NONE', #296 ) ;
#158 = CYLINDRICAL_SURFACE ( 'NONE', #503, 1.149999999999999023 ) ;
#159 = DIRECTION ( 'NONE',  ( -0.5742292462298662636, 0.000000000000000000, 0.8186945540152807954 ) ) ;
#160 = ORIENTED_EDGE ( 'NONE', *, *, #585, .F. ) ;
#161 = DIRECTION ( 'NONE',  ( -0.000000000000000000, -1.000000000000000000, -0.000000000000000000 ) ) ;
#162 = CARTESIAN_POINT ( 'NONE',  ( 16.03399340007767648, -6.500000000000000447E-06, 0.000000000000000000 ) ) ;
#163 = ORIENTED_EDGE ( 'NONE', *, *, #489, .T. ) ;
#164 = CARTESIAN_POINT ( 'NONE',  ( 12.95627779481563735, 0.000000000000000000, 4.638066975548211346 ) ) ;
#165 = AXIS2_PLACEMENT_3D ( 'NONE', #619, #161, #631 ) ;
#166 = VECTOR ( 'NONE', #761, 1000.000000000000000 ) ;
#167 = CARTESIAN_POINT ( 'NONE',  ( 10.75346285042301453, 0.000000000000000000, 7.542437941811474644 ) ) ;
#168 = VERTEX_POINT ( 'NONE', #523 ) ;
#169 = EDGE_CURVE ( 'NONE', #657, #269, #514, .T. ) ;
#170 = DIRECTION ( 'NONE',  ( 0.000000000000000000, 0.000000000000000000, -1.000000000000000000 ) ) ;
#171 = ADVANCED_FACE ( 'NONE', ( #43 ), #97, .F. ) ;
#172 = ORIENTED_EDGE ( 'NONE', *, *, #558, .T. ) ;
#173 = CARTESIAN_POINT ( 'NONE',  ( 19.39680914045993632, 4.000000000000000000, 0.000000000000000000 ) ) ;
#174 = CARTESIAN_POINT ( 'NONE',  ( 0.000000000000000000, 4.000000000000000000, 8.000000000000000000 ) ) ;
#175 = VERTEX_POINT ( 'NONE', #633 ) ;
#176 = CARTESIAN_POINT ( 'NONE',  ( 16.03955857373456340, 0.007474989512442839490, 0.000000000000000000 ) ) ;
#177 = AXIS2_PLACEMENT_3D ( 'NONE', #683, #520, #50 ) ;
#178 = VECTOR ( 'NONE', #627, 1000.000000000000000 ) ;
#179 = CARTESIAN_POINT ( 'NONE',  ( 2.000000000000000000, 0.000000000000000000, 2.000000000000000000 ) ) ;
#180 = VECTOR ( 'NONE', #131, 1000.000000000000000 ) ;
#181 =( LENGTH_UNIT ( ) NAMED_UNIT ( * ) SI_UNIT ( .MILLI., .METRE. ) );
#182 = EDGE_LOOP ( 'NONE', ( #17, #57 ) ) ;
#183 = DIRECTION ( 'NONE',  ( 0.000000000000000000, -1.000000000000000000, 0.000000000000000000 ) ) ;
#184 = APPLICATION_CONTEXT ( 'automotive_design' ) ;
#185 = CARTESIAN_POINT ( 'NONE',  ( 12.57741678230768834, 0.8726859697632599611, 4.252613125416067952 ) ) ;
#186 = ORIENTED_EDGE ( 'NONE', *, *, #632, .T. ) ;
#187 = CARTESIAN_POINT ( 'NONE',  ( 2.000000000000000000, -8.673617379884035472E-16, 7.150000000000000355 ) ) ;
#188 = ORIENTED_EDGE ( 'NONE', *, *, #196, .T. ) ;
#189 = SURFACE_STYLE_USAGE ( .BOTH. , #316 ) ;
#190 = VECTOR ( 'NONE', #40, 1000.000000000000114 ) ;
#191 = AXIS2_PLACEMENT_3D ( 'NONE', #421, #113, #756 ) ;
#192 = ORIENTED_EDGE ( 'NONE', *, *, #561, .T. ) ;
#193 = EDGE_CURVE ( 'NONE', #144, #258, #330, .T. ) ;
#194 = CARTESIAN_POINT ( 'NONE',  ( 7.534049906540855268, 0.000000000000000000, 0.7152147815177068990 ) ) ;
#195 = ORIENTED_EDGE ( 'NONE', *, *, #220, .T. ) ;
#196 = EDGE_CURVE ( 'NONE', #216, #452, #430, .T. ) ;
#197 = DIRECTION ( 'NONE',  ( 0.3381954076343829940, -0.9106897219078767813, 0.2372089725671599758 ) ) ;
#198 = CARTESIAN_POINT ( 'NONE',  ( 2.000000000000000000, 4.000000000000000000, 6.000000000000000000 ) ) ;
#199 = CYLINDRICAL_SURFACE ( 'NONE', #609, 1.000000000000000888 ) ;
#200 = ORIENTED_EDGE ( 'NONE', *, *, #717, .T. ) ;
#201 = EDGE_CURVE ( 'NONE', #264, #157, #690, .T. ) ;
#202 = PLANE ( 'NONE',  #758 ) ;
#203 = CIRCLE ( 'NONE', #744, 1.149999999999999245 ) ;
#204 = FACE_OUTER_BOUND ( 'NONE', #44, .T. ) ;
#205 = VECTOR ( 'NONE', #685, 1000.000000000000000 ) ;
#206 =( GEOMETRIC_REPRESENTATION_CONTEXT ( 3 ) GLOBAL_UNCERTAINTY_ASSIGNED_CONTEXT ( ( #565 ) ) GLOBAL_UNIT_ASSIGNED_CONTEXT ( ( #181, #412, #538 ) ) REPRESENTATION_CONTEXT ( 'NONE', 'WORKASPACE' ) );
#207 = ORIENTED_EDGE ( 'NONE', *, *, #201, .T. ) ;
#208 = DIRECTION ( 'NONE',  ( 0.000000000000000000, -1.000000000000000000, 0.000000000000000000 ) ) ;
#209 = ADVANCED_FACE ( 'NONE', ( #353 ), #517, .F. ) ;
#210 = VERTEX_POINT ( 'NONE', #644 ) ;
#211 = CARTESIAN_POINT ( 'NONE',  ( 10.75346285042301453, 0.000000000000000000, 7.542437941811474644 ) ) ;
#212 = PLANE ( 'NONE',  #126 ) ;
#213 = ORIENTED_EDGE ( 'NONE', *, *, #392, .F. ) ;
#214 = CARTESIAN_POINT ( 'NONE',  ( 2.000000000000000000, 4.000000000000000000, 4.850000000000000533 ) ) ;
#215 = DIRECTION ( 'NONE',  ( 0.000000000000000000, -0.000000000000000000, 1.000000000000000000 ) ) ;
#216 = VERTEX_POINT ( 'NONE', #702 ) ;
#217 = CARTESIAN_POINT ( 'NONE',  ( 2.000000000000000444, -8.673617379884035472E-16, 2.000000000000000000 ) ) ;
#218 =( GEOMETRIC_REPRESENTATION_CONTEXT ( 3 ) GLOBAL_UNCERTAINTY_ASSIGNED_CONTEXT ( ( #288 ) ) GLOBAL_UNIT_ASSIGNED_CONTEXT ( ( #427, #551, #373 ) ) REPRESENTATION_CONTEXT ( 'NONE', 'WORKASPACE' ) );
#219 = ORIENTED_EDGE ( 'NONE', *, *, #770, .T. ) ;
#220 = EDGE_CURVE ( 'NONE', #365, #157, #256, .T. ) ;
#221 = CARTESIAN_POINT ( 'NONE',  ( 2.000000000000000000, -8.673617379884035472E-16, 4.850000000000000533 ) ) ;
#222 = CARTESIAN_POINT ( 'NONE',  ( 6.627989438775601982, 0.000000000000000000, 2.007010306455173865 ) ) ;
#223 = EDGE_LOOP ( 'NONE', ( #262, #737, #233, #440 ) ) ;
#224 = DIRECTION ( 'NONE',  ( 0.000000000000000000, 0.000000000000000000, -1.000000000000000000 ) ) ;
#225 = DIRECTION ( 'NONE',  ( -0.7455767157236693476, -0.4130910679394486640, -0.5229446725604466328 ) ) ;
#226 = ORIENTED_EDGE ( 'NONE', *, *, #669, .F. ) ;
#227 = AXIS2_PLACEMENT_3D ( 'NONE', #553, #501, #504 ) ;
#228 = DIRECTION ( 'NONE',  ( -0.000000000000000000, -1.000000000000000000, -0.000000000000000000 ) ) ;
#229 = CIRCLE ( 'NONE', #650, 2.000000000000000000 ) ;
#230 = EDGE_CURVE ( 'NONE', #258, #144, #203, .T. ) ;
#231 = CARTESIAN_POINT ( 'NONE',  ( 12.06064623473309005, -6.505213034913026604E-16, 5.678750355607404821 ) ) ;
#232 = CARTESIAN_POINT ( 'NONE',  ( 11.98557481894751575, 2.466392983102047243, 3.837497423423538834 ) ) ;
#233 = ORIENTED_EDGE ( 'NONE', *, *, #641, .F. ) ;
#234 = EDGE_CURVE ( 'NONE', #413, #365, #415, .T. ) ;
#235 = CARTESIAN_POINT ( 'NONE',  ( 13.15164602853755227, 0.8726859697632590729, 3.433918571400786934 ) ) ;
#236 = CARTESIAN_POINT ( 'NONE',  ( 0.000000000000000000, 0.000000000000000000, 2.000000000000000000 ) ) ;
#237 = ORIENTED_EDGE ( 'NONE', *, *, #632, .F. ) ;
#238 = CARTESIAN_POINT ( 'NONE',  ( 1.114036598699598146, -5.796820775740749276, -5.009214896879692347 ) ) ;
#239 = CARTESIAN_POINT ( 'NONE',  ( 12.00318753607782085, 0.8726859697632590729, 5.071307679431347637 ) ) ;
#240 = VERTEX_POINT ( 'NONE', #357 ) ;
#241 = CARTESIAN_POINT ( 'NONE',  ( 12.73734577896449061, 5.421010862427522170E-17, 4.713961057249199449 ) ) ;
#242 = AXIS2_PLACEMENT_3D ( 'NONE', #573, #225, #765 ) ;
#243 = AXIS2_PLACEMENT_3D ( 'NONE', #198, #79, #727 ) ;
#244 = AXIS2_PLACEMENT_3D ( 'NONE', #294, #541, #69 ) ;
#245 = APPLICATION_PROTOCOL_DEFINITION ( 'draft international standard', 'automotive_design', 1998, #184 ) ;
#246 = VERTEX_POINT ( 'NONE', #530 ) ;
#247 = ADVANCED_BREP_SHAPE_REPRESENTATION ( 'Servo holder - Mouth 3', ( #707, #39 ), #206 ) ;
#248 = ORIENTED_EDGE ( 'NONE', *, *, #396, .T. ) ;
#249 = VERTEX_POINT ( 'NONE', #236 ) ;
#250 = ADVANCED_FACE ( 'NONE', ( #477 ), #705, .T. ) ;
#251 = PRESENTATION_STYLE_ASSIGNMENT (( #189 ) ) ;
#252 = CARTESIAN_POINT ( 'NONE',  ( 14.75862900392339760, 2.319389566840296624, -2.168404344971008868E-16 ) ) ;
#253 = EDGE_CURVE ( 'NONE', #762, #775, #370, .T. ) ;
#254 = AXIS2_PLACEMENT_3D ( 'NONE', #652, #772, #120 ) ;
#255 = VERTEX_POINT ( 'NONE', #132 ) ;
#256 =( BOUNDED_CURVE ( )  B_SPLINE_CURVE ( 3, ( #568, #222, #349, #231 ),
 .UNSPECIFIED., .F., .F. ) 
 B_SPLINE_CURVE_WITH_KNOTS ( ( 4, 4 ),
 ( 3.141592653589794004, 5.291861253542476717 ),
 .UNSPECIFIED. ) 
 CURVE ( )  GEOMETRIC_REPRESENTATION_ITEM ( )  RATIONAL_B_SPLINE_CURVE ( ( 1.000000000000000000, 0.6504094066769879889, 0.6504094066769879889, 1.000000000000000000 ) ) 
 REPRESENTATION_ITEM ( '' )  );
#257 = CARTESIAN_POINT ( 'NONE',  ( 2.000000000000000444, 4.000000000000000000, 0.8500000000000007550 ) ) ;
#258 = VERTEX_POINT ( 'NONE', #257 ) ;
#259 = DIRECTION ( 'NONE',  ( 0.5742292462298662636, 0.000000000000000000, -0.8186945540152807954 ) ) ;
#260 = CARTESIAN_POINT ( 'NONE',  ( 8.852037708587285891, 8.904522409784940251, 8.000000000000000000 ) ) ;
#261 = ORIENTED_EDGE ( 'NONE', *, *, #136, .F. ) ;
#262 = ORIENTED_EDGE ( 'NONE', *, *, #60, .T. ) ;
#263 = EDGE_CURVE ( 'NONE', #465, #578, #116, .T. ) ;
#264 = VERTEX_POINT ( 'NONE', #303 ) ;
#265 = VECTOR ( 'NONE', #722, 1000.000000000000114 ) ;
#266 = ORIENTED_EDGE ( 'NONE', *, *, #29, .T. ) ;
#267 = CARTESIAN_POINT ( 'NONE',  ( 13.00092028383988563, 0.000000000000000000, 9.118796037263749099 ) ) ;
#268 = ORIENTED_EDGE ( 'NONE', *, *, #764, .F. ) ;
#269 = VERTEX_POINT ( 'NONE', #589 ) ;
#270 = LINE ( 'NONE', #509, #205 ) ;
#271 = CARTESIAN_POINT ( 'NONE',  ( 2.000000000000000000, -8.673617379884035472E-16, 7.150000000000000355 ) ) ;
#272 = ORIENTED_EDGE ( 'NONE', *, *, #461, .F. ) ;
#273 = EDGE_CURVE ( 'NONE', #673, #210, #38, .T. ) ;
#274 = CARTESIAN_POINT ( 'NONE',  ( 2.836724337389196826, -5.796820775740748388, -7.465298558925536732 ) ) ;
#275 = DIRECTION ( 'NONE',  ( -0.5742292462298662636, 0.000000000000000000, 0.8186945540152809064 ) ) ;
#276 = ADVANCED_FACE ( 'NONE', ( #497 ), #142, .T. ) ;
#277 = VECTOR ( 'NONE', #498, 1000.000000000000000 ) ;
#278 = EDGE_LOOP ( 'NONE', ( #700, #334, #539, #447 ) ) ;
#279 = DIRECTION ( 'NONE',  ( -0.5742292462298662636, 0.000000000000000000, 0.8186945540152807954 ) ) ;
#280 = AXIS2_PLACEMENT_3D ( 'NONE', #78, #321, #259 ) ;
#281 = CARTESIAN_POINT ( 'NONE',  ( 17.18058613226958187, 4.000000000000000888, 4.336808689942017736E-16 ) ) ;
#282 = VERTEX_POINT ( 'NONE', #8 ) ;
#283 = FACE_BOUND ( 'NONE', #88, .T. ) ;
#284 = LINE ( 'NONE', #33, #482 ) ;
#285 = ORIENTED_EDGE ( 'NONE', *, *, #664, .F. ) ;
#286 = LINE ( 'NONE', #45, #22 ) ;
#287 = EDGE_CURVE ( 'NONE', #355, #264, #306, .T. ) ;
#288 = UNCERTAINTY_MEASURE_WITH_UNIT (LENGTH_MEASURE( 1.000000000000000082E-05 ), #427, 'distance_accuracy_value', 'NONE');
#289 = DIRECTION ( 'NONE',  ( 0.5742292462298664857, 0.000000000000000000, -0.8186945540152806844 ) ) ;
#290 = EDGE_CURVE ( 'NONE', #542, #240, #469, .T. ) ;
#291 = DIRECTION ( 'NONE',  ( 0.000000000000000000, 0.000000000000000000, -1.000000000000000000 ) ) ;
#292 = ORIENTED_EDGE ( 'NONE', *, *, #524, .T. ) ;
#293 = VECTOR ( 'NONE', #83, 1000.000000000000000 ) ;
#294 = CARTESIAN_POINT ( 'NONE',  ( 2.000000000000000000, 4.000000000000000000, 6.000000000000000000 ) ) ;
#295 = AXIS2_PLACEMENT_3D ( 'NONE', #735, #91, #622 ) ;
#296 = CARTESIAN_POINT ( 'NONE',  ( 12.06064623473309005, -6.505213034913026604E-16, 5.678750355607404821 ) ) ;
#297 = CARTESIAN_POINT ( 'NONE',  ( 0.000000000000000000, 0.000000000000000000, 0.000000000000000000 ) ) ;
#298 = ORIENTED_EDGE ( 'NONE', *, *, #767, .F. ) ;
#299 = LINE ( 'NONE', #362, #698 ) ;
#300 = CARTESIAN_POINT ( 'NONE',  ( 14.35629616599972280, 2.287211706858928828, 0.000000000000000000 ) ) ;
#301 = ORIENTED_EDGE ( 'NONE', *, *, #273, .F. ) ;
#302 = DIRECTION ( 'NONE',  ( 0.9374456900226590950, 0.3481315530915585210, 0.000000000000000000 ) ) ;
#303 = CARTESIAN_POINT ( 'NONE',  ( 12.73734577896449061, 5.421010862427522170E-17, 4.713961057249199449 ) ) ;
#304 = ORIENTED_EDGE ( 'NONE', *, *, #169, .T. ) ;
#305 = DIRECTION ( 'NONE',  ( -0.7455767157236693476, -0.4130910679394485530, -0.5229446725604466328 ) ) ;
#306 = CIRCLE ( 'NONE', #318, 1.000000000000000222 ) ;
#307 = PRODUCT_DEFINITION_FORMATION_WITH_SPECIFIED_SOURCE ( 'Symmetric', '', #676, .NOT_KNOWN. ) ;
#308 = EDGE_LOOP ( 'NONE', ( #18, #581 ) ) ;
#309 = CARTESIAN_POINT ( 'NONE',  ( 0.000000000000000000, 4.000000000000000000, 6.000000000000000000 ) ) ;
#310 = EDGE_CURVE ( 'NONE', #168, #750, #64, .T. ) ;
#311 = ORIENTED_EDGE ( 'NONE', *, *, #547, .F. ) ;
#312 = CYLINDRICAL_SURFACE ( 'NONE', #333, 1.149999999999999911 ) ;
#313 = EDGE_CURVE ( 'NONE', #518, #750, #5, .T. ) ;
#314 = ORIENTED_EDGE ( 'NONE', *, *, #234, .F. ) ;
#315 = ADVANCED_FACE ( 'NONE', ( #555 ), #360, .T. ) ;
#316 = SURFACE_SIDE_STYLE ('',( #599 ) ) ;
#317 = DIRECTION ( 'NONE',  ( 0.5742292462298670408, 0.000000000000000000, -0.8186945540152804623 ) ) ;
#318 = AXIS2_PLACEMENT_3D ( 'NONE', #592, #121, #75 ) ;
#319 = CIRCLE ( 'NONE', #600, 1.750000000000003331 ) ;
#320 = DIRECTION ( 'NONE',  ( 0.000000000000000000, 0.000000000000000000, -1.000000000000000000 ) ) ;
#321 = DIRECTION ( 'NONE',  ( 0.7455767157236693476, 0.4130910679394485530, 0.5229446725604466328 ) ) ;
#322 = CARTESIAN_POINT ( 'NONE',  ( 14.87433376722715295, 0.8726859697632607382, 0.9778349093549441040 ) ) ;
#323 = DIRECTION ( 'NONE',  ( 0.7455767157236693476, 0.4130910679394486640, 0.5229446725604466328 ) ) ;
#324 = ORIENTED_EDGE ( 'NONE', *, *, #508, .F. ) ;
#325 = DIRECTION ( 'NONE',  ( 0.7455767157236693476, 0.4130910679394485530, 0.5229446725604466328 ) ) ;
#326 = PRODUCT_DEFINITION_SHAPE ( 'NONE', 'NONE',  #2 ) ;
#327 = FACE_BOUND ( 'NONE', #630, .T. ) ;
#328 = ORIENTED_EDGE ( 'NONE', *, *, #547, .T. ) ;
#329 = CARTESIAN_POINT ( 'NONE',  ( 0.000000000000000000, 4.000000000000000000, 0.000000000000000000 ) ) ;
#330 = CIRCLE ( 'NONE', #623, 1.149999999999999245 ) ;
#331 = VERTEX_POINT ( 'NONE', #13 ) ;
#332 = VECTOR ( 'NONE', #731, 1000.000000000000227 ) ;
#333 = AXIS2_PLACEMENT_3D ( 'NONE', #492, #368, #602 ) ;
#334 = ORIENTED_EDGE ( 'NONE', *, *, #448, .T. ) ;
#335 = CARTESIAN_POINT ( 'NONE',  ( 2.000000000000000000, 4.000000000000000000, 2.000000000000000000 ) ) ;
#336 = EDGE_CURVE ( 'NONE', #108, #240, #56, .T. ) ;
#337 = DIRECTION ( 'NONE',  ( -0.5742292462298653755, 0.000000000000000000, 0.8186945540152815726 ) ) ;
#338 = ORIENTED_EDGE ( 'NONE', *, *, #350, .F. ) ;
#339 = LINE ( 'NONE', #689, #394 ) ;
#340 = EDGE_CURVE ( 'NONE', #452, #216, #730, .T. ) ;
#341 = DIRECTION ( 'NONE',  ( -0.000000000000000000, -1.000000000000000000, -0.000000000000000000 ) ) ;
#342 = ORIENTED_EDGE ( 'NONE', *, *, #372, .T. ) ;
#343 = CARTESIAN_POINT ( 'NONE',  ( 15.01558781784673080, 1.905413639611883259, 4.741280252801906236 ) ) ;
#344 = ADVANCED_FACE ( 'NONE', ( #610 ), #202, .F. ) ;
#345 = CARTESIAN_POINT ( 'NONE',  ( 0.000000000000000000, 4.000000000000000000, 2.000000000000000000 ) ) ;
#346 = AXIS2_PLACEMENT_3D ( 'NONE', #274, #693, #400 ) ;
#347 = ORIENTED_EDGE ( 'NONE', *, *, #489, .F. ) ;
#348 = CARTESIAN_POINT ( 'NONE',  ( 16.03575417052295649, 0.000000000000000000, 0.002106046494642431922 ) ) ;
#349 = CARTESIAN_POINT ( 'NONE',  ( 8.947859703936279274, 0.000000000000000000, 4.550810935789517231 ) ) ;
#350 = EDGE_CURVE ( 'NONE', #249, #175, #359, .T. ) ;
#351 = ORIENTED_EDGE ( 'NONE', *, *, #392, .T. ) ;
#352 = LINE ( 'NONE', #696, #49 ) ;
#353 = FACE_OUTER_BOUND ( 'NONE', #125, .T. ) ;
#354 = DIRECTION ( 'NONE',  ( -0.7455767157236693476, -0.4130910679394485530, -0.5229446725604466328 ) ) ;
#355 = VERTEX_POINT ( 'NONE', #239 ) ;
#356 = DIRECTION ( 'NONE',  ( 0.7455767157236693476, 0.4130910679394485530, 0.5229446725604465218 ) ) ;
#357 = CARTESIAN_POINT ( 'NONE',  ( 16.16404631030646399, 1.905413639611885035, 3.103891144771343313 ) ) ;
#358 = ORIENTED_EDGE ( 'NONE', *, *, #363, .F. ) ;
#359 = CIRCLE ( 'NONE', #540, 2.000000000000000000 ) ;
#360 = CYLINDRICAL_SURFACE ( 'NONE', #624, 2.000000000000000000 ) ;
#361 = VERTEX_POINT ( 'NONE', #493 ) ;
#362 = CARTESIAN_POINT ( 'NONE',  ( 2.000000000000000444, -8.673617379884035472E-16, 3.149999999999999023 ) ) ;
#363 = EDGE_CURVE ( 'NONE', #518, #168, #648, .T. ) ;
#364 = DIRECTION ( 'NONE',  ( -0.5742292462298653755, 0.000000000000000000, 0.8186945540152815726 ) ) ;
#365 = VERTEX_POINT ( 'NONE', #194 ) ;
#366 = DIRECTION ( 'NONE',  ( 0.000000000000000000, 0.000000000000000000, -1.000000000000000000 ) ) ;
#367 = ORIENTED_EDGE ( 'NONE', *, *, #616, .F. ) ;
#368 = DIRECTION ( 'NONE',  ( -0.000000000000000000, 1.000000000000000000, -0.000000000000000000 ) ) ;
#369 = AXIS2_PLACEMENT_3D ( 'NONE', #740, #26, #511 ) ;
#370 = CIRCLE ( 'NONE', #636, 2.000000000000000000 ) ;
#371 = ORIENTED_EDGE ( 'NONE', *, *, #372, .F. ) ;
#372 = EDGE_CURVE ( 'NONE', #361, #119, #117, .T. ) ;
#373 =( NAMED_UNIT ( * ) SI_UNIT ( $, .STERADIAN. ) SOLID_ANGLE_UNIT ( ) );
#374 = ADVANCED_FACE ( 'NONE', ( #435 ), #391, .F. ) ;
#375 = ORIENTED_EDGE ( 'NONE', *, *, #697, .T. ) ;
#376 = CARTESIAN_POINT ( 'NONE',  ( 2.000000000000000444, -8.673617379884035472E-16, 0.8500000000000007550 ) ) ;
#377 = DIRECTION ( 'NONE',  ( 0.000000000000000000, 0.000000000000000000, -1.000000000000000000 ) ) ;
#378 = ORIENTED_EDGE ( 'NONE', *, *, #641, .T. ) ;
#379 = FACE_OUTER_BOUND ( 'NONE', #223, .T. ) ;
#380 = CARTESIAN_POINT ( 'NONE',  ( 2.262495091159330229, -5.796820775740748388, -6.646604004910255270 ) ) ;
#381 = AXIS2_PLACEMENT_3D ( 'NONE', #93, #143, #320 ) ;
#382 = CIRCLE ( 'NONE', #35, 1.000000000000001110 ) ;
#383 = VECTOR ( 'NONE', #111, 1000.000000000000000 ) ;
#384 = FACE_BOUND ( 'NONE', #723, .T. ) ;
#385 = DIRECTION ( 'NONE',  ( 0.000000000000000000, 0.000000000000000000, 1.000000000000000000 ) ) ;
#386 = FACE_OUTER_BOUND ( 'NONE', #112, .T. ) ;
#387 = ORIENTED_EDGE ( 'NONE', *, *, #487, .F. ) ;
#388 = DIRECTION ( 'NONE',  ( -0.5742292462298662636, 0.000000000000000000, 0.8186945540152809064 ) ) ;
#389 = CARTESIAN_POINT ( 'NONE',  ( 14.30010452099728546, 0.8726859697632625146, 1.796529463370225788 ) ) ;
#390 = EDGE_LOOP ( 'NONE', ( #328, #27, #747, #655, #314 ) ) ;
#391 = CYLINDRICAL_SURFACE ( 'NONE', #346, 1.000000000000000888 ) ;
#392 = EDGE_CURVE ( 'NONE', #750, #554, #145, .T. ) ;
#393 = DIRECTION ( 'NONE',  ( 1.000000000000000000, 0.000000000000000000, -0.000000000000000000 ) ) ;
#394 = VECTOR ( 'NONE', #23, 1000.000000000000000 ) ;
#395 = ORIENTED_EDGE ( 'NONE', *, *, #336, .T. ) ;
#396 = EDGE_CURVE ( 'NONE', #331, #130, #229, .T. ) ;
#397 = CARTESIAN_POINT ( 'NONE',  ( 0.000000000000000000, 0.000000000000000000, 8.000000000000000000 ) ) ;
#398 = DIRECTION ( 'NONE',  ( -0.000000000000000000, -1.000000000000000000, -0.000000000000000000 ) ) ;
#399 = ORIENTED_EDGE ( 'NONE', *, *, #340, .T. ) ;
#400 = DIRECTION ( 'NONE',  ( 0.5742292462298661526, 0.000000000000000000, -0.8186945540152807954 ) ) ;
#401 = LINE ( 'NONE', #580, #757 ) ;
#402 = EDGE_LOOP ( 'NONE', ( #638, #478, #134, #371 ) ) ;
#403 = EDGE_CURVE ( 'NONE', #470, #481, #339, .T. ) ;
#404 = DIRECTION ( 'NONE',  ( 0.000000000000000000, 0.000000000000000000, -1.000000000000000000 ) ) ;
#405 = DIRECTION ( 'NONE',  ( 0.7455767157236693476, 0.4130910679394485530, 0.5229446725604466328 ) ) ;
#406 = CLOSED_SHELL ( 'NONE', ( #25, #110, #741, #428, #451, #475, #250, #276, #124, #692, #315, #662, #52, #374, #209, #4, #344, #753, #738, #171, #68 ) ) ;
#407 = AXIS2_PLACEMENT_3D ( 'NONE', #725, #59, #317 ) ;
#408 = ORIENTED_EDGE ( 'NONE', *, *, #510, .T. ) ;
#409 = VECTOR ( 'NONE', #62, 1000.000000000000114 ) ;
#410 = DIRECTION ( 'NONE',  ( -1.000000000000000000, -0.000000000000000000, 0.000000000000000000 ) ) ;
#411 = CARTESIAN_POINT ( 'NONE',  ( 16.03585325312812060, 0.002491480925112026824, 0.000000000000000000 ) ) ;
#412 =( NAMED_UNIT ( * ) PLANE_ANGLE_UNIT ( ) SI_UNIT ( $, .RADIAN. ) );
#413 = VERTEX_POINT ( 'NONE', #42 ) ;
#414 = LINE ( 'NONE', #639, #77 ) ;
#415 = LINE ( 'NONE', #584, #383 ) ;
#416 = ORIENTED_EDGE ( 'NONE', *, *, #499, .F. ) ;
#417 = CARTESIAN_POINT ( 'NONE',  ( 13.06565231453692988, 5.421010862427522170E-17, 4.245885328808880921 ) ) ;
#418 = EDGE_CURVE ( 'NONE', #355, #216, #635, .T. ) ;
#419 = DIRECTION ( 'NONE',  ( 0.000000000000000000, -0.000000000000000000, 1.000000000000000000 ) ) ;
#420 = ORIENTED_EDGE ( 'NONE', *, *, #150, .T. ) ;
#421 = CARTESIAN_POINT ( 'NONE',  ( 12.57741678230768656, 0.8726859697632590729, 4.252613125416067064 ) ) ;
#422 = AXIS2_PLACEMENT_3D ( 'NONE', #763, #305, #579 ) ;
#423 = CARTESIAN_POINT ( 'NONE',  ( 2.244882374029030014, -4.203113762401960329, -7.880414260918065850 ) ) ;
#424 = ORIENTED_EDGE ( 'NONE', *, *, #454, .F. ) ;
#425 = LINE ( 'NONE', #643, #515 ) ;
#426 = ORIENTED_EDGE ( 'NONE', *, *, #558, .F. ) ;
#427 =( LENGTH_UNIT ( ) NAMED_UNIT ( * ) SI_UNIT ( .MILLI., .METRE. ) );
#428 = ADVANCED_FACE ( 'NONE', ( #453 ), #158, .F. ) ;
#429 = ORIENTED_EDGE ( 'NONE', *, *, #313, .T. ) ;
#430 = CIRCLE ( 'NONE', #242, 1.000000000000000222 ) ;
#431 = EDGE_CURVE ( 'NONE', #246, #361, #459, .T. ) ;
#432 = VECTOR ( 'NONE', #32, 1000.000000000000114 ) ;
#433 = ORIENTED_EDGE ( 'NONE', *, *, #350, .T. ) ;
#434 = CYLINDRICAL_SURFACE ( 'NONE', #280, 1.750000000000003331 ) ;
#435 = FACE_OUTER_BOUND ( 'NONE', #646, .T. ) ;
#436 = ORIENTED_EDGE ( 'NONE', *, *, #603, .T. ) ;
#437 = CARTESIAN_POINT ( 'NONE',  ( 2.000000000000000000, -8.673617379884035472E-16, 6.000000000000000000 ) ) ;
#438 = DIRECTION ( 'NONE',  ( -1.000000000000000000, 0.000000000000000000, 0.000000000000000000 ) ) ;
#439 = DIRECTION ( 'NONE',  ( 0.5742292462298661526, 0.000000000000000000, -0.8186945540152807954 ) ) ;
#440 = ORIENTED_EDGE ( 'NONE', *, *, #717, .F. ) ;
#441 = CARTESIAN_POINT ( 'NONE',  ( 13.48020743132392241, 2.021882711716673331, 0.000000000000000000 ) ) ;
#442 = VECTOR ( 'NONE', #388, 1000.000000000000000 ) ;
#443 = CARTESIAN_POINT ( 'NONE',  ( 19.39680914045993632, 4.000000000000000000, 0.000000000000000000 ) ) ;
#444 = ORIENTED_EDGE ( 'NONE', *, *, #89, .T. ) ;
#445 = FACE_BOUND ( 'NONE', #308, .T. ) ;
#446 = CARTESIAN_POINT ( 'NONE',  ( 10.78238824736466661, 5.974044229262709393, 7.562726105206772687 ) ) ;
#447 = ORIENTED_EDGE ( 'NONE', *, *, #230, .F. ) ;
#448 = EDGE_CURVE ( 'NONE', #714, #691, #37, .T. ) ;
#449 = PLANE ( 'NONE',  #140 ) ;
#450 = FACE_OUTER_BOUND ( 'NONE', #556, .T. ) ;
#451 = ADVANCED_FACE ( 'NONE', ( #739, #445, #102 ), #576, .T. ) ;
#452 = VERTEX_POINT ( 'NONE', #343 ) ;
#453 = FACE_OUTER_BOUND ( 'NONE', #9, .T. ) ;
#454 = EDGE_CURVE ( 'NONE', #657, #621, #595, .T. ) ;
#455 = CIRCLE ( 'NONE', #649, 1.149999999999999911 ) ;
#456 = EDGE_LOOP ( 'NONE', ( #292, #474, #521 ) ) ;
#457 = AXIS2_PLACEMENT_3D ( 'NONE', #174, #419, #500 ) ;
#458 = EDGE_LOOP ( 'NONE', ( #122, #94, #338, #601 ) ) ;
#459 = LINE ( 'NONE', #267, #442 ) ;
#460 = CARTESIAN_POINT ( 'NONE',  ( 16.03955857373456340, 0.007474989512442839490, 0.000000000000000000 ) ) ;
#461 = EDGE_CURVE ( 'NONE', #282, #465, #36, .T. ) ;
#462 = ORIENTED_EDGE ( 'NONE', *, *, #697, .F. ) ;
#463 = FACE_BOUND ( 'NONE', #182, .T. ) ;
#464 = CARTESIAN_POINT ( 'NONE',  ( 2.000000000000000444, 4.000000000000000000, 2.000000000000000000 ) ) ;
#465 = VERTEX_POINT ( 'NONE', #752 ) ;
#466 = CARTESIAN_POINT ( 'NONE',  ( 13.06884498100797032, 0.000000000000000000, 4.477576817825392297 ) ) ;
#467 = CARTESIAN_POINT ( 'NONE',  ( 0.5398073524697319936, -5.796820775740749276, -4.190520342864411774 ) ) ;
#468 = AXIS2_PLACEMENT_3D ( 'NONE', #446, #323, #728 ) ;
#469 = CIRCLE ( 'NONE', #127, 1.000000000000000000 ) ;
#470 = VERTEX_POINT ( 'NONE', #221 ) ;
#471 = STYLED_ITEM ( 'NONE', ( #251 ), #707 ) ;
#472 = DIRECTION ( 'NONE',  ( -1.000000000000000000, 0.000000000000000000, 0.000000000000000000 ) ) ;
#473 = CARTESIAN_POINT ( 'NONE',  ( 2.836724337389200379, -5.796820775740747500, -7.465298558925534955 ) ) ;
#474 = ORIENTED_EDGE ( 'NONE', *, *, #770, .F. ) ;
#475 = ADVANCED_FACE ( 'NONE', ( #463, #283, #28 ), #449, .F. ) ;
#476 = CYLINDRICAL_SURFACE ( 'NONE', #104, 2.000000000000000000 ) ;
#477 = FACE_OUTER_BOUND ( 'NONE', #642, .T. ) ;
#478 = ORIENTED_EDGE ( 'NONE', *, *, #583, .F. ) ;
#479 = CARTESIAN_POINT ( 'NONE',  ( 2.279308862911445743, -2.137703551406682667, 0.000000000000000000 ) ) ;
#480 = DIRECTION ( 'NONE',  ( -0.7455767157236693476, -0.4130910679394485530, -0.5229446725604466328 ) ) ;
#481 = VERTEX_POINT ( 'NONE', #214 ) ;
#482 = VECTOR ( 'NONE', #275, 1000.000000000000000 ) ;
#483 = AXIS2_PLACEMENT_3D ( 'NONE', #537, #709, #534 ) ;
#484 = CARTESIAN_POINT ( 'NONE',  ( 15.36256929945639271, 5.421010862427522170E-17, 0.9711071127477609588 ) ) ;
#485 = EDGE_LOOP ( 'NONE', ( #387, #532 ) ) ;
#486 = LINE ( 'NONE', #118, #574 ) ;
#487 = EDGE_CURVE ( 'NONE', #691, #714, #153, .T. ) ;
#488 = ORIENTED_EDGE ( 'NONE', *, *, #510, .F. ) ;
#489 = EDGE_CURVE ( 'NONE', #413, #175, #270, .T. ) ;
#490 = FACE_OUTER_BOUND ( 'NONE', #535, .T. ) ;
#491 = ORIENTED_EDGE ( 'NONE', *, *, #147, .F. ) ;
#492 = CARTESIAN_POINT ( 'NONE',  ( 2.000000000000000000, -8.673617379884035472E-16, 6.000000000000000000 ) ) ;
#493 = CARTESIAN_POINT ( 'NONE',  ( 13.78563956896527998, 0.000000000000000000, 8.000000000000000000 ) ) ;
#494 = CIRCLE ( 'NONE', #254, 1.000000000000001110 ) ;
#495 = ORIENTED_EDGE ( 'NONE', *, *, #336, .F. ) ;
#496 = DIRECTION ( 'NONE',  ( 0.000000000000000000, -1.000000000000000000, 0.000000000000000000 ) ) ;
#497 = FACE_OUTER_BOUND ( 'NONE', #626, .T. ) ;
#498 = DIRECTION ( 'NONE',  ( 0.5742292462298663747, 1.084202172485503941E-16, -0.8186945540152807954 ) ) ;
#499 = EDGE_CURVE ( 'NONE', #361, #762, #154, .T. ) ;
#500 = DIRECTION ( 'NONE',  ( 1.000000000000000000, 0.000000000000000000, -0.000000000000000000 ) ) ;
#501 = DIRECTION ( 'NONE',  ( 0.7455767157236693476, 0.4130910679394486640, 0.5229446725604466328 ) ) ;
#502 = CARTESIAN_POINT ( 'NONE',  ( 2.000000000000000000, 4.000000000000000000, 6.000000000000000000 ) ) ;
#503 = AXIS2_PLACEMENT_3D ( 'NONE', #217, #564, #679 ) ;
#504 = DIRECTION ( 'NONE',  ( 0.5742292462298663747, 0.000000000000000000, -0.8186945540152809064 ) ) ;
#505 = DIRECTION ( 'NONE',  ( 0.000000000000000000, -0.000000000000000000, -1.000000000000000000 ) ) ;
#506 = EDGE_CURVE ( 'NONE', #148, #331, #96, .T. ) ;
#507 = LINE ( 'NONE', #566, #10 ) ;
#508 = EDGE_CURVE ( 'NONE', #691, #144, #299, .T. ) ;
#509 = CARTESIAN_POINT ( 'NONE',  ( 0.000000000000000000, 0.000000000000000000, 0.000000000000000000 ) ) ;
#510 = EDGE_CURVE ( 'NONE', #81, #108, #572, .T. ) ;
#511 = DIRECTION ( 'NONE',  ( 0.5742292462298661526, 0.000000000000000000, -0.8186945540152809064 ) ) ;
#512 = ORIENTED_EDGE ( 'NONE', *, *, #310, .T. ) ;
#513 = CARTESIAN_POINT ( 'NONE',  ( 14.85960300230027009, 2.137144372193892750, 0.000000000000000000 ) ) ;
#514 = LINE ( 'NONE', #167, #138 ) ;
#515 = VECTOR ( 'NONE', #410, 1000.000000000000000 ) ;
#516 = ORIENTED_EDGE ( 'NONE', *, *, #169, .F. ) ;
#517 = CYLINDRICAL_SURFACE ( 'NONE', #719, 0.9999999999999997780 ) ;
#518 = VERTEX_POINT ( 'NONE', #536 ) ;
#519 = CARTESIAN_POINT ( 'NONE',  ( 16.03926884368780037, -7.589415207398531038E-16, 0.006317814389555182972 ) ) ;
#520 = DIRECTION ( 'NONE',  ( -0.000000000000000000, 1.000000000000000000, -0.000000000000000000 ) ) ;
#521 = ORIENTED_EDGE ( 'NONE', *, *, #220, .F. ) ;
#522 = DIRECTION ( 'NONE',  ( 0.7455767157236693476, 0.4130910679394486640, 0.5229446725604465218 ) ) ;
#523 = CARTESIAN_POINT ( 'NONE',  ( 14.28249180386698214, 2.466392983102046799, 0.5627192073624137647 ) ) ;
#524 = EDGE_CURVE ( 'NONE', #365, #771, #286, .T. ) ;
#525 = LINE ( 'NONE', #713, #166 ) ;
#526 = VECTOR ( 'NONE', #302, 1000.000000000000114 ) ;
#527 = ORIENTED_EDGE ( 'NONE', *, *, #92, .F. ) ;
#528 = DIRECTION ( 'NONE',  ( 0.7455767157236693476, 0.4130910679394485530, 0.5229446725604466328 ) ) ;
#529 = EDGE_CURVE ( 'NONE', #578, #452, #708, .T. ) ;
#530 = CARTESIAN_POINT ( 'NONE',  ( 19.39680914045993632, 5.637851296924623057E-15, 4.336808689942017736E-16 ) ) ;
#531 = SHAPE_DEFINITION_REPRESENTATION ( #326, #247 ) ;
#532 = ORIENTED_EDGE ( 'NONE', *, *, #448, .F. ) ;
#533 = DIRECTION ( 'NONE',  ( -0.000000000000000000, 1.000000000000000000, -0.000000000000000000 ) ) ;
#534 = DIRECTION ( 'NONE',  ( -0.5742292462298670408, 0.000000000000000000, 0.8186945540152804623 ) ) ;
#535 = EDGE_LOOP ( 'NONE', ( #729, #444, #200, #226 ) ) ;
#536 = CARTESIAN_POINT ( 'NONE',  ( 13.48020743132392241, 2.021882711716673331, 0.000000000000000000 ) ) ;
#537 = CARTESIAN_POINT ( 'NONE',  ( 14.44135857161686332, 1.905413639611883259, 5.559974806817186810 ) ) ;
#538 =( NAMED_UNIT ( * ) SI_UNIT ( $, .STERADIAN. ) SOLID_ANGLE_UNIT ( ) );
#539 = ORIENTED_EDGE ( 'NONE', *, *, #508, .T. ) ;
#540 = AXIS2_PLACEMENT_3D ( 'NONE', #179, #208, #16 ) ;
#541 = DIRECTION ( 'NONE',  ( -0.000000000000000000, -1.000000000000000000, -0.000000000000000000 ) ) ;
#542 = VERTEX_POINT ( 'NONE', #701 ) ;
#543 = CARTESIAN_POINT ( 'NONE',  ( 2.000000000000000444, -8.673617379884035472E-16, 3.149999999999999023 ) ) ;
#544 = ORIENTED_EDGE ( 'NONE', *, *, #196, .F. ) ;
#545 = FACE_OUTER_BOUND ( 'NONE', #456, .T. ) ;
#546 = ORIENTED_EDGE ( 'NONE', *, *, #487, .T. ) ;
#547 = EDGE_CURVE ( 'NONE', #413, #518, #58, .T. ) ;
#548 = DIRECTION ( 'NONE',  ( -0.000000000000000000, 1.000000000000000000, -0.000000000000000000 ) ) ;
#549 = DIRECTION ( 'NONE',  ( -0.5742292462298665967, 0.000000000000000000, 0.8186945540152805734 ) ) ;
#550 = DIRECTION ( 'NONE',  ( -0.7455767157236693476, -0.4130910679394486640, -0.5229446725604466328 ) ) ;
#551 =( NAMED_UNIT ( * ) PLANE_ANGLE_UNIT ( ) SI_UNIT ( $, .RADIAN. ) );
#552 = DIRECTION ( 'NONE',  ( 0.000000000000000000, 0.000000000000000000, -1.000000000000000000 ) ) ;
#553 = CARTESIAN_POINT ( 'NONE',  ( 0.5398073524697319936, -5.796820775740749276, -4.190520342864411774 ) ) ;
#554 = VERTEX_POINT ( 'NONE', #176 ) ;
#555 = FACE_OUTER_BOUND ( 'NONE', #651, .T. ) ;
#556 = EDGE_LOOP ( 'NONE', ( #160, #395, #695, #285, #261, #367 ) ) ;
#557 = ORIENTED_EDGE ( 'NONE', *, *, #461, .T. ) ;
#558 = EDGE_CURVE ( 'NONE', #554, #657, #11, .T. ) ;
#559 = DIRECTION ( 'NONE',  ( 0.000000000000000000, -1.000000000000000000, 0.000000000000000000 ) ) ;
#560 = VECTOR ( 'NONE', #769, 1000.000000000000114 ) ;
#561 = EDGE_CURVE ( 'NONE', #578, #355, #586, .T. ) ;
#562 = CYLINDRICAL_SURFACE ( 'NONE', #177, 1.149999999999999023 ) ;
#563 = ORIENTED_EDGE ( 'NONE', *, *, #603, .F. ) ;
#564 = DIRECTION ( 'NONE',  ( -0.000000000000000000, 1.000000000000000000, -0.000000000000000000 ) ) ;
#565 = UNCERTAINTY_MEASURE_WITH_UNIT (LENGTH_MEASURE( 1.000000000000000082E-05 ), #181, 'distance_accuracy_value', 'NONE');
#566 = CARTESIAN_POINT ( 'NONE',  ( 0.000000000000000000, 4.000000000000000000, 2.000000000000000000 ) ) ;
#567 = CARTESIAN_POINT ( 'NONE',  ( -0.03442189376013423535, -5.796820775740749276, -3.371825788849131200 ) ) ;
#568 = CARTESIAN_POINT ( 'NONE',  ( 7.534049906540855268, 0.000000000000000000, 0.7152147815177068990 ) ) ;
#569 = ORIENTED_EDGE ( 'NONE', *, *, #273, .T. ) ;
#570 = CARTESIAN_POINT ( 'NONE',  ( 16.03399340007767648, -6.500000000000000447E-06, 0.000000000000000000 ) ) ;
#571 = CIRCLE ( 'NONE', #63, 1.000000000000000000 ) ;
#572 = CIRCLE ( 'NONE', #660, 1.000000000000001110 ) ;
#573 = CARTESIAN_POINT ( 'NONE',  ( 14.44135857161686332, 1.905413639611883259, 5.559974806817186810 ) ) ;
#574 = VECTOR ( 'NONE', #291, 1000.000000000000000 ) ;
#575 = ORIENTED_EDGE ( 'NONE', *, *, #253, .F. ) ;
#576 = PLANE ( 'NONE',  #103 ) ;
#577 = CARTESIAN_POINT ( 'NONE',  ( 14.87433376722715295, 0.8726859697632625146, 0.9778349093549441040 ) ) ;
#578 = VERTEX_POINT ( 'NONE', #235 ) ;
#579 = DIRECTION ( 'NONE',  ( -0.5742292462298665967, 0.000000000000000000, 0.8186945540152805734 ) ) ;
#580 = CARTESIAN_POINT ( 'NONE',  ( 2.000000000000000444, -8.673617379884035472E-16, 0.8500000000000007550 ) ) ;
#581 = ORIENTED_EDGE ( 'NONE', *, *, #89, .F. ) ;
#582 = FACE_OUTER_BOUND ( 'NONE', #458, .T. ) ;
#583 = EDGE_CURVE ( 'NONE', #148, #246, #352, .T. ) ;
#584 = CARTESIAN_POINT ( 'NONE',  ( 5.386013710213160444, 0.000000000000000000, 3.777729530300137473 ) ) ;
#585 = EDGE_CURVE ( 'NONE', #108, #282, #494, .T. ) ;
#586 = CIRCLE ( 'NONE', #191, 1.000000000000000222 ) ;
#587 = ORIENTED_EDGE ( 'NONE', *, *, #114, .F. ) ;
#588 = CARTESIAN_POINT ( 'NONE',  ( 15.36576196592743138, 0.000000000000000000, 1.202798601764267339 ) ) ;
#589 = CARTESIAN_POINT ( 'NONE',  ( 15.36256929945639271, 5.421010862427522170E-17, 0.9711071127477609588 ) ) ;
#590 = ORIENTED_EDGE ( 'NONE', *, *, #263, .T. ) ;
#591 = CARTESIAN_POINT ( 'NONE',  ( 14.87433376722715295, 0.8726859697632625146, 0.9778349093549441040 ) ) ;
#592 = CARTESIAN_POINT ( 'NONE',  ( 12.57741678230768656, 0.8726859697632590729, 4.252613125416067064 ) ) ;
#593 = ORIENTED_EDGE ( 'NONE', *, *, #767, .T. ) ;
#594 = CARTESIAN_POINT ( 'NONE',  ( 3.410953583619063867, -5.796820775740748388, -8.283993112940818193 ) ) ;
#595 =( BOUNDED_CURVE ( )  B_SPLINE_CURVE ( 3, ( #519, #86, #348, #570 ),
 .UNSPECIFIED., .F., .F. ) 
 B_SPLINE_CURVE_WITH_KNOTS ( ( 4, 4 ),
 ( 0.9913240536371078493, 0.9935642615381432563 ),
 .UNSPECIFIED. ) 
 CURVE ( )  GEOMETRIC_REPRESENTATION_ITEM ( )  RATIONAL_B_SPLINE_CURVE ( ( 1.000000000000000000, 0.9999995817890903194, 0.9999995817890903194, 1.000000000000000000 ) ) 
 REPRESENTATION_ITEM ( '' )  );
#596 = APPLICATION_PROTOCOL_DEFINITION ( 'draft international standard', 'automotive_design', 1998, #618 ) ;
#597 = ORIENTED_EDGE ( 'NONE', *, *, #313, .F. ) ;
#598 = VECTOR ( 'NONE', #472, 1000.000000000000000 ) ;
#599 = SURFACE_STYLE_FILL_AREA ( #74 ) ;
#600 = AXIS2_PLACEMENT_3D ( 'NONE', #185, #354, #53 ) ;
#601 = ORIENTED_EDGE ( 'NONE', *, *, #29, .F. ) ;
#602 = DIRECTION ( 'NONE',  ( 0.000000000000000000, 0.000000000000000000, 1.000000000000000000 ) ) ;
#603 = EDGE_CURVE ( 'NONE', #264, #465, #677, .T. ) ;
#604 = ORIENTED_EDGE ( 'NONE', *, *, #585, .T. ) ;
#605 = DIRECTION ( 'NONE',  ( -0.000000000000000000, 1.000000000000000000, -0.000000000000000000 ) ) ;
#606 = DIRECTION ( 'NONE',  ( 0.000000000000000000, -1.000000000000000000, 0.000000000000000000 ) ) ;
#607 = ORIENTED_EDGE ( 'NONE', *, *, #133, .T. ) ;
#608 = LINE ( 'NONE', #7, #180 ) ;
#609 = AXIS2_PLACEMENT_3D ( 'NONE', #629, #680, #439 ) ;
#610 = FACE_OUTER_BOUND ( 'NONE', #658, .T. ) ;
#611 = CIRCLE ( 'NONE', #710, 1.149999999999999911 ) ;
#612 = DIRECTION ( 'NONE',  ( 0.000000000000000000, 0.000000000000000000, -1.000000000000000000 ) ) ;
#613 = ORIENTED_EDGE ( 'NONE', *, *, #506, .T. ) ;
#614 = CARTESIAN_POINT ( 'NONE',  ( 16.73827555653632615, 1.905413639611885035, 2.285196590756061852 ) ) ;
#615 = CARTESIAN_POINT ( 'NONE',  ( 2.000000000000000000, -8.673617379884035472E-16, 6.000000000000000000 ) ) ;
#616 = EDGE_CURVE ( 'NONE', #282, #269, #751, .T. ) ;
#617 = ORIENTED_EDGE ( 'NONE', *, *, #664, .T. ) ;
#618 = APPLICATION_CONTEXT ( 'automotive_design' ) ;
#619 = CARTESIAN_POINT ( 'NONE',  ( 2.000000000000000444, -8.673617379884035472E-16, 2.000000000000000000 ) ) ;
#620 = CARTESIAN_POINT ( 'NONE',  ( 11.56941656077493086, 4.000000000000000000, 8.000000000000000000 ) ) ;
#621 = VERTEX_POINT ( 'NONE', #55 ) ;
#622 = DIRECTION ( 'NONE',  ( 0.000000000000000000, 0.000000000000000000, -1.000000000000000000 ) ) ;
#623 = AXIS2_PLACEMENT_3D ( 'NONE', #746, #341, #637 ) ;
#624 = AXIS2_PLACEMENT_3D ( 'NONE', #502, #137, #552 ) ;
#625 = CYLINDRICAL_SURFACE ( 'NONE', #227, 0.9999999999999997780 ) ;
#626 = EDGE_LOOP ( 'NONE', ( #268, #593, #375, #266 ) ) ;
#627 = DIRECTION ( 'NONE',  ( -1.000000000000000000, -0.000000000000000000, 0.000000000000000000 ) ) ;
#628 = EDGE_CURVE ( 'NONE', #331, #175, #414, .T. ) ;
#629 = CARTESIAN_POINT ( 'NONE',  ( 2.836724337389196826, -5.796820775740748388, -7.465298558925536732 ) ) ;
#630 = EDGE_LOOP ( 'NONE', ( #399, #188 ) ) ;
#631 = DIRECTION ( 'NONE',  ( 0.000000000000000000, 0.000000000000000000, -1.000000000000000000 ) ) ;
#632 = EDGE_CURVE ( 'NONE', #119, #210, #425, .T. ) ;
#633 = CARTESIAN_POINT ( 'NONE',  ( 2.000000000000000888, -6.500000000000000447E-06, 0.000000000000000000 ) ) ;
#634 = EDGE_LOOP ( 'NONE', ( #101, #358, #429 ) ) ;
#635 = LINE ( 'NONE', #567, #432 ) ;
#636 = AXIS2_PLACEMENT_3D ( 'NONE', #675, #606, #377 ) ;
#637 = DIRECTION ( 'NONE',  ( 0.000000000000000000, 0.000000000000000000, -1.000000000000000000 ) ) ;
#638 = ORIENTED_EDGE ( 'NONE', *, *, #431, .F. ) ;
#639 = CARTESIAN_POINT ( 'NONE',  ( 2.000000000000000000, 4.000000000000000000, 0.000000000000000000 ) ) ;
#640 = DIRECTION ( 'NONE',  ( 0.5742292462298661526, 0.000000000000000000, -0.8186945540152809064 ) ) ;
#641 = EDGE_CURVE ( 'NONE', #255, #481, #611, .T. ) ;
#642 = EDGE_LOOP ( 'NONE', ( #416, #342, #186, #663 ) ) ;
#643 = CARTESIAN_POINT ( 'NONE',  ( 0.000000000000000000, 4.000000000000000000, 8.000000000000000000 ) ) ;
#644 = CARTESIAN_POINT ( 'NONE',  ( 2.000000000000000000, 4.000000000000000000, 8.000000000000000000 ) ) ;
#645 = CARTESIAN_POINT ( 'NONE',  ( 0.000000000000000000, 0.000000000000000000, 6.000000000000000000 ) ) ;
#646 = EDGE_LOOP ( 'NONE', ( #495, #488, #617, #587 ) ) ;
#647 = CARTESIAN_POINT ( 'NONE',  ( 15.03426276388396232, 0.000000000000000000, 1.439182841188072937 ) ) ;
#648 = LINE ( 'NONE', #423, #265 ) ;
#649 = AXIS2_PLACEMENT_3D ( 'NONE', #615, #398, #612 ) ;
#650 = AXIS2_PLACEMENT_3D ( 'NONE', #335, #748, #404 ) ;
#651 = EDGE_LOOP ( 'NONE', ( #301, #298, #575, #71 ) ) ;
#652 = CARTESIAN_POINT ( 'NONE',  ( 14.87433376722715295, 0.8726859697632625146, 0.9778349093549441040 ) ) ;
#653 = CARTESIAN_POINT ( 'NONE',  ( 0.000000000000000000, 4.000000000000000000, 0.000000000000000000 ) ) ;
#654 = DIRECTION ( 'NONE',  ( 1.000000000000000000, 0.000000000000000000, 0.000000000000000000 ) ) ;
#655 = ORIENTED_EDGE ( 'NONE', *, *, #524, .F. ) ;
#656 = CARTESIAN_POINT ( 'NONE',  ( 2.000000000000000000, 4.000000000000000000, 6.000000000000000000 ) ) ;
#657 = VERTEX_POINT ( 'NONE', #109 ) ;
#658 = EDGE_LOOP ( 'NONE', ( #512, #351, #172, #304, #47, #408, #604, #557, #590, #192, #667, #207, #219, #742 ) ) ;
#659 = AXIS2_PLACEMENT_3D ( 'NONE', #473, #405, #640 ) ;
#660 = AXIS2_PLACEMENT_3D ( 'NONE', #591, #528, #768 ) ;
#661 = CARTESIAN_POINT ( 'NONE',  ( -0.05203461089043660837, -4.203113762401960329, -4.605636044856940003 ) ) ;
#662 = ADVANCED_FACE ( 'NONE', ( #582 ), #476, .T. ) ;
#663 = ORIENTED_EDGE ( 'NONE', *, *, #686, .T. ) ;
#664 = EDGE_CURVE ( 'NONE', #81, #542, #48, .T. ) ;
#665 = CARTESIAN_POINT ( 'NONE',  ( 2.000000000000000000, 4.000000000000000000, 8.000000000000000000 ) ) ;
#666 = CARTESIAN_POINT ( 'NONE',  ( 12.57741678230768834, 0.8726859697632599611, 4.252613125416067952 ) ) ;
#667 = ORIENTED_EDGE ( 'NONE', *, *, #287, .T. ) ;
#668 = DIRECTION ( 'NONE',  ( 0.9374456900226590950, 0.3481315530915584655, 0.000000000000000000 ) ) ;
#669 = EDGE_CURVE ( 'NONE', #481, #255, #155, .T. ) ;
#670 = DIRECTION ( 'NONE',  ( -0.7455767157236693476, -0.4130910679394486640, -0.5229446725604466328 ) ) ;
#671 = EDGE_LOOP ( 'NONE', ( #527, #766, #21, #54, #152, #433, #347, #755, #195, #98, #436, #272, #61, #516, #718 ) ) ;
#672 = CIRCLE ( 'NONE', #381, 1.149999999999999911 ) ;
#673 = VERTEX_POINT ( 'NONE', #309 ) ;
#674 = AXIS2_PLACEMENT_3D ( 'NONE', #322, #480, #549 ) ;
#675 = CARTESIAN_POINT ( 'NONE',  ( 2.000000000000000000, 0.000000000000000000, 6.000000000000000000 ) ) ;
#676 = PRODUCT ( 'Servo holder - Mouth 3', 'Servo holder - Mouth 3', '', ( #65 ) ) ;
#677 =( BOUNDED_CURVE ( )  B_SPLINE_CURVE ( 3, ( #241, #164, #466, #417 ),
 .UNSPECIFIED., .F., .F. ) 
 B_SPLINE_CURVE_WITH_KNOTS ( ( 4, 4 ),
 ( 5.993274106995827744, 6.573096507363343832 ),
 .UNSPECIFIED. ) 
 CURVE ( )  GEOMETRIC_REPRESENTATION_ITEM ( )  RATIONAL_B_SPLINE_CURVE ( ( 1.000000000000000000, 0.9721795094930902881, 0.9721795094930902881, 1.000000000000000000 ) ) 
 REPRESENTATION_ITEM ( '' )  );
#678 = LINE ( 'NONE', #14, #277 ) ;
#679 = DIRECTION ( 'NONE',  ( 0.000000000000000000, 0.000000000000000000, 1.000000000000000000 ) ) ;
#680 = DIRECTION ( 'NONE',  ( 0.7455767157236693476, 0.4130910679394486640, 0.5229446725604466328 ) ) ;
#681 = ORIENTED_EDGE ( 'NONE', *, *, #287, .F. ) ;
#682 = DIRECTION ( 'NONE',  ( 0.000000000000000000, -1.000000000000000000, 0.000000000000000000 ) ) ;
#683 = CARTESIAN_POINT ( 'NONE',  ( 2.000000000000000444, -8.673617379884035472E-16, 2.000000000000000000 ) ) ;
#684 = ORIENTED_EDGE ( 'NONE', *, *, #263, .F. ) ;
#685 = DIRECTION ( 'NONE',  ( -1.000000000000000000, 0.000000000000000000, 0.000000000000000000 ) ) ;
#686 = EDGE_CURVE ( 'NONE', #210, #762, #12, .T. ) ;
#687 = AXIS2_PLACEMENT_3D ( 'NONE', #653, #438, #385 ) ;
#688 = CARTESIAN_POINT ( 'NONE',  ( 15.44856301345702043, 0.8726859697632625146, 0.1591403553396625314 ) ) ;
#689 = CARTESIAN_POINT ( 'NONE',  ( 2.000000000000000000, -8.673617379884035472E-16, 4.850000000000000533 ) ) ;
#690 = LINE ( 'NONE', #107, #190 ) ;
#691 = VERTEX_POINT ( 'NONE', #543 ) ;
#692 = ADVANCED_FACE ( 'NONE', ( #490 ), #721, .F. ) ;
#693 = DIRECTION ( 'NONE',  ( 0.7455767157236693476, 0.4130910679394486640, 0.5229446725604466328 ) ) ;
#694 = DIRECTION ( 'NONE',  ( -0.000000000000000000, 1.000000000000000000, -0.000000000000000000 ) ) ;
#695 = ORIENTED_EDGE ( 'NONE', *, *, #290, .F. ) ;
#696 = CARTESIAN_POINT ( 'NONE',  ( 13.14527794029878294, 11.28321685508681682, 0.000000000000000000 ) ) ;
#697 = EDGE_CURVE ( 'NONE', #673, #130, #608, .T. ) ;
#698 = VECTOR ( 'NONE', #533, 1000.000000000000000 ) ;
#699 = DIRECTION ( 'NONE',  ( 0.7455767157236693476, 0.4130910679394486640, 0.5229446725604466328 ) ) ;
#700 = ORIENTED_EDGE ( 'NONE', *, *, #133, .F. ) ;
#701 = CARTESIAN_POINT ( 'NONE',  ( 17.31250480276619186, 1.905413639611885035, 1.466502036740780390 ) ) ;
#702 = CARTESIAN_POINT ( 'NONE',  ( 13.86712932538699583, 1.905413639611883259, 6.378669360832466495 ) ) ;
#703 = EDGE_LOOP ( 'NONE', ( #681, #20, #715, #711, #684, #563 ) ) ;
#704 = CARTESIAN_POINT ( 'NONE',  ( 15.25319477973510196, 0.000000000000000000, 1.363288759487084167 ) ) ;
#705 = PLANE ( 'NONE',  #457 ) ;
#706 = ORIENTED_EDGE ( 'NONE', *, *, #529, .T. ) ;
#707 = MANIFOLD_SOLID_BREP ( 'Cut-Extrude5', #406 ) ;
#708 = LINE ( 'NONE', #238, #90 ) ;
#709 = DIRECTION ( 'NONE',  ( -0.7455767157236693476, -0.4130910679394486640, -0.5229446725604466328 ) ) ;
#710 = AXIS2_PLACEMENT_3D ( 'NONE', #656, #228, #224 ) ;
#711 = ORIENTED_EDGE ( 'NONE', *, *, #529, .F. ) ;
#712 = DIRECTION ( 'NONE',  ( 0.4846401232874369969, -0.8747136393700155610, 0.000000000000000000 ) ) ;
#713 = CARTESIAN_POINT ( 'NONE',  ( 0.000000000000000000, 4.000000000000000000, 6.000000000000000000 ) ) ;
#714 = VERTEX_POINT ( 'NONE', #376 ) ;
#715 = ORIENTED_EDGE ( 'NONE', *, *, #340, .F. ) ;
#716 = DIRECTION ( 'NONE',  ( 0.000000000000000000, 0.000000000000000000, 1.000000000000000000 ) ) ;
#717 = EDGE_CURVE ( 'NONE', #41, #255, #724, .T. ) ;
#718 = ORIENTED_EDGE ( 'NONE', *, *, #454, .T. ) ;
#719 = AXIS2_PLACEMENT_3D ( 'NONE', #467, #699, #749 ) ;
#720 = VECTOR ( 'NONE', #279, 1000.000000000000114 ) ;
#721 = CYLINDRICAL_SURFACE ( 'NONE', #745, 1.149999999999999911 ) ;
#722 = DIRECTION ( 'NONE',  ( 0.7455767157236693476, 0.4130910679394485530, 0.5229446725604465218 ) ) ;
#723 = EDGE_LOOP ( 'NONE', ( #734, #31 ) ) ;
#724 = LINE ( 'NONE', #187, #760 ) ;
#725 = CARTESIAN_POINT ( 'NONE',  ( 12.57741678230768656, 0.8726859697632590729, 4.252613125416067064 ) ) ;
#726 = LINE ( 'NONE', #156, #293 ) ;
#727 = DIRECTION ( 'NONE',  ( 0.000000000000000000, 0.000000000000000000, -1.000000000000000000 ) ) ;
#728 = DIRECTION ( 'NONE',  ( -0.5742292462298662636, 0.000000000000000000, 0.8186945540152809064 ) ) ;
#729 = ORIENTED_EDGE ( 'NONE', *, *, #403, .F. ) ;
#730 = CIRCLE ( 'NONE', #483, 1.000000000000000222 ) ;
#731 = DIRECTION ( 'NONE',  ( -0.4846401232874369969, 0.8747136393700155610, 0.000000000000000000 ) ) ;
#732 = PRESENTATION_LAYER_ASSIGNMENT (  '', '', ( #471 ) ) ;
#733 = DIRECTION ( 'NONE',  ( 0.000000000000000000, -1.000000000000000000, 0.000000000000000000 ) ) ;
#734 = ORIENTED_EDGE ( 'NONE', *, *, #290, .T. ) ;
#735 = CARTESIAN_POINT ( 'NONE',  ( 2.000000000000000444, -8.673617379884035472E-16, 2.000000000000000000 ) ) ;
#736 = PLANE ( 'NONE',  #468 ) ;
#737 = ORIENTED_EDGE ( 'NONE', *, *, #403, .T. ) ;
#738 = ADVANCED_FACE ( 'NONE', ( #15 ), #135, .T. ) ;
#739 = FACE_OUTER_BOUND ( 'NONE', #671, .T. ) ;
#740 = CARTESIAN_POINT ( 'NONE',  ( 2.836724337389200379, -5.796820775740747500, -7.465298558925534955 ) ) ;
#741 = ADVANCED_FACE ( 'NONE', ( #379 ), #312, .F. ) ;
#742 = ORIENTED_EDGE ( 'NONE', *, *, #70, .T. ) ;
#743 = DIRECTION ( 'NONE',  ( 0.4846401232874369414, -0.8747136393700155610, -0.000000000000000000 ) ) ;
#744 = AXIS2_PLACEMENT_3D ( 'NONE', #464, #759, #170 ) ;
#745 = AXIS2_PLACEMENT_3D ( 'NONE', #437, #605, #716 ) ;
#746 = CARTESIAN_POINT ( 'NONE',  ( 2.000000000000000444, 4.000000000000000000, 2.000000000000000000 ) ) ;
#747 = ORIENTED_EDGE ( 'NONE', *, *, #70, .F. ) ;
#748 = DIRECTION ( 'NONE',  ( -0.000000000000000000, 1.000000000000000000, -0.000000000000000000 ) ) ;
#749 = DIRECTION ( 'NONE',  ( 0.5742292462298663747, 0.000000000000000000, -0.8186945540152809064 ) ) ;
#750 = VERTEX_POINT ( 'NONE', #72 ) ;
#751 =( BOUNDED_CURVE ( )  B_SPLINE_CURVE ( 3, ( #647, #704, #588, #484 ),
 .UNSPECIFIED., .F., .F. ) 
 B_SPLINE_CURVE_WITH_KNOTS ( ( 4, 4 ),
 ( 5.993274106995833073, 6.573096507363339391 ),
 .UNSPECIFIED. ) 
 CURVE ( )  GEOMETRIC_REPRESENTATION_ITEM ( )  RATIONAL_B_SPLINE_CURVE ( ( 1.000000000000000000, 0.9721795094930911763, 0.9721795094930911763, 1.000000000000000000 ) ) 
 REPRESENTATION_ITEM ( '' )  );
#752 = CARTESIAN_POINT ( 'NONE',  ( 13.06565231453692988, 5.421010862427522170E-17, 4.245885328808880921 ) ) ;
#753 = ADVANCED_FACE ( 'NONE', ( #545 ), #434, .F. ) ;
#754 = CARTESIAN_POINT ( 'NONE',  ( 16.03770831275376096, 0.004983146433062051427, 0.000000000000000000 ) ) ;
#755 = ORIENTED_EDGE ( 'NONE', *, *, #234, .T. ) ;
#756 = DIRECTION ( 'NONE',  ( 0.5742292462298670408, 0.000000000000000000, -0.8186945540152804623 ) ) ;
#757 = VECTOR ( 'NONE', #694, 1000.000000000000000 ) ;
#758 = AXIS2_PLACEMENT_3D ( 'NONE', #666, #325, #19 ) ;
#759 = DIRECTION ( 'NONE',  ( -0.000000000000000000, -1.000000000000000000, -0.000000000000000000 ) ) ;
#760 = VECTOR ( 'NONE', #548, 1000.000000000000000 ) ;
#761 = DIRECTION ( 'NONE',  ( -0.000000000000000000, 1.000000000000000000, -0.000000000000000000 ) ) ;
#762 = VERTEX_POINT ( 'NONE', #1 ) ;
#763 = CARTESIAN_POINT ( 'NONE',  ( 14.87433376722715295, 0.8726859697632607382, 0.9778349093549441040 ) ) ;
#764 = EDGE_CURVE ( 'NONE', #775, #249, #486, .T. ) ;
#765 = DIRECTION ( 'NONE',  ( -0.5742292462298670408, 0.000000000000000000, 0.8186945540152804623 ) ) ;
#766 = ORIENTED_EDGE ( 'NONE', *, *, #431, .T. ) ;
#767 = EDGE_CURVE ( 'NONE', #775, #673, #525, .T. ) ;
#768 = DIRECTION ( 'NONE',  ( 0.5742292462298664857, 0.000000000000000000, -0.8186945540152806844 ) ) ;
#769 = DIRECTION ( 'NONE',  ( 0.7455767157236693476, 0.4130910679394486640, 0.5229446725604465218 ) ) ;
#770 = EDGE_CURVE ( 'NONE', #157, #771, #319, .T. ) ;
#771 = VERTEX_POINT ( 'NONE', #232 ) ;
#772 = DIRECTION ( 'NONE',  ( 0.7455767157236693476, 0.4130910679394485530, 0.5229446725604466328 ) ) ;
#773 = VECTOR ( 'NONE', #743, 1000.000000000000227 ) ;
#774 = DIRECTION ( 'NONE',  ( 0.000000000000000000, 0.000000000000000000, 1.000000000000000000 ) ) ;
#775 = VERTEX_POINT ( 'NONE', #645 ) ;
ENDSEC;
END-ISO-10303-21;
